<svg xmlns="http://www.w3.org/2000/svg" xmlns:xlink="http://www.w3.org/1999/xlink" width="900" height="505.351" viewBox="0 0 900 505.351"><defs><clipPath id="a"><rect width="505.351" height="900" transform="translate(-6 502.675) rotate(-90)" fill="none"/></clipPath></defs><g transform="translate(-102 -61)"><rect width="888" height="500" transform="translate(108 64)" fill="#72afa6"/><g transform="translate(108 63.675)"><g clip-path="url(#a)"><g opacity="0.5"><path d="M722.446,126.456h-36a.841.841,0,0,1-.829-.7,216.488,216.488,0,0,1-2.995-32.568.841.841,0,0,1,.918-.848,225.372,225.372,0,0,0,35.485.18.838.838,0,0,1,.9.77c1.237,14.817,2.365,25.651,3.354,32.2a.843.843,0,0,1-.832.967Zm-35.281-1.683h34.307c-.941-6.531-2-16.789-3.155-30.523a227.587,227.587,0,0,1-33.995-.156A215.154,215.154,0,0,0,687.165,124.773Zm36.214-6.138a.842.842,0,0,1-.819-.652,111.215,111.215,0,0,1-1.329-11.874,120.269,120.269,0,0,1-.757-13.372l-2.185-2.349a.841.841,0,0,1,.616-1.415h4.475a.84.84,0,0,1,.841.841v27.98a.839.839,0,0,1-.746.835A.625.625,0,0,1,723.379,118.635Zm-2.543-27.979,1.11,1.192a.842.842,0,0,1,.225.617,80.46,80.46,0,0,0,.368,9.292v-11.1ZM705.151,92.3c-5.813,0-11.641-.111-17.422-.333-10.166-.5-23.422-1.571-39.408-3.182a.841.841,0,0,1-.756-.837V51.769a.841.841,0,0,1,.3-.642.863.863,0,0,1,.683-.188c2.292.383,5.3.793,9,1.225a.819.819,0,0,1-.1-.429.84.84,0,0,1,.84-.807H759.738a.84.84,0,0,1,.841.841V87.946a.84.84,0,0,1-.841.841H716.66a.841.841,0,0,1-.6-.253L682.9,54.631l-.658-.053,35.392,36.139a.842.842,0,0,1-.6,1.43h-.181C712.975,92.248,709.066,92.3,705.151,92.3Zm-55.9-5.113c15.619,1.566,28.588,2.609,38.555,3.1,9.044.345,18.215.42,27.274.223l-34-34.719a138.229,138.229,0,0,1-16.159-1.133c-6.7-.678-11.965-1.316-15.67-1.9Zm67.767-.08H758.9V52.61H678.842l4.513.37a.843.843,0,0,1,.532.251Zm5.432-36.544H686.269a.841.841,0,0,1-.842-.841V14.659a.842.842,0,0,1,.842-.842h36.177a.841.841,0,0,1,.841.842V49.72A.84.84,0,0,1,722.446,50.561ZM687.11,48.879H721.6V15.5H687.11Z" fill="#fff"/><path d="M552.9,224.347H499.055a1.257,1.257,0,0,1-1.241-1.054,323.808,323.808,0,0,1-4.48-48.721,1.258,1.258,0,0,1,1.373-1.268,337.164,337.164,0,0,0,53.085.269,1.257,1.257,0,0,1,1.34,1.152c1.85,22.166,3.537,38.375,5.017,48.175a1.26,1.26,0,0,1-1.245,1.447Zm-52.779-2.517h51.321c-1.407-9.771-2.993-25.116-4.718-45.662a340.576,340.576,0,0,1-50.857-.234A322,322,0,0,0,500.125,221.83Zm54.175-9.183a1.257,1.257,0,0,1-1.225-.976c-.574-2.5-1.226-8.308-1.989-17.763a179.7,179.7,0,0,1-1.132-20l-3.269-3.514a1.259,1.259,0,0,1,.922-2.116H554.3a1.257,1.257,0,0,1,1.259,1.258v41.857a1.258,1.258,0,0,1-1.116,1.25A1.169,1.169,0,0,1,554.3,212.647Zm-3.8-41.856,1.661,1.783a1.264,1.264,0,0,1,.335.923,120.584,120.584,0,0,0,.551,13.9V170.791Zm-23.465,2.457c-8.7,0-17.415-.166-26.063-.5-15.209-.749-35.038-2.35-58.953-4.76a1.259,1.259,0,0,1-1.132-1.253v-54.12a1.255,1.255,0,0,1,.445-.96,1.286,1.286,0,0,1,1.021-.281c3.429.572,7.937,1.186,13.467,1.832a1.242,1.242,0,0,1-.146-.643,1.258,1.258,0,0,1,1.257-1.207H608.692a1.257,1.257,0,0,1,1.258,1.259v54.12A1.257,1.257,0,0,1,608.692,168H544.249a1.26,1.26,0,0,1-.9-.379l-49.6-50.718-.983-.08,52.945,54.064a1.258,1.258,0,0,1-.9,2.138h-.271C538.735,173.173,532.887,173.248,527.031,173.248ZM443.4,165.6c23.365,2.343,42.766,3.9,57.677,4.636,13.529.516,27.249.628,40.8.333L491.016,118.63c-4.663.118-12.576-.423-24.174-1.695-10.023-1.016-17.9-1.969-23.442-2.839Zm101.379-.12h62.654v-51.6H487.673l6.751.553a1.262,1.262,0,0,1,.8.375ZM552.9,110.81h-54.12a1.258,1.258,0,0,1-1.259-1.258V57.1a1.258,1.258,0,0,1,1.259-1.259H552.9a1.258,1.258,0,0,1,1.258,1.259v52.451A1.258,1.258,0,0,1,552.9,110.81Zm-52.862-2.517h51.6V58.359h-51.6Z" fill="#fff"/><path d="M739.638,213.627H722.1a.41.41,0,0,1-.405-.343,105.568,105.568,0,0,1-1.459-15.869.413.413,0,0,1,.132-.306.407.407,0,0,1,.315-.107,109.815,109.815,0,0,0,17.291.087.411.411,0,0,1,.437.376c.6,7.219,1.152,12.5,1.634,15.691a.41.41,0,0,1-.406.471Zm-17.191-.82h16.716c-.458-3.182-.974-8.18-1.536-14.872a111.047,111.047,0,0,1-16.566-.077A104.846,104.846,0,0,0,722.447,212.807Zm17.646-2.99a.409.409,0,0,1-.4-.318,54.317,54.317,0,0,1-.648-5.786,58.934,58.934,0,0,1-.369-6.516l-1.064-1.144a.41.41,0,0,1,.3-.69h2.18a.41.41,0,0,1,.41.41v13.634a.409.409,0,0,1-.363.407A.371.371,0,0,1,740.093,209.817Zm-1.239-13.634.541.581a.412.412,0,0,1,.109.3,39.141,39.141,0,0,0,.179,4.527v-5.409Zm-7.643.8c-2.833,0-5.672-.054-8.489-.162-4.954-.244-11.413-.765-19.2-1.55a.41.41,0,0,1-.368-.408V177.235a.41.41,0,0,1,.145-.313.421.421,0,0,1,.332-.092c1.117.187,2.586.387,4.387.6a.409.409,0,0,1,.362-.6h49.432a.409.409,0,0,1,.41.41v17.628a.41.41,0,0,1-.41.41h-20.99a.41.41,0,0,1-.293-.124L720.37,178.63l-.32-.026,17.245,17.609a.41.41,0,0,1-.293.7h-.088C735.023,196.959,733.118,196.983,731.211,196.983Zm-27.24-2.491c7.61.763,13.929,1.271,18.786,1.51,4.407.168,8.876.205,13.29.109L719.48,179.193a67.391,67.391,0,0,1-7.874-.552c-3.265-.331-5.83-.641-7.635-.925Zm33.021-.039H757.4V177.645H718.391l2.2.18a.414.414,0,0,1,.26.122Zm2.646-17.807H722.01a.41.41,0,0,1-.41-.41V159.152a.41.41,0,0,1,.41-.41h17.628a.409.409,0,0,1,.41.41v17.084A.409.409,0,0,1,739.638,176.646Zm-17.218-.82h16.808V159.562H722.42Z" fill="#fff"/><path d="M677.678,259.73H666.386a.263.263,0,0,1-.26-.221,67.985,67.985,0,0,1-.939-10.216.263.263,0,0,1,.288-.266,70.728,70.728,0,0,0,11.131.056.264.264,0,0,1,.281.242c.388,4.648.742,8.047,1.052,10.1a.265.265,0,0,1-.061.211A.261.261,0,0,1,677.678,259.73Zm-11.067-.528h10.761c-.295-2.049-.627-5.266-.989-9.575a71.336,71.336,0,0,1-10.664-.049A67.4,67.4,0,0,0,666.611,259.2Zm11.36-1.925a.264.264,0,0,1-.257-.205,34.685,34.685,0,0,1-.417-3.725,38.045,38.045,0,0,1-.238-4.194l-.685-.737a.264.264,0,0,1,.193-.444h1.4a.264.264,0,0,1,.264.264v8.777a.264.264,0,0,1-.234.262Zm-.8-8.777.348.374a.265.265,0,0,1,.071.193,25.294,25.294,0,0,0,.115,2.915V248.5Zm-4.92.515c-1.824,0-3.652-.035-5.466-.1-3.189-.157-7.347-.493-12.362-1a.265.265,0,0,1-.237-.263V236.3a.264.264,0,0,1,.093-.2.274.274,0,0,1,.215-.059c.719.12,1.664.249,2.823.384a.265.265,0,0,1,.233-.388h31.824a.264.264,0,0,1,.264.264V247.65a.264.264,0,0,1-.264.264H675.863a.265.265,0,0,1-.189-.08l-10.4-10.635-.206-.016,11.1,11.336a.265.265,0,0,1-.189.449h-.057C674.707,249,673.481,249.015,672.253,249.015Zm-17.537-1.6c4.9.492,8.968.819,12.094.972,2.837.109,5.714.132,8.556.07L664.7,237.562a43.3,43.3,0,0,1-5.07-.355c-2.1-.213-3.753-.413-4.915-.6Zm21.258-.025h13.138V236.565H664l1.415.116a.27.27,0,0,1,.167.079Zm1.7-11.463H666.329a.264.264,0,0,1-.263-.264v-11a.264.264,0,0,1,.263-.264h11.349a.264.264,0,0,1,.264.264v11A.264.264,0,0,1,677.678,235.923Zm-11.085-.528h10.821V224.924H666.593Z" fill="#fff"/><path d="M573.208,369.5H533.589a.925.925,0,0,1-.913-.775,238.2,238.2,0,0,1-3.3-35.846.925.925,0,0,1,1.01-.933,248.125,248.125,0,0,0,39.057.2.924.924,0,0,1,.986.847c1.361,16.309,2.6,28.234,3.691,35.445a.926.926,0,0,1-.916,1.064Zm-38.832-1.852h37.76c-1.036-7.189-2.2-18.479-3.472-33.6a250.585,250.585,0,0,1-37.418-.172A236.984,236.984,0,0,0,534.376,367.646Zm39.859-6.756a.925.925,0,0,1-.9-.718,122.156,122.156,0,0,1-1.463-13.069,132.107,132.107,0,0,1-.833-14.718l-2.406-2.585a.927.927,0,0,1,.679-1.558h4.925a.926.926,0,0,1,.926.926v30.8a.925.925,0,0,1-.821.92A.761.761,0,0,1,574.235,360.89Zm-2.8-30.8,1.221,1.313a.924.924,0,0,1,.247.679,88.645,88.645,0,0,0,.4,10.227V330.094ZM554.172,331.9c-6.4,0-12.813-.122-19.176-.366-11.189-.551-25.779-1.729-43.374-3.5a.926.926,0,0,1-.833-.922V287.293a.924.924,0,0,1,.327-.706.95.95,0,0,1,.752-.207c2.523.421,5.84.873,9.908,1.348a.926.926,0,0,1,.817-1.361H614.254a.926.926,0,0,1,.926.926v39.819a.925.925,0,0,1-.926.926H566.84a.928.928,0,0,1-.662-.278l-36.493-37.316-.723-.059,38.954,39.777a.926.926,0,0,1-.662,1.574h-.2C562.784,331.847,558.481,331.9,554.172,331.9Zm-61.531-5.627c17.191,1.723,31.465,2.871,42.436,3.411,9.954.379,20.048.462,30.02.245l-37.423-38.214a152.3,152.3,0,0,1-17.786-1.247c-7.374-.747-13.169-1.449-17.247-2.089Zm74.589-.089h46.1V288.219H525.215l4.967.407a.935.935,0,0,1,.586.276Zm5.978-40.222H533.389a.925.925,0,0,1-.926-.926V246.447a.926.926,0,0,1,.926-.926h39.819a.926.926,0,0,1,.926.926v38.591A.925.925,0,0,1,573.208,285.964Zm-38.893-1.852h37.967V247.373H534.315Z" fill="#fff"/><path d="M589.626,310.655H572.288a.405.405,0,0,1-.4-.339,104.269,104.269,0,0,1-1.442-15.687.4.4,0,0,1,.13-.3.407.407,0,0,1,.312-.106,108.5,108.5,0,0,0,17.092.087.4.4,0,0,1,.431.371c.6,7.137,1.139,12.356,1.616,15.511a.406.406,0,0,1-.4.466Zm-16.994-.811h16.524c-.453-3.146-.963-8.086-1.519-14.7a109.578,109.578,0,0,1-16.375-.075A103.684,103.684,0,0,0,572.632,309.844Zm17.443-2.956a.4.4,0,0,1-.394-.314,53.523,53.523,0,0,1-.641-5.72,57.985,57.985,0,0,1-.364-6.441l-1.053-1.131a.405.405,0,0,1,.3-.681h2.156a.4.4,0,0,1,.405.4v13.477a.4.4,0,0,1-.359.4A.374.374,0,0,1,590.075,306.888Zm-1.225-13.477.535.574a.4.4,0,0,1,.108.3,38.846,38.846,0,0,0,.177,4.476v-5.347Zm-7.555.791c-2.8,0-5.607-.053-8.392-.16-4.9-.241-11.281-.757-18.981-1.533a.406.406,0,0,1-.365-.4V274.68a.405.405,0,0,1,.144-.309.413.413,0,0,1,.329-.09c1.1.184,2.555.382,4.336.59a.4.4,0,0,1,.357-.6h48.865a.405.405,0,0,1,.4.4v17.426a.4.4,0,0,1-.4.4H586.839a.407.407,0,0,1-.29-.122l-15.97-16.33-.316-.026,17.047,17.408a.4.4,0,0,1-.29.688h-.087C585.064,294.178,583.181,294.2,581.295,294.2Zm-26.927-2.462c7.523.754,13.77,1.256,18.571,1.492,4.356.166,8.773.2,13.137.107L569.7,276.616a66.747,66.747,0,0,1-7.783-.545c-3.228-.327-5.763-.634-7.548-.914Zm32.642-.039h20.173V275.086h-38.56l2.174.178a.407.407,0,0,1,.256.12Zm2.616-17.6H572.2a.4.4,0,0,1-.405-.4V256.8a.4.4,0,0,1,.405-.4h17.426a.4.4,0,0,1,.405.4v16.889A.4.4,0,0,1,589.626,274.1Zm-17.021-.811H589.22V257.211H572.6Z" fill="#fff"/><path d="M822.222,417.134a489.463,489.463,0,0,1-77.053-.391,1.829,1.829,0,0,0-1.992,1.842,468.669,468.669,0,0,0,6.26,69.169H831.3c-2.113-14.312-4.513-37.483-7.139-68.948A1.823,1.823,0,0,0,822.222,417.134Zm-69.189,70.044a467.267,467.267,0,0,1-6.174-66.617,494.438,494.438,0,0,0,73.818.339c2.5,29.822,4.806,52.1,6.849,66.278Z" fill="#fff"/><path d="M668.688,409.03c34.712,3.5,63.494,5.822,85.569,6.909,12.553.482,25.207.722,37.83.722,8.5,0,16.989-.108,25.416-.328h.393a1.827,1.827,0,0,0,1.306-3.1l-76.85-78.472,1.428.116,71.993,73.616a1.827,1.827,0,0,0,1.306.55h93.538a1.826,1.826,0,0,0,1.826-1.827V328.657a1.825,1.825,0,0,0-1.826-1.826H690.332a1.826,1.826,0,0,0-1.612,2.684c-8.026-.938-14.57-1.828-19.547-2.659a1.866,1.866,0,0,0-1.482.408,1.819,1.819,0,0,0-.646,1.393v78.555A1.828,1.828,0,0,0,668.688,409.03Zm240.1-78.546v74.9H817.847l-71.932-73.554a1.836,1.836,0,0,0-1.156-.544l-9.8-.8ZM670.7,330.8c8.046,1.263,19.477,2.648,34.026,4.121,16.835,1.847,28.32,2.632,35.088,2.46l73.827,75.388c-19.672.428-39.586.266-59.223-.483-21.643-1.065-49.8-3.329-83.718-6.729Z" fill="#fff"/><path d="M751.087,326.035h78.554a1.826,1.826,0,0,0,1.827-1.827V248.076a1.826,1.826,0,0,0-1.827-1.827H751.087a1.826,1.826,0,0,0-1.827,1.827v76.132A1.826,1.826,0,0,0,751.087,326.035Zm1.826-76.132h74.9v72.478h-74.9Z" fill="#fff"/><path d="M827,446.65c1.108,13.724,2.053,22.158,2.886,25.783a1.828,1.828,0,0,0,1.779,1.417,1.635,1.635,0,0,0,.208-.013,1.824,1.824,0,0,0,1.62-1.814V411.268a1.825,1.825,0,0,0-1.826-1.826h-9.718a1.827,1.827,0,0,0-1.338,3.072l4.746,5.1C825.16,423.233,825.713,433,827,446.65Zm2.84-33.555V437.2a174.85,174.85,0,0,1-.8-20.176,1.83,1.83,0,0,0-.487-1.34l-2.411-2.589Z" fill="#fff"/><path d="M979.876,183.57c-32.8,2.235-63.624,2.082-91.608-.465a2.173,2.173,0,0,0-2.369,2.189,557.27,557.27,0,0,0,7.443,82.236h97.334c-2.513-17.016-5.366-44.563-8.488-81.973A2.167,2.167,0,0,0,979.876,183.57Zm-82.259,83.275a555.669,555.669,0,0,1-7.341-79.2,587.836,587.836,0,0,0,87.764.4c2.977,35.456,5.713,61.936,8.142,78.8Z" fill="#fff"/><path d="M797.338,173.934c41.27,4.159,75.489,6.923,101.734,8.215,14.925.572,29.969.858,44.977.858,10.107,0,20.2-.129,30.217-.39h.467a2.172,2.172,0,0,0,1.553-3.69l-91.367-93.3,1.7.138,85.593,87.523a2.17,2.17,0,0,0,1.553.654H1084.97a2.171,2.171,0,0,0,2.172-2.172V78.378a2.171,2.171,0,0,0-2.172-2.171h-261.9a2.173,2.173,0,0,0-1.918,3.192c-9.542-1.116-17.322-2.174-23.239-3.163a2.224,2.224,0,0,0-1.763.486,2.164,2.164,0,0,0-.767,1.656v93.395A2.172,2.172,0,0,0,797.338,173.934ZM1082.8,80.55V169.6H974.676L889.154,82.152a2.175,2.175,0,0,0-1.374-.647l-11.65-.955Zm-283.07.38c9.566,1.5,23.157,3.147,40.453,4.9,20.016,2.195,33.671,3.129,41.717,2.925l87.774,89.63c-23.388.509-47.064.316-70.411-.575-25.732-1.266-59.211-3.958-99.533-8Z" fill="#fff"/><path d="M895.3,75.261H988.7a2.171,2.171,0,0,0,2.172-2.172V-17.425A2.17,2.17,0,0,0,988.7-19.6H895.3a2.171,2.171,0,0,0-2.172,2.172V73.089A2.171,2.171,0,0,0,895.3,75.261Zm2.172-90.515h89.051V70.917H897.475Z" fill="#fff"/><path d="M985.561,218.661c1.317,16.316,2.441,26.344,3.431,30.654A2.172,2.172,0,0,0,991.107,251a1.9,1.9,0,0,0,.248-.015,2.17,2.17,0,0,0,1.926-2.157V176.6a2.171,2.171,0,0,0-2.172-2.172H979.556a2.172,2.172,0,0,0-1.591,3.652l5.642,6.064C983.369,190.821,984.027,202.433,985.561,218.661Zm3.376-39.893v28.658c-.884-11.1-1.2-19.15-.95-23.988a2.174,2.174,0,0,0-.579-1.593l-2.866-3.077Z" fill="#fff"/></g></g></g></g></svg>