<svg xmlns="http://www.w3.org/2000/svg" xmlns:xlink="http://www.w3.org/1999/xlink" width="900" height="505.35" viewBox="0 0 900 505.35"><defs><clipPath id="a"><rect width="505.35" height="900" transform="translate(-6 502.68) rotate(-90)" fill="none"/></clipPath><linearGradient id="b" x1="1.298" y1="0.278" x2="-0.169" y2="0.687" gradientUnits="objectBoundingBox"><stop offset="0" stop-color="#fac496"/><stop offset="0.25" stop-color="#f1e1c9"/><stop offset="0.45" stop-color="#ebf6ed"/><stop offset="0.56" stop-color="#e9fffb"/><stop offset="0.81" stop-color="#eafffb"/><stop offset="0.92" stop-color="#f2fffb"/><stop offset="0.99" stop-color="#fefffb"/><stop offset="0.99" stop-color="#fffffb"/></linearGradient></defs><g transform="translate(6 2.67)"><g clip-path="url(#a)"><rect width="505.35" height="900" transform="translate(-6 502.68) rotate(-90)" fill="url(#b)" style="isolation:isolate"/><g opacity="0.5"><path d="M722.45,126.46h-36a.847.847,0,0,1-.83-.7,215.988,215.988,0,0,1-2.99-32.57.869.869,0,0,1,.27-.63.85.85,0,0,1,.65-.22,224.592,224.592,0,0,0,35.49.18.846.846,0,0,1,.9.77c1.24,14.82,2.36,25.65,3.35,32.2a.814.814,0,0,1-.19.67.822.822,0,0,1-.64.29Zm-35.28-1.68h34.31c-.94-6.53-2-16.79-3.15-30.52a226.964,226.964,0,0,1-34-.16,215.206,215.206,0,0,0,2.84,30.68Zm36.21-6.14a.845.845,0,0,1-.82-.65,112.1,112.1,0,0,1-1.33-11.87,122.008,122.008,0,0,1-.76-13.37l-2.19-2.35a.843.843,0,0,1,.61-1.42h4.48a.839.839,0,0,1,.84.84V117.8a.844.844,0,0,1-.75.84h-.1Zm-2.54-27.98,1.11,1.19a.8.8,0,0,1,.22.62,80.831,80.831,0,0,0,.37,9.29V90.66h-1.7ZM705.15,92.3c-5.81,0-11.64-.11-17.42-.33-10.17-.5-23.42-1.57-39.41-3.18a.846.846,0,0,1-.76-.84V51.77a.832.832,0,0,1,.3-.64.883.883,0,0,1,.68-.19c2.29.38,5.31.79,9,1.22a.88.88,0,0,1-.1-.43.846.846,0,0,1,.84-.81H759.73a.839.839,0,0,1,.84.84V87.94a.839.839,0,0,1-.84.84H716.65a.839.839,0,0,1-.6-.25l-33.16-33.9-.66-.05,35.39,36.14a.812.812,0,0,1,.17.91.863.863,0,0,1-.78.52h-.18c-3.88.1-7.79.15-11.7.15Zm-55.9-5.11c15.62,1.57,28.59,2.61,38.55,3.1,9.04.35,18.22.42,27.27.22l-34-34.72a137.964,137.964,0,0,1-16.16-1.13c-6.7-.68-11.96-1.32-15.67-1.9V87.19Zm67.77-.08H758.9V52.61H678.85l4.51.37a.879.879,0,0,1,.53.25L717.02,87.1Zm5.43-36.54H686.27a.839.839,0,0,1-.84-.84V14.66a.839.839,0,0,1,.84-.84h36.18a.839.839,0,0,1,.84.84V49.72a.839.839,0,0,1-.84.84Zm-35.34-1.68H721.6V15.5H687.11V48.88Z" fill="#fff"/><path d="M552.9,224.35H499.05a1.257,1.257,0,0,1-1.24-1.05,324.012,324.012,0,0,1-4.48-48.72,1.269,1.269,0,0,1,.4-.94,1.283,1.283,0,0,1,.97-.33,337.466,337.466,0,0,0,53.09.27,1.265,1.265,0,0,1,1.34,1.15c1.85,22.17,3.54,38.37,5.02,48.18a1.28,1.28,0,0,1-.29,1.01,1.257,1.257,0,0,1-.95.44Zm-52.78-2.52h51.32c-1.41-9.77-2.99-25.12-4.72-45.66a341.989,341.989,0,0,1-50.86-.23,324,324,0,0,0,4.25,45.9Zm54.18-9.18a1.269,1.269,0,0,1-1.23-.98c-.57-2.5-1.23-8.31-1.99-17.76a178.7,178.7,0,0,1-1.13-20l-3.27-3.51a1.264,1.264,0,0,1,.92-2.12h6.69a1.255,1.255,0,0,1,1.26,1.26V211.4a1.256,1.256,0,0,1-1.12,1.25h-.14Zm-3.8-41.86,1.66,1.78a1.3,1.3,0,0,1,.34.92,120.263,120.263,0,0,0,.55,13.9V170.78H550.5Zm-23.47,2.46c-8.7,0-17.41-.17-26.06-.5-15.21-.75-35.04-2.35-58.95-4.76a1.265,1.265,0,0,1-1.13-1.25V112.62a1.25,1.25,0,0,1,1.46-1.24c3.43.57,7.94,1.19,13.47,1.83a1.254,1.254,0,0,1,1.11-1.85H608.69a1.255,1.255,0,0,1,1.26,1.26v54.12a1.255,1.255,0,0,1-1.26,1.26H544.25a1.272,1.272,0,0,1-.9-.38l-49.6-50.72-.98-.08,52.95,54.06a1.259,1.259,0,0,1-.9,2.14h-.27q-8.715.225-17.51.23ZM443.4,165.6c23.37,2.34,42.77,3.9,57.68,4.64,13.53.52,27.25.63,40.8.33l-50.86-51.94c-4.66.12-12.58-.42-24.17-1.69-10.02-1.02-17.9-1.97-23.44-2.84v51.5Zm101.38-.12h62.65v-51.6H487.67l6.75.55a1.325,1.325,0,0,1,.8.37Zm8.13-54.67H498.79a1.255,1.255,0,0,1-1.26-1.26V57.1a1.255,1.255,0,0,1,1.26-1.26h54.12a1.255,1.255,0,0,1,1.26,1.26v52.45a1.255,1.255,0,0,1-1.26,1.26Zm-52.86-2.52h51.6V58.36h-51.6v49.93Z" fill="#fff"/><path d="M739.64,213.63H722.1a.408.408,0,0,1-.4-.34,105.587,105.587,0,0,1-1.46-15.87.439.439,0,0,1,.13-.31.42.42,0,0,1,.32-.11,110.146,110.146,0,0,0,17.29.09.412.412,0,0,1,.44.38c.6,7.22,1.15,12.5,1.63,15.69a.429.429,0,0,1-.09.33.41.41,0,0,1-.31.14Zm-17.19-.82h16.72c-.46-3.18-.97-8.18-1.54-14.87a111.082,111.082,0,0,1-16.57-.08A104.883,104.883,0,0,0,722.45,212.81Zm17.65-2.99a.407.407,0,0,1-.4-.32,53.525,53.525,0,0,1-.65-5.79,59.712,59.712,0,0,1-.37-6.52l-1.06-1.14a.409.409,0,0,1,.3-.69h2.18a.406.406,0,0,1,.41.41V209.4a.419.419,0,0,1-.36.41h-.05Zm-1.24-13.63.54.58a.414.414,0,0,1,.11.3,38.181,38.181,0,0,0,.18,4.53v-5.41h-.83Zm-7.64.8c-2.83,0-5.67-.05-8.49-.16-4.95-.24-11.41-.77-19.2-1.55a.412.412,0,0,1-.37-.41V177.24a.41.41,0,0,1,.14-.31.4.4,0,0,1,.33-.09c1.12.19,2.59.39,4.39.6a.464.464,0,0,1-.05-.21.4.4,0,0,1,.41-.39h49.43a.406.406,0,0,1,.41.41v17.63a.406.406,0,0,1-.41.41H736.82a.385.385,0,0,1-.29-.12l-16.16-16.52-.32-.03,17.25,17.61a.4.4,0,0,1,.08.45.4.4,0,0,1-.38.25h-.09c-1.89.05-3.8.07-5.7.07Zm-27.24-2.49c7.61.76,13.93,1.27,18.79,1.51,4.41.17,8.88.2,13.29.11L719.49,179.2a67.774,67.774,0,0,1-7.87-.55c-3.26-.33-5.83-.64-7.64-.92v16.78Zm33.02-.04h20.41V177.65H718.4l2.2.18a.373.373,0,0,1,.26.12L737,194.46Zm2.65-17.81H722.02a.406.406,0,0,1-.41-.41V159.16a.406.406,0,0,1,.41-.41h17.63a.406.406,0,0,1,.41.41v17.08A.406.406,0,0,1,739.65,176.65Zm-17.22-.82h16.81V159.57H722.43Z" fill="#fff"/><path d="M677.68,259.73H666.39a.259.259,0,0,1-.26-.22,67.54,67.54,0,0,1-.94-10.22.3.3,0,0,1,.08-.2.249.249,0,0,1,.2-.07,70.818,70.818,0,0,0,11.13.06.266.266,0,0,1,.28.24c.39,4.65.74,8.05,1.05,10.1a.263.263,0,0,1-.06.21.252.252,0,0,1-.2.09Zm-11.07-.53h10.76c-.3-2.05-.63-5.27-.99-9.57a71.14,71.14,0,0,1-10.66-.05,67.231,67.231,0,0,0,.89,9.62Zm11.36-1.93a.267.267,0,0,1-.26-.2,34.481,34.481,0,0,1-.42-3.72,36.645,36.645,0,0,1-.24-4.19l-.69-.74a.279.279,0,0,1-.05-.29.26.26,0,0,1,.24-.16h1.4a.258.258,0,0,1,.26.26v8.78a.26.26,0,0,1-.23.26h-.03Zm-.8-8.78.35.37a.264.264,0,0,1,.07.19,22.886,22.886,0,0,0,.12,2.91v-3.48h-.53Zm-4.92.52c-1.82,0-3.65-.03-5.47-.1-3.19-.16-7.35-.49-12.36-1a.269.269,0,0,1-.24-.26V236.3a.252.252,0,0,1,.09-.2.274.274,0,0,1,.21-.06c.72.12,1.66.25,2.82.38a.308.308,0,0,1-.03-.13.256.256,0,0,1,.26-.25h31.82a.258.258,0,0,1,.26.26v11.35a.258.258,0,0,1-.26.26H675.84a.273.273,0,0,1-.19-.08l-10.4-10.64-.21-.02,11.1,11.34a.26.26,0,0,1,.05.29.271.271,0,0,1-.24.16h-.06c-1.22.03-2.44.05-3.67.05Zm-17.54-1.6c4.9.49,8.97.82,12.09.97,2.84.11,5.71.13,8.56.07l-10.67-10.89a44.031,44.031,0,0,1-5.07-.36c-2.1-.21-3.75-.41-4.92-.6v10.8Zm21.26-.03h13.14V236.56H664l1.42.12a.246.246,0,0,1,.17.08l10.39,10.63Zm1.7-11.46H666.32a.258.258,0,0,1-.26-.26v-11a.258.258,0,0,1,.26-.26h11.35a.258.258,0,0,1,.26.26v11A.258.258,0,0,1,677.67,235.92Zm-11.08-.53h10.82V224.92H666.59Z" fill="#fff"/><path d="M573.21,369.5H533.59a.924.924,0,0,1-.91-.77,239.925,239.925,0,0,1-3.3-35.85.917.917,0,0,1,.3-.69.887.887,0,0,1,.71-.24,248.026,248.026,0,0,0,39.06.2.932.932,0,0,1,.99.85c1.36,16.31,2.6,28.23,3.69,35.44a.917.917,0,0,1-.91,1.06Zm-38.83-1.85h37.76c-1.04-7.19-2.2-18.48-3.47-33.6a251.171,251.171,0,0,1-37.42-.17,236.5,236.5,0,0,0,3.13,33.77Zm39.86-6.76a.919.919,0,0,1-.9-.72,123.022,123.022,0,0,1-1.46-13.07,133.448,133.448,0,0,1-.83-14.72l-2.41-2.59a.929.929,0,0,1,.68-1.56h4.93a.928.928,0,0,1,.93.93v30.8a.921.921,0,0,1-.82.92h-.11Zm-2.8-30.8,1.22,1.31a.942.942,0,0,1,.25.68,87.923,87.923,0,0,0,.41,10.23V330.09h-1.87Zm-17.26,1.81c-6.4,0-12.81-.12-19.18-.37-11.19-.55-25.78-1.73-43.37-3.5a.93.93,0,0,1-.83-.92V287.29a.934.934,0,0,1,1.08-.92c2.52.42,5.84.87,9.91,1.35a.922.922,0,0,1,.82-1.36H614.27a.928.928,0,0,1,.93.93v39.82a.928.928,0,0,1-.93.93H566.86a.907.907,0,0,1-.66-.28l-36.49-37.32-.72-.06,38.95,39.78a.931.931,0,0,1-.66,1.58h-.2q-6.405.165-12.88.17Zm-61.53-5.63c17.19,1.72,31.47,2.87,42.44,3.41,9.95.38,20.05.46,30.02.25l-37.42-38.21a151.049,151.049,0,0,1-17.79-1.25c-7.37-.75-13.17-1.45-17.25-2.09v37.89Zm74.59-.09h46.1V288.21H525.23l4.97.41a.963.963,0,0,1,.59.28l36.46,37.28Zm5.98-40.22H533.4a.928.928,0,0,1-.93-.93V246.44a.928.928,0,0,1,.93-.93h39.82a.928.928,0,0,1,.93.93v38.59A.928.928,0,0,1,573.22,285.96Zm-38.89-1.85H572.3V247.37H534.33Z" fill="#fff"/><path d="M589.63,310.65H572.29a.4.4,0,0,1-.4-.34,104.356,104.356,0,0,1-1.44-15.69.433.433,0,0,1,.13-.3.4.4,0,0,1,.31-.11,108.813,108.813,0,0,0,17.09.09.4.4,0,0,1,.43.37c.6,7.14,1.14,12.36,1.62,15.51a.4.4,0,0,1-.09.32.41.41,0,0,1-.31.14Zm-16.99-.81h16.52c-.45-3.15-.96-8.09-1.52-14.7a108.414,108.414,0,0,1-16.37-.08A103.929,103.929,0,0,0,572.64,309.84Zm17.44-2.96a.4.4,0,0,1-.39-.31,56.343,56.343,0,0,1-.64-5.72,55.29,55.29,0,0,1-.36-6.44l-1.05-1.13a.407.407,0,0,1,.3-.68h2.16a.412.412,0,0,1,.41.41v13.48a.394.394,0,0,1-.36.4h-.05Zm-1.22-13.48.53.57a.462.462,0,0,1,.11.3,37.364,37.364,0,0,0,.18,4.48V293.4Zm-7.56.79c-2.8,0-5.61-.05-8.39-.16-4.9-.24-11.28-.76-18.98-1.53a.4.4,0,0,1-.36-.4V274.67a.41.41,0,0,1,.14-.31.393.393,0,0,1,.33-.09c1.1.18,2.56.38,4.34.59a.464.464,0,0,1-.05-.21.4.4,0,0,1,.4-.39h48.86a.412.412,0,0,1,.41.41V292.1a.412.412,0,0,1-.41.41H586.84a.4.4,0,0,1-.29-.12l-15.97-16.33-.32-.03,17.05,17.41a.4.4,0,0,1,.08.44.413.413,0,0,1-.37.25h-.09c-1.87.05-3.75.07-5.64.07Zm-26.93-2.46c7.52.75,13.77,1.26,18.57,1.49,4.36.17,8.77.2,13.14.11L569.7,276.61a66.323,66.323,0,0,1-7.78-.55c-3.23-.33-5.76-.63-7.55-.91v16.58Zm32.64-.04h20.17V275.07H568.62l2.17.18a.373.373,0,0,1,.26.12Zm2.62-17.6H572.2a.412.412,0,0,1-.41-.41V256.79a.412.412,0,0,1,.41-.41h17.43a.412.412,0,0,1,.41.41v16.89A.412.412,0,0,1,589.63,274.09Zm-17.02-.81h16.62V257.2H572.61Z" fill="#fff"/><path d="M822.22,417.13a489.789,489.789,0,0,1-77.05-.39,1.8,1.8,0,0,0-1.41.48,1.854,1.854,0,0,0-.59,1.36,469.169,469.169,0,0,0,6.26,69.17H831.3c-2.11-14.31-4.51-37.48-7.14-68.95a1.818,1.818,0,0,0-1.94-1.67Zm-69.19,70.04a466.809,466.809,0,0,1-6.17-66.62,495.4,495.4,0,0,0,73.82.34c2.5,29.82,4.81,52.09,6.85,66.28H753.04Z" fill="#fff"/><path d="M668.69,409.03c34.71,3.5,63.49,5.82,85.57,6.91,12.55.48,25.21.72,37.83.72,8.5,0,16.99-.11,25.42-.33h.39a1.829,1.829,0,0,0,1.3-3.11l-76.85-78.47,1.43.12,71.99,73.62a1.821,1.821,0,0,0,1.31.55h93.54a1.831,1.831,0,0,0,1.83-1.83V328.66a1.831,1.831,0,0,0-1.83-1.83H690.34a1.827,1.827,0,0,0-1.61,2.68c-8.03-.94-14.57-1.83-19.55-2.66a1.835,1.835,0,0,0-2.13,1.8V407.2a1.831,1.831,0,0,0,1.64,1.82Zm240.1-78.55v74.9H817.85l-71.93-73.55a1.826,1.826,0,0,0-1.16-.54l-9.8-.8H908.79Zm-238.09.32c8.05,1.26,19.48,2.65,34.03,4.12,16.84,1.85,28.32,2.63,35.09,2.46l73.83,75.39c-19.67.43-39.59.27-59.22-.48-21.64-1.06-49.8-3.33-83.72-6.73V330.8Z" fill="#fff"/><path d="M751.09,326.03h78.55a1.831,1.831,0,0,0,1.83-1.83V248.07a1.831,1.831,0,0,0-1.83-1.83H751.09a1.831,1.831,0,0,0-1.83,1.83V324.2A1.831,1.831,0,0,0,751.09,326.03Zm1.83-76.13h74.9v72.48h-74.9Z" fill="#fff"/><path d="M827,446.65c1.11,13.72,2.05,22.16,2.89,25.78a1.826,1.826,0,0,0,1.78,1.42,1.476,1.476,0,0,0,.21-.01,1.82,1.82,0,0,0,1.62-1.81V411.28a1.831,1.831,0,0,0-1.83-1.83h-9.72a1.838,1.838,0,0,0-1.68,1.1,1.811,1.811,0,0,0,.34,1.97l4.75,5.1c-.2,5.62.35,15.39,1.64,29.04Zm2.84-33.55v24.1a176.627,176.627,0,0,1-.8-20.18,1.8,1.8,0,0,0-.49-1.34l-2.41-2.59h3.7Z" fill="#fff"/><path d="M979.88,183.57c-32.8,2.24-63.62,2.08-91.61-.46a2.146,2.146,0,0,0-1.67.57,2.217,2.217,0,0,0-.7,1.62,558.738,558.738,0,0,0,7.44,82.24h97.33c-2.51-17.02-5.37-44.56-8.49-81.97a2.178,2.178,0,0,0-2.31-1.99Zm-82.26,83.28a554.981,554.981,0,0,1-7.34-79.2,587.544,587.544,0,0,0,87.76.4c2.98,35.46,5.71,61.94,8.14,78.8H897.61Z" fill="#fff"/><path d="M797.34,173.93c41.27,4.16,75.49,6.92,101.73,8.21,14.93.57,29.97.86,44.98.86q15.165,0,30.22-.39h.47a2.171,2.171,0,0,0,1.55-3.69l-91.37-93.3,1.7.14,85.59,87.52a2.163,2.163,0,0,0,1.55.65h111.21a2.168,2.168,0,0,0,2.17-2.17V78.38a2.168,2.168,0,0,0-2.17-2.17H823.07a2.174,2.174,0,0,0-1.92,3.19c-9.54-1.12-17.32-2.17-23.24-3.16a2.213,2.213,0,0,0-1.76.49,2.164,2.164,0,0,0-.77,1.66v93.39a2.162,2.162,0,0,0,1.95,2.16ZM1082.8,80.55V169.6H974.68L889.16,82.15a2.21,2.21,0,0,0-1.37-.65l-11.65-.95h206.67Zm-283.07.38c9.57,1.5,23.16,3.15,40.45,4.9,20.02,2.2,33.67,3.13,41.72,2.92l87.77,89.63c-23.39.51-47.06.32-70.41-.57-25.73-1.27-59.21-3.96-99.53-8V80.93Z" fill="#fff"/></g></g><rect width="900" height="16.81" transform="translate(-6 483)" fill="#72afa6" style="isolation:isolate"/></g></svg>