
<svg xmlns="http://www.w3.org/2000/svg" version="1.1" xmlns:xlink="http://www.w3.org/1999/xlink" preserveAspectRatio="none" x="0px" y="0px" width="434px" height="390px" viewBox="0 0 434 390">
<defs>
<linearGradient id="Gradient_1" gradientUnits="userSpaceOnUse" x1="18.299999999999983" y1="129.6" x2="269.1" y2="129.6" spreadMethod="pad">
<stop  offset="0%" stop-color="#FAC496"/>

<stop  offset="24.313725490196077%" stop-color="#F4D7B7"/>

<stop  offset="63.92156862745098%" stop-color="#ECF4E8"/>

<stop  offset="83.52941176470588%" stop-color="#E9FFFB"/>
</linearGradient>

<g id="Layer0_0_MEMBER_1_FILL">
<path fill="#FFAC5A" stroke="none" d="
M -213.8 114.45
Q -213.8 111.05 -216.2 108.65 -218.55 106.3 -221.95 106.3 -225.35 106.3 -227.75 108.65 -230.1 111.05 -230.1 114.45 -230.1 117.85 -227.75 120.2 -225.35 122.6 -221.95 122.6 -218.55 122.6 -216.2 120.2 -213.8 117.85 -213.8 114.45 Z"/>
</g>

<g id="Layer0_0_MEMBER_2_FILL">
<path fill="#47B5C3" stroke="none" d="
M -213.8 114.45
Q -213.8 111.05 -216.2 108.65 -218.55 106.3 -221.95 106.3 -225.35 106.3 -227.75 108.65 -230.1 111.05 -230.1 114.45 -230.1 117.85 -227.75 120.2 -225.35 122.6 -221.95 122.6 -218.55 122.6 -216.2 120.2 -213.8 117.85 -213.8 114.45 Z"/>
</g>

<g id="Layer0_0_MEMBER_3_FILL">
<path fill="url(#Gradient_1)" stroke="none" d="
M 269.1 129.6
Q 269.1 77.65 232.35 40.9 195.65 4.2 143.7 4.2 91.75 4.2 55 40.9 18.3 77.65 18.3 129.6 18.3 181.55 55 218.25 91.75 255 143.7 255 195.65 255 232.35 218.25 269.1 181.55 269.1 129.6 Z"/>
</g>

<g id="Layer0_0_MEMBER_5_FILL">
<path fill="url(#Gradient_1)" stroke="none" d="
M 269.1 129.6
Q 269.1 77.65 232.35 40.9 195.65 4.2 143.7 4.2 91.75 4.2 55 40.9 18.3 77.65 18.3 129.6 18.3 181.55 55 218.25 91.75 255 143.7 255 195.65 255 232.35 218.25 269.1 181.55 269.1 129.6 Z"/>
</g>

<g id="Layer0_1_FILL">
<path fill="#0F5DA6" fill-opacity="0.7490196078431373" stroke="none" d="
M 384.95 114.65
Q 384.95 114.25 384.8 113.95 384.65 113.65 384.35 113.4
L 382.75 112.15 381.75 112
Q 381.1 112 380.55 112.05 380.65 111.65 380.65 111.25 380.65 110.45 380.1 109.7 379.7 108.95 378.35 108.05 377.8 107.65 377.35 107.5 377 107.45 376.3 107.5
L 375.15 107.6 374.95 107.75
Q 374.8 107.85 374.95 108 374.75 107.85 374.55 107.75 373.15 106.95 371.55 106.6 365.45 105 360.45 109 359.65 109.6 358.95 110.2 358.1 110.75 357.3 111.25 356.2 112 354.85 112.6 352 114.05 349.7 116.15 347.55 118.1 347.2 121 346.75 124.15 346.85 127.4 346.85 130.2 345.95 132.85 345.95 133.05 345.85 133.2 345.7 133.55 345.55 134 344.95 135.1 344.15 136.15 342.7 138.1 342.4 140.75 341.9 146.45 343.95 151.95 343.9 152 343.85 152.05
L 343.65 153.1
Q 343.45 154.6 342.6 156.3
L 342.25 157
Q 341.65 157.7 341.35 158 340.6 158.75 339.5 160.35 338.55 161.7 338.35 162.25 338.15 163 338 164.5 338 166.05 338.25 167 338.45 167.65 338.75 168.1 338.75 168.15 338.75 168.3
L 338.8 168.5 339.05 168.7
Q 339.15 168.7 339.3 168.85 339.5 168.95 339.65 169.15
L 339.7 169.2
Q 339.85 169.3 340.05 169.55 340.2 169.65 340.35 169.75
L 330.2 174.6
Q 330.1 174.65 330 174.7 330 174.65 330 174.55 329.85 174.7 329.75 174.95
L 329.7 174.95
Q 329.5 175.15 329.5 175.3 329.2 176 328.9 177.1 328.45 179.05 328.05 179.75 327.9 180 327.3 180.8 326.8 181.4 326.65 181.8 326.4 182.55 326.45 183.7 326.5 184.5 326.6 185.75 326.25 185.85 326 186.15
L 325.6 187.15 325.55 189
Q 325.55 189.75 325.65 190 325.65 190.1 325.7 190.15 325.6 190.15 325.45 190.25 325.15 190.55 325.15 191.35 325.15 191.5 325.15 193.9 325.15 195.5 324.9 196.55 324.7 197.45 323.9 199.1 323.1 200.9 322.85 201.7 322.45 203.2 322.45 205.65
L 322.2 218.4
Q 322.2 222.55 322.35 223.8 322.45 224.85 322.7 227.05 322.9 229 322.65 230.35 322.4 231.6 321.5 234.05 320.7 237.15 321.3 240.2 321.3 240.5 321.45 240.8 321.35 240.95 321.3 241.05
L 320.15 242.9
Q 319.6 244 319.55 244.15 319.35 244.7 319.35 245.8
L 319.4 257.65
Q 319.4 257.85 319.45 258.05 319.55 259.1 319.75 260.85 319.95 262.4 319.85 264.6
L 319.85 268.45
Q 320.5 268.45 321.1 268.45 327.05 268.45 333 268.45 333.6 268.45 334.15 268.45
L 334.9 266.1
Q 335.15 264.85 335.15 263.05 335.25 262.9 335.35 262.7 335.5 262.2 335.7 261.65 335.4 262.1 335.15 262.65 335.3 261.65 335.5 260.45
L 339.1 240.2
Q 339.3 238.95 339.85 238.5 339.85 238.35 339.65 238.3 339.6 238.3 339.55 238.35
L 339.65 238.1
Q 339.7 238.2 339.85 238.3
L 339.9 238.3 340.05 248.75
Q 340.25 248.95 340.35 249.25 340.5 249.7 340.2 250.7 340.1 251.1 340 251.6 340 251.85 340 252.1
L 339.95 264.7
Q 339.85 266.35 339.55 268.45 339.85 268.45 340.2 268.45 360.9 268.45 381.6 268.45 396 268.45 410.4 268.45 410.95 268.45 411.55 268.45 417.7 268.45 423.95 268.45 424.25 268.45 424.65 268.45
L 422.65 253.85
Q 422.05 249.25 422.05 247.95 421.85 245.65 422 240.95 422.05 228.4 421 215.9 420.65 212.65 420.35 209.45 419.7 203.6 419.65 201.4 419.75 198 419.75 196.25 419.75 193.25 419.35 191.15 418.95 189.55 417.4 185.55 416 182.05 415.75 179.9 415.75 176.45 415.6 174.75 415.35 171.85 413.9 170.4 412.95 169.45 411.25 169.05 410.25 168.8 408.15 168.6
L 399.9 167.95
Q 400 167.75 399.9 167.65 399.85 167.5 399.75 167.45
L 400.2 167.4
Q 400.45 167 400 166.05 398.4 163.35 396.2 162.95 395.15 162.9 394.7 162.75 393.1 162.4 392.15 160.55
L 391.8 160.55 391.8 160.5
Q 391.95 159.1 392.5 156.55 393.1 153.55 392.85 151.8 392.8 150.9 392.25 149.15 391.7 147.3 391.6 146.4 391.45 145.6 391.45 144.05 391.4 138.05 390.75 135.1 390.25 132.85 389.2 130.55 388.45 129.15 388.25 128.5 387.7 127.1 387.85 125.45 387.9 125.25 387.9 125.15 388 125.15 388.05 125.1 388.45 124.5 388.6 123 388.6 121.55 388.5 121.25 388.45 120.5 388.05 119.7 387.7 118.95 387.1 118.3
L 385.15 116.6
Q 384.9 116.25 384.9 115.65 384.95 115 384.95 114.65
M 353.85 140.4
Q 353.75 140.25 353.7 140.2 353.75 140.05 353.85 139.95 353.85 140.1 353.85 140.4 Z"/>
</g>

<g id="Layer0_2_FILL">
<path fill="#0F5DA6" fill-opacity="0.7490196078431373" stroke="none" d="
M 74.6 183.95
Q 67.45 187.25 62.7 193.35 60.05 196.95 59.2 201.3 58.3 206.35 58.75 211.4
L 58.9 215.45
Q 58.1 215.75 57.8 216.45 57.75 216.6 57.7 216.85 57.7 216.95 57.7 217.1 57.6 217.5 57.6 217.95 57.6 219.1 57.75 220.1
L 57.7 220.1 57.6 220.4
Q 57.7 220.5 57.8 220.55 58.35 223.15 60.2 225.65 61.3 227.15 61.8 229.1 62.55 232.05 65.55 231.7 65.7 231.65 65.85 231.65 65.85 233.15 65.9 233.35
L 66.3 234.8
Q 66.85 236.55 67.45 238.95 67.75 241.45 67.6 245.25 67.6 246.3 67.55 247.2 67.55 247.55 67.55 247.85 67.2 247.85 66.9 247.95
L 62.4 249.5
Q 61.5 249.6 61.65 250.25 60.75 250.15 59.9 250.75 59.15 251.35 58.9 252.35 58.8 253.1 58.8 254.65 58.8 254.7 58.75 255.1
L 58.7 255
Q 58.45 254.55 57.8 254.7 57.3 254.85 56.95 255.25 53.35 258.3 45.25 262.8 36.95 267.3 33.5 270.3 30.95 272.55 29.55 273 28.8 273.3 27.15 273.6 25.65 273.9 25 274.6 24.6 275.1 24.2 275.9 24 276.35 23.75 277.35 23.4 278.35 22.4 279.65 21.9 280.35 20.8 281.75 16.55 287.55 16.2 295.1 16.2 298.45 16 299.5 15.9 300.6 14.95 303.25 14.35 305.7 14.3 307.05 14.3 308.9 15.65 312.85
L 16 313.85
Q 15.9 314 15.65 314.25 15.4 314.6 15.4 315.45 15.4 320.1 15.1 323.45 14.8 326.8 14.1 333.45 13.65 338.05 13.85 347.15 13.85 349 14.25 350.35
L 14.9 352.4
Q 15.3 353.6 15.6 356.25 15.9 358.35 17.2 361.8 17.05 362.9 17.45 364.1 17.4 364.2 17.3 364.3 18.45 366.4 18.95 368.9
L 20.55 375.35
Q 20.65 375.75 20.8 376.15 20.9 376.45 21 376.75 21.7 376.75 22.3 376.75 32.45 376.75 42.6 376.75 42.95 376.75 43.25 376.75 60.3 376.75 77.3 376.75 85.05 376.75 92.85 376.75 93.2 376.75 93.5 376.75 97.8 376.75 102.15 376.75 102.5 376.75 102.9 376.75 120.6 376.75 138.35 376.75 143.7 376.75 149.1 376.75
L 152.15 373.95
Q 154.1 372 154.4 371.45 155 370.75 155.55 369.25 155.95 367.45 156.25 366.6 156.5 366 156.85 365.4 157.25 364.85 157.75 364.25 159.2 362.45 159.45 362.1 161.05 359.65 161.45 355.65 161.6 350.95 161.65 348.7 162 345.25 162.1 343.5 162.35 340.75 162.1 336.5 162.65 331.4 162.75 325.65 163 315.15 161.65 309.65 160.3 305 159.95 302.65 159.7 301.05 159.6 298.25 159.5 295.1 159.45 294.05 159.15 290.15 157.55 285.35 156.65 282.85 154.2 277.2 150.85 269.25 147.95 266.15 147.45 265.7 146.95 265.55 146.5 265.35 146.2 265.6 144.3 264.15 142.55 263.25 140.8 262.25 139.5 262.2 139.35 262.2 139.15 262.25 138.9 261.95 138.4 261.7 136.3 260.25 134.05 259.8 131.95 259.5 131.25 259.3 130.6 259.05 129.25 258.2 127.6 257.3 125.9 256.5 121.65 254.25 117.15 252.75 113.55 251.5 112.55 250.95 110.05 249.7 108.9 247.75 108.85 247.7 108.05 246 107.6 244.95 107 244.4 105.8 243.35 104.2 243.75 104.1 243.75 104.05 243.9 103.35 242.35 103.35 241.6
L 103.25 241.15
Q 106.4 234.75 106.1 226.5 106.25 226.5 106.4 226.45 106.75 226.4 107.4 225.8 108.55 224.45 108.85 223.75 109.25 222.7 109.25 220.55
L 109.15 211.35
Q 109.15 209.6 108.5 208.85 107.8 208.3 106 208.45 105.85 208.45 105.8 208.45 105.75 206.45 105.5 204.4 105.25 202.4 104.7 200.45 104.65 200.2 104.55 200 103.75 197.15 102.8 194.35 102.25 192.5 101.25 191 100.4 189.5 99.1 188.3 98.1 187.4 96.95 186.7 91.95 183.9 86.35 182.7 84.2 182.15 82.25 182.2 82.1 182 81.95 181.85 78.1 182.45 74.6 183.95 Z"/>
</g>

<g id="Layer0_3_FILL">
<path fill="#0F5DA6" fill-opacity="0.7490196078431373" stroke="none" d="
M 243.85 43.8
Q 243.55 43.5 243.15 43.5 242.4 43.4 241.9 43.85 242.25 42.5 242.2 41.2
L 242.35 41.1
Q 242.5 41 242.5 40.65
L 242.5 38.6
Q 242.5 36.75 242.35 35.85
L 242.25 35.85
Q 242.1 34.45 242.05 33.75 241.95 32.9 242.1 31.35 242.25 29.6 242.25 29 242.4 26.1 241.05 24.65 240.6 24.2 239.3 23.35 238.15 22.5 237.7 21.9
L 237.2 22
Q 237.15 22.05 237.15 22.2 236.95 22.05 236.75 22.05 236.55 21.7 236.25 21.35 233.95 18.65 230.75 16.9 224.85 13.75 217.2 14.3 209.8 14.85 203.4 18.45 203.4 18.4 203.4 18.35 203.5 17.95 203.15 17.95
L 199.25 19.65
Q 198.05 20.3 197.05 21.15 196.45 21.7 195.45 22.95
L 194.25 24.7
Q 193.65 25.8 193.65 26.1 193 26.45 192.8 27.15
L 192.2 36.85
Q 192.1 38.2 192.2 39.5 192.1 39.5 192.1 39.45 191.65 39.15 190.55 39 189.9 38.9 189.35 39.15 189.05 39.3 188.65 39.8 187.95 40.5 187.6 41.05 187.25 41.65 186.55 43.55
L 186.2 44.7 186 48.5
Q 185.9 49.1 186.1 49.75
L 186.85 51.55
Q 187.25 52.5 187.3 52.75
L 187.5 53.45
Q 187.6 53.75 188.05 54.3
L 188.45 55.25
Q 188.6 55.7 189.2 56.45
L 190.05 57.3 192.8 58.55
Q 193 58.4 193.1 58.3 193.1 58.4 193.1 58.5
L 192.95 63.1
Q 192.85 67.6 193.2 70.7 192.7 70.7 192.35 70.8 190.8 71.4 190.8 74.4
L 190.8 75.05
Q 190.7 75.1 190.65 75.2 190.7 75.4 190.75 75.65 190.55 75.85 190.35 76.15 189.95 76.1 189.6 76.35 188.35 76.9 186.3 78.6 185.55 79.15 183.7 80.1 182.25 81 179.5 83.1 178.45 83.7 175.55 84.95 172.9 86 171.6 86.95 171.35 87.25 171.05 87.4 169.65 87.85 168.1 88.6 167.65 88.85 167.25 89 163.05 91.25 160.7 92.1 158.1 92.9 156.85 93.4 154.65 94.2 153.45 95.25 153 95.7 152 96.9 151.1 97.95 150.5 98.45 149.85 98.95 148.35 99.75 146.9 100.55 146.2 101.1 144.8 102.3 143.95 104.6 143.5 105.9 142.8 108.8 141.2 116.2 138.15 123 136.6 126.25 134.8 129.35 133.8 131.15 131.8 134.85 130.2 138 129.9 140.65 129.7 142.35 129.95 145.25 130.2 148.75 130.2 149.95 130.05 154 127.3 160.85 124.35 168.35 123.9 171.75 123.8 172.15 123.65 175.6 123.5 177.95 123.05 179.4 122.8 180.15 122.95 180.8
L 122.95 180.85
Q 122.6 181.85 122.05 182.75 121.35 183.9 119.75 186.25 118.7 188.25 118.55 190.55 118.45 192.85 119.25 194.95
L 120.75 198
Q 121.7 199.75 124 205.9 124.8 208.2 125.8 210.05 126.7 212.1 127.75 213.55
L 130.45 216.7
Q 132.4 219.1 135.3 224.3 138.25 229.55 140.1 231.85 141.75 233.75 141.8 233.9 142.7 235.05 143.1 236.1 143.15 236.35 143.4 236.85 144.4 236.85 145.35 236.85 157.2 236.85 169 236.85 169.3 236.85 169.55 236.85 178 236.85 186.55 236.85 186.9 236.85 187.2 236.85 207.05 236.85 226.95 236.85 227.35 236.85 227.7 236.85 230.75 236.85 233.85 236.85 234.25 236.85 234.8 236.85 247.5 236.85 260.25 236.85 261.85 236.85 263.5 236.85 263.9 235.2 263.9 231.9 263.8 228.25 264.5 226.55 265.55 224.6 265.95 223.5 266.9 221.55 267.25 217.25 268.2 204.15 269.7 197
L 270.6 192.5
Q 270.85 190.3 270.85 187.15 271.25 186.6 271.45 186.15
L 271.15 185.95
Q 271 186.05 270.8 186.25 270.8 185.95 270.8 185.65
L 270.55 176.1
Q 270.55 175.95 270.55 175.8 270.7 175.6 270.75 175.45 270.9 175.05 271 174.35 271 174.05 271 173.7 270.85 172.9 270.7 172.75
L 270.15 172.4 269.95 171.95
Q 269.7 171.7 269.25 171.55 268.85 171.5 268.65 171.55
L 269.1 163.1
Q 269.4 157.65 269.4 155.4 269.4 151.1 268.7 147.75 268.4 146.3 266.5 139.75 265.1 134.9 265 131.75 265.05 129.05 265.1 127.7 265.2 125.3 264.75 123.75 264.6 123.15 263.9 121.1 263.25 119.55 263.15 118.5 263.05 117.75 263.2 116.2 263.3 114.7 263.2 113.85 263.05 112.6 262.4 111.7 261.7 110.75 260.75 110.7 260.55 108.95 259.95 107.35 258.9 104.7 256.75 103.1 255.75 102.3 254.2 101.5 252.4 100.7 251.45 100.25 249.5 99.35 246.85 97.7 243.85 95.85 242.4 94.85 240.05 93.5 238.95 92.7
L 236.45 90.35
Q 233.2 87.6 228.25 85.95
L 227.55 85.4
Q 227.45 85.35 227.4 85.35 227.4 85.25 227.4 85.2
L 228.45 82.9
Q 228.7 82.2 229.15 81.6
L 229.15 81.5
Q 229.3 81.2 229.45 81 230.6 79.55 231.3 78.4 231.45 78.3 231.8 78.15 233.9 77.15 236 75.7 237.4 74.9 238 73.85 240.2 70.1 241.8 65.6 242.1 64.6 242.1 63.15 242.15 60.3 242.25 57.2 242.35 56.45 242.1 55.8
L 242.2 54.55
Q 242.35 53.25 242.65 52.25 242.85 51.65 243.65 50.05 244.3 48.75 244.55 47.9 244.7 46.7 244.2 44.45 244.1 44 243.85 43.8
M 219.3 57.2
L 219.35 57.2 219.35 57.25 219.3 57.2 Z"/>
</g>

<g id="Paleta_0_Layer1_0_FILL">
<path fill="#F4FAFA" stroke="none" d="
M -0.4 -1409.85
L -0.4 -1169.95 39.55 -1169.95 39.55 -1409.85 -0.4 -1409.85 Z"/>
</g>

<g id="Paleta_0_Layer1_1_FILL">
<path fill="#FAC496" stroke="none" d="
M 119.55 -1409.85
L 79.55 -1409.85 79.55 -1169.95 119.55 -1169.95 119.55 -1409.85 Z"/>
</g>

<g id="Paleta_0_Layer1_2_FILL">
<path fill="#FFAC5A" stroke="none" d="
M 199.5 -1409.85
L 159.5 -1409.85 159.5 -1169.95 199.5 -1169.95 199.5 -1409.85 Z"/>
</g>

<g id="Paleta_0_Layer1_3_FILL">
<path fill="#47B5C3" stroke="none" d="
M 279.45 -1409.85
L 239.45 -1409.85 239.45 -1169.95 279.45 -1169.95 279.45 -1409.85 Z"/>
</g>

<g id="Paleta_0_Layer1_4_FILL">
<path fill="#7CB8AF" stroke="none" d="
M 360.45 -1409.85
L 320.45 -1409.85 320.45 -1169.95 360.45 -1169.95 360.45 -1409.85 Z"/>
</g>

<g id="Paleta_0_Layer1_5_FILL">
<path fill="#572929" stroke="none" d="
M -0.4 -1409.85
L -0.4 -1169.95 39.55 -1169.95 39.55 -1409.85 -0.4 -1409.85 Z"/>
</g>

<g id="Paleta_0_Layer1_6_FILL">
<path fill="#6A3F3F" stroke="none" d="
M 119.55 -1409.85
L 79.55 -1409.85 79.55 -1169.95 119.55 -1169.95 119.55 -1409.85 Z"/>
</g>

<g id="Paleta_0_Layer1_7_FILL">
<path fill="#7B5A53" stroke="none" d="
M 199.5 -1409.85
L 159.5 -1409.85 159.5 -1169.95 199.5 -1169.95 199.5 -1409.85 Z"/>
</g>

<g id="Paleta_0_Layer1_8_FILL">
<path fill="#665945" stroke="none" d="
M -0.4 -1409.85
L -0.4 -1169.95 39.55 -1169.95 39.55 -1409.85 -0.4 -1409.85 Z"/>
</g>

<g id="Paleta_0_Layer1_9_FILL">
<path fill="#767062" stroke="none" d="
M 119.55 -1409.85
L 79.55 -1409.85 79.55 -1169.95 119.55 -1169.95 119.55 -1409.85 Z"/>
</g>

<g id="Paleta_0_Layer1_10_FILL">
<path fill="#A39469" stroke="none" d="
M 199.5 -1409.85
L 159.5 -1409.85 159.5 -1169.95 199.5 -1169.95 199.5 -1409.85 Z"/>
</g>

<g id="Paleta_0_Layer1_11_FILL">
<path fill="#A96042" stroke="none" d="
M -0.4 -1409.85
L -0.4 -1169.95 39.55 -1169.95 39.55 -1409.85 -0.4 -1409.85 Z"/>
</g>

<g id="Paleta_0_Layer1_12_FILL">
<path fill="#B8764D" stroke="none" d="
M 119.55 -1409.85
L 79.55 -1409.85 79.55 -1169.95 119.55 -1169.95 119.55 -1409.85 Z"/>
</g>

<g id="Paleta_0_Layer1_13_FILL">
<path fill="#C98961" stroke="none" d="
M 199.5 -1409.85
L 159.5 -1409.85 159.5 -1169.95 199.5 -1169.95 199.5 -1409.85 Z"/>
</g>

<g id="Paleta_0_Layer1_14_FILL">
<path fill="#8E5336" stroke="none" d="
M -0.4 -1409.85
L -0.4 -1169.95 39.55 -1169.95 39.55 -1409.85 -0.4 -1409.85 Z"/>
</g>

<g id="Paleta_0_Layer1_15_FILL">
<path fill="#9D713F" stroke="none" d="
M 119.55 -1409.85
L 79.55 -1409.85 79.55 -1169.95 119.55 -1169.95 119.55 -1409.85 Z"/>
</g>

<g id="Paleta_0_Layer1_16_FILL">
<path fill="#B78B58" stroke="none" d="
M 199.5 -1409.85
L 159.5 -1409.85 159.5 -1169.95 199.5 -1169.95 199.5 -1409.85 Z"/>
</g>

<g id="Paleta_0_Layer1_17_FILL">
<path fill="#B9716B" stroke="none" d="
M -0.4 -1409.85
L -0.4 -1169.95 39.55 -1169.95 39.55 -1409.85 -0.4 -1409.85 Z"/>
</g>

<g id="Paleta_0_Layer1_18_FILL">
<path fill="#D28C68" stroke="none" d="
M 119.55 -1409.85
L 79.55 -1409.85 79.55 -1169.95 119.55 -1169.95 119.55 -1409.85 Z"/>
</g>

<g id="Paleta_0_Layer1_19_FILL">
<path fill="#D6A16E" stroke="none" d="
M 199.5 -1409.85
L 159.5 -1409.85 159.5 -1169.95 199.5 -1169.95 199.5 -1409.85 Z"/>
</g>

<g id="Paleta_0_Layer1_20_FILL">
<path fill="#C1817B" stroke="none" d="
M -0.4 -1409.85
L -0.4 -1169.95 39.55 -1169.95 39.55 -1409.85 -0.4 -1409.85 Z"/>
</g>

<g id="Paleta_0_Layer1_21_FILL">
<path fill="#DA9E8B" stroke="none" d="
M 119.55 -1409.85
L 79.55 -1409.85 79.55 -1169.95 119.55 -1169.95 119.55 -1409.85 Z"/>
</g>

<g id="Paleta_0_Layer1_22_FILL">
<path fill="#E3B39B" stroke="none" d="
M 199.5 -1409.85
L 159.5 -1409.85 159.5 -1169.95 199.5 -1169.95 199.5 -1409.85 Z"/>
</g>

<g id="Paleta_0_Layer1_23_FILL">
<path fill="#D6AF86" stroke="none" d="
M -0.4 -1409.85
L -0.4 -1169.95 39.55 -1169.95 39.55 -1409.85 -0.4 -1409.85 Z"/>
</g>

<g id="Paleta_0_Layer1_24_FILL">
<path fill="#E3C5AB" stroke="none" d="
M 119.55 -1409.85
L 79.55 -1409.85 79.55 -1169.95 119.55 -1169.95 119.55 -1409.85 Z"/>
</g>

<g id="Paleta_0_Layer1_25_FILL">
<path fill="#ECDCCF" stroke="none" d="
M 199.5 -1409.85
L 159.5 -1409.85 159.5 -1169.95 199.5 -1169.95 199.5 -1409.85 Z"/>
</g>

<g id="Paleta_0_Layer1_26_FILL">
<path fill="#FEACA0" stroke="none" d="
M 9.75 150.65
L 9.75 140.75 -0.1 140.75 -0.1 150.65 9.75 150.65 Z"/>
</g>

<g id="Paleta_0_Layer1_27_FILL">
<path fill="#FCD0C7" stroke="none" d="
M 119.55 -1409.85
L 79.55 -1409.85 79.55 -1169.95 119.55 -1169.95 119.55 -1409.85 Z"/>
</g>

<g id="Paleta_0_Layer1_28_FILL">
<path fill="#F8EAE9" stroke="none" d="
M 199.5 -1409.85
L 159.5 -1409.85 159.5 -1169.95 199.5 -1169.95 199.5 -1409.85 Z"/>
</g>

<g id="Paleta_0_Layer1_29_FILL">
<path fill="#576570" stroke="none" d="
M 119.55 -1409.85
L 79.55 -1409.85 79.55 -1169.95 119.55 -1169.95 119.55 -1409.85 Z"/>
</g>

<g id="Paleta_0_Layer1_30_FILL">
<path fill="#647E7B" stroke="none" d="
M 199.5 -1409.85
L 159.5 -1409.85 159.5 -1169.95 199.5 -1169.95 199.5 -1409.85 Z"/>
</g>

<g id="Paleta_0_Layer1_31_FILL">
<path fill="#634992" stroke="none" d="
M -0.4 -1409.85
L -0.4 -1169.95 39.55 -1169.95 39.55 -1409.85 -0.4 -1409.85 Z"/>
</g>

<g id="Paleta_0_Layer1_32_FILL">
<path fill="#8584E2" stroke="none" d="
M 119.55 -1409.85
L 79.55 -1409.85 79.55 -1169.95 119.55 -1169.95 119.55 -1409.85 Z"/>
</g>

<g id="Paleta_0_Layer1_33_FILL">
<path fill="#BCBBEC" stroke="none" d="
M 199.5 -1409.85
L 159.5 -1409.85 159.5 -1169.95 199.5 -1169.95 199.5 -1409.85 Z"/>
</g>

<g id="Paleta_0_Layer1_34_FILL">
<path fill="#5A9DFF" stroke="none" d="
M -0.4 -1409.85
L -0.4 -1169.95 39.55 -1169.95 39.55 -1409.85 -0.4 -1409.85 Z"/>
</g>

<g id="Paleta_0_Layer1_35_FILL">
<path fill="#82B4FF" stroke="none" d="
M 119.55 -1409.85
L 79.55 -1409.85 79.55 -1169.95 119.55 -1169.95 119.55 -1409.85 Z"/>
</g>

<g id="Paleta_0_Layer1_36_FILL">
<path fill="#B2D1FF" stroke="none" d="
M 199.5 -1409.85
L 159.5 -1409.85 159.5 -1169.95 199.5 -1169.95 199.5 -1409.85 Z"/>
</g>

<g id="Paleta_0_Layer1_37_FILL">
<path fill="#A02CFF" stroke="none" d="
M -0.4 -1409.85
L -0.4 -1169.95 39.55 -1169.95 39.55 -1409.85 -0.4 -1409.85 Z"/>
</g>

<g id="Paleta_0_Layer1_38_FILL">
<path fill="#C67FFF" stroke="none" d="
M 119.55 -1409.85
L 79.55 -1409.85 79.55 -1169.95 119.55 -1169.95 119.55 -1409.85 Z"/>
</g>

<g id="Paleta_0_Layer1_39_FILL">
<path fill="#DCB0FF" stroke="none" d="
M 199.5 -1409.85
L 159.5 -1409.85 159.5 -1169.95 199.5 -1169.95 199.5 -1409.85 Z"/>
</g>

<g id="Paleta_0_Layer1_40_FILL">
<path fill="#328B92" stroke="none" d="
M -0.4 -1409.85
L -0.4 -1169.95 39.55 -1169.95 39.55 -1409.85 -0.4 -1409.85 Z"/>
</g>

<g id="Paleta_0_Layer1_41_FILL">
<path fill="#7CB8AF" stroke="none" d="
M 119.55 -1409.85
L 79.55 -1409.85 79.55 -1169.95 119.55 -1169.95 119.55 -1409.85 Z"/>
</g>

<g id="Paleta_0_Layer1_42_FILL">
<path fill="#95D7D6" stroke="none" d="
M 199.5 -1409.85
L 159.5 -1409.85 159.5 -1169.95 199.5 -1169.95 199.5 -1409.85 Z"/>
</g>

<g id="Paleta_0_Layer1_43_FILL">
<path fill="#7097A8" stroke="none" d="
M -0.4 -1409.85
L -0.4 -1169.95 39.55 -1169.95 39.55 -1409.85 -0.4 -1409.85 Z"/>
</g>

<g id="Paleta_0_Layer1_44_FILL">
<path fill="#ABD1DC" stroke="none" d="
M 119.55 -1409.85
L 79.55 -1409.85 79.55 -1169.95 119.55 -1169.95 119.55 -1409.85 Z"/>
</g>

<g id="Paleta_0_Layer1_45_FILL">
<path fill="#D3E7EE" stroke="none" d="
M 199.5 -1409.85
L 159.5 -1409.85 159.5 -1169.95 199.5 -1169.95 199.5 -1409.85 Z"/>
</g>

<g id="Paleta_0_Layer1_46_FILL">
<path fill="#70A897" stroke="none" d="
M -0.4 -1409.85
L -0.4 -1169.95 39.55 -1169.95 39.55 -1409.85 -0.4 -1409.85 Z"/>
</g>

<g id="Paleta_0_Layer1_47_FILL">
<path fill="#47B5C3" stroke="none" d="
M 119.55 -1409.85
L 79.55 -1409.85 79.55 -1169.95 119.55 -1169.95 119.55 -1409.85 Z"/>
</g>

<g id="Paleta_0_Layer1_48_FILL">
<path fill="#E5FFF9" stroke="none" d="
M 199.5 -1409.85
L 159.5 -1409.85 159.5 -1169.95 199.5 -1169.95 199.5 -1409.85 Z"/>
</g>

<g id="Paleta_0_Layer1_49_FILL">
<path fill="#94919F" stroke="none" d="
M -0.4 -1409.85
L -0.4 -1169.95 39.55 -1169.95 39.55 -1409.85 -0.4 -1409.85 Z"/>
</g>

<g id="Paleta_0_Layer1_50_FILL">
<path fill="#B1B1B1" stroke="none" d="
M 119.55 -1409.85
L 79.55 -1409.85 79.55 -1169.95 119.55 -1169.95 119.55 -1409.85 Z"/>
</g>

<g id="Paleta_0_Layer1_51_FILL">
<path fill="#F7393B" stroke="none" d="
M -0.4 -1409.85
L -0.4 -1169.95 39.55 -1169.95 39.55 -1409.85 -0.4 -1409.85 Z"/>
</g>

<g id="Paleta_0_Layer1_52_FILL">
<path fill="#EF6828" stroke="none" d="
M 119.55 -1409.85
L 79.55 -1409.85 79.55 -1169.95 119.55 -1169.95 119.55 -1409.85 Z"/>
</g>

<g id="Paleta_0_Layer1_53_FILL">
<path fill="#F58B1B" stroke="none" d="
M 199.5 -1409.85
L 159.5 -1409.85 159.5 -1169.95 199.5 -1169.95 199.5 -1409.85 Z"/>
</g>

<g id="Paleta_0_Layer1_54_FILL">
<path fill="#FF9341" stroke="none" d="
M -0.4 -1409.85
L -0.4 -1169.95 39.55 -1169.95 39.55 -1409.85 -0.4 -1409.85 Z"/>
</g>

<g id="Paleta_0_Layer1_55_FILL">
<path fill="#FFAC5A" stroke="none" d="
M 119.55 -1409.85
L 79.55 -1409.85 79.55 -1169.95 119.55 -1169.95 119.55 -1409.85 Z"/>
</g>

<g id="Paleta_0_Layer1_56_FILL">
<path fill="#FAC496" stroke="none" d="
M 199.5 -1409.85
L 159.5 -1409.85 159.5 -1169.95 199.5 -1169.95 199.5 -1409.85 Z"/>
</g>

<g id="Paleta_0_Layer1_57_FILL">
<path fill="#FFC20F" stroke="none" d="
M -0.4 -1409.85
L -0.4 -1169.95 39.55 -1169.95 39.55 -1409.85 -0.4 -1409.85 Z"/>
</g>

<g id="Paleta_0_Layer1_58_FILL">
<path fill="#FFCE41" stroke="none" d="
M 119.55 -1409.85
L 79.55 -1409.85 79.55 -1169.95 119.55 -1169.95 119.55 -1409.85 Z"/>
</g>

<g id="Paleta_0_Layer1_59_FILL">
<path fill="#FFD96A" stroke="none" d="
M 199.5 -1409.85
L 159.5 -1409.85 159.5 -1169.95 199.5 -1169.95 199.5 -1409.85 Z"/>
</g>

<g id="Paleta_0_Layer1_60_FILL">
<path fill="#F8D77F" stroke="none" d="
M -0.4 -1409.85
L -0.4 -1169.95 39.55 -1169.95 39.55 -1409.85 -0.4 -1409.85 Z"/>
</g>

<g id="Paleta_0_Layer1_61_FILL">
<path fill="#FFE577" stroke="none" d="
M 119.55 -1409.85
L 79.55 -1409.85 79.55 -1169.95 119.55 -1169.95 119.55 -1409.85 Z"/>
</g>

<g id="Paleta_0_Layer1_62_FILL">
<path fill="#FFF3CB" stroke="none" d="
M 199.5 -1409.85
L 159.5 -1409.85 159.5 -1169.95 199.5 -1169.95 199.5 -1409.85 Z"/>
</g>

<g id="Paleta_0_Layer1_63_FILL">
<path fill="#016DAE" stroke="none" d="
M -0.4 -1409.85
L -0.4 -1169.95 39.55 -1169.95 39.55 -1409.85 -0.4 -1409.85 Z"/>
</g>

<g id="Paleta_0_Layer1_64_FILL">
<path fill="#00ABD1" stroke="none" d="
M 119.55 -1409.85
L 79.55 -1409.85 79.55 -1169.95 119.55 -1169.95 119.55 -1409.85 Z"/>
</g>

<g id="Paleta_0_Layer1_65_FILL">
<path fill="#88DBED" stroke="none" d="
M 199.5 -1409.85
L 159.5 -1409.85 159.5 -1169.95 199.5 -1169.95 199.5 -1409.85 Z"/>
</g>

<g id="Paleta_0_Layer1_66_FILL">
<path fill="#EF6828" stroke="none" d="
M -0.4 -1409.85
L -0.4 -1169.95 39.55 -1169.95 39.55 -1409.85 -0.4 -1409.85 Z"/>
</g>

<g id="Paleta_0_Layer1_67_FILL">
<path fill="#105DA6" stroke="none" d="
M 119.55 -1409.85
L 79.55 -1409.85 79.55 -1169.95 119.55 -1169.95 119.55 -1409.85 Z"/>
</g>

<g id="Paleta_0_Layer1_68_FILL">
<path fill="#5795C0" stroke="none" d="
M 199.5 -1409.85
L 159.5 -1409.85 159.5 -1169.95 199.5 -1169.95 199.5 -1409.85 Z"/>
</g>

<g id="Paleta_0_Layer1_69_FILL">
<path fill="#310F9A" stroke="none" d="
M -0.4 -1409.85
L -0.4 -1169.95 39.55 -1169.95 39.55 -1409.85 -0.4 -1409.85 Z"/>
</g>

<g id="Paleta_0_Layer1_70_FILL">
<path fill="#660CAC" stroke="none" d="
M 119.55 -1409.85
L 79.55 -1409.85 79.55 -1169.95 119.55 -1169.95 119.55 -1409.85 Z"/>
</g>

<g id="Paleta_0_Layer1_71_FILL">
<path fill="#895DC6" stroke="none" d="
M 199.5 -1409.85
L 159.5 -1409.85 159.5 -1169.95 199.5 -1169.95 199.5 -1409.85 Z"/>
</g>

<g id="Paleta_0_Layer1_72_FILL">
<path fill="#3BA082" stroke="none" d="
M -0.4 -1409.85
L -0.4 -1169.95 39.55 -1169.95 39.55 -1409.85 -0.4 -1409.85 Z"/>
</g>

<g id="Paleta_0_Layer1_73_FILL">
<path fill="#85B762" stroke="none" d="
M 119.55 -1409.85
L 79.55 -1409.85 79.55 -1169.95 119.55 -1169.95 119.55 -1409.85 Z"/>
</g>

<g id="Paleta_0_Layer1_74_FILL">
<path fill="#053336" stroke="none" d="
M -0.4 -1409.85
L -0.4 -1169.95 39.55 -1169.95 39.55 -1409.85 -0.4 -1409.85 Z"/>
</g>

<g id="Paleta_0_Layer1_75_FILL">
<path fill="#105DA6" stroke="none" d="
M 279.45 -1409.85
L 239.45 -1409.85 239.45 -1169.95 279.45 -1169.95 279.45 -1409.85 Z"/>
</g>

<g id="Paleta_0_Layer1_76_FILL">
<path fill="#0F546B" stroke="none" d="
M 360.45 -1409.85
L 320.45 -1409.85 320.45 -1169.95 360.45 -1169.95 360.45 -1409.85 Z"/>
</g>

<g id="Paleta_0_Layer1_77_FILL">
<path fill="#734B32" stroke="none" d="
M 9.75 150.65
L 9.75 140.75 -0.1 140.75 -0.1 150.65 9.75 150.65 Z"/>
</g>

<g id="Paleta_0_Layer1_78_FILL">
<path fill="#915A3C" stroke="none" d="
M 119.55 -1409.85
L 79.55 -1409.85 79.55 -1169.95 119.55 -1169.95 119.55 -1409.85 Z"/>
</g>

<g id="Paleta_0_Layer1_79_FILL">
<path fill="#A57C5C" stroke="none" d="
M 199.5 -1409.85
L 159.5 -1409.85 159.5 -1169.95 199.5 -1169.95 199.5 -1409.85 Z"/>
</g>

<g id="Paleta_0_Layer1_80_FILL">
<path fill="#D4D4D4" stroke="none" d="
M -0.4 -1409.85
L -0.4 -1169.95 39.55 -1169.95 39.55 -1409.85 -0.4 -1409.85 Z"/>
</g>

<g id="Paleta_0_Layer1_81_FILL">
<path fill="#FFFFFF" stroke="none" d="
M 119.55 -1409.85
L 79.55 -1409.85 79.55 -1169.95 119.55 -1169.95 119.55 -1409.85 Z"/>
</g>

<g id="Paleta_0_Layer1_82_FILL">
<path fill="#F6217B" stroke="none" d="
M 199.5 -1409.85
L 159.5 -1409.85 159.5 -1169.95 199.5 -1169.95 199.5 -1409.85 Z"/>
</g>

<g id="Paleta_0_Layer1_83_FILL">
<path fill="#D20526" stroke="none" d="
M -0.4 -1409.85
L -0.4 -1169.95 39.55 -1169.95 39.55 -1409.85 -0.4 -1409.85 Z"/>
</g>

<g id="Paleta_0_Layer1_84_FILL">
<path fill="#ED1F34" stroke="none" d="
M 119.55 -1409.85
L 79.55 -1409.85 79.55 -1169.95 119.55 -1169.95 119.55 -1409.85 Z"/>
</g>

<g id="Layer0_5_FILL">
<path fill="#0F5DA6" fill-opacity="0.7490196078431373" stroke="none" d="
M 82.55 16.95
Q 82.45 16.95 81.8 17.25
L 79.65 18.5
Q 79.45 18.55 79.35 18.65
L 79.25 18.65 79.35 18.6
Q 79.65 17.85 79.35 17.65
L 78.25 16.95
Q 77.7 16.4 75.5 16.25
L 75.45 16.2 75.25 15.95 75.25 15.85
Q 75.55 15.9 75.85 16.05 75.55 15.05 74.45 14.6 73.85 14.35 72.4 14.35 69.35 14.2 68.3 15.4 66.85 14.45 64.85 14.35 63.05 14.3 61.4 15.1 60.3 15.75 60 16.35 59.65 17.15 59.65 17.8 59.55 18.95 60.15 19.8 60.45 20.15 60.7 20.35 60.65 20.35 60.6 20.35 59.55 20.45 58.9 21.1 57.85 22.85 56.9 23.2 56.35 23.4 55.8 23.4
L 54.05 23.4
Q 51.85 23.4 50.65 24.05 50.1 24.25 49.15 25.2 48.45 25.9 48.55 26.5 47.95 26.8 45.8 27.35 44.05 27.85 43.6 28.95 43.35 29.45 43.35 30.6 43.35 33.2 44.3 34.2 44.5 34.5 45.6 35.1 46.4 35.55 46.9 35.8 46.65 36.7 46.95 37.9
L 47.25 38.5
Q 47.4 38.6 47.7 38.75
L 46.65 38.85
Q 46.25 38.85 45.95 38.6 45.65 38.45 45.5 38.45
L 44.9 38.5
Q 44.5 38.5 44.45 38.6 44.2 38.7 44.2 39.05
L 44.2 40.15
Q 44.2 40.8 44.35 41.1 44.5 41.45 45.3 41.9 46.2 42.25 47.05 42.35 45.35 43.2 45.05 44.65 44.95 44.85 44.9 45.45 44.85 45.95 44.6 46.2 44.45 46.45 43.65 46.85 42.75 47.3 41.9 48.15
L 41.1 49
Q 40.55 49.65 40.4 50.1 40.25 50.7 40.3 51.85 40.35 53.1 40.1 53.6 39.95 54 39.4 54.5 38.85 55 38.65 55.3 38.35 55.9 38.5 57 38.5 58.2 38.65 58.75 38.95 59.7 40.35 61.15 42.2 62.9 43.6 63.85 43.2 63.9 42.85 64.15 41.85 64.6 41.4 66.05 41.05 67.35 41.35 68.5 41.55 69.25 42.35 70.55 43.1 71.85 43.2 72.65 42.1 72.65 41.7 73.8 41.4 74.4 41.4 75.85 41.4 77.35 41.85 77.95 42.2 78.35 43.15 78.65 44.1 79 44.45 79.3 44.75 79.6 44.65 79.85 44.6 80.15 44.1 80.15 42.9 80.3 41.45 80.3 41.4 80.1 41.35 80 41.05 79.85 40.8 80.2 40.7 80.2 40.6 80.2
L 40.7 79.55
Q 40.3 79.3 39.85 79.6 39.4 79.85 39.35 80.35 39.25 81.4 40.4 81.75 40.45 81.75 40.55 81.85
L 40.55 81.9
Q 40.7 82.45 41.4 82.8 42.7466796875 83.4982421875 45.3 83.5 45.0953125 83.5046875 44.95 83.65 44.05 84.5 44.05 86.15 43.9 87.4 44.5 88.1 44.8 88.35 45.4 88.65 45.85 89 45.85 89.4 45.85 89.7 45.55 90.2 44.45 91.8 44.8 95.95 44.15 95.75 42.55 96.25 41 96.6 40.3 96.3 39.7 96.1 39.5 95.45 39.25 94.9 39.5 94.4 39.7 94.1 40.45 93.65 41.15 92.95 40.7 92.5 40.35 92.2 39.7 92.45 37.5 93.55 37.2 95.95 37.05 96.7 37.3 97.15 36.75 97.3 36.2 97.5 33.35 98.45 32.9 98.6 31.7 98.8 31.1 99.2 29.2 100.25 29.3 103.65 29.3 104.15 29.4 104.4 28.25 105.05 27.25 106.05 26.25 107.15 25.45 108.65 24.05 111 23.25 114.3 22.2 119.25 22.4 126.8 22.4 131.05 22.65 139.45 22.5 143.25 21.7 150.25 20.75 157.8 20.55 161.15 20.55 161.55 20.55 162.1 20.35 171.15 19.45 179.85 17.55 198.8 24.05 216.4 25.75 220.35 26.3 222.6
L 26.75 224.05
Q 26.9 224.35 27.3 224.75 27.3 224.7 27.35 224.7 27.5 224.65 27.6 224.65 27.75 224.65 27.9 224.65
L 27.9 224.6
Q 28.05 224.6 28.25 224.6 28.35 224.6 28.55 224.65
L 28.6 224.65
Q 28.75 224.6 28.9 224.6 28.95 224.6 29.2 224.6 33.55 224.6 38.05 224.6 38.4 224.6 38.85 224.6 40.7 224.6 42.45 224.6 47.6 224.6 52.75 224.6 53.8 224.6 54.9 224.6 56.9 224.6 59 224.6 85.45 224.6 111.95 224.6 117.1 224.6 122.25 224.6 122.65 224.6 123 224.6 124.25 224.6 125.6 224.6 131.1 224.6 136.6 224.6 137.15 224.6 137.75 224.6 142.75 213.95 139.65 202.95 139.2 201.6 138.05 201.1 138.65 197.85 139.4 194.7 141.85 184.35 141.45 173.6 141.4 170.65 141.15 167.05
L 140.7 156.85
Q 139.7 136.05 138.95 125.6 138.7 121.85 137.9 120.25 137.2 118.65 135.15 116.75
L 135.05 116.65
Q 134.45 116.05 133.7 115.5
L 131.4 113.5
Q 132.2 111.25 131.55 108.8 130.8 106.15 128.45 104.75 127.7 104.2 126.7 104
L 125.2 103.75
Q 124.45 103.65 123.25 103
L 119.9 100.65
Q 117.65 99.35 113.1 97.75 112.85 96.7 112.2 95.4 112.9 95.3 113.55 94.9 114.4 94.35 114.7 93.5 115 92.45 114.7 91.5 114.4 90.5 113.6 89.95 115.9 90.05 116.75 89.3 117.3 88.9 117.65 88 118.3 86.7 118.3 85.2 118.3 84.6 118 84.35 117.6 84.05 117 84.25
L 116.15 84.8
Q 115.45 85.15 113.35 85.15 112.35 85.15 112.05 84.6 114.85 84.35 115.95 83.4 116.75 82.8 117.15 81.9 117.75 80.4 117.55 77.55 117.55 76.85 117.3 76.35 117 75.9 116.3 75.5 115.25 74.9 114.95 74.75 115.55 74.05 115.25 72.9 115 72.15 114.4 71.25 113.1 69.35 111.2 68.25 111.1 68.2 111.05 68.1 111 68.05 110.9 68.05 111 67.95 111.1 67.85 112.2 67.85 113.2 67.4 114.55 66.85 115 65.65 115.35 65 115.35 62.55 115.55 61.05 115.55 60.35 115.55 59.1 114.9 58.4 114.8 58.3 113.4 57.25 112.3 56.3 111.15 54.15 113.2 52.1 113.6 49.95 113.8 48.75 113.4 47.6 112.95 46.3 112.05 45.7 111.45 45.25 111.45 45.15 111.35 44.95 111.45 44.15 111.95 42.45 111.2 40.65 110.45 38.95 108.85 38 109.4 37.55 109.35 36.7 109.3 35.95 108.75 35.25 108.1 34.5 107.8 34.1 107.25 33.4 107 32.8 106.6 31.7 106.15 31.8 105.7 31.9 105.6 32.95 105.55 33.25 105.25 33.5 104.9 33.7 104.75 33.45 103.75 32.2 101.9 31.5 101.9 29.6 100.35 28.4 99.1 27.55 97.8 27.7 97.85 27.55 97.95 27.4 98.15 26.85 98.05 25.85 97.95 24.1 97.25 23.4 96.75 22.9 95.9 22.5 95.1 22.2 94.9 22.5 94.75 22.65 94.75 23.2 94.6 23.8 94.3 24.25 93.45 24.4 92.75 24.1 92.85 22.85 92.7 22.3 92.55 21.7 91.9 20.85 90.95 19.1 90.7 18.95 89.85 17.8 88.95 17.6
L 87.65 17.6
Q 86.35 17.6 84.9 17.25
L 83.4 17.05
Q 82.8 16.85 82.55 16.95
M 90 96.25
L 89.95 96.25 90.55 95.1 90 96.25
M 41.75 98.15
L 41.35 98.05 41.55 98.05
Q 41.7 98.05 41.75 98.15
M 108.85 106.25
L 109.1 106.45
Q 109.3 106.6 109.55 106.7 109.25 106.7 109 106.8 108.9 106.5 108.85 106.25 Z"/>
</g>

<g id="Layer0_6_MEMBER_0_FILL">
<path fill="#FFAC5A" stroke="none" d="
M 15.8 267.3
L 15.8 299.9 112 299.9 112 267.3 15.8 267.3 Z"/>
</g>

<g id="Layer0_6_MEMBER_1_FILL">
<path fill="#FFFFFF" stroke="none" d="
M 284.15 287.65
Q 284.35 287.5 284.35 287.15 284.35 286.4 283.55 286.4 282.7 286.4 282.7 287.15 282.7 287.85 283.55 287.85 283.95 287.85 284.15 287.65
M 289.15 289.95
L 289.6 288.85
Q 288.65 288.45 287.65 288.45 286.65 288.45 286.05 288.85 285.5 289.25 285.5 289.95 285.5 290.4 285.65 290.7 285.75 290.95 286.05 291.2 286.35 291.4 287 291.7
L 287.7 292
Q 287.95 292.15 288.05 292.25 288.15 292.35 288.15 292.55 288.15 293 287.35 293 286.95 293 286.45 292.9 285.9 292.75 285.5 292.55
L 285.5 293.8
Q 285.9 293.95 286.3 294 286.7 294.1 287.3 294.1 288.45 294.1 289.05 293.65 289.65 293.2 289.65 292.4 289.65 291.95 289.5 291.7 289.35 291.4 289.05 291.15 288.75 290.95 288.1 290.7 287.4 290.4 287.2 290.25 287 290.1 287 289.9 287 289.55 287.65 289.55 288 289.55 288.35 289.65
L 289.15 289.95
M 284.15 277.2
Q 283.6 277.6 283.6 278.3 283.6 278.75 283.75 279.05 283.85 279.3 284.15 279.55 284.45 279.75 285.1 280.05
L 285.8 280.35
Q 286.05 280.5 286.15 280.6 286.25 280.7 286.25 280.9 286.25 281.35 285.45 281.35 285.05 281.35 284.55 281.25 284 281.1 283.6 280.9
L 283.6 282.15
Q 284 282.3 284.4 282.35 284.8 282.45 285.4 282.45 286.55 282.45 287.15 282 287.75 281.55 287.75 280.75 287.75 280.3 287.6 280.05 287.45 279.75 287.15 279.5 286.85 279.3 286.2 279.05 285.5 278.75 285.3 278.6 285.1 278.45 285.1 278.25 285.1 277.9 285.75 277.9 286.1 277.9 286.45 278
L 287.25 278.3 287.7 277.2
Q 286.75 276.8 285.75 276.8 284.75 276.8 284.15 277.2
M 282.8 288.55
L 282.8 294 284.25 294 284.25 288.55 282.8 288.55
M 280.95 289.1
Q 280.3 288.45 279.15 288.45 277.9 288.45 277.25 289.2 276.55 289.95 276.55 291.3 276.55 292.65 277.3 293.35 278.05 294.1 279.35 294.1 280 294.1 280.45 294 280.9 293.9 281.25 293.7
L 281.25 292.55
Q 280.8 292.8 280.35 292.9 279.9 293 279.4 293 278.8 293 278.45 292.65 278.1 292.3 278.05 291.65
L 281.6 291.65 281.6 290.9
Q 281.6 289.75 280.95 289.1
M 279.9 289.8
Q 280.15 290.1 280.2 290.65
L 278.1 290.65
Q 278.15 290.1 278.4 289.8 278.65 289.5 279.15 289.5 279.6 289.5 279.9 289.8
M 268.2 294
L 269.65 294 269.65 288.55 268.2 288.55 268.2 294
M 269.1 287.95
L 270.95 286.45 270.95 286.35 269.25 286.35
Q 268.95 286.85 268.1 287.8
L 268.1 287.95 269.1 287.95
M 272 288.55
L 270.45 288.55 272.55 294 274.05 294 276.15 288.55 274.6 288.55 273.55 291.65
Q 273.35 292.3 273.3 292.75 273.25 292.25 273.05 291.65
L 272 288.55
M 272.2 278.1
Q 271.9 277.45 271.3 277.15 270.7 276.8 269.9 276.8 268.65 276.8 267.95 277.55 267.25 278.25 267.25 279.6 267.25 280.45 267.55 281.1 267.9 281.75 268.5 282.1 269.1 282.45 269.9 282.45 271.15 282.45 271.85 281.7 272.55 280.95 272.55 279.6 272.55 278.75 272.2 278.1
M 269.9 278
Q 270.5 278 270.75 278.4 271 278.8 271 279.6 271 280.45 270.75 280.85 270.5 281.25 269.9 281.25 269.3 281.25 269.05 280.85 268.75 280.4 268.75 279.6 268.75 278.8 269.05 278.4 269.3 278 269.9 278
M 276.8 276.8
Q 276.25 276.8 275.85 277.05 275.4 277.35 275.15 277.8
L 275.1 277.8 274.85 276.9 273.75 276.9 273.75 282.35 275.2 282.35 275.2 279.55
Q 275.2 278.9 275.6 278.55 276 278.2 276.75 278.2
L 277.15 278.25 277.3 276.85 276.8 276.8
M 282.1 277.45
Q 281.45 276.8 280.3 276.8 279.05 276.8 278.4 277.55 277.7 278.3 277.7 279.65 277.7 281 278.45 281.7 279.2 282.45 280.5 282.45 281.15 282.45 281.6 282.35 282.05 282.25 282.4 282.05
L 282.4 280.9
Q 281.95 281.15 281.5 281.25 281.05 281.35 280.55 281.35 279.95 281.35 279.6 281 279.25 280.65 279.2 280
L 282.75 280 282.75 279.25
Q 282.75 278.1 282.1 277.45
M 280.3 277.85
Q 280.75 277.85 281.05 278.15 281.3 278.45 281.35 279
L 279.25 279
Q 279.3 278.45 279.55 278.15 279.8 277.85 280.3 277.85
M 255.3 288.55
L 253.75 288.55 255.85 294 257.35 294 259.45 288.55 257.9 288.55 256.85 291.65
Q 256.65 292.3 256.6 292.75 256.55 292.25 256.35 291.65
L 255.3 288.55
M 260.1 287.15
Q 260.1 287.85 260.95 287.85 261.35 287.85 261.55 287.65 261.75 287.5 261.75 287.15 261.75 286.4 260.95 286.4 260.1 286.4 260.1 287.15
M 261.65 288.55
L 260.2 288.55 260.2 294 261.65 294 261.65 288.55
M 262.9 289.95
Q 262.9 290.4 263.05 290.7 263.15 290.95 263.45 291.2 263.75 291.4 264.4 291.7
L 265.1 292
Q 265.35 292.15 265.45 292.25 265.55 292.35 265.55 292.55 265.55 293 264.75 293 264.35 293 263.85 292.9 263.3 292.75 262.9 292.55
L 262.9 293.8
Q 263.3 293.95 263.7 294 264.1 294.1 264.7 294.1 265.85 294.1 266.45 293.65 267.05 293.2 267.05 292.4 267.05 291.95 266.9 291.7 266.75 291.4 266.45 291.15 266.15 290.95 265.5 290.7 264.8 290.4 264.6 290.25 264.4 290.1 264.4 289.9 264.4 289.55 265.05 289.55 265.4 289.55 265.75 289.65
L 266.55 289.95 267 288.85
Q 266.05 288.45 265.05 288.45 264.05 288.45 263.45 288.85 262.9 289.25 262.9 289.95
M 255.65 282.35
L 257.3 282.35 257.8 280.65 260.4 280.65 260.9 282.35 262.55 282.35 260 275.2 258.15 275.2 255.65 282.35
M 260.05 279.4
L 258.2 279.4 259.1 276.3 260.05 279.4
M 262.75 277.4
L 262.75 278 263.45 278 263.45 280.65
Q 263.45 281.55 263.85 282 264.25 282.45 265.15 282.45 265.95 282.45 266.5 282.2
L 266.5 281.1
Q 265.95 281.25 265.6 281.25 265.3 281.25 265.1 281.1 264.95 280.95 264.95 280.65
L 264.95 278 266.45 278 266.45 276.9 264.95 276.9 264.95 275.75 264 275.75 263.55 276.9 262.75 277.4 Z"/>
</g>

<g id="Layer0_7_MEMBER_0_FILL">
<path fill="#FFAC5A" stroke="none" d="
M 15.8 267.3
L 15.8 299.9 112 299.9 112 267.3 15.8 267.3 Z"/>
</g>

<g id="Layer0_7_MEMBER_1_FILL">
<path fill="#FFFFFF" stroke="none" d="
M 396.2 289.95
Q 396.2 290.4 396.35 290.7 396.45 290.95 396.75 291.2 397.05 291.4 397.7 291.7
L 398.4 292
Q 398.65 292.15 398.75 292.25 398.85 292.35 398.85 292.55 398.85 293 398.05 293 397.65 293 397.15 292.9 396.6 292.75 396.2 292.55
L 396.2 293.8
Q 396.6 293.95 397 294 397.4 294.1 398 294.1 399.15 294.1 399.75 293.65 400.35 293.2 400.35 292.4 400.35 291.95 400.2 291.7 400.05 291.4 399.75 291.15 399.45 290.95 398.8 290.7 398.1 290.4 397.9 290.25 397.7 290.1 397.7 289.9 397.7 289.55 398.35 289.55 398.7 289.55 399.05 289.65
L 399.85 289.95 400.3 288.85
Q 399.35 288.45 398.35 288.45 397.35 288.45 396.75 288.85 396.2 289.25 396.2 289.95
M 393.5 288.55
L 393.5 294 394.95 294 394.95 288.55 393.5 288.55
M 391.65 289.1
Q 391 288.45 389.85 288.45 388.6 288.45 387.95 289.2 387.25 289.95 387.25 291.3 387.25 292.65 388 293.35 388.75 294.1 390.05 294.1 390.7 294.1 391.15 294 391.6 293.9 391.95 293.7
L 391.95 292.55
Q 391.5 292.8 391.05 292.9 390.6 293 390.1 293 389.5 293 389.15 292.65 388.8 292.3 388.75 291.65
L 392.3 291.65 392.3 290.9
Q 392.3 289.75 391.65 289.1
M 389.85 289.5
Q 390.3 289.5 390.6 289.8 390.85 290.1 390.9 290.65
L 388.8 290.65
Q 388.85 290.1 389.1 289.8 389.35 289.5 389.85 289.5
M 393.4 287.15
Q 393.4 287.85 394.25 287.85 394.65 287.85 394.85 287.65 395.05 287.5 395.05 287.15 395.05 286.4 394.25 286.4 393.4 286.4 393.4 287.15
M 393.6 277.2
Q 392.65 276.8 391.65 276.8 390.65 276.8 390.05 277.2 389.5 277.6 389.5 278.3 389.5 278.75 389.65 279.05 389.75 279.3 390.05 279.55 390.35 279.75 391 280.05
L 391.7 280.35
Q 391.95 280.5 392.05 280.6 392.15 280.7 392.15 280.9 392.15 281.35 391.35 281.35 390.95 281.35 390.45 281.25 389.9 281.1 389.5 280.9
L 389.5 282.15
Q 389.9 282.3 390.3 282.35 390.7 282.45 391.3 282.45 392.45 282.45 393.05 282 393.65 281.55 393.65 280.75 393.65 280.3 393.5 280.05 393.35 279.75 393.05 279.5 392.75 279.3 392.1 279.05 391.4 278.75 391.2 278.6 391 278.45 391 278.25 391 277.9 391.65 277.9 392 277.9 392.35 278
L 393.15 278.3 393.6 277.2
M 380.35 288.55
L 378.9 288.55 378.9 294 380.35 294 380.35 288.55
M 382.7 288.55
L 381.15 288.55 383.25 294 384.75 294 386.85 288.55 385.3 288.55 384.25 291.65
Q 384.05 292.3 384 292.75 383.95 292.25 383.75 291.65
L 382.7 288.55
M 381.65 286.35
L 379.95 286.35
Q 379.65 286.85 378.8 287.8
L 378.8 287.95 379.8 287.95 381.65 286.45 381.65 286.35
M 367.55 291.65
Q 367.35 292.3 367.3 292.75 367.25 292.25 367.05 291.65
L 366 288.55 364.45 288.55 366.55 294 368.05 294 370.15 288.55 368.6 288.55 367.55 291.65
M 370.8 287.15
Q 370.8 287.85 371.65 287.85 372.05 287.85 372.25 287.65 372.45 287.5 372.45 287.15 372.45 286.4 371.65 286.4 370.8 286.4 370.8 287.15
M 372.35 288.55
L 370.9 288.55 370.9 294 372.35 294 372.35 288.55
M 373.6 289.95
Q 373.6 290.4 373.75 290.7 373.85 290.95 374.15 291.2 374.45 291.4 375.1 291.7
L 375.8 292
Q 376.05 292.15 376.15 292.25 376.25 292.35 376.25 292.55 376.25 293 375.45 293 375.05 293 374.55 292.9 374 292.75 373.6 292.55
L 373.6 293.8
Q 374 293.95 374.4 294 374.8 294.1 375.4 294.1 376.55 294.1 377.15 293.65 377.75 293.2 377.75 292.4 377.75 291.95 377.6 291.7 377.45 291.4 377.15 291.15 376.85 290.95 376.2 290.7 375.5 290.4 375.3 290.25 375.1 290.1 375.1 289.9 375.1 289.55 375.75 289.55 376.1 289.55 376.45 289.65
L 377.25 289.95 377.7 288.85
Q 376.75 288.45 375.75 288.45 374.75 288.45 374.15 288.85 373.6 289.25 373.6 289.95
M 370.85 278
L 372.35 278 372.35 276.9 370.85 276.9 370.85 275.75 369.9 275.75 369.45 276.9 368.65 277.4 368.65 278 369.35 278 369.35 280.65
Q 369.35 281.55 369.75 282 370.15 282.45 371.05 282.45 371.85 282.45 372.4 282.2
L 372.4 281.1
Q 371.85 281.25 371.5 281.25 371.2 281.25 371 281.1 370.85 280.95 370.85 280.65
L 370.85 278
M 383.6 279.65
Q 383.6 281 384.35 281.7 385.1 282.45 386.4 282.45 387.05 282.45 387.5 282.35 387.95 282.25 388.3 282.05
L 388.3 280.9
Q 387.85 281.15 387.4 281.25 386.95 281.35 386.45 281.35 385.85 281.35 385.5 281 385.15 280.65 385.1 280
L 388.65 280 388.65 279.25
Q 388.65 278.1 388 277.45 387.35 276.8 386.2 276.8 384.95 276.8 384.3 277.55 383.6 278.3 383.6 279.65
M 386.2 277.85
Q 386.65 277.85 386.95 278.15 387.2 278.45 387.25 279
L 385.15 279
Q 385.2 278.45 385.45 278.15 385.7 277.85 386.2 277.85
M 377.2 277.15
Q 376.6 276.8 375.8 276.8 374.55 276.8 373.85 277.55 373.15 278.25 373.15 279.6 373.15 280.45 373.45 281.1 373.8 281.75 374.4 282.1 375 282.45 375.8 282.45 377.05 282.45 377.75 281.7 378.45 280.95 378.45 279.6 378.45 278.75 378.1 278.1 377.8 277.45 377.2 277.15
M 374.95 278.4
Q 375.2 278 375.8 278 376.4 278 376.65 278.4 376.9 278.8 376.9 279.6 376.9 280.45 376.65 280.85 376.4 281.25 375.8 281.25 375.2 281.25 374.95 280.85 374.65 280.4 374.65 279.6 374.65 278.8 374.95 278.4
M 381 277.8
L 380.75 276.9 379.65 276.9 379.65 282.35 381.1 282.35 381.1 279.55
Q 381.1 278.9 381.5 278.55 381.9 278.2 382.65 278.2
L 383.05 278.25 383.2 276.85 382.7 276.8
Q 382.15 276.8 381.75 277.05 381.3 277.35 381.05 277.8
L 381 277.8
M 357.1 288.55
L 355.65 288.55 355.65 294 357.1 294 357.1 288.55
M 356.4 287.85
Q 356.8 287.85 357 287.65 357.2 287.5 357.2 287.15 357.2 286.4 356.4 286.4 355.55 286.4 355.55 287.15 355.55 287.85 356.4 287.85
M 360.45 290.05
Q 360.75 289.65 361.35 289.65 361.8 289.65 362 289.95 362.25 290.2 362.25 290.8
L 362.25 294 363.7 294 363.7 290.45
Q 363.7 289.45 363.25 288.95 362.75 288.45 361.8 288.45 361.25 288.45 360.8 288.65 360.35 288.85 360.1 289.25
L 360 289.25 359.8 288.55 358.7 288.55 358.7 294 360.15 294 360.15 291.45
Q 360.15 290.45 360.45 290.05
M 363.2 282.35
L 363.7 280.65 366.3 280.65 366.8 282.35 368.45 282.35 365.9 275.2 364.05 275.2 361.55 282.35 363.2 282.35
M 365 276.3
L 365.95 279.4 364.1 279.4 365 276.3 Z"/>
</g>

<g id="Layer0_8_MEMBER_0_FILL">
<path fill="#FFAC5A" stroke="none" d="
M 15.8 267.3
L 15.8 299.9 112 299.9 112 267.3 15.8 267.3 Z"/>
</g>

<g id="Layer0_8_MEMBER_1_FILL">
<path fill="#FFFFFF" stroke="none" d="
M 208 289.95
L 208.45 288.85
Q 207.5 288.45 206.5 288.45 205.5 288.45 204.9 288.85 204.35 289.25 204.35 289.95 204.35 290.4 204.5 290.7 204.6 290.95 204.9 291.2 205.2 291.4 205.85 291.7
L 206.55 292
Q 206.8 292.15 206.9 292.25 207 292.35 207 292.55 207 293 206.2 293 205.8 293 205.3 292.9 204.75 292.75 204.35 292.55
L 204.35 293.8
Q 204.75 293.95 205.15 294 205.55 294.1 206.15 294.1 207.3 294.1 207.9 293.65 208.5 293.2 208.5 292.4 208.5 291.95 208.35 291.7 208.2 291.4 207.9 291.15 207.6 290.95 206.95 290.7 206.25 290.4 206.05 290.25 205.85 290.1 205.85 289.9 205.85 289.55 206.5 289.55 206.85 289.55 207.2 289.65
L 208 289.95
M 201.65 288.55
L 201.65 294 203.1 294 203.1 288.55 201.65 288.55
M 198.65 290.6
L 197.7 290.65
Q 196.5 290.65 195.9 291.1 195.25 291.5 195.25 292.35 195.25 293.2 195.7 293.65 196.15 294.1 196.95 294.1 197.6 294.1 198 293.9 198.4 293.75 198.75 293.25
L 198.8 293.25 199.1 294 200.15 294 200.15 290.35
Q 200.15 289.4 199.55 288.9 198.95 288.45 197.85 288.45 196.7 288.45 195.8 288.9
L 196.25 289.95
Q 197.15 289.55 197.8 289.55 198.65 289.55 198.65 290.35
L 198.65 290.6
M 196.8 292.4
Q 196.8 291.95 197.1 291.7 197.45 291.5 198.1 291.5
L 198.65 291.45 198.65 291.9
Q 198.65 292.4 198.35 292.7 198.05 293 197.5 293 196.8 293 196.8 292.4
M 201.55 287.15
Q 201.55 287.85 202.4 287.85 202.8 287.85 203 287.65 203.2 287.5 203.2 287.15 203.2 286.4 202.4 286.4 201.55 286.4 201.55 287.15
M 189.35 288.95
Q 188.85 288.45 187.9 288.45 187.35 288.45 186.9 288.65 186.45 288.85 186.2 289.25
L 186.1 289.25 185.9 288.55 184.8 288.55 184.8 294 186.25 294 186.25 291.45
Q 186.25 290.45 186.55 290.05 186.85 289.65 187.45 289.65 187.9 289.65 188.1 289.95 188.35 290.2 188.35 290.8
L 188.35 294 189.8 294 189.8 290.45
Q 189.8 289.45 189.35 288.95
M 192.05 287.4
L 191.6 288.55 190.8 289.05 190.8 289.65 191.5 289.65 191.5 292.3
Q 191.5 293.2 191.9 293.65 192.3 294.1 193.2 294.1 194 294.1 194.55 293.85
L 194.55 292.75
Q 194 292.9 193.65 292.9 193.35 292.9 193.15 292.75 193 292.6 193 292.3
L 193 289.65 194.5 289.65 194.5 288.55 193 288.55 193 287.4 192.05 287.4
M 184.15 277.25
L 184.6 278.3
Q 185.5 277.9 186.15 277.9 187 277.9 187 278.7
L 187 278.95 186.05 279
Q 184.85 279 184.25 279.45 183.6 279.85 183.6 280.7 183.6 281.55 184.05 282 184.5 282.45 185.3 282.45 185.95 282.45 186.35 282.25 186.75 282.1 187.1 281.6
L 187.15 281.6 187.45 282.35 188.5 282.35 188.5 278.7
Q 188.5 277.75 187.9 277.25 187.3 276.8 186.2 276.8 185.05 276.8 184.15 277.25
M 186.45 279.85
L 187 279.8 187 280.25
Q 187 280.75 186.7 281.05 186.4 281.35 185.85 281.35 185.15 281.35 185.15 280.75 185.15 280.3 185.45 280.05 185.8 279.85 186.45 279.85
M 187.9 275.9
Q 188.25 275.5 188.3 274.8
L 187.6 274.8
Q 187.5 275.05 187.4 275.15 187.25 275.3 187.1 275.3 186.9 275.3 186.75 275.2
L 186.35 275.05 186 274.85
Q 185.8 274.8 185.6 274.8 185 274.8 184.65 275.2 184.3 275.6 184.25 276.3
L 185 276.3
Q 185.05 276.05 185.2 275.9 185.35 275.8 185.5 275.8 185.65 275.8 185.85 275.85
L 186.2 276.05 186.6 276.2
Q 186.8 276.3 187 276.3 187.55 276.3 187.9 275.9
M 194.6 278.1
Q 194.3 277.45 193.7 277.15 193.1 276.8 192.3 276.8 191.05 276.8 190.35 277.55 189.65 278.25 189.65 279.6 189.65 280.45 189.95 281.1 190.3 281.75 190.9 282.1 191.5 282.45 192.3 282.45 193.55 282.45 194.25 281.7 194.95 280.95 194.95 279.6 194.95 278.75 194.6 278.1
M 193.15 278.4
Q 193.4 278.8 193.4 279.6 193.4 280.45 193.15 280.85 192.9 281.25 192.3 281.25 191.7 281.25 191.45 280.85 191.15 280.4 191.15 279.6 191.15 278.8 191.45 278.4 191.7 278 192.3 278 192.9 278 193.15 278.4
M 181.15 288.45
Q 179.9 288.45 179.25 289.2 178.55 289.95 178.55 291.3 178.55 292.65 179.3 293.35 180.05 294.1 181.35 294.1 182 294.1 182.45 294 182.9 293.9 183.25 293.7
L 183.25 292.55
Q 182.8 292.8 182.35 292.9 181.9 293 181.4 293 180.8 293 180.45 292.65 180.1 292.3 180.05 291.65
L 183.6 291.65 183.6 290.9
Q 183.6 289.75 182.95 289.1 182.3 288.45 181.15 288.45
M 181.15 289.5
Q 181.6 289.5 181.9 289.8 182.15 290.1 182.2 290.65
L 180.1 290.65
Q 180.15 290.1 180.4 289.8 180.65 289.5 181.15 289.5
M 165.25 289.55
Q 166.1 289.55 166.1 290.35
L 166.1 290.6 165.15 290.65
Q 163.95 290.65 163.35 291.1 162.7 291.5 162.7 292.35 162.7 293.2 163.15 293.65 163.6 294.1 164.4 294.1 165.05 294.1 165.45 293.9 165.85 293.75 166.2 293.25
L 166.25 293.25 166.55 294 167.6 294 167.6 290.35
Q 167.6 289.4 167 288.9 166.4 288.45 165.3 288.45 164.15 288.45 163.25 288.9
L 163.7 289.95
Q 164.6 289.55 165.25 289.55
M 166.1 291.45
L 166.1 291.9
Q 166.1 292.4 165.8 292.7 165.5 293 164.95 293 164.25 293 164.25 292.4 164.25 291.95 164.55 291.7 164.9 291.5 165.55 291.5
L 166.1 291.45
M 170.2 288.55
L 169.1 288.55 169.1 294 170.55 294 170.55 291.45
Q 170.55 290.45 170.85 290.05 171.1 289.65 171.65 289.65 172.1 289.65 172.3 289.95 172.5 290.2 172.5 290.8
L 172.5 294 173.95 294 173.95 291.25
Q 173.95 290.4 174.25 290 174.5 289.65 175.05 289.65 175.5 289.65 175.7 289.95 175.9 290.2 175.9 290.8
L 175.9 294 177.35 294 177.35 290.45
Q 177.35 289.4 176.9 288.9 176.4 288.45 175.5 288.45 174.95 288.45 174.55 288.65 174.1 288.85 173.9 289.25
L 173.75 289.25
Q 173.3 288.45 172.1 288.45 171.55 288.45 171.15 288.65 170.7 288.85 170.5 289.25
L 170.4 289.25 170.2 288.55
M 166.3 276.8
Q 165.05 276.8 164.4 277.55 163.7 278.3 163.7 279.65 163.7 281 164.45 281.7 165.2 282.45 166.5 282.45 167.15 282.45 167.6 282.35 168.05 282.25 168.4 282.05
L 168.4 280.9
Q 167.95 281.15 167.5 281.25 167.05 281.35 166.55 281.35 165.95 281.35 165.6 281 165.25 280.65 165.2 280
L 168.75 280 168.75 279.25
Q 168.75 278.1 168.1 277.45 167.45 276.8 166.3 276.8
M 165.55 278.15
Q 165.8 277.85 166.3 277.85 166.75 277.85 167.05 278.15 167.3 278.45 167.35 279
L 165.25 279
Q 165.3 278.45 165.55 278.15
M 172.45 278
L 173.25 278.3 173.7 277.2
Q 172.75 276.8 171.75 276.8 170.75 276.8 170.15 277.2 169.6 277.6 169.6 278.3 169.6 278.75 169.75 279.05 169.85 279.3 170.15 279.55 170.45 279.75 171.1 280.05
L 171.8 280.35
Q 172.05 280.5 172.15 280.6 172.25 280.7 172.25 280.9 172.25 281.35 171.45 281.35 171.05 281.35 170.55 281.25 170 281.1 169.6 280.9
L 169.6 282.15
Q 170 282.3 170.4 282.35 170.8 282.45 171.4 282.45 172.55 282.45 173.15 282 173.75 281.55 173.75 280.75 173.75 280.3 173.6 280.05 173.45 279.75 173.15 279.5 172.85 279.3 172.2 279.05 171.5 278.75 171.3 278.6 171.1 278.45 171.1 278.25 171.1 277.9 171.75 277.9 172.1 277.9 172.45 278
M 178.55 276.9
L 177.45 276.9 177.45 282.35 178.9 282.35 178.9 279.8
Q 178.9 278.8 179.2 278.4 179.5 278 180.1 278 180.55 278 180.75 278.3 181 278.55 181 279.15
L 181 282.35 182.45 282.35 182.45 278.8
Q 182.45 277.8 182 277.3 181.5 276.8 180.55 276.8 180 276.8 179.55 277 179.1 277.2 178.85 277.6
L 178.75 277.6 178.55 276.9
M 153.15 288.55
L 152.05 288.55 152.05 294 153.5 294 153.5 291.2
Q 153.5 290.55 153.9 290.2 154.3 289.85 155.05 289.85
L 155.45 289.9 155.6 288.5 155.1 288.45
Q 154.55 288.45 154.15 288.7 153.7 289 153.45 289.45
L 153.4 289.45 153.15 288.55
M 157.85 289.25
L 157.65 288.55 156.55 288.55 156.55 294 158 294 158 291.45
Q 158 290.45 158.3 290.05 158.6 289.65 159.2 289.65 159.65 289.65 159.85 289.95 160.1 290.2 160.1 290.8
L 160.1 294 161.55 294 161.55 290.45
Q 161.55 289.45 161.1 288.95 160.6 288.45 159.65 288.45 159.1 288.45 158.65 288.65 158.2 288.85 157.95 289.25
L 157.85 289.25
M 150.2 289.1
Q 149.55 288.45 148.4 288.45 147.15 288.45 146.5 289.2 145.8 289.95 145.8 291.3 145.8 292.65 146.55 293.35 147.3 294.1 148.6 294.1 149.25 294.1 149.7 294 150.15 293.9 150.5 293.7
L 150.5 292.55
Q 150.05 292.8 149.6 292.9 149.15 293 148.65 293 148.05 293 147.7 292.65 147.35 292.3 147.3 291.65
L 150.85 291.65 150.85 290.9
Q 150.85 289.75 150.2 289.1
M 148.4 289.5
Q 148.85 289.5 149.15 289.8 149.4 290.1 149.45 290.65
L 147.35 290.65
Q 147.4 290.1 147.65 289.8 147.9 289.5 148.4 289.5
M 146 275.2
L 144.15 275.2 141.65 282.35 143.3 282.35 143.8 280.65 146.4 280.65 146.9 282.35 148.55 282.35 146 275.2
M 146.05 279.4
L 144.2 279.4 145.1 276.3 146.05 279.4
M 152.45 278
L 152.45 276.9 150.95 276.9 150.95 275.75 150 275.75 149.55 276.9 148.75 277.4 148.75 278 149.45 278 149.45 280.65
Q 149.45 281.55 149.85 282 150.25 282.45 151.15 282.45 151.95 282.45 152.5 282.2
L 152.5 281.1
Q 151.95 281.25 151.6 281.25 151.3 281.25 151.1 281.1 150.95 280.95 150.95 280.65
L 150.95 278 152.45 278
M 158.2 278.1
Q 157.9 277.45 157.3 277.15 156.7 276.8 155.9 276.8 154.65 276.8 153.95 277.55 153.25 278.25 153.25 279.6 153.25 280.45 153.55 281.1 153.9 281.75 154.5 282.1 155.1 282.45 155.9 282.45 157.15 282.45 157.85 281.7 158.55 280.95 158.55 279.6 158.55 278.75 158.2 278.1
M 155.05 278.4
Q 155.3 278 155.9 278 156.5 278 156.75 278.4 157 278.8 157 279.6 157 280.45 156.75 280.85 156.5 281.25 155.9 281.25 155.3 281.25 155.05 280.85 154.75 280.4 154.75 279.6 154.75 278.8 155.05 278.4
M 160.85 276.9
L 159.75 276.9 159.75 282.35 161.2 282.35 161.2 279.55
Q 161.2 278.9 161.6 278.55 162 278.2 162.75 278.2
L 163.15 278.25 163.3 276.85 162.8 276.8
Q 162.25 276.8 161.85 277.05 161.4 277.35 161.15 277.8
L 161.1 277.8 160.85 276.9
M 141.25 288.55
L 139.7 288.55 141.8 294 143.3 294 145.4 288.55 143.85 288.55 142.8 291.65
Q 142.6 292.3 142.55 292.75 142.5 292.25 142.3 291.65
L 141.25 288.55
M 139.15 289.75
Q 138.85 289.1 138.25 288.8 137.65 288.45 136.85 288.45 135.6 288.45 134.9 289.2 134.2 289.9 134.2 291.25 134.2 292.1 134.5 292.75 134.85 293.4 135.45 293.75 136.05 294.1 136.85 294.1 138.1 294.1 138.8 293.35 139.5 292.6 139.5 291.25 139.5 290.4 139.15 289.75
M 136.85 289.65
Q 137.45 289.65 137.7 290.05 137.95 290.45 137.95 291.25 137.95 292.1 137.7 292.5 137.45 292.9 136.85 292.9 136.25 292.9 136 292.5 135.7 292.05 135.7 291.25 135.7 290.45 136 290.05 136.25 289.65 136.85 289.65
M 129.15 288.95
Q 128.6 289.4 128.6 290.3 128.6 290.85 128.85 291.3 129.1 291.7 129.5 291.85 129.2 292.05 129 292.3 128.8 292.5 128.8 292.8 128.8 293.05 129 293.25 129.15 293.5 129.4 293.6 128.8 293.75 128.5 294.05 128.2 294.4 128.2 294.9 128.2 295.6 128.8 296 129.4 296.4 130.55 296.4 132 296.4 132.8 295.9 133.6 295.35 133.6 294.4 133.6 293.65 133.15 293.25 132.7 292.85 131.8 292.85
L 130.85 292.85
Q 130.05 292.85 130.05 292.55 130.05 292.35 130.25 292.15
L 130.5 292.2 130.75 292.2
Q 131.85 292.2 132.45 291.7 133.05 291.2 133.05 290.35 133.05 289.9 132.85 289.5
L 133.7 289.3 133.7 288.55 131.8 288.55 130.85 288.45
Q 129.75 288.45 129.15 288.95
M 130 290.35
Q 130 289.35 130.85 289.35 131.65 289.35 131.65 290.35 131.65 290.75 131.45 291.05 131.25 291.3 130.85 291.3 130.4 291.3 130.2 291.05 130 290.75 130 290.35
M 129.45 294.75
Q 129.45 294.45 129.75 294.25 130 294.05 130.45 294.05
L 131.2 294.05
Q 131.75 294.05 132.05 294.2 132.3 294.3 132.3 294.6 132.3 295 131.85 295.2 131.4 295.45 130.6 295.45 130.05 295.45 129.75 295.25 129.45 295.1 129.45 294.75 Z"/>
</g>

<g id="Layer0_9_MEMBER_0_FILL">
<path fill="#FFAC5A" stroke="none" d="
M 112 267.3
L 15.8 267.3 15.8 299.9 112 299.9 112 267.3 Z"/>
</g>

<g id="Layer0_9_MEMBER_1_FILL">
<path fill="#FFFFFF" stroke="none" d="
M 79.45 289.1
Q 78.8 288.45 77.65 288.45 76.4 288.45 75.75 289.2 75.05 289.95 75.05 291.3 75.05 292.65 75.8 293.35 76.55 294.1 77.85 294.1 78.5 294.1 78.95 294 79.4 293.9 79.75 293.7
L 79.75 292.55
Q 79.3 292.8 78.85 292.9 78.4 293 77.9 293 77.3 293 76.95 292.65 76.6 292.3 76.55 291.65
L 80.1 291.65 80.1 290.9
Q 80.1 289.75 79.45 289.1
M 76.9 289.8
Q 77.15 289.5 77.65 289.5 78.1 289.5 78.4 289.8 78.65 290.1 78.7 290.65
L 76.6 290.65
Q 76.65 290.1 76.9 289.8
M 67.35 290.05
Q 67.6 289.65 68.15 289.65 68.6 289.65 68.8 289.95 69 290.2 69 290.8
L 69 294 70.45 294 70.45 291.25
Q 70.45 290.4 70.75 290 71 289.65 71.55 289.65 72 289.65 72.2 289.95 72.4 290.2 72.4 290.8
L 72.4 294 73.85 294 73.85 290.45
Q 73.85 289.4 73.4 288.9 72.9 288.45 72 288.45 71.45 288.45 71.05 288.65 70.6 288.85 70.4 289.25
L 70.25 289.25
Q 69.8 288.45 68.6 288.45 68.05 288.45 67.65 288.65 67.2 288.85 67 289.25
L 66.9 289.25 66.7 288.55 65.6 288.55 65.6 294 67.05 294 67.05 291.45
Q 67.05 290.45 67.35 290.05
M 68.2 277.8
L 67.95 276.9 66.85 276.9 66.85 282.35 68.3 282.35 68.3 279.55
Q 68.3 278.9 68.7 278.55 69.1 278.2 69.85 278.2
L 70.25 278.25 70.4 276.85 69.9 276.8
Q 69.35 276.8 68.95 277.05 68.5 277.35 68.25 277.8
L 68.2 277.8
M 73.4 276.8
Q 72.15 276.8 71.5 277.55 70.8 278.3 70.8 279.65 70.8 281 71.55 281.7 72.3 282.45 73.6 282.45 74.25 282.45 74.7 282.35 75.15 282.25 75.5 282.05
L 75.5 280.9
Q 75.05 281.15 74.6 281.25 74.15 281.35 73.65 281.35 73.05 281.35 72.7 281 72.35 280.65 72.3 280
L 75.85 280 75.85 279.25
Q 75.85 278.1 75.2 277.45 74.55 276.8 73.4 276.8
M 73.4 277.85
Q 73.85 277.85 74.15 278.15 74.4 278.45 74.45 279
L 72.35 279
Q 72.4 278.45 72.65 278.15 72.9 277.85 73.4 277.85
M 77.25 277.2
Q 76.7 277.6 76.7 278.3 76.7 278.75 76.85 279.05 76.95 279.3 77.25 279.55 77.55 279.75 78.2 280.05
L 78.9 280.35
Q 79.15 280.5 79.25 280.6 79.35 280.7 79.35 280.9 79.35 281.35 78.55 281.35 78.15 281.35 77.65 281.25 77.1 281.1 76.7 280.9
L 76.7 282.15
Q 77.1 282.3 77.5 282.35 77.9 282.45 78.5 282.45 79.65 282.45 80.25 282 80.85 281.55 80.85 280.75 80.85 280.3 80.7 280.05 80.55 279.75 80.25 279.5 79.95 279.3 79.3 279.05 78.6 278.75 78.4 278.6 78.2 278.45 78.2 278.25 78.2 277.9 78.85 277.9 79.2 277.9 79.55 278
L 80.35 278.3 80.8 277.2
Q 79.85 276.8 78.85 276.8 77.85 276.8 77.25 277.2
M 55.7 289.65
Q 56.15 289.65 56.35 289.95 56.6 290.2 56.6 290.8
L 56.6 294 58.05 294 58.05 290.45
Q 58.05 289.45 57.6 288.95 57.1 288.45 56.15 288.45 55.6 288.45 55.15 288.65 54.7 288.85 54.45 289.25
L 54.35 289.25 54.15 288.55 53.05 288.55 53.05 294 54.5 294 54.5 291.45
Q 54.5 290.45 54.8 290.05 55.1 289.65 55.7 289.65
M 59.75 288.9
L 60.2 289.95
Q 61.1 289.55 61.75 289.55 62.6 289.55 62.6 290.35
L 62.6 290.6 61.65 290.65
Q 60.45 290.65 59.85 291.1 59.2 291.5 59.2 292.35 59.2 293.2 59.65 293.65 60.1 294.1 60.9 294.1 61.55 294.1 61.95 293.9 62.35 293.75 62.7 293.25
L 62.75 293.25 63.05 294 64.1 294 64.1 290.35
Q 64.1 289.4 63.5 288.9 62.9 288.45 61.8 288.45 60.65 288.45 59.75 288.9
M 62.05 291.5
L 62.6 291.45 62.6 291.9
Q 62.6 292.4 62.3 292.7 62 293 61.45 293 60.75 293 60.75 292.4 60.75 291.95 61.05 291.7 61.4 291.5 62.05 291.5
M 44.9 288.45
Q 43.65 288.45 43 289.2 42.3 289.95 42.3 291.3 42.3 292.65 43.05 293.35 43.8 294.1 45.1 294.1 45.75 294.1 46.2 294 46.65 293.9 47 293.7
L 47 292.55
Q 46.55 292.8 46.1 292.9 45.65 293 45.15 293 44.55 293 44.2 292.65 43.85 292.3 43.8 291.65
L 47.35 291.65 47.35 290.9
Q 47.35 289.75 46.7 289.1 46.05 288.45 44.9 288.45
M 45.65 289.8
Q 45.9 290.1 45.95 290.65
L 43.85 290.65
Q 43.9 290.1 44.15 289.8 44.4 289.5 44.9 289.5 45.35 289.5 45.65 289.8
M 49.9 289.45
L 49.65 288.55 48.55 288.55 48.55 294 50 294 50 291.2
Q 50 290.55 50.4 290.2 50.8 289.85 51.55 289.85
L 51.95 289.9 52.1 288.5 51.6 288.45
Q 51.05 288.45 50.65 288.7 50.2 289 49.95 289.45
L 49.9 289.45
M 60.35 279.6
Q 60.35 280.45 60.65 281.1 61 281.75 61.6 282.1 62.2 282.45 63 282.45 64.25 282.45 64.95 281.7 65.65 280.95 65.65 279.6 65.65 278.75 65.3 278.1 65 277.45 64.4 277.15 63.8 276.8 63 276.8 61.75 276.8 61.05 277.55 60.35 278.25 60.35 279.6
M 62.15 278.4
Q 62.4 278 63 278 63.6 278 63.85 278.4 64.1 278.8 64.1 279.6 64.1 280.45 63.85 280.85 63.6 281.25 63 281.25 62.4 281.25 62.15 280.85 61.85 280.4 61.85 279.6 61.85 278.8 62.15 278.4
M 53.1 275.2
L 51.25 275.2 48.75 282.35 50.4 282.35 50.9 280.65 53.5 280.65 54 282.35 55.65 282.35 53.1 275.2
M 53.15 279.4
L 51.3 279.4 52.2 276.3 53.15 279.4
M 55.85 278
L 56.55 278 56.55 280.65
Q 56.55 281.55 56.95 282 57.35 282.45 58.25 282.45 59.05 282.45 59.6 282.2
L 59.6 281.1
Q 59.05 281.25 58.7 281.25 58.4 281.25 58.2 281.1 58.05 280.95 58.05 280.65
L 58.05 278 59.55 278 59.55 276.9 58.05 276.9 58.05 275.75 57.1 275.75 56.65 276.9 55.85 277.4 55.85 278
M 34.75 288.8
Q 34.15 288.45 33.35 288.45 32.1 288.45 31.4 289.2 30.7 289.9 30.7 291.25 30.7 292.1 31 292.75 31.35 293.4 31.95 293.75 32.55 294.1 33.35 294.1 34.6 294.1 35.3 293.35 36 292.6 36 291.25 36 290.4 35.65 289.75 35.35 289.1 34.75 288.8
M 32.5 290.05
Q 32.75 289.65 33.35 289.65 33.95 289.65 34.2 290.05 34.45 290.45 34.45 291.25 34.45 292.1 34.2 292.5 33.95 292.9 33.35 292.9 32.75 292.9 32.5 292.5 32.2 292.05 32.2 291.25 32.2 290.45 32.5 290.05
M 37.75 288.55
L 36.2 288.55 38.3 294 39.8 294 41.9 288.55 40.35 288.55 39.3 291.65
Q 39.1 292.3 39.05 292.75 39 292.25 38.8 291.65
L 37.75 288.55
M 27.35 288.45
Q 26.25 288.45 25.65 288.95 25.1 289.4 25.1 290.3 25.1 290.85 25.35 291.3 25.6 291.7 26 291.85 25.7 292.05 25.5 292.3 25.3 292.5 25.3 292.8 25.3 293.05 25.5 293.25 25.65 293.5 25.9 293.6 25.3 293.75 25 294.05 24.7 294.4 24.7 294.9 24.7 295.6 25.3 296 25.9 296.4 27.05 296.4 28.5 296.4 29.3 295.9 30.1 295.35 30.1 294.4 30.1 293.65 29.65 293.25 29.2 292.85 28.3 292.85
L 27.35 292.85
Q 26.55 292.85 26.55 292.55 26.55 292.35 26.75 292.15
L 27 292.2 27.25 292.2
Q 28.35 292.2 28.95 291.7 29.55 291.2 29.55 290.35 29.55 289.9 29.35 289.5
L 30.2 289.3 30.2 288.55 28.3 288.55 27.35 288.45
M 26.5 290.35
Q 26.5 289.35 27.35 289.35 28.15 289.35 28.15 290.35 28.15 290.75 27.95 291.05 27.75 291.3 27.35 291.3 26.9 291.3 26.7 291.05 26.5 290.75 26.5 290.35
M 26.25 295.25
Q 25.95 295.1 25.95 294.75 25.95 294.45 26.25 294.25 26.5 294.05 26.95 294.05
L 27.7 294.05
Q 28.25 294.05 28.55 294.2 28.8 294.3 28.8 294.6 28.8 295 28.35 295.2 27.9 295.45 27.1 295.45 26.55 295.45 26.25 295.25
M 95.15 290.35
L 95.15 290.6 94.2 290.65
Q 93 290.65 92.4 291.1 91.75 291.5 91.75 292.35 91.75 293.2 92.2 293.65 92.65 294.1 93.45 294.1 94.1 294.1 94.5 293.9 94.9 293.75 95.25 293.25
L 95.3 293.25 95.6 294 96.65 294 96.65 290.35
Q 96.65 289.4 96.05 288.9 95.45 288.45 94.35 288.45 93.2 288.45 92.3 288.9
L 92.75 289.95
Q 93.65 289.55 94.3 289.55 95.15 289.55 95.15 290.35
M 95.15 291.45
L 95.15 291.9
Q 95.15 292.4 94.85 292.7 94.55 293 94 293 93.3 293 93.3 292.4 93.3 291.95 93.6 291.7 93.95 291.5 94.6 291.5
L 95.15 291.45
M 99.6 288.55
L 98.15 288.55 98.15 294 99.6 294 99.6 288.55
M 98.9 286.4
Q 98.05 286.4 98.05 287.15 98.05 287.85 98.9 287.85 99.3 287.85 99.5 287.65 99.7 287.5 99.7 287.15 99.7 286.4 98.9 286.4
M 100.85 289.95
Q 100.85 290.4 101 290.7 101.1 290.95 101.4 291.2 101.7 291.4 102.35 291.7
L 103.05 292
Q 103.3 292.15 103.4 292.25 103.5 292.35 103.5 292.55 103.5 293 102.7 293 102.3 293 101.8 292.9 101.25 292.75 100.85 292.55
L 100.85 293.8
Q 101.25 293.95 101.65 294 102.05 294.1 102.65 294.1 103.8 294.1 104.4 293.65 105 293.2 105 292.4 105 291.95 104.85 291.7 104.7 291.4 104.4 291.15 104.1 290.95 103.45 290.7 102.75 290.4 102.55 290.25 102.35 290.1 102.35 289.9 102.35 289.55 103 289.55 103.35 289.55 103.7 289.65
L 104.5 289.95 104.95 288.85
Q 104 288.45 103 288.45 102 288.45 101.4 288.85 100.85 289.25 100.85 289.95
M 82.7 289.25
L 82.6 289.25 82.4 288.55 81.3 288.55 81.3 294 82.75 294 82.75 291.45
Q 82.75 290.45 83.05 290.05 83.35 289.65 83.95 289.65 84.4 289.65 84.6 289.95 84.85 290.2 84.85 290.8
L 84.85 294 86.3 294 86.3 290.45
Q 86.3 289.45 85.85 288.95 85.35 288.45 84.4 288.45 83.85 288.45 83.4 288.65 82.95 288.85 82.7 289.25
M 88.1 288.55
L 87.3 289.05 87.3 289.65 88 289.65 88 292.3
Q 88 293.2 88.4 293.65 88.8 294.1 89.7 294.1 90.5 294.1 91.05 293.85
L 91.05 292.75
Q 90.5 292.9 90.15 292.9 89.85 292.9 89.65 292.75 89.5 292.6 89.5 292.3
L 89.5 289.65 91 289.65 91 288.55 89.5 288.55 89.5 287.4 88.55 287.4 88.1 288.55 Z"/>
</g>

<path id="Layer0_0_MEMBER_0_1_STROKES" stroke="#47B5C3" stroke-width="2" stroke-linejoin="round" stroke-linecap="round" fill="none" d="
M 407.46436157226566 324.2689208984375
L 407.46436157226566 67.58022155761716 32.88147583007816 67.58022155761716 32.88147583007816 324.2689208984375 407.46436157226566 324.2689208984375 Z"/>

<path id="Layer0_0_MEMBER_4_1_STROKES" stroke="#47B5C3" stroke-width="2" stroke-linejoin="round" stroke-linecap="round" fill="none" d="
M 76.0621925354004 76.7531867980957
Q 76.00115509033203 64.1231918334961 67.02343826293946 55.24392929077148 58.05781860351563 46.35245208740235 45.427823638916024 46.41348953247071 32.797828674316406 46.47452697753907 23.906410217285156 55.45230255126953 15.027088928222655 64.41786346435548 15.088126373291015 77.04785842895508 15.149163818359375 89.6778533935547 24.114783477783206 98.56933059692383 33.09250030517578 107.44859313964844 45.72249526977539 107.38755569458009 58.352490234375 107.32651824951172 67.2318115234375 98.36095733642578 76.12322998046875 89.38318176269532 76.0621925354004 76.7531867980957 Z"/>

<path id="Layer0_0_MEMBER_6_1_STROKES" stroke="#47B5C3" stroke-width="2" stroke-linejoin="round" stroke-linecap="round" fill="none" d="
M 417.9621925354004 311.8531867980957
Q 417.90115509033205 299.2231918334961 408.9234382629395 290.3439292907715 399.95781860351565 281.4524520874024 387.327823638916 281.5134895324707 374.69782867431644 281.5745269775391 365.8064102172852 290.5523025512695 356.9270889282227 299.5178634643555 356.98812637329104 312.1478584289551 357.0491638183594 324.7778533935547 366.0147834777832 333.6693305969238 374.9925003051758 342.54859313964846 387.6224952697754 342.48755569458007 400.25249023437505 342.42651824951173 409.13181152343753 333.4609573364258 418.0232299804688 324.4831817626953 417.9621925354004 311.8531867980957 Z"/>

<path id="Paleta_0_Layer1_0_1_STROKES" stroke="#000000" stroke-width="0.05" stroke-linejoin="round" stroke-linecap="round" fill="none" d="
M -0.098309326171875 0.265969848632821
L -0.098309326171875 10.149545288085939 9.72033462524414 10.149545288085939 9.72033462524414 0.265969848632821 -0.098309326171875 0.265969848632821 Z"/>

<path id="Paleta_0_Layer1_81_1_STROKES" stroke="#000000" stroke-width="0.05" stroke-linejoin="round" stroke-linecap="round" fill="none" d="
M 100.91219177246093 156.31538162231448
L 100.91219177246093 166.22458114624024 110.74861755371093 166.22458114624024 110.74861755371093 156.31538162231448 100.91219177246093 156.31538162231448 Z"/>
</defs>

<g transform="matrix( 0, -0.77655029296875, -1.1385498046875, 0, 460.35,374.9) ">
<use xlink:href="#Layer0_0_MEMBER_0_1_STROKES" transform="matrix( 0, -0.8782958984375, -1.2877349853515625, 0, 482.75,404.3) "/>
</g>

<g transform="matrix( -1.0812835693359375, 0, 0, -1.0812835693359375, 151.45,206.15) ">
<use xlink:href="#Layer0_0_MEMBER_1_FILL"/>
</g>

<g transform="matrix( -1.0812835693359375, 0, 0, -1.0812835693359375, 126.1,206.15) ">
<use xlink:href="#Layer0_0_MEMBER_2_FILL"/>
</g>

<g transform="matrix( 0.2431182861328125, -0.0011749267578125, -0.0011749267578125, -0.2431182861328125, 12.25,110.8) ">
<use xlink:href="#Layer0_0_MEMBER_3_FILL"/>
</g>

<g transform="matrix( 0.2431182861328125, -0.0011749267578125, -0.0011749267578125, -0.2431182861328125, 12.45,109.7) ">
<use xlink:href="#Layer0_0_MEMBER_4_1_STROKES" transform="matrix( 4.1131134033203125, -0.019866943359375, -0.019866943359375, -4.1131134033203125, -49,451.45) "/>
</g>

<g transform="matrix( 0.2431182861328125, -0.0011749267578125, -0.0011749267578125, -0.2431182861328125, 354.15,345.85) ">
<use xlink:href="#Layer0_0_MEMBER_5_FILL"/>
</g>

<g transform="matrix( 0.2431182861328125, -0.0011749267578125, -0.0011749267578125, -0.2431182861328125, 354.35,344.8) ">
<use xlink:href="#Layer0_0_MEMBER_6_1_STROKES" transform="matrix( 4.1131134033203125, -0.019866943359375, -0.019866943359375, -4.1131134033203125, -1450.6,1425.25) "/>
</g>

<g transform="matrix( 1, 0, 0, 1, 0,24.75) ">
<use xlink:href="#Layer0_1_FILL"/>
</g>

<g transform="matrix( 0.7913818359375, 0, 0, 0.7913818359375, 201.4,-4.95) ">
<use xlink:href="#Layer0_2_FILL"/>
</g>

<g transform="matrix( 0.7913818359375, 0, 0, 0.7913818359375, 8,105.75) ">
<use xlink:href="#Layer0_3_FILL"/>
</g>

<g transform="matrix( 1, 0, 0, 1, 445.05,1.25) ">
<g transform="matrix( 0.2457733154296875, 0, 0, 0.04119873046875, 0,58.35) ">
<use xlink:href="#Paleta_0_Layer1_0_FILL"/>

<use xlink:href="#Paleta_0_Layer1_0_1_STROKES" transform="matrix( 4.06878662109375, 0, 0, 24.2725830078125, 0,-1416.3) "/>
</g>

<g transform="matrix( 0.2457733154296875, 0, 0, 0.04119873046875, 0,58.35) ">
<use xlink:href="#Paleta_0_Layer1_1_FILL"/>
</g>

<g transform="matrix( 0.2457733154296875, 0, 0, 0.04119873046875, 0,58.35) ">
<use xlink:href="#Paleta_0_Layer1_2_FILL"/>
</g>

<g transform="matrix( 0.2457733154296875, 0, 0, 0.04119873046875, 0,58.35) ">
<use xlink:href="#Paleta_0_Layer1_3_FILL"/>
</g>

<g transform="matrix( 0.2457733154296875, 0, 0, 0.04119873046875, 0,58.35) ">
<use xlink:href="#Paleta_0_Layer1_4_FILL"/>
</g>

<g transform="matrix( 0.24591064453125, 0, 0, 0.0413055419921875, 0,82.5) ">
<use xlink:href="#Paleta_0_Layer1_5_FILL"/>
</g>

<g transform="matrix( 0.24591064453125, 0, 0, 0.0413055419921875, 0,82.5) ">
<use xlink:href="#Paleta_0_Layer1_6_FILL"/>
</g>

<g transform="matrix( 0.24591064453125, 0, 0, 0.0413055419921875, 0,82.5) ">
<use xlink:href="#Paleta_0_Layer1_7_FILL"/>
</g>

<g transform="matrix( 0.24591064453125, 0, 0, 0.0413055419921875, 0,97.55) ">
<use xlink:href="#Paleta_0_Layer1_8_FILL"/>
</g>

<g transform="matrix( 0.24591064453125, 0, 0, 0.0413055419921875, 0,97.55) ">
<use xlink:href="#Paleta_0_Layer1_9_FILL"/>
</g>

<g transform="matrix( 0.24591064453125, 0, 0, 0.0413055419921875, 0,97.55) ">
<use xlink:href="#Paleta_0_Layer1_10_FILL"/>
</g>

<g transform="matrix( 0.24591064453125, 0, 0, 0.0413055419921875, 0,112.65) ">
<use xlink:href="#Paleta_0_Layer1_11_FILL"/>
</g>

<g transform="matrix( 0.24591064453125, 0, 0, 0.0413055419921875, 0,112.65) ">
<use xlink:href="#Paleta_0_Layer1_12_FILL"/>
</g>

<g transform="matrix( 0.24591064453125, 0, 0, 0.0413055419921875, 0,112.65) ">
<use xlink:href="#Paleta_0_Layer1_13_FILL"/>
</g>

<g transform="matrix( 0.24591064453125, 0, 0, 0.0413055419921875, 0,127.7) ">
<use xlink:href="#Paleta_0_Layer1_14_FILL"/>
</g>

<g transform="matrix( 0.24591064453125, 0, 0, 0.0413055419921875, 0,127.7) ">
<use xlink:href="#Paleta_0_Layer1_15_FILL"/>
</g>

<g transform="matrix( 0.24591064453125, 0, 0, 0.0413055419921875, 0,127.7) ">
<use xlink:href="#Paleta_0_Layer1_16_FILL"/>
</g>

<g transform="matrix( 0.24591064453125, 0, 0, 0.0413055419921875, 0,153.8) ">
<use xlink:href="#Paleta_0_Layer1_17_FILL"/>
</g>

<g transform="matrix( 0.24591064453125, 0, 0, 0.0413055419921875, 0,153.8) ">
<use xlink:href="#Paleta_0_Layer1_18_FILL"/>
</g>

<g transform="matrix( 0.24591064453125, 0, 0, 0.0413055419921875, 0,153.8) ">
<use xlink:href="#Paleta_0_Layer1_19_FILL"/>
</g>

<g transform="matrix( 0.24591064453125, 0, 0, 0.0413055419921875, 0,168.85) ">
<use xlink:href="#Paleta_0_Layer1_20_FILL"/>
</g>

<g transform="matrix( 0.24591064453125, 0, 0, 0.0413055419921875, 0,168.85) ">
<use xlink:href="#Paleta_0_Layer1_21_FILL"/>
</g>

<g transform="matrix( 0.24591064453125, 0, 0, 0.0413055419921875, 0,168.85) ">
<use xlink:href="#Paleta_0_Layer1_22_FILL"/>
</g>

<g transform="matrix( 0.24591064453125, 0, 0, 0.0413055419921875, 0,183.9) ">
<use xlink:href="#Paleta_0_Layer1_23_FILL"/>
</g>

<g transform="matrix( 0.24591064453125, 0, 0, 0.0413055419921875, 0,183.9) ">
<use xlink:href="#Paleta_0_Layer1_24_FILL"/>
</g>

<g transform="matrix( 0.24591064453125, 0, 0, 0.0413055419921875, 0,183.9) ">
<use xlink:href="#Paleta_0_Layer1_25_FILL"/>
</g>

<g transform="matrix( 1, 0, 0, 1, 0,0) ">
<use xlink:href="#Paleta_0_Layer1_26_FILL"/>
</g>

<g transform="matrix( 0.24591064453125, 0, 0, 0.0413055419921875, 0,199) ">
<use xlink:href="#Paleta_0_Layer1_27_FILL"/>
</g>

<g transform="matrix( 0.24591064453125, 0, 0, 0.0413055419921875, 0,199) ">
<use xlink:href="#Paleta_0_Layer1_28_FILL"/>
</g>

<g transform="matrix( -0.24591064453125, 0, 0, -0.0413055419921875, 130.25,21.1) ">
<use xlink:href="#Paleta_0_Layer1_29_FILL"/>
</g>

<g transform="matrix( -0.24591064453125, 0, 0, -0.0413055419921875, 130.25,21.1) ">
<use xlink:href="#Paleta_0_Layer1_30_FILL"/>
</g>

<g transform="matrix( -0.24591064453125, 0, 0, -0.0413055419921875, 130.25,6.05) ">
<use xlink:href="#Paleta_0_Layer1_31_FILL"/>
</g>

<g transform="matrix( -0.24591064453125, 0, 0, -0.0413055419921875, 130.25,6.05) ">
<use xlink:href="#Paleta_0_Layer1_32_FILL"/>
</g>

<g transform="matrix( -0.24591064453125, 0, 0, -0.0413055419921875, 130.25,6.05) ">
<use xlink:href="#Paleta_0_Layer1_33_FILL"/>
</g>

<g transform="matrix( -0.24591064453125, 0, 0, 0.0413055419921875, 130.25,82.5) ">
<use xlink:href="#Paleta_0_Layer1_34_FILL"/>
</g>

<g transform="matrix( -0.24591064453125, 0, 0, 0.0413055419921875, 130.25,82.5) ">
<use xlink:href="#Paleta_0_Layer1_35_FILL"/>
</g>

<g transform="matrix( -0.24591064453125, 0, 0, 0.0413055419921875, 130.25,82.5) ">
<use xlink:href="#Paleta_0_Layer1_36_FILL"/>
</g>

<g transform="matrix( -0.24591064453125, 0, 0, 0.0413055419921875, 130.25,97.6) ">
<use xlink:href="#Paleta_0_Layer1_37_FILL"/>
</g>

<g transform="matrix( -0.24591064453125, 0, 0, 0.0413055419921875, 130.25,97.6) ">
<use xlink:href="#Paleta_0_Layer1_38_FILL"/>
</g>

<g transform="matrix( -0.24591064453125, 0, 0, 0.0413055419921875, 130.25,97.6) ">
<use xlink:href="#Paleta_0_Layer1_39_FILL"/>
</g>

<g transform="matrix( 0.24591064453125, 0, 0, 0.0413055419921875, 81.35,153.8) ">
<use xlink:href="#Paleta_0_Layer1_40_FILL"/>
</g>

<g transform="matrix( 0.24591064453125, 0, 0, 0.0413055419921875, 81.35,153.8) ">
<use xlink:href="#Paleta_0_Layer1_41_FILL"/>
</g>

<g transform="matrix( 0.24591064453125, 0, 0, 0.0413055419921875, 81.35,153.8) ">
<use xlink:href="#Paleta_0_Layer1_42_FILL"/>
</g>

<g transform="matrix( 0.24591064453125, 0, 0, -0.0413055419921875, 81.35,77.25) ">
<use xlink:href="#Paleta_0_Layer1_43_FILL"/>
</g>

<g transform="matrix( 0.24591064453125, 0, 0, -0.0413055419921875, 81.35,77.25) ">
<use xlink:href="#Paleta_0_Layer1_44_FILL"/>
</g>

<g transform="matrix( 0.24591064453125, 0, 0, -0.0413055419921875, 81.35,77.25) ">
<use xlink:href="#Paleta_0_Layer1_45_FILL"/>
</g>

<g transform="matrix( 0.24591064453125, 0, 0, -0.0413055419921875, 81.35,62.2) ">
<use xlink:href="#Paleta_0_Layer1_46_FILL"/>
</g>

<g transform="matrix( 0.24591064453125, 0, 0, -0.0413055419921875, 81.35,62.2) ">
<use xlink:href="#Paleta_0_Layer1_47_FILL"/>
</g>

<g transform="matrix( 0.24591064453125, 0, 0, -0.0413055419921875, 81.35,62.2) ">
<use xlink:href="#Paleta_0_Layer1_48_FILL"/>
</g>

<g transform="matrix( 0.24591064453125, 0, 0, 0.0413055419921875, 81.35,199) ">
<use xlink:href="#Paleta_0_Layer1_49_FILL"/>
</g>

<g transform="matrix( 0.24591064453125, 0, 0, 0.0413055419921875, 81.35,199) ">
<use xlink:href="#Paleta_0_Layer1_50_FILL"/>
</g>

<g transform="matrix( 0.24591064453125, 0, 0, 0.0413055419921875, 157.55,82.5) ">
<use xlink:href="#Paleta_0_Layer1_51_FILL"/>
</g>

<g transform="matrix( 0.24591064453125, 0, 0, 0.0413055419921875, 157.4,82.5) ">
<use xlink:href="#Paleta_0_Layer1_52_FILL"/>
</g>

<g transform="matrix( 0.24591064453125, 0, 0, 0.0413055419921875, 156.1,82.5) ">
<use xlink:href="#Paleta_0_Layer1_53_FILL"/>
</g>

<g transform="matrix( 0.24591064453125, 0, 0, 0.0413055419921875, 157.55,97.55) ">
<use xlink:href="#Paleta_0_Layer1_54_FILL"/>
</g>

<g transform="matrix( 0.24591064453125, 0, 0, 0.0413055419921875, 157.4,97.55) ">
<use xlink:href="#Paleta_0_Layer1_55_FILL"/>
</g>

<g transform="matrix( 0.24591064453125, 0, 0, 0.0413055419921875, 156.1,97.55) ">
<use xlink:href="#Paleta_0_Layer1_56_FILL"/>
</g>

<g transform="matrix( 0.24591064453125, 0, 0, 0.0413055419921875, 157.55,112.65) ">
<use xlink:href="#Paleta_0_Layer1_57_FILL"/>
</g>

<g transform="matrix( 0.24591064453125, 0, 0, 0.0413055419921875, 157.4,112.65) ">
<use xlink:href="#Paleta_0_Layer1_58_FILL"/>
</g>

<g transform="matrix( 0.24591064453125, 0, 0, 0.0413055419921875, 156.1,112.65) ">
<use xlink:href="#Paleta_0_Layer1_59_FILL"/>
</g>

<g transform="matrix( 0.24591064453125, 0, 0, 0.0413055419921875, 157.55,127.7) ">
<use xlink:href="#Paleta_0_Layer1_60_FILL"/>
</g>

<g transform="matrix( 0.24591064453125, 0, 0, 0.0413055419921875, 157.4,127.7) ">
<use xlink:href="#Paleta_0_Layer1_61_FILL"/>
</g>

<g transform="matrix( 0.24591064453125, 0, 0, 0.0413055419921875, 156.1,127.7) ">
<use xlink:href="#Paleta_0_Layer1_62_FILL"/>
</g>

<g transform="matrix( 0.24591064453125, 0, 0, 0.0413055419921875, 157.55,153.8) ">
<use xlink:href="#Paleta_0_Layer1_63_FILL"/>
</g>

<g transform="matrix( 0.24591064453125, 0, 0, 0.0413055419921875, 157.4,153.8) ">
<use xlink:href="#Paleta_0_Layer1_64_FILL"/>
</g>

<g transform="matrix( 0.24591064453125, 0, 0, 0.0413055419921875, 156.1,153.8) ">
<use xlink:href="#Paleta_0_Layer1_65_FILL"/>
</g>

<g transform="matrix( 0.24591064453125, 0, 0, 0.0413055419921875, 157.55,168.85) ">
<use xlink:href="#Paleta_0_Layer1_66_FILL"/>
</g>

<g transform="matrix( 0.24591064453125, 0, 0, 0.0413055419921875, 157.4,168.85) ">
<use xlink:href="#Paleta_0_Layer1_67_FILL"/>
</g>

<g transform="matrix( 0.24591064453125, 0, 0, 0.0413055419921875, 156.1,168.85) ">
<use xlink:href="#Paleta_0_Layer1_68_FILL"/>
</g>

<g transform="matrix( 0.24591064453125, 0, 0, 0.0413055419921875, 157.55,183.9) ">
<use xlink:href="#Paleta_0_Layer1_69_FILL"/>
</g>

<g transform="matrix( 0.24591064453125, 0, 0, 0.0413055419921875, 157.4,183.9) ">
<use xlink:href="#Paleta_0_Layer1_70_FILL"/>
</g>

<g transform="matrix( 0.24591064453125, 0, 0, 0.0413055419921875, 156.1,183.9) ">
<use xlink:href="#Paleta_0_Layer1_71_FILL"/>
</g>

<g transform="matrix( 0.24591064453125, 0, 0, 0.0413055419921875, 157.55,199) ">
<use xlink:href="#Paleta_0_Layer1_72_FILL"/>
</g>

<g transform="matrix( 0.24591064453125, 0, 0, 0.0413055419921875, 157.4,199) ">
<use xlink:href="#Paleta_0_Layer1_73_FILL"/>
</g>

<g transform="matrix( 0.24591064453125, 0, 0, 0.0413055419921875, 195.4,59.2) ">
<use xlink:href="#Paleta_0_Layer1_74_FILL"/>
</g>

<g transform="matrix( 0.2457733154296875, 0, 0, 0.04119873046875, 39.6,58.35) ">
<use xlink:href="#Paleta_0_Layer1_75_FILL"/>
</g>

<g transform="matrix( 0.2457733154296875, 0, 0, 0.04119873046875, 39.6,58.35) ">
<use xlink:href="#Paleta_0_Layer1_76_FILL"/>
</g>

<g transform="matrix( 1, 0, 0, 1, 0,15.55) ">
<use xlink:href="#Paleta_0_Layer1_77_FILL"/>
</g>

<g transform="matrix( 0.24591064453125, 0, 0, 0.0413055419921875, 0,214.55) ">
<use xlink:href="#Paleta_0_Layer1_78_FILL"/>
</g>

<g transform="matrix( 0.24591064453125, 0, 0, 0.0413055419921875, 0,214.55) ">
<use xlink:href="#Paleta_0_Layer1_79_FILL"/>
</g>

<g transform="matrix( 0.24591064453125, 0, 0, 0.0413055419921875, 81.35,214.55) ">
<use xlink:href="#Paleta_0_Layer1_80_FILL"/>
</g>

<g transform="matrix( 0.24591064453125, 0, 0, 0.0413055419921875, 81.35,214.55) ">
<use xlink:href="#Paleta_0_Layer1_81_FILL"/>

<use xlink:href="#Paleta_0_Layer1_81_1_STROKES" transform="matrix( 4.0665130615234375, 0, 0, 24.209823608398438, -330.8,-5194.2) "/>
</g>

<g transform="matrix( 0.24591064453125, 0, 0, 0.0413055419921875, 156.1,214.55) ">
<use xlink:href="#Paleta_0_Layer1_82_FILL"/>
</g>

<g transform="matrix( 0.24591064453125, 0, 0, 0.0413055419921875, 157.55,214.55) ">
<use xlink:href="#Paleta_0_Layer1_83_FILL"/>
</g>

<g transform="matrix( 0.24591064453125, 0, 0, 0.0413055419921875, 157.4,214.55) ">
<use xlink:href="#Paleta_0_Layer1_84_FILL"/>
</g>
</g>

<g transform="matrix( 0.7913818359375, 0, 0, 0.7913818359375, 1.35,115.35) ">
<use xlink:href="#Layer0_5_FILL"/>
</g>

<g transform="matrix( 1, 0, 0, 1, 208,25.45) ">
<use xlink:href="#Layer0_6_MEMBER_0_FILL"/>
</g>

<g transform="matrix( 1, 0, 0, 1, 0,24.75) ">
<use xlink:href="#Layer0_6_MEMBER_1_FILL"/>
</g>

<g transform="matrix( 1, 0, 0, 1, 313.9,25.45) ">
<use xlink:href="#Layer0_7_MEMBER_0_FILL"/>
</g>

<g transform="matrix( 1, 0, 0, 1, 0,24.75) ">
<use xlink:href="#Layer0_7_MEMBER_1_FILL"/>
</g>

<g transform="matrix( 1, 0, 0, 1, 104.6,25.45) ">
<use xlink:href="#Layer0_8_MEMBER_0_FILL"/>
</g>

<g transform="matrix( 1, 0, 0, 1, 0,24.75) ">
<use xlink:href="#Layer0_8_MEMBER_1_FILL"/>
</g>

<g transform="matrix( 1, 0, 0, 1, 1.1,25.45) ">
<use xlink:href="#Layer0_9_MEMBER_0_FILL"/>
</g>

<g transform="matrix( 1, 0, 0, 1, 0,24.75) ">
<use xlink:href="#Layer0_9_MEMBER_1_FILL"/>
</g>
</svg>
