<?xml version="1.0" encoding="UTF-8"?><svg id="Camada_1" xmlns="http://www.w3.org/2000/svg" xmlns:xlink="http://www.w3.org/1999/xlink" viewBox="0 0 604.6 222.16"><defs><style>.cls-1{stroke:#feac5a;}.cls-1,.cls-2,.cls-3,.cls-4,.cls-5{fill:none;}.cls-1,.cls-2,.cls-3,.cls-5{stroke-width:2px;}.cls-2{stroke:#c55a1a;}.cls-6{clip-path:url(#clippath-2);}.cls-7{isolation:isolate;}.cls-3{stroke:#105da6;}.cls-8{clip-path:url(#clippath-1);}.cls-9{fill:#feac5a;}.cls-10{fill:#105da6;}.cls-11{fill:#7cb7ae;}.cls-12{clip-path:url(#clippath);}.cls-13{fill:#c55a1a;}.cls-14{clip-path:url(#clippath-3);}.cls-15{fill:#08536a;}.cls-5{stroke:#7cb7ae;}</style><clipPath id="clippath"><path class="cls-4" d="m180.14,0l-4.43,10.52s-33.19-12.24-54.34,6.08l-13.01,22.46s19.82-28.22,58.62-9.52l-6.15,12.76c18.27-1.79,36.7-1.26,54.83,1.59L180.14,0Z"/></clipPath><clipPath id="clippath-1"><path class="cls-4" d="m485.64,0l-4.43,10.52s-33.19-12.24-54.34,6.08l-13.01,22.46s19.82-28.22,58.62-9.52l-6.15,12.76c18.27-1.79,36.7-1.26,54.83,1.59L485.64,0Z"/></clipPath><clipPath id="clippath-2"><path class="cls-4" d="m351.59,222.16l-4.43-10.52s-33.19,12.24-54.34-6.08l-13-22.45s19.82,28.22,58.62,9.52l-6.15-12.76c18.27,1.8,36.7,1.26,54.83-1.59l-35.53,43.89Z"/></clipPath><clipPath id="clippath-3"><path class="cls-4" d="m339.75-22.85l-4.43-10.52s-33.19,12.24-54.34-6.08l-13-22.45s19.82,28.22,58.62,9.52l-6.15-12.76c18.27,1.8,36.7,1.26,54.83-1.59l-35.53,43.89Z"/></clipPath></defs><g><g id="Retângulo_8884"><rect class="cls-4" y="58.49" width="132" height="104" rx="5" ry="5"/><rect class="cls-1" x="1" y="59.49" width="130" height="102" rx="4" ry="4"/></g><g id="Retângulo_8885"><rect class="cls-4" x="164.6" y="58.99" width="132" height="104" rx="5" ry="5"/><rect class="cls-2" x="165.6" y="59.99" width="130" height="102" rx="4" ry="4"/></g><g id="Retângulo_8886"><rect class="cls-4" x="318.6" y="58.99" width="132" height="104" rx="5" ry="5"/><rect class="cls-3" x="319.6" y="59.99" width="130" height="102" rx="4" ry="4"/></g><g id="Retângulo_8887"><rect class="cls-4" x="472.6" y="58.99" width="132" height="104" rx="5" ry="5"/><rect class="cls-5" x="473.6" y="59.99" width="130" height="102" rx="4" ry="4"/></g><g id="_É_a_unidade_primária_input_." class="cls-7"><g class="cls-7"><path class="cls-9" d="m26.52,106.41l-.62-2.04h-3.12l-.62,2.04h-1.96l3.02-8.6h2.22l3.04,8.6h-1.96Zm-1.05-3.56c-.57-1.85-.9-2.89-.97-3.14s-.12-.43-.16-.57c-.13.5-.5,1.74-1.11,3.71h2.23Z"/><path class="cls-9" d="m36.16,101.2h-1.55v5.21h-1.79v-5.21h-.98v-.86l.98-.48v-.48c0-.75.18-1.29.55-1.63s.96-.52,1.76-.52c.62,0,1.17.09,1.65.28l-.46,1.31c-.36-.11-.69-.17-1-.17-.25,0-.44.08-.55.23s-.17.34-.17.58v.41h1.55v1.34Z"/><path class="cls-9" d="m43.13,103.12c0,1.07-.28,1.9-.84,2.5s-1.35.9-2.35.9c-.63,0-1.18-.14-1.66-.41s-.85-.67-1.11-1.19-.39-1.12-.39-1.8c0-1.07.28-1.9.84-2.5s1.34-.89,2.36-.89c.63,0,1.18.14,1.66.41s.85.67,1.11,1.18c.26.51.39,1.11.39,1.8Zm-4.53,0c0,.65.11,1.14.32,1.47s.56.5,1.04.5.82-.17,1.03-.5.31-.82.31-1.47-.11-1.13-.32-1.46c-.21-.32-.56-.49-1.04-.49s-.82.16-1.03.48c-.21.32-.32.81-.32,1.46Z"/><path class="cls-9" d="m48.27,99.73c.24,0,.44.02.6.05l-.13,1.68c-.14-.04-.32-.06-.53-.06-.57,0-1.01.15-1.33.44s-.48.7-.48,1.23v3.33h-1.79v-6.55h1.35l.26,1.1h.09c.2-.37.48-.66.82-.89s.72-.34,1.13-.34Z"/><path class="cls-9" d="m55.93,106.41h-1.79v-3.83c0-.47-.08-.83-.24-1.06-.16-.24-.41-.35-.75-.35-.46,0-.79.17-1,.5-.21.34-.31.89-.31,1.66v3.08h-1.79v-6.55h1.37l.24.84h.1c.18-.3.43-.54.76-.71s.71-.25,1.14-.25c.98,0,1.64.32,1.99.96h.16c.18-.3.43-.54.78-.71s.73-.25,1.16-.25c.74,0,1.3.19,1.68.57s.57.99.57,1.83v4.27h-1.79v-3.83c0-.47-.08-.83-.24-1.06-.16-.24-.41-.35-.75-.35-.44,0-.76.16-.98.47-.22.31-.33.81-.33,1.49v3.29Z"/><path class="cls-9" d="m66,106.41l-.35-.89h-.05c-.3.38-.61.64-.93.79s-.73.22-1.25.22c-.63,0-1.12-.18-1.49-.54s-.54-.87-.54-1.54.24-1.21.73-1.54,1.22-.51,2.2-.55l1.14-.04v-.29c0-.66-.34-1-1.02-1-.52,0-1.14.16-1.85.48l-.59-1.21c.75-.39,1.59-.59,2.51-.59s1.55.19,2.02.57.7.96.7,1.75v4.37h-1.25Zm-.53-3.04l-.69.02c-.52.02-.91.11-1.16.28s-.38.43-.38.79c0,.5.29.76.87.76.41,0,.75-.12.99-.36s.37-.55.37-.95v-.54Z"/><path class="cls-9" d="m71.75,106.53c-2.04,0-3.06-1.12-3.06-3.36,0-1.11.28-1.96.83-2.55s1.35-.88,2.38-.88c.76,0,1.44.15,2.04.45l-.53,1.38c-.28-.11-.54-.21-.79-.28s-.48-.11-.73-.11c-.93,0-1.39.66-1.39,1.98s.46,1.92,1.39,1.92c.34,0,.66-.05.96-.14s.59-.24.88-.43v1.53c-.29.18-.58.31-.88.38s-.67.11-1.12.11Zm1.12,1.35c0,.5-.15.86-.44,1.08s-.75.33-1.37.33c-.3,0-.59-.04-.86-.12v-.98c.11.03.25.05.42.08s.32.04.41.04c.28,0,.42-.12.42-.36,0-.32-.32-.54-.97-.63l.46-.9h1.13l-.16.36c.29.09.52.24.69.44s.26.42.26.67Z"/><path class="cls-9" d="m79.42,106.41l-.35-.89h-.05c-.3.38-.61.64-.93.79s-.73.22-1.25.22c-.63,0-1.12-.18-1.49-.54s-.54-.87-.54-1.54.24-1.21.73-1.54,1.22-.51,2.2-.55l1.14-.04v-.29c0-.66-.34-1-1.02-1-.52,0-1.14.16-1.85.48l-.59-1.21c.75-.39,1.59-.59,2.51-.59s1.55.19,2.02.57.7.96.7,1.75v4.37h-1.25Zm-2.36-7.89c-.12,0-.24.05-.35.16s-.19.26-.24.47h-.87c.04-.57.2-1.01.48-1.33s.65-.48,1.11-.48c.16,0,.32.03.47.1s.31.13.46.21.3.15.44.21.29.09.43.09c.12,0,.24-.05.35-.15s.19-.26.24-.47h.87c-.04.57-.21,1.01-.49,1.33s-.65.48-1.1.48c-.16,0-.32-.03-.47-.1s-.31-.13-.46-.21-.3-.15-.44-.21-.29-.1-.43-.1Zm1.83,4.85l-.69.02c-.52.02-.91.11-1.16.28s-.38.43-.38.79c0,.5.29.76.87.76.41,0,.75-.12.99-.36s.37-.55.37-.95v-.54Z"/><path class="cls-9" d="m88.46,103.12c0,1.07-.28,1.9-.84,2.5s-1.35.9-2.35.9c-.63,0-1.18-.14-1.66-.41s-.85-.67-1.11-1.19-.39-1.12-.39-1.8c0-1.07.28-1.9.84-2.5s1.34-.89,2.36-.89c.63,0,1.18.14,1.66.41s.85.67,1.11,1.18c.26.51.39,1.11.39,1.8Zm-4.53,0c0,.65.11,1.14.32,1.47s.56.5,1.04.5.82-.17,1.03-.5.31-.82.31-1.47-.11-1.13-.32-1.46c-.21-.32-.56-.49-1.04-.49s-.82.16-1.03.48c-.21.32-.32.81-.32,1.46Z"/><path class="cls-9" d="m95.13,106.53c-.77,0-1.37-.3-1.81-.9s-.66-1.43-.66-2.48.22-1.91.67-2.51,1.06-.9,1.85-.9c.82,0,1.45.32,1.89.96h.06c-.09-.49-.13-.92-.13-1.31v-2.1h1.79v9.12h-1.37l-.35-.85h-.08c-.41.64-1.03.97-1.86.97Zm.63-1.42c.46,0,.79-.13,1-.4s.33-.72.35-1.35v-.19c0-.7-.11-1.21-.33-1.51-.22-.31-.57-.46-1.06-.46-.4,0-.71.17-.93.51-.22.34-.33.83-.33,1.47s.11,1.13.33,1.45.54.48.96.48Z"/><path class="cls-9" d="m104.81,106.41l-.35-.89h-.05c-.3.38-.61.64-.93.79s-.73.22-1.25.22c-.63,0-1.12-.18-1.49-.54s-.54-.87-.54-1.54.24-1.21.73-1.54,1.22-.51,2.2-.55l1.14-.04v-.29c0-.66-.34-1-1.02-1-.52,0-1.14.16-1.85.48l-.59-1.21c.75-.39,1.59-.59,2.51-.59s1.55.19,2.02.57.7.96.7,1.75v4.37h-1.25Zm-.53-3.04l-.69.02c-.52.02-.91.11-1.16.28s-.38.43-.38.79c0,.5.29.76.87.76.41,0,.75-.12.99-.36s.37-.55.37-.95v-.54Z"/><path class="cls-9" d="m25.3,120.81l-.35-.89h-.05c-.3.38-.61.64-.93.79s-.73.22-1.25.22c-.63,0-1.12-.18-1.49-.54s-.54-.87-.54-1.54.24-1.21.73-1.54,1.22-.51,2.2-.55l1.14-.04v-.29c0-.66-.34-1-1.02-1-.52,0-1.14.16-1.85.47l-.59-1.21c.75-.39,1.59-.59,2.51-.59s1.55.19,2.02.57.7.96.7,1.75v4.37h-1.25Zm-.53-3.04l-.69.02c-.52.02-.91.11-1.16.28s-.38.43-.38.79c0,.5.29.76.87.76.41,0,.75-.12.99-.36s.37-.55.37-.95v-.54Z"/><path class="cls-9" d="m34.09,114.26v.91l-1.03.26c.19.29.28.62.28.98,0,.7-.25,1.25-.74,1.64s-1.17.59-2.04.59l-.32-.02-.26-.03c-.18.14-.28.3-.28.47,0,.26.33.39.98.39h1.11c.72,0,1.27.15,1.64.46s.57.76.57,1.36c0,.77-.32,1.36-.96,1.78s-1.56.63-2.75.63c-.91,0-1.61-.16-2.09-.48s-.72-.76-.72-1.34c0-.39.12-.72.37-.99s.61-.46,1.08-.57c-.18-.08-.34-.21-.48-.38s-.21-.37-.21-.57c0-.25.07-.46.22-.62s.35-.33.63-.49c-.34-.15-.62-.39-.82-.71s-.3-.71-.3-1.16c0-.71.23-1.27.7-1.66s1.13-.59,1.99-.59c.18,0,.4.02.65.05s.41.06.48.07h2.29Zm-5.06,7.48c0,.25.12.44.35.58s.57.21.99.21c.64,0,1.14-.09,1.51-.26s.54-.42.54-.72c0-.25-.11-.42-.32-.51s-.55-.14-1-.14h-.93c-.33,0-.6.08-.82.23s-.33.36-.33.61Zm.65-5.33c0,.36.08.64.24.84s.41.31.74.31.58-.1.74-.31.23-.49.23-.84c0-.79-.32-1.18-.97-1.18s-.98.39-.98,1.18Z"/><path class="cls-9" d="m38.13,120.93c-1.05,0-1.88-.29-2.47-.87s-.89-1.41-.89-2.47.27-1.95.82-2.55,1.31-.9,2.28-.9,1.65.26,2.16.79.77,1.26.77,2.19v.87h-4.22c.02.51.17.9.45,1.19s.68.43,1.18.43c.39,0,.77-.04,1.12-.12s.72-.21,1.1-.39v1.38c-.31.16-.65.27-1,.35s-.79.11-1.3.11Zm-.25-5.52c-.38,0-.68.12-.89.36s-.34.58-.37,1.02h2.51c0-.44-.12-.78-.35-1.02s-.52-.36-.9-.36Z"/><path class="cls-9" d="m48.3,120.81h-1.79v-3.83c0-.47-.08-.83-.25-1.06s-.44-.35-.8-.35c-.5,0-.86.17-1.08.5s-.33.89-.33,1.66v3.08h-1.79v-6.55h1.37l.24.84h.1c.2-.32.47-.56.82-.72s.75-.24,1.19-.24c.76,0,1.34.21,1.73.62s.59,1.01.59,1.78v4.27Z"/><path class="cls-9" d="m52.22,120.93c-.77,0-1.37-.3-1.81-.9s-.66-1.43-.66-2.48.22-1.91.67-2.51,1.06-.9,1.85-.9c.82,0,1.45.32,1.89.96h.06c-.09-.49-.13-.92-.13-1.31v-2.1h1.79v9.12h-1.37l-.35-.85h-.08c-.41.64-1.03.97-1.86.97Zm.63-1.42c.46,0,.79-.13,1-.4s.33-.72.35-1.35v-.19c0-.7-.11-1.21-.33-1.51s-.57-.46-1.06-.46c-.4,0-.71.17-.93.51s-.33.83-.33,1.47.11,1.13.33,1.45.54.48.96.48Z"/><path class="cls-9" d="m61.9,120.81l-.35-.89h-.05c-.3.38-.61.64-.93.79s-.73.22-1.25.22c-.63,0-1.12-.18-1.49-.54s-.54-.87-.54-1.54.24-1.21.73-1.54,1.22-.51,2.2-.55l1.14-.04v-.29c0-.66-.34-1-1.02-1-.52,0-1.14.16-1.85.47l-.59-1.21c.75-.39,1.59-.59,2.51-.59s1.55.19,2.02.57.7.96.7,1.75v4.37h-1.25Zm-.53-3.04l-.69.02c-.52.02-.91.11-1.16.28s-.38.43-.38.79c0,.5.29.76.87.76.41,0,.75-.12.99-.36s.37-.55.37-.95v-.54Z"/><path class="cls-9" d="m71.7,120.93c-.77,0-1.37-.28-1.81-.84h-.09c.06.55.09.86.09.95v2.65h-1.79v-9.43h1.45l.25.85h.08c.42-.65,1.04-.97,1.86-.97.77,0,1.38.3,1.82.9s.66,1.43.66,2.49c0,.7-.1,1.31-.31,1.82s-.5.91-.88,1.18-.82.4-1.34.4Zm-.53-5.36c-.44,0-.76.14-.97.41s-.31.72-.32,1.34v.19c0,.7.1,1.21.31,1.51s.54.46.99.46c.8,0,1.2-.66,1.2-1.98,0-.64-.1-1.13-.3-1.45s-.51-.48-.93-.48Z"/><path class="cls-9" d="m81.65,117.52c0,1.07-.28,1.9-.84,2.5s-1.35.9-2.35.9c-.63,0-1.18-.14-1.66-.41s-.85-.67-1.11-1.19-.39-1.12-.39-1.8c0-1.07.28-1.9.84-2.5s1.34-.89,2.36-.89c.63,0,1.18.14,1.66.41s.85.67,1.11,1.18.39,1.11.39,1.8Zm-4.53,0c0,.65.11,1.14.32,1.47s.56.5,1.04.5.82-.17,1.03-.5.31-.82.31-1.47-.11-1.13-.32-1.46-.56-.49-1.04-.49-.82.16-1.03.48-.32.81-.32,1.46Z"/><path class="cls-9" d="m84.91,120.81h-1.79v-9.12h1.79v9.12Z"/><path class="cls-9" d="m86.7,113.54v-.16c.67-.78,1.13-1.37,1.38-1.76h2v.12c-.2.2-.55.5-1.04.91s-.87.7-1.15.89h-1.19Zm1.88,7.27h-1.79v-6.55h1.79v6.55Z"/><path class="cls-9" d="m93.21,119.5c.31,0,.69-.07,1.12-.21v1.33c-.45.2-.99.3-1.64.3-.71,0-1.24-.18-1.56-.54s-.49-.9-.49-1.63v-3.16h-.86v-.76l.98-.6.52-1.38h1.14v1.39h1.83v1.34h-1.83v3.16c0,.25.07.44.21.56s.33.18.57.18Z"/><path class="cls-9" d="m95.58,112.57c0-.58.32-.87.97-.87s.97.29.97.87c0,.28-.08.49-.24.65s-.41.23-.73.23c-.65,0-.97-.29-.97-.88Zm1.86,8.24h-1.79v-6.55h1.79v6.55Z"/><path class="cls-9" d="m101.98,120.93c-2.04,0-3.06-1.12-3.06-3.36,0-1.11.28-1.96.83-2.55s1.35-.88,2.38-.88c.76,0,1.44.15,2.04.45l-.53,1.38c-.28-.11-.54-.21-.79-.28s-.48-.11-.73-.11c-.93,0-1.39.66-1.39,1.98s.46,1.92,1.39,1.92c.34,0,.66-.05.96-.14s.59-.24.88-.43v1.53c-.29.18-.58.31-.88.38s-.67.11-1.12.11Z"/><path class="cls-9" d="m109.65,120.81l-.35-.89h-.05c-.3.38-.61.64-.93.79s-.73.22-1.25.22c-.63,0-1.12-.18-1.49-.54s-.54-.87-.54-1.54.24-1.21.73-1.54,1.22-.51,2.2-.55l1.14-.04v-.29c0-.66-.34-1-1.02-1-.52,0-1.14.16-1.85.47l-.59-1.21c.75-.39,1.59-.59,2.51-.59s1.55.19,2.02.57.7.96.7,1.75v4.37h-1.25Zm-.53-3.04l-.69.02c-.52.02-.91.11-1.16.28s-.38.43-.38.79c0,.5.29.76.87.76.41,0,.75-.12.99-.36s.37-.55.37-.95v-.54Z"/></g></g><g id="_É_construído_a_partir_do_dado_trabalhado." class="cls-7"><g class="cls-7"><path class="cls-13" d="m181.92,106.41l-.62-2.04h-3.12l-.62,2.04h-1.96l3.02-8.6h2.22l3.04,8.6h-1.96Zm-1.05-3.56c-.57-1.85-.9-2.89-.97-3.14s-.12-.43-.16-.57c-.13.5-.5,1.74-1.11,3.71h2.23Z"/><path class="cls-13" d="m191.56,101.2h-1.55v5.21h-1.79v-5.21h-.98v-.86l.98-.48v-.48c0-.75.18-1.29.55-1.63s.96-.52,1.76-.52c.62,0,1.17.09,1.65.28l-.46,1.31c-.36-.11-.69-.17-1-.17-.25,0-.44.08-.55.23s-.17.34-.17.58v.41h1.55v1.34Z"/><path class="cls-13" d="m198.53,103.12c0,1.07-.28,1.9-.84,2.5s-1.35.9-2.35.9c-.63,0-1.18-.14-1.66-.41s-.85-.67-1.11-1.19-.39-1.12-.39-1.8c0-1.07.28-1.9.84-2.5s1.34-.89,2.36-.89c.63,0,1.18.14,1.66.41s.85.67,1.11,1.18c.26.51.39,1.11.39,1.8Zm-4.53,0c0,.65.11,1.14.32,1.47s.56.5,1.04.5.82-.17,1.03-.5.31-.82.31-1.47-.11-1.13-.32-1.46c-.21-.32-.56-.49-1.04-.49s-.82.16-1.03.48c-.21.32-.32.81-.32,1.46Z"/><path class="cls-13" d="m203.67,99.73c.24,0,.44.02.6.05l-.13,1.68c-.14-.04-.32-.06-.53-.06-.57,0-1.01.15-1.33.44s-.48.7-.48,1.23v3.33h-1.79v-6.55h1.35l.26,1.1h.09c.2-.37.48-.66.82-.89s.72-.34,1.13-.34Z"/><path class="cls-13" d="m211.32,106.41h-1.79v-3.83c0-.47-.08-.83-.24-1.06-.16-.24-.41-.35-.75-.35-.46,0-.79.17-1,.5-.21.34-.31.89-.31,1.66v3.08h-1.79v-6.55h1.37l.24.84h.1c.18-.3.43-.54.76-.71s.71-.25,1.14-.25c.98,0,1.64.32,1.99.96h.16c.18-.3.43-.54.78-.71s.73-.25,1.16-.25c.74,0,1.3.19,1.68.57s.57.99.57,1.83v4.27h-1.79v-3.83c0-.47-.08-.83-.24-1.06-.16-.24-.41-.35-.75-.35-.44,0-.76.16-.98.47-.22.31-.33.81-.33,1.49v3.29Z"/><path class="cls-13" d="m221.88,106.41l-.24-.84h-.09c-.19.3-.46.54-.81.71s-.75.25-1.2.25c-.77,0-1.35-.21-1.74-.62s-.59-1-.59-1.78v-4.27h1.79v3.83c0,.47.08.83.25,1.06s.44.35.8.35c.5,0,.86-.17,1.08-.5s.33-.89.33-1.66v-3.08h1.79v6.55h-1.37Z"/><path class="cls-13" d="m226.92,106.41h-1.79v-9.12h1.79v9.12Z"/><path class="cls-13" d="m232.95,106.41l-.35-.89h-.05c-.3.38-.61.64-.93.79s-.73.22-1.25.22c-.63,0-1.12-.18-1.49-.54s-.54-.87-.54-1.54.24-1.21.73-1.54,1.22-.51,2.2-.55l1.14-.04v-.29c0-.66-.34-1-1.02-1-.52,0-1.14.16-1.85.48l-.59-1.21c.75-.39,1.59-.59,2.51-.59s1.55.19,2.02.57.7.96.7,1.75v4.37h-1.25Zm-.53-3.04l-.69.02c-.52.02-.91.11-1.16.28s-.38.43-.38.79c0,.5.29.76.87.76.41,0,.75-.12.99-.36s.37-.55.37-.95v-.54Z"/><path class="cls-13" d="m238.7,106.53c-2.04,0-3.06-1.12-3.06-3.36,0-1.11.28-1.96.83-2.55s1.35-.88,2.38-.88c.76,0,1.44.15,2.04.45l-.53,1.38c-.28-.11-.54-.21-.79-.28s-.48-.11-.73-.11c-.93,0-1.39.66-1.39,1.98s.46,1.92,1.39,1.92c.34,0,.66-.05.96-.14s.59-.24.88-.43v1.53c-.29.18-.58.31-.88.38s-.67.11-1.12.11Zm1.12,1.35c0,.5-.15.86-.44,1.08s-.75.33-1.37.33c-.3,0-.59-.04-.86-.12v-.98c.11.03.25.05.42.08s.32.04.41.04c.28,0,.42-.12.42-.36,0-.32-.32-.54-.97-.63l.46-.9h1.13l-.16.36c.29.09.52.24.69.44s.26.42.26.67Z"/><path class="cls-13" d="m246.37,106.41l-.35-.89h-.05c-.3.38-.61.64-.93.79s-.73.22-1.25.22c-.63,0-1.12-.18-1.49-.54s-.54-.87-.54-1.54.24-1.21.73-1.54,1.22-.51,2.2-.55l1.14-.04v-.29c0-.66-.34-1-1.02-1-.52,0-1.14.16-1.85.48l-.59-1.21c.75-.39,1.59-.59,2.51-.59s1.55.19,2.02.57.7.96.7,1.75v4.37h-1.25Zm-2.36-7.89c-.12,0-.24.05-.35.16s-.19.26-.24.47h-.87c.04-.57.2-1.01.48-1.33s.65-.48,1.11-.48c.16,0,.32.03.47.1s.31.13.46.21.3.15.44.21.29.09.43.09c.12,0,.24-.05.35-.15s.19-.26.24-.47h.87c-.04.57-.21,1.01-.49,1.33s-.65.48-1.1.48c-.16,0-.32-.03-.47-.1s-.31-.13-.46-.21-.3-.15-.44-.21-.29-.1-.43-.1Zm1.83,4.85l-.69.02c-.52.02-.91.11-1.16.28s-.38.43-.38.79c0,.5.29.76.87.76.41,0,.75-.12.99-.36s.37-.55.37-.95v-.54Z"/><path class="cls-13" d="m255.41,103.12c0,1.07-.28,1.9-.84,2.5s-1.35.9-2.35.9c-.63,0-1.18-.14-1.66-.41s-.85-.67-1.11-1.19-.39-1.12-.39-1.8c0-1.07.28-1.9.84-2.5s1.34-.89,2.36-.89c.63,0,1.18.14,1.66.41s.85.67,1.11,1.18c.26.51.39,1.11.39,1.8Zm-4.53,0c0,.65.11,1.14.32,1.47s.56.5,1.04.5.82-.17,1.03-.5.31-.82.31-1.47-.11-1.13-.32-1.46c-.21-.32-.56-.49-1.04-.49s-.82.16-1.03.48c-.21.32-.32.81-.32,1.46Z"/><path class="cls-13" d="m178.61,120.93c-.77,0-1.37-.3-1.81-.9s-.66-1.43-.66-2.48.22-1.91.67-2.51,1.06-.9,1.85-.9c.82,0,1.45.32,1.89.96h.06c-.09-.49-.13-.92-.13-1.31v-2.1h1.79v9.12h-1.37l-.35-.85h-.08c-.41.64-1.03.97-1.86.97Zm.63-1.42c.46,0,.79-.13,1-.4s.33-.72.35-1.35v-.19c0-.7-.11-1.21-.33-1.51s-.57-.46-1.06-.46c-.4,0-.71.17-.93.51s-.33.83-.33,1.47.11,1.13.33,1.45.54.48.96.48Z"/><path class="cls-13" d="m188.29,120.81l-.35-.89h-.05c-.3.38-.61.64-.93.79s-.73.22-1.25.22c-.63,0-1.12-.18-1.49-.54s-.54-.87-.54-1.54.24-1.21.73-1.54,1.22-.51,2.2-.55l1.14-.04v-.29c0-.66-.34-1-1.02-1-.52,0-1.14.16-1.85.47l-.59-1.21c.75-.39,1.59-.59,2.51-.59s1.55.19,2.02.57.7.96.7,1.75v4.37h-1.25Zm-.53-3.04l-.69.02c-.52.02-.91.11-1.16.28s-.38.43-.38.79c0,.5.29.76.87.76.41,0,.75-.12.99-.36s.37-.55.37-.95v-.54Z"/><path class="cls-13" d="m198.09,120.93c-.77,0-1.37-.28-1.81-.84h-.09c.06.55.09.86.09.95v2.65h-1.79v-9.43h1.45l.25.85h.08c.42-.65,1.04-.97,1.86-.97.77,0,1.38.3,1.82.9s.66,1.43.66,2.49c0,.7-.1,1.31-.31,1.82s-.5.91-.88,1.18-.82.4-1.34.4Zm-.53-5.36c-.44,0-.76.14-.97.41s-.31.72-.32,1.34v.19c0,.7.1,1.21.31,1.51s.54.46.99.46c.8,0,1.2-.66,1.2-1.98,0-.64-.1-1.13-.3-1.45s-.51-.48-.93-.48Z"/><path class="cls-13" d="m208.04,117.52c0,1.07-.28,1.9-.84,2.5s-1.35.9-2.35.9c-.63,0-1.18-.14-1.66-.41s-.85-.67-1.11-1.19-.39-1.12-.39-1.8c0-1.07.28-1.9.84-2.5s1.34-.89,2.36-.89c.63,0,1.18.14,1.66.41s.85.67,1.11,1.18.39,1.11.39,1.8Zm-4.53,0c0,.65.11,1.14.32,1.47s.56.5,1.04.5.82-.17,1.03-.5.31-.82.31-1.47-.11-1.13-.32-1.46-.56-.49-1.04-.49-.82.16-1.03.48-.32.81-.32,1.46Z"/><path class="cls-13" d="m211.31,120.81h-1.79v-9.12h1.79v9.12Z"/><path class="cls-13" d="m213.09,113.54v-.16c.67-.78,1.13-1.37,1.38-1.76h2v.12c-.2.2-.55.5-1.04.91s-.87.7-1.15.89h-1.19Zm1.88,7.27h-1.79v-6.55h1.79v6.55Z"/><path class="cls-13" d="m219.6,119.5c.31,0,.69-.07,1.12-.21v1.33c-.45.2-.99.3-1.64.3-.71,0-1.24-.18-1.56-.54s-.49-.9-.49-1.63v-3.16h-.86v-.76l.98-.6.52-1.38h1.14v1.39h1.83v1.34h-1.83v3.16c0,.25.07.44.21.56s.33.18.57.18Z"/><path class="cls-13" d="m221.98,112.57c0-.58.32-.87.97-.87s.97.29.97.87c0,.28-.08.49-.24.65s-.41.23-.73.23c-.65,0-.97-.29-.97-.88Zm1.86,8.24h-1.79v-6.55h1.79v6.55Z"/><path class="cls-13" d="m228.38,120.93c-2.04,0-3.06-1.12-3.06-3.36,0-1.11.28-1.96.83-2.55s1.35-.88,2.38-.88c.76,0,1.44.15,2.04.45l-.53,1.38c-.28-.11-.54-.21-.79-.28s-.48-.11-.73-.11c-.93,0-1.39.66-1.39,1.98s.46,1.92,1.39,1.92c.34,0,.66-.05.96-.14s.59-.24.88-.43v1.53c-.29.18-.58.31-.88.38s-.67.11-1.12.11Z"/><path class="cls-13" d="m236.05,120.81l-.35-.89h-.05c-.3.38-.61.64-.93.79s-.73.22-1.25.22c-.63,0-1.12-.18-1.49-.54s-.54-.87-.54-1.54.24-1.21.73-1.54,1.22-.51,2.2-.55l1.14-.04v-.29c0-.66-.34-1-1.02-1-.52,0-1.14.16-1.85.47l-.59-1.21c.75-.39,1.59-.59,2.51-.59s1.55.19,2.02.57.7.96.7,1.75v4.37h-1.25Zm-.53-3.04l-.69.02c-.52.02-.91.11-1.16.28s-.38.43-.38.79c0,.5.29.76.87.76.41,0,.75-.12.99-.36s.37-.55.37-.95v-.54Z"/></g></g><g id="_É_gerada_a_partir_da_análise_do_indicador." class="cls-7"><g class="cls-7"><path class="cls-10" d="m335.92,106.41l-.62-2.04h-3.12l-.62,2.04h-1.96l3.02-8.6h2.22l3.04,8.6h-1.96Zm-1.05-3.56c-.57-1.85-.9-2.89-.97-3.13s-.12-.43-.16-.57c-.13.5-.5,1.74-1.11,3.71h2.23Z"/><path class="cls-10" d="m341.86,98.17c0-.58.32-.87.97-.87s.97.29.97.87c0,.28-.08.49-.24.65s-.41.23-.73.23c-.65,0-.97-.29-.97-.88Zm1.86,8.24h-1.79v-6.55h1.79v6.55Z"/><path class="cls-10" d="m351.46,106.41h-1.79v-3.83c0-.47-.08-.83-.24-1.06s-.41-.35-.75-.35c-.46,0-.79.17-1,.5s-.31.89-.31,1.66v3.08h-1.79v-6.55h1.37l.24.84h.1c.18-.3.43-.54.76-.71s.71-.25,1.14-.25c.98,0,1.64.32,1.99.96h.16c.18-.3.43-.54.78-.71s.73-.25,1.16-.25c.74,0,1.3.19,1.68.57s.57.99.57,1.83v4.27h-1.79v-3.83c0-.47-.08-.83-.24-1.06s-.41-.35-.75-.35c-.44,0-.76.16-.98.47s-.33.81-.33,1.49v3.29Z"/><path class="cls-10" d="m360.98,106.53c-.77,0-1.37-.28-1.81-.84h-.09c.06.55.09.86.09.95v2.65h-1.79v-9.43h1.45l.25.85h.08c.42-.65,1.04-.97,1.86-.97.77,0,1.38.3,1.82.9s.66,1.43.66,2.49c0,.7-.1,1.31-.31,1.82s-.5.91-.88,1.18-.82.4-1.34.4Zm-.53-5.36c-.44,0-.76.14-.97.41s-.31.72-.32,1.34v.19c0,.7.1,1.21.31,1.51s.54.46.99.46c.8,0,1.2-.66,1.2-1.98,0-.64-.1-1.13-.3-1.45s-.51-.48-.93-.48Z"/><path class="cls-10" d="m366.76,106.41h-1.79v-9.12h1.79v9.12Z"/><path class="cls-10" d="m371.6,106.53c-1.05,0-1.88-.29-2.47-.87s-.89-1.41-.89-2.47.27-1.95.82-2.55,1.31-.9,2.28-.9,1.65.26,2.16.79.77,1.26.77,2.19v.87h-4.22c.02.51.17.9.45,1.19s.68.43,1.18.43c.39,0,.77-.04,1.12-.12s.72-.21,1.1-.39v1.38c-.31.16-.65.27-1,.35s-.79.11-1.3.11Zm-.25-5.52c-.38,0-.68.12-.89.36s-.34.58-.37,1.02h2.51c0-.44-.12-.78-.35-1.02s-.52-.36-.9-.36Z"/><path class="cls-10" d="m381.59,106.41h-1.79v-3.83c0-.47-.08-.83-.24-1.06s-.41-.35-.75-.35c-.46,0-.79.17-1,.5s-.31.89-.31,1.66v3.08h-1.79v-6.55h1.37l.24.84h.1c.18-.3.43-.54.76-.71s.71-.25,1.14-.25c.98,0,1.64.32,1.99.96h.16c.18-.3.43-.54.78-.71s.73-.25,1.16-.25c.74,0,1.3.19,1.68.57s.57.99.57,1.83v4.27h-1.79v-3.83c0-.47-.08-.83-.24-1.06s-.41-.35-.75-.35c-.44,0-.76.16-.98.47s-.33.81-.33,1.49v3.29Z"/><path class="cls-10" d="m390.47,106.53c-1.05,0-1.88-.29-2.47-.87s-.89-1.41-.89-2.47.27-1.95.82-2.55,1.31-.9,2.28-.9,1.65.26,2.16.79.77,1.26.77,2.19v.87h-4.22c.02.51.17.9.45,1.19s.68.43,1.18.43c.39,0,.77-.04,1.12-.12s.72-.21,1.1-.39v1.38c-.31.16-.65.27-1,.35s-.79.11-1.3.11Zm-.25-5.52c-.38,0-.68.12-.89.36s-.34.58-.37,1.02h2.51c0-.44-.12-.78-.35-1.02s-.52-.36-.9-.36Z"/><path class="cls-10" d="m400.64,106.41h-1.79v-3.83c0-.47-.08-.83-.25-1.06s-.44-.35-.8-.35c-.5,0-.86.17-1.08.5s-.33.89-.33,1.66v3.08h-1.79v-6.55h1.37l.24.84h.1c.2-.32.47-.56.82-.72s.75-.24,1.19-.24c.76,0,1.34.21,1.73.62s.59,1.01.59,1.78v4.27Z"/><path class="cls-10" d="m405.24,105.1c.31,0,.69-.07,1.12-.21v1.33c-.45.2-.99.3-1.64.3-.71,0-1.24-.18-1.56-.54s-.49-.9-.49-1.63v-3.16h-.86v-.76l.98-.6.52-1.38h1.14v1.39h1.83v1.34h-1.83v3.16c0,.25.07.44.21.56s.33.18.57.18Z"/><path class="cls-10" d="m411.85,106.41l-.35-.89h-.05c-.3.38-.61.64-.93.79s-.73.22-1.25.22c-.63,0-1.12-.18-1.49-.54s-.54-.87-.54-1.54.24-1.21.73-1.54,1.22-.51,2.2-.55l1.14-.04v-.29c0-.66-.34-1-1.02-1-.52,0-1.14.16-1.85.47l-.59-1.21c.75-.39,1.59-.59,2.51-.59s1.55.19,2.02.57.7.96.7,1.75v4.37h-1.25Zm-.53-3.04l-.69.02c-.52.02-.91.11-1.16.28s-.38.43-.38.79c0,.5.29.76.87.76.41,0,.75-.12.99-.36s.37-.55.37-.95v-.54Z"/><path class="cls-10" d="m417.6,106.53c-2.04,0-3.06-1.12-3.06-3.36,0-1.11.28-1.96.83-2.55s1.35-.88,2.38-.88c.76,0,1.44.15,2.04.45l-.53,1.38c-.28-.11-.54-.21-.79-.28s-.48-.11-.73-.11c-.93,0-1.39.66-1.39,1.98s.46,1.92,1.39,1.92c.34,0,.66-.05.96-.14s.59-.24.88-.43v1.53c-.29.18-.58.31-.88.38s-.67.11-1.12.11Zm1.12,1.35c0,.5-.15.86-.44,1.08s-.75.33-1.37.33c-.3,0-.59-.04-.86-.12v-.98c.11.03.25.05.42.08s.32.04.41.04c.28,0,.42-.12.42-.36,0-.32-.32-.54-.97-.63l.46-.9h1.13l-.16.36c.29.09.52.24.69.44s.26.42.26.67Z"/><path class="cls-10" d="m425.27,106.41l-.35-.89h-.05c-.3.38-.61.64-.93.79s-.73.22-1.25.22c-.63,0-1.12-.18-1.49-.54s-.54-.87-.54-1.54.24-1.21.73-1.54,1.22-.51,2.2-.55l1.14-.04v-.29c0-.66-.34-1-1.02-1-.52,0-1.14.16-1.85.47l-.59-1.21c.75-.39,1.59-.59,2.51-.59s1.55.19,2.02.57.7.96.7,1.75v4.37h-1.25Zm-2.36-7.89c-.12,0-.24.05-.35.16s-.19.26-.24.47h-.87c.04-.57.2-1.01.48-1.33s.65-.48,1.11-.48c.16,0,.32.03.47.1s.31.13.46.21.3.15.44.21.29.09.43.09c.12,0,.24-.05.35-.15s.19-.26.24-.47h.87c-.04.57-.21,1.01-.49,1.33s-.65.48-1.1.48c-.16,0-.32-.03-.47-.1s-.31-.13-.46-.21-.3-.15-.44-.21-.29-.1-.43-.1Zm1.83,4.85l-.69.02c-.52.02-.91.11-1.16.28s-.38.43-.38.79c0,.5.29.76.87.76.41,0,.75-.12.99-.36s.37-.55.37-.95v-.54Z"/><path class="cls-10" d="m434.31,103.12c0,1.07-.28,1.9-.84,2.5s-1.35.9-2.35.9c-.63,0-1.18-.14-1.66-.41s-.85-.67-1.11-1.19-.39-1.12-.39-1.8c0-1.07.28-1.9.84-2.5s1.34-.89,2.36-.89c.63,0,1.18.14,1.66.41s.85.67,1.11,1.18.39,1.11.39,1.8Zm-4.53,0c0,.65.11,1.14.32,1.47s.56.5,1.04.5.82-.17,1.03-.5.31-.82.31-1.47-.11-1.13-.32-1.46-.56-.49-1.04-.49-.82.16-1.03.48-.32.81-.32,1.46Z"/><path class="cls-10" d="m332.61,120.93c-.77,0-1.37-.3-1.81-.9s-.66-1.43-.66-2.48.22-1.91.67-2.51,1.06-.9,1.85-.9c.82,0,1.45.32,1.89.96h.06c-.09-.49-.13-.92-.13-1.31v-2.1h1.79v9.12h-1.37l-.35-.85h-.08c-.41.64-1.03.97-1.86.97Zm.63-1.42c.46,0,.79-.13,1-.4s.33-.72.35-1.35v-.19c0-.7-.11-1.21-.33-1.51s-.57-.46-1.06-.46c-.4,0-.71.17-.93.51s-.33.83-.33,1.47.11,1.13.33,1.45.54.48.96.48Z"/><path class="cls-10" d="m342.29,120.81l-.35-.89h-.05c-.3.38-.61.64-.93.79s-.73.22-1.25.22c-.63,0-1.12-.18-1.49-.54s-.54-.87-.54-1.54.24-1.21.73-1.54,1.22-.51,2.2-.55l1.14-.04v-.29c0-.66-.34-1-1.02-1-.52,0-1.14.16-1.85.47l-.59-1.21c.75-.39,1.59-.59,2.51-.59s1.55.19,2.02.57.7.96.7,1.75v4.37h-1.25Zm-.53-3.04l-.69.02c-.52.02-.91.11-1.16.28s-.38.43-.38.79c0,.5.29.76.87.76.41,0,.75-.12.99-.36s.37-.55.37-.95v-.54Z"/><path class="cls-10" d="m352.09,120.93c-.77,0-1.37-.28-1.81-.84h-.09c.06.55.09.86.09.95v2.65h-1.79v-9.43h1.45l.25.85h.08c.42-.65,1.04-.97,1.86-.97.77,0,1.38.3,1.82.9s.66,1.43.66,2.49c0,.7-.1,1.31-.31,1.82s-.5.91-.88,1.18-.82.4-1.34.4Zm-.53-5.36c-.44,0-.76.14-.97.41s-.31.72-.32,1.34v.19c0,.7.1,1.21.31,1.51s.54.46.99.46c.8,0,1.2-.66,1.2-1.98,0-.64-.1-1.13-.3-1.45s-.51-.48-.93-.48Z"/><path class="cls-10" d="m362.04,117.52c0,1.07-.28,1.9-.84,2.5s-1.35.9-2.35.9c-.63,0-1.18-.14-1.66-.41s-.85-.67-1.11-1.19-.39-1.12-.39-1.8c0-1.07.28-1.9.84-2.5s1.34-.89,2.36-.89c.63,0,1.18.14,1.66.41s.85.67,1.11,1.18.39,1.11.39,1.8Zm-4.53,0c0,.65.11,1.14.32,1.47s.56.5,1.04.5.82-.17,1.03-.5.31-.82.31-1.47-.11-1.13-.32-1.46-.56-.49-1.04-.49-.82.16-1.03.48-.32.81-.32,1.46Z"/><path class="cls-10" d="m365.31,120.81h-1.79v-9.12h1.79v9.12Z"/><path class="cls-10" d="m367.09,113.54v-.16c.67-.78,1.13-1.37,1.38-1.76h2v.12c-.2.2-.55.5-1.04.91s-.87.7-1.15.89h-1.19Zm1.88,7.27h-1.79v-6.55h1.79v6.55Z"/><path class="cls-10" d="m373.6,119.5c.31,0,.69-.07,1.12-.21v1.33c-.45.2-.99.3-1.64.3-.71,0-1.24-.18-1.56-.54s-.49-.9-.49-1.63v-3.16h-.86v-.76l.98-.6.52-1.38h1.14v1.39h1.83v1.34h-1.83v3.16c0,.25.07.44.21.56s.33.18.57.18Z"/><path class="cls-10" d="m375.98,112.57c0-.58.32-.87.97-.87s.97.29.97.87c0,.28-.08.49-.24.65s-.41.23-.73.23c-.65,0-.97-.29-.97-.88Zm1.86,8.24h-1.79v-6.55h1.79v6.55Z"/><path class="cls-10" d="m382.38,120.93c-2.04,0-3.06-1.12-3.06-3.36,0-1.11.28-1.96.83-2.55s1.35-.88,2.38-.88c.76,0,1.44.15,2.04.45l-.53,1.38c-.28-.11-.54-.21-.79-.28s-.48-.11-.73-.11c-.93,0-1.39.66-1.39,1.98s.46,1.92,1.39,1.92c.34,0,.66-.05.96-.14s.59-.24.88-.43v1.53c-.29.18-.58.31-.88.38s-.67.11-1.12.11Z"/><path class="cls-10" d="m390.05,120.81l-.35-.89h-.05c-.3.38-.61.64-.93.79s-.73.22-1.25.22c-.63,0-1.12-.18-1.49-.54s-.54-.87-.54-1.54.24-1.21.73-1.54,1.22-.51,2.2-.55l1.14-.04v-.29c0-.66-.34-1-1.02-1-.52,0-1.14.16-1.85.47l-.59-1.21c.75-.39,1.59-.59,2.51-.59s1.55.19,2.02.57.7.96.7,1.75v4.37h-1.25Zm-.53-3.04l-.69.02c-.52.02-.91.11-1.16.28s-.38.43-.38.79c0,.5.29.76.87.76.41,0,.75-.12.99-.36s.37-.55.37-.95v-.54Z"/></g></g><g id="_É_obtido_pela_interpretação_da_informação." class="cls-7"><g class="cls-7"><path class="cls-11" d="m489.92,99.21l-.62-2.04h-3.12l-.62,2.04h-1.96l3.02-8.6h2.22l3.04,8.6h-1.96Zm-1.05-3.56c-.57-1.85-.9-2.89-.97-3.13s-.12-.43-.16-.57c-.13.5-.5,1.74-1.11,3.71h2.23Z"/><path class="cls-11" d="m500.09,99.21l-.35-.89h-.05c-.3.38-.61.64-.93.79s-.73.22-1.25.22c-.63,0-1.12-.18-1.49-.54s-.54-.87-.54-1.54.24-1.21.73-1.54,1.22-.51,2.2-.55l1.14-.04v-.29c0-.66-.34-1-1.02-1-.52,0-1.14.16-1.85.47l-.59-1.21c.75-.39,1.59-.59,2.51-.59s1.55.19,2.02.57.7.96.7,1.75v4.37h-1.25Zm-.53-3.04l-.69.02c-.52.02-.91.11-1.16.28s-.38.43-.38.79c0,.5.29.76.87.76.41,0,.75-.12.99-.36s.37-.55.37-.95v-.54Z"/><path class="cls-11" d="m504.74,99.21l-2.5-6.55h1.87l1.27,3.73c.14.47.23.92.26,1.34h.04c.02-.38.11-.82.26-1.34l1.26-3.73h1.87l-2.5,6.55h-1.83Z"/><path class="cls-11" d="m514.17,99.21l-.35-.89h-.05c-.3.38-.61.64-.93.79s-.73.22-1.25.22c-.63,0-1.12-.18-1.49-.54s-.54-.87-.54-1.54.24-1.21.73-1.54,1.22-.51,2.2-.55l1.14-.04v-.29c0-.66-.34-1-1.02-1-.52,0-1.14.16-1.85.47l-.59-1.21c.75-.39,1.59-.59,2.51-.59s1.55.19,2.02.57.7.96.7,1.75v4.37h-1.25Zm-.53-3.04l-.69.02c-.52.02-.91.11-1.16.28s-.38.43-.38.79c0,.5.29.76.87.76.41,0,.75-.12.99-.36s.37-.55.37-.95v-.54Z"/><path class="cls-11" d="m519.04,99.21h-1.79v-9.12h1.79v9.12Z"/><path class="cls-11" d="m520.84,90.97c0-.58.32-.87.97-.87s.97.29.97.87c0,.28-.08.49-.24.65s-.41.23-.73.23c-.65,0-.97-.29-.97-.88Zm1.86,8.24h-1.79v-6.55h1.79v6.55Z"/><path class="cls-11" d="m528.74,99.21l-.35-.89h-.05c-.3.38-.61.64-.93.79s-.73.22-1.25.22c-.63,0-1.12-.18-1.49-.54s-.54-.87-.54-1.54.24-1.21.73-1.54,1.22-.51,2.2-.55l1.14-.04v-.29c0-.66-.34-1-1.02-1-.52,0-1.14.16-1.85.47l-.59-1.21c.75-.39,1.59-.59,2.51-.59s1.55.19,2.02.57.7.96.7,1.75v4.37h-1.25Zm-.53-3.04l-.69.02c-.52.02-.91.11-1.16.28s-.38.43-.38.79c0,.5.29.76.87.76.41,0,.75-.12.99-.36s.37-.55.37-.95v-.54Z"/><path class="cls-11" d="m534.49,99.33c-2.04,0-3.06-1.12-3.06-3.36,0-1.11.28-1.96.83-2.55s1.35-.88,2.38-.88c.76,0,1.44.15,2.04.45l-.53,1.38c-.28-.11-.54-.21-.79-.28s-.48-.11-.73-.11c-.93,0-1.39.66-1.39,1.98s.46,1.92,1.39,1.92c.34,0,.66-.05.96-.14s.59-.24.88-.43v1.53c-.29.18-.58.31-.88.38s-.67.11-1.12.11Zm1.12,1.35c0,.5-.15.86-.44,1.08s-.75.33-1.37.33c-.3,0-.59-.04-.86-.12v-.98c.11.03.25.05.42.08s.32.04.41.04c.28,0,.42-.12.42-.36,0-.32-.32-.54-.97-.63l.46-.9h1.13l-.16.36c.29.09.52.24.69.44s.26.42.26.67Z"/><path class="cls-11" d="m542.16,99.21l-.35-.89h-.05c-.3.38-.61.64-.93.79s-.73.22-1.25.22c-.63,0-1.12-.18-1.49-.54s-.54-.87-.54-1.54.24-1.21.73-1.54,1.22-.51,2.2-.55l1.14-.04v-.29c0-.66-.34-1-1.02-1-.52,0-1.14.16-1.85.47l-.59-1.21c.75-.39,1.59-.59,2.51-.59s1.55.19,2.02.57.7.96.7,1.75v4.37h-1.25Zm-2.36-7.89c-.12,0-.24.05-.35.16s-.19.26-.24.47h-.87c.04-.57.2-1.01.48-1.33s.65-.48,1.11-.48c.16,0,.32.03.47.1s.31.13.46.21.3.15.44.21.29.09.43.09c.12,0,.24-.05.35-.15s.19-.26.24-.47h.87c-.04.57-.21,1.01-.49,1.33s-.65.48-1.1.48c-.16,0-.32-.03-.47-.1s-.31-.13-.46-.21-.3-.15-.44-.21-.29-.1-.43-.1Zm1.83,4.85l-.69.02c-.52.02-.91.11-1.16.28s-.38.43-.38.79c0,.5.29.76.87.76.41,0,.75-.12.99-.36s.37-.55.37-.95v-.54Z"/><path class="cls-11" d="m551.2,95.92c0,1.07-.28,1.9-.84,2.5s-1.35.9-2.35.9c-.63,0-1.18-.14-1.66-.41s-.85-.67-1.11-1.19-.39-1.12-.39-1.8c0-1.07.28-1.9.84-2.5s1.34-.89,2.36-.89c.63,0,1.18.14,1.66.41s.85.67,1.11,1.18.39,1.11.39,1.8Zm-4.53,0c0,.65.11,1.14.32,1.47s.56.5,1.04.5.82-.17,1.03-.5.31-.82.31-1.47-.11-1.13-.32-1.46-.56-.49-1.04-.49-.82.16-1.03.48-.32.81-.32,1.46Z"/><path class="cls-11" d="m557.87,99.33c-.77,0-1.37-.3-1.81-.9s-.66-1.43-.66-2.48.22-1.91.67-2.51,1.06-.9,1.85-.9c.82,0,1.45.32,1.89.96h.06c-.09-.49-.13-.92-.13-1.31v-2.1h1.79v9.12h-1.37l-.35-.85h-.08c-.41.64-1.03.97-1.86.97Zm.63-1.42c.46,0,.79-.13,1-.4s.33-.72.35-1.35v-.19c0-.7-.11-1.21-.33-1.51s-.57-.46-1.06-.46c-.4,0-.71.17-.93.51s-.33.83-.33,1.47.11,1.13.33,1.45.54.48.96.48Z"/><path class="cls-11" d="m569.34,95.92c0,1.07-.28,1.9-.84,2.5s-1.35.9-2.35.9c-.63,0-1.18-.14-1.66-.41s-.85-.67-1.11-1.19-.39-1.12-.39-1.8c0-1.07.28-1.9.84-2.5s1.34-.89,2.36-.89c.63,0,1.18.14,1.66.41s.85.67,1.11,1.18.39,1.11.39,1.8Zm-4.53,0c0,.65.11,1.14.32,1.47s.56.5,1.04.5.82-.17,1.03-.5.31-.82.31-1.47-.11-1.13-.32-1.46-.56-.49-1.04-.49-.82.16-1.03.48-.32.81-.32,1.46Z"/><path class="cls-11" d="m488.14,113.73c-.77,0-1.37-.28-1.81-.84h-.09c.06.55.09.86.09.95v2.65h-1.79v-9.43h1.45l.25.85h.08c.42-.65,1.04-.97,1.86-.97.77,0,1.38.3,1.82.9s.66,1.43.66,2.49c0,.7-.1,1.31-.31,1.82s-.5.91-.88,1.18-.82.4-1.34.4Zm-.53-5.36c-.44,0-.76.14-.97.41s-.31.72-.32,1.34v.19c0,.7.1,1.21.31,1.51s.54.46.99.46c.8,0,1.2-.66,1.2-1.98,0-.64-.1-1.13-.3-1.45s-.51-.48-.93-.48Z"/><path class="cls-11" d="m495.79,106.94c.24,0,.44.02.6.05l-.13,1.68c-.14-.04-.32-.06-.53-.06-.57,0-1.01.15-1.33.44s-.48.7-.48,1.23v3.33h-1.79v-6.55h1.35l.26,1.1h.09c.2-.37.48-.66.82-.89s.72-.34,1.13-.34Z"/><path class="cls-11" d="m503.53,110.32c0,1.07-.28,1.9-.84,2.5s-1.35.9-2.35.9c-.63,0-1.18-.14-1.66-.41s-.85-.67-1.11-1.19-.39-1.12-.39-1.8c0-1.07.28-1.9.84-2.5s1.34-.89,2.36-.89c.63,0,1.18.14,1.66.41s.85.67,1.11,1.18.39,1.11.39,1.8Zm-4.53,0c0,.65.11,1.14.32,1.47s.56.5,1.04.5.82-.17,1.03-.5.31-.82.31-1.47-.11-1.13-.32-1.46-.56-.49-1.04-.49-.82.16-1.03.48-.32.81-.32,1.46Z"/><path class="cls-11" d="m507.67,113.73c-2.04,0-3.06-1.12-3.06-3.36,0-1.11.28-1.96.83-2.55s1.35-.88,2.38-.88c.76,0,1.44.15,2.04.45l-.53,1.38c-.28-.11-.54-.21-.79-.28s-.48-.11-.73-.11c-.93,0-1.39.66-1.39,1.98s.46,1.92,1.39,1.92c.34,0,.66-.05.96-.14s.59-.24.88-.43v1.53c-.29.18-.58.31-.88.38s-.67.11-1.12.11Z"/><path class="cls-11" d="m514.14,113.73c-1.05,0-1.88-.29-2.47-.87s-.89-1.41-.89-2.47.27-1.95.82-2.55,1.31-.9,2.28-.9,1.65.26,2.16.79.77,1.26.77,2.19v.87h-4.22c.02.51.17.9.45,1.19s.68.43,1.18.43c.39,0,.77-.04,1.12-.12s.72-.21,1.1-.39v1.38c-.31.16-.65.27-1,.35s-.79.11-1.3.11Zm-.25-5.52c-.38,0-.68.12-.89.36s-.34.58-.37,1.02h2.51c0-.44-.12-.78-.35-1.02s-.52-.36-.9-.36Z"/><path class="cls-11" d="m522.84,111.66c0,.67-.23,1.18-.7,1.54s-1.17.53-2.09.53c-.48,0-.88-.03-1.22-.1s-.65-.16-.94-.28v-1.48c.33.16.71.29,1.12.39s.78.16,1.1.16c.65,0,.97-.19.97-.56,0-.14-.04-.25-.13-.34s-.23-.19-.45-.3-.49-.24-.84-.39c-.5-.21-.87-.41-1.11-.59s-.41-.39-.52-.62-.16-.52-.16-.86c0-.58.23-1.03.68-1.35s1.09-.48,1.92-.48,1.56.17,2.3.52l-.54,1.29c-.33-.14-.63-.26-.92-.35s-.58-.13-.87-.13c-.53,0-.79.14-.79.43,0,.16.08.3.25.42s.54.29,1.12.52c.51.21.89.4,1.12.58s.41.39.53.62.17.51.17.84Z"/><path class="cls-11" d="m528.81,111.66c0,.67-.23,1.18-.7,1.54s-1.17.53-2.09.53c-.48,0-.88-.03-1.22-.1s-.65-.16-.94-.28v-1.48c.33.16.71.29,1.12.39s.78.16,1.1.16c.65,0,.97-.19.97-.56,0-.14-.04-.25-.13-.34s-.23-.19-.45-.3-.49-.24-.84-.39c-.5-.21-.87-.41-1.11-.59s-.41-.39-.52-.62-.16-.52-.16-.86c0-.58.23-1.03.68-1.35s1.09-.48,1.92-.48,1.56.17,2.3.52l-.54,1.29c-.33-.14-.63-.26-.92-.35s-.58-.13-.87-.13c-.53,0-.79.14-.79.43,0,.16.08.3.25.42s.54.29,1.12.52c.51.21.89.4,1.12.58s.41.39.53.62.17.51.17.84Z"/><path class="cls-11" d="m536.15,110.32c0,1.07-.28,1.9-.84,2.5s-1.35.9-2.35.9c-.63,0-1.18-.14-1.66-.41s-.85-.67-1.11-1.19-.39-1.12-.39-1.8c0-1.07.28-1.9.84-2.5s1.34-.89,2.36-.89c.63,0,1.18.14,1.66.41s.85.67,1.11,1.18.39,1.11.39,1.8Zm-4.53,0c0,.65.11,1.14.32,1.47s.56.5,1.04.5.82-.17,1.03-.5.31-.82.31-1.47-.11-1.13-.32-1.46-.56-.49-1.04-.49-.82.16-1.03.48-.32.81-.32,1.46Z"/><path class="cls-11" d="m543.71,113.73c-1.05,0-1.88-.29-2.47-.87s-.89-1.41-.89-2.47.27-1.95.82-2.55,1.31-.9,2.28-.9,1.65.26,2.16.79.77,1.26.77,2.19v.87h-4.22c.02.51.17.9.45,1.19s.68.43,1.18.43c.39,0,.77-.04,1.12-.12s.72-.21,1.1-.39v1.38c-.31.16-.65.27-1,.35s-.79.11-1.3.11Zm-.25-5.52c-.38,0-.68.12-.89.36s-.34.58-.37,1.02h2.51c0-.44-.12-.78-.35-1.02s-.52-.36-.9-.36Z"/><path class="cls-11" d="m553.03,113.73c-.77,0-1.37-.3-1.81-.9s-.66-1.43-.66-2.48.22-1.91.67-2.51,1.06-.9,1.85-.9c.82,0,1.45.32,1.89.96h.06c-.09-.49-.13-.92-.13-1.31v-2.1h1.79v9.12h-1.37l-.35-.85h-.08c-.41.64-1.03.97-1.86.97Zm.63-1.42c.46,0,.79-.13,1-.4s.33-.72.35-1.35v-.19c0-.7-.11-1.21-.33-1.51s-.57-.46-1.06-.46c-.4,0-.71.17-.93.51s-.33.83-.33,1.47.11,1.13.33,1.45.54.48.96.48Z"/><path class="cls-11" d="m564.5,110.32c0,1.07-.28,1.9-.84,2.5s-1.35.9-2.35.9c-.63,0-1.18-.14-1.66-.41s-.85-.67-1.11-1.19-.39-1.12-.39-1.8c0-1.07.28-1.9.84-2.5s1.34-.89,2.36-.89c.63,0,1.18.14,1.66.41s.85.67,1.11,1.18.39,1.11.39,1.8Zm-4.53,0c0,.65.11,1.14.32,1.47s.56.5,1.04.5.82-.17,1.03-.5.31-.82.31-1.47-.11-1.13-.32-1.46-.56-.49-1.04-.49-.82.16-1.03.48-.32.81-.32,1.46Z"/><path class="cls-11" d="m570.55,111.66c0,.67-.23,1.18-.7,1.54s-1.17.53-2.09.53c-.48,0-.88-.03-1.22-.1s-.65-.16-.94-.28v-1.48c.33.16.71.29,1.12.39s.78.16,1.1.16c.65,0,.97-.19.97-.56,0-.14-.04-.25-.13-.34s-.23-.19-.45-.3-.49-.24-.84-.39c-.5-.21-.87-.41-1.11-.59s-.41-.39-.52-.62-.16-.52-.16-.86c0-.58.23-1.03.68-1.35s1.09-.48,1.92-.48,1.56.17,2.3.52l-.54,1.29c-.33-.14-.63-.26-.92-.35s-.58-.13-.87-.13c-.53,0-.79.14-.79.43,0,.16.08.3.25.42s.54.29,1.12.52c.51.21.89.4,1.12.58s.41.39.53.62.17.51.17.84Z"/><path class="cls-11" d="m488.19,121.34c.24,0,.44.02.6.05l-.13,1.68c-.14-.04-.32-.06-.53-.06-.57,0-1.01.15-1.33.44s-.48.7-.48,1.23v3.33h-1.79v-6.55h1.35l.26,1.1h.09c.2-.37.48-.66.82-.89s.72-.34,1.13-.34Z"/><path class="cls-11" d="m492.95,128.13c-1.05,0-1.88-.29-2.47-.87s-.89-1.41-.89-2.47.27-1.95.82-2.55,1.31-.9,2.28-.9,1.65.26,2.16.79.77,1.26.77,2.19v.87h-4.22c.02.51.17.9.45,1.19s.68.43,1.18.43c.39,0,.77-.04,1.12-.12s.72-.21,1.1-.39v1.38c-.31.16-.65.27-1,.35s-.79.11-1.3.11Zm-.25-5.52c-.38,0-.68.12-.89.36s-.34.58-.37,1.02h2.51c0-.44-.12-.78-.35-1.02s-.52-.36-.9-.36Z"/><path class="cls-11" d="m501.65,126.06c0,.67-.23,1.18-.7,1.54s-1.17.53-2.09.53c-.48,0-.88-.03-1.22-.1s-.65-.16-.94-.28v-1.48c.33.16.71.29,1.12.39s.78.16,1.1.16c.65,0,.97-.19.97-.56,0-.14-.04-.25-.13-.34s-.23-.19-.45-.3-.49-.24-.84-.39c-.5-.21-.87-.41-1.11-.59s-.41-.39-.52-.62-.16-.52-.16-.86c0-.58.23-1.03.68-1.35s1.09-.48,1.92-.48,1.56.17,2.3.52l-.54,1.29c-.33-.14-.63-.26-.92-.35s-.58-.13-.87-.13c-.53,0-.79.14-.79.43,0,.16.08.3.25.42s.54.29,1.12.52c.51.21.89.4,1.12.58s.41.39.53.62.17.51.17.84Z"/><path class="cls-11" d="m507.68,128.01l-.24-.84h-.09c-.19.3-.46.54-.81.71s-.75.25-1.2.25c-.77,0-1.35-.21-1.74-.62s-.59-1-.59-1.78v-4.27h1.79v3.83c0,.47.08.83.25,1.06s.44.35.8.35c.5,0,.86-.17,1.08-.5s.33-.89.33-1.66v-3.08h1.79v6.55h-1.37Z"/><path class="cls-11" d="m512.72,128.01h-1.79v-9.12h1.79v9.12Z"/><path class="cls-11" d="m517.35,126.7c.31,0,.69-.07,1.12-.21v1.33c-.45.2-.99.3-1.64.3-.71,0-1.24-.18-1.56-.54s-.49-.9-.49-1.63v-3.16h-.86v-.76l.98-.6.52-1.38h1.14v1.39h1.83v1.34h-1.83v3.16c0,.25.07.44.21.56s.33.18.57.18Z"/><path class="cls-11" d="m523.96,128.01l-.35-.89h-.05c-.3.38-.61.64-.93.79s-.73.22-1.25.22c-.63,0-1.12-.18-1.49-.54s-.54-.87-.54-1.54.24-1.21.73-1.54,1.22-.51,2.2-.55l1.14-.04v-.29c0-.66-.34-1-1.02-1-.52,0-1.14.16-1.85.47l-.59-1.21c.75-.39,1.59-.59,2.51-.59s1.55.19,2.02.57.7.96.7,1.75v4.37h-1.25Zm-.53-3.04l-.69.02c-.52.02-.91.11-1.16.28s-.38.43-.38.79c0,.5.29.76.87.76.41,0,.75-.12.99-.36s.37-.55.37-.95v-.54Z"/><path class="cls-11" d="m529.12,128.13c-.77,0-1.37-.3-1.81-.9s-.66-1.43-.66-2.48.22-1.91.67-2.51,1.06-.9,1.85-.9c.82,0,1.45.32,1.89.96h.06c-.09-.49-.13-.92-.13-1.31v-2.1h1.79v9.12h-1.37l-.35-.85h-.08c-.41.64-1.03.97-1.86.97Zm.63-1.42c.46,0,.79-.13,1-.4s.33-.72.35-1.35v-.19c0-.7-.11-1.21-.33-1.51s-.57-.46-1.06-.46c-.4,0-.71.17-.93.51s-.33.83-.33,1.47.11,1.13.33,1.45.54.48.96.48Z"/><path class="cls-11" d="m540.59,124.72c0,1.07-.28,1.9-.84,2.5s-1.35.9-2.35.9c-.63,0-1.18-.14-1.66-.41s-.85-.67-1.11-1.19-.39-1.12-.39-1.8c0-1.07.28-1.9.84-2.5s1.34-.89,2.36-.89c.63,0,1.18.14,1.66.41s.85.67,1.11,1.18.39,1.11.39,1.8Zm-4.53,0c0,.65.11,1.14.32,1.47s.56.5,1.04.5.82-.17,1.03-.5.31-.82.31-1.47-.11-1.13-.32-1.46-.56-.49-1.04-.49-.82.16-1.03.48-.32.81-.32,1.46Z"/><path class="cls-11" d="m546.64,126.06c0,.67-.23,1.18-.7,1.54s-1.17.53-2.09.53c-.48,0-.88-.03-1.22-.1s-.65-.16-.94-.28v-1.48c.33.16.71.29,1.12.39s.78.16,1.1.16c.65,0,.97-.19.97-.56,0-.14-.04-.25-.13-.34s-.23-.19-.45-.3-.49-.24-.84-.39c-.5-.21-.87-.41-1.11-.59s-.41-.39-.52-.62-.16-.52-.16-.86c0-.58.23-1.03.68-1.35s1.09-.48,1.92-.48,1.56.17,2.3.52l-.54,1.29c-.33-.14-.63-.26-.92-.35s-.58-.13-.87-.13c-.53,0-.79.14-.79.43,0,.16.08.3.25.42s.54.29,1.12.52c.51.21.89.4,1.12.58s.41.39.53.62.17.51.17.84Z"/></g></g><g id="Grupo_15080"><g id="Grupo_15072"><g class="cls-12"><g id="Grupo_15071"><path id="Caminho_24206" class="cls-15" d="m120.44-46.78L233.85-7.31l-36.03,103.54-113.41-39.47,36.03-103.54Z"/></g></g></g></g><g id="Grupo_15072-3"><g class="cls-8"><g id="Grupo_15071-3"><path id="Caminho_24206-3" class="cls-15" d="m425.94-46.78l113.41,39.47-36.03,103.54-113.41-39.47,36.03-103.54Z"/></g></g></g><g id="Grupo_15080-2"><g id="Grupo_15072-2"><g class="cls-6"><g id="Grupo_15071-2"><path id="Caminho_24206-2" class="cls-15" d="m291.89,268.94l113.43-39.45-36.02-103.55-113.43,39.45,36.02,103.55Z"/></g></g></g></g></g><g id="Grupo_15080-2-2"><g id="Grupo_15072-2-2"><g class="cls-14"><g id="Grupo_15071-2-2"><path id="Caminho_24206-2-2" class="cls-15" d="m280.05,23.93l113.43-39.45-36.02-103.55-113.43,39.45,36.02,103.55Z"/></g></g></g></g></svg>