<?xml version="1.0" encoding="UTF-8"?><svg id="Camada_1" xmlns="http://www.w3.org/2000/svg" xmlns:xlink="http://www.w3.org/1999/xlink" viewBox="0 0 675.96 224.54"><defs><style>.cls-1,.cls-2{fill:none;}.cls-3{clip-path:url(#clippath);}.cls-4{fill:#ecdccf;}.cls-5{fill:#ef6828;}.cls-6{fill:#fff;}.cls-7{fill:#abd1dc;}.cls-8{fill:#5795c0;}.cls-9{clip-path:url(#clippath-1);}.cls-2{stroke:#016dae;stroke-miterlimit:10;}</style><clipPath id="clippath"><path class="cls-1" d="m234.96,16.76l-2.9,6.89s-21.73-8.02-35.58,3.98l-8.52,14.71s12.98-18.48,38.39-6.23l-4.03,8.36c11.96-1.17,24.03-.82,35.9,1.04l-23.27-28.74h0Z"/></clipPath><clipPath id="clippath-1"><path class="cls-1" d="m234.96,207.78l-2.9-6.89s-21.73,8.02-35.58-3.98l-8.52-14.71s12.98,18.48,38.39,6.23l-4.03-8.36c11.96,1.17,24.03.82,35.9-1.04l-23.27,28.74h0Z"/></clipPath></defs><path id="Caminho_16186" class="cls-5" d="m461.35,113.75c0-4.91-.36-9.82-1.06-14.69l19.84,13.32-19.46,13.1c.46-3.89.69-7.81.68-11.74Z"/><rect class="cls-2" x="269.79" y="68" width="169.73" height="80.62"/><rect class="cls-7" x="278.99" y="75.93" width="169.73" height="80.62"/><path d="m288.85,111.69c-.44,0-.82-.05-1.14-.14v-1.61c.33.08.64.12.91.12.42,0,.73-.13.91-.4.18-.26.27-.68.27-1.24v-8.56h1.94v8.54c0,1.07-.24,1.88-.73,2.44-.49.56-1.21.84-2.16.84Z"/><path d="m298.32,109.01l-.37-.95h-.05c-.32.4-.65.68-.99.84s-.78.23-1.33.23c-.67,0-1.2-.19-1.58-.57-.39-.38-.58-.93-.58-1.64s.26-1.29.78-1.64c.52-.35,1.3-.55,2.35-.58l1.21-.04v-.31c0-.71-.36-1.06-1.09-1.06-.56,0-1.21.17-1.97.51l-.63-1.29c.8-.42,1.69-.63,2.67-.63s1.66.2,2.15.61c.5.41.75,1.03.75,1.86v4.65h-1.33Zm-.56-3.24l-.74.03c-.55.02-.97.12-1.24.3-.27.18-.41.46-.41.84,0,.54.31.81.92.81.44,0,.79-.13,1.06-.38s.4-.59.4-1.01v-.57Z"/><path d="m308.06,109.01h-1.91v-4.08c0-.5-.09-.88-.27-1.13-.18-.25-.46-.38-.86-.38-.53,0-.92.18-1.16.53s-.36.95-.36,1.77v3.29h-1.91v-6.98h1.46l.26.89h.11c.21-.34.5-.59.88-.77s.8-.26,1.27-.26c.81,0,1.43.22,1.85.66.42.44.63,1.07.63,1.9v4.55Z"/><path d="m313.18,109.13c-1.12,0-2-.31-2.64-.93-.63-.62-.95-1.5-.95-2.64s.29-2.07.88-2.71,1.39-.96,2.43-.96,1.76.28,2.31.84.82,1.34.82,2.33v.92h-4.5c.02.54.18.96.48,1.27.3.3.72.46,1.26.46.42,0,.82-.04,1.19-.13.37-.09.77-.23,1.17-.42v1.47c-.33.17-.69.29-1.07.37-.38.08-.84.12-1.39.12Zm-.27-5.88c-.4,0-.72.13-.95.38-.23.26-.36.62-.39,1.09h2.67c0-.47-.13-.83-.37-1.09-.24-.26-.56-.38-.96-.38Z"/><path d="m319.49,109.01h-1.91v-9.72h1.91v9.72Z"/><path d="m325.92,109.01l-.37-.95h-.05c-.32.4-.65.68-.99.84-.34.16-.78.23-1.33.23-.67,0-1.2-.19-1.58-.57-.39-.38-.58-.93-.58-1.64s.26-1.29.78-1.64c.52-.35,1.3-.55,2.35-.58l1.21-.04v-.31c0-.71-.36-1.06-1.09-1.06-.56,0-1.21.17-1.97.51l-.63-1.29c.8-.42,1.7-.63,2.67-.63s1.66.2,2.16.61c.5.41.75,1.03.75,1.86v4.65h-1.33Zm-.56-3.24l-.74.03c-.55.02-.97.12-1.24.3-.27.18-.41.46-.41.84,0,.54.31.81.92.81.44,0,.79-.13,1.06-.38s.4-.59.4-1.01v-.57Z"/><path d="m334.75,109.13c-.82,0-1.46-.32-1.93-.96-.47-.64-.7-1.52-.7-2.65s.24-2.04.72-2.68,1.13-.96,1.97-.96c.88,0,1.55.34,2.01,1.02h.06c-.1-.52-.14-.98-.14-1.39v-2.24h1.91v9.72h-1.46l-.37-.91h-.08c-.43.69-1.09,1.03-1.98,1.03Zm.67-1.52c.49,0,.84-.14,1.07-.42.23-.28.35-.76.37-1.44v-.21c0-.75-.12-1.29-.35-1.61-.23-.32-.61-.49-1.13-.49-.42,0-.75.18-.99.54-.24.36-.35.88-.35,1.57s.12,1.2.36,1.55c.24.34.58.52,1.02.52Z"/><path d="m343.79,109.13c-1.12,0-2-.31-2.64-.93-.63-.62-.95-1.5-.95-2.64s.29-2.07.88-2.71,1.39-.96,2.43-.96,1.76.28,2.3.84c.55.56.83,1.34.83,2.33v.92h-4.5c.02.54.18.96.48,1.27.3.3.72.46,1.26.46.42,0,.82-.04,1.19-.13s.77-.23,1.17-.42v1.47c-.33.17-.69.29-1.07.37-.38.08-.84.12-1.39.12Zm-.27-5.88c-.4,0-.72.13-.95.38-.23.26-.36.62-.39,1.09h2.67c0-.47-.13-.83-.37-1.09-.24-.26-.56-.38-.96-.38Z"/><path d="m357.86,105.5c0,1.14-.3,2.03-.9,2.67s-1.43.96-2.5.96c-.67,0-1.26-.15-1.77-.44-.51-.29-.91-.72-1.18-1.27-.28-.55-.41-1.19-.41-1.92,0-1.14.3-2.03.89-2.66.6-.63,1.43-.95,2.51-.95.67,0,1.26.15,1.77.44.51.29.91.71,1.18,1.26s.41,1.18.41,1.92Zm-4.83,0c0,.69.11,1.21.34,1.57.23.35.6.53,1.11.53s.87-.18,1.1-.53c.22-.35.33-.88.33-1.57s-.11-1.21-.34-1.56-.59-.52-1.11-.52-.88.17-1.1.52c-.22.34-.34.86-.34,1.56Z"/><path d="m363.27,109.13c-.82,0-1.46-.3-1.93-.89h-.1c.07.58.1.92.1,1.01v2.83h-1.91v-10.06h1.55l.27.91h.09c.45-.69,1.11-1.04,1.98-1.04.82,0,1.47.32,1.94.96.47.64.7,1.52.7,2.65,0,.75-.11,1.39-.33,1.94-.22.55-.53.97-.93,1.26-.4.29-.88.43-1.42.43Zm-.56-5.72c-.47,0-.81.15-1.03.43-.22.29-.33.77-.34,1.43v.21c0,.75.11,1.29.33,1.61.22.32.58.49,1.06.49.85,0,1.28-.7,1.28-2.11,0-.69-.11-1.2-.32-1.55-.21-.34-.54-.52-.99-.52Z"/><path d="m373.87,105.5c0,1.14-.3,2.03-.9,2.67s-1.43.96-2.5.96c-.67,0-1.26-.15-1.77-.44-.51-.29-.91-.72-1.18-1.27-.28-.55-.41-1.19-.41-1.92,0-1.14.3-2.03.89-2.66.6-.63,1.43-.95,2.51-.95.67,0,1.26.15,1.77.44.51.29.91.71,1.18,1.26s.41,1.18.41,1.92Zm-4.83,0c0,.69.11,1.21.34,1.57.23.35.6.53,1.11.53s.87-.18,1.1-.53c.22-.35.33-.88.33-1.57s-.11-1.21-.34-1.56-.59-.52-1.11-.52-.88.17-1.1.52c-.22.34-.34.86-.34,1.56Z"/><path d="m379.35,101.89c.26,0,.47.02.64.06l-.14,1.79c-.15-.04-.34-.06-.56-.06-.61,0-1.08.16-1.42.47-.34.31-.51.75-.51,1.31v3.55h-1.91v-6.98h1.44l.28,1.17h.09c.22-.39.51-.71.88-.95.37-.24.77-.36,1.2-.36Z"/><path d="m384.2,107.61c.33,0,.73-.07,1.2-.22v1.42c-.47.21-1.06.32-1.75.32-.76,0-1.32-.19-1.66-.58-.35-.39-.52-.96-.52-1.73v-3.37h-.91v-.81l1.05-.64.55-1.47h1.22v1.49h1.96v1.43h-1.96v3.37c0,.27.08.47.23.6.15.13.35.19.6.19Z"/><path d="m391.76,109.01l-.26-.89h-.1c-.2.32-.49.58-.87.75-.38.18-.8.27-1.28.27-.82,0-1.44-.22-1.85-.66-.42-.44-.62-1.07-.62-1.9v-4.55h1.91v4.08c0,.5.09.88.27,1.13s.46.38.86.38c.53,0,.92-.18,1.16-.53.24-.36.36-.95.36-1.77v-3.29h1.91v6.98h-1.46Z"/><path d="m401.67,109.01h-1.91v-4.08c0-.5-.09-.88-.27-1.13-.18-.25-.46-.38-.86-.38-.53,0-.92.18-1.16.53s-.36.95-.36,1.77v3.29h-1.91v-6.98h1.46l.26.89h.11c.21-.34.5-.59.88-.77.37-.17.8-.26,1.27-.26.81,0,1.43.22,1.85.66.42.44.63,1.07.63,1.9v4.55Z"/><path d="m403.55,100.22c0-.62.35-.93,1.04-.93s1.04.31,1.04.93c0,.3-.09.53-.26.69s-.43.25-.78.25c-.69,0-1.04-.31-1.04-.94Zm1.99,8.79h-1.91v-6.98h1.91v6.98Z"/><path d="m409.74,109.13c-.82,0-1.46-.32-1.93-.96-.47-.64-.7-1.52-.7-2.65s.24-2.04.72-2.68,1.13-.96,1.97-.96c.88,0,1.55.34,2.01,1.02h.06c-.1-.52-.14-.98-.14-1.39v-2.24h1.91v9.72h-1.46l-.37-.91h-.08c-.43.69-1.09,1.03-1.98,1.03Zm.67-1.52c.49,0,.84-.14,1.07-.42.23-.28.35-.76.37-1.44v-.21c0-.75-.12-1.29-.35-1.61-.23-.32-.61-.49-1.13-.49-.42,0-.75.18-.99.54-.24.36-.35.88-.35,1.57s.12,1.2.36,1.55c.24.34.58.52,1.02.52Z"/><path d="m420.06,109.01l-.37-.95h-.05c-.32.4-.65.68-.99.84-.34.16-.78.23-1.33.23-.67,0-1.2-.19-1.58-.57-.39-.38-.58-.93-.58-1.64s.26-1.29.78-1.64c.52-.35,1.3-.55,2.35-.58l1.21-.04v-.31c0-.71-.36-1.06-1.09-1.06-.56,0-1.21.17-1.97.51l-.63-1.29c.8-.42,1.7-.63,2.67-.63s1.66.2,2.16.61c.5.41.75,1.03.75,1.86v4.65h-1.33Zm-.56-3.24l-.74.03c-.55.02-.97.12-1.24.3-.27.18-.41.46-.41.84,0,.54.31.81.92.81.44,0,.79-.13,1.06-.38s.4-.59.4-1.01v-.57Z"/><path d="m425.57,109.13c-.82,0-1.46-.32-1.93-.96-.47-.64-.7-1.52-.7-2.65s.24-2.04.72-2.68,1.13-.96,1.97-.96c.88,0,1.55.34,2.01,1.02h.06c-.1-.52-.14-.98-.14-1.39v-2.24h1.91v9.72h-1.46l-.37-.91h-.08c-.43.69-1.09,1.03-1.98,1.03Zm.67-1.52c.49,0,.84-.14,1.07-.42.23-.28.35-.76.37-1.44v-.21c0-.75-.12-1.29-.35-1.61-.23-.32-.61-.49-1.13-.49-.42,0-.75.18-.99.54-.24.36-.35.88-.35,1.57s.12,1.2.36,1.55c.24.34.58.52,1.02.52Z"/><path d="m434.61,109.13c-1.12,0-2-.31-2.64-.93-.63-.62-.95-1.5-.95-2.64s.29-2.07.88-2.71,1.39-.96,2.43-.96,1.76.28,2.3.84c.55.56.83,1.34.83,2.33v.92h-4.5c.02.54.18.96.48,1.27.3.3.72.46,1.26.46.42,0,.82-.04,1.19-.13s.77-.23,1.17-.42v1.47c-.33.17-.69.29-1.07.37-.38.08-.84.12-1.39.12Zm-.27-5.88c-.4,0-.72.13-.95.38-.23.26-.36.62-.39,1.09h2.67c0-.47-.13-.83-.37-1.09-.24-.26-.56-.38-.96-.38Z"/><path d="m299.22,116.04c-1,0-1.8.33-2.38,1s-.87,1.58-.87,2.75.28,2.12.84,2.77,1.36.98,2.4.98c.64,0,1.36-.11,2.18-.34v.93c-.63.24-1.41.36-2.34.36-1.34,0-2.38-.41-3.11-1.22-.73-.82-1.1-1.98-1.1-3.48,0-.94.18-1.77.53-2.47s.86-1.25,1.52-1.64c.66-.38,1.45-.57,2.35-.57.96,0,1.79.17,2.51.52l-.45.91c-.69-.33-1.38-.49-2.07-.49Z"/><path d="m309.13,120.93c0,1.12-.28,1.99-.84,2.61-.56.63-1.34.94-2.33.94-.61,0-1.16-.14-1.63-.43s-.84-.7-1.1-1.24c-.26-.54-.39-1.17-.39-1.89,0-1.12.28-1.99.84-2.61s1.33-.93,2.32-.93,1.72.32,2.28.96c.56.64.85,1.5.85,2.59Zm-5.22,0c0,.87.17,1.54.52,2,.35.46.86.69,1.54.69s1.19-.23,1.55-.68.53-1.12.53-2-.18-1.53-.53-1.98c-.35-.45-.87-.68-1.56-.68s-1.19.22-1.54.67-.52,1.11-.52,1.99Z"/><path d="m315.63,124.36v-4.43c0-.56-.13-.97-.38-1.25-.25-.27-.65-.41-1.19-.41-.72,0-1.24.19-1.57.58-.33.39-.5,1.03-.5,1.92v3.59h-1.04v-6.85h.84l.17.94h.05c.21-.34.51-.6.89-.78.38-.19.81-.28,1.28-.28.82,0,1.45.2,1.86.6.42.4.62,1.03.62,1.91v4.47h-1.04Z"/><path d="m320.3,124.36l-2.6-6.85h1.11l1.47,4.06c.33.95.53,1.57.59,1.85h.05c.04-.22.19-.68.43-1.37.24-.69.79-2.21,1.64-4.54h1.11l-2.6,6.85h-1.21Z"/><path d="m328.1,124.48c-1.01,0-1.81-.31-2.4-.92-.58-.62-.88-1.47-.88-2.57s.27-1.98.81-2.63c.54-.65,1.27-.97,2.19-.97.86,0,1.54.28,2.04.85.5.56.75,1.31.75,2.23v.66h-4.72c.02.8.22,1.41.61,1.83.39.42.93.62,1.63.62.74,0,1.47-.15,2.19-.46v.92c-.37.16-.71.27-1.04.34-.33.07-.72.1-1.18.1Zm-.28-6.23c-.55,0-.99.18-1.31.54-.33.36-.52.85-.58,1.49h3.58c0-.65-.15-1.15-.44-1.5-.29-.35-.71-.52-1.25-.52Z"/><path d="m335.51,117.39c.3,0,.58.02.82.08l-.14.96c-.28-.06-.53-.09-.75-.09-.55,0-1.03.22-1.42.67-.39.45-.59,1.01-.59,1.68v3.67h-1.04v-6.85h.86l.12,1.27h.05c.25-.45.56-.79.92-1.03.36-.24.75-.36,1.18-.36Z"/><path d="m343.21,117.51v.66l-1.27.15c.12.15.22.34.31.57.09.24.14.5.14.8,0,.67-.23,1.21-.69,1.61-.46.4-1.09.6-1.89.6-.2,0-.4-.02-.57-.05-.44.23-.66.53-.66.88,0,.19.08.33.23.42.15.09.42.13.79.13h1.21c.74,0,1.31.16,1.71.47s.6.77.6,1.36c0,.76-.3,1.34-.91,1.73-.61.4-1.5.6-2.66.6-.9,0-1.59-.17-2.07-.5-.49-.33-.73-.8-.73-1.41,0-.42.13-.78.4-1.08.27-.3.64-.51,1.12-.62-.17-.08-.32-.2-.44-.37-.12-.17-.18-.36-.18-.58,0-.25.07-.47.2-.66.13-.19.34-.37.63-.54-.35-.15-.64-.39-.87-.74-.22-.35-.33-.75-.33-1.2,0-.75.22-1.33.67-1.73.45-.41,1.09-.61,1.91-.61.36,0,.68.04.97.12h2.37Zm-5.46,8c0,.37.16.65.47.84.31.19.76.29,1.34.29.87,0,1.51-.13,1.93-.39.42-.26.63-.61.63-1.06,0-.37-.11-.63-.34-.77-.23-.14-.66-.22-1.29-.22h-1.24c-.47,0-.84.11-1.1.34-.26.22-.39.55-.39.97Zm.56-5.8c0,.48.13.84.41,1.09.27.25.65.37,1.13.37,1.01,0,1.52-.49,1.52-1.47s-.51-1.54-1.54-1.54c-.49,0-.86.13-1.12.39-.26.26-.39.65-.39,1.17Z"/><path d="m347.51,124.48c-1.01,0-1.81-.31-2.4-.92-.58-.62-.88-1.47-.88-2.57s.27-1.98.81-2.63c.54-.65,1.27-.97,2.19-.97.86,0,1.54.28,2.04.85.5.56.75,1.31.75,2.23v.66h-4.72c.02.8.22,1.41.61,1.83.39.42.93.62,1.63.62.74,0,1.47-.15,2.19-.46v.92c-.37.16-.71.27-1.04.34-.33.07-.72.1-1.18.1Zm-2.37-8.02c.53-.57.9-.98,1.11-1.25.21-.27.37-.48.46-.66h1.04c.09.17.25.4.48.68.23.28.6.69,1.12,1.23v.14h-.74c-.37-.23-.83-.62-1.38-1.16-.57.56-1.02.95-1.37,1.16h-.72v-.14Zm2.09,1.79c-.55,0-.99.18-1.31.54-.33.36-.52.85-.58,1.49h3.58c0-.65-.15-1.15-.44-1.5-.29-.35-.71-.52-1.25-.52Z"/><path d="m356.48,124.36v-4.43c0-.56-.13-.97-.38-1.25s-.65-.41-1.19-.41c-.72,0-1.24.19-1.57.58s-.5,1.03-.5,1.92v3.59h-1.04v-6.85h.84l.17.94h.05c.21-.34.51-.6.89-.78.38-.19.81-.28,1.28-.28.82,0,1.45.2,1.86.6.42.4.62,1.03.62,1.91v4.47h-1.04Z"/><path d="m362.38,124.48c-.99,0-1.76-.3-2.3-.92-.54-.61-.81-1.47-.81-2.59s.28-2.03.83-2.65,1.34-.94,2.36-.94c.33,0,.66.04.99.11s.59.15.78.25l-.32.88c-.23-.09-.48-.17-.75-.23-.27-.06-.51-.09-.72-.09-1.39,0-2.09.89-2.09,2.66,0,.84.17,1.49.51,1.94.34.45.84.67,1.51.67.57,0,1.16-.12,1.75-.37v.92c-.46.24-1.04.36-1.73.36Z"/><path d="m365.65,115.66c0-.24.06-.41.17-.52.12-.11.26-.17.44-.17s.31.06.43.17c.12.11.18.29.18.52s-.06.41-.18.52c-.12.11-.26.17-.43.17s-.32-.06-.44-.17c-.12-.11-.17-.29-.17-.52Zm1.12,8.7h-1.04v-6.85h1.04v6.85Z"/><path d="m373.18,124.36l-.21-.97h-.05c-.34.43-.68.72-1.02.87-.34.15-.76.23-1.27.23-.68,0-1.21-.17-1.6-.52-.39-.35-.58-.85-.58-1.49,0-1.38,1.11-2.11,3.32-2.17l1.16-.04v-.42c0-.54-.12-.93-.35-1.19-.23-.26-.6-.38-1.11-.38-.57,0-1.22.18-1.94.52l-.32-.79c.34-.18.71-.33,1.11-.43.4-.1.8-.16,1.21-.16.82,0,1.42.18,1.81.54s.59.94.59,1.74v4.67h-.77Zm-2.34-.73c.65,0,1.15-.18,1.52-.53.37-.35.55-.85.55-1.49v-.62l-1.04.04c-.82.03-1.42.16-1.78.38s-.55.58-.55,1.06c0,.38.11.66.34.86.23.2.54.29.95.29Z"/><path d="m384.07,123.44h-.06c-.48.7-1.2,1.04-2.15,1.04-.9,0-1.59-.31-2.09-.92-.5-.61-.75-1.48-.75-2.61s.25-2.01.75-2.63,1.2-.94,2.09-.94,1.64.34,2.14,1.01h.08l-.04-.49-.02-.48v-2.79h1.04v9.72h-.84l-.14-.92Zm-2.07.17c.71,0,1.22-.19,1.54-.58.32-.38.48-1.01.48-1.86v-.22c0-.97-.16-1.66-.48-2.08-.32-.41-.84-.62-1.55-.62-.61,0-1.07.24-1.4.71-.32.47-.48,1.14-.48,2s.16,1.53.48,1.98c.32.45.79.67,1.41.67Z"/><path d="m390.14,124.48c-1.01,0-1.81-.31-2.4-.92-.58-.62-.88-1.47-.88-2.57s.27-1.98.81-2.63c.54-.65,1.27-.97,2.19-.97.86,0,1.54.28,2.04.85.5.56.75,1.31.75,2.23v.66h-4.72c.02.8.22,1.41.61,1.83.39.42.93.62,1.63.62.74,0,1.47-.15,2.19-.46v.92c-.37.16-.71.27-1.04.34-.33.07-.72.1-1.18.1Zm-.28-6.23c-.55,0-.99.18-1.31.54-.33.36-.52.85-.58,1.49h3.58c0-.65-.15-1.15-.44-1.5-.29-.35-.71-.52-1.25-.52Z"/><path d="m400.83,118.32h-1.74v6.04h-1.04v-6.04h-1.22v-.47l1.22-.38v-.38c0-1.68.74-2.52,2.21-2.52.36,0,.79.07,1.27.22l-.27.83c-.4-.13-.74-.19-1.02-.19-.39,0-.68.13-.87.39s-.28.68-.28,1.25v.44h1.74v.81Zm2.29,6.04h-1.04v-9.72h1.04v9.72Z"/><path d="m406.29,117.51v4.44c0,.56.13.97.38,1.25.25.27.65.41,1.19.41.72,0,1.24-.2,1.57-.59.33-.39.5-1.03.5-1.92v-3.6h1.04v6.85h-.86l-.15-.92h-.06c-.21.34-.51.6-.88.77s-.81.27-1.29.27c-.83,0-1.46-.2-1.87-.59-.41-.4-.62-1.03-.62-1.9v-4.48h1.05Z"/><path d="m414.82,120.85l-2.38-3.34h1.18l1.81,2.62,1.8-2.62h1.17l-2.38,3.34,2.5,3.5h-1.17l-1.92-2.77-1.94,2.77h-1.17l2.5-3.5Z"/><path d="m425.78,120.93c0,1.12-.28,1.99-.84,2.61-.56.63-1.34.94-2.33.94-.61,0-1.16-.14-1.63-.43s-.84-.7-1.1-1.24c-.26-.54-.39-1.17-.39-1.89,0-1.12.28-1.99.84-2.61.56-.62,1.33-.93,2.32-.93s1.72.32,2.28.96c.56.64.85,1.5.85,2.59Zm-5.22,0c0,.87.17,1.54.52,2,.35.46.86.69,1.54.69s1.19-.23,1.55-.68.53-1.12.53-2-.18-1.53-.53-1.98c-.35-.45-.87-.68-1.56-.68s-1.19.22-1.54.67-.52,1.11-.52,1.99Z"/><path d="m432.01,122.49c0,.64-.24,1.13-.71,1.47s-1.14.52-2,.52c-.91,0-1.62-.14-2.12-.43v-.96c.33.17.68.3,1.06.39s.74.14,1.09.14c.54,0,.96-.09,1.25-.26.29-.17.44-.44.44-.79,0-.27-.12-.49-.35-.68-.23-.19-.68-.41-1.35-.67-.64-.24-1.09-.44-1.36-.62-.27-.18-.47-.38-.6-.6-.13-.23-.2-.49-.2-.81,0-.56.23-1,.68-1.32s1.08-.48,1.87-.48c.74,0,1.46.15,2.16.45l-.37.84c-.69-.28-1.31-.42-1.87-.42-.49,0-.86.08-1.11.23-.25.15-.37.37-.37.64,0,.18.05.34.14.47.09.13.24.25.45.37s.61.29,1.2.51c.81.3,1.36.59,1.65.89.29.3.43.68.43,1.13Z"/><rect class="cls-8" x="518.68" y="47.12" width="130.3" height="130.3" transform="translate(250.39 -379.95) rotate(45)"/><path class="cls-6" d="m519.02,110.73h-5.09v-9.13h5.09v.94h-4.03v2.94h3.79v.94h-3.79v3.36h4.03v.95Z"/><path class="cls-6" d="m525.57,110.73v-4.43c0-.56-.13-.97-.38-1.25-.25-.28-.65-.41-1.19-.41-.72,0-1.24.19-1.57.58-.33.39-.5,1.03-.5,1.92v3.59h-1.04v-6.85h.84l.17.94h.05c.21-.34.51-.6.89-.78.38-.19.81-.28,1.28-.28.82,0,1.45.2,1.86.6s.62,1.03.62,1.91v4.47h-1.04Z"/><path class="cls-6" d="m530.95,110c.18,0,.36-.01.53-.04.17-.03.31-.05.41-.08v.79c-.11.05-.28.1-.5.13s-.42.05-.59.05c-1.32,0-1.99-.7-1.99-2.09v-4.07h-.98v-.5l.98-.43.44-1.46h.6v1.59h1.99v.81h-1.99v4.03c0,.41.1.73.29.95.2.22.46.33.81.33Z"/><path class="cls-6" d="m536.38,103.76c.3,0,.58.02.82.08l-.14.96c-.28-.06-.53-.09-.75-.09-.55,0-1.03.22-1.42.67-.39.45-.59,1.01-.59,1.68v3.67h-1.04v-6.85h.86l.12,1.27h.05c.25-.45.56-.79.92-1.03.36-.24.75-.36,1.18-.36Z"/><path class="cls-6" d="m542.69,110.73l-.21-.97h-.05c-.34.43-.68.72-1.02.87-.34.15-.76.23-1.27.23-.68,0-1.21-.17-1.6-.52-.38-.35-.58-.85-.58-1.49,0-1.38,1.11-2.11,3.32-2.17l1.16-.04v-.42c0-.54-.12-.93-.35-1.19-.23-.26-.6-.38-1.11-.38-.57,0-1.22.17-1.94.52l-.32-.79c.34-.18.71-.33,1.11-.43.4-.1.8-.16,1.21-.16.82,0,1.42.18,1.81.54.39.36.59.94.59,1.74v4.67h-.77Zm-2.34-.73c.64,0,1.15-.18,1.52-.53.37-.35.55-.85.55-1.49v-.62l-1.04.04c-.83.03-1.42.16-1.78.38-.36.23-.55.58-.55,1.06,0,.38.11.66.34.86.23.2.54.29.95.29Z"/><path class="cls-6" d="m550.25,109.81h-.06c-.48.7-1.2,1.04-2.15,1.04-.9,0-1.59-.31-2.09-.92-.5-.61-.75-1.48-.75-2.61s.25-2,.75-2.63c.5-.62,1.2-.94,2.09-.94s1.64.34,2.14,1.01h.08l-.04-.49-.02-.48v-2.79h1.04v9.72h-.84l-.14-.92Zm-2.07.17c.71,0,1.22-.19,1.54-.58.32-.38.48-1.01.48-1.86v-.22c0-.97-.16-1.66-.48-2.08-.32-.41-.84-.62-1.55-.62-.61,0-1.07.24-1.4.71-.32.47-.48,1.14-.48,2s.16,1.53.48,1.98c.32.45.79.67,1.41.67Z"/><path class="cls-6" d="m557.64,110.73l-.21-.97h-.05c-.34.43-.68.72-1.02.87-.34.15-.76.23-1.27.23-.68,0-1.21-.17-1.6-.52-.39-.35-.58-.85-.58-1.49,0-1.38,1.11-2.11,3.32-2.17l1.16-.04v-.42c0-.54-.12-.93-.35-1.19-.23-.26-.6-.38-1.11-.38-.57,0-1.22.17-1.94.52l-.32-.79c.34-.18.71-.33,1.11-.43.4-.1.8-.16,1.21-.16.82,0,1.42.18,1.81.54s.59.94.59,1.74v4.67h-.77Zm-2.34-.73c.65,0,1.15-.18,1.52-.53.37-.35.55-.85.55-1.49v-.62l-1.04.04c-.82.03-1.42.16-1.78.38-.36.23-.55.58-.55,1.06,0,.38.11.66.34.86.23.2.54.29.95.29Z"/><path class="cls-6" d="m568.53,109.81h-.06c-.48.7-1.2,1.04-2.15,1.04-.9,0-1.59-.31-2.09-.92-.5-.61-.75-1.48-.75-2.61s.25-2,.75-2.63c.5-.62,1.2-.94,2.09-.94s1.64.34,2.14,1.01h.08l-.04-.49-.02-.48v-2.79h1.04v9.72h-.84l-.14-.92Zm-2.07.17c.71,0,1.22-.19,1.54-.58.32-.38.48-1.01.48-1.86v-.22c0-.97-.16-1.66-.48-2.08-.32-.41-.84-.62-1.55-.62-.61,0-1.07.24-1.4.71-.32.47-.48,1.14-.48,2s.16,1.53.48,1.98c.32.45.79.67,1.41.67Z"/><path class="cls-6" d="m574.6,110.86c-1.01,0-1.81-.31-2.4-.92-.58-.62-.88-1.47-.88-2.57s.27-1.98.81-2.63c.54-.65,1.27-.97,2.19-.97.86,0,1.54.28,2.04.85.5.56.75,1.31.75,2.23v.66h-4.72c.02.8.22,1.41.61,1.83.39.42.93.62,1.63.62.74,0,1.47-.15,2.19-.46v.92c-.37.16-.71.27-1.04.34-.33.07-.72.1-1.18.1Zm-.28-6.23c-.55,0-.99.18-1.31.54s-.52.85-.58,1.49h3.58c0-.65-.15-1.15-.44-1.5-.29-.35-.71-.52-1.25-.52Z"/><path class="cls-6" d="m583.18,103.88v4.44c0,.56.13.97.38,1.25.25.27.65.41,1.19.41.72,0,1.24-.2,1.57-.59s.5-1.03.5-1.92v-3.6h1.04v6.85h-.86l-.15-.92h-.06c-.21.34-.51.6-.88.77s-.81.27-1.29.27c-.83,0-1.46-.2-1.87-.59-.41-.4-.62-1.03-.62-1.9v-4.48h1.05Z"/><path class="cls-6" d="m598.78,110.73v-4.45c0-.55-.12-.96-.35-1.23-.23-.27-.6-.41-1.09-.41-.65,0-1.12.19-1.43.56-.31.37-.46.94-.46,1.71v3.82h-1.04v-4.45c0-.55-.12-.96-.35-1.23-.23-.27-.6-.41-1.09-.41-.65,0-1.13.19-1.43.58s-.45,1.03-.45,1.91v3.59h-1.04v-6.85h.84l.17.94h.05c.2-.33.47-.59.83-.78.36-.19.75-.28,1.2-.28,1.07,0,1.77.39,2.1,1.16h.05c.2-.36.5-.64.89-.85.39-.21.83-.31,1.32-.31.77,0,1.35.2,1.74.6.38.4.58,1.03.58,1.91v4.47h-1.04Z"/><path class="cls-6" d="m607.49,110c.18,0,.36-.01.53-.04.17-.03.31-.05.41-.08v.79c-.11.05-.28.1-.5.13s-.42.05-.59.05c-1.32,0-1.99-.7-1.99-2.09v-4.07h-.98v-.5l.98-.43.44-1.46h.6v1.59h1.99v.81h-1.99v4.03c0,.41.1.73.29.95.2.22.46.33.81.33Z"/><path class="cls-6" d="m612.69,110.86c-1.01,0-1.81-.31-2.4-.92-.58-.62-.88-1.47-.88-2.57s.27-1.98.81-2.63c.54-.65,1.27-.97,2.19-.97.86,0,1.54.28,2.04.85.5.56.75,1.31.75,2.23v.66h-4.72c.02.8.22,1.41.61,1.83.39.42.93.62,1.63.62.74,0,1.47-.15,2.19-.46v.92c-.37.16-.71.27-1.04.34-.33.07-.72.1-1.18.1Zm-.28-6.23c-.55,0-.99.18-1.31.54s-.52.85-.58,1.49h3.58c0-.65-.15-1.15-.44-1.5-.29-.35-.71-.52-1.25-.52Z"/><path class="cls-6" d="m625.7,110.73v-4.45c0-.55-.12-.96-.35-1.23-.23-.27-.6-.41-1.09-.41-.65,0-1.12.19-1.43.56-.31.37-.46.94-.46,1.71v3.82h-1.04v-4.45c0-.55-.12-.96-.35-1.23-.23-.27-.6-.41-1.09-.41-.65,0-1.13.19-1.43.58s-.45,1.03-.45,1.91v3.59h-1.04v-6.85h.84l.17.94h.05c.2-.33.47-.59.83-.78.36-.19.75-.28,1.2-.28,1.07,0,1.77.39,2.1,1.16h.05c.2-.36.5-.64.89-.85.39-.21.83-.31,1.32-.31.77,0,1.35.2,1.74.6.38.4.58,1.03.58,1.91v4.47h-1.04Z"/><path class="cls-6" d="m633.08,110.73l-.21-.97h-.05c-.34.43-.68.72-1.02.87-.34.15-.76.23-1.27.23-.68,0-1.21-.17-1.6-.52-.39-.35-.58-.85-.58-1.49,0-1.38,1.11-2.11,3.32-2.17l1.16-.04v-.42c0-.54-.12-.93-.35-1.19-.23-.26-.6-.38-1.11-.38-.57,0-1.22.17-1.94.52l-.32-.79c.34-.18.71-.33,1.11-.43.4-.1.8-.16,1.21-.16.82,0,1.42.18,1.81.54s.59.94.59,1.74v4.67h-.77Zm-2.34-.73c.65,0,1.15-.18,1.52-.53.37-.35.55-.85.55-1.49v-.62l-1.04.04c-.82.03-1.42.16-1.78.38-.36.23-.55.58-.55,1.06,0,.38.11.66.34.86.23.2.54.29.95.29Z"/><path class="cls-6" d="m644,110.73v-4.43c0-.56-.13-.97-.38-1.25-.25-.28-.65-.41-1.19-.41-.72,0-1.24.19-1.57.58-.33.39-.5,1.03-.5,1.92v3.59h-1.04v-6.85h.84l.17.94h.05c.21-.34.51-.6.89-.78.38-.19.81-.28,1.28-.28.82,0,1.45.2,1.86.6.42.4.62,1.03.62,1.91v4.47h-1.04Z"/><path class="cls-6" d="m651.37,110.73l-.21-.97h-.05c-.34.43-.68.72-1.02.87-.34.15-.76.23-1.27.23-.68,0-1.21-.17-1.6-.52-.39-.35-.58-.85-.58-1.49,0-1.38,1.11-2.11,3.32-2.17l1.16-.04v-.42c0-.54-.12-.93-.35-1.19-.23-.26-.6-.38-1.11-.38-.57,0-1.22.17-1.94.52l-.32-.79c.34-.18.71-.33,1.11-.43.4-.1.8-.16,1.21-.16.82,0,1.42.18,1.81.54s.59.94.59,1.74v4.67h-.77Zm-2.34-.73c.65,0,1.15-.18,1.52-.53.37-.35.55-.85.55-1.49v-.62l-1.04.04c-.82.03-1.42.16-1.78.38-.36.23-.55.58-.55,1.06,0,.38.11.66.34.86.23.2.54.29.95.29Z"/><path class="cls-6" d="m519.07,126.08l-.66-2.17h-3.33l-.66,2.17h-2.09l3.22-9.17h2.37l3.24,9.17h-2.09Zm-1.12-3.8c-.61-1.97-.96-3.08-1.03-3.34-.08-.26-.13-.46-.17-.61-.14.53-.53,1.85-1.18,3.95h2.38Z"/><path class="cls-6" d="m525.78,120.95h3.62v4.74c-.59.19-1.14.33-1.66.4s-1.05.12-1.59.12c-1.38,0-2.43-.41-3.16-1.21-.73-.81-1.09-1.97-1.09-3.49s.42-2.62,1.26-3.45c.84-.82,2.01-1.24,3.51-1.24.94,0,1.84.19,2.71.56l-.64,1.55c-.67-.33-1.36-.5-2.08-.5-.84,0-1.51.28-2.01.84-.5.56-.76,1.32-.76,2.27s.2,1.75.61,2.27,1,.78,1.77.78c.4,0,.81-.04,1.23-.12v-1.9h-1.73v-1.61Z"/><path class="cls-6" d="m536.83,126.08h-5.26v-9.13h5.26v1.59h-3.32v2h3.09v1.59h-3.09v2.35h3.32v1.6Z"/><path class="cls-6" d="m546.84,126.08h-2.46l-3.97-6.91h-.06c.08,1.22.12,2.09.12,2.61v4.3h-1.73v-9.13h2.44l3.97,6.84h.04c-.06-1.19-.09-2.03-.09-2.52v-4.32h1.74v9.13Z"/><path class="cls-6" d="m556.72,121.43c0,1.5-.43,2.66-1.28,3.46-.86.8-2.09,1.2-3.71,1.2h-2.59v-9.13h2.87c1.49,0,2.65.39,3.47,1.18.83.79,1.24,1.89,1.24,3.3Zm-2.01.05c0-1.96-.87-2.94-2.6-2.94h-1.03v5.95h.83c1.87,0,2.8-1,2.8-3Z"/><path class="cls-6" d="m564.2,126.08l-.66-2.17h-3.33l-.66,2.17h-2.09l3.22-9.17h2.37l3.24,9.17h-2.09Zm-1.12-3.8c-.61-1.97-.96-3.08-1.03-3.34-.08-.26-.13-.46-.17-.61-.14.53-.53,1.85-1.18,3.95h2.38Z"/><path class="cls-6" d="m578.33,121.43c0,1.5-.43,2.66-1.28,3.46-.86.8-2.09,1.2-3.71,1.2h-2.59v-9.13h2.87c1.49,0,2.65.39,3.47,1.18.83.79,1.24,1.89,1.24,3.3Zm-2.01.05c0-1.96-.87-2.94-2.6-2.94h-1.03v5.95h.83c1.87,0,2.8-1,2.8-3Z"/><path class="cls-6" d="m585.49,126.08h-5.26v-9.13h5.26v1.59h-3.32v2h3.09v1.59h-3.09v2.35h3.32v1.6Z"/><path class="cls-6" d="m594.18,120.95h3.62v4.74c-.59.19-1.14.33-1.66.4s-1.05.12-1.59.12c-1.38,0-2.43-.41-3.16-1.21-.73-.81-1.09-1.97-1.09-3.49s.42-2.62,1.26-3.45c.84-.82,2.01-1.24,3.51-1.24.94,0,1.84.19,2.71.56l-.64,1.55c-.67-.33-1.36-.5-2.08-.5-.84,0-1.51.28-2.01.84-.5.56-.76,1.32-.76,2.27s.2,1.75.61,2.27c.41.52,1,.78,1.77.78.4,0,.81-.04,1.23-.12v-1.9h-1.73v-1.61Z"/><path class="cls-6" d="m608.27,121.5c0,1.51-.38,2.67-1.12,3.49-.75.81-1.82,1.22-3.22,1.22s-2.47-.41-3.22-1.22c-.75-.81-1.12-1.98-1.12-3.5s.38-2.68,1.13-3.48c.75-.8,1.83-1.2,3.23-1.2s2.48.4,3.22,1.21,1.12,1.97,1.12,3.49Zm-6.67,0c0,1.02.19,1.79.58,2.3.39.52.97.78,1.74.78,1.54,0,2.32-1.03,2.32-3.08s-.77-3.09-2.3-3.09c-.77,0-1.35.26-1.74.78s-.59,1.29-.59,2.31Z"/><path class="cls-6" d="m615.37,116.95h1.96l-3.1,9.13h-2.11l-3.1-9.13h1.96l1.72,5.43c.1.32.19.69.3,1.12.1.43.17.72.19.89.05-.38.2-1.05.47-2.01l1.73-5.43Z"/><path class="cls-6" d="m623.74,126.08h-5.26v-9.13h5.26v1.59h-3.32v2h3.09v1.59h-3.09v2.35h3.32v1.6Z"/><path class="cls-6" d="m627.58,122.58v3.5h-1.94v-9.13h2.66c1.24,0,2.16.23,2.75.68.59.45.89,1.14.89,2.06,0,.54-.15,1.01-.44,1.43-.3.42-.71.75-1.26.98,1.38,2.05,2.27,3.38,2.69,3.98h-2.15l-2.18-3.5h-1.03Zm0-1.57h.62c.61,0,1.06-.1,1.36-.31.29-.2.44-.52.44-.96s-.15-.74-.45-.92c-.3-.18-.76-.27-1.38-.27h-.59v2.47Z"/><path class="cls-6" d="m642.19,126.08h-2.46l-3.97-6.91h-.06c.08,1.22.12,2.09.12,2.61v4.3h-1.73v-9.13h2.44l3.97,6.84h.04c-.06-1.19-.09-2.03-.09-2.52v-4.32h1.74v9.13Z"/><path class="cls-6" d="m652.78,121.5c0,1.51-.38,2.67-1.12,3.49-.75.81-1.82,1.22-3.22,1.22s-2.47-.41-3.22-1.22c-.75-.81-1.12-1.98-1.12-3.5s.38-2.68,1.13-3.48c.75-.8,1.83-1.2,3.23-1.2s2.48.4,3.22,1.21,1.12,1.97,1.12,3.49Zm-6.67,0c0,1.02.19,1.79.58,2.3.39.52.97.78,1.74.78,1.54,0,2.32-1.03,2.32-3.08s-.77-3.09-2.3-3.09c-.77,0-1.35.26-1.74.78s-.59,1.29-.59,2.31Z"/><rect class="cls-4" width="176.39" height="56.3"/><path d="m28.76,16.36h-1.91V7.23h5.23v1.59h-3.33v2.35h3.1v1.58h-3.1v3.61Z"/><path d="m35.63,16.36h-1.91V6.64h1.91v9.72Z"/><path d="m42.57,16.36l-.26-.89h-.1c-.2.32-.49.58-.87.75-.37.18-.8.27-1.28.27-.82,0-1.44-.22-1.86-.66-.42-.44-.62-1.07-.62-1.9v-4.55h1.91v4.08c0,.5.09.88.27,1.13s.46.38.86.38c.53,0,.92-.18,1.16-.53.24-.36.36-.95.36-1.77v-3.29h1.91v6.98h-1.46Z"/><path d="m47.47,12.8l-2.25-3.42h2.16l1.36,2.22,1.37-2.22h2.16l-2.28,3.42,2.38,3.57h-2.17l-1.47-2.39-1.47,2.39h-2.16l2.37-3.57Z"/><path d="m59.78,12.86c0,1.14-.3,2.03-.9,2.67s-1.43.96-2.5.96c-.67,0-1.26-.15-1.77-.44-.51-.29-.91-.72-1.18-1.27-.28-.55-.41-1.19-.41-1.92,0-1.14.3-2.03.89-2.66.6-.63,1.43-.95,2.51-.95.67,0,1.26.15,1.77.44.51.29.91.71,1.18,1.26s.41,1.18.41,1.92Zm-4.83,0c0,.69.11,1.21.34,1.57.23.35.6.53,1.11.53s.87-.18,1.1-.53c.22-.35.33-.88.33-1.57s-.11-1.21-.34-1.56-.59-.52-1.11-.52-.88.17-1.1.52c-.22.34-.34.86-.34,1.56Z"/><path d="m66.89,16.49c-.82,0-1.46-.32-1.93-.96-.47-.64-.7-1.52-.7-2.65s.24-2.04.72-2.68,1.13-.96,1.97-.96c.88,0,1.55.34,2.01,1.02h.06c-.1-.52-.14-.98-.14-1.39v-2.24h1.91v9.72h-1.46l-.37-.91h-.08c-.43.69-1.09,1.03-1.98,1.03Zm.67-1.52c.49,0,.84-.14,1.07-.42.23-.28.35-.76.37-1.44v-.21c0-.75-.12-1.29-.35-1.61-.23-.32-.61-.49-1.13-.49-.42,0-.75.18-.99.54-.24.36-.35.88-.35,1.57s.12,1.2.36,1.55c.24.34.58.52,1.02.52Z"/><path d="m75.93,16.49c-1.12,0-2-.31-2.64-.93-.63-.62-.95-1.5-.95-2.64s.29-2.07.88-2.71,1.39-.96,2.43-.96,1.76.28,2.3.84c.55.56.83,1.34.83,2.33v.92h-4.5c.02.54.18.96.48,1.27.3.3.72.46,1.26.46.42,0,.82-.04,1.19-.13s.77-.23,1.17-.42v1.47c-.33.17-.69.29-1.07.37-.38.08-.84.12-1.39.12Zm-.27-5.88c-.4,0-.72.13-.95.38-.23.26-.36.62-.39,1.09h2.67c0-.47-.13-.83-.37-1.09-.24-.26-.56-.38-.96-.38Z"/><path d="m87.49,16.49c-.82,0-1.46-.3-1.93-.89h-.1c.07.58.1.92.1,1.01v2.83h-1.91v-10.06h1.55l.27.91h.09c.45-.69,1.11-1.04,1.98-1.04.82,0,1.47.32,1.94.96.47.64.7,1.52.7,2.65,0,.75-.11,1.39-.33,1.94-.22.55-.53.97-.93,1.26-.4.29-.88.43-1.42.43Zm-.56-5.72c-.47,0-.81.15-1.03.43-.22.29-.33.77-.34,1.43v.21c0,.75.11,1.29.33,1.61.22.32.58.49,1.06.49.85,0,1.28-.7,1.28-2.11,0-.69-.11-1.2-.32-1.55-.21-.34-.54-.52-.99-.52Z"/><path d="m95.65,9.25c.26,0,.47.02.64.06l-.14,1.79c-.15-.04-.34-.06-.56-.06-.61,0-1.08.16-1.42.47-.34.31-.51.75-.51,1.31v3.55h-1.91v-6.98h1.44l.28,1.17h.09c.22-.39.51-.71.88-.95.37-.24.77-.36,1.2-.36Z"/><path d="m103.9,12.86c0,1.14-.3,2.03-.9,2.67s-1.43.96-2.5.96c-.67,0-1.26-.15-1.77-.44-.51-.29-.91-.72-1.18-1.27-.28-.55-.41-1.19-.41-1.92,0-1.14.3-2.03.89-2.66.6-.63,1.43-.95,2.51-.95.67,0,1.26.15,1.77.44.51.29.91.71,1.18,1.26s.41,1.18.41,1.92Zm-4.83,0c0,.69.11,1.21.34,1.57.23.35.6.53,1.11.53s.87-.18,1.1-.53c.22-.35.33-.88.33-1.57s-.11-1.21-.34-1.56-.59-.52-1.11-.52-.88.17-1.1.52c-.22.34-.34.86-.34,1.56Z"/><path d="m109.36,9.25c.82,0,1.47.32,1.94.96.47.64.7,1.53.7,2.65s-.24,2.05-.72,2.68c-.48.63-1.14.95-1.96.95s-1.46-.3-1.93-.89h-.13l-.32.77h-1.46V6.64h1.91v2.26c0,.29-.02.75-.07,1.38h.07c.45-.69,1.11-1.04,1.98-1.04Zm-.61,1.52c-.47,0-.81.15-1.03.43-.22.29-.33.77-.34,1.43v.21c0,.75.11,1.29.33,1.61.22.32.58.49,1.06.49.39,0,.7-.18.93-.54.23-.36.35-.88.35-1.57s-.12-1.2-.35-1.55c-.23-.34-.55-.52-.96-.52Z"/><path d="m115.48,16.36h-1.91V6.64h1.91v9.72Z"/><path d="m120.64,16.49c-1.12,0-2-.31-2.64-.93-.63-.62-.95-1.5-.95-2.64s.29-2.07.88-2.71,1.39-.96,2.43-.96,1.76.28,2.3.84c.55.56.83,1.34.83,2.33v.92h-4.5c.02.54.18.96.48,1.27.3.3.72.46,1.26.46.42,0,.82-.04,1.19-.13s.77-.23,1.17-.42v1.47c-.33.17-.69.29-1.07.37-.38.08-.84.12-1.39.12Zm-.27-5.88c-.4,0-.72.13-.95.38-.23.26-.36.62-.39,1.09h2.67c0-.47-.13-.83-.37-1.09-.24-.26-.56-.38-.96-.38Z"/><path d="m131.29,16.36h-1.91v-4.08c0-.5-.08-.88-.25-1.13-.17-.25-.43-.38-.8-.38-.49,0-.84.18-1.06.54-.22.36-.33.95-.33,1.77v3.29h-1.91v-6.98h1.46l.26.89h.11c.19-.32.46-.57.81-.75.35-.18.76-.27,1.22-.27,1.04,0,1.75.34,2.12,1.02h.17c.19-.32.46-.58.83-.76.36-.18.78-.27,1.23-.27.79,0,1.39.2,1.8.61.41.41.61,1.06.61,1.95v4.55h-1.91v-4.08c0-.5-.08-.88-.25-1.13-.17-.25-.43-.38-.8-.38-.47,0-.82.17-1.05.5-.23.33-.35.86-.35,1.59v3.5Z"/><path d="m142.03,16.36l-.37-.95h-.05c-.32.4-.65.68-.99.84-.34.16-.78.23-1.33.23-.67,0-1.2-.19-1.58-.57-.39-.38-.58-.93-.58-1.64s.26-1.29.78-1.64c.52-.35,1.3-.55,2.35-.58l1.21-.04v-.31c0-.71-.36-1.06-1.09-1.06-.56,0-1.21.17-1.97.51l-.63-1.29c.8-.42,1.7-.63,2.67-.63s1.66.2,2.16.61c.5.41.75,1.03.75,1.86v4.65h-1.33Zm-.56-3.24l-.74.03c-.55.02-.97.12-1.24.3-.27.18-.41.46-.41.84,0,.54.31.81.92.81.44,0,.79-.13,1.06-.38s.4-.59.4-1.01v-.57Z"/><path d="m150.2,14.29c0,.72-.25,1.26-.75,1.64-.5.37-1.24.56-2.23.56-.51,0-.94-.03-1.3-.1-.36-.07-.69-.17-1.01-.3v-1.57c.35.17.75.31,1.2.42.44.11.83.17,1.17.17.69,0,1.04-.2,1.04-.6,0-.15-.05-.27-.14-.37-.09-.09-.25-.2-.48-.32-.22-.12-.52-.26-.9-.42-.54-.22-.93-.43-1.18-.62-.25-.19-.43-.41-.55-.66-.11-.25-.17-.55-.17-.92,0-.62.24-1.1.72-1.44.48-.34,1.16-.51,2.05-.51s1.66.18,2.46.55l-.58,1.37c-.35-.15-.68-.27-.98-.37-.3-.1-.61-.14-.93-.14-.56,0-.84.15-.84.46,0,.17.09.32.27.44.18.12.58.31,1.19.56.55.22.95.43,1.2.62.25.19.44.41.56.66.12.25.18.55.18.89Z"/><path d="m35.85,31.71v-9.13h1.06v9.13h-1.06Z"/><path d="m43.95,31.71v-4.43c0-.56-.13-.97-.38-1.25-.25-.27-.65-.41-1.19-.41-.72,0-1.24.19-1.57.58-.33.39-.5,1.03-.5,1.92v3.59h-1.04v-6.85h.84l.17.94h.05c.21-.34.51-.6.89-.78.38-.19.81-.28,1.28-.28.82,0,1.45.2,1.86.6.42.4.62,1.03.62,1.91v4.47h-1.04Z"/><path d="m51.78,30.79h-.05c-.48.7-1.2,1.04-2.15,1.04-.9,0-1.59-.31-2.09-.92-.5-.61-.75-1.48-.75-2.61s.25-2.01.75-2.63c.5-.62,1.2-.94,2.09-.94s1.64.34,2.13,1.01h.08l-.04-.49-.02-.48v-2.79h1.04v9.72h-.84l-.14-.92Zm-2.07.18c.71,0,1.22-.19,1.54-.58.32-.38.48-1.01.48-1.86v-.22c0-.97-.16-1.66-.48-2.08-.32-.41-.84-.62-1.55-.62-.61,0-1.07.24-1.4.71-.32.47-.48,1.14-.48,2s.16,1.53.48,1.98.79.67,1.41.67Z"/><path d="m54.87,23.01c0-.24.06-.41.17-.52.12-.11.26-.17.44-.17s.31.06.43.17c.12.11.18.29.18.52s-.06.41-.18.52c-.12.11-.26.17-.43.17s-.32-.06-.44-.17c-.12-.11-.17-.29-.17-.52Zm1.12,8.7h-1.04v-6.85h1.04v6.85Z"/><path d="m60.93,31.84c-.99,0-1.76-.31-2.3-.92-.54-.61-.81-1.47-.81-2.59s.28-2.03.83-2.65,1.34-.94,2.36-.94c.33,0,.66.04.99.11s.59.15.78.25l-.32.88c-.23-.09-.48-.17-.75-.23-.27-.06-.51-.09-.72-.09-1.39,0-2.09.89-2.09,2.66,0,.84.17,1.49.51,1.94s.84.67,1.51.67c.57,0,1.16-.12,1.75-.37v.92c-.46.24-1.04.36-1.73.36Z"/><path d="m68.49,31.71l-.21-.97h-.05c-.34.43-.68.72-1.02.87-.34.15-.76.23-1.27.23-.68,0-1.21-.17-1.6-.52-.39-.35-.58-.85-.58-1.49,0-1.38,1.11-2.11,3.32-2.17l1.16-.04v-.42c0-.54-.12-.93-.35-1.19-.23-.26-.6-.38-1.11-.38-.57,0-1.22.18-1.94.52l-.32-.79c.34-.18.71-.33,1.11-.43.4-.1.8-.16,1.21-.16.82,0,1.42.18,1.81.54s.59.94.59,1.74v4.67h-.77Zm-2.34-.73c.65,0,1.15-.18,1.52-.53.37-.35.55-.85.55-1.49v-.62l-1.04.04c-.82.03-1.42.16-1.78.38s-.55.58-.55,1.06c0,.38.11.66.34.86.23.2.54.29.95.29Z"/><path d="m76.05,30.79h-.06c-.48.7-1.2,1.04-2.15,1.04-.9,0-1.59-.31-2.09-.92-.5-.61-.75-1.48-.75-2.61s.25-2.01.75-2.63,1.2-.94,2.09-.94,1.64.34,2.14,1.01h.08l-.04-.49-.02-.48v-2.79h1.04v9.72h-.84l-.14-.92Zm-2.07.18c.71,0,1.22-.19,1.54-.58.32-.38.48-1.01.48-1.86v-.22c0-.97-.16-1.66-.48-2.08-.32-.41-.84-.62-1.55-.62-.61,0-1.07.24-1.4.71-.32.47-.48,1.14-.48,2s.16,1.53.48,1.98c.32.45.79.67,1.41.67Z"/><path d="m85.14,28.28c0,1.12-.28,1.99-.84,2.61-.56.63-1.34.94-2.33.94-.61,0-1.16-.14-1.63-.43-.47-.29-.84-.7-1.1-1.24-.26-.54-.39-1.17-.39-1.89,0-1.12.28-1.99.84-2.61.56-.62,1.33-.93,2.32-.93s1.72.32,2.28.96c.56.64.85,1.5.85,2.59Zm-5.22,0c0,.87.17,1.54.52,2,.35.46.86.69,1.54.69s1.19-.23,1.55-.68.53-1.12.53-2-.18-1.53-.53-1.98c-.35-.45-.87-.68-1.56-.68s-1.19.22-1.54.67-.52,1.11-.52,1.99Z"/><path d="m90.08,24.74c.3,0,.58.02.82.08l-.14.96c-.28-.06-.53-.09-.75-.09-.55,0-1.03.22-1.42.67-.39.45-.59,1.01-.59,1.68v3.67h-1.04v-6.85h.86l.12,1.27h.05c.25-.45.56-.79.92-1.03.36-.24.75-.36,1.18-.36Z"/><path d="m95.07,31.84c-1.01,0-1.81-.31-2.4-.92-.58-.62-.88-1.47-.88-2.57s.27-1.98.81-2.63c.54-.65,1.27-.97,2.19-.97.86,0,1.54.28,2.04.85.5.56.75,1.31.75,2.23v.66h-4.72c.02.8.22,1.41.61,1.83.39.42.93.62,1.63.62.74,0,1.47-.15,2.19-.46v.92c-.37.16-.71.27-1.04.34-.33.07-.72.1-1.18.1Zm-.28-6.23c-.55,0-.99.18-1.31.54-.33.36-.52.85-.58,1.49h3.58c0-.65-.15-1.15-.44-1.5-.29-.35-.71-.52-1.25-.52Z"/><path d="m103.78,29.85c0,.64-.24,1.13-.71,1.47s-1.14.52-2,.52c-.91,0-1.62-.14-2.12-.43v-.96c.33.17.68.3,1.06.39s.74.14,1.09.14c.54,0,.96-.09,1.25-.26.29-.17.44-.44.44-.79,0-.27-.12-.49-.35-.68-.23-.19-.68-.41-1.35-.67-.64-.24-1.09-.44-1.36-.62-.27-.18-.47-.38-.6-.6-.13-.23-.2-.49-.2-.81,0-.56.23-1,.68-1.32s1.08-.48,1.87-.48c.74,0,1.46.15,2.16.45l-.37.84c-.69-.28-1.31-.42-1.87-.42-.49,0-.86.08-1.11.23-.25.15-.37.37-.37.64,0,.18.05.34.14.47.09.13.24.25.45.37s.61.29,1.2.51c.81.3,1.36.59,1.65.89.29.3.43.68.43,1.13Z"/><path d="m106.55,30.23l.09.14c-.11.42-.26.9-.47,1.45s-.42,1.06-.64,1.54h-.78c.11-.43.24-.97.37-1.6.13-.64.23-1.15.28-1.53h1.14Z"/><path d="m114.66,31.84c-.99,0-1.76-.31-2.3-.92-.54-.61-.81-1.47-.81-2.59s.28-2.03.83-2.65,1.34-.94,2.36-.94c.33,0,.66.04.99.11s.59.15.78.25l-.32.88c-.23-.09-.48-.17-.75-.23-.27-.06-.51-.09-.72-.09-1.39,0-2.09.89-2.09,2.66,0,.84.17,1.49.51,1.94s.84.67,1.51.67c.57,0,1.16-.12,1.75-.37v.92c-.46.24-1.04.36-1.73.36Z"/><path d="m121.13,24.74c.3,0,.58.02.82.08l-.14.96c-.28-.06-.53-.09-.75-.09-.55,0-1.03.22-1.42.67-.39.45-.59,1.01-.59,1.68v3.67h-1.04v-6.85h.86l.12,1.27h.05c.25-.45.56-.79.92-1.03.36-.24.75-.36,1.18-.36Z"/><path d="m123.14,23.01c0-.24.06-.41.17-.52.12-.11.26-.17.44-.17s.31.06.43.17c.12.11.18.29.18.52s-.06.41-.18.52c-.12.11-.26.17-.43.17s-.32-.06-.44-.17c-.12-.11-.17-.29-.17-.52Zm1.12,8.7h-1.04v-6.85h1.04v6.85Z"/><path d="m130.88,29.85c0,.64-.24,1.13-.71,1.47s-1.14.52-2,.52c-.91,0-1.62-.14-2.12-.43v-.96c.33.17.68.3,1.06.39s.74.14,1.09.14c.54,0,.96-.09,1.25-.26.29-.17.44-.44.44-.79,0-.27-.12-.49-.35-.68-.23-.19-.68-.41-1.35-.67-.64-.24-1.09-.44-1.36-.62-.27-.18-.47-.38-.6-.6-.13-.23-.2-.49-.2-.81,0-.56.23-1,.68-1.32s1.08-.48,1.87-.48c.74,0,1.46.15,2.16.45l-.37.84c-.69-.28-1.31-.42-1.87-.42-.49,0-.86.08-1.11.23-.25.15-.37.37-.37.64,0,.18.05.34.14.47.09.13.24.25.45.37s.61.29,1.2.51c.81.3,1.36.59,1.65.89.29.3.43.68.43,1.13Z"/><path d="m135.46,31.84c-1.01,0-1.81-.31-2.4-.92-.58-.62-.88-1.47-.88-2.57s.27-1.98.81-2.63c.54-.65,1.27-.97,2.19-.97.86,0,1.54.28,2.04.85.5.56.75,1.31.75,2.23v.66h-4.72c.02.8.22,1.41.61,1.83.39.42.93.62,1.63.62.74,0,1.47-.15,2.19-.46v.92c-.37.16-.71.27-1.04.34-.33.07-.72.1-1.18.1Zm-.28-6.23c-.55,0-.99.18-1.31.54-.33.36-.52.85-.58,1.49h3.58c0-.65-.15-1.15-.44-1.5-.29-.35-.71-.52-1.25-.52Z"/><path d="m140.83,30.23l.09.14c-.11.42-.26.9-.47,1.45s-.42,1.06-.64,1.54h-.78c.11-.43.24-.97.37-1.6.13-.64.23-1.15.28-1.53h1.14Z"/><path d="m37.3,41.02h-1.74v6.04h-1.04v-6.04h-1.22v-.47l1.22-.38v-.38c0-1.68.74-2.52,2.21-2.52.36,0,.79.07,1.27.22l-.27.83c-.4-.13-.74-.19-1.02-.19-.39,0-.68.13-.87.39-.19.26-.28.68-.28,1.25v.44h1.74v.81Z"/><path d="m41.44,47.19c-1.01,0-1.81-.31-2.4-.92-.59-.62-.88-1.47-.88-2.57s.27-1.98.82-2.63c.54-.65,1.27-.97,2.19-.97.86,0,1.54.28,2.04.85.5.56.75,1.31.75,2.23v.66h-4.72c.02.8.22,1.41.61,1.83s.93.62,1.63.62c.74,0,1.47-.15,2.19-.46v.92c-.37.16-.71.27-1.04.34-.33.07-.72.1-1.18.1Zm-.28-6.23c-.55,0-.99.18-1.31.54-.33.36-.52.85-.58,1.49h3.58c0-.65-.15-1.15-.44-1.5s-.71-.52-1.25-.52Z"/><path d="m48.62,47.19c-1.01,0-1.81-.31-2.4-.92-.59-.62-.88-1.47-.88-2.57s.27-1.98.82-2.63c.54-.65,1.27-.97,2.19-.97.86,0,1.54.28,2.04.85.5.56.75,1.31.75,2.23v.66h-4.72c.02.8.22,1.41.61,1.83s.93.62,1.63.62c.74,0,1.47-.15,2.19-.46v.92c-.37.16-.71.27-1.04.34-.33.07-.72.1-1.18.1Zm-.28-6.23c-.55,0-.99.18-1.31.54-.33.36-.52.85-.58,1.49h3.58c0-.65-.14-1.15-.44-1.5-.29-.35-.71-.52-1.25-.52Z"/><path d="m57.56,46.15h-.06c-.48.7-1.2,1.04-2.15,1.04-.9,0-1.59-.31-2.09-.92-.5-.61-.75-1.48-.75-2.61s.25-2.01.75-2.63,1.2-.94,2.09-.94,1.64.34,2.14,1.01h.08l-.04-.49-.02-.48v-2.79h1.04v9.72h-.84l-.14-.92Zm-2.07.18c.71,0,1.22-.19,1.54-.58.32-.38.48-1.01.48-1.86v-.22c0-.97-.16-1.66-.48-2.08-.32-.41-.84-.62-1.55-.62-.61,0-1.07.24-1.4.71-.32.47-.48,1.14-.48,2s.16,1.53.48,1.98c.32.45.79.67,1.41.67Z"/><path d="m63.93,40.11c.9,0,1.6.31,2.1.92.5.61.75,1.48.75,2.61s-.25,2-.75,2.62c-.5.62-1.2.93-2.09.93-.45,0-.85-.08-1.22-.25-.37-.16-.68-.42-.93-.76h-.08l-.22.88h-.74v-9.72h1.04v2.36c0,.53-.02,1-.05,1.42h.05c.48-.68,1.2-1.02,2.15-1.02Zm-.15.87c-.71,0-1.22.2-1.53.61-.31.41-.47,1.09-.47,2.05s.16,1.65.48,2.06c.32.41.83.62,1.54.62.64,0,1.11-.23,1.42-.7.31-.46.47-1.13.47-2s-.16-1.56-.47-1.99c-.31-.44-.79-.66-1.45-.66Z"/><path d="m72.79,47.06l-.21-.97h-.05c-.34.43-.68.72-1.02.87-.34.15-.76.23-1.27.23-.68,0-1.21-.17-1.6-.52-.39-.35-.58-.85-.58-1.49,0-1.38,1.11-2.11,3.32-2.17l1.16-.04v-.42c0-.54-.12-.93-.35-1.19-.23-.26-.6-.38-1.11-.38-.57,0-1.22.18-1.94.52l-.32-.79c.34-.18.71-.33,1.11-.43.4-.1.8-.16,1.21-.16.82,0,1.42.18,1.81.54s.59.94.59,1.74v4.67h-.77Zm-2.34-.73c.65,0,1.15-.18,1.52-.53.37-.35.55-.85.55-1.49v-.62l-1.04.04c-.82.03-1.42.16-1.78.38s-.55.58-.55,1.06c0,.38.11.66.34.86.23.2.54.29.95.29Z"/><path d="m78.43,47.19c-.99,0-1.76-.31-2.3-.92-.54-.61-.81-1.47-.81-2.59s.28-2.03.83-2.65,1.34-.94,2.36-.94c.33,0,.66.04.99.11s.59.15.78.25l-.32.88c-.23-.09-.48-.17-.75-.23-.27-.06-.51-.09-.72-.09-1.39,0-2.09.89-2.09,2.66,0,.84.17,1.49.51,1.94s.84.67,1.51.67c.57,0,1.16-.12,1.75-.37v.92c-.46.24-1.04.36-1.73.36Z"/><path d="m82.81,43.56c.18-.25.45-.59.82-1l2.21-2.34h1.23l-2.77,2.92,2.97,3.93h-1.25l-2.42-3.24-.78.67v2.56h-1.02v-9.72h1.02v5.15c0,.23-.02.58-.05,1.06h.05Z"/><path d="m96.48,46.15h-.06c-.48.7-1.2,1.04-2.15,1.04-.9,0-1.59-.31-2.09-.92-.5-.61-.75-1.48-.75-2.61s.25-2.01.75-2.63,1.2-.94,2.09-.94,1.64.34,2.14,1.01h.08l-.04-.49-.02-.48v-2.79h1.04v9.72h-.84l-.14-.92Zm-2.07.18c.71,0,1.22-.19,1.54-.58.32-.38.48-1.01.48-1.86v-.22c0-.97-.16-1.66-.48-2.08-.32-.41-.84-.62-1.55-.62-.61,0-1.07.24-1.4.71-.32.47-.48,1.14-.48,2s.16,1.53.48,1.98c.32.45.79.67,1.41.67Z"/><path d="m102.55,47.19c-1.01,0-1.81-.31-2.4-.92-.58-.62-.88-1.47-.88-2.57s.27-1.98.81-2.63c.54-.65,1.27-.97,2.19-.97.86,0,1.54.28,2.04.85.5.56.75,1.31.75,2.23v.66h-4.72c.02.8.22,1.41.61,1.83.39.42.93.62,1.63.62.74,0,1.47-.15,2.19-.46v.92c-.37.16-.71.27-1.04.34-.33.07-.72.1-1.18.1Zm-.28-6.23c-.55,0-.99.18-1.31.54-.33.36-.52.85-.58,1.49h3.58c0-.65-.15-1.15-.44-1.5-.29-.35-.71-.52-1.25-.52Z"/><path d="m114.37,47.06l-.21-.97h-.05c-.34.43-.68.72-1.02.87-.34.15-.76.23-1.27.23-.68,0-1.21-.17-1.6-.52-.39-.35-.58-.85-.58-1.49,0-1.38,1.11-2.11,3.32-2.17l1.16-.04v-.42c0-.54-.12-.93-.35-1.19-.23-.26-.6-.38-1.11-.38-.57,0-1.22.18-1.94.52l-.32-.79c.34-.18.71-.33,1.11-.43.4-.1.8-.16,1.21-.16.82,0,1.42.18,1.81.54s.59.94.59,1.74v4.67h-.77Zm-2.34-.73c.65,0,1.15-.18,1.52-.53.37-.35.55-.85.55-1.49v-.62l-1.04.04c-.82.03-1.42.16-1.78.38s-.55.58-.55,1.06c0,.38.11.66.34.86.23.2.54.29.95.29Z"/><path d="m120.01,47.19c-.99,0-1.76-.31-2.3-.92-.54-.61-.81-1.47-.81-2.59s.28-2.03.83-2.65,1.34-.94,2.36-.94c.33,0,.66.04.99.11s.59.15.78.25l-.32.88c-.23-.09-.48-.17-.75-.23-.27-.06-.51-.09-.72-.09-1.39,0-2.09.89-2.09,2.66,0,.84.17,1.49.51,1.94s.84.67,1.51.67c.57,0,1.16-.12,1.75-.37v.92c-.46.24-1.04.36-1.73.36Zm.92,1.68c0,.4-.16.72-.48.94s-.79.33-1.42.33c-.21,0-.41-.02-.6-.06v-.66c.19.03.4.05.65.05.33,0,.58-.04.75-.12.17-.08.25-.24.25-.46,0-.18-.08-.32-.25-.43-.17-.11-.47-.2-.93-.27l.55-1.11h.69l-.34.72c.75.16,1.12.52,1.12,1.09Z"/><path d="m129.27,43.64c0,1.12-.28,1.99-.84,2.61-.56.63-1.34.94-2.33.94-.61,0-1.16-.14-1.63-.43-.47-.29-.84-.7-1.1-1.24-.26-.54-.39-1.17-.39-1.89,0-1.12.28-1.99.84-2.61.56-.62,1.33-.93,2.32-.93s1.72.32,2.28.96c.56.64.85,1.5.85,2.59Zm-2.18-4.33c-.18,0-.35-.04-.52-.12s-.34-.16-.5-.26c-.16-.09-.32-.18-.47-.26s-.3-.12-.44-.12c-.21,0-.37.06-.47.19s-.19.31-.25.57h-.61c.05-.5.2-.9.44-1.18.24-.29.55-.43.93-.43.19,0,.38.04.56.12.18.08.35.16.51.26.16.09.32.18.47.26.15.08.29.12.42.12.2,0,.36-.06.46-.18.1-.12.18-.31.24-.57h.62c-.05.5-.2.9-.43,1.18-.24.29-.55.43-.94.43Zm-3.04,4.33c0,.87.17,1.54.52,2,.35.46.86.69,1.54.69s1.19-.23,1.55-.68.53-1.12.53-2-.18-1.53-.53-1.98c-.35-.45-.87-.68-1.56-.68s-1.19.22-1.54.67-.52,1.11-.52,1.99Z"/><path d="m133.98,47.19c-1.01,0-1.81-.31-2.4-.92-.58-.62-.88-1.47-.88-2.57s.27-1.98.81-2.63c.54-.65,1.27-.97,2.19-.97.86,0,1.54.28,2.04.85.5.56.75,1.31.75,2.23v.66h-4.72c.02.8.22,1.41.61,1.83.39.42.93.62,1.63.62.74,0,1.47-.15,2.19-.46v.92c-.37.16-.71.27-1.04.34-.33.07-.72.1-1.18.1Zm-.28-6.23c-.55,0-.99.18-1.31.54-.33.36-.52.85-.58,1.49h3.58c0-.65-.15-1.15-.44-1.5-.29-.35-.71-.52-1.25-.52Z"/><path d="m142.68,45.2c0,.64-.24,1.13-.71,1.47s-1.14.52-2,.52c-.91,0-1.62-.14-2.12-.43v-.96c.33.17.68.3,1.06.39s.74.14,1.09.14c.54,0,.96-.09,1.25-.26.29-.17.44-.44.44-.79,0-.27-.12-.49-.35-.68-.23-.19-.68-.41-1.35-.67-.64-.24-1.09-.44-1.36-.62-.27-.18-.47-.38-.6-.6-.13-.23-.2-.49-.2-.81,0-.56.23-1,.68-1.32s1.08-.48,1.87-.48c.74,0,1.46.15,2.16.45l-.37.84c-.69-.28-1.31-.42-1.87-.42-.49,0-.86.08-1.11.23-.25.15-.37.37-.37.64,0,.18.05.34.14.47.09.13.24.25.45.37s.61.29,1.2.51c.81.3,1.36.59,1.65.89.29.3.43.68.43,1.13Z"/><rect class="cls-4" y="73.27" width="176.39" height="70.09"/><path d="m35.27,86.85h-1.91v-9.13h5.23v1.59h-3.33v2.35h3.1v1.58h-3.1v3.61Z"/><path d="m42.14,86.85h-1.91v-9.72h1.91v9.72Z"/><path d="m49.09,86.85l-.26-.89h-.1c-.2.32-.49.58-.87.75-.38.18-.8.27-1.28.27-.82,0-1.44-.22-1.86-.66-.42-.44-.62-1.07-.62-1.9v-4.55h1.91v4.08c0,.5.09.88.27,1.13.18.25.46.38.86.38.53,0,.92-.18,1.16-.53.24-.36.36-.95.36-1.77v-3.29h1.91v6.98h-1.46Z"/><path d="m53.98,83.28l-2.25-3.42h2.16l1.36,2.22,1.37-2.22h2.16l-2.27,3.42,2.38,3.57h-2.17l-1.47-2.39-1.47,2.39h-2.16l2.37-3.57Z"/><path d="m66.29,83.35c0,1.14-.3,2.03-.9,2.67s-1.43.96-2.5.96c-.67,0-1.26-.15-1.77-.44-.51-.29-.91-.72-1.18-1.27-.28-.55-.41-1.19-.41-1.92,0-1.14.3-2.03.89-2.66.6-.63,1.43-.95,2.51-.95.67,0,1.26.15,1.77.44.51.29.91.71,1.18,1.26s.41,1.18.41,1.92Zm-4.83,0c0,.69.11,1.21.34,1.57.23.35.6.53,1.11.53s.87-.18,1.1-.53c.22-.35.33-.88.33-1.57s-.11-1.21-.34-1.56-.59-.52-1.11-.52-.88.17-1.1.52c-.22.34-.34.86-.34,1.56Z"/><path d="m73.4,86.98c-.82,0-1.46-.32-1.93-.96-.47-.64-.7-1.52-.7-2.65s.24-2.04.72-2.68,1.13-.96,1.97-.96c.88,0,1.55.34,2.01,1.02h.06c-.1-.52-.14-.98-.14-1.39v-2.24h1.91v9.72h-1.46l-.37-.91h-.08c-.43.69-1.09,1.03-1.98,1.03Zm.67-1.52c.49,0,.84-.14,1.07-.42.23-.28.35-.76.37-1.44v-.21c0-.75-.12-1.29-.35-1.61-.23-.32-.61-.49-1.13-.49-.42,0-.75.18-.99.54-.24.36-.35.88-.35,1.57s.12,1.2.36,1.55c.24.34.58.52,1.02.52Z"/><path d="m82.44,86.98c-1.12,0-2-.31-2.64-.93-.63-.62-.95-1.5-.95-2.64s.29-2.07.88-2.71,1.39-.96,2.43-.96,1.76.28,2.3.84c.55.56.83,1.34.83,2.33v.92h-4.5c.02.54.18.96.48,1.27.3.3.72.46,1.26.46.42,0,.82-.04,1.19-.13s.77-.23,1.17-.42v1.47c-.33.17-.69.29-1.07.37-.38.08-.84.12-1.39.12Zm-.27-5.88c-.4,0-.72.13-.95.38-.23.26-.36.62-.39,1.09h2.67c0-.47-.13-.83-.37-1.09-.24-.26-.56-.38-.96-.38Z"/><path d="m95.04,84.78c0,.72-.25,1.26-.75,1.64-.5.37-1.24.56-2.23.56-.51,0-.94-.03-1.3-.1-.36-.07-.69-.17-1.01-.3v-1.57c.35.17.75.31,1.2.42.44.11.83.17,1.17.17.69,0,1.04-.2,1.04-.6,0-.15-.05-.27-.14-.37-.09-.09-.25-.2-.48-.32-.22-.12-.52-.26-.9-.42-.54-.22-.93-.43-1.18-.62-.25-.19-.43-.41-.55-.66-.11-.25-.17-.55-.17-.92,0-.62.24-1.1.72-1.44.48-.34,1.16-.51,2.05-.51s1.66.18,2.46.55l-.58,1.37c-.35-.15-.68-.27-.98-.37-.3-.1-.61-.14-.93-.14-.56,0-.84.15-.84.46,0,.17.09.32.27.44.18.12.58.31,1.19.56.55.22.95.43,1.2.62.25.19.44.41.56.66.12.25.18.55.18.89Z"/><path d="m102.87,83.35c0,1.14-.3,2.03-.9,2.67s-1.43.96-2.5.96c-.67,0-1.26-.15-1.77-.44-.51-.29-.91-.72-1.18-1.27-.28-.55-.41-1.19-.41-1.92,0-1.14.3-2.03.89-2.66.6-.63,1.43-.95,2.51-.95.67,0,1.26.15,1.77.44.51.29.91.71,1.18,1.26s.41,1.18.41,1.92Zm-4.83,0c0,.69.11,1.21.34,1.57.23.35.6.53,1.11.53s.87-.18,1.1-.53c.22-.35.33-.88.33-1.57s-.11-1.21-.34-1.56-.59-.52-1.11-.52-.88.17-1.1.52c-.22.34-.34.86-.34,1.56Z"/><path d="m106.35,86.85h-1.91v-9.72h1.91v9.72Z"/><path d="m113.3,86.85l-.26-.89h-.1c-.2.32-.49.58-.87.75-.38.18-.8.27-1.28.27-.82,0-1.44-.22-1.85-.66-.42-.44-.62-1.07-.62-1.9v-4.55h1.91v4.08c0,.5.09.88.27,1.13s.46.38.86.38c.53,0,.92-.18,1.16-.53.24-.36.36-.95.36-1.77v-3.29h1.91v6.98h-1.46Z"/><path d="m119.59,86.98c-2.17,0-3.26-1.19-3.26-3.58,0-1.19.3-2.09.89-2.72.59-.63,1.44-.94,2.54-.94.81,0,1.53.16,2.17.47l-.56,1.47c-.3-.12-.58-.22-.84-.3-.26-.08-.52-.12-.77-.12-.99,0-1.49.7-1.49,2.11s.5,2.05,1.49,2.05c.37,0,.71-.05,1.02-.15.31-.1.62-.25.94-.46v1.63c-.31.2-.62.33-.93.41-.31.07-.71.11-1.19.11Zm1.19,1.44c0,.53-.16.92-.47,1.16s-.8.36-1.46.36c-.33,0-.63-.04-.91-.13v-1.05c.11.03.26.06.45.09.19.03.34.04.44.04.3,0,.45-.13.45-.39,0-.35-.35-.57-1.04-.67l.49-.96h1.21l-.17.38c.31.1.55.26.74.47.18.21.27.45.27.72Z"/><path d="m129.68,83.35c0,1.14-.3,2.03-.9,2.67s-1.43.96-2.5.96c-.67,0-1.26-.15-1.77-.44-.51-.29-.91-.72-1.18-1.27-.28-.55-.41-1.19-.41-1.92,0-1.14.3-2.03.89-2.66.6-.63,1.43-.95,2.51-.95.67,0,1.26.15,1.77.44.51.29.91.71,1.18,1.26s.41,1.18.41,1.92Zm-4.42-4.9c-.13,0-.25.06-.37.17-.12.11-.21.28-.26.5h-.93c.05-.6.22-1.08.52-1.42.3-.34.69-.51,1.18-.51.17,0,.34.03.5.1.16.07.33.14.49.22.16.08.32.16.47.22.15.07.31.1.46.1.13,0,.25-.05.37-.16.12-.11.21-.27.26-.5h.93c-.05.6-.22,1.08-.52,1.42-.3.34-.69.51-1.18.51-.17,0-.34-.03-.5-.1-.17-.07-.33-.14-.49-.22-.16-.08-.32-.16-.47-.23s-.31-.1-.46-.1Zm-.41,4.9c0,.69.11,1.21.34,1.57.23.35.6.53,1.11.53s.87-.18,1.1-.53c.22-.35.33-.88.33-1.57s-.11-1.21-.34-1.56-.59-.52-1.11-.52-.88.17-1.1.52c-.22.34-.34.86-.34,1.56Z"/><path d="m134.42,86.98c-1.12,0-2-.31-2.64-.93-.63-.62-.95-1.5-.95-2.64s.29-2.07.88-2.71,1.39-.96,2.43-.96,1.76.28,2.3.84c.55.56.83,1.34.83,2.33v.92h-4.5c.02.54.18.96.48,1.27.3.3.72.46,1.26.46.42,0,.82-.04,1.19-.13s.77-.23,1.17-.42v1.47c-.33.17-.69.29-1.07.37-.38.08-.84.12-1.39.12Zm-.27-5.88c-.4,0-.72.13-.95.38-.23.26-.36.62-.39,1.09h2.67c0-.47-.13-.83-.37-1.09-.24-.26-.56-.38-.96-.38Z"/><path d="m143.69,84.78c0,.72-.25,1.26-.75,1.64-.5.37-1.24.56-2.23.56-.51,0-.94-.03-1.3-.1-.36-.07-.69-.17-1.01-.3v-1.57c.35.17.75.31,1.2.42.44.11.83.17,1.17.17.69,0,1.04-.2,1.04-.6,0-.15-.05-.27-.14-.37-.09-.09-.25-.2-.48-.32-.22-.12-.52-.26-.9-.42-.54-.22-.93-.43-1.18-.62-.25-.19-.43-.41-.55-.66-.11-.25-.17-.55-.17-.92,0-.62.24-1.1.72-1.44.48-.34,1.16-.51,2.05-.51s1.66.18,2.46.55l-.58,1.37c-.35-.15-.68-.27-.98-.37-.3-.1-.61-.14-.93-.14-.56,0-.84.15-.84.46,0,.17.09.32.27.44.18.12.58.31,1.19.56.55.22.95.43,1.2.62.25.19.44.41.56.66.12.25.18.55.18.89Z"/><path d="m15.23,93.07h1.14l-3.29,9.13h-1.05l-3.27-9.13h1.12l2.1,5.91c.24.68.43,1.34.57,1.98.15-.67.35-1.35.59-2.02l2.09-5.87Z"/><path d="m17.39,93.5c0-.24.06-.41.18-.52.12-.11.26-.17.44-.17s.31.06.43.17c.12.11.18.29.18.52s-.06.41-.18.52c-.12.11-.26.17-.43.17-.17,0-.32-.06-.44-.17-.12-.11-.18-.29-.18-.52Zm1.12,8.7h-1.04v-6.85h1.04v6.85Z"/><path d="m24.92,102.2l-.21-.97h-.05c-.34.43-.68.72-1.02.87s-.76.23-1.27.23c-.68,0-1.21-.17-1.6-.52-.39-.35-.58-.85-.58-1.49,0-1.38,1.11-2.11,3.32-2.17l1.16-.04v-.42c0-.54-.12-.93-.35-1.19-.23-.26-.6-.38-1.11-.38-.57,0-1.22.18-1.94.52l-.32-.79c.34-.18.71-.33,1.11-.43s.8-.16,1.21-.16c.82,0,1.42.18,1.81.54.39.36.59.94.59,1.74v4.67h-.77Zm-2.34-.73c.65,0,1.15-.18,1.52-.53.37-.35.55-.85.55-1.49v-.62l-1.04.04c-.82.03-1.42.16-1.78.38-.36.23-.55.58-.55,1.06,0,.38.11.66.34.86.23.2.54.29.95.29Z"/><path d="m31.01,95.24c.9,0,1.6.31,2.1.92s.75,1.48.75,2.61-.25,2-.75,2.62-1.2.93-2.09.93c-.45,0-.85-.08-1.22-.25-.37-.16-.68-.42-.93-.76h-.07l-.22.88h-.74v-9.72h1.04v2.36c0,.53-.02,1-.05,1.42h.05c.48-.68,1.2-1.02,2.15-1.02Zm-.15.87c-.71,0-1.22.2-1.53.61-.31.41-.47,1.09-.47,2.05s.16,1.65.48,2.06c.32.41.83.62,1.54.62.64,0,1.11-.23,1.42-.7.31-.46.47-1.13.47-2s-.16-1.56-.47-1.99c-.31-.44-.8-.66-1.45-.66Z"/><path d="m35.58,93.5c0-.24.06-.41.18-.52.12-.11.26-.17.44-.17s.31.06.43.17c.12.11.18.29.18.52s-.06.41-.18.52c-.12.11-.26.17-.43.17-.17,0-.32-.06-.44-.17-.12-.11-.18-.29-.18-.52Zm1.12,8.7h-1.04v-6.85h1.04v6.85Z"/><path d="m39.94,102.2h-1.04v-9.72h1.04v9.72Z"/><path d="m42.05,93.5c0-.24.06-.41.18-.52.12-.11.26-.17.44-.17s.31.06.43.17c.12.11.18.29.18.52s-.06.41-.18.52c-.12.11-.26.17-.43.17-.17,0-.32-.06-.44-.17-.12-.11-.18-.29-.18-.52Zm1.12,8.7h-1.04v-6.85h1.04v6.85Z"/><path d="m50.03,101.28h-.06c-.48.7-1.2,1.04-2.15,1.04-.9,0-1.59-.31-2.09-.92-.5-.61-.75-1.48-.75-2.61s.25-2.01.75-2.63c.5-.62,1.2-.94,2.09-.94s1.64.34,2.14,1.01h.08l-.04-.49-.02-.48v-2.79h1.04v9.72h-.84l-.14-.92Zm-2.07.18c.71,0,1.22-.19,1.54-.58.32-.38.48-1.01.48-1.86v-.22c0-.97-.16-1.66-.48-2.08-.32-.41-.84-.62-1.55-.62-.61,0-1.07.24-1.4.71-.32.47-.48,1.14-.48,2s.16,1.53.48,1.98c.32.45.79.67,1.41.67Z"/><path d="m57.42,102.2l-.21-.97h-.05c-.34.43-.68.72-1.02.87-.34.15-.76.23-1.27.23-.68,0-1.21-.17-1.6-.52-.39-.35-.58-.85-.58-1.49,0-1.38,1.11-2.11,3.32-2.17l1.16-.04v-.42c0-.54-.12-.93-.35-1.19-.23-.26-.6-.38-1.11-.38-.57,0-1.22.18-1.94.52l-.32-.79c.34-.18.71-.33,1.11-.43.4-.1.8-.16,1.21-.16.82,0,1.42.18,1.81.54s.59.94.59,1.74v4.67h-.77Zm-2.34-.73c.65,0,1.15-.18,1.52-.53.37-.35.55-.85.55-1.49v-.62l-1.04.04c-.82.03-1.42.16-1.78.38s-.55.58-.55,1.06c0,.38.11.66.34.86.23.2.54.29.95.29Z"/><path d="m64.98,101.28h-.06c-.48.7-1.2,1.04-2.15,1.04-.9,0-1.59-.31-2.09-.92-.5-.61-.75-1.48-.75-2.61s.25-2.01.75-2.63,1.2-.94,2.09-.94,1.64.34,2.14,1.01h.08l-.04-.49-.02-.48v-2.79h1.04v9.72h-.84l-.14-.92Zm-2.07.18c.71,0,1.22-.19,1.54-.58.32-.38.48-1.01.48-1.86v-.22c0-.97-.16-1.66-.48-2.08-.32-.41-.84-.62-1.55-.62-.61,0-1.07.24-1.4.71-.32.47-.48,1.14-.48,2s.16,1.53.48,1.98c.32.45.79.67,1.41.67Z"/><path d="m71.05,102.33c-1.01,0-1.81-.31-2.4-.92-.58-.62-.88-1.47-.88-2.57s.27-1.98.81-2.63c.54-.65,1.27-.97,2.19-.97.86,0,1.54.28,2.04.85.5.56.75,1.31.75,2.23v.66h-4.72c.02.8.22,1.41.61,1.83.39.42.93.62,1.63.62.74,0,1.47-.15,2.19-.46v.92c-.37.16-.71.27-1.04.34-.33.07-.72.1-1.18.1Zm-.28-6.23c-.55,0-.99.18-1.31.54-.33.36-.52.85-.58,1.49h3.58c0-.65-.15-1.15-.44-1.5-.29-.35-.71-.52-1.25-.52Z"/><path d="m80.87,101.47c.18,0,.36-.01.53-.04.17-.03.31-.06.41-.08v.79c-.11.05-.28.1-.5.13s-.42.05-.59.05c-1.32,0-1.99-.7-1.99-2.09v-4.07h-.98v-.5l.98-.43.44-1.46h.6v1.59h1.99v.81h-1.99v4.03c0,.41.1.73.29.95.2.22.46.33.81.33Z"/><path d="m86.07,102.33c-1.01,0-1.81-.31-2.4-.92-.58-.62-.88-1.47-.88-2.57s.27-1.98.81-2.63c.54-.65,1.27-.97,2.19-.97.86,0,1.54.28,2.04.85.5.56.75,1.31.75,2.23v.66h-4.72c.02.8.22,1.41.61,1.83.39.42.93.62,1.63.62.74,0,1.47-.15,2.19-.46v.92c-.37.16-.71.27-1.04.34-.33.07-.72.1-1.18.1Zm-.28-6.23c-.55,0-.99.18-1.31.54-.33.36-.52.85-.58,1.49h3.58c0-.65-.15-1.15-.44-1.5-.29-.35-.71-.52-1.25-.52Zm-.77-1.81c.2-.26.42-.57.65-.94.23-.37.41-.68.55-.96h1.26v.13c-.18.27-.46.6-.82,1-.36.4-.68.7-.94.92h-.69v-.16Z"/><path d="m93.09,102.33c-.99,0-1.76-.31-2.3-.92-.54-.61-.81-1.47-.81-2.59s.28-2.03.83-2.65,1.34-.94,2.36-.94c.33,0,.66.04.99.11s.59.15.78.25l-.32.88c-.23-.09-.48-.17-.75-.23-.27-.06-.51-.09-.72-.09-1.39,0-2.09.89-2.09,2.66,0,.84.17,1.49.51,1.94s.84.67,1.51.67c.57,0,1.16-.12,1.75-.37v.92c-.46.24-1.04.36-1.73.36Z"/><path d="m101.13,102.2v-4.43c0-.56-.13-.97-.38-1.25s-.65-.41-1.19-.41c-.72,0-1.24.19-1.57.58s-.5,1.03-.5,1.92v3.59h-1.04v-6.85h.84l.17.94h.05c.21-.34.51-.6.89-.78.38-.19.81-.28,1.28-.28.82,0,1.45.2,1.86.6.42.4.62,1.03.62,1.91v4.47h-1.04Z"/><path d="m104.21,93.5c0-.24.06-.41.17-.52.12-.11.26-.17.44-.17s.31.06.43.17c.12.11.18.29.18.52s-.06.41-.18.52c-.12.11-.26.17-.43.17s-.32-.06-.44-.17c-.12-.11-.17-.29-.17-.52Zm1.12,8.7h-1.04v-6.85h1.04v6.85Z"/><path d="m110.27,102.33c-.99,0-1.76-.31-2.3-.92-.54-.61-.81-1.47-.81-2.59s.28-2.03.83-2.65,1.34-.94,2.36-.94c.33,0,.66.04.99.11s.59.15.78.25l-.32.88c-.23-.09-.48-.17-.75-.23-.27-.06-.51-.09-.72-.09-1.39,0-2.09.89-2.09,2.66,0,.84.17,1.49.51,1.94s.84.67,1.51.67c.57,0,1.16-.12,1.75-.37v.92c-.46.24-1.04.36-1.73.36Z"/><path d="m117.83,102.2l-.21-.97h-.05c-.34.43-.68.72-1.02.87-.34.15-.76.23-1.27.23-.68,0-1.21-.17-1.6-.52-.39-.35-.58-.85-.58-1.49,0-1.38,1.11-2.11,3.32-2.17l1.16-.04v-.42c0-.54-.12-.93-.35-1.19-.23-.26-.6-.38-1.11-.38-.57,0-1.22.18-1.94.52l-.32-.79c.34-.18.71-.33,1.11-.43.4-.1.8-.16,1.21-.16.82,0,1.42.18,1.81.54s.59.94.59,1.74v4.67h-.77Zm-2.34-.73c.65,0,1.15-.18,1.52-.53.37-.35.55-.85.55-1.49v-.62l-1.04.04c-.82.03-1.42.16-1.78.38s-.55.58-.55,1.06c0,.38.11.66.34.86.23.2.54.29.95.29Z"/><path d="m121.82,100.72l.09.14c-.11.42-.26.9-.47,1.45s-.42,1.06-.64,1.54h-.78c.11-.43.24-.97.37-1.6.13-.64.23-1.15.28-1.53h1.14Z"/><path d="m129.93,102.33c-.99,0-1.76-.31-2.3-.92-.54-.61-.81-1.47-.81-2.59s.28-2.03.83-2.65,1.34-.94,2.36-.94c.33,0,.66.04.99.11s.59.15.78.25l-.32.88c-.23-.09-.48-.17-.75-.23-.27-.06-.51-.09-.72-.09-1.39,0-2.09.89-2.09,2.66,0,.84.17,1.49.51,1.94s.84.67,1.51.67c.57,0,1.16-.12,1.75-.37v.92c-.46.24-1.04.36-1.73.36Z"/><path d="m134.26,95.36v4.44c0,.56.13.97.38,1.25s.65.41,1.19.41c.72,0,1.24-.2,1.57-.59.33-.39.5-1.03.5-1.92v-3.6h1.04v6.85h-.86l-.15-.92h-.06c-.21.34-.51.6-.88.77-.38.18-.81.27-1.29.27-.83,0-1.46-.2-1.87-.59-.41-.4-.62-1.03-.62-1.9v-4.48h1.05Z"/><path d="m145.55,100.33c0,.64-.24,1.13-.71,1.47s-1.14.52-2,.52c-.91,0-1.62-.14-2.12-.43v-.96c.33.17.68.3,1.06.39s.74.14,1.09.14c.54,0,.96-.09,1.25-.26.29-.17.44-.44.44-.79,0-.27-.12-.49-.35-.68-.23-.19-.68-.41-1.35-.67-.64-.24-1.09-.44-1.36-.62-.27-.18-.47-.38-.6-.6-.13-.23-.2-.49-.2-.81,0-.56.23-1,.68-1.32s1.08-.48,1.87-.48c.74,0,1.46.15,2.16.45l-.37.84c-.69-.28-1.31-.42-1.87-.42-.49,0-.86.08-1.11.23-.25.15-.37.37-.37.64,0,.18.05.34.14.47.09.13.24.25.45.37s.61.29,1.2.51c.81.3,1.36.59,1.65.89.29.3.43.68.43,1.13Z"/><path d="m149.45,101.47c.18,0,.36-.01.53-.04.17-.03.31-.06.41-.08v.79c-.11.05-.28.1-.5.13s-.42.05-.59.05c-1.32,0-1.99-.7-1.99-2.09v-4.07h-.98v-.5l.98-.43.44-1.46h.6v1.59h1.99v.81h-1.99v4.03c0,.41.1.73.29.95.2.22.46.33.81.33Z"/><path d="m157.67,98.77c0,1.12-.28,1.99-.84,2.61-.56.63-1.34.94-2.33.94-.61,0-1.16-.14-1.63-.43-.47-.29-.84-.7-1.1-1.24-.26-.54-.39-1.17-.39-1.89,0-1.12.28-1.99.84-2.61.56-.62,1.33-.93,2.32-.93s1.72.32,2.28.96c.56.64.85,1.5.85,2.59Zm-5.22,0c0,.87.17,1.54.52,2,.35.46.86.69,1.54.69s1.19-.23,1.55-.68.53-1.12.53-2-.18-1.53-.53-1.98c-.35-.45-.87-.68-1.56-.68s-1.19.22-1.54.67-.52,1.11-.52,1.99Z"/><path d="m163.9,100.33c0,.64-.24,1.13-.71,1.47s-1.14.52-2,.52c-.91,0-1.62-.14-2.12-.43v-.96c.33.17.68.3,1.06.39s.74.14,1.09.14c.54,0,.96-.09,1.25-.26.29-.17.44-.44.44-.79,0-.27-.12-.49-.35-.68-.23-.19-.68-.41-1.35-.67-.64-.24-1.09-.44-1.36-.62-.27-.18-.47-.38-.6-.6-.13-.23-.2-.49-.2-.81,0-.56.23-1,.68-1.32s1.08-.48,1.87-.48c.74,0,1.46.15,2.16.45l-.37.84c-.69-.28-1.31-.42-1.87-.42-.49,0-.86.08-1.11.23-.25.15-.37.37-.37.64,0,.18.05.34.14.47.09.13.24.25.45.37s.61.29,1.2.51c.81.3,1.36.59,1.65.89.29.3.43.68.43,1.13Z"/><path d="m166.67,100.72l.09.14c-.11.42-.26.9-.47,1.45s-.42,1.06-.64,1.54h-.78c.11-.43.24-.97.37-1.6.13-.64.23-1.15.28-1.53h1.14Z"/><path d="m51.07,117.55l-.21-.97h-.05c-.34.43-.68.72-1.02.87s-.76.23-1.27.23c-.68,0-1.21-.17-1.6-.52-.38-.35-.58-.85-.58-1.49,0-1.38,1.1-2.11,3.32-2.17l1.16-.04v-.42c0-.54-.12-.93-.35-1.19-.23-.26-.6-.38-1.11-.38-.57,0-1.21.18-1.94.52l-.32-.79c.34-.18.71-.33,1.11-.43.4-.1.8-.16,1.21-.16.82,0,1.42.18,1.81.54.39.36.59.94.59,1.74v4.67h-.77Zm-2.34-.73c.64,0,1.15-.18,1.52-.53.37-.35.55-.85.55-1.49v-.62l-1.04.04c-.82.03-1.42.16-1.78.38-.37.23-.55.58-.55,1.06,0,.38.11.66.34.86s.54.29.95.29Z"/><path d="m56.71,117.68c-.99,0-1.76-.31-2.3-.92-.54-.61-.81-1.47-.81-2.59s.28-2.03.83-2.65,1.34-.94,2.36-.94c.33,0,.66.04.99.11s.59.15.78.25l-.32.88c-.23-.09-.48-.17-.75-.23-.27-.06-.51-.09-.72-.09-1.39,0-2.09.89-2.09,2.66,0,.84.17,1.49.51,1.94s.84.67,1.51.67c.57,0,1.16-.12,1.75-.37v.92c-.46.24-1.04.36-1.73.36Z"/><path d="m62.95,117.68c-1.01,0-1.81-.31-2.4-.92-.58-.62-.88-1.47-.88-2.57s.27-1.98.81-2.63c.54-.65,1.27-.97,2.19-.97.86,0,1.54.28,2.04.85.5.56.75,1.31.75,2.23v.66h-4.72c.02.8.22,1.41.61,1.83.39.42.93.62,1.63.62.74,0,1.47-.15,2.19-.46v.92c-.37.16-.71.27-1.04.34-.33.07-.72.1-1.18.1Zm-.28-6.23c-.55,0-.99.18-1.31.54-.33.36-.52.85-.58,1.49h3.58c0-.65-.15-1.15-.44-1.5-.29-.35-.71-.52-1.25-.52Z"/><path d="m67.15,108.85c0-.24.06-.41.17-.52.12-.11.26-.17.44-.17s.31.06.43.17c.12.11.18.29.18.52s-.06.41-.18.52c-.12.11-.26.17-.43.17s-.32-.06-.44-.17c-.12-.11-.17-.29-.17-.52Zm1.12,8.7h-1.04v-6.85h1.04v6.85Z"/><path d="m72.68,116.82c.18,0,.36-.01.53-.04.17-.03.31-.06.41-.08v.79c-.11.05-.28.1-.5.13s-.42.05-.59.05c-1.32,0-1.99-.7-1.99-2.09v-4.07h-.98v-.5l.98-.43.44-1.46h.6v1.59h1.99v.81h-1.99v4.03c0,.41.1.73.29.95.2.22.46.33.81.33Z"/><path d="m79.2,117.55l-.21-.97h-.05c-.34.43-.68.72-1.02.87-.34.15-.76.23-1.27.23-.68,0-1.21-.17-1.6-.52-.39-.35-.58-.85-.58-1.49,0-1.38,1.11-2.11,3.32-2.17l1.16-.04v-.42c0-.54-.12-.93-.35-1.19-.23-.26-.6-.38-1.11-.38-.57,0-1.22.18-1.94.52l-.32-.79c.34-.18.71-.33,1.11-.43.4-.1.8-.16,1.21-.16.82,0,1.42.18,1.81.54s.59.94.59,1.74v4.67h-.77Zm-2.34-.73c.65,0,1.15-.18,1.52-.53.37-.35.55-.85.55-1.49v-.62l-1.04.04c-.82.03-1.42.16-1.78.38s-.55.58-.55,1.06c0,.38.11.66.34.86.23.2.54.29.95.29Z"/><path d="m84.84,117.68c-.99,0-1.76-.31-2.3-.92-.54-.61-.81-1.47-.81-2.59s.28-2.03.83-2.65,1.34-.94,2.36-.94c.33,0,.66.04.99.11s.59.15.78.25l-.32.88c-.23-.09-.48-.17-.75-.23-.27-.06-.51-.09-.72-.09-1.39,0-2.09.89-2.09,2.66,0,.84.17,1.49.51,1.94s.84.67,1.51.67c.57,0,1.16-.12,1.75-.37v.92c-.46.24-1.04.36-1.73.36Zm.92,1.68c0,.4-.16.72-.48.94s-.79.33-1.42.33c-.21,0-.41-.02-.6-.06v-.66c.19.03.4.05.65.05.33,0,.58-.04.75-.12.17-.08.25-.24.25-.46,0-.18-.08-.32-.25-.43-.17-.11-.47-.2-.93-.27l.55-1.11h.69l-.34.72c.75.16,1.12.52,1.12,1.09Z"/><path d="m92.4,117.55l-.21-.97h-.05c-.34.43-.68.72-1.02.87-.34.15-.76.23-1.27.23-.68,0-1.21-.17-1.6-.52-.39-.35-.58-.85-.58-1.49,0-1.38,1.11-2.11,3.32-2.17l1.16-.04v-.42c0-.54-.12-.93-.35-1.19-.23-.26-.6-.38-1.11-.38-.57,0-1.22.18-1.94.52l-.32-.79c.34-.18.71-.33,1.11-.43.4-.1.8-.16,1.21-.16.82,0,1.42.18,1.81.54s.59.94.59,1.74v4.67h-.77Zm-.81-7.76c-.18,0-.35-.04-.52-.12-.17-.08-.34-.16-.5-.26-.17-.09-.32-.18-.48-.26-.15-.08-.3-.12-.44-.12-.21,0-.37.06-.47.19-.11.12-.19.31-.25.57h-.61c.05-.5.2-.9.44-1.18s.55-.43.93-.43c.19,0,.38.04.56.12.18.08.35.16.51.26.16.09.32.18.47.26.15.08.29.12.42.12.2,0,.36-.06.46-.18.1-.12.18-.31.24-.57h.62c-.05.5-.2.9-.43,1.18-.24.29-.55.43-.94.43Zm-1.54,7.03c.65,0,1.15-.18,1.52-.53.37-.35.55-.85.55-1.49v-.62l-1.04.04c-.82.03-1.42.16-1.78.38s-.55.58-.55,1.06c0,.38.11.66.34.86.23.2.54.29.95.29Z"/><path d="m101.22,114.12c0,1.12-.28,1.99-.84,2.61-.56.63-1.34.94-2.33.94-.61,0-1.16-.14-1.63-.43-.47-.29-.84-.7-1.1-1.24-.26-.54-.39-1.17-.39-1.89,0-1.12.28-1.99.84-2.61.56-.62,1.33-.93,2.32-.93s1.72.32,2.28.96c.56.64.85,1.5.85,2.59Zm-5.22,0c0,.87.17,1.54.52,2,.35.46.86.69,1.54.69s1.19-.23,1.55-.68.53-1.12.53-2-.18-1.53-.53-1.98c-.35-.45-.87-.68-1.56-.68s-1.19.22-1.54.67-.52,1.11-.52,1.99Z"/><path d="m109.54,117.68c-.45,0-.85-.08-1.22-.25-.37-.16-.68-.42-.93-.76h-.08c.05.4.08.78.08,1.14v2.82h-1.04v-9.92h.84l.14.94h.05c.27-.38.58-.65.93-.81.35-.17.76-.25,1.22-.25.91,0,1.61.31,2.1.93.49.62.74,1.49.74,2.61s-.25,2-.75,2.62c-.5.62-1.2.93-2.09.93Zm-.15-6.22c-.7,0-1.21.19-1.52.58s-.47,1-.48,1.85v.23c0,.96.16,1.65.48,2.06.32.41.83.62,1.54.62.59,0,1.05-.24,1.39-.72.33-.48.5-1.14.5-1.98s-.17-1.51-.5-1.96-.81-.68-1.42-.68Z"/><path d="m117.09,117.68c-1.01,0-1.81-.31-2.4-.92-.58-.62-.88-1.47-.88-2.57s.27-1.98.81-2.63c.54-.65,1.27-.97,2.19-.97.86,0,1.54.28,2.04.85.5.56.75,1.31.75,2.23v.66h-4.72c.02.8.22,1.41.61,1.83.39.42.93.62,1.63.62.74,0,1.47-.15,2.19-.46v.92c-.37.16-.71.27-1.04.34-.33.07-.72.1-1.18.1Zm-.28-6.23c-.55,0-.99.18-1.31.54-.33.36-.52.85-.58,1.49h3.58c0-.65-.15-1.15-.44-1.5-.29-.35-.71-.52-1.25-.52Z"/><path d="m122.41,117.55h-1.04v-9.72h1.04v9.72Z"/><path d="m128.82,117.55l-.21-.97h-.05c-.34.43-.68.72-1.02.87-.34.15-.76.23-1.27.23-.68,0-1.21-.17-1.6-.52-.39-.35-.58-.85-.58-1.49,0-1.38,1.11-2.11,3.32-2.17l1.16-.04v-.42c0-.54-.12-.93-.35-1.19-.23-.26-.6-.38-1.11-.38-.57,0-1.22.18-1.94.52l-.32-.79c.34-.18.71-.33,1.11-.43.4-.1.8-.16,1.21-.16.82,0,1.42.18,1.81.54s.59.94.59,1.74v4.67h-.77Zm-2.34-.73c.65,0,1.15-.18,1.52-.53.37-.35.55-.85.55-1.49v-.62l-1.04.04c-.82.03-1.42.16-1.78.38s-.55.58-.55,1.06c0,.38.11.66.34.86.23.2.54.29.95.29Z"/><path d="m54.72,133.03c-.99,0-1.76-.31-2.3-.92-.54-.61-.81-1.47-.81-2.59s.28-2.03.83-2.65c.55-.62,1.34-.94,2.36-.94.33,0,.66.04.99.11.33.07.59.15.78.25l-.32.88c-.23-.09-.48-.17-.75-.23-.27-.06-.51-.09-.72-.09-1.39,0-2.09.89-2.09,2.66,0,.84.17,1.49.51,1.94.34.45.84.67,1.51.67.57,0,1.16-.12,1.75-.37v.92c-.46.24-1.04.36-1.73.36Z"/><path d="m63.98,129.48c0,1.12-.28,1.99-.84,2.61-.56.63-1.34.94-2.33.94-.61,0-1.16-.14-1.63-.43-.47-.29-.84-.7-1.1-1.24-.26-.54-.39-1.17-.39-1.89,0-1.12.28-1.99.84-2.61.56-.62,1.33-.93,2.32-.93s1.72.32,2.28.96.85,1.5.85,2.59Zm-5.22,0c0,.88.17,1.54.52,2s.86.69,1.54.69,1.19-.23,1.55-.68.53-1.12.53-2-.18-1.53-.53-1.98c-.35-.45-.87-.68-1.56-.68s-1.19.22-1.54.67c-.35.45-.52,1.11-.52,1.99Z"/><path d="m74.52,132.91v-4.45c0-.54-.12-.95-.35-1.23-.23-.27-.6-.41-1.09-.41-.65,0-1.12.19-1.43.56-.31.37-.46.94-.46,1.71v3.82h-1.04v-4.45c0-.54-.12-.95-.35-1.23-.23-.27-.6-.41-1.09-.41-.65,0-1.13.2-1.43.58-.3.39-.45,1.03-.45,1.92v3.59h-1.04v-6.85h.84l.17.94h.05c.2-.33.47-.59.83-.78.36-.19.75-.28,1.2-.28,1.07,0,1.77.39,2.1,1.16h.05c.2-.36.5-.64.89-.85.39-.21.83-.31,1.32-.31.77,0,1.35.2,1.74.6.38.4.58,1.03.58,1.91v4.47h-1.04Z"/><path d="m78.67,126.06v4.44c0,.56.13.97.38,1.25.25.28.65.41,1.19.41.72,0,1.24-.2,1.57-.59.33-.39.5-1.03.5-1.92v-3.6h1.04v6.85h-.86l-.15-.92h-.06c-.21.34-.51.6-.88.78-.38.18-.81.27-1.29.27-.83,0-1.46-.2-1.87-.59-.41-.4-.62-1.03-.62-1.9v-4.48h1.05Z"/><path d="m90.23,132.91v-4.43c0-.56-.13-.97-.38-1.25-.25-.27-.65-.41-1.19-.41-.72,0-1.24.19-1.57.58-.33.39-.5,1.03-.5,1.92v3.59h-1.04v-6.85h.84l.17.94h.05c.21-.34.51-.6.89-.78.38-.19.81-.28,1.28-.28.82,0,1.45.2,1.86.6.42.4.62,1.03.62,1.91v4.47h-1.04Z"/><path d="m93.31,124.2c0-.24.06-.41.17-.52.12-.11.26-.17.44-.17s.31.06.43.17c.12.11.18.29.18.52s-.06.41-.18.52c-.12.11-.26.17-.43.17s-.32-.06-.44-.17c-.12-.12-.17-.29-.17-.52Zm1.12,8.7h-1.04v-6.85h1.04v6.85Z"/><path d="m101.29,131.99h-.06c-.48.7-1.2,1.04-2.15,1.04-.9,0-1.59-.31-2.09-.92-.5-.61-.75-1.48-.75-2.61s.25-2.01.75-2.63c.5-.62,1.2-.94,2.09-.94s1.64.34,2.14,1.01h.08l-.04-.49-.02-.48v-2.79h1.04v9.72h-.84l-.14-.92Zm-2.07.18c.71,0,1.22-.19,1.54-.58.32-.38.48-1.01.48-1.86v-.22c0-.97-.16-1.66-.48-2.08-.32-.41-.84-.62-1.55-.62-.61,0-1.07.24-1.4.71-.32.47-.48,1.14-.48,2s.16,1.53.48,1.98c.32.45.79.67,1.41.67Z"/><path d="m108.68,132.91l-.21-.97h-.05c-.34.43-.68.72-1.02.87-.34.15-.76.23-1.27.23-.68,0-1.21-.17-1.6-.53-.39-.35-.58-.85-.58-1.49,0-1.38,1.11-2.11,3.32-2.17l1.16-.04v-.42c0-.54-.12-.93-.35-1.19-.23-.26-.6-.38-1.11-.38-.57,0-1.22.18-1.94.53l-.32-.79c.34-.18.71-.33,1.11-.43.4-.1.8-.16,1.21-.16.82,0,1.42.18,1.81.54s.59.94.59,1.74v4.67h-.77Zm-2.34-.73c.65,0,1.15-.18,1.52-.53.37-.35.55-.85.55-1.49v-.62l-1.04.04c-.82.03-1.42.16-1.78.38-.36.23-.55.58-.55,1.06,0,.38.11.66.34.86.23.2.54.29.95.29Z"/><path d="m116.25,131.99h-.06c-.48.7-1.2,1.04-2.15,1.04-.9,0-1.59-.31-2.09-.92-.5-.61-.75-1.48-.75-2.61s.25-2.01.75-2.63c.5-.62,1.2-.94,2.09-.94s1.64.34,2.14,1.01h.08l-.04-.49-.02-.48v-2.79h1.04v9.72h-.84l-.14-.92Zm-2.07.18c.71,0,1.22-.19,1.54-.58.32-.38.48-1.01.48-1.86v-.22c0-.97-.16-1.66-.48-2.08-.32-.41-.84-.62-1.55-.62-.61,0-1.07.24-1.4.71-.32.47-.48,1.14-.48,2s.16,1.53.48,1.98c.32.45.79.67,1.41.67Z"/><path d="m122.32,133.03c-1.01,0-1.81-.31-2.4-.92s-.88-1.47-.88-2.57.27-1.98.81-2.63c.54-.65,1.27-.97,2.19-.97.86,0,1.54.28,2.04.85.5.56.75,1.31.75,2.23v.66h-4.72c.02.8.22,1.41.61,1.83.39.42.93.62,1.63.62.74,0,1.47-.15,2.19-.46v.92c-.37.16-.71.27-1.04.34-.33.07-.72.1-1.18.1Zm-.28-6.23c-.55,0-.99.18-1.31.54-.33.36-.52.85-.58,1.49h3.58c0-.65-.15-1.15-.44-1.5-.29-.35-.71-.52-1.25-.52Z"/><rect class="cls-4" y="152.42" width="176.39" height="72.12"/><path d="m38.88,166.71h-1.91v-9.13h5.23v1.59h-3.33v2.35h3.1v1.58h-3.1v3.61Z"/><path d="m45.75,166.71h-1.91v-9.72h1.91v9.72Z"/><path d="m52.7,166.71l-.26-.89h-.1c-.2.33-.49.58-.87.75-.38.18-.8.27-1.28.27-.82,0-1.44-.22-1.85-.66-.42-.44-.62-1.07-.62-1.9v-4.55h1.91v4.08c0,.5.09.88.27,1.13s.46.38.86.38c.53,0,.92-.18,1.16-.53.24-.36.36-.95.36-1.77v-3.29h1.91v6.98h-1.46Z"/><path d="m57.59,163.14l-2.25-3.42h2.16l1.36,2.22,1.37-2.22h2.16l-2.27,3.42,2.38,3.57h-2.17l-1.47-2.39-1.47,2.39h-2.16l2.37-3.57Z"/><path d="m69.9,163.2c0,1.14-.3,2.03-.9,2.67-.6.64-1.43.96-2.5.96-.67,0-1.26-.15-1.77-.44-.51-.29-.91-.72-1.18-1.27-.28-.55-.41-1.19-.41-1.92,0-1.14.3-2.03.89-2.66.6-.63,1.43-.95,2.51-.95.67,0,1.26.15,1.77.44.51.29.91.71,1.18,1.26.27.54.41,1.18.41,1.92Zm-4.83,0c0,.69.11,1.21.34,1.57.23.35.6.53,1.11.53s.87-.18,1.1-.53.33-.88.33-1.57-.11-1.21-.34-1.55-.59-.52-1.11-.52-.88.17-1.1.51c-.22.34-.34.86-.34,1.56Z"/><path d="m77.01,166.83c-.82,0-1.46-.32-1.93-.96s-.7-1.52-.7-2.65.24-2.04.72-2.68c.48-.64,1.13-.96,1.97-.96.88,0,1.55.34,2.01,1.02h.06c-.1-.52-.14-.98-.14-1.39v-2.24h1.91v9.72h-1.46l-.37-.91h-.08c-.43.69-1.09,1.03-1.98,1.03Zm.67-1.52c.49,0,.84-.14,1.07-.42.23-.28.35-.76.37-1.44v-.21c0-.75-.12-1.29-.35-1.61-.23-.32-.61-.49-1.13-.49-.42,0-.75.18-.99.54s-.35.88-.35,1.57.12,1.2.36,1.55c.24.34.58.51,1.02.51Z"/><path d="m86.06,166.83c-1.12,0-2-.31-2.64-.93-.63-.62-.95-1.5-.95-2.64s.29-2.07.88-2.71c.58-.64,1.39-.96,2.43-.96s1.76.28,2.3.84c.55.56.83,1.34.83,2.33v.92h-4.5c.02.54.18.96.48,1.27.3.3.72.46,1.26.46.42,0,.82-.04,1.19-.13.38-.09.77-.23,1.17-.42v1.47c-.33.17-.69.29-1.07.37s-.84.12-1.39.12Zm-.27-5.88c-.4,0-.72.13-.95.38-.23.26-.36.62-.39,1.09h2.67c0-.47-.13-.83-.37-1.09-.24-.26-.56-.38-.96-.38Z"/><path d="m97.61,166.83c-.82,0-1.46-.3-1.93-.89h-.1c.07.58.1.92.1,1.01v2.83h-1.91v-10.06h1.55l.27.91h.09c.45-.69,1.11-1.04,1.98-1.04.82,0,1.47.32,1.94.96.47.64.7,1.52.7,2.65,0,.75-.11,1.39-.33,1.94-.22.55-.53.97-.93,1.25-.4.29-.88.43-1.42.43Zm-.56-5.72c-.47,0-.81.14-1.03.43-.22.29-.33.77-.34,1.43v.21c0,.75.11,1.29.33,1.61.22.32.58.49,1.06.49.85,0,1.28-.7,1.28-2.11,0-.69-.11-1.2-.32-1.55-.21-.34-.54-.52-.99-.52Z"/><path d="m108.22,163.2c0,1.14-.3,2.03-.9,2.67-.6.64-1.43.96-2.5.96-.67,0-1.26-.15-1.77-.44-.51-.29-.91-.72-1.18-1.27-.28-.55-.41-1.19-.41-1.92,0-1.14.3-2.03.89-2.66.6-.63,1.43-.95,2.51-.95.67,0,1.26.15,1.77.44.51.29.91.71,1.18,1.26.27.54.41,1.18.41,1.92Zm-4.83,0c0,.69.11,1.21.34,1.57.23.35.6.53,1.11.53s.87-.18,1.1-.53.33-.88.33-1.57-.11-1.21-.34-1.55-.59-.52-1.11-.52-.88.17-1.1.51c-.22.34-.34.86-.34,1.56Z"/><path d="m111.7,166.71h-1.91v-9.72h1.91v9.72Z"/><path d="m113.61,158.96v-.17c.72-.83,1.21-1.46,1.47-1.88h2.14v.13c-.22.22-.59.54-1.11.96-.52.43-.93.75-1.23.95h-1.27Zm2,7.75h-1.91v-6.98h1.91v6.98Z"/><path d="m120.55,165.31c.33,0,.73-.07,1.2-.22v1.42c-.47.21-1.06.32-1.75.32-.76,0-1.32-.19-1.66-.58s-.52-.96-.52-1.73v-3.37h-.91v-.81l1.05-.64.55-1.47h1.22v1.49h1.96v1.43h-1.96v3.37c0,.27.08.47.23.6.15.13.35.19.6.19Z"/><path d="m123.08,157.92c0-.62.35-.93,1.04-.93s1.04.31,1.04.93c0,.3-.09.53-.26.69-.17.16-.43.25-.78.25-.69,0-1.04-.31-1.04-.94Zm1.99,8.79h-1.91v-6.98h1.91v6.98Z"/><path d="m129.9,166.83c-2.17,0-3.26-1.19-3.26-3.58,0-1.19.3-2.09.89-2.72.59-.63,1.44-.94,2.54-.94.81,0,1.53.16,2.17.47l-.56,1.47c-.3-.12-.58-.22-.84-.3-.26-.08-.52-.12-.77-.12-.99,0-1.49.7-1.49,2.11s.5,2.05,1.49,2.05c.37,0,.71-.05,1.02-.15.31-.1.62-.25.94-.46v1.63c-.31.2-.62.33-.93.41-.31.07-.71.11-1.19.11Z"/><path d="m139.98,163.2c0,1.14-.3,2.03-.9,2.67-.6.64-1.43.96-2.5.96-.67,0-1.26-.15-1.77-.44-.51-.29-.91-.72-1.18-1.27-.28-.55-.41-1.19-.41-1.92,0-1.14.3-2.03.89-2.66.6-.63,1.43-.95,2.51-.95.67,0,1.26.15,1.77.44.51.29.91.71,1.18,1.26.27.54.41,1.18.41,1.92Zm-4.83,0c0,.69.11,1.21.34,1.57.23.35.6.53,1.11.53s.87-.18,1.1-.53.33-.88.33-1.57-.11-1.21-.34-1.55-.59-.52-1.11-.52-.88.17-1.1.51c-.22.34-.34.86-.34,1.56Z"/><path d="m28.28,173.74c-1,0-1.8.33-2.38,1-.58.67-.87,1.58-.87,2.75s.28,2.12.84,2.77c.56.65,1.36.98,2.4.98.64,0,1.36-.11,2.18-.34v.93c-.63.24-1.41.36-2.34.36-1.34,0-2.38-.41-3.11-1.22-.73-.82-1.1-1.98-1.1-3.48,0-.94.18-1.77.53-2.47s.86-1.25,1.52-1.64c.66-.38,1.45-.58,2.35-.58.96,0,1.79.17,2.51.53l-.45.91c-.69-.33-1.38-.49-2.07-.49Z"/><path d="m33.32,182.06h-1.04v-9.72h1.04v9.72Z"/><path d="m35.44,173.36c0-.24.06-.41.18-.52.12-.11.26-.17.44-.17s.31.06.43.17c.12.11.18.29.18.52s-.06.41-.18.52c-.12.12-.26.17-.43.17-.17,0-.32-.06-.44-.17-.12-.11-.18-.29-.18-.52Zm1.12,8.7h-1.04v-6.85h1.04v6.85Z"/><path d="m47.49,182.06v-4.45c0-.55-.12-.96-.35-1.23-.23-.27-.6-.41-1.09-.41-.65,0-1.12.19-1.43.56-.31.37-.46.94-.46,1.71v3.82h-1.04v-4.45c0-.55-.12-.96-.35-1.23-.23-.27-.6-.41-1.09-.41-.65,0-1.13.19-1.43.58-.3.39-.45,1.03-.45,1.91v3.59h-1.04v-6.85h.84l.17.94h.05c.2-.33.47-.59.83-.78.36-.19.75-.28,1.2-.28,1.07,0,1.77.39,2.1,1.16h.05c.2-.36.5-.64.89-.85.39-.21.83-.31,1.33-.31.77,0,1.35.2,1.74.6.38.4.58,1.03.58,1.91v4.47h-1.04Z"/><path d="m54.87,182.06l-.21-.97h-.05c-.34.43-.68.72-1.02.87-.34.15-.76.23-1.27.23-.68,0-1.21-.17-1.6-.52-.39-.35-.58-.85-.58-1.49,0-1.38,1.11-2.11,3.32-2.17l1.16-.04v-.42c0-.54-.12-.93-.35-1.19-.23-.26-.6-.38-1.11-.38-.57,0-1.22.17-1.94.52l-.32-.79c.34-.18.71-.33,1.11-.43.4-.1.8-.16,1.21-.16.82,0,1.42.18,1.81.54s.59.94.59,1.74v4.67h-.77Zm-2.34-.73c.65,0,1.15-.18,1.52-.53.37-.35.55-.85.55-1.49v-.62l-1.04.04c-.82.03-1.42.16-1.78.38-.36.23-.55.58-.55,1.06,0,.38.11.66.34.86.23.2.54.29.95.29Z"/><path d="m65.78,182.06v-4.43c0-.56-.13-.97-.38-1.25-.25-.28-.65-.41-1.19-.41-.72,0-1.24.19-1.57.58-.33.39-.5,1.03-.5,1.92v3.59h-1.04v-6.85h.84l.17.94h.05c.21-.34.51-.6.89-.78.38-.19.81-.28,1.28-.28.82,0,1.45.2,1.86.6.42.4.62,1.03.62,1.91v4.47h-1.04Z"/><path d="m73.16,182.06l-.21-.97h-.05c-.34.43-.68.72-1.02.87-.34.15-.76.23-1.27.23-.68,0-1.21-.17-1.6-.52-.39-.35-.58-.85-.58-1.49,0-1.38,1.11-2.11,3.32-2.17l1.16-.04v-.42c0-.54-.12-.93-.35-1.19-.23-.26-.6-.38-1.11-.38-.57,0-1.22.17-1.94.52l-.32-.79c.34-.18.71-.33,1.11-.43.4-.1.8-.16,1.21-.16.82,0,1.42.18,1.81.54s.59.94.59,1.74v4.67h-.77Zm-2.34-.73c.65,0,1.15-.18,1.52-.53.37-.35.55-.85.55-1.49v-.62l-1.04.04c-.82.03-1.42.16-1.78.38-.36.23-.55.58-.55,1.06,0,.38.11.66.34.86.23.2.54.29.95.29Z"/><path d="m78.8,182.18c-.99,0-1.76-.3-2.3-.92-.54-.61-.81-1.47-.81-2.59s.28-2.03.83-2.66c.55-.62,1.34-.94,2.36-.94.33,0,.66.04.99.11.33.07.59.15.78.25l-.32.88c-.23-.09-.48-.17-.75-.23s-.51-.09-.72-.09c-1.39,0-2.09.89-2.09,2.66,0,.84.17,1.49.51,1.94.34.45.84.67,1.51.67.57,0,1.16-.12,1.75-.37v.92c-.46.24-1.04.36-1.73.36Z"/><path d="m82.06,173.36c0-.24.06-.41.17-.52.12-.11.26-.17.44-.17s.31.06.43.17c.12.11.18.29.18.52s-.06.41-.18.52c-.12.12-.26.17-.43.17s-.32-.06-.44-.17c-.12-.11-.17-.29-.17-.52Zm1.12,8.7h-1.04v-6.85h1.04v6.85Z"/><path d="m91.3,178.63c0,1.12-.28,1.99-.84,2.61-.56.63-1.34.94-2.33.94-.61,0-1.16-.14-1.63-.43s-.84-.7-1.1-1.24c-.26-.54-.39-1.17-.39-1.89,0-1.12.28-1.99.84-2.61.56-.62,1.33-.93,2.32-.93s1.72.32,2.28.96c.56.64.85,1.5.85,2.59Zm-5.22,0c0,.87.17,1.54.52,2,.35.46.86.69,1.54.69s1.19-.23,1.55-.68.53-1.12.53-2-.18-1.53-.53-1.98-.87-.68-1.56-.68-1.19.22-1.54.67c-.35.45-.52,1.11-.52,1.99Z"/><path d="m97.8,182.06v-4.43c0-.56-.13-.97-.38-1.25-.25-.28-.65-.41-1.19-.41-.72,0-1.24.19-1.57.58-.33.39-.5,1.03-.5,1.92v3.59h-1.04v-6.85h.84l.17.94h.05c.21-.34.51-.6.89-.78.38-.19.81-.28,1.28-.28.82,0,1.45.2,1.86.6.42.4.62,1.03.62,1.91v4.47h-1.04Z"/><path d="m105.18,182.06l-.21-.97h-.05c-.34.43-.68.72-1.02.87-.34.15-.76.23-1.27.23-.68,0-1.21-.17-1.6-.52-.39-.35-.58-.85-.58-1.49,0-1.38,1.11-2.11,3.32-2.17l1.16-.04v-.42c0-.54-.12-.93-.35-1.19-.23-.26-.6-.38-1.11-.38-.57,0-1.22.17-1.94.52l-.32-.79c.34-.18.71-.33,1.11-.43.4-.1.8-.16,1.21-.16.82,0,1.42.18,1.81.54s.59.94.59,1.74v4.67h-.77Zm-2.34-.73c.65,0,1.15-.18,1.52-.53.37-.35.55-.85.55-1.49v-.62l-1.04.04c-.82.03-1.42.16-1.78.38-.36.23-.55.58-.55,1.06,0,.38.11.66.34.86.23.2.54.29.95.29Z"/><path d="m109.12,182.06h-1.04v-9.72h1.04v9.72Z"/><path d="m112.4,180.57l.09.14c-.11.42-.26.9-.47,1.45s-.42,1.07-.64,1.54h-.78c.11-.43.24-.97.37-1.61.13-.64.23-1.15.28-1.53h1.14Z"/><path d="m120.86,176.02h-1.74v6.04h-1.04v-6.04h-1.22v-.47l1.22-.38v-.38c0-1.68.74-2.52,2.21-2.52.36,0,.79.07,1.27.22l-.27.83c-.4-.13-.74-.19-1.02-.19-.39,0-.68.13-.87.39-.19.26-.28.68-.28,1.25v.44h1.74v.81Z"/><path d="m128.02,178.63c0,1.12-.28,1.99-.84,2.61-.56.63-1.34.94-2.33.94-.61,0-1.16-.14-1.63-.43s-.84-.7-1.1-1.24c-.26-.54-.39-1.17-.39-1.89,0-1.12.28-1.99.84-2.61.56-.62,1.33-.93,2.32-.93s1.72.32,2.28.96c.56.64.85,1.5.85,2.59Zm-5.22,0c0,.87.17,1.54.52,2,.35.46.86.69,1.54.69s1.19-.23,1.55-.68.53-1.12.53-2-.18-1.53-.53-1.98-.87-.68-1.56-.68-1.19.22-1.54.67c-.35.45-.52,1.11-.52,1.99Z"/><path d="m132.96,175.09c.3,0,.58.02.82.08l-.14.96c-.28-.06-.53-.09-.75-.09-.55,0-1.03.22-1.42.67-.39.45-.59,1.01-.59,1.68v3.67h-1.04v-6.85h.86l.12,1.27h.05c.25-.45.56-.79.92-1.03s.75-.36,1.18-.36Z"/><path d="m137.79,182.18c-.99,0-1.76-.3-2.3-.92-.54-.61-.81-1.47-.81-2.59s.28-2.03.83-2.66c.55-.62,1.34-.94,2.36-.94.33,0,.66.04.99.11.33.07.59.15.78.25l-.32.88c-.23-.09-.48-.17-.75-.23s-.51-.09-.72-.09c-1.39,0-2.09.89-2.09,2.66,0,.84.17,1.49.51,1.94.34.45.84.67,1.51.67.57,0,1.16-.12,1.75-.37v.92c-.46.24-1.04.36-1.73.36Zm.92,1.68c0,.4-.16.72-.48.94s-.79.33-1.42.33c-.21,0-.41-.02-.6-.06v-.66c.19.03.4.05.65.05.33,0,.58-.04.75-.12.17-.08.25-.24.25-.46,0-.18-.08-.32-.25-.43-.17-.11-.47-.2-.93-.27l.55-1.11h.69l-.34.72c.75.16,1.12.52,1.12,1.09Z"/><path d="m145.36,182.06l-.21-.97h-.05c-.34.43-.68.72-1.02.87-.34.15-.76.23-1.27.23-.68,0-1.21-.17-1.6-.52-.39-.35-.58-.85-.58-1.49,0-1.38,1.11-2.11,3.32-2.17l1.16-.04v-.42c0-.54-.12-.93-.35-1.19-.23-.26-.6-.38-1.11-.38-.57,0-1.22.17-1.94.52l-.32-.79c.34-.18.71-.33,1.11-.43.4-.1.8-.16,1.21-.16.82,0,1.42.18,1.81.54s.59.94.59,1.74v4.67h-.77Zm-2.34-.73c.65,0,1.15-.18,1.52-.53.37-.35.55-.85.55-1.49v-.62l-1.04.04c-.82.03-1.42.16-1.78.38-.36.23-.55.58-.55,1.06,0,.38.11.66.34.86.23.2.54.29.95.29Z"/><path d="m152.68,180.19c0,.64-.24,1.13-.71,1.47s-1.14.52-2,.52c-.91,0-1.62-.14-2.12-.43v-.96c.33.17.68.3,1.06.39s.74.14,1.09.14c.54,0,.96-.09,1.25-.26.29-.17.44-.44.44-.79,0-.27-.12-.49-.35-.68-.23-.19-.68-.41-1.35-.67-.64-.24-1.09-.44-1.36-.62s-.47-.38-.6-.6c-.13-.23-.2-.49-.2-.81,0-.56.23-1,.68-1.32.45-.32,1.08-.48,1.87-.48.74,0,1.46.15,2.16.45l-.37.84c-.69-.28-1.31-.42-1.87-.42-.49,0-.86.08-1.11.23-.25.15-.37.37-.37.64,0,.18.05.34.14.47s.24.25.45.37c.21.12.61.29,1.2.51.81.3,1.36.59,1.65.89s.43.68.43,1.13Z"/><path d="m24.86,197.53c-.45,0-.85-.08-1.22-.25-.37-.17-.68-.42-.93-.76h-.07c.05.4.07.78.07,1.14v2.82h-1.04v-9.92h.84l.14.94h.05c.27-.38.58-.65.93-.81.35-.17.76-.25,1.22-.25.91,0,1.61.31,2.1.93.49.62.74,1.49.74,2.61s-.25,2-.75,2.62c-.5.62-1.2.93-2.09.93Zm-.15-6.21c-.7,0-1.21.19-1.52.58-.31.39-.47,1-.48,1.85v.23c0,.96.16,1.65.48,2.06.32.41.83.62,1.54.62.59,0,1.05-.24,1.39-.72.34-.48.5-1.14.5-1.98s-.17-1.51-.5-1.96c-.33-.46-.81-.68-1.41-.68Z"/><path d="m35.42,193.98c0,1.12-.28,1.99-.84,2.61-.56.63-1.34.94-2.33.94-.61,0-1.16-.14-1.63-.43s-.84-.7-1.1-1.24-.39-1.17-.39-1.89c0-1.12.28-1.99.84-2.61.56-.62,1.33-.93,2.32-.93s1.72.32,2.28.96c.56.64.85,1.5.85,2.59Zm-5.22,0c0,.87.17,1.54.52,2,.35.46.86.69,1.54.69s1.19-.23,1.55-.68.53-1.12.53-2-.18-1.53-.53-1.98-.87-.68-1.56-.68-1.19.22-1.54.67c-.35.45-.52,1.11-.52,1.99Z"/><path d="m38.28,197.41h-1.04v-9.72h1.04v9.72Z"/><path d="m40.43,189.5c.2-.26.42-.57.65-.94s.41-.68.55-.96h1.26v.13c-.18.27-.46.6-.82,1s-.68.7-.94.92h-.69v-.16Zm1.08,7.91h-1.04v-6.85h1.04v6.85Z"/><path d="m45.92,196.68c.18,0,.36-.01.53-.04.17-.03.3-.05.41-.08v.79c-.11.05-.28.1-.5.13-.22.04-.42.05-.59.05-1.32,0-1.99-.7-1.99-2.09v-4.07h-.98v-.5l.98-.43.44-1.46h.6v1.59h1.99v.81h-1.99v4.03c0,.41.1.73.29.95s.46.33.81.33Z"/><path d="m48.14,188.71c0-.24.06-.41.17-.52.12-.11.26-.17.44-.17s.31.06.43.17c.12.11.18.29.18.52s-.06.41-.18.52c-.12.12-.26.17-.43.17s-.32-.06-.44-.17c-.12-.11-.17-.29-.17-.52Zm1.12,8.7h-1.04v-6.85h1.04v6.85Z"/><path d="m54.2,197.53c-.99,0-1.76-.3-2.3-.92-.54-.61-.81-1.47-.81-2.59s.28-2.03.83-2.66c.55-.62,1.34-.94,2.36-.94.33,0,.66.04.99.11.33.07.59.15.78.25l-.32.88c-.23-.09-.48-.17-.75-.23s-.51-.09-.72-.09c-1.39,0-2.09.89-2.09,2.66,0,.84.17,1.49.51,1.94.34.45.84.67,1.51.67.57,0,1.16-.12,1.75-.37v.92c-.46.24-1.04.36-1.73.36Z"/><path d="m61.76,197.41l-.21-.97h-.05c-.34.43-.68.72-1.02.87-.34.15-.76.23-1.27.23-.68,0-1.21-.17-1.6-.52-.39-.35-.58-.85-.58-1.49,0-1.38,1.11-2.11,3.32-2.17l1.16-.04v-.42c0-.54-.12-.93-.35-1.19-.23-.26-.6-.38-1.11-.38-.57,0-1.22.17-1.94.52l-.32-.79c.34-.18.71-.33,1.11-.43.4-.1.8-.16,1.21-.16.82,0,1.42.18,1.81.54s.59.94.59,1.74v4.67h-.77Zm-2.34-.73c.65,0,1.15-.18,1.52-.53.37-.35.55-.85.55-1.49v-.62l-1.04.04c-.82.03-1.42.16-1.78.38-.36.23-.55.58-.55,1.06,0,.38.11.66.34.86.23.2.54.29.95.29Z"/><path d="m69.08,195.54c0,.64-.24,1.13-.71,1.47s-1.14.52-2,.52c-.91,0-1.62-.14-2.12-.43v-.96c.33.17.68.3,1.06.39s.74.14,1.09.14c.54,0,.96-.09,1.25-.26.29-.17.44-.44.44-.79,0-.27-.12-.49-.35-.68-.23-.19-.68-.41-1.35-.67-.64-.24-1.09-.44-1.36-.62s-.47-.38-.6-.6c-.13-.23-.2-.49-.2-.81,0-.56.23-1,.68-1.32.45-.32,1.08-.48,1.87-.48.74,0,1.46.15,2.16.45l-.37.84c-.69-.28-1.31-.42-1.87-.42-.49,0-.86.08-1.11.23-.25.15-.37.37-.37.64,0,.18.05.34.14.47s.24.25.45.37c.21.12.61.29,1.2.51.81.3,1.36.59,1.65.89s.43.68.43,1.13Z"/><path d="m80,193.98c0,1.12-.28,1.99-.84,2.61-.56.63-1.34.94-2.33.94-.61,0-1.16-.14-1.63-.43s-.84-.7-1.1-1.24c-.26-.54-.39-1.17-.39-1.89,0-1.12.28-1.99.84-2.61.56-.62,1.33-.93,2.32-.93s1.72.32,2.28.96c.56.64.85,1.5.85,2.59Zm-5.22,0c0,.87.17,1.54.52,2,.35.46.86.69,1.54.69s1.19-.23,1.55-.68.53-1.12.53-2-.18-1.53-.53-1.98-.87-.68-1.56-.68-1.19.22-1.54.67c-.35.45-.52,1.11-.52,1.99Z"/><path d="m84.94,190.44c.3,0,.58.02.82.08l-.14.96c-.28-.06-.53-.09-.75-.09-.55,0-1.03.22-1.42.67-.39.45-.59,1.01-.59,1.68v3.67h-1.04v-6.85h.86l.12,1.27h.05c.25-.45.56-.79.92-1.03s.75-.36,1.18-.36Z"/><path d="m92.64,190.56v.66l-1.27.15c.12.15.22.34.31.57.09.24.14.5.14.8,0,.67-.23,1.21-.69,1.61-.46.4-1.09.6-1.89.6-.2,0-.4-.02-.57-.05-.44.23-.66.53-.66.88,0,.19.08.33.23.42s.42.13.79.13h1.21c.74,0,1.31.16,1.71.47s.6.77.6,1.36c0,.76-.3,1.34-.91,1.73-.61.4-1.5.6-2.66.6-.9,0-1.59-.17-2.07-.5-.49-.33-.73-.8-.73-1.41,0-.42.13-.78.4-1.08.27-.3.64-.51,1.12-.62-.17-.08-.32-.2-.44-.37-.12-.17-.18-.36-.18-.58,0-.25.07-.47.2-.66.13-.19.34-.37.63-.54-.35-.15-.64-.39-.87-.74-.22-.35-.33-.75-.33-1.2,0-.75.22-1.33.67-1.73.45-.41,1.09-.61,1.91-.61.36,0,.68.04.97.12h2.37Zm-5.46,8c0,.37.16.65.47.84.31.19.76.29,1.34.29.87,0,1.51-.13,1.93-.39.42-.26.63-.61.63-1.06,0-.37-.11-.63-.34-.77-.23-.14-.66-.22-1.29-.22h-1.24c-.47,0-.84.11-1.1.34-.26.22-.39.55-.39.97Zm.56-5.8c0,.48.13.84.41,1.09s.65.37,1.13.37c1.01,0,1.52-.49,1.52-1.47s-.51-1.54-1.54-1.54c-.49,0-.86.13-1.12.39-.26.26-.39.65-.39,1.17Z"/><path d="m98.26,197.41l-.21-.97h-.05c-.34.43-.68.72-1.02.87-.34.15-.76.23-1.27.23-.68,0-1.21-.17-1.6-.52-.39-.35-.58-.85-.58-1.49,0-1.38,1.11-2.11,3.32-2.17l1.16-.04v-.42c0-.54-.12-.93-.35-1.19-.23-.26-.6-.38-1.11-.38-.57,0-1.22.17-1.94.52l-.32-.79c.34-.18.71-.33,1.11-.43.4-.1.8-.16,1.21-.16.82,0,1.42.18,1.81.54s.59.94.59,1.74v4.67h-.77Zm-2.34-.73c.65,0,1.15-.18,1.52-.53.37-.35.55-.85.55-1.49v-.62l-1.04.04c-.82.03-1.42.16-1.78.38-.36.23-.55.58-.55,1.06,0,.38.11.66.34.86.23.2.54.29.95.29Z"/><path d="m105.85,197.41v-4.43c0-.56-.13-.97-.38-1.25-.25-.28-.65-.41-1.19-.41-.72,0-1.24.19-1.57.58-.33.39-.5,1.03-.5,1.92v3.59h-1.04v-6.85h.84l.17.94h.05c.21-.34.51-.6.89-.78.38-.19.81-.28,1.28-.28.82,0,1.45.2,1.86.6.42.4.62,1.03.62,1.91v4.47h-1.04Z"/><path d="m108.93,188.71c0-.24.06-.41.17-.52.12-.11.26-.17.44-.17s.31.06.43.17c.12.11.18.29.18.52s-.06.41-.18.52c-.12.12-.26.17-.43.17s-.32-.06-.44-.17c-.12-.11-.17-.29-.17-.52Zm1.12,8.7h-1.04v-6.85h1.04v6.85Z"/><path d="m116.63,197.41h-4.97v-.71l3.74-5.33h-3.5v-.81h4.64v.81l-3.69,5.23h3.78v.81Z"/><path d="m122.45,197.41l-.21-.97h-.05c-.34.43-.68.72-1.02.87-.34.15-.76.23-1.27.23-.68,0-1.21-.17-1.6-.52-.39-.35-.58-.85-.58-1.49,0-1.38,1.11-2.11,3.32-2.17l1.16-.04v-.42c0-.54-.12-.93-.35-1.19-.23-.26-.6-.38-1.11-.38-.57,0-1.22.17-1.94.52l-.32-.79c.34-.18.71-.33,1.11-.43.4-.1.8-.16,1.21-.16.82,0,1.42.18,1.81.54s.59.94.59,1.74v4.67h-.77Zm-2.34-.73c.65,0,1.15-.18,1.52-.53.37-.35.55-.85.55-1.49v-.62l-1.04.04c-.82.03-1.42.16-1.78.38-.36.23-.55.58-.55,1.06,0,.38.11.66.34.86.23.2.54.29.95.29Z"/><path d="m130.01,196.49h-.06c-.48.7-1.2,1.04-2.15,1.04-.9,0-1.59-.31-2.09-.92-.5-.61-.75-1.48-.75-2.61s.25-2,.75-2.63c.5-.62,1.2-.94,2.09-.94s1.64.34,2.14,1.01h.08l-.04-.49-.02-.48v-2.79h1.04v9.72h-.84l-.14-.92Zm-2.07.17c.71,0,1.22-.19,1.54-.58.32-.38.48-1.01.48-1.86v-.22c0-.97-.16-1.66-.48-2.08-.32-.41-.84-.62-1.55-.62-.61,0-1.07.24-1.4.71-.32.47-.48,1.14-.48,2s.16,1.53.48,1.98c.32.45.79.67,1.41.67Z"/><path d="m137.4,197.41l-.21-.97h-.05c-.34.43-.68.72-1.02.87-.34.15-.76.23-1.27.23-.68,0-1.21-.17-1.6-.52-.39-.35-.58-.85-.58-1.49,0-1.38,1.11-2.11,3.32-2.17l1.16-.04v-.42c0-.54-.12-.93-.35-1.19-.23-.26-.6-.38-1.11-.38-.57,0-1.22.17-1.94.52l-.32-.79c.34-.18.71-.33,1.11-.43.4-.1.8-.16,1.21-.16.82,0,1.42.18,1.81.54s.59.94.59,1.74v4.67h-.77Zm-2.34-.73c.65,0,1.15-.18,1.52-.53.37-.35.55-.85.55-1.49v-.62l-1.04.04c-.82.03-1.42.16-1.78.38-.36.23-.55.58-.55,1.06,0,.38.11.66.34.86.23.2.54.29.95.29Z"/><path d="m144.72,195.54c0,.64-.24,1.13-.71,1.47s-1.14.52-2,.52c-.91,0-1.62-.14-2.12-.43v-.96c.33.17.68.3,1.06.39s.74.14,1.09.14c.54,0,.96-.09,1.25-.26.29-.17.44-.44.44-.79,0-.27-.12-.49-.35-.68-.23-.19-.68-.41-1.35-.67-.64-.24-1.09-.44-1.36-.62s-.47-.38-.6-.6c-.13-.23-.2-.49-.2-.81,0-.56.23-1,.68-1.32.45-.32,1.08-.48,1.87-.48.74,0,1.46.15,2.16.45l-.37.84c-.69-.28-1.31-.42-1.87-.42-.49,0-.86.08-1.11.23-.25.15-.37.37-.37.64,0,.18.05.34.14.47s.24.25.45.37c.21.12.61.29,1.2.51.81.3,1.36.59,1.65.89s.43.68.43,1.13Z"/><path d="m152.62,197.53c-1.01,0-1.81-.31-2.4-.92-.58-.62-.88-1.47-.88-2.57s.27-1.98.81-2.63c.54-.65,1.27-.97,2.19-.97.86,0,1.54.28,2.04.85.5.56.75,1.31.75,2.23v.66h-4.72c.02.8.22,1.41.61,1.83.39.42.93.62,1.63.62.74,0,1.47-.15,2.19-.46v.92c-.37.16-.71.27-1.04.34-.33.07-.72.1-1.18.1Zm-.28-6.23c-.55,0-.99.18-1.31.54s-.52.85-.58,1.49h3.58c0-.65-.15-1.15-.44-1.5-.29-.35-.71-.52-1.25-.52Z"/><path d="m31.41,212.76v-4.45c0-.54-.12-.95-.35-1.23-.23-.27-.6-.41-1.09-.41-.65,0-1.12.19-1.43.56-.31.37-.46.94-.46,1.71v3.82h-1.04v-4.45c0-.54-.12-.95-.35-1.23-.23-.27-.6-.41-1.09-.41-.65,0-1.13.2-1.43.58-.3.39-.45,1.03-.45,1.92v3.59h-1.04v-6.85h.84l.17.94h.05c.2-.33.47-.59.83-.78.36-.19.75-.28,1.2-.28,1.07,0,1.77.39,2.1,1.16h.05c.2-.36.5-.64.89-.85.39-.21.83-.31,1.32-.31.77,0,1.35.2,1.74.6s.58,1.03.58,1.91v4.47h-1.04Z"/><path d="m35.56,205.91v4.44c0,.56.13.97.38,1.25.25.28.65.41,1.19.41.72,0,1.24-.2,1.57-.59.33-.39.5-1.03.5-1.92v-3.6h1.04v6.85h-.86l-.15-.92h-.06c-.21.34-.51.6-.88.78-.38.18-.81.27-1.29.27-.83,0-1.46-.2-1.87-.59-.41-.4-.62-1.03-.62-1.9v-4.48h1.05Z"/><path d="m47.1,211.84h-.06c-.48.7-1.19,1.04-2.15,1.04-.9,0-1.59-.31-2.09-.92-.5-.61-.75-1.48-.75-2.61s.25-2.01.75-2.63c.5-.62,1.2-.94,2.09-.94s1.64.34,2.14,1.01h.08l-.04-.49-.03-.48v-2.79h1.04v9.72h-.84l-.14-.92Zm-2.07.18c.71,0,1.22-.19,1.54-.58.32-.38.48-1.01.48-1.86v-.22c0-.97-.16-1.66-.48-2.08-.32-.41-.84-.62-1.55-.62-.61,0-1.07.24-1.4.71-.32.47-.48,1.14-.48,2s.16,1.53.48,1.98c.32.45.79.67,1.41.67Z"/><path d="m54.49,212.76l-.21-.97h-.05c-.34.43-.68.72-1.02.87-.34.15-.76.23-1.27.23-.68,0-1.21-.17-1.6-.53-.39-.35-.58-.85-.58-1.49,0-1.38,1.11-2.11,3.32-2.17l1.16-.04v-.42c0-.54-.12-.93-.35-1.19-.23-.26-.6-.38-1.11-.38-.57,0-1.22.18-1.94.53l-.32-.79c.34-.18.71-.33,1.11-.43.4-.1.8-.16,1.21-.16.82,0,1.42.18,1.81.54s.59.94.59,1.74v4.67h-.77Zm-2.34-.73c.65,0,1.15-.18,1.52-.53.37-.35.55-.85.55-1.49v-.62l-1.04.04c-.82.03-1.42.16-1.78.38-.36.23-.55.58-.55,1.06,0,.38.11.66.34.86.23.2.54.29.95.29Z"/><path d="m62.08,212.76v-4.43c0-.56-.13-.97-.38-1.25-.25-.27-.65-.41-1.19-.41-.72,0-1.24.19-1.57.58-.33.39-.5,1.03-.5,1.92v3.59h-1.04v-6.85h.84l.17.94h.05c.21-.34.51-.6.89-.78.38-.19.81-.28,1.28-.28.82,0,1.45.2,1.86.6.42.4.62,1.03.62,1.91v4.47h-1.04Z"/><path d="m67.98,212.89c-.99,0-1.76-.31-2.3-.92-.54-.61-.81-1.47-.81-2.59s.28-2.03.83-2.65c.55-.62,1.34-.94,2.36-.94.33,0,.66.04.99.11.33.07.59.15.78.25l-.32.88c-.23-.09-.48-.17-.75-.23-.27-.06-.51-.09-.72-.09-1.39,0-2.09.89-2.09,2.66,0,.84.17,1.49.51,1.94.34.45.84.67,1.51.67.57,0,1.16-.12,1.75-.37v.92c-.46.24-1.04.36-1.73.36Zm.92,1.68c0,.4-.16.72-.48.94s-.79.33-1.42.33c-.21,0-.41-.02-.6-.06v-.66c.19.03.4.05.65.05.33,0,.58-.04.75-.12.17-.08.25-.24.25-.46,0-.18-.08-.32-.25-.43-.17-.11-.47-.2-.93-.27l.55-1.11h.69l-.34.72c.75.16,1.12.53,1.12,1.09Z"/><path d="m75.54,212.76l-.21-.97h-.05c-.34.43-.68.72-1.02.87-.34.15-.76.23-1.27.23-.68,0-1.21-.17-1.6-.53-.39-.35-.58-.85-.58-1.49,0-1.38,1.11-2.11,3.32-2.17l1.16-.04v-.42c0-.54-.12-.93-.35-1.19-.23-.26-.6-.38-1.11-.38-.57,0-1.22.18-1.94.53l-.32-.79c.34-.18.71-.33,1.11-.43.4-.1.8-.16,1.21-.16.82,0,1.42.18,1.81.54s.59.94.59,1.74v4.67h-.77Zm-2.34-.73c.65,0,1.15-.18,1.52-.53.37-.35.55-.85.55-1.49v-.62l-1.04.04c-.82.03-1.42.16-1.78.38-.36.23-.55.58-.55,1.06,0,.38.11.66.34.86.23.2.54.29.95.29Z"/><path d="m82.86,210.89c0,.64-.24,1.13-.71,1.47s-1.14.52-2,.52c-.91,0-1.62-.14-2.12-.43v-.96c.33.17.68.3,1.06.39s.74.14,1.09.14c.54,0,.96-.09,1.25-.26.29-.17.44-.44.44-.79,0-.27-.12-.5-.35-.68-.23-.19-.68-.41-1.35-.67-.64-.24-1.09-.44-1.36-.62-.27-.18-.47-.38-.6-.6-.13-.22-.2-.49-.2-.81,0-.56.23-1,.68-1.32.45-.32,1.08-.48,1.87-.48.74,0,1.46.15,2.16.45l-.37.84c-.69-.28-1.31-.42-1.87-.42-.49,0-.86.08-1.11.23-.25.15-.37.37-.37.64,0,.18.05.34.14.47.09.13.24.25.45.37.21.12.61.29,1.2.51.81.3,1.36.59,1.65.89.29.3.43.68.43,1.13Z"/><path d="m92.56,212.76v-4.43c0-.56-.13-.97-.38-1.25-.25-.27-.65-.41-1.19-.41-.72,0-1.24.19-1.57.58-.33.39-.5,1.03-.5,1.92v3.59h-1.04v-6.85h.84l.17.94h.05c.21-.34.51-.6.89-.78.38-.19.81-.28,1.28-.28.82,0,1.45.2,1.86.6.42.4.62,1.03.62,1.91v4.47h-1.04Z"/><path d="m101.63,209.33c0,1.12-.28,1.99-.84,2.61-.56.63-1.34.94-2.33.94-.61,0-1.16-.14-1.63-.43-.47-.29-.84-.7-1.1-1.24-.26-.54-.39-1.17-.39-1.89,0-1.12.28-1.99.84-2.61.56-.62,1.33-.93,2.32-.93s1.72.32,2.28.96.85,1.5.85,2.59Zm-5.22,0c0,.88.17,1.54.52,2s.86.69,1.54.69,1.19-.23,1.55-.68.53-1.12.53-2-.18-1.53-.53-1.98c-.35-.45-.87-.68-1.56-.68s-1.19.22-1.54.67c-.35.45-.52,1.11-.52,1.99Z"/><path d="m112.38,205.91v.66l-1.27.15c.12.15.22.34.31.57.09.24.14.5.14.8,0,.67-.23,1.21-.69,1.61s-1.09.6-1.89.6c-.2,0-.4-.02-.57-.05-.44.23-.66.53-.66.88,0,.19.08.33.23.42.15.09.42.13.79.13h1.21c.74,0,1.31.16,1.71.47.4.31.6.77.6,1.36,0,.76-.3,1.34-.91,1.73-.61.4-1.5.6-2.66.6-.9,0-1.59-.17-2.07-.5-.49-.33-.73-.8-.73-1.41,0-.42.13-.78.4-1.08s.64-.51,1.12-.62c-.17-.08-.32-.2-.44-.37-.12-.17-.18-.36-.18-.58,0-.25.07-.47.2-.66.13-.19.34-.37.63-.54-.35-.15-.64-.39-.87-.74s-.33-.75-.33-1.2c0-.75.22-1.33.67-1.73.45-.41,1.09-.61,1.91-.61.36,0,.68.04.97.12h2.37Zm-5.46,8c0,.37.16.65.47.84.31.19.76.29,1.34.29.87,0,1.51-.13,1.93-.39.42-.26.63-.61.63-1.06,0-.37-.11-.63-.34-.77-.23-.14-.66-.22-1.29-.22h-1.24c-.47,0-.84.11-1.1.34-.26.23-.39.55-.39.97Zm.56-5.8c0,.48.13.84.41,1.09.27.25.65.37,1.13.37,1.01,0,1.52-.49,1.52-1.47s-.51-1.54-1.54-1.54c-.49,0-.86.13-1.12.39s-.39.65-.39,1.17Z"/><path d="m119.69,209.33c0,1.12-.28,1.99-.84,2.61-.56.63-1.34.94-2.33.94-.61,0-1.16-.14-1.63-.43-.47-.29-.84-.7-1.1-1.24-.26-.54-.39-1.17-.39-1.89,0-1.12.28-1.99.84-2.61.56-.62,1.33-.93,2.32-.93s1.72.32,2.28.96.85,1.5.85,2.59Zm-5.22,0c0,.88.17,1.54.52,2s.86.69,1.54.69,1.19-.23,1.55-.68.53-1.12.53-2-.18-1.53-.53-1.98c-.35-.45-.87-.68-1.56-.68s-1.19.22-1.54.67c-.35.45-.52,1.11-.52,1.99Z"/><path d="m123.01,212.76l-2.6-6.85h1.11l1.47,4.06c.33.95.53,1.57.59,1.85h.05c.04-.22.19-.68.43-1.37.24-.69.79-2.21,1.64-4.54h1.11l-2.6,6.85h-1.21Z"/><path d="m130.81,212.89c-1.01,0-1.81-.31-2.4-.92s-.88-1.47-.88-2.57.27-1.98.81-2.63c.54-.65,1.27-.97,2.19-.97.86,0,1.54.28,2.04.85.5.56.75,1.31.75,2.23v.66h-4.72c.02.8.22,1.41.61,1.83.39.42.93.62,1.63.62.74,0,1.47-.15,2.19-.46v.92c-.37.16-.71.27-1.04.34-.33.07-.72.1-1.18.1Zm-.28-6.23c-.55,0-.99.18-1.31.54-.33.36-.52.85-.58,1.49h3.58c0-.65-.15-1.15-.44-1.5-.29-.35-.71-.52-1.25-.52Z"/><path d="m138.22,205.79c.3,0,.58.03.82.08l-.14.96c-.28-.06-.53-.09-.75-.09-.55,0-1.03.22-1.42.67s-.59,1.01-.59,1.68v3.67h-1.04v-6.85h.86l.12,1.27h.05c.25-.45.56-.79.92-1.03.36-.24.75-.36,1.18-.36Z"/><path d="m145,212.76v-4.43c0-.56-.13-.97-.38-1.25-.25-.27-.65-.41-1.19-.41-.72,0-1.24.19-1.57.58-.33.39-.5,1.03-.5,1.92v3.59h-1.04v-6.85h.84l.17.94h.05c.21-.34.51-.6.89-.78.38-.19.81-.28,1.28-.28.82,0,1.45.2,1.86.6.42.4.62,1.03.62,1.91v4.47h-1.04Z"/><path d="m154.08,209.33c0,1.12-.28,1.99-.84,2.61-.56.63-1.34.94-2.33.94-.61,0-1.16-.14-1.63-.43-.47-.29-.84-.7-1.1-1.24-.26-.54-.39-1.17-.39-1.89,0-1.12.28-1.99.84-2.61.56-.62,1.33-.93,2.32-.93s1.72.32,2.28.96.85,1.5.85,2.59Zm-5.22,0c0,.88.17,1.54.52,2s.86.69,1.54.69,1.19-.23,1.55-.68.53-1.12.53-2-.18-1.53-.53-1.98c-.35-.45-.87-.68-1.56-.68s-1.19.22-1.54.67c-.35.45-.52,1.11-.52,1.99Z"/><path id="Caminho_16186-2" class="cls-5" d="m214.23,113.75c0-4.91-.36-9.82-1.06-14.69l19.84,13.32-19.46,13.1c.46-3.89.69-7.81.68-11.74Z"/><g id="Grupo_15072-2"><g class="cls-3"><g id="Grupo_20293"><g id="Grupo_15071-2"><path id="Caminho_24206-2" class="cls-5" d="m195.87-13.87l74.26,25.85-23.59,67.8-74.26-25.85,23.59-67.8Z"/></g></g></g></g><g id="Grupo_15072-2-2"><g class="cls-9"><g id="Grupo_20293-2"><g id="Grupo_15071-2-2"><path id="Caminho_24206-2-2" class="cls-5" d="m195.87,238.41l74.26-25.85-23.59-67.8-74.26,25.85,23.59,67.8Z"/></g></g></g></g></svg>