<?xml version="1.0" encoding="UTF-8"?><svg id="Camada_1" xmlns="http://www.w3.org/2000/svg" viewBox="0 0 641 232"><defs><style>.cls-1{fill:#016dae;}.cls-2{fill:#abd1dc;}.cls-3{fill:#ef6828;}</style></defs><path class="cls-1" d="m303.24,136.56v-11.73c0-8.91,1.82-16.44,5.46-22.58,3.64-6.14,10.09-12.12,19.37-17.94,7.37-4.64,12.66-8.82,15.89-12.55,3.23-3.73,4.84-8,4.84-12.82,0-3.82-1.73-6.84-5.18-9.07-3.46-2.23-7.96-3.34-13.5-3.34-13.73,0-29.78,4.87-48.15,14.6l-18.96-37.1c22.64-12.91,46.29-19.37,70.93-19.37,20.28,0,36.19,4.46,47.74,13.37,11.55,8.91,17.32,21.05,17.32,36.42,0,11-2.57,20.53-7.71,28.58-5.14,8.05-13.35,15.67-24.62,22.85-9.55,6.19-15.53,10.71-17.94,13.57-2.41,2.86-3.61,6.25-3.61,10.16v6.96h-41.88Zm-5.87,47.74c0-8.37,2.43-14.82,7.3-19.37,4.86-4.55,12.03-6.82,21.48-6.82s16.07,2.3,20.94,6.89c4.86,4.59,7.3,11.03,7.3,19.3s-2.52,14.69-7.57,19.23-11.94,6.82-20.67,6.82-16.05-2.25-21.14-6.75c-5.09-4.5-7.64-10.93-7.64-19.3Z"/><path id="Caminho_16186" class="cls-3" d="m448.48,40.38c2.79,6.76,6.05,13.32,9.76,19.62l-34.84-7.13,19.38-29.03c1.57,5.62,3.47,11.14,5.69,16.54Z"/><path id="Caminho_16186-2" class="cls-3" d="m448.48,191.46c2.79-6.76,6.05-13.32,9.76-19.62l-34.84,7.13,19.38,29.03c1.57-5.62,3.47-11.14,5.69-16.54Z"/><path id="Caminho_16186-3" class="cls-3" d="m198.17,191.46c-2.79-6.76-6.05-13.32-9.76-19.62l34.84,7.13-19.38,29.03c-1.57-5.62-3.47-11.14-5.69-16.54Z"/><path id="Caminho_16186-4" class="cls-3" d="m198.17,40.38c-2.79,6.76-6.05,13.32-9.76,19.62l34.84-7.13-19.38-29.03c-1.57,5.62-3.47,11.14-5.69,16.54Z"/><rect class="cls-2" width="158" height="70"/><g><path d="m17.61,15.83c0,1.37-.35,2.45-1.04,3.23s-1.66,1.18-2.89,1.18-2.24-.39-2.92-1.16-1.03-1.86-1.03-3.27.34-2.48,1.03-3.24,1.66-1.15,2.93-1.15,2.19.39,2.88,1.17,1.04,1.86,1.04,3.23Zm-6.83,0c0,1.16.25,2.04.74,2.64s1.21.9,2.15.9,1.67-.3,2.15-.9.73-1.48.73-2.64-.24-2.03-.72-2.62-1.2-.89-2.14-.89-1.67.3-2.17.9-.74,1.47-.74,2.62Z"/><path d="m24.77,20.24c-.83,0-1.47-.29-1.94-.87s-.7-1.39-.7-2.44.23-1.87.7-2.46,1.12-.88,1.96-.88c.88,0,1.55.33,2.03,1h.05l.14-.88h.77v9.3h-.97v-2.75c0-.39.02-.72.06-1h-.08c-.45.65-1.12.98-2.03.98Zm.15-.81c.65,0,1.12-.17,1.42-.52s.46-.93.47-1.76v-.22c0-.9-.15-1.54-.46-1.94s-.79-.59-1.45-.59c-.57,0-1.01.22-1.31.67s-.45,1.07-.45,1.88.15,1.42.45,1.85.74.64,1.33.64Z"/><path d="m30.76,13.7v4.17c0,.52.12.91.36,1.17s.61.39,1.12.39c.67,0,1.16-.18,1.47-.55s.47-.97.47-1.8v-3.38h.97v6.42h-.8l-.14-.86h-.05c-.2.32-.48.56-.83.73s-.76.25-1.21.25c-.78,0-1.37-.19-1.75-.56s-.58-.96-.58-1.78v-4.2h.98Z"/><path d="m41.16,20.12l-.19-.91h-.05c-.32.4-.64.67-.96.82s-.72.21-1.19.21c-.64,0-1.14-.16-1.5-.49s-.54-.79-.54-1.4c0-1.3,1.04-1.98,3.11-2.04l1.09-.04v-.4c0-.5-.11-.88-.33-1.12s-.56-.36-1.04-.36c-.54,0-1.14.16-1.82.49l-.3-.74c.32-.17.66-.31,1.04-.4s.75-.15,1.13-.15c.77,0,1.33.17,1.7.51s.55.88.55,1.63v4.38h-.72Zm-2.2-.69c.61,0,1.08-.17,1.43-.5s.52-.8.52-1.39v-.58l-.97.04c-.77.03-1.33.15-1.67.36s-.51.54-.51.99c0,.35.11.62.32.8s.51.28.89.28Z"/><path d="m48.28,20.12v-4.15c0-.52-.12-.91-.36-1.17s-.61-.39-1.12-.39c-.67,0-1.16.18-1.48.54s-.47.96-.47,1.8v3.37h-.97v-6.42h.79l.16.88h.05c.2-.32.48-.56.84-.74s.76-.26,1.2-.26c.77,0,1.36.19,1.75.56s.59.97.59,1.79v4.19h-.97Z"/><path d="m53.33,19.43c.17,0,.34-.01.5-.04s.29-.05.38-.08v.74c-.11.05-.26.09-.47.13s-.39.05-.55.05c-1.24,0-1.86-.65-1.86-1.96v-3.82h-.92v-.47l.92-.4.41-1.37h.56v1.49h1.86v.76h-1.86v3.78c0,.39.09.68.28.89s.44.31.76.31Z"/><path d="m61.03,16.9c0,1.05-.26,1.86-.79,2.45s-1.26.88-2.19.88c-.57,0-1.08-.13-1.53-.4s-.79-.66-1.03-1.16-.36-1.09-.36-1.77c0-1.05.26-1.86.79-2.45s1.25-.88,2.18-.88,1.61.3,2.14.9.79,1.41.79,2.43Zm-4.89,0c0,.82.16,1.45.49,1.88s.81.64,1.45.64,1.12-.21,1.45-.64.5-1.05.5-1.88-.17-1.44-.5-1.86-.82-.64-1.46-.64-1.12.21-1.44.63-.49,1.04-.49,1.87Z"/><path d="m68.57,20.24c-.95,0-1.7-.29-2.25-.87s-.82-1.38-.82-2.41.25-1.86.76-2.47,1.19-.91,2.05-.91c.8,0,1.44.26,1.91.79s.7,1.23.7,2.09v.62h-4.42c.02.75.21,1.33.57,1.72s.87.59,1.53.59c.69,0,1.38-.14,2.05-.43v.87c-.34.15-.67.25-.98.32s-.68.1-1.11.1Zm-.26-5.84c-.52,0-.93.17-1.23.5s-.49.8-.54,1.39h3.36c0-.61-.14-1.08-.41-1.41s-.66-.49-1.17-.49Z"/><path d="m80.07,19.26h-.05c-.45.65-1.12.98-2.02.98-.84,0-1.49-.29-1.96-.86s-.7-1.39-.7-2.45.23-1.88.7-2.47,1.12-.88,1.96-.88,1.54.32,2,.95h.08l-.04-.46-.02-.45v-2.61h.97v9.12h-.79l-.13-.86Zm-1.95.16c.66,0,1.15-.18,1.44-.54s.45-.94.45-1.75v-.21c0-.91-.15-1.56-.45-1.95s-.79-.58-1.45-.58c-.57,0-1.01.22-1.31.67s-.45,1.07-.45,1.88.15,1.44.45,1.86.74.63,1.32.63Z"/><path d="m85.77,20.24c-.95,0-1.7-.29-2.25-.87s-.82-1.38-.82-2.41.25-1.86.76-2.47,1.19-.91,2.05-.91c.8,0,1.44.26,1.91.79s.7,1.23.7,2.09v.62h-4.42c.02.75.21,1.33.57,1.72s.87.59,1.53.59c.69,0,1.38-.14,2.05-.43v.87c-.34.15-.67.25-.98.32s-.68.1-1.11.1Zm-.26-5.84c-.52,0-.93.17-1.23.5s-.49.8-.54,1.39h3.36c0-.61-.14-1.08-.41-1.41s-.66-.49-1.17-.49Z"/><path d="m95.19,20.24c-.83,0-1.47-.29-1.94-.87s-.7-1.39-.7-2.44.23-1.87.7-2.46,1.12-.88,1.96-.88c.88,0,1.55.33,2.03,1h.05l.14-.88h.77v9.3h-.97v-2.75c0-.39.02-.72.06-1h-.08c-.45.65-1.12.98-2.03.98Zm.15-.81c.65,0,1.12-.17,1.42-.52s.46-.93.47-1.76v-.22c0-.9-.15-1.54-.46-1.94s-.79-.59-1.45-.59c-.57,0-1.01.22-1.31.67s-.45,1.07-.45,1.88.15,1.42.45,1.85.74.64,1.33.64Z"/><path d="m101.17,13.7v4.17c0,.52.12.91.36,1.17s.61.39,1.12.39c.67,0,1.16-.18,1.47-.55s.47-.97.47-1.8v-3.38h.97v6.42h-.8l-.14-.86h-.05c-.2.32-.48.56-.83.73s-.76.25-1.21.25c-.78,0-1.37-.19-1.75-.56s-.58-.96-.58-1.78v-4.2h.98Z"/><path d="m110.34,20.24c-.95,0-1.7-.29-2.25-.87s-.82-1.38-.82-2.41.25-1.86.76-2.47,1.19-.91,2.05-.91c.8,0,1.44.26,1.91.79s.7,1.23.7,2.09v.62h-4.42c.02.75.21,1.33.57,1.72s.87.59,1.53.59c.69,0,1.38-.14,2.05-.43v.87c-.34.15-.67.25-.98.32s-.68.1-1.11.1Zm-.26-5.84c-.52,0-.93.17-1.23.5s-.49.8-.54,1.39h3.36c0-.61-.14-1.08-.41-1.41s-.66-.49-1.17-.49Z"/><path d="m120.37,14.45h-1.63v5.67h-.97v-5.67h-1.15v-.44l1.15-.35v-.36c0-1.58.69-2.37,2.07-2.37.34,0,.74.07,1.2.21l-.25.78c-.38-.12-.7-.18-.96-.18-.37,0-.64.12-.81.37s-.26.64-.26,1.17v.42h1.63v.76Z"/><path d="m127.08,16.9c0,1.05-.26,1.86-.79,2.45s-1.26.88-2.19.88c-.57,0-1.08-.13-1.53-.4s-.79-.66-1.03-1.16-.36-1.09-.36-1.77c0-1.05.26-1.86.79-2.45s1.25-.88,2.18-.88,1.61.3,2.14.9.79,1.41.79,2.43Zm-4.89,0c0,.82.16,1.45.49,1.88s.81.64,1.45.64,1.12-.21,1.45-.64.5-1.05.5-1.88-.17-1.44-.5-1.86-.82-.64-1.46-.64-1.12.21-1.44.63-.49,1.04-.49,1.87Z"/><path d="m131.72,13.58c.29,0,.54.02.77.07l-.13.9c-.27-.06-.5-.09-.7-.09-.52,0-.96.21-1.33.63s-.55.95-.55,1.58v3.45h-.97v-6.42h.8l.11,1.19h.05c.24-.42.53-.74.86-.97s.71-.34,1.11-.34Z"/><path d="m141.87,20.12v-4.18c0-.51-.11-.9-.33-1.15s-.56-.38-1.02-.38c-.61,0-1.05.17-1.34.52s-.43.88-.43,1.61v3.59h-.97v-4.18c0-.51-.11-.9-.33-1.15s-.56-.38-1.03-.38c-.61,0-1.06.18-1.34.55s-.42.96-.42,1.8v3.37h-.97v-6.42h.79l.16.88h.05c.18-.31.44-.56.78-.73s.71-.26,1.12-.26c1,0,1.66.36,1.97,1.09h.05c.19-.34.47-.6.83-.8s.78-.29,1.24-.29c.73,0,1.27.19,1.63.56s.54.97.54,1.79v4.19h-.97Z"/><path d="m148.8,20.12l-.19-.91h-.05c-.32.4-.64.67-.96.82s-.72.21-1.19.21c-.64,0-1.14-.16-1.5-.49s-.54-.79-.54-1.4c0-1.3,1.04-1.98,3.11-2.04l1.09-.04v-.4c0-.5-.11-.88-.33-1.12s-.56-.36-1.04-.36c-.54,0-1.14.16-1.82.49l-.3-.74c.32-.17.66-.31,1.04-.4s.75-.15,1.13-.15c.77,0,1.33.17,1.7.51s.55.88.55,1.63v4.38h-.72Zm-2.2-.69c.61,0,1.08-.17,1.43-.5s.52-.8.52-1.39v-.58l-.97.04c-.77.03-1.33.15-1.67.36s-.51.54-.51.99c0,.35.11.62.32.8s.51.28.89.28Z"/><path d="m12.74,34.64c-.95,0-1.7-.29-2.25-.87s-.82-1.38-.82-2.41.25-1.86.76-2.47,1.19-.91,2.05-.91c.8,0,1.44.26,1.91.79s.7,1.23.7,2.09v.62h-4.42c.02.75.21,1.33.57,1.72s.87.59,1.53.59c.69,0,1.38-.14,2.05-.43v.87c-.34.15-.67.25-.98.32s-.68.1-1.11.1Zm-.26-5.84c-.52,0-.93.17-1.23.5s-.49.8-.54,1.39h3.36c0-.61-.14-1.08-.41-1.41s-.66-.49-1.17-.49Z"/><path d="m17.74,34.52h-.97v-9.12h.97v9.12Z"/><path d="m23.75,34.52l-.19-.91h-.05c-.32.4-.64.67-.96.82s-.72.21-1.19.21c-.64,0-1.14-.16-1.5-.49s-.54-.79-.54-1.4c0-1.3,1.04-1.98,3.11-2.04l1.09-.04v-.4c0-.5-.11-.88-.33-1.12s-.56-.36-1.04-.36c-.54,0-1.14.16-1.82.49l-.3-.74c.32-.17.66-.31,1.04-.4s.75-.15,1.13-.15c.77,0,1.33.17,1.7.51s.55.88.55,1.63v4.38h-.72Zm-2.2-.69c.61,0,1.08-.17,1.43-.5s.52-.8.52-1.39v-.58l-.97.04c-.77.03-1.33.15-1.67.36s-.51.54-.51.99c0,.35.11.62.32.8s.51.28.89.28Z"/><path d="m32.16,34.64c-.93,0-1.65-.29-2.16-.86s-.76-1.38-.76-2.43.26-1.9.78-2.49,1.25-.88,2.21-.88c.31,0,.62.03.93.1s.55.14.73.23l-.3.83c-.21-.09-.45-.16-.7-.21s-.48-.08-.67-.08c-1.3,0-1.96.83-1.96,2.5,0,.79.16,1.39.48,1.82s.79.63,1.42.63c.54,0,1.08-.12,1.65-.35v.86c-.43.22-.97.33-1.62.33Z"/><path d="m40.85,31.3c0,1.05-.26,1.86-.79,2.45s-1.26.88-2.19.88c-.57,0-1.08-.13-1.53-.4s-.79-.66-1.03-1.16-.36-1.09-.36-1.77c0-1.05.26-1.86.79-2.45s1.25-.88,2.18-.88,1.61.3,2.14.9.79,1.41.79,2.43Zm-4.89,0c0,.82.16,1.45.49,1.88s.81.64,1.45.64,1.12-.21,1.45-.64.5-1.05.5-1.88-.17-1.44-.5-1.86-.82-.64-1.46-.64-1.12.21-1.44.63-.49,1.04-.49,1.87Z"/><path d="m46.95,34.52v-4.15c0-.52-.12-.91-.36-1.17s-.61-.39-1.12-.39c-.67,0-1.16.18-1.48.54s-.47.96-.47,1.8v3.37h-.97v-6.42h.79l.16.88h.05c.2-.32.48-.56.84-.74s.76-.26,1.2-.26c.77,0,1.36.19,1.75.56s.59.97.59,1.79v4.19h-.97Z"/><path d="m51.99,33.83c.17,0,.34-.01.5-.04s.29-.05.38-.08v.74c-.11.05-.26.09-.47.13s-.39.05-.55.05c-1.24,0-1.86-.65-1.86-1.96v-3.82h-.92v-.47l.92-.4.41-1.37h.56v1.49h1.86v.76h-1.86v3.78c0,.39.09.68.28.89s.44.31.76.31Z"/><path d="m57.08,27.98c.29,0,.54.02.77.07l-.13.9c-.27-.06-.5-.09-.7-.09-.52,0-.96.21-1.33.63s-.55.95-.55,1.58v3.45h-.97v-6.42h.8l.11,1.19h.05c.24-.42.53-.74.86-.97s.71-.34,1.11-.34Z"/><path d="m58.97,26.36c0-.22.05-.39.16-.49s.25-.16.41-.16.29.05.4.16.17.27.17.49-.06.38-.17.49-.25.16-.4.16c-.16,0-.3-.05-.41-.16s-.16-.27-.16-.49Zm1.05,8.16h-.97v-6.42h.97v6.42Z"/><path d="m65.07,27.99c.84,0,1.5.29,1.97.86s.7,1.39.7,2.45-.24,1.87-.71,2.46-1.12.88-1.96.88c-.42,0-.8-.08-1.15-.23s-.64-.39-.87-.71h-.07l-.21.83h-.7v-9.12h.97v2.21c0,.5-.02.94-.05,1.34h.05c.45-.64,1.12-.96,2.02-.96Zm-.14.81c-.66,0-1.14.19-1.44.57s-.44,1.02-.44,1.92.15,1.55.45,1.94.78.58,1.45.58c.6,0,1.04-.22,1.34-.65s.44-1.06.44-1.88-.15-1.46-.44-1.87-.75-.62-1.36-.62Z"/><path d="m70.35,28.1v4.17c0,.52.12.91.36,1.17s.61.39,1.12.39c.67,0,1.16-.18,1.47-.55s.47-.97.47-1.8v-3.38h.97v6.42h-.8l-.14-.86h-.05c-.2.32-.48.56-.83.73s-.76.25-1.21.25c-.78,0-1.37-.19-1.75-.56s-.58-.96-.58-1.78v-4.2h.98Z"/><path d="m76.72,26.36c0-.22.05-.39.16-.49s.25-.16.41-.16.29.05.4.16.17.27.17.49-.06.38-.17.49-.25.16-.4.16c-.16,0-.3-.05-.41-.16s-.16-.27-.16-.49Zm1.05,8.16h-.97v-6.42h.97v6.42Z"/><path d="m80.75,28.1v4.17c0,.52.12.91.36,1.17s.61.39,1.12.39c.67,0,1.16-.18,1.47-.55s.47-.97.47-1.8v-3.38h.97v6.42h-.8l-.14-.86h-.05c-.2.32-.48.56-.83.73s-.76.25-1.21.25c-.78,0-1.37-.19-1.75-.56s-.58-.96-.58-1.78v-4.2h.98Z"/><path d="m93.31,34.64c-.42,0-.8-.08-1.15-.23s-.64-.39-.87-.71h-.07c.05.38.07.73.07,1.07v2.64h-.97v-9.3h.79l.13.88h.05c.25-.35.54-.61.87-.76s.71-.23,1.14-.23c.85,0,1.51.29,1.97.87s.69,1.4.69,2.45-.24,1.87-.71,2.46-1.12.88-1.96.88Zm-.14-5.83c-.66,0-1.13.18-1.42.54s-.44.94-.45,1.73v.22c0,.9.15,1.55.45,1.94s.78.58,1.45.58c.55,0,.99-.22,1.3-.67s.47-1.07.47-1.86-.16-1.42-.47-1.84-.76-.64-1.33-.64Z"/><path d="m101.62,34.52l-.19-.91h-.05c-.32.4-.64.67-.96.82s-.72.21-1.19.21c-.64,0-1.14-.16-1.5-.49s-.54-.79-.54-1.4c0-1.3,1.04-1.98,3.11-2.04l1.09-.04v-.4c0-.5-.11-.88-.33-1.12s-.56-.36-1.04-.36c-.54,0-1.14.16-1.82.49l-.3-.74c.32-.17.66-.31,1.04-.4s.75-.15,1.13-.15c.77,0,1.33.17,1.7.51s.55.88.55,1.63v4.38h-.72Zm-2.2-.69c.61,0,1.08-.17,1.43-.5s.52-.8.52-1.39v-.58l-.97.04c-.77.03-1.33.15-1.67.36s-.51.54-.51.99c0,.35.11.62.32.8s.51.28.89.28Z"/><path d="m107.28,27.98c.29,0,.54.02.77.07l-.13.9c-.27-.06-.5-.09-.7-.09-.52,0-.96.21-1.33.63s-.55.95-.55,1.58v3.45h-.97v-6.42h.8l.11,1.19h.05c.24-.42.53-.74.86-.97s.71-.34,1.11-.34Z"/><path d="m113.2,34.52l-.19-.91h-.05c-.32.4-.64.67-.96.82s-.72.21-1.19.21c-.64,0-1.14-.16-1.5-.49s-.54-.79-.54-1.4c0-1.3,1.04-1.98,3.11-2.04l1.09-.04v-.4c0-.5-.11-.88-.33-1.12s-.56-.36-1.04-.36c-.54,0-1.14.16-1.82.49l-.3-.74c.32-.17.66-.31,1.04-.4s.75-.15,1.13-.15c.77,0,1.33.17,1.7.51s.55.88.55,1.63v4.38h-.72Zm-2.2-.69c.61,0,1.08-.17,1.43-.5s.52-.8.52-1.39v-.58l-.97.04c-.77.03-1.33.15-1.67.36s-.51.54-.51.99c0,.35.11.62.32.8s.51.28.89.28Z"/><path d="m12.11,48.23c.17,0,.34-.01.5-.04s.29-.05.38-.08v.74c-.11.05-.26.09-.47.13s-.39.05-.55.05c-1.24,0-1.86-.65-1.86-1.96v-3.82h-.92v-.47l.92-.4.41-1.37h.56v1.49h1.86v.76h-1.86v3.78c0,.39.09.68.28.89s.44.31.76.31Z"/><path d="m17.2,42.38c.29,0,.54.02.77.07l-.13.9c-.27-.06-.5-.09-.7-.09-.52,0-.96.21-1.33.63s-.55.95-.55,1.58v3.45h-.97v-6.42h.8l.11,1.19h.05c.24-.42.53-.74.86-.97s.71-.34,1.11-.34Z"/><path d="m23.12,48.92l-.19-.91h-.05c-.32.4-.64.67-.96.82s-.72.21-1.19.21c-.64,0-1.14-.16-1.5-.49s-.54-.79-.54-1.4c0-1.3,1.04-1.98,3.11-2.04l1.09-.04v-.4c0-.5-.11-.88-.33-1.12s-.56-.36-1.04-.36c-.54,0-1.14.16-1.82.49l-.3-.74c.32-.17.66-.31,1.04-.4s.75-.15,1.13-.15c.77,0,1.33.17,1.7.51s.55.88.55,1.63v4.38h-.72Zm-2.2-.69c.61,0,1.08-.17,1.43-.5s.52-.8.52-1.39v-.58l-.97.04c-.77.03-1.33.15-1.67.36s-.51.54-.51.99c0,.35.11.62.32.8s.51.28.89.28Z"/><path d="m30.23,48.92v-4.15c0-.52-.12-.91-.36-1.17s-.61-.39-1.12-.39c-.67,0-1.16.18-1.48.54s-.47.96-.47,1.8v3.37h-.97v-6.42h.79l.16.88h.05c.2-.32.48-.56.84-.74s.76-.26,1.2-.26c.77,0,1.36.19,1.75.56s.59.97.59,1.79v4.19h-.97Z"/><path d="m37.35,47.17c0,.6-.22,1.06-.67,1.38s-1.07.49-1.88.49c-.85,0-1.52-.13-1.99-.4v-.9c.31.16.64.28.99.37s.69.13,1.02.13c.51,0,.9-.08,1.17-.24s.41-.41.41-.74c0-.25-.11-.46-.33-.64s-.64-.39-1.27-.63c-.6-.22-1.02-.42-1.27-.58s-.44-.35-.56-.57-.18-.46-.18-.76c0-.52.21-.94.64-1.24s1.01-.45,1.75-.45c.69,0,1.37.14,2.03.42l-.35.79c-.64-.27-1.23-.4-1.75-.4-.46,0-.81.07-1.04.22s-.35.34-.35.6c0,.17.04.32.13.44s.23.24.42.35.57.27,1.12.47c.76.28,1.28.56,1.54.84s.4.63.4,1.06Z"/><path d="m41.82,43.25h-1.63v5.67h-.97v-5.67h-1.15v-.44l1.15-.35v-.36c0-1.58.69-2.37,2.07-2.37.34,0,.74.07,1.2.21l-.25.78c-.38-.12-.7-.18-.96-.18-.37,0-.64.12-.81.37s-.26.64-.26,1.17v.42h1.63v.76Z"/><path d="m48.54,45.7c0,1.05-.26,1.86-.79,2.45s-1.26.88-2.19.88c-.57,0-1.08-.13-1.53-.4s-.79-.66-1.03-1.16-.36-1.09-.36-1.77c0-1.05.26-1.86.79-2.45s1.25-.88,2.18-.88,1.61.3,2.14.9.79,1.41.79,2.43Zm-4.89,0c0,.82.16,1.45.49,1.88s.81.64,1.45.64,1.12-.21,1.45-.64.5-1.05.5-1.88-.17-1.44-.5-1.86-.82-.64-1.46-.64-1.12.21-1.44.63-.49,1.04-.49,1.87Z"/><path d="m53.17,42.38c.29,0,.54.02.77.07l-.13.9c-.27-.06-.5-.09-.7-.09-.52,0-.96.21-1.33.63s-.55.95-.55,1.58v3.45h-.97v-6.42h.8l.11,1.19h.05c.24-.42.53-.74.86-.97s.71-.34,1.11-.34Z"/><path d="m63.33,48.92v-4.18c0-.51-.11-.9-.33-1.15s-.56-.38-1.02-.38c-.61,0-1.05.17-1.34.52s-.43.88-.43,1.61v3.59h-.97v-4.18c0-.51-.11-.9-.33-1.15s-.56-.38-1.03-.38c-.61,0-1.06.18-1.34.55s-.42.96-.42,1.8v3.37h-.97v-6.42h.79l.16.88h.05c.18-.31.44-.56.78-.73s.71-.26,1.12-.26c1,0,1.66.36,1.97,1.09h.05c.19-.34.47-.6.83-.8s.78-.29,1.24-.29c.73,0,1.27.19,1.63.56s.54.97.54,1.79v4.19h-.97Z"/><path d="m70.25,48.92l-.19-.91h-.05c-.32.4-.64.67-.96.82s-.72.21-1.19.21c-.64,0-1.14-.16-1.5-.49s-.54-.79-.54-1.4c0-1.3,1.04-1.98,3.11-2.04l1.09-.04v-.4c0-.5-.11-.88-.33-1.12s-.56-.36-1.04-.36c-.54,0-1.14.16-1.82.49l-.3-.74c.32-.17.66-.31,1.04-.4s.75-.15,1.13-.15c.77,0,1.33.17,1.7.51s.55.88.55,1.63v4.38h-.72Zm-2.2-.69c.61,0,1.08-.17,1.43-.5s.52-.8.52-1.39v-.58l-.97.04c-.77.03-1.33.15-1.67.36s-.51.54-.51.99c0,.35.11.62.32.8s.51.28.89.28Z"/><path d="m75.91,42.38c.29,0,.54.02.77.07l-.13.9c-.27-.06-.5-.09-.7-.09-.52,0-.96.21-1.33.63s-.55.95-.55,1.58v3.45h-.97v-6.42h.8l.11,1.19h.05c.24-.42.53-.74.86-.97s.71-.34,1.11-.34Z"/><path d="m84.94,48.92l-.19-.91h-.05c-.32.4-.64.67-.96.82s-.72.21-1.19.21c-.64,0-1.14-.16-1.5-.49s-.54-.79-.54-1.4c0-1.3,1.04-1.98,3.11-2.04l1.09-.04v-.4c0-.5-.11-.88-.33-1.12s-.56-.36-1.04-.36c-.54,0-1.14.16-1.82.49l-.3-.74c.32-.17.66-.31,1.04-.4s.75-.15,1.13-.15c.77,0,1.33.17,1.7.51s.55.88.55,1.63v4.38h-.72Zm-2.2-.69c.61,0,1.08-.17,1.43-.5s.52-.8.52-1.39v-.58l-.97.04c-.77.03-1.33.15-1.67.36s-.51.54-.51.99c0,.35.11.62.32.8s.51.28.89.28Z"/><path d="m91.81,47.17c0,.6-.22,1.06-.67,1.38s-1.07.49-1.88.49c-.85,0-1.52-.13-1.99-.4v-.9c.31.16.64.28.99.37s.69.13,1.02.13c.51,0,.9-.08,1.17-.24s.41-.41.41-.74c0-.25-.11-.46-.33-.64s-.64-.39-1.27-.63c-.6-.22-1.02-.42-1.27-.58s-.44-.35-.56-.57-.18-.46-.18-.76c0-.52.21-.94.64-1.24s1.01-.45,1.75-.45c.69,0,1.37.14,2.03.42l-.35.79c-.64-.27-1.23-.4-1.75-.4-.46,0-.81.07-1.04.22s-.35.34-.35.6c0,.17.04.32.13.44s.23.24.42.35.57.27,1.12.47c.76.28,1.28.56,1.54.84s.4.63.4,1.06Z"/><path d="m99.5,49.04c-.42,0-.8-.08-1.15-.23s-.64-.39-.87-.71h-.07c.05.38.07.73.07,1.07v2.64h-.97v-9.3h.79l.13.88h.05c.25-.35.54-.61.87-.76s.71-.23,1.14-.23c.85,0,1.51.29,1.97.87s.69,1.4.69,2.45-.24,1.87-.71,2.46-1.12.88-1.96.88Zm-.14-5.83c-.66,0-1.13.18-1.42.54s-.44.94-.45,1.73v.22c0,.9.15,1.55.45,1.94s.78.58,1.45.58c.55,0,.99-.22,1.3-.67s.47-1.07.47-1.86-.16-1.42-.47-1.84-.76-.64-1.33-.64Z"/><path d="m106.79,42.38c.29,0,.54.02.77.07l-.13.9c-.27-.06-.5-.09-.7-.09-.52,0-.96.21-1.33.63s-.55.95-.55,1.58v3.45h-.97v-6.42h.8l.11,1.19h.05c.24-.42.53-.74.86-.97s.71-.34,1.11-.34Z"/><path d="m112.71,48.92l-.19-.91h-.05c-.32.4-.64.67-.96.82s-.72.21-1.19.21c-.64,0-1.14-.16-1.5-.49s-.54-.79-.54-1.4c0-1.3,1.04-1.98,3.11-2.04l1.09-.04v-.4c0-.5-.11-.88-.33-1.12s-.56-.36-1.04-.36c-.54,0-1.14.16-1.82.49l-.3-.74c.32-.17.66-.31,1.04-.4s.75-.15,1.13-.15c.77,0,1.33.17,1.7.51s.55.88.55,1.63v4.38h-.72Zm-2.2-.69c.61,0,1.08-.17,1.43-.5s.52-.8.52-1.39v-.58l-.97.04c-.77.03-1.33.15-1.67.36s-.51.54-.51.99c0,.35.11.62.32.8s.51.28.89.28Zm-.23-6.73c.19-.24.39-.54.61-.88s.39-.64.51-.9h1.18v.12c-.17.25-.43.57-.77.94s-.63.66-.88.86h-.65v-.15Z"/><path d="m117.51,48.23c.17,0,.34-.01.5-.04s.29-.05.38-.08v.74c-.11.05-.26.09-.47.13s-.39.05-.55.05c-1.24,0-1.86-.65-1.86-1.96v-3.82h-.92v-.47l.92-.4.41-1.37h.56v1.49h1.86v.76h-1.86v3.78c0,.39.09.68.28.89s.44.31.76.31Z"/><path d="m119.59,40.76c0-.22.05-.39.16-.49s.25-.16.41-.16.29.05.4.16.17.27.17.49-.06.38-.17.49-.25.16-.4.16c-.16,0-.3-.05-.41-.16s-.16-.27-.16-.49Zm1.05,8.16h-.97v-6.42h.97v6.42Z"/><path d="m125.27,49.04c-.93,0-1.65-.29-2.16-.86s-.76-1.38-.76-2.43.26-1.9.78-2.49,1.25-.88,2.21-.88c.31,0,.62.03.93.1s.55.14.73.23l-.3.83c-.21-.09-.45-.16-.7-.21s-.48-.08-.67-.08c-1.3,0-1.96.83-1.96,2.5,0,.79.16,1.39.48,1.82s.79.63,1.42.63c.54,0,1.08-.12,1.65-.35v.86c-.43.22-.97.33-1.62.33Z"/><path d="m132.37,48.92l-.19-.91h-.05c-.32.4-.64.67-.96.82s-.72.21-1.19.21c-.64,0-1.14-.16-1.5-.49s-.54-.79-.54-1.4c0-1.3,1.04-1.98,3.11-2.04l1.09-.04v-.4c0-.5-.11-.88-.33-1.12s-.56-.36-1.04-.36c-.54,0-1.14.16-1.82.49l-.3-.74c.32-.17.66-.31,1.04-.4s.75-.15,1.13-.15c.77,0,1.33.17,1.7.51s.55.88.55,1.63v4.38h-.72Zm-2.2-.69c.61,0,1.08-.17,1.43-.5s.52-.8.52-1.39v-.58l-.97.04c-.77.03-1.33.15-1.67.36s-.51.54-.51.99c0,.35.11.62.32.8s.51.28.89.28Z"/><path d="m139.24,47.17c0,.6-.22,1.06-.67,1.38s-1.07.49-1.88.49c-.85,0-1.52-.13-1.99-.4v-.9c.31.16.64.28.99.37s.69.13,1.02.13c.51,0,.9-.08,1.17-.24s.41-.41.41-.74c0-.25-.11-.46-.33-.64s-.64-.39-1.27-.63c-.6-.22-1.02-.42-1.27-.58s-.44-.35-.56-.57-.18-.46-.18-.76c0-.52.21-.94.64-1.24s1.01-.45,1.75-.45c.69,0,1.37.14,2.03.42l-.35.79c-.64-.27-1.23-.4-1.75-.4-.46,0-.81.07-1.04.22s-.35.34-.35.6c0,.17.04.32.13.44s.23.24.42.35.57.27,1.12.47c.76.28,1.28.56,1.54.84s.4.63.4,1.06Z"/><path d="m12.74,63.44c-.95,0-1.7-.29-2.25-.87s-.82-1.38-.82-2.41.25-1.86.76-2.47,1.19-.91,2.05-.91c.8,0,1.44.26,1.91.79s.7,1.23.7,2.09v.62h-4.42c.02.75.21,1.33.57,1.72s.87.59,1.53.59c.69,0,1.38-.14,2.05-.43v.87c-.34.15-.67.25-.98.32s-.68.1-1.11.1Zm-.26-5.84c-.52,0-.93.17-1.23.5s-.49.8-.54,1.39h3.36c0-.61-.14-1.08-.41-1.41s-.66-.49-1.17-.49Z"/><path d="m24.95,63.32v-4.18c0-.51-.11-.9-.33-1.15s-.56-.38-1.02-.38c-.61,0-1.05.17-1.34.52s-.43.88-.43,1.61v3.59h-.97v-4.18c0-.51-.11-.9-.33-1.15s-.56-.38-1.03-.38c-.61,0-1.06.18-1.34.55s-.42.96-.42,1.8v3.37h-.97v-6.42h.79l.16.88h.05c.18-.31.44-.56.78-.73s.71-.26,1.12-.26c1,0,1.66.36,1.97,1.09h.05c.19-.34.47-.6.83-.8s.78-.29,1.24-.29c.73,0,1.27.19,1.63.56s.54.97.54,1.79v4.19h-.97Z"/><path d="m35.19,61.57c0,.6-.22,1.06-.67,1.38s-1.07.49-1.88.49c-.85,0-1.52-.13-1.99-.4v-.9c.31.16.64.28.99.37s.69.13,1.02.13c.51,0,.9-.08,1.17-.24s.41-.41.41-.74c0-.25-.11-.46-.33-.64s-.64-.39-1.27-.63c-.6-.22-1.02-.42-1.27-.58s-.44-.35-.56-.57-.18-.46-.18-.76c0-.52.21-.94.64-1.24s1.01-.45,1.75-.45c.69,0,1.37.14,2.03.42l-.35.79c-.64-.27-1.23-.4-1.75-.4-.46,0-.81.07-1.04.22s-.35.34-.35.6c0,.17.04.32.13.44s.23.24.42.35.57.27,1.12.47c.76.28,1.28.56,1.54.84s.4.63.4,1.06Z"/><path d="m40.72,63.32l-.19-.91h-.05c-.32.4-.64.67-.96.82s-.72.21-1.19.21c-.64,0-1.14-.16-1.5-.49s-.54-.79-.54-1.4c0-1.3,1.04-1.98,3.11-2.04l1.09-.04v-.4c0-.5-.11-.88-.33-1.12s-.56-.36-1.04-.36c-.54,0-1.14.16-1.82.49l-.3-.74c.32-.17.66-.31,1.04-.4s.75-.15,1.13-.15c.77,0,1.33.17,1.7.51s.55.88.55,1.63v4.38h-.72Zm-2.2-.69c.61,0,1.08-.17,1.43-.5s.52-.8.52-1.39v-.58l-.97.04c-.77.03-1.33.15-1.67.36s-.51.54-.51.99c0,.35.11.62.32.8s.51.28.89.28Z"/><path d="m44.36,56.9v4.17c0,.52.12.91.36,1.17s.61.39,1.12.39c.67,0,1.16-.18,1.47-.55s.47-.97.47-1.8v-3.38h.97v6.42h-.8l-.14-.86h-.05c-.2.32-.48.56-.83.73s-.76.25-1.21.25c-.78,0-1.37-.19-1.75-.56s-.58-.96-.58-1.78v-4.2h.98Zm1.02-1c.19-.24.39-.54.61-.88s.39-.64.51-.9h1.18v.12c-.17.25-.43.57-.77.94s-.63.66-.88.86h-.65v-.15Z"/><path d="m55.18,62.46h-.05c-.45.65-1.12.98-2.02.98-.84,0-1.49-.29-1.96-.86s-.7-1.39-.7-2.45.23-1.88.7-2.47,1.12-.88,1.96-.88,1.54.32,2,.95h.08l-.04-.46-.02-.45v-2.61h.97v9.12h-.79l-.13-.86Zm-1.95.16c.66,0,1.15-.18,1.44-.54s.45-.94.45-1.75v-.21c0-.91-.15-1.56-.45-1.95s-.79-.58-1.45-.58c-.57,0-1.01.22-1.31.67s-.45,1.07-.45,1.88.15,1.44.45,1.86.74.63,1.32.63Z"/><path d="m60.87,63.44c-.95,0-1.7-.29-2.25-.87s-.82-1.38-.82-2.41.25-1.86.76-2.47,1.19-.91,2.05-.91c.8,0,1.44.26,1.91.79s.7,1.23.7,2.09v.62h-4.42c.02.75.21,1.33.57,1.72s.87.59,1.53.59c.69,0,1.38-.14,2.05-.43v.87c-.34.15-.67.25-.98.32s-.68.1-1.11.1Zm-.26-5.84c-.52,0-.93.17-1.23.5s-.49.8-.54,1.39h3.36c0-.61-.14-1.08-.41-1.41s-.66-.49-1.17-.49Z"/><path d="m65.55,60.96v-.32c0-.46.07-.83.21-1.13s.4-.61.79-.93c.53-.45.87-.79,1-1.01s.21-.5.21-.82c0-.4-.13-.71-.38-.92s-.62-.33-1.1-.33c-.31,0-.61.04-.9.11s-.63.2-1.01.4l-.35-.79c.74-.39,1.51-.58,2.31-.58.75,0,1.33.18,1.74.55s.62.88.62,1.55c0,.29-.04.54-.11.75s-.19.42-.34.62-.47.5-.96.93c-.39.34-.66.62-.78.84s-.19.52-.19.89v.19h-.76Zm-.29,1.74c0-.53.23-.8.7-.8.23,0,.4.07.52.21s.18.33.18.59-.06.44-.19.58-.3.21-.52.21c-.2,0-.37-.06-.5-.18s-.2-.33-.2-.61Z"/></g><rect class="cls-2" x="483" width="158" height="60"/><g><path d="m500.61,15.83c0,1.37-.35,2.45-1.04,3.23s-1.66,1.18-2.89,1.18-2.24-.39-2.92-1.16-1.03-1.86-1.03-3.27.34-2.48,1.03-3.24,1.66-1.15,2.93-1.15,2.19.39,2.88,1.17,1.04,1.86,1.04,3.23Zm-6.83,0c0,1.16.25,2.04.74,2.64s1.21.9,2.15.9,1.67-.3,2.15-.9.73-1.48.73-2.64-.24-2.03-.72-2.62-1.2-.89-2.14-.89-1.67.3-2.17.9-.74,1.47-.74,2.62Z"/><path d="m506.52,18.37c0,.6-.22,1.06-.67,1.38s-1.07.49-1.88.49c-.85,0-1.52-.13-1.99-.4v-.9c.31.16.64.28.99.37s.69.13,1.02.13c.51,0,.9-.08,1.17-.24s.41-.41.41-.74c0-.25-.11-.46-.33-.64s-.64-.39-1.27-.63c-.6-.22-1.02-.42-1.27-.58s-.44-.35-.56-.57-.18-.46-.18-.76c0-.52.21-.94.64-1.24s1.01-.45,1.75-.45c.69,0,1.37.14,2.03.42l-.35.79c-.64-.27-1.23-.4-1.75-.4-.46,0-.81.07-1.04.22s-.35.34-.35.6c0,.17.04.32.13.44s.23.24.42.35.57.27,1.12.47c.76.28,1.28.56,1.54.84s.4.63.4,1.06Z"/><path d="m514.21,20.24c-.42,0-.8-.08-1.15-.23s-.64-.39-.87-.71h-.07c.05.38.07.73.07,1.07v2.64h-.97v-9.3h.79l.13.88h.05c.25-.35.54-.61.87-.76s.71-.23,1.14-.23c.85,0,1.51.29,1.97.87s.69,1.4.69,2.45-.24,1.87-.71,2.46-1.12.88-1.96.88Zm-.14-5.83c-.66,0-1.13.18-1.42.54s-.44.94-.45,1.73v.22c0,.9.15,1.55.45,1.94s.78.58,1.45.58c.55,0,.99-.22,1.3-.67s.47-1.07.47-1.86-.16-1.42-.47-1.84-.76-.64-1.33-.64Z"/><path d="m521.5,13.58c.29,0,.54.02.77.07l-.13.9c-.27-.06-.5-.09-.7-.09-.52,0-.96.21-1.33.63s-.55.95-.55,1.58v3.45h-.97v-6.42h.8l.11,1.19h.05c.24-.42.53-.74.86-.97s.71-.34,1.11-.34Z"/><path d="m526.18,20.24c-.95,0-1.7-.29-2.25-.87s-.82-1.38-.82-2.41.25-1.86.76-2.47,1.19-.91,2.05-.91c.8,0,1.44.26,1.91.79s.7,1.23.7,2.09v.62h-4.42c.02.75.21,1.33.57,1.72s.87.59,1.53.59c.69,0,1.38-.14,2.05-.43v.87c-.34.15-.67.25-.98.32s-.68.1-1.11.1Zm-.26-5.84c-.52,0-.93.17-1.23.5s-.49.8-.54,1.39h3.36c0-.61-.14-1.08-.41-1.41s-.66-.49-1.17-.49Z"/><path d="m534.35,18.37c0,.6-.22,1.06-.67,1.38s-1.07.49-1.88.49c-.85,0-1.52-.13-1.99-.4v-.9c.31.16.64.28.99.37s.69.13,1.02.13c.51,0,.9-.08,1.17-.24s.41-.41.41-.74c0-.25-.11-.46-.33-.64s-.64-.39-1.27-.63c-.6-.22-1.02-.42-1.27-.58s-.44-.35-.56-.57-.18-.46-.18-.76c0-.52.21-.94.64-1.24s1.01-.45,1.75-.45c.69,0,1.37.14,2.03.42l-.35.79c-.64-.27-1.23-.4-1.75-.4-.46,0-.81.07-1.04.22s-.35.34-.35.6c0,.17.04.32.13.44s.23.24.42.35.57.27,1.12.47c.76.28,1.28.56,1.54.84s.4.63.4,1.06Z"/><path d="m540.07,18.37c0,.6-.22,1.06-.67,1.38s-1.07.49-1.88.49c-.85,0-1.52-.13-1.99-.4v-.9c.31.16.64.28.99.37s.69.13,1.02.13c.51,0,.9-.08,1.17-.24s.41-.41.41-.74c0-.25-.11-.46-.33-.64s-.64-.39-1.27-.63c-.6-.22-1.02-.42-1.27-.58s-.44-.35-.56-.57-.18-.46-.18-.76c0-.52.21-.94.64-1.24s1.01-.45,1.75-.45c.69,0,1.37.14,2.03.42l-.35.79c-.64-.27-1.23-.4-1.75-.4-.46,0-.81.07-1.04.22s-.35.34-.35.6c0,.17.04.32.13.44s.23.24.42.35.57.27,1.12.47c.76.28,1.28.56,1.54.84s.4.63.4,1.06Z"/><path d="m542.57,13.7v4.17c0,.52.12.91.36,1.17s.61.39,1.12.39c.67,0,1.16-.18,1.47-.55s.47-.97.47-1.8v-3.38h.97v6.42h-.8l-.14-.86h-.05c-.2.32-.48.56-.83.73s-.76.25-1.21.25c-.78,0-1.37-.19-1.75-.56s-.58-.96-.58-1.78v-4.2h.98Z"/><path d="m552.01,20.24c-.42,0-.8-.08-1.15-.23s-.64-.39-.87-.71h-.07c.05.38.07.73.07,1.07v2.64h-.97v-9.3h.79l.13.88h.05c.25-.35.54-.61.87-.76s.71-.23,1.14-.23c.85,0,1.51.29,1.97.87s.69,1.4.69,2.45-.24,1.87-.71,2.46-1.12.88-1.96.88Zm-.14-5.83c-.66,0-1.13.18-1.42.54s-.44.94-.45,1.73v.22c0,.9.15,1.55.45,1.94s.78.58,1.45.58c.55,0,.99-.22,1.3-.67s.47-1.07.47-1.86-.16-1.42-.47-1.84-.76-.64-1.33-.64Z"/><path d="m561.91,16.9c0,1.05-.26,1.86-.79,2.45s-1.26.88-2.19.88c-.57,0-1.08-.13-1.53-.4s-.79-.66-1.03-1.16-.36-1.09-.36-1.77c0-1.05.26-1.86.79-2.45s1.25-.88,2.18-.88,1.61.3,2.14.9.79,1.41.79,2.43Zm-4.89,0c0,.82.16,1.45.49,1.88s.81.64,1.45.64,1.12-.21,1.45-.64.5-1.05.5-1.88-.17-1.44-.5-1.86-.82-.64-1.46-.64-1.12.21-1.44.63-.49,1.04-.49,1.87Z"/><path d="m567.76,18.37c0,.6-.22,1.06-.67,1.38s-1.07.49-1.88.49c-.85,0-1.52-.13-1.99-.4v-.9c.31.16.64.28.99.37s.69.13,1.02.13c.51,0,.9-.08,1.17-.24s.41-.41.41-.74c0-.25-.11-.46-.33-.64s-.64-.39-1.27-.63c-.6-.22-1.02-.42-1.27-.58s-.44-.35-.56-.57-.18-.46-.18-.76c0-.52.21-.94.64-1.24s1.01-.45,1.75-.45c.69,0,1.37.14,2.03.42l-.35.79c-.64-.27-1.23-.4-1.75-.4-.46,0-.81.07-1.04.22s-.35.34-.35.6c0,.17.04.32.13.44s.23.24.42.35.57.27,1.12.47c.76.28,1.28.56,1.54.84s.4.63.4,1.06Z"/><path d="m571.42,19.43c.17,0,.34-.01.5-.04s.29-.05.38-.08v.74c-.11.05-.26.09-.47.13s-.39.05-.55.05c-1.24,0-1.86-.65-1.86-1.96v-3.82h-.92v-.47l.92-.4.41-1.37h.56v1.49h1.86v.76h-1.86v3.78c0,.39.09.68.28.89s.44.31.76.31Z"/><path d="m579.12,16.9c0,1.05-.26,1.86-.79,2.45s-1.26.88-2.19.88c-.57,0-1.08-.13-1.53-.4s-.79-.66-1.03-1.16-.36-1.09-.36-1.77c0-1.05.26-1.86.79-2.45s1.25-.88,2.18-.88,1.61.3,2.14.9.79,1.41.79,2.43Zm-4.89,0c0,.82.16,1.45.49,1.88s.81.64,1.45.64,1.12-.21,1.45-.64.5-1.05.5-1.88-.17-1.44-.5-1.86-.82-.64-1.46-.64-1.12.21-1.44.63-.49,1.04-.49,1.87Z"/><path d="m584.97,18.37c0,.6-.22,1.06-.67,1.38s-1.07.49-1.88.49c-.85,0-1.52-.13-1.99-.4v-.9c.31.16.64.28.99.37s.69.13,1.02.13c.51,0,.9-.08,1.17-.24s.41-.41.41-.74c0-.25-.11-.46-.33-.64s-.64-.39-1.27-.63c-.6-.22-1.02-.42-1.27-.58s-.44-.35-.56-.57-.18-.46-.18-.76c0-.52.21-.94.64-1.24s1.01-.45,1.75-.45c.69,0,1.37.14,2.03.42l-.35.79c-.64-.27-1.23-.4-1.75-.4-.46,0-.81.07-1.04.22s-.35.34-.35.6c0,.17.04.32.13.44s.23.24.42.35.57.27,1.12.47c.76.28,1.28.56,1.54.84s.4.63.4,1.06Z"/><path d="m496.98,34.52l-.19-.91h-.05c-.32.4-.64.67-.96.82s-.72.21-1.19.21c-.64,0-1.14-.16-1.5-.49s-.54-.79-.54-1.4c0-1.3,1.04-1.98,3.11-2.04l1.09-.04v-.4c0-.5-.11-.88-.33-1.12s-.56-.36-1.04-.36c-.54,0-1.14.16-1.82.49l-.3-.74c.32-.17.66-.31,1.04-.4s.75-.15,1.13-.15c.77,0,1.33.17,1.7.51s.55.88.55,1.63v4.38h-.72Zm-2.2-.69c.61,0,1.08-.17,1.43-.5s.52-.8.52-1.39v-.58l-.97.04c-.77.03-1.33.15-1.67.36s-.51.54-.51.99c0,.35.11.62.32.8s.51.28.89.28Z"/><path d="m502.69,34.64c-.42,0-.8-.08-1.15-.23s-.64-.39-.87-.71h-.07c.05.38.07.73.07,1.07v2.64h-.97v-9.3h.79l.13.88h.05c.25-.35.54-.61.87-.76s.71-.23,1.14-.23c.85,0,1.51.29,1.97.87s.69,1.4.69,2.45-.24,1.87-.71,2.46-1.12.88-1.96.88Zm-.14-5.83c-.66,0-1.13.18-1.42.54s-.44.94-.45,1.73v.22c0,.9.15,1.55.45,1.94s.78.58,1.45.58c.55,0,.99-.22,1.3-.67s.47-1.07.47-1.86-.16-1.42-.47-1.84-.76-.64-1.33-.64Z"/><path d="m509.99,27.98c.29,0,.54.02.77.07l-.13.9c-.27-.06-.5-.09-.7-.09-.52,0-.96.21-1.33.63s-.55.95-.55,1.58v3.45h-.97v-6.42h.8l.11,1.19h.05c.24-.42.53-.74.86-.97s.71-.34,1.11-.34Z"/><path d="m514.67,34.64c-.95,0-1.7-.29-2.25-.87s-.82-1.38-.82-2.41.25-1.86.76-2.47,1.19-.91,2.05-.91c.8,0,1.44.26,1.91.79s.7,1.23.7,2.09v.62h-4.42c.02.75.21,1.33.57,1.72s.87.59,1.53.59c.69,0,1.38-.14,2.05-.43v.87c-.34.15-.67.25-.98.32s-.68.1-1.11.1Zm-.26-5.84c-.52,0-.93.17-1.23.5s-.49.8-.54,1.39h3.36c0-.61-.14-1.08-.41-1.41s-.66-.49-1.17-.49Z"/><path d="m522.83,32.77c0,.6-.22,1.06-.67,1.38s-1.07.49-1.88.49c-.85,0-1.52-.13-1.99-.4v-.9c.31.16.64.28.99.37s.69.13,1.02.13c.51,0,.9-.08,1.17-.24s.41-.41.41-.74c0-.25-.11-.46-.33-.64s-.64-.39-1.27-.63c-.6-.22-1.02-.42-1.27-.58s-.44-.35-.56-.57-.18-.46-.18-.76c0-.52.21-.94.64-1.24s1.01-.45,1.75-.45c.69,0,1.37.14,2.03.42l-.35.79c-.64-.27-1.23-.4-1.75-.4-.46,0-.81.07-1.04.22s-.35.34-.35.6c0,.17.04.32.13.44s.23.24.42.35.57.27,1.12.47c.76.28,1.28.56,1.54.84s.4.63.4,1.06Z"/><path d="m527.13,34.64c-.95,0-1.7-.29-2.25-.87s-.82-1.38-.82-2.41.25-1.86.76-2.47,1.19-.91,2.05-.91c.8,0,1.44.26,1.91.79s.7,1.23.7,2.09v.62h-4.42c.02.75.21,1.33.57,1.72s.87.59,1.53.59c.69,0,1.38-.14,2.05-.43v.87c-.34.15-.67.25-.98.32s-.68.1-1.11.1Zm-.26-5.84c-.52,0-.93.17-1.23.5s-.49.8-.54,1.39h3.36c0-.61-.14-1.08-.41-1.41s-.66-.49-1.17-.49Z"/><path d="m535.54,34.52v-4.15c0-.52-.12-.91-.36-1.17s-.61-.39-1.12-.39c-.67,0-1.16.18-1.48.54s-.47.96-.47,1.8v3.37h-.97v-6.42h.79l.16.88h.05c.2-.32.48-.56.84-.74s.76-.26,1.2-.26c.77,0,1.36.19,1.75.56s.59.97.59,1.79v4.19h-.97Z"/><path d="m540.59,33.83c.17,0,.34-.01.5-.04s.29-.05.38-.08v.74c-.11.05-.26.09-.47.13s-.39.05-.55.05c-1.24,0-1.86-.65-1.86-1.96v-3.82h-.92v-.47l.92-.4.41-1.37h.56v1.49h1.86v.76h-1.86v3.78c0,.39.09.68.28.89s.44.31.76.31Z"/><path d="m546.7,34.52l-.19-.91h-.05c-.32.4-.64.67-.96.82s-.72.21-1.19.21c-.64,0-1.14-.16-1.5-.49s-.54-.79-.54-1.4c0-1.3,1.04-1.98,3.11-2.04l1.09-.04v-.4c0-.5-.11-.88-.33-1.12s-.56-.36-1.04-.36c-.54,0-1.14.16-1.82.49l-.3-.74c.32-.17.66-.31,1.04-.4s.75-.15,1.13-.15c.77,0,1.33.17,1.7.51s.55.88.55,1.63v4.38h-.72Zm-2.2-.69c.61,0,1.08-.17,1.43-.5s.52-.8.52-1.39v-.58l-.97.04c-.77.03-1.33.15-1.67.36s-.51.54-.51.99c0,.35.11.62.32.8s.51.28.89.28Z"/><path d="m553.79,33.66h-.05c-.45.65-1.12.98-2.02.98-.84,0-1.49-.29-1.96-.86s-.7-1.39-.7-2.45.23-1.88.7-2.47,1.12-.88,1.96-.88,1.54.32,2,.95h.08l-.04-.46-.02-.45v-2.61h.97v9.12h-.79l-.13-.86Zm-1.95.16c.66,0,1.15-.18,1.44-.54s.45-.94.45-1.75v-.21c0-.91-.15-1.56-.45-1.95s-.79-.58-1.45-.58c-.57,0-1.01.22-1.31.67s-.45,1.07-.45,1.88.15,1.44.45,1.86.74.63,1.32.63Z"/><path d="m562.32,31.3c0,1.05-.26,1.86-.79,2.45s-1.26.88-2.19.88c-.57,0-1.08-.13-1.53-.4s-.79-.66-1.03-1.16-.36-1.09-.36-1.77c0-1.05.26-1.86.79-2.45s1.25-.88,2.18-.88,1.61.3,2.14.9.79,1.41.79,2.43Zm-4.89,0c0,.82.16,1.45.49,1.88s.81.64,1.45.64,1.12-.21,1.45-.64.5-1.05.5-1.88-.17-1.44-.5-1.86-.82-.64-1.46-.64-1.12.21-1.44.63-.49,1.04-.49,1.87Z"/><path d="m568.17,32.77c0,.6-.22,1.06-.67,1.38s-1.07.49-1.88.49c-.85,0-1.52-.13-1.99-.4v-.9c.31.16.64.28.99.37s.69.13,1.02.13c.51,0,.9-.08,1.17-.24s.41-.41.41-.74c0-.25-.11-.46-.33-.64s-.64-.39-1.27-.63c-.6-.22-1.02-.42-1.27-.58s-.44-.35-.56-.57-.18-.46-.18-.76c0-.52.21-.94.64-1.24s1.01-.45,1.75-.45c.69,0,1.37.14,2.03.42l-.35.79c-.64-.27-1.23-.4-1.75-.4-.46,0-.81.07-1.04.22s-.35.34-.35.6c0,.17.04.32.13.44s.23.24.42.35.57.27,1.12.47c.76.28,1.28.56,1.54.84s.4.63.4,1.06Z"/><path d="m575.85,34.64c-.42,0-.8-.08-1.15-.23s-.64-.39-.87-.71h-.07c.05.38.07.73.07,1.07v2.64h-.97v-9.3h.79l.13.88h.05c.25-.35.54-.61.87-.76s.71-.23,1.14-.23c.85,0,1.51.29,1.97.87s.69,1.4.69,2.45-.24,1.87-.71,2.46-1.12.88-1.96.88Zm-.14-5.83c-.66,0-1.13.18-1.42.54s-.44.94-.45,1.73v.22c0,.9.15,1.55.45,1.94s.78.58,1.45.58c.55,0,.99-.22,1.3-.67s.47-1.07.47-1.86-.16-1.42-.47-1.84-.76-.64-1.33-.64Z"/><path d="m582.93,34.64c-.95,0-1.7-.29-2.25-.87s-.82-1.38-.82-2.41.25-1.86.76-2.47,1.19-.91,2.05-.91c.8,0,1.44.26,1.91.79s.7,1.23.7,2.09v.62h-4.42c.02.75.21,1.33.57,1.72s.87.59,1.53.59c.69,0,1.38-.14,2.05-.43v.87c-.34.15-.67.25-.98.32s-.68.1-1.11.1Zm-.26-5.84c-.52,0-.93.17-1.23.5s-.49.8-.54,1.39h3.36c0-.61-.14-1.08-.41-1.41s-.66-.49-1.17-.49Z"/><path d="m587.92,34.52h-.97v-9.12h.97v9.12Z"/><path d="m593.94,34.52l-.19-.91h-.05c-.32.4-.64.67-.96.82s-.72.21-1.19.21c-.64,0-1.14-.16-1.5-.49s-.54-.79-.54-1.4c0-1.3,1.04-1.98,3.11-2.04l1.09-.04v-.4c0-.5-.11-.88-.33-1.12s-.56-.36-1.04-.36c-.54,0-1.14.16-1.82.49l-.3-.74c.32-.17.66-.31,1.04-.4s.75-.15,1.13-.15c.77,0,1.33.17,1.7.51s.55.88.55,1.63v4.38h-.72Zm-2.2-.69c.61,0,1.08-.17,1.43-.5s.52-.8.52-1.39v-.58l-.97.04c-.77.03-1.33.15-1.67.36s-.51.54-.51.99c0,.35.11.62.32.8s.51.28.89.28Z"/><path d="m605.36,28.45c0,.87-.3,1.53-.89,2s-1.44.7-2.54.7h-1.01v3.37h-1v-8.57h2.22c2.14,0,3.21.83,3.21,2.5Zm-4.44,1.85h.9c.88,0,1.52-.14,1.92-.43s.59-.74.59-1.37c0-.57-.19-.99-.56-1.27s-.95-.42-1.73-.42h-1.11v3.48Z"/><path d="m613.84,34.52h-1.14l-4.68-7.19h-.05c.06.84.09,1.62.09,2.32v4.87h-.92v-8.57h1.12l4.67,7.16h.05c0-.11-.03-.44-.05-1.02s-.04-.98-.03-1.23v-4.92h.93v8.57Z"/><path d="m620.97,34.52h-4.78v-8.57h4.78v.88h-3.78v2.76h3.55v.88h-3.55v3.15h3.78v.89Z"/><path d="m628.3,28.45c0,.87-.3,1.53-.89,2s-1.44.7-2.54.7h-1.01v3.37h-1v-8.57h2.22c2.14,0,3.21.83,3.21,2.5Zm-4.44,1.85h.9c.88,0,1.52-.14,1.92-.43s.59-.74.59-1.37c0-.57-.19-.99-.56-1.27s-.95-.42-1.73-.42h-1.11v3.48Z"/><path d="m634.93,32.24c0,.75-.27,1.34-.82,1.76s-1.29.63-2.23.63c-1.02,0-1.8-.13-2.34-.39v-.96c.35.15.73.27,1.15.35s.82.13,1.23.13c.66,0,1.16-.13,1.5-.38s.5-.6.5-1.05c0-.3-.06-.54-.18-.73s-.32-.36-.6-.52-.7-.34-1.27-.54c-.8-.29-1.37-.62-1.71-1.01s-.51-.9-.51-1.53c0-.66.25-1.19.74-1.58s1.15-.59,1.97-.59,1.63.16,2.35.47l-.31.87c-.71-.3-1.39-.45-2.06-.45-.53,0-.94.11-1.24.34s-.45.54-.45.94c0,.3.05.54.16.73s.29.36.55.52.66.33,1.19.52c.9.32,1.52.66,1.85,1.03s.51.84.51,1.43Z"/><path d="m497.17,47.17c0,.6-.22,1.06-.67,1.38s-1.07.49-1.88.49c-.85,0-1.52-.13-1.99-.4v-.9c.31.16.64.28.99.37s.69.13,1.02.13c.51,0,.9-.08,1.17-.24s.41-.41.41-.74c0-.25-.11-.46-.33-.64s-.64-.39-1.27-.63c-.6-.22-1.02-.42-1.27-.58s-.44-.35-.56-.57-.18-.46-.18-.76c0-.52.21-.94.64-1.24s1.01-.45,1.75-.45c.69,0,1.37.14,2.03.42l-.35.79c-.64-.27-1.23-.4-1.75-.4-.46,0-.81.07-1.04.22s-.35.34-.35.6c0,.17.04.32.13.44s.23.24.42.35.57.27,1.12.47c.76.28,1.28.56,1.54.84s.4.63.4,1.06Z"/><path d="m501.47,49.04c-.95,0-1.7-.29-2.25-.87s-.82-1.38-.82-2.41.25-1.86.76-2.47,1.19-.91,2.05-.91c.8,0,1.44.26,1.91.79s.7,1.23.7,2.09v.62h-4.42c.02.75.21,1.33.57,1.72s.87.59,1.53.59c.69,0,1.38-.14,2.05-.43v.87c-.34.15-.67.25-.98.32s-.68.1-1.11.1Zm-.26-5.84c-.52,0-.93.17-1.23.5s-.49.8-.54,1.39h3.36c0-.61-.14-1.08-.41-1.41s-.66-.49-1.17-.49Z"/><path d="m511.17,49.04c-.93,0-1.65-.29-2.16-.86s-.76-1.38-.76-2.43.26-1.9.78-2.49,1.25-.88,2.21-.88c.31,0,.62.03.93.1s.55.14.73.23l-.3.83c-.21-.09-.45-.16-.7-.21s-.48-.08-.67-.08c-1.3,0-1.96.83-1.96,2.5,0,.79.16,1.39.48,1.82s.79.63,1.42.63c.54,0,1.08-.12,1.65-.35v.86c-.43.22-.97.33-1.62.33Z"/><path d="m519.86,45.7c0,1.05-.26,1.86-.79,2.45s-1.26.88-2.19.88c-.57,0-1.08-.13-1.53-.4s-.79-.66-1.03-1.16-.36-1.09-.36-1.77c0-1.05.26-1.86.79-2.45s1.25-.88,2.18-.88,1.61.3,2.14.9.79,1.41.79,2.43Zm-4.89,0c0,.82.16,1.45.49,1.88s.81.64,1.45.64,1.12-.21,1.45-.64.5-1.05.5-1.88-.17-1.44-.5-1.86-.82-.64-1.46-.64-1.12.21-1.44.63-.49,1.04-.49,1.87Z"/><path d="m525.96,48.92v-4.15c0-.52-.12-.91-.36-1.17s-.61-.39-1.12-.39c-.67,0-1.16.18-1.48.54s-.47.96-.47,1.8v3.37h-.97v-6.42h.79l.16.88h.05c.2-.32.48-.56.84-.74s.76-.26,1.2-.26c.77,0,1.36.19,1.75.56s.59.97.59,1.79v4.19h-.97Z"/><path d="m531.83,43.25h-1.63v5.67h-.97v-5.67h-1.15v-.44l1.15-.35v-.36c0-1.58.69-2.37,2.07-2.37.34,0,.74.07,1.2.21l-.25.78c-.38-.12-.7-.18-.96-.18-.37,0-.64.12-.81.37s-.26.64-.26,1.17v.42h1.63v.76Zm1.09-2.5c0-.22.05-.39.16-.49s.25-.16.41-.16.29.05.4.16.17.27.17.49-.06.38-.17.49-.25.16-.4.16c-.16,0-.3-.05-.41-.16s-.16-.27-.16-.49Zm1.05,8.16h-.97v-6.42h.97v6.42Z"/><path d="m538.96,42.38c.29,0,.54.02.77.07l-.13.9c-.27-.06-.5-.09-.7-.09-.52,0-.96.21-1.33.63s-.55.95-.55,1.58v3.45h-.97v-6.42h.8l.11,1.19h.05c.24-.42.53-.74.86-.97s.71-.34,1.11-.34Z"/><path d="m549.12,48.92v-4.18c0-.51-.11-.9-.33-1.15s-.56-.38-1.02-.38c-.61,0-1.05.17-1.34.52s-.43.88-.43,1.61v3.59h-.97v-4.18c0-.51-.11-.9-.33-1.15s-.56-.38-1.03-.38c-.61,0-1.06.18-1.34.55s-.42.96-.42,1.8v3.37h-.97v-6.42h.79l.16.88h.05c.18-.31.44-.56.78-.73s.71-.26,1.12-.26c1,0,1.66.36,1.97,1.09h.05c.19-.34.47-.6.83-.8s.78-.29,1.24-.29c.73,0,1.27.19,1.63.56s.54.97.54,1.79v4.19h-.97Z"/><path d="m556.04,48.92l-.19-.91h-.05c-.32.4-.64.67-.96.82s-.72.21-1.19.21c-.64,0-1.14-.16-1.5-.49s-.54-.79-.54-1.4c0-1.3,1.04-1.98,3.11-2.04l1.09-.04v-.4c0-.5-.11-.88-.33-1.12s-.56-.36-1.04-.36c-.54,0-1.14.16-1.82.49l-.3-.74c.32-.17.66-.31,1.04-.4s.75-.15,1.13-.15c.77,0,1.33.17,1.7.51s.55.88.55,1.63v4.38h-.72Zm-2.2-.69c.61,0,1.08-.17,1.43-.5s.52-.8.52-1.39v-.58l-.97.04c-.77.03-1.33.15-1.67.36s-.51.54-.51.99c0,.35.11.62.32.8s.51.28.89.28Z"/><path d="m561.7,42.38c.29,0,.54.02.77.07l-.13.9c-.27-.06-.5-.09-.7-.09-.52,0-.96.21-1.33.63s-.55.95-.55,1.58v3.45h-.97v-6.42h.8l.11,1.19h.05c.24-.42.53-.74.86-.97s.71-.34,1.11-.34Z"/><path d="m567.62,48.92l-.19-.91h-.05c-.32.4-.64.67-.96.82s-.72.21-1.19.21c-.64,0-1.14-.16-1.5-.49s-.54-.79-.54-1.4c0-1.3,1.04-1.98,3.11-2.04l1.09-.04v-.4c0-.5-.11-.88-.33-1.12s-.56-.36-1.04-.36c-.54,0-1.14.16-1.82.49l-.3-.74c.32-.17.66-.31,1.04-.4s.75-.15,1.13-.15c.77,0,1.33.17,1.7.51s.55.88.55,1.63v4.38h-.72Zm-2.2-.69c.61,0,1.08-.17,1.43-.5s.52-.8.52-1.39v-.58l-.97.04c-.77.03-1.33.15-1.67.36s-.51.54-.51.99c0,.35.11.62.32.8s.51.28.89.28Z"/><path d="m578.53,48.92v-4.18c0-.51-.11-.9-.33-1.15s-.56-.38-1.02-.38c-.61,0-1.05.17-1.34.52s-.43.88-.43,1.61v3.59h-.97v-4.18c0-.51-.11-.9-.33-1.15s-.56-.38-1.03-.38c-.61,0-1.06.18-1.34.55s-.42.96-.42,1.8v3.37h-.97v-6.42h.79l.16.88h.05c.18-.31.44-.56.78-.73s.71-.26,1.12-.26c1,0,1.66.36,1.97,1.09h.05c.19-.34.47-.6.83-.8s.78-.29,1.24-.29c.73,0,1.27.19,1.63.56s.54.97.54,1.79v4.19h-.97Z"/><path d="m582.16,46.56v-.32c0-.46.07-.83.21-1.13s.4-.61.79-.93c.53-.45.87-.79,1-1.01s.21-.5.21-.82c0-.4-.13-.71-.38-.92s-.62-.33-1.1-.33c-.31,0-.61.04-.9.11s-.63.2-1.01.4l-.35-.79c.74-.39,1.51-.58,2.31-.58.75,0,1.33.18,1.74.55s.62.88.62,1.55c0,.29-.04.54-.11.75s-.19.42-.34.62-.47.5-.96.93c-.39.34-.66.62-.78.84s-.19.52-.19.89v.19h-.76Zm-.29,1.74c0-.53.23-.8.7-.8.23,0,.4.07.52.21s.18.33.18.59-.06.44-.19.58-.3.21-.52.21c-.2,0-.37-.06-.5-.18s-.2-.33-.2-.61Z"/></g><rect class="cls-2" x="483" y="147" width="158" height="85"/><g><path d="m500.61,166.83c0,1.1-.22,2.01-.66,2.74s-1.06,1.22-1.87,1.48l2.04,2.12h-1.45l-1.67-1.93h-.32c-1.26.01-2.24-.37-2.92-1.15s-1.03-1.86-1.03-3.27.34-2.48,1.03-3.24,1.66-1.15,2.93-1.15,2.19.39,2.88,1.17,1.04,1.86,1.04,3.23Zm-6.83,0c0,1.16.25,2.04.74,2.64s1.21.9,2.15.9,1.67-.3,2.15-.9.73-1.48.73-2.64-.24-2.03-.72-2.62-1.2-.89-2.14-.89-1.67.3-2.17.9-.74,1.47-.74,2.62Z"/><path d="m503.29,164.7v4.17c0,.52.12.91.36,1.17s.61.39,1.12.39c.67,0,1.16-.18,1.47-.55s.47-.97.47-1.8v-3.38h.97v6.42h-.8l-.14-.86h-.05c-.2.32-.48.56-.83.73s-.76.25-1.21.25c-.78,0-1.37-.19-1.75-.56s-.58-.96-.58-1.78v-4.2h.98Z"/><path d="m513.69,171.12l-.19-.91h-.05c-.32.4-.64.67-.96.82s-.72.21-1.19.21c-.64,0-1.14-.16-1.5-.49s-.54-.79-.54-1.4c0-1.3,1.04-1.98,3.11-2.04l1.09-.04v-.4c0-.5-.11-.88-.33-1.12s-.56-.36-1.04-.36c-.54,0-1.14.16-1.82.49l-.3-.74c.32-.17.66-.31,1.04-.4s.75-.15,1.13-.15c.77,0,1.33.17,1.7.51s.55.88.55,1.63v4.38h-.72Zm-2.2-.69c.61,0,1.08-.17,1.43-.5s.52-.8.52-1.39v-.58l-.97.04c-.77.03-1.33.15-1.67.36s-.51.54-.51.99c0,.35.11.62.32.8s.51.28.89.28Z"/><path d="m520.81,171.12v-4.15c0-.52-.12-.91-.36-1.17s-.61-.39-1.12-.39c-.67,0-1.16.18-1.48.54s-.47.96-.47,1.8v3.37h-.97v-6.42h.79l.16.88h.05c.2-.32.48-.56.84-.74s.76-.26,1.2-.26c.77,0,1.36.19,1.75.56s.59.97.59,1.79v4.19h-.97Z"/><path d="m525.86,170.43c.17,0,.34-.01.5-.04s.29-.05.38-.08v.74c-.11.05-.26.09-.47.13s-.39.05-.55.05c-1.24,0-1.86-.65-1.86-1.96v-3.82h-.92v-.47l.92-.4.41-1.37h.56v1.49h1.86v.76h-1.86v3.78c0,.39.09.68.28.89s.44.31.76.31Z"/><path d="m533.56,167.9c0,1.05-.26,1.86-.79,2.45s-1.26.88-2.19.88c-.57,0-1.08-.13-1.53-.4s-.79-.66-1.03-1.16-.36-1.09-.36-1.77c0-1.05.26-1.86.79-2.45s1.25-.88,2.18-.88,1.61.3,2.14.9.79,1.41.79,2.43Zm-4.89,0c0,.82.16,1.45.49,1.88s.81.64,1.45.64,1.12-.21,1.45-.64.5-1.05.5-1.88-.17-1.44-.5-1.86-.82-.64-1.46-.64-1.12.21-1.44.63-.49,1.04-.49,1.87Z"/><path d="m540.46,170.43c.17,0,.34-.01.5-.04s.29-.05.38-.08v.74c-.11.05-.26.09-.47.13s-.39.05-.55.05c-1.24,0-1.86-.65-1.86-1.96v-3.82h-.92v-.47l.92-.4.41-1.37h.56v1.49h1.86v.76h-1.86v3.78c0,.39.09.68.28.89s.44.31.76.31Z"/><path d="m545.33,171.24c-.95,0-1.7-.29-2.25-.87s-.82-1.38-.82-2.41.25-1.86.76-2.47,1.19-.91,2.05-.91c.8,0,1.44.26,1.91.79s.7,1.23.7,2.09v.62h-4.42c.02.75.21,1.33.57,1.72s.87.59,1.53.59c.69,0,1.38-.14,2.05-.43v.87c-.34.15-.67.25-.98.32s-.68.1-1.11.1Zm-.26-5.84c-.52,0-.93.17-1.23.5s-.49.8-.54,1.39h3.36c0-.61-.14-1.08-.41-1.41s-.66-.49-1.17-.49Z"/><path d="m557.54,171.12v-4.18c0-.51-.11-.9-.33-1.15s-.56-.38-1.02-.38c-.61,0-1.05.17-1.34.52s-.43.88-.43,1.61v3.59h-.97v-4.18c0-.51-.11-.9-.33-1.15s-.56-.38-1.03-.38c-.61,0-1.06.18-1.34.55s-.42.96-.42,1.8v3.37h-.97v-6.42h.79l.16.88h.05c.18-.31.44-.56.78-.73s.71-.26,1.12-.26c1,0,1.66.36,1.97,1.09h.05c.19-.34.47-.6.83-.8s.78-.29,1.24-.29c.73,0,1.27.19,1.63.56s.54.97.54,1.79v4.19h-.97Z"/><path d="m563.5,171.24c-.42,0-.8-.08-1.15-.23s-.64-.39-.87-.71h-.07c.05.38.07.73.07,1.07v2.64h-.97v-9.3h.79l.13.88h.05c.25-.35.54-.61.87-.76s.71-.23,1.14-.23c.85,0,1.51.29,1.97.87s.69,1.4.69,2.45-.24,1.87-.71,2.46-1.12.88-1.96.88Zm-.14-5.83c-.66,0-1.13.18-1.42.54s-.44.94-.45,1.73v.22c0,.9.15,1.55.45,1.94s.78.58,1.45.58c.55,0,.99-.22,1.3-.67s.47-1.07.47-1.86-.16-1.42-.47-1.84-.76-.64-1.33-.64Z"/><path d="m573.41,167.9c0,1.05-.26,1.86-.79,2.45s-1.26.88-2.19.88c-.57,0-1.08-.13-1.53-.4s-.79-.66-1.03-1.16-.36-1.09-.36-1.77c0-1.05.26-1.86.79-2.45s1.25-.88,2.18-.88,1.61.3,2.14.9.79,1.41.79,2.43Zm-4.89,0c0,.82.16,1.45.49,1.88s.81.64,1.45.64,1.12-.21,1.45-.64.5-1.05.5-1.88-.17-1.44-.5-1.86-.82-.64-1.46-.64-1.12.21-1.44.63-.49,1.04-.49,1.87Z"/><path d="m496.02,185.64c-.42,0-.8-.08-1.15-.23s-.64-.39-.87-.71h-.07c.05.38.07.73.07,1.07v2.64h-.97v-9.3h.79l.13.88h.05c.25-.35.54-.61.87-.76s.71-.23,1.14-.23c.85,0,1.51.29,1.97.87s.69,1.4.69,2.45-.24,1.88-.71,2.46-1.12.88-1.96.88Zm-.14-5.83c-.66,0-1.13.18-1.42.54s-.44.94-.45,1.73v.22c0,.9.15,1.55.45,1.94s.78.58,1.45.58c.55,0,.99-.22,1.3-.67s.47-1.07.47-1.86-.16-1.41-.47-1.84-.76-.64-1.33-.64Z"/><path d="m503.31,178.98c.29,0,.54.02.77.07l-.13.9c-.27-.06-.5-.09-.7-.09-.52,0-.96.21-1.33.63s-.55.95-.55,1.58v3.45h-.97v-6.42h.8l.11,1.19h.05c.24-.42.53-.74.86-.97s.71-.34,1.11-.34Z"/><path d="m508,185.64c-.95,0-1.7-.29-2.25-.87s-.82-1.38-.82-2.41.25-1.86.76-2.47,1.19-.91,2.05-.91c.8,0,1.44.27,1.91.79s.7,1.23.7,2.09v.62h-4.42c.02.75.21,1.33.57,1.72s.87.59,1.53.59c.69,0,1.38-.14,2.05-.43v.87c-.34.15-.67.26-.98.32s-.68.1-1.11.1Zm-.26-5.84c-.52,0-.93.17-1.23.5s-.49.8-.54,1.39h3.36c0-.61-.14-1.08-.41-1.41s-.66-.49-1.17-.49Z"/><path d="m514.58,185.64c-.93,0-1.65-.29-2.16-.86s-.76-1.38-.76-2.43.26-1.9.78-2.49,1.25-.88,2.21-.88c.31,0,.62.03.93.1s.55.14.73.23l-.3.83c-.21-.09-.45-.16-.7-.21s-.48-.09-.67-.09c-1.3,0-1.96.83-1.96,2.5,0,.79.16,1.39.48,1.82s.79.63,1.42.63c.54,0,1.08-.12,1.65-.35v.86c-.43.22-.97.33-1.62.33Z"/><path d="m517.65,177.36c0-.22.05-.38.16-.49s.25-.16.41-.16.29.05.4.16.17.27.17.49-.06.38-.17.49-.25.16-.4.16c-.16,0-.3-.05-.41-.16s-.16-.27-.16-.49Zm1.05,8.16h-.97v-6.42h.97v6.42Z"/><path d="m524.91,183.77c0,.6-.22,1.06-.67,1.38s-1.07.49-1.88.49c-.85,0-1.52-.13-1.99-.4v-.9c.31.16.64.28.99.37s.69.13,1.02.13c.51,0,.9-.08,1.17-.24s.41-.41.41-.74c0-.25-.11-.46-.33-.64s-.64-.39-1.27-.63c-.6-.22-1.02-.42-1.27-.58s-.44-.36-.56-.57-.18-.46-.18-.76c0-.52.21-.94.64-1.24s1.01-.46,1.75-.46c.69,0,1.37.14,2.03.42l-.35.79c-.64-.27-1.23-.4-1.75-.4-.46,0-.81.07-1.04.22s-.35.34-.35.6c0,.17.04.32.13.44s.23.24.42.35.57.27,1.12.47c.76.28,1.28.56,1.54.84s.4.63.4,1.06Z"/><path d="m530.44,185.52l-.19-.91h-.05c-.32.4-.64.68-.96.82s-.72.21-1.19.21c-.64,0-1.14-.16-1.5-.49s-.54-.79-.54-1.4c0-1.3,1.04-1.98,3.11-2.04l1.09-.04v-.4c0-.5-.11-.88-.33-1.12s-.56-.36-1.04-.36c-.54,0-1.14.16-1.82.49l-.3-.74c.32-.17.66-.31,1.04-.4s.75-.15,1.13-.15c.77,0,1.33.17,1.7.51s.55.88.55,1.63v4.38h-.72Zm-2.2-.69c.61,0,1.08-.17,1.43-.5s.52-.8.52-1.39v-.58l-.97.04c-.77.03-1.33.15-1.67.36s-.51.54-.51.99c0,.35.11.62.32.8s.51.28.89.28Z"/><path d="m541.35,185.52v-4.18c0-.51-.11-.89-.33-1.15s-.56-.38-1.02-.38c-.61,0-1.05.17-1.34.52s-.43.88-.43,1.61v3.59h-.97v-4.18c0-.51-.11-.89-.33-1.15s-.56-.38-1.03-.38c-.61,0-1.06.18-1.34.55s-.42.96-.42,1.79v3.37h-.97v-6.42h.79l.16.88h.05c.18-.31.44-.56.78-.73s.71-.26,1.12-.26c1,0,1.66.36,1.97,1.09h.05c.19-.34.47-.6.83-.8s.78-.29,1.24-.29c.73,0,1.27.19,1.63.56s.54.97.54,1.79v4.19h-.97Z"/><path d="m549.87,182.3c0,1.05-.26,1.87-.79,2.45s-1.26.88-2.19.88c-.57,0-1.08-.13-1.53-.4s-.79-.66-1.03-1.16-.36-1.09-.36-1.77c0-1.05.26-1.86.79-2.45s1.25-.88,2.18-.88,1.61.3,2.14.9.79,1.41.79,2.43Zm-4.89,0c0,.82.16,1.45.49,1.88s.81.64,1.45.64,1.12-.21,1.45-.64.5-1.05.5-1.88-.17-1.44-.5-1.86-.82-.64-1.46-.64-1.12.21-1.44.63-.49,1.04-.49,1.87Z"/><path d="m555.71,183.77c0,.6-.22,1.06-.67,1.38s-1.07.49-1.88.49c-.85,0-1.52-.13-1.99-.4v-.9c.31.16.64.28.99.37s.69.13,1.02.13c.51,0,.9-.08,1.17-.24s.41-.41.41-.74c0-.25-.11-.46-.33-.64s-.64-.39-1.27-.63c-.6-.22-1.02-.42-1.27-.58s-.44-.36-.56-.57-.18-.46-.18-.76c0-.52.21-.94.64-1.24s1.01-.46,1.75-.46c.69,0,1.37.14,2.03.42l-.35.79c-.64-.27-1.23-.4-1.75-.4-.46,0-.81.07-1.04.22s-.35.34-.35.6c0,.17.04.32.13.44s.23.24.42.35.57.27,1.12.47c.76.28,1.28.56,1.54.84s.4.63.4,1.06Z"/><path d="m562.49,184.83c.17,0,.34-.01.5-.04s.29-.05.38-.08v.74c-.11.05-.26.09-.47.13s-.39.05-.55.05c-1.24,0-1.86-.65-1.86-1.96v-3.82h-.92v-.47l.92-.4.41-1.37h.56v1.49h1.86v.76h-1.86v3.78c0,.39.09.68.28.89s.44.31.76.31Z"/><path d="m567.36,185.64c-.95,0-1.7-.29-2.25-.87s-.82-1.38-.82-2.41.25-1.86.76-2.47,1.19-.91,2.05-.91c.8,0,1.44.27,1.91.79s.7,1.23.7,2.09v.62h-4.42c.02.75.21,1.33.57,1.72s.87.59,1.53.59c.69,0,1.38-.14,2.05-.43v.87c-.34.15-.67.26-.98.32s-.68.1-1.11.1Zm-.26-5.84c-.52,0-.93.17-1.23.5s-.49.8-.54,1.39h3.36c0-.61-.14-1.08-.41-1.41s-.66-.49-1.17-.49Z"/><path d="m574.31,178.98c.29,0,.54.02.77.07l-.13.9c-.27-.06-.5-.09-.7-.09-.52,0-.96.21-1.33.63s-.55.95-.55,1.58v3.45h-.97v-6.42h.8l.11,1.19h.05c.24-.42.53-.74.86-.97s.71-.34,1.11-.34Z"/><path d="m583.35,185.52l-.19-.91h-.05c-.32.4-.64.68-.96.82s-.72.21-1.19.21c-.64,0-1.14-.16-1.5-.49s-.54-.79-.54-1.4c0-1.3,1.04-1.98,3.11-2.04l1.09-.04v-.4c0-.5-.11-.88-.33-1.12s-.56-.36-1.04-.36c-.54,0-1.14.16-1.82.49l-.3-.74c.32-.17.66-.31,1.04-.4s.75-.15,1.13-.15c.77,0,1.33.17,1.7.51s.55.88.55,1.63v4.38h-.72Zm-2.2-.69c.61,0,1.08-.17,1.43-.5s.52-.8.52-1.39v-.58l-.97.04c-.77.03-1.33.15-1.67.36s-.51.54-.51.99c0,.35.11.62.32.8s.51.28.89.28Z"/><path d="m592.18,185.64c-.42,0-.8-.08-1.15-.23s-.64-.39-.87-.71h-.07c.05.38.07.73.07,1.07v2.64h-.97v-9.3h.79l.13.88h.05c.25-.35.54-.61.87-.76s.71-.23,1.14-.23c.85,0,1.51.29,1.97.87s.69,1.4.69,2.45-.24,1.88-.71,2.46-1.12.88-1.96.88Zm-.14-5.83c-.66,0-1.13.18-1.42.54s-.44.94-.45,1.73v.22c0,.9.15,1.55.45,1.94s.78.58,1.45.58c.55,0,.99-.22,1.3-.67s.47-1.07.47-1.86-.16-1.41-.47-1.84-.76-.64-1.33-.64Z"/><path d="m602.09,182.3c0,1.05-.26,1.87-.79,2.45s-1.26.88-2.19.88c-.57,0-1.08-.13-1.53-.4s-.79-.66-1.03-1.16-.36-1.09-.36-1.77c0-1.05.26-1.86.79-2.45s1.25-.88,2.18-.88,1.61.3,2.14.9.79,1.41.79,2.43Zm-4.89,0c0,.82.16,1.45.49,1.88s.81.64,1.45.64,1.12-.21,1.45-.64.5-1.05.5-1.88-.17-1.44-.5-1.86-.82-.64-1.46-.64-1.12.21-1.44.63-.49,1.04-.49,1.87Z"/><path d="m604.76,185.52h-.97v-9.12h.97v9.12Z"/><path d="m606.79,178.1c.19-.24.39-.54.61-.88s.39-.64.51-.9h1.18v.12c-.17.25-.43.57-.77.94s-.63.66-.88.86h-.65v-.15Zm1.01,7.42h-.97v-6.42h.97v6.42Z"/><path d="m611.94,184.83c.17,0,.34-.01.5-.04s.29-.05.38-.08v.74c-.11.05-.26.09-.47.13s-.39.05-.55.05c-1.24,0-1.86-.65-1.86-1.96v-3.82h-.92v-.47l.92-.4.41-1.37h.56v1.49h1.86v.76h-1.86v3.78c0,.39.09.68.28.89s.44.31.76.31Z"/><path d="m614.02,177.36c0-.22.05-.38.16-.49s.25-.16.41-.16.29.05.4.16.17.27.17.49-.06.38-.17.49-.25.16-.4.16c-.16,0-.3-.05-.41-.16s-.16-.27-.16-.49Zm1.05,8.16h-.97v-6.42h.97v6.42Z"/><path d="m619.7,185.64c-.93,0-1.65-.29-2.16-.86s-.76-1.38-.76-2.43.26-1.9.78-2.49,1.25-.88,2.21-.88c.31,0,.62.03.93.1s.55.14.73.23l-.3.83c-.21-.09-.45-.16-.7-.21s-.48-.09-.67-.09c-1.3,0-1.96.83-1.96,2.5,0,.79.16,1.39.48,1.82s.79.63,1.42.63c.54,0,1.08-.12,1.65-.35v.86c-.43.22-.97.33-1.62.33Z"/><path d="m626.79,185.52l-.19-.91h-.05c-.32.4-.64.68-.96.82s-.72.21-1.19.21c-.64,0-1.14-.16-1.5-.49s-.54-.79-.54-1.4c0-1.3,1.04-1.98,3.11-2.04l1.09-.04v-.4c0-.5-.11-.88-.33-1.12s-.56-.36-1.04-.36c-.54,0-1.14.16-1.82.49l-.3-.74c.32-.17.66-.31,1.04-.4s.75-.15,1.13-.15c.77,0,1.33.17,1.7.51s.55.88.55,1.63v4.38h-.72Zm-2.2-.69c.61,0,1.08-.17,1.43-.5s.52-.8.52-1.39v-.58l-.97.04c-.77.03-1.33.15-1.67.36s-.51.54-.51.99c0,.35.11.62.32.8s.51.28.89.28Z"/><path d="m492.95,191.76c0-.22.05-.39.16-.49s.25-.16.41-.16.29.05.4.16.17.27.17.49-.06.38-.17.49-.25.16-.4.16c-.16,0-.3-.05-.41-.16s-.16-.27-.16-.49Zm1.05,8.16h-.97v-6.42h.97v6.42Z"/><path d="m500.46,199.92v-4.15c0-.52-.12-.91-.36-1.17s-.61-.39-1.12-.39c-.67,0-1.16.18-1.48.54s-.47.96-.47,1.8v3.37h-.97v-6.42h.79l.16.88h.05c.2-.32.48-.56.84-.74s.76-.26,1.2-.26c.77,0,1.36.19,1.75.56s.59.97.59,1.79v4.19h-.97Z"/><path d="m507.57,198.17c0,.6-.22,1.06-.67,1.38s-1.07.49-1.88.49c-.85,0-1.52-.13-1.99-.4v-.9c.31.16.64.28.99.37s.69.13,1.02.13c.51,0,.9-.08,1.17-.24s.41-.41.41-.74c0-.25-.11-.46-.33-.64s-.64-.39-1.27-.63c-.6-.22-1.02-.42-1.27-.58s-.44-.35-.56-.57-.18-.46-.18-.76c0-.52.21-.94.64-1.24s1.01-.45,1.75-.45c.69,0,1.37.14,2.03.42l-.35.79c-.64-.27-1.23-.4-1.75-.4-.46,0-.81.07-1.04.22s-.35.34-.35.6c0,.17.04.32.13.44s.23.24.42.35.57.27,1.12.47c.76.28,1.28.56,1.54.84s.4.63.4,1.06Z"/><path d="m511.23,199.23c.17,0,.34-.01.5-.04s.29-.05.38-.08v.74c-.11.05-.26.09-.47.13s-.39.05-.55.05c-1.24,0-1.86-.65-1.86-1.96v-3.82h-.92v-.47l.92-.4.41-1.37h.56v1.49h1.86v.76h-1.86v3.78c0,.39.09.68.28.89s.44.31.76.31Z"/><path d="m513.31,191.76c0-.22.05-.39.16-.49s.25-.16.41-.16.29.05.4.16.17.27.17.49-.06.38-.17.49-.25.16-.4.16c-.16,0-.3-.05-.41-.16s-.16-.27-.16-.49Zm1.05,8.16h-.97v-6.42h.97v6.42Z"/><path d="m518.5,199.23c.17,0,.34-.01.5-.04s.29-.05.38-.08v.74c-.11.05-.26.09-.47.13s-.39.05-.55.05c-1.24,0-1.86-.65-1.86-1.96v-3.82h-.92v-.47l.92-.4.41-1.37h.56v1.49h1.86v.76h-1.86v3.78c0,.39.09.68.28.89s.44.31.76.31Z"/><path d="m521.58,193.5v4.17c0,.52.12.91.36,1.17s.61.39,1.12.39c.67,0,1.16-.18,1.47-.55s.47-.97.47-1.8v-3.38h.97v6.42h-.8l-.14-.86h-.05c-.2.32-.48.56-.83.73s-.76.25-1.21.25c-.78,0-1.37-.19-1.75-.56s-.58-.96-.58-1.78v-4.2h.98Z"/><path d="m527.99,192.5c.19-.24.39-.54.61-.88s.39-.64.51-.9h1.18v.12c-.17.25-.43.57-.77.94s-.63.66-.88.86h-.65v-.15Zm1.01,7.42h-.97v-6.42h.97v6.42Z"/><path d="m535.44,199.06h-.05c-.45.65-1.12.98-2.02.98-.84,0-1.49-.29-1.96-.86s-.7-1.39-.7-2.45.23-1.88.7-2.47,1.12-.88,1.96-.88,1.54.32,2,.95h.08l-.04-.46-.02-.45v-2.61h.97v9.12h-.79l-.13-.86Zm-1.95.16c.66,0,1.15-.18,1.44-.54s.45-.94.45-1.75v-.21c0-.91-.15-1.56-.45-1.95s-.79-.58-1.45-.58c-.57,0-1.01.22-1.31.67s-.45,1.07-.45,1.88.15,1.44.45,1.86.74.63,1.32.63Z"/><path d="m542.37,199.92l-.19-.91h-.05c-.32.4-.64.67-.96.82s-.72.21-1.19.21c-.64,0-1.14-.16-1.5-.49s-.54-.79-.54-1.4c0-1.3,1.04-1.98,3.11-2.04l1.09-.04v-.4c0-.5-.11-.88-.33-1.12s-.56-.36-1.04-.36c-.54,0-1.14.16-1.82.49l-.3-.74c.32-.17.66-.31,1.04-.4s.75-.15,1.13-.15c.77,0,1.33.17,1.7.51s.55.88.55,1.63v4.38h-.72Zm-2.2-.69c.61,0,1.08-.17,1.43-.5s.52-.8.52-1.39v-.58l-.97.04c-.77.03-1.33.15-1.67.36s-.51.54-.51.99c0,.35.11.62.32.8s.51.28.89.28Z"/><path d="m551.2,200.04c-.42,0-.8-.08-1.15-.23s-.64-.39-.87-.71h-.07c.05.38.07.73.07,1.07v2.64h-.97v-9.3h.79l.13.88h.05c.25-.35.54-.61.87-.76s.71-.23,1.14-.23c.85,0,1.51.29,1.97.87s.69,1.4.69,2.45-.24,1.87-.71,2.46-1.12.88-1.96.88Zm-.14-5.83c-.66,0-1.13.18-1.42.54s-.44.94-.45,1.73v.22c0,.9.15,1.55.45,1.94s.78.58,1.45.58c.55,0,.99-.22,1.3-.67s.47-1.07.47-1.86-.16-1.42-.47-1.84-.76-.64-1.33-.64Z"/><path d="m559.51,199.92l-.19-.91h-.05c-.32.4-.64.67-.96.82s-.72.21-1.19.21c-.64,0-1.14-.16-1.5-.49s-.54-.79-.54-1.4c0-1.3,1.04-1.98,3.11-2.04l1.09-.04v-.4c0-.5-.11-.88-.33-1.12s-.56-.36-1.04-.36c-.54,0-1.14.16-1.82.49l-.3-.74c.32-.17.66-.31,1.04-.4s.75-.15,1.13-.15c.77,0,1.33.17,1.7.51s.55.88.55,1.63v4.38h-.72Zm-2.2-.69c.61,0,1.08-.17,1.43-.5s.52-.8.52-1.39v-.58l-.97.04c-.77.03-1.33.15-1.67.36s-.51.54-.51.99c0,.35.11.62.32.8s.51.28.89.28Z"/><path d="m565.17,193.38c.29,0,.54.02.77.07l-.13.9c-.27-.06-.5-.09-.7-.09-.52,0-.96.21-1.33.63s-.55.95-.55,1.58v3.45h-.97v-6.42h.8l.11,1.19h.05c.24-.42.53-.74.86-.97s.71-.34,1.11-.34Z"/><path d="m571.08,199.92l-.19-.91h-.05c-.32.4-.64.67-.96.82s-.72.21-1.19.21c-.64,0-1.14-.16-1.5-.49s-.54-.79-.54-1.4c0-1.3,1.04-1.98,3.11-2.04l1.09-.04v-.4c0-.5-.11-.88-.33-1.12s-.56-.36-1.04-.36c-.54,0-1.14.16-1.82.49l-.3-.74c.32-.17.66-.31,1.04-.4s.75-.15,1.13-.15c.77,0,1.33.17,1.7.51s.55.88.55,1.63v4.38h-.72Zm-2.2-.69c.61,0,1.08-.17,1.43-.5s.52-.8.52-1.39v-.58l-.97.04c-.77.03-1.33.15-1.67.36s-.51.54-.51.99c0,.35.11.62.32.8s.51.28.89.28Z"/><path d="m579.91,200.04c-.42,0-.8-.08-1.15-.23s-.64-.39-.87-.71h-.07c.05.38.07.73.07,1.07v2.64h-.97v-9.3h.79l.13.88h.05c.25-.35.54-.61.87-.76s.71-.23,1.14-.23c.85,0,1.51.29,1.97.87s.69,1.4.69,2.45-.24,1.87-.71,2.46-1.12.88-1.96.88Zm-.14-5.83c-.66,0-1.13.18-1.42.54s-.44.94-.45,1.73v.22c0,.9.15,1.55.45,1.94s.78.58,1.45.58c.55,0,.99-.22,1.3-.67s.47-1.07.47-1.86-.16-1.42-.47-1.84-.76-.64-1.33-.64Z"/><path d="m587.21,193.38c.29,0,.54.02.77.07l-.13.9c-.27-.06-.5-.09-.7-.09-.52,0-.96.21-1.33.63s-.55.95-.55,1.58v3.45h-.97v-6.42h.8l.11,1.19h.05c.24-.42.53-.74.86-.97s.71-.34,1.11-.34Z"/><path d="m594.72,196.7c0,1.05-.26,1.86-.79,2.45s-1.26.88-2.19.88c-.57,0-1.08-.13-1.53-.4s-.79-.66-1.03-1.16-.36-1.09-.36-1.77c0-1.05.26-1.86.79-2.45s1.25-.88,2.18-.88,1.61.3,2.14.9.79,1.41.79,2.43Zm-4.89,0c0,.82.16,1.45.49,1.88s.81.64,1.45.64,1.12-.21,1.45-.64.5-1.05.5-1.88-.17-1.44-.5-1.86-.82-.64-1.46-.64-1.12.21-1.44.63-.49,1.04-.49,1.87Z"/><path d="m600.8,199.06h-.05c-.45.65-1.12.98-2.02.98-.84,0-1.49-.29-1.96-.86s-.7-1.39-.7-2.45.23-1.88.7-2.47,1.12-.88,1.96-.88,1.54.32,2,.95h.08l-.04-.46-.02-.45v-2.61h.97v9.12h-.79l-.13-.86Zm-1.95.16c.66,0,1.15-.18,1.44-.54s.45-.94.45-1.75v-.21c0-.91-.15-1.56-.45-1.95s-.79-.58-1.45-.58c-.57,0-1.01.22-1.31.67s-.45,1.07-.45,1.88.15,1.44.45,1.86.74.63,1.32.63Z"/><path d="m604.69,193.5v4.17c0,.52.12.91.36,1.17s.61.39,1.12.39c.67,0,1.16-.18,1.47-.55s.47-.97.47-1.8v-3.38h.97v6.42h-.8l-.14-.86h-.05c-.2.32-.48.56-.83.73s-.76.25-1.21.25c-.78,0-1.37-.19-1.75-.56s-.58-.96-.58-1.78v-4.2h.98Z"/><path d="m615.25,199.92h-4.66v-.66l3.5-5h-3.29v-.76h4.35v.76l-3.46,4.91h3.54v.76Z"/><path d="m616.68,191.76c0-.22.05-.39.16-.49s.25-.16.41-.16.29.05.4.16.17.27.17.49-.06.38-.17.49-.25.16-.4.16c-.16,0-.3-.05-.41-.16s-.16-.27-.16-.49Zm1.05,8.16h-.97v-6.42h.97v6.42Z"/><path d="m622.72,193.38c.29,0,.54.02.77.07l-.13.9c-.27-.06-.5-.09-.7-.09-.52,0-.96.21-1.33.63s-.55.95-.55,1.58v3.45h-.97v-6.42h.8l.11,1.19h.05c.24-.42.53-.74.86-.97s.71-.34,1.11-.34Z"/><path d="m495.96,207.78c.29,0,.54.02.77.07l-.13.9c-.27-.06-.5-.09-.7-.09-.52,0-.96.21-1.33.63s-.55.95-.55,1.58v3.45h-.97v-6.42h.8l.11,1.19h.05c.24-.42.53-.74.86-.97s.71-.34,1.11-.34Z"/><path d="m500.64,214.44c-.95,0-1.7-.29-2.25-.87s-.82-1.38-.82-2.41.25-1.86.76-2.47,1.19-.91,2.05-.91c.8,0,1.44.26,1.91.79s.7,1.23.7,2.1v.62h-4.42c.02.75.21,1.33.57,1.72s.87.59,1.53.59c.69,0,1.38-.14,2.05-.43v.87c-.34.15-.67.25-.98.32s-.68.1-1.11.1Zm-.26-5.84c-.52,0-.93.17-1.23.5s-.49.8-.54,1.39h3.36c0-.61-.14-1.08-.41-1.41s-.66-.49-1.17-.49Z"/><path d="m508.8,212.57c0,.6-.22,1.06-.67,1.38s-1.07.49-1.88.49c-.85,0-1.52-.13-1.99-.4v-.9c.31.16.64.28.99.37s.69.13,1.02.13c.51,0,.9-.08,1.17-.24s.41-.41.41-.74c0-.25-.11-.46-.33-.64s-.64-.39-1.27-.63c-.6-.22-1.02-.42-1.27-.58s-.44-.35-.56-.56-.18-.46-.18-.76c0-.52.21-.94.64-1.24s1.01-.45,1.75-.45c.69,0,1.37.14,2.03.42l-.35.79c-.64-.27-1.23-.4-1.75-.4-.46,0-.81.07-1.04.22s-.35.34-.35.6c0,.17.04.32.13.44s.23.24.42.35.57.27,1.12.47c.76.28,1.28.56,1.54.84s.4.63.4,1.06Z"/><path d="m511.3,207.9v4.17c0,.52.12.91.36,1.17s.61.39,1.12.39c.67,0,1.16-.18,1.47-.55s.47-.97.47-1.8v-3.38h.97v6.42h-.8l-.14-.86h-.05c-.2.32-.48.56-.83.73s-.76.25-1.21.25c-.78,0-1.37-.19-1.75-.56s-.58-.96-.58-1.78v-4.2h.98Z"/><path d="m518.72,214.32h-.97v-9.12h.97v9.12Z"/><path d="m522.86,213.63c.17,0,.34-.01.5-.04s.29-.05.38-.08v.74c-.11.05-.26.09-.47.12s-.39.05-.55.05c-1.24,0-1.86-.65-1.86-1.96v-3.82h-.92v-.47l.92-.4.41-1.37h.56v1.49h1.86v.76h-1.86v3.78c0,.39.09.68.28.89s.44.31.76.31Z"/><path d="m528.97,214.32l-.19-.91h-.05c-.32.4-.64.67-.96.82s-.72.21-1.19.21c-.64,0-1.14-.16-1.5-.49s-.54-.79-.54-1.4c0-1.3,1.04-1.98,3.11-2.04l1.09-.04v-.4c0-.5-.11-.88-.33-1.12s-.56-.36-1.04-.36c-.54,0-1.14.16-1.82.49l-.3-.74c.32-.17.66-.31,1.04-.4s.75-.15,1.13-.15c.77,0,1.33.17,1.7.51s.55.88.55,1.63v4.38h-.72Zm-2.2-.69c.61,0,1.08-.17,1.43-.5s.52-.8.52-1.39v-.58l-.97.04c-.77.03-1.33.15-1.67.36s-.51.54-.51.99c0,.35.11.62.32.8s.51.28.89.28Z"/><path d="m536.07,213.46h-.05c-.45.65-1.12.98-2.02.98-.84,0-1.49-.29-1.96-.86s-.7-1.39-.7-2.45.23-1.88.7-2.47,1.12-.88,1.96-.88,1.54.32,2,.95h.08l-.04-.46-.02-.45v-2.61h.97v9.12h-.79l-.13-.86Zm-1.95.16c.66,0,1.15-.18,1.44-.54s.45-.94.45-1.75v-.21c0-.91-.15-1.56-.45-1.95s-.79-.58-1.45-.58c-.57,0-1.01.22-1.31.66s-.45,1.07-.45,1.88.15,1.44.45,1.86.74.63,1.32.63Z"/><path d="m544.59,211.1c0,1.05-.26,1.86-.79,2.45s-1.26.88-2.19.88c-.57,0-1.08-.13-1.53-.4s-.79-.66-1.03-1.16-.36-1.09-.36-1.77c0-1.05.26-1.86.79-2.45s1.25-.88,2.18-.88,1.61.3,2.14.9.79,1.41.79,2.43Zm-4.89,0c0,.82.16,1.45.49,1.88s.81.64,1.45.64,1.12-.21,1.45-.64.5-1.05.5-1.88-.17-1.44-.5-1.86-.82-.63-1.46-.63-1.12.21-1.44.63-.49,1.04-.49,1.87Z"/><path d="m550.44,212.57c0,.6-.22,1.06-.67,1.38s-1.07.49-1.88.49c-.85,0-1.52-.13-1.99-.4v-.9c.31.16.64.28.99.37s.69.13,1.02.13c.51,0,.9-.08,1.17-.24s.41-.41.41-.74c0-.25-.11-.46-.33-.64s-.64-.39-1.27-.63c-.6-.22-1.02-.42-1.27-.58s-.44-.35-.56-.56-.18-.46-.18-.76c0-.52.21-.94.64-1.24s1.01-.45,1.75-.45c.69,0,1.37.14,2.03.42l-.35.79c-.64-.27-1.23-.4-1.75-.4-.46,0-.81.07-1.04.22s-.35.34-.35.6c0,.17.04.32.13.44s.23.24.42.35.57.27,1.12.47c.76.28,1.28.56,1.54.84s.4.63.4,1.06Z"/><path d="m557.85,214.44c-.95,0-1.7-.29-2.25-.87s-.82-1.38-.82-2.41.25-1.86.76-2.47,1.19-.91,2.05-.91c.8,0,1.44.26,1.91.79s.7,1.23.7,2.1v.62h-4.42c.02.75.21,1.33.57,1.72s.87.59,1.53.59c.69,0,1.38-.14,2.05-.43v.87c-.34.15-.67.25-.98.32s-.68.1-1.11.1Zm-.26-5.84c-.52,0-.93.17-1.23.5s-.49.8-.54,1.39h3.36c0-.61-.14-1.08-.41-1.41s-.66-.49-1.17-.49Z"/><path d="m564.77,208.65h-1.63v5.67h-.97v-5.67h-1.15v-.44l1.15-.35v-.36c0-1.58.69-2.37,2.07-2.37.34,0,.74.07,1.2.21l-.25.78c-.38-.12-.7-.18-.96-.18-.37,0-.64.12-.81.37s-.26.64-.26,1.18v.42h1.63v.76Z"/><path d="m568.65,214.44c-.95,0-1.7-.29-2.25-.87s-.82-1.38-.82-2.41.25-1.86.76-2.47,1.19-.91,2.05-.91c.8,0,1.44.26,1.91.79s.7,1.23.7,2.1v.62h-4.42c.02.75.21,1.33.57,1.72s.87.59,1.53.59c.69,0,1.38-.14,2.05-.43v.87c-.34.15-.67.25-.98.32s-.68.1-1.11.1Zm-.26-5.84c-.52,0-.93.17-1.23.5s-.49.8-.54,1.39h3.36c0-.61-.14-1.08-.41-1.41s-.66-.49-1.17-.49Z"/><path d="m574.75,213.63c.17,0,.34-.01.5-.04s.29-.05.38-.08v.74c-.11.05-.26.09-.47.12s-.39.05-.55.05c-1.24,0-1.86-.65-1.86-1.96v-3.82h-.92v-.47l.92-.4.41-1.37h.56v1.49h1.86v.76h-1.86v3.78c0,.39.09.68.28.89s.44.31.76.31Z"/><path d="m576.83,206.16c0-.22.05-.39.16-.49s.25-.15.41-.15.29.05.4.16.17.27.17.49-.06.38-.17.49-.25.16-.4.16c-.16,0-.3-.05-.41-.16s-.16-.27-.16-.49Zm1.05,8.16h-.97v-6.42h.97v6.42Z"/><path d="m581.35,214.32l-2.44-6.42h1.04l1.38,3.81c.31.89.5,1.47.55,1.73h.05c.04-.21.18-.64.41-1.29s.74-2.07,1.54-4.26h1.04l-2.44,6.42h-1.14Z"/><path d="m591.5,211.1c0,1.05-.26,1.86-.79,2.45s-1.26.88-2.19.88c-.57,0-1.08-.13-1.53-.4s-.79-.66-1.03-1.16-.36-1.09-.36-1.77c0-1.05.26-1.86.79-2.45s1.25-.88,2.18-.88,1.61.3,2.14.9.79,1.41.79,2.43Zm-4.89,0c0,.82.16,1.45.49,1.88s.81.64,1.45.64,1.12-.21,1.45-.64.5-1.05.5-1.88-.17-1.44-.5-1.86-.82-.63-1.46-.63-1.12.21-1.44.63-.49,1.04-.49,1.87Z"/><path d="m597.35,212.57c0,.6-.22,1.06-.67,1.38s-1.07.49-1.88.49c-.85,0-1.52-.13-1.99-.4v-.9c.31.16.64.28.99.37s.69.13,1.02.13c.51,0,.9-.08,1.17-.24s.41-.41.41-.74c0-.25-.11-.46-.33-.64s-.64-.39-1.27-.63c-.6-.22-1.02-.42-1.27-.58s-.44-.35-.56-.56-.18-.46-.18-.76c0-.52.21-.94.64-1.24s1.01-.45,1.75-.45c.69,0,1.37.14,2.03.42l-.35.79c-.64-.27-1.23-.4-1.75-.4-.46,0-.81.07-1.04.22s-.35.34-.35.6c0,.17.04.32.13.44s.23.24.42.35.57.27,1.12.47c.76.28,1.28.56,1.54.84s.4.63.4,1.06Z"/><path d="m599.59,211.96v-.32c0-.46.07-.83.21-1.13s.4-.61.79-.93c.53-.45.87-.79,1-1.01s.21-.5.21-.82c0-.4-.13-.71-.38-.92s-.62-.32-1.1-.32c-.31,0-.61.04-.9.11s-.63.21-1.01.4l-.35-.79c.74-.39,1.51-.58,2.31-.58.75,0,1.33.18,1.74.55s.62.88.62,1.55c0,.29-.04.54-.11.75s-.19.42-.34.62-.47.51-.96.94c-.39.34-.66.62-.78.84s-.19.52-.19.89v.19h-.76Zm-.29,1.74c0-.53.23-.8.7-.8.23,0,.4.07.52.21s.18.33.18.59-.06.44-.19.58-.3.21-.52.21c-.2,0-.37-.06-.5-.19s-.2-.32-.2-.61Z"/></g><rect class="cls-2" y="131" width="158" height="101"/><g><path d="m13.61,141.83c0,1.1-.22,2.01-.66,2.74s-1.06,1.22-1.87,1.48l2.04,2.12h-1.45l-1.67-1.93h-.32c-1.26.01-2.24-.37-2.92-1.15s-1.03-1.86-1.03-3.27.34-2.48,1.03-3.24,1.66-1.15,2.93-1.15,2.19.39,2.88,1.17,1.04,1.86,1.04,3.23Zm-6.83,0c0,1.16.25,2.04.74,2.64s1.21.9,2.15.9,1.67-.3,2.15-.9.73-1.48.73-2.64-.24-2.03-.72-2.62-1.2-.89-2.14-.89-1.67.3-2.17.9-.74,1.47-.74,2.62Z"/><path d="m16.29,139.7v4.17c0,.52.12.91.36,1.17s.61.39,1.12.39c.67,0,1.16-.18,1.47-.55s.47-.97.47-1.8v-3.38h.97v6.42h-.8l-.14-.86h-.05c-.2.32-.48.56-.83.73s-.76.25-1.21.25c-.78,0-1.37-.19-1.75-.56s-.58-.96-.58-1.78v-4.2h.98Z"/><path d="m25.46,146.24c-.95,0-1.7-.29-2.25-.87s-.82-1.38-.82-2.41.25-1.86.76-2.47,1.19-.91,2.05-.91c.8,0,1.44.26,1.91.79s.7,1.23.7,2.09v.62h-4.42c.02.75.21,1.33.57,1.72s.87.59,1.53.59c.69,0,1.38-.14,2.05-.43v.87c-.34.15-.67.25-.98.32s-.68.1-1.11.1Zm-.26-5.84c-.52,0-.93.17-1.23.5s-.49.8-.54,1.39h3.36c0-.61-.14-1.08-.41-1.41s-.66-.49-1.17-.49Z"/><path d="m36.54,146.12l-.19-.91h-.05c-.32.4-.64.67-.96.82s-.72.21-1.19.21c-.64,0-1.14-.16-1.5-.49s-.54-.79-.54-1.4c0-1.3,1.04-1.98,3.11-2.04l1.09-.04v-.4c0-.5-.11-.88-.33-1.12s-.56-.36-1.04-.36c-.54,0-1.14.16-1.82.49l-.3-.74c.32-.17.66-.31,1.04-.4s.75-.15,1.13-.15c.77,0,1.33.17,1.7.51s.55.88.55,1.63v4.38h-.72Zm-2.2-.69c.61,0,1.08-.17,1.43-.5s.52-.8.52-1.39v-.58l-.97.04c-.77.03-1.33.15-1.67.36s-.51.54-.51.99c0,.35.11.62.32.8s.51.28.89.28Z"/><path d="m41.83,146.24c-.93,0-1.65-.29-2.16-.86s-.76-1.38-.76-2.43.26-1.9.78-2.49,1.25-.88,2.21-.88c.31,0,.62.03.93.1s.55.14.73.23l-.3.83c-.21-.09-.45-.16-.7-.21s-.48-.08-.67-.08c-1.3,0-1.96.83-1.96,2.5,0,.79.16,1.39.48,1.82s.79.63,1.42.63c.54,0,1.08-.12,1.65-.35v.86c-.43.22-.97.33-1.62.33Zm.87,1.58c0,.38-.15.67-.45.88s-.74.31-1.33.31c-.2,0-.39-.02-.56-.05v-.62c.18.03.38.05.61.05.31,0,.54-.04.7-.12s.24-.22.24-.43c0-.17-.08-.3-.23-.41s-.44-.19-.87-.25l.52-1.04h.64l-.32.67c.7.15,1.05.49,1.05,1.02Z"/><path d="m50.52,142.9c0,1.05-.26,1.86-.79,2.45s-1.26.88-2.19.88c-.57,0-1.08-.13-1.53-.4s-.79-.66-1.03-1.16-.36-1.09-.36-1.77c0-1.05.26-1.86.79-2.45s1.25-.88,2.18-.88,1.61.3,2.14.9.79,1.41.79,2.43Zm-2.04-4.07c-.17,0-.33-.04-.49-.11s-.32-.15-.47-.24-.3-.17-.45-.24-.28-.11-.41-.11c-.2,0-.34.06-.44.18s-.18.29-.23.53h-.57c.05-.47.19-.84.41-1.11s.51-.4.87-.4c.18,0,.35.04.52.11s.33.15.48.24.3.17.44.24.27.11.4.11c.19,0,.33-.06.43-.17s.17-.29.23-.54h.58c-.05.47-.19.84-.41,1.11s-.51.4-.88.4Zm-2.85,4.07c0,.82.16,1.45.49,1.88s.81.64,1.45.64,1.12-.21,1.45-.64.5-1.05.5-1.88-.17-1.44-.5-1.86-.82-.64-1.46-.64-1.12.21-1.44.63-.49,1.04-.49,1.87Z"/><path d="m54.94,146.24c-.95,0-1.7-.29-2.25-.87s-.82-1.38-.82-2.41.25-1.86.76-2.47,1.19-.91,2.05-.91c.8,0,1.44.26,1.91.79s.7,1.23.7,2.09v.62h-4.42c.02.75.21,1.33.57,1.72s.87.59,1.53.59c.69,0,1.38-.14,2.05-.43v.87c-.34.15-.67.25-.98.32s-.68.1-1.11.1Zm-.26-5.84c-.52,0-.93.17-1.23.5s-.49.8-.54,1.39h3.36c0-.61-.14-1.08-.41-1.41s-.66-.49-1.17-.49Z"/><path d="m63.1,144.37c0,.6-.22,1.06-.67,1.38s-1.07.49-1.88.49c-.85,0-1.52-.13-1.99-.4v-.9c.31.16.64.28.99.37s.69.13,1.02.13c.51,0,.9-.08,1.17-.24s.41-.41.41-.74c0-.25-.11-.46-.33-.64s-.64-.39-1.27-.63c-.6-.22-1.02-.42-1.27-.58s-.44-.35-.56-.57-.18-.46-.18-.76c0-.52.21-.94.64-1.24s1.01-.45,1.75-.45c.69,0,1.37.14,2.03.42l-.35.79c-.64-.27-1.23-.4-1.75-.4-.46,0-.81.07-1.04.22s-.35.34-.35.6c0,.17.04.32.13.44s.23.24.42.35.57.27,1.12.47c.76.28,1.28.56,1.54.84s.4.63.4,1.06Z"/><path d="m70.7,140.45h-1.63v5.67h-.97v-5.67h-1.15v-.44l1.15-.35v-.36c0-1.58.69-2.37,2.07-2.37.34,0,.74.07,1.2.21l-.25.78c-.38-.12-.7-.18-.96-.18-.37,0-.64.12-.81.37s-.26.64-.26,1.17v.42h1.63v.76Z"/><path d="m77.41,142.9c0,1.05-.26,1.86-.79,2.45s-1.26.88-2.19.88c-.57,0-1.08-.13-1.53-.4s-.79-.66-1.03-1.16-.36-1.09-.36-1.77c0-1.05.26-1.86.79-2.45s1.25-.88,2.18-.88,1.61.3,2.14.9.79,1.41.79,2.43Zm-4.89,0c0,.82.16,1.45.49,1.88s.81.64,1.45.64,1.12-.21,1.45-.64.5-1.05.5-1.88-.17-1.44-.5-1.86-.82-.64-1.46-.64-1.12.21-1.44.63-.49,1.04-.49,1.87Z"/><path d="m82.04,139.58c.29,0,.54.02.77.07l-.13.9c-.27-.06-.5-.09-.7-.09-.52,0-.96.21-1.33.63s-.55.95-.55,1.58v3.45h-.97v-6.42h.8l.11,1.19h.05c.24-.42.53-.74.86-.97s.71-.34,1.11-.34Z"/><path d="m87.96,146.12l-.19-.91h-.05c-.32.4-.64.67-.96.82s-.72.21-1.19.21c-.64,0-1.14-.16-1.5-.49s-.54-.79-.54-1.4c0-1.3,1.04-1.98,3.11-2.04l1.09-.04v-.4c0-.5-.11-.88-.33-1.12s-.56-.36-1.04-.36c-.54,0-1.14.16-1.82.49l-.3-.74c.32-.17.66-.31,1.04-.4s.75-.15,1.13-.15c.77,0,1.33.17,1.7.51s.55.88.55,1.63v4.38h-.72Zm-2.2-.69c.61,0,1.08-.17,1.43-.5s.52-.8.52-1.39v-.58l-.97.04c-.77.03-1.33.15-1.67.36s-.51.54-.51.99c0,.35.11.62.32.8s.51.28.89.28Z"/><path d="m98.87,146.12v-4.18c0-.51-.11-.9-.33-1.15s-.56-.38-1.02-.38c-.61,0-1.05.17-1.34.52s-.43.88-.43,1.61v3.59h-.97v-4.18c0-.51-.11-.9-.33-1.15s-.56-.38-1.03-.38c-.61,0-1.06.18-1.34.55s-.42.96-.42,1.8v3.37h-.97v-6.42h.79l.16.88h.05c.18-.31.44-.56.78-.73s.71-.26,1.12-.26c1,0,1.66.36,1.97,1.09h.05c.19-.34.47-.6.83-.8s.78-.29,1.24-.29c.73,0,1.27.19,1.63.56s.54.97.54,1.79v4.19h-.97Z"/><path d="m10.4,159.66h-.05c-.45.65-1.12.98-2.02.98-.84,0-1.49-.29-1.96-.86s-.7-1.39-.7-2.45.23-1.88.7-2.47,1.12-.88,1.96-.88,1.54.32,2,.95h.08l-.04-.46-.02-.45v-2.61h.97v9.12h-.79l-.13-.86Zm-1.95.16c.66,0,1.15-.18,1.44-.54s.45-.95.45-1.75v-.21c0-.91-.15-1.56-.45-1.95s-.79-.58-1.45-.58c-.57,0-1.01.22-1.31.67s-.45,1.07-.45,1.88.15,1.44.45,1.86.74.63,1.32.63Z"/><path d="m16.1,160.64c-.95,0-1.7-.29-2.25-.87s-.82-1.38-.82-2.41.25-1.86.76-2.47,1.19-.91,2.05-.91c.8,0,1.44.27,1.91.79s.7,1.23.7,2.09v.62h-4.42c.02.75.21,1.33.57,1.72s.87.59,1.53.59c.69,0,1.38-.14,2.05-.43v.87c-.34.15-.67.26-.98.32s-.68.1-1.11.1Zm-.26-5.84c-.52,0-.93.17-1.23.5s-.49.8-.54,1.39h3.36c0-.61-.14-1.08-.41-1.41s-.66-.49-1.17-.49Z"/><path d="m24.26,158.77c0,.6-.22,1.06-.67,1.38s-1.07.49-1.88.49c-.85,0-1.52-.13-1.99-.4v-.9c.31.16.64.28.99.37s.69.13,1.02.13c.51,0,.9-.08,1.17-.24s.41-.41.41-.74c0-.25-.11-.46-.33-.64s-.64-.39-1.27-.63c-.6-.22-1.02-.42-1.27-.58s-.44-.36-.56-.57-.18-.46-.18-.76c0-.52.21-.94.64-1.24s1.01-.46,1.75-.46c.69,0,1.37.14,2.03.42l-.35.79c-.64-.27-1.23-.4-1.75-.4-.46,0-.81.07-1.04.22s-.35.34-.35.6c0,.17.04.32.13.44s.23.24.42.35.57.27,1.12.47c.76.28,1.28.56,1.54.84s.4.63.4,1.06Z"/><path d="m28.55,160.64c-.95,0-1.7-.29-2.25-.87s-.82-1.38-.82-2.41.25-1.86.76-2.47,1.19-.91,2.05-.91c.8,0,1.44.27,1.91.79s.7,1.23.7,2.09v.62h-4.42c.02.75.21,1.33.57,1.72s.87.59,1.53.59c.69,0,1.38-.14,2.05-.43v.87c-.34.15-.67.26-.98.32s-.68.1-1.11.1Zm-.26-5.84c-.52,0-.93.17-1.23.5s-.49.8-.54,1.39h3.36c0-.61-.14-1.08-.41-1.41s-.66-.49-1.17-.49Z"/><path d="m36.97,160.52v-4.15c0-.52-.12-.91-.36-1.17s-.61-.39-1.12-.39c-.67,0-1.16.18-1.48.54s-.47.96-.47,1.8v3.37h-.97v-6.42h.79l.16.88h.05c.2-.32.48-.56.84-.73s.76-.26,1.2-.26c.77,0,1.36.19,1.75.56s.59.97.59,1.79v4.19h-.97Z"/><path d="m41.35,160.52l-2.44-6.42h1.04l1.38,3.81c.31.89.5,1.47.55,1.73h.05c.04-.21.18-.63.41-1.29s.74-2.07,1.54-4.26h1.04l-2.44,6.42h-1.14Z"/><path d="m51.49,157.3c0,1.05-.26,1.87-.79,2.45s-1.26.88-2.19.88c-.57,0-1.08-.13-1.53-.4s-.79-.66-1.03-1.16-.36-1.09-.36-1.77c0-1.05.26-1.86.79-2.45s1.25-.88,2.18-.88,1.61.3,2.14.9.79,1.41.79,2.43Zm-4.89,0c0,.82.16,1.45.49,1.88s.81.64,1.45.64,1.12-.21,1.45-.64.5-1.05.5-1.88-.17-1.44-.5-1.86-.82-.64-1.46-.64-1.12.21-1.44.63-.49,1.04-.49,1.87Z"/><path d="m54.17,160.52h-.97v-9.12h.97v9.12Z"/><path d="m57.64,160.52l-2.44-6.42h1.04l1.38,3.81c.31.89.5,1.47.55,1.73h.05c.04-.21.18-.63.41-1.29s.74-2.07,1.54-4.26h1.04l-2.44,6.42h-1.14Z"/><path d="m62.16,152.36c0-.22.05-.38.16-.49s.25-.16.41-.16.29.05.4.16.17.27.17.49-.06.38-.17.49-.25.16-.4.16c-.16,0-.3-.05-.41-.16s-.16-.27-.16-.49Zm1.05,8.16h-.97v-6.42h.97v6.42Z"/><path d="m69.65,159.66h-.05c-.45.65-1.12.98-2.02.98-.84,0-1.49-.29-1.96-.86s-.7-1.39-.7-2.45.23-1.88.7-2.47,1.12-.88,1.96-.88,1.54.32,2,.95h.08l-.04-.46-.02-.45v-2.61h.97v9.12h-.79l-.13-.86Zm-1.95.16c.66,0,1.15-.18,1.44-.54s.45-.95.45-1.75v-.21c0-.91-.15-1.56-.45-1.95s-.79-.58-1.45-.58c-.57,0-1.01.22-1.31.67s-.45,1.07-.45,1.88.15,1.44.45,1.86.74.63,1.32.63Z"/><path d="m76.58,160.52l-.19-.91h-.05c-.32.4-.64.68-.96.82s-.72.21-1.19.21c-.64,0-1.14-.16-1.5-.49s-.54-.79-.54-1.4c0-1.3,1.04-1.98,3.11-2.04l1.09-.04v-.4c0-.5-.11-.88-.33-1.12s-.56-.36-1.04-.36c-.54,0-1.14.16-1.82.49l-.3-.74c.32-.17.66-.31,1.04-.4s.75-.15,1.13-.15c.77,0,1.33.17,1.7.51s.55.88.55,1.63v4.38h-.72Zm-2.2-.69c.61,0,1.08-.17,1.43-.5s.52-.8.52-1.39v-.58l-.97.04c-.77.03-1.33.15-1.67.36s-.51.54-.51.99c0,.35.11.62.32.8s.51.28.89.28Z"/><path d="m83.45,158.77c0,.6-.22,1.06-.67,1.38s-1.07.49-1.88.49c-.85,0-1.52-.13-1.99-.4v-.9c.31.16.64.28.99.37s.69.13,1.02.13c.51,0,.9-.08,1.17-.24s.41-.41.41-.74c0-.25-.11-.46-.33-.64s-.64-.39-1.27-.63c-.6-.22-1.02-.42-1.27-.58s-.44-.36-.56-.57-.18-.46-.18-.76c0-.52.21-.94.64-1.24s1.01-.46,1.75-.46c.69,0,1.37.14,2.03.42l-.35.79c-.64-.27-1.23-.4-1.75-.4-.46,0-.81.07-1.04.22s-.35.34-.35.6c0,.17.04.32.13.44s.23.24.42.35.57.27,1.12.47c.76.28,1.28.56,1.54.84s.4.63.4,1.06Z"/><path d="m92.54,160.52v-4.15c0-.52-.12-.91-.36-1.17s-.61-.39-1.12-.39c-.67,0-1.16.18-1.48.54s-.47.96-.47,1.8v3.37h-.97v-6.42h.79l.16.88h.05c.2-.32.48-.56.84-.73s.76-.26,1.2-.26c.77,0,1.36.19,1.75.56s.59.97.59,1.79v4.19h-.97Z"/><path d="m101.06,157.3c0,1.05-.26,1.87-.79,2.45s-1.26.88-2.19.88c-.57,0-1.08-.13-1.53-.4s-.79-.66-1.03-1.16-.36-1.09-.36-1.77c0-1.05.26-1.86.79-2.45s1.25-.88,2.18-.88,1.61.3,2.14.9.79,1.41.79,2.43Zm-4.89,0c0,.82.16,1.45.49,1.88s.81.64,1.45.64,1.12-.21,1.45-.64.5-1.05.5-1.88-.17-1.44-.5-1.86-.82-.64-1.46-.64-1.12.21-1.44.63-.49,1.04-.49,1.87Z"/><path d="m108.59,160.64c-.95,0-1.7-.29-2.25-.87s-.82-1.38-.82-2.41.25-1.86.76-2.47,1.19-.91,2.05-.91c.8,0,1.44.27,1.91.79s.7,1.23.7,2.09v.62h-4.42c.02.75.21,1.33.57,1.72s.87.59,1.53.59c.69,0,1.38-.14,2.05-.43v.87c-.34.15-.67.26-.98.32s-.68.1-1.11.1Zm-.26-5.84c-.52,0-.93.17-1.23.5s-.49.8-.54,1.39h3.36c0-.61-.14-1.08-.41-1.41s-.66-.49-1.17-.49Z"/><path d="m116.76,158.77c0,.6-.22,1.06-.67,1.38s-1.07.49-1.88.49c-.85,0-1.52-.13-1.99-.4v-.9c.31.16.64.28.99.37s.69.13,1.02.13c.51,0,.9-.08,1.17-.24s.41-.41.41-.74c0-.25-.11-.46-.33-.64s-.64-.39-1.27-.63c-.6-.22-1.02-.42-1.27-.58s-.44-.36-.56-.57-.18-.46-.18-.76c0-.52.21-.94.64-1.24s1.01-.46,1.75-.46c.69,0,1.37.14,2.03.42l-.35.79c-.64-.27-1.23-.4-1.75-.4-.46,0-.81.07-1.04.22s-.35.34-.35.6c0,.17.04.32.13.44s.23.24.42.35.57.27,1.12.47c.76.28,1.28.56,1.54.84s.4.63.4,1.06Z"/><path d="m120.9,160.64c-.93,0-1.65-.29-2.16-.86s-.76-1.38-.76-2.43.26-1.9.78-2.49,1.25-.88,2.21-.88c.31,0,.62.03.93.1s.55.14.73.23l-.3.83c-.21-.09-.45-.16-.7-.21s-.48-.09-.67-.09c-1.3,0-1.96.83-1.96,2.5,0,.79.16,1.39.48,1.82s.79.63,1.42.63c.54,0,1.08-.12,1.65-.35v.86c-.43.22-.97.33-1.62.33Z"/><path d="m129.59,157.3c0,1.05-.26,1.87-.79,2.45s-1.26.88-2.19.88c-.57,0-1.08-.13-1.53-.4s-.79-.66-1.03-1.16-.36-1.09-.36-1.77c0-1.05.26-1.86.79-2.45s1.25-.88,2.18-.88,1.61.3,2.14.9.79,1.41.79,2.43Zm-4.89,0c0,.82.16,1.45.49,1.88s.81.64,1.45.64,1.12-.21,1.45-.64.5-1.05.5-1.88-.17-1.44-.5-1.86-.82-.64-1.46-.64-1.12.21-1.44.63-.49,1.04-.49,1.87Z"/><path d="m134.29,160.64c-.42,0-.8-.08-1.15-.23s-.64-.39-.87-.71h-.07c.05.38.07.73.07,1.07v2.64h-.97v-9.3h.79l.13.88h.05c.25-.35.54-.61.87-.76s.71-.23,1.14-.23c.85,0,1.51.29,1.97.87s.69,1.4.69,2.45-.24,1.88-.71,2.46-1.12.88-1.96.88Zm-.14-5.83c-.66,0-1.13.18-1.42.54s-.44.94-.45,1.73v.22c0,.9.15,1.55.45,1.94s.78.58,1.45.58c.55,0,.99-.22,1.3-.67s.47-1.07.47-1.86-.16-1.41-.47-1.84-.76-.64-1.33-.64Z"/><path d="m144.2,157.3c0,1.05-.26,1.87-.79,2.45s-1.26.88-2.19.88c-.57,0-1.08-.13-1.53-.4s-.79-.66-1.03-1.16-.36-1.09-.36-1.77c0-1.05.26-1.86.79-2.45s1.25-.88,2.18-.88,1.61.3,2.14.9.79,1.41.79,2.43Zm-4.89,0c0,.82.16,1.45.49,1.88s.81.64,1.45.64,1.12-.21,1.45-.64.5-1.05.5-1.88-.17-1.44-.5-1.86-.82-.64-1.46-.64-1.12.21-1.44.63-.49,1.04-.49,1.87Z"/><path d="m10.4,174.06h-.05c-.45.65-1.12.98-2.02.98-.84,0-1.49-.29-1.96-.86s-.7-1.39-.7-2.45.23-1.88.7-2.47,1.12-.88,1.96-.88,1.54.32,2,.95h.08l-.04-.46-.02-.45v-2.61h.97v9.12h-.79l-.13-.86Zm-1.95.16c.66,0,1.15-.18,1.44-.54s.45-.94.45-1.75v-.21c0-.91-.15-1.56-.45-1.95s-.79-.58-1.45-.58c-.57,0-1.01.22-1.31.67s-.45,1.07-.45,1.88.15,1.44.45,1.86.74.63,1.32.63Z"/><path d="m17.33,174.92l-.19-.91h-.05c-.32.4-.64.67-.96.82s-.72.21-1.19.21c-.64,0-1.14-.16-1.5-.49s-.54-.79-.54-1.4c0-1.3,1.04-1.98,3.11-2.04l1.09-.04v-.4c0-.5-.11-.88-.33-1.12s-.56-.36-1.04-.36c-.54,0-1.14.16-1.82.49l-.3-.74c.32-.17.66-.31,1.04-.4s.75-.15,1.13-.15c.77,0,1.33.17,1.7.51s.55.88.55,1.63v4.38h-.72Zm-2.2-.69c.61,0,1.08-.17,1.43-.5s.52-.8.52-1.39v-.58l-.97.04c-.77.03-1.33.15-1.67.36s-.51.54-.51.99c0,.35.11.62.32.8s.51.28.89.28Z"/><path d="m28.75,168.85c0,.87-.3,1.53-.89,2s-1.44.7-2.54.7h-1.01v3.37h-1v-8.57h2.22c2.14,0,3.21.83,3.21,2.5Zm-4.44,1.85h.9c.88,0,1.52-.14,1.92-.43s.59-.74.59-1.37c0-.57-.19-.99-.56-1.27s-.95-.42-1.73-.42h-1.11v3.48Z"/><path d="m37.24,174.92h-1.14l-4.68-7.19h-.05c.06.84.09,1.62.09,2.32v4.87h-.92v-8.57h1.12l4.67,7.16h.05c0-.11-.03-.44-.05-1.02s-.04-.98-.03-1.23v-4.92h.93v8.57Z"/><path d="m44.37,174.92h-4.78v-8.57h4.78v.88h-3.78v2.76h3.55v.88h-3.55v3.15h3.78v.89Z"/><path d="m51.7,168.85c0,.87-.3,1.53-.89,2s-1.44.7-2.54.7h-1.01v3.37h-1v-8.57h2.22c2.14,0,3.21.83,3.21,2.5Zm-4.44,1.85h.9c.88,0,1.52-.14,1.92-.43s.59-.74.59-1.37c0-.57-.19-.99-.56-1.27s-.95-.42-1.73-.42h-1.11v3.48Z"/><path d="m58.33,172.64c0,.75-.27,1.34-.82,1.76s-1.29.63-2.23.63c-1.02,0-1.8-.13-2.34-.39v-.96c.35.15.73.27,1.15.35s.82.13,1.23.13c.66,0,1.16-.13,1.5-.38s.5-.6.5-1.05c0-.3-.06-.54-.18-.73s-.32-.36-.6-.52-.7-.34-1.27-.54c-.8-.29-1.37-.62-1.71-1.01s-.51-.9-.51-1.53c0-.66.25-1.19.74-1.58s1.15-.59,1.97-.59,1.63.16,2.35.47l-.31.87c-.71-.3-1.39-.45-2.06-.45-.53,0-.94.11-1.24.34s-.45.54-.45.94c0,.3.05.54.16.73s.29.36.55.52.66.33,1.19.52c.9.32,1.52.66,1.85,1.03s.51.84.51,1.43Z"/><path d="m65.33,175.04c-.83,0-1.47-.29-1.94-.87s-.7-1.39-.7-2.44.23-1.87.7-2.46,1.12-.88,1.96-.88c.88,0,1.55.33,2.03,1h.05l.14-.88h.77v9.3h-.97v-2.75c0-.39.02-.72.06-1h-.08c-.45.65-1.12.98-2.03.98Zm.15-.81c.65,0,1.12-.17,1.42-.52s.46-.93.47-1.76v-.22c0-.9-.15-1.54-.46-1.94s-.79-.59-1.45-.59c-.57,0-1.01.22-1.31.67s-.45,1.07-.45,1.88.15,1.42.45,1.85.74.64,1.33.64Z"/><path d="m71.32,168.5v4.17c0,.52.12.91.36,1.17s.61.39,1.12.39c.67,0,1.16-.18,1.47-.55s.47-.97.47-1.8v-3.38h.97v6.42h-.8l-.14-.86h-.05c-.2.32-.48.56-.83.73s-.76.25-1.21.25c-.78,0-1.37-.19-1.75-.56s-.58-.96-.58-1.78v-4.2h.98Z"/><path d="m80.48,175.04c-.95,0-1.7-.29-2.25-.87s-.82-1.38-.82-2.41.25-1.86.76-2.47,1.19-.91,2.05-.91c.8,0,1.44.26,1.91.79s.7,1.23.7,2.09v.62h-4.42c.02.75.21,1.33.57,1.72s.87.59,1.53.59c.69,0,1.38-.14,2.05-.43v.87c-.34.15-.67.25-.98.32s-.68.1-1.11.1Zm-.26-5.84c-.52,0-.93.17-1.23.5s-.49.8-.54,1.39h3.36c0-.61-.14-1.08-.41-1.41s-.66-.49-1.17-.49Z"/><path d="m14.22,189.32v-4.18c0-.51-.11-.9-.33-1.15s-.56-.38-1.02-.38c-.61,0-1.05.17-1.34.52s-.43.88-.43,1.61v3.59h-.97v-4.18c0-.51-.11-.9-.33-1.15s-.56-.38-1.03-.38c-.61,0-1.06.18-1.34.55s-.42.96-.42,1.8v3.37h-.97v-6.42h.79l.16.88h.05c.18-.31.44-.56.78-.73s.71-.26,1.12-.26c1,0,1.66.36,1.97,1.09h.05c.19-.34.47-.6.83-.8s.78-.29,1.24-.29c.73,0,1.27.19,1.63.56s.54.97.54,1.79v4.19h-.97Z"/><path d="m19.91,189.44c-.95,0-1.7-.29-2.25-.87s-.82-1.38-.82-2.41.25-1.86.76-2.47,1.19-.91,2.05-.91c.8,0,1.44.26,1.91.79s.7,1.23.7,2.1v.62h-4.42c.02.75.21,1.33.57,1.72s.87.59,1.53.59c.69,0,1.38-.14,2.05-.43v.87c-.34.15-.67.25-.98.32s-.68.1-1.11.1Zm-.26-5.84c-.52,0-.93.17-1.23.5s-.49.8-.54,1.39h3.36c0-.61-.14-1.08-.41-1.41s-.66-.49-1.17-.49Z"/><path d="m24.9,189.32h-.97v-9.12h.97v9.12Z"/><path d="m31.36,189.32v-4.15c0-.52-.12-.91-.36-1.17s-.61-.39-1.12-.39c-.68,0-1.17.18-1.48.55s-.47.97-.47,1.8v3.36h-.97v-9.12h.97v2.76c0,.33-.02.61-.05.83h.06c.19-.31.46-.55.82-.73s.76-.27,1.21-.27c.79,0,1.37.19,1.77.56s.59.97.59,1.78v4.19h-.97Z"/><path d="m39.87,186.1c0,1.05-.26,1.86-.79,2.45s-1.26.88-2.19.88c-.57,0-1.08-.13-1.53-.4s-.79-.66-1.03-1.16-.36-1.09-.36-1.77c0-1.05.26-1.86.79-2.45s1.25-.88,2.18-.88,1.61.3,2.14.9.79,1.41.79,2.43Zm-4.89,0c0,.82.16,1.45.49,1.88s.81.64,1.45.64,1.12-.21,1.45-.64.5-1.05.5-1.88-.17-1.44-.5-1.86-.82-.63-1.46-.63-1.12.21-1.44.63-.49,1.04-.49,1.87Z"/><path d="m44.5,182.78c.29,0,.54.02.77.07l-.13.9c-.27-.06-.5-.09-.7-.09-.52,0-.96.21-1.33.63s-.55.95-.55,1.58v3.45h-.97v-6.42h.8l.11,1.19h.05c.24-.42.53-.74.86-.97s.71-.34,1.11-.34Z"/><path d="m50.42,189.32l-.19-.91h-.05c-.32.4-.64.67-.96.82s-.72.21-1.19.21c-.64,0-1.14-.16-1.5-.49s-.54-.79-.54-1.4c0-1.3,1.04-1.98,3.11-2.04l1.09-.04v-.4c0-.5-.11-.88-.33-1.12s-.56-.36-1.04-.36c-.54,0-1.14.16-1.82.49l-.3-.74c.32-.17.66-.31,1.04-.4s.75-.15,1.13-.15c.77,0,1.33.17,1.7.51s.55.88.55,1.63v4.38h-.72Zm-2.2-.69c.61,0,1.08-.17,1.43-.5s.52-.8.52-1.39v-.58l-.97.04c-.77.03-1.33.15-1.67.36s-.51.54-.51.99c0,.35.11.62.32.8s.51.28.89.28Z"/><path d="m56.08,182.78c.29,0,.54.02.77.07l-.13.9c-.27-.06-.5-.09-.7-.09-.52,0-.96.21-1.33.63s-.55.95-.55,1.58v3.45h-.97v-6.42h.8l.11,1.19h.05c.24-.42.53-.74.86-.97s.71-.34,1.11-.34Z"/><path d="m61.99,189.32l-.19-.91h-.05c-.32.4-.64.67-.96.82s-.72.21-1.19.21c-.64,0-1.14-.16-1.5-.49s-.54-.79-.54-1.4c0-1.3,1.04-1.98,3.11-2.04l1.09-.04v-.4c0-.5-.11-.88-.33-1.12s-.56-.36-1.04-.36c-.54,0-1.14.16-1.82.49l-.3-.74c.32-.17.66-.31,1.04-.4s.75-.15,1.13-.15c.77,0,1.33.17,1.7.51s.55.88.55,1.63v4.38h-.72Zm-2.2-.69c.61,0,1.08-.17,1.43-.5s.52-.8.52-1.39v-.58l-.97.04c-.77.03-1.33.15-1.67.36s-.51.54-.51.99c0,.35.11.62.32.8s.51.28.89.28Z"/><path d="m72.9,189.32v-4.18c0-.51-.11-.9-.33-1.15s-.56-.38-1.02-.38c-.61,0-1.05.17-1.34.52s-.43.88-.43,1.61v3.59h-.97v-4.18c0-.51-.11-.9-.33-1.15s-.56-.38-1.03-.38c-.61,0-1.06.18-1.34.55s-.42.96-.42,1.8v3.37h-.97v-6.42h.79l.16.88h.05c.18-.31.44-.56.78-.73s.71-.26,1.12-.26c1,0,1.66.36,1.97,1.09h.05c.19-.34.47-.6.83-.8s.78-.29,1.24-.29c.73,0,1.27.19,1.63.56s.54.97.54,1.79v4.19h-.97Z"/><path d="m82.95,189.32l-.19-.91h-.05c-.32.4-.64.67-.96.82s-.72.21-1.19.21c-.64,0-1.14-.16-1.5-.49s-.54-.79-.54-1.4c0-1.3,1.04-1.98,3.11-2.04l1.09-.04v-.4c0-.5-.11-.88-.33-1.12s-.56-.36-1.04-.36c-.54,0-1.14.16-1.82.49l-.3-.74c.32-.17.66-.31,1.04-.4s.75-.15,1.13-.15c.77,0,1.33.17,1.7.51s.55.88.55,1.63v4.38h-.72Zm-2.2-.69c.61,0,1.08-.17,1.43-.5s.52-.8.52-1.39v-.58l-.97.04c-.77.03-1.33.15-1.67.36s-.51.54-.51.99c0,.35.11.62.32.8s.51.28.89.28Z"/><path d="m89.81,187.57c0,.6-.22,1.06-.67,1.38s-1.07.49-1.88.49c-.85,0-1.52-.13-1.99-.4v-.9c.31.16.64.28.99.37s.69.13,1.02.13c.51,0,.9-.08,1.17-.24s.41-.41.41-.74c0-.25-.11-.46-.33-.64s-.64-.39-1.27-.63c-.6-.22-1.02-.42-1.27-.58s-.44-.35-.56-.56-.18-.46-.18-.76c0-.52.21-.94.64-1.24s1.01-.45,1.75-.45c.69,0,1.37.14,2.03.42l-.35.79c-.64-.27-1.23-.4-1.75-.4-.46,0-.81.07-1.04.22s-.35.34-.35.6c0,.17.04.32.13.44s.23.24.42.35.57.27,1.12.47c.76.28,1.28.56,1.54.84s.4.63.4,1.06Z"/><path d="m97.08,189.44c-.93,0-1.65-.29-2.16-.86s-.76-1.38-.76-2.43.26-1.9.78-2.49,1.25-.88,2.21-.88c.31,0,.62.03.93.1s.55.14.73.23l-.3.83c-.21-.09-.45-.16-.7-.21s-.48-.08-.67-.08c-1.3,0-1.96.83-1.96,2.5,0,.79.16,1.39.48,1.82s.79.63,1.42.63c.54,0,1.08-.12,1.65-.35v.86c-.43.22-.97.33-1.62.33Z"/><path d="m105.77,186.1c0,1.05-.26,1.86-.79,2.45s-1.26.88-2.19.88c-.57,0-1.08-.13-1.53-.4s-.79-.66-1.03-1.16-.36-1.09-.36-1.77c0-1.05.26-1.86.79-2.45s1.25-.88,2.18-.88,1.61.3,2.14.9.79,1.41.79,2.43Zm-4.89,0c0,.82.16,1.45.49,1.88s.81.64,1.45.64,1.12-.21,1.45-.64.5-1.05.5-1.88-.17-1.44-.5-1.86-.82-.63-1.46-.63-1.12.21-1.44.63-.49,1.04-.49,1.87Z"/><path d="m111.87,189.32v-4.15c0-.52-.12-.91-.36-1.17s-.61-.39-1.12-.39c-.67,0-1.16.18-1.48.54s-.47.96-.47,1.8v3.37h-.97v-6.42h.79l.16.88h.05c.2-.32.48-.56.84-.74s.76-.26,1.2-.26c.77,0,1.36.19,1.75.56s.59.97.59,1.79v4.19h-.97Z"/><path d="m119.21,188.46h-.05c-.45.65-1.12.98-2.02.98-.84,0-1.49-.29-1.96-.86s-.7-1.39-.7-2.45.23-1.88.7-2.47,1.12-.88,1.96-.88,1.54.32,2,.95h.08l-.04-.46-.02-.45v-2.61h.97v9.12h-.79l-.13-.86Zm-1.95.16c.66,0,1.15-.18,1.44-.54s.45-.94.45-1.75v-.21c0-.91-.15-1.56-.45-1.95s-.79-.58-1.45-.58c-.57,0-1.01.22-1.31.66s-.45,1.07-.45,1.88.15,1.44.45,1.86.74.63,1.32.63Z"/><path d="m122.11,181.16c0-.22.05-.39.16-.49s.25-.15.41-.15.29.05.4.16.17.27.17.49-.06.38-.17.49-.25.16-.4.16c-.16,0-.3-.05-.41-.16s-.16-.27-.16-.49Zm1.05,8.16h-.97v-6.42h.97v6.42Z"/><path d="m127.79,189.44c-.93,0-1.65-.29-2.16-.86s-.76-1.38-.76-2.43.26-1.9.78-2.49,1.25-.88,2.21-.88c.31,0,.62.03.93.1s.55.14.73.23l-.3.83c-.21-.09-.45-.16-.7-.21s-.48-.08-.67-.08c-1.3,0-1.96.83-1.96,2.5,0,.79.16,1.39.48,1.82s.79.63,1.42.63c.54,0,1.08-.12,1.65-.35v.86c-.43.22-.97.33-1.62.33Zm.87,1.58c0,.38-.15.67-.45.88s-.74.31-1.33.31c-.2,0-.39-.02-.56-.05v-.62c.18.03.38.05.61.05.31,0,.54-.04.7-.12s.24-.22.24-.43c0-.17-.08-.3-.23-.41s-.44-.19-.87-.25l.52-1.04h.64l-.32.67c.7.15,1.05.49,1.05,1.02Z"/><path d="m136.48,186.1c0,1.05-.26,1.86-.79,2.45s-1.26.88-2.19.88c-.57,0-1.08-.13-1.53-.4s-.79-.66-1.03-1.16-.36-1.09-.36-1.77c0-1.05.26-1.86.79-2.45s1.25-.88,2.18-.88,1.61.3,2.14.9.79,1.41.79,2.43Zm-2.04-4.07c-.17,0-.33-.04-.49-.11s-.32-.15-.47-.24-.3-.17-.45-.24-.28-.11-.41-.11c-.2,0-.34.06-.44.18s-.18.29-.23.53h-.57c.05-.47.19-.84.41-1.11s.51-.4.87-.4c.18,0,.35.04.52.11s.33.15.48.24.3.17.44.24.27.11.4.11c.19,0,.33-.06.43-.17s.17-.29.23-.54h.58c-.05.47-.19.84-.41,1.11s-.51.4-.88.4Zm-2.85,4.07c0,.82.16,1.45.49,1.88s.81.64,1.45.64,1.12-.21,1.45-.64.5-1.05.5-1.88-.17-1.44-.5-1.86-.82-.63-1.46-.63-1.12.21-1.44.63-.49,1.04-.49,1.87Z"/><path d="m140.9,189.44c-.95,0-1.7-.29-2.25-.87s-.82-1.38-.82-2.41.25-1.86.76-2.47,1.19-.91,2.05-.91c.8,0,1.44.26,1.91.79s.7,1.23.7,2.1v.62h-4.42c.02.75.21,1.33.57,1.72s.87.59,1.53.59c.69,0,1.38-.14,2.05-.43v.87c-.34.15-.67.25-.98.32s-.68.1-1.11.1Zm-.26-5.84c-.52,0-.93.17-1.23.5s-.49.8-.54,1.39h3.36c0-.61-.14-1.08-.41-1.41s-.66-.49-1.17-.49Z"/><path d="m149.06,187.57c0,.6-.22,1.06-.67,1.38s-1.07.49-1.88.49c-.85,0-1.52-.13-1.99-.4v-.9c.31.16.64.28.99.37s.69.13,1.02.13c.51,0,.9-.08,1.17-.24s.41-.41.41-.74c0-.25-.11-.46-.33-.64s-.64-.39-1.27-.63c-.6-.22-1.02-.42-1.27-.58s-.44-.35-.56-.56-.18-.46-.18-.76c0-.52.21-.94.64-1.24s1.01-.45,1.75-.45c.69,0,1.37.14,2.03.42l-.35.79c-.64-.27-1.23-.4-1.75-.4-.46,0-.81.07-1.04.22s-.35.34-.35.6c0,.17.04.32.13.44s.23.24.42.35.57.27,1.12.47c.76.28,1.28.56,1.54.84s.4.63.4,1.06Z"/><path d="m10.4,202.86h-.05c-.45.65-1.12.98-2.02.98-.84,0-1.49-.29-1.96-.86s-.7-1.39-.7-2.45.23-1.88.7-2.47,1.12-.88,1.96-.88,1.54.32,2,.95h.08l-.04-.46-.02-.45v-2.61h.97v9.12h-.79l-.13-.86Zm-1.95.16c.66,0,1.15-.18,1.44-.54s.45-.94.45-1.75v-.21c0-.91-.15-1.56-.45-1.95s-.79-.58-1.45-.58c-.57,0-1.01.22-1.31.67s-.45,1.07-.45,1.88.15,1.44.45,1.86.74.63,1.32.63Z"/><path d="m16.1,203.84c-.95,0-1.7-.29-2.25-.87s-.82-1.38-.82-2.41.25-1.86.76-2.47,1.19-.91,2.05-.91c.8,0,1.44.26,1.91.79s.7,1.23.7,2.09v.62h-4.42c.02.75.21,1.33.57,1.72s.87.59,1.53.59c.69,0,1.38-.14,2.05-.43v.87c-.34.15-.67.25-.98.32s-.68.1-1.11.1Zm-.26-5.84c-.52,0-.93.17-1.23.5s-.49.8-.54,1.39h3.36c0-.61-.14-1.08-.41-1.41s-.66-.49-1.17-.49Z"/><path d="m25.31,203.03c.17,0,.34-.01.5-.04s.29-.05.38-.08v.74c-.11.05-.26.09-.47.13s-.39.05-.55.05c-1.24,0-1.86-.65-1.86-1.96v-3.82h-.92v-.47l.92-.4.41-1.37h.56v1.49h1.86v.76h-1.86v3.78c0,.39.09.68.28.89s.44.31.76.31Z"/><path d="m30.4,197.18c.29,0,.54.02.77.07l-.13.9c-.27-.06-.5-.09-.7-.09-.52,0-.96.21-1.33.63s-.55.95-.55,1.58v3.45h-.97v-6.42h.8l.11,1.19h.05c.24-.42.53-.74.86-.97s.71-.34,1.11-.34Z"/><path d="m36.32,203.72l-.19-.91h-.05c-.32.4-.64.67-.96.82s-.72.21-1.19.21c-.64,0-1.14-.16-1.5-.49s-.54-.79-.54-1.4c0-1.3,1.04-1.98,3.11-2.04l1.09-.04v-.4c0-.5-.11-.88-.33-1.12s-.56-.36-1.04-.36c-.54,0-1.14.16-1.82.49l-.3-.74c.32-.17.66-.31,1.04-.4s.75-.15,1.13-.15c.77,0,1.33.17,1.7.51s.55.88.55,1.63v4.38h-.72Zm-2.2-.69c.61,0,1.08-.17,1.43-.5s.52-.8.52-1.39v-.58l-.97.04c-.77.03-1.33.15-1.67.36s-.51.54-.51.99c0,.35.11.62.32.8s.51.28.89.28Z"/><path d="m42.03,197.19c.84,0,1.5.29,1.97.86s.7,1.39.7,2.45-.24,1.87-.71,2.46-1.12.88-1.96.88c-.42,0-.8-.08-1.15-.23s-.64-.39-.87-.71h-.07l-.21.83h-.7v-9.12h.97v2.21c0,.5-.02.94-.05,1.34h.05c.45-.64,1.12-.96,2.02-.96Zm-.14.81c-.66,0-1.14.19-1.44.57s-.44,1.02-.44,1.92.15,1.55.45,1.94.78.58,1.45.58c.6,0,1.04-.22,1.34-.65s.44-1.06.44-1.88-.15-1.46-.44-1.87-.75-.62-1.36-.62Z"/><path d="m50.35,203.72l-.19-.91h-.05c-.32.4-.64.67-.96.82s-.72.21-1.19.21c-.64,0-1.14-.16-1.5-.49s-.54-.79-.54-1.4c0-1.3,1.04-1.98,3.11-2.04l1.09-.04v-.4c0-.5-.11-.88-.33-1.12s-.56-.36-1.04-.36c-.54,0-1.14.16-1.82.49l-.3-.74c.32-.17.66-.31,1.04-.4s.75-.15,1.13-.15c.77,0,1.33.17,1.7.51s.55.88.55,1.63v4.38h-.72Zm-2.2-.69c.61,0,1.08-.17,1.43-.5s.52-.8.52-1.39v-.58l-.97.04c-.77.03-1.33.15-1.67.36s-.51.54-.51.99c0,.35.11.62.32.8s.51.28.89.28Z"/><path d="m54.04,203.72h-.97v-9.12h.97v9.12Z"/><path d="m60.5,203.72v-4.15c0-.52-.12-.91-.36-1.17s-.61-.39-1.12-.39c-.68,0-1.17.18-1.48.55s-.47.97-.47,1.8v3.36h-.97v-9.12h.97v2.76c0,.33-.02.61-.05.83h.06c.19-.31.46-.55.82-.73s.76-.27,1.21-.27c.79,0,1.37.19,1.77.56s.59.97.59,1.78v4.19h-.97Z"/><path d="m69.01,200.5c0,1.05-.26,1.86-.79,2.45s-1.26.88-2.19.88c-.57,0-1.08-.13-1.53-.4s-.79-.66-1.03-1.16-.36-1.09-.36-1.77c0-1.05.26-1.86.79-2.45s1.25-.88,2.18-.88,1.61.3,2.14.9.79,1.41.79,2.43Zm-4.89,0c0,.82.16,1.45.49,1.88s.81.64,1.45.64,1.12-.21,1.45-.64.5-1.05.5-1.88-.17-1.44-.5-1.86-.82-.64-1.46-.64-1.12.21-1.44.63-.49,1.04-.49,1.87Z"/><path d="m78.21,202.86h-.05c-.45.65-1.12.98-2.02.98-.84,0-1.49-.29-1.96-.86s-.7-1.39-.7-2.45.23-1.88.7-2.47,1.12-.88,1.96-.88,1.54.32,2,.95h.08l-.04-.46-.02-.45v-2.61h.97v9.12h-.79l-.13-.86Zm-1.95.16c.66,0,1.15-.18,1.44-.54s.45-.94.45-1.75v-.21c0-.91-.15-1.56-.45-1.95s-.79-.58-1.45-.58c-.57,0-1.01.22-1.31.67s-.45,1.07-.45,1.88.15,1.44.45,1.86.74.63,1.32.63Z"/><path d="m86.73,200.5c0,1.05-.26,1.86-.79,2.45s-1.26.88-2.19.88c-.57,0-1.08-.13-1.53-.4s-.79-.66-1.03-1.16-.36-1.09-.36-1.77c0-1.05.26-1.86.79-2.45s1.25-.88,2.18-.88,1.61.3,2.14.9.79,1.41.79,2.43Zm-4.89,0c0,.82.16,1.45.49,1.88s.81.64,1.45.64,1.12-.21,1.45-.64.5-1.05.5-1.88-.17-1.44-.5-1.86-.82-.64-1.46-.64-1.12.21-1.44.63-.49,1.04-.49,1.87Z"/><path d="m92.58,201.97c0,.6-.22,1.06-.67,1.38s-1.07.49-1.88.49c-.85,0-1.52-.13-1.99-.4v-.9c.31.16.64.28.99.37s.69.13,1.02.13c.51,0,.9-.08,1.17-.24s.41-.41.41-.74c0-.25-.11-.46-.33-.64s-.64-.39-1.27-.63c-.6-.22-1.02-.42-1.27-.58s-.44-.35-.56-.57-.18-.46-.18-.76c0-.52.21-.94.64-1.24s1.01-.45,1.75-.45c.69,0,1.37.14,2.03.42l-.35.79c-.64-.27-1.23-.4-1.75-.4-.46,0-.81.07-1.04.22s-.35.34-.35.6c0,.17.04.32.13.44s.23.24.42.35.57.27,1.12.47c.76.28,1.28.56,1.54.84s.4.63.4,1.06Z"/><path d="m9.02,218.24c-.42,0-.8-.08-1.15-.23s-.64-.39-.87-.71h-.07c.05.38.07.73.07,1.07v2.64h-.97v-9.3h.79l.13.88h.05c.25-.35.54-.61.87-.76s.71-.23,1.14-.23c.85,0,1.51.29,1.97.87s.69,1.4.69,2.45-.24,1.87-.71,2.46-1.12.88-1.96.88Zm-.14-5.83c-.66,0-1.13.18-1.42.54s-.44.94-.45,1.73v.22c0,.9.15,1.55.45,1.94s.78.58,1.45.58c.55,0,.99-.22,1.3-.67s.47-1.07.47-1.86-.16-1.42-.47-1.84-.76-.64-1.33-.64Z"/><path d="m16.31,211.58c.29,0,.54.02.77.07l-.13.9c-.27-.06-.5-.09-.7-.09-.52,0-.96.21-1.33.63s-.55.95-.55,1.58v3.45h-.97v-6.42h.8l.11,1.19h.05c.24-.42.53-.74.86-.97s.71-.34,1.11-.34Z"/><path d="m23.83,214.9c0,1.05-.26,1.86-.79,2.45s-1.26.88-2.19.88c-.57,0-1.08-.13-1.53-.4s-.79-.66-1.03-1.16-.36-1.09-.36-1.77c0-1.05.26-1.86.79-2.45s1.25-.88,2.18-.88,1.61.3,2.14.9.79,1.41.79,2.43Zm-4.89,0c0,.82.16,1.45.49,1.88s.81.64,1.45.64,1.12-.21,1.45-.64.5-1.05.5-1.88-.17-1.44-.5-1.86-.82-.64-1.46-.64-1.12.21-1.44.63-.49,1.04-.49,1.87Z"/><path d="m28.43,212.45h-1.63v5.67h-.97v-5.67h-1.15v-.44l1.15-.35v-.36c0-1.58.69-2.37,2.07-2.37.34,0,.74.07,1.2.21l-.25.78c-.38-.12-.7-.18-.96-.18-.37,0-.64.12-.81.37s-.26.64-.26,1.17v.42h1.63v.76Zm1.09-2.5c0-.22.05-.39.16-.49s.25-.16.41-.16.29.05.4.16.17.27.17.49-.06.38-.17.49-.25.16-.4.16c-.16,0-.3-.05-.41-.16s-.16-.27-.16-.49Zm1.05,8.16h-.97v-6.42h.97v6.42Z"/><path d="m36.78,216.37c0,.6-.22,1.06-.67,1.38s-1.07.49-1.88.49c-.85,0-1.52-.13-1.99-.4v-.9c.31.16.64.28.99.37s.69.13,1.02.13c.51,0,.9-.08,1.17-.24s.41-.41.41-.74c0-.25-.11-.46-.33-.64s-.64-.39-1.27-.63c-.6-.22-1.02-.42-1.27-.58s-.44-.35-.56-.57-.18-.46-.18-.76c0-.52.21-.94.64-1.24s1.01-.45,1.75-.45c.69,0,1.37.14,2.03.42l-.35.79c-.64-.27-1.23-.4-1.75-.4-.46,0-.81.07-1.04.22s-.35.34-.35.6c0,.17.04.32.13.44s.23.24.42.35.57.27,1.12.47c.76.28,1.28.56,1.54.84s.4.63.4,1.06Z"/><path d="m42.5,216.37c0,.6-.22,1.06-.67,1.38s-1.07.49-1.88.49c-.85,0-1.52-.13-1.99-.4v-.9c.31.16.64.28.99.37s.69.13,1.02.13c.51,0,.9-.08,1.17-.24s.41-.41.41-.74c0-.25-.11-.46-.33-.64s-.64-.39-1.27-.63c-.6-.22-1.02-.42-1.27-.58s-.44-.35-.56-.57-.18-.46-.18-.76c0-.52.21-.94.64-1.24s1.01-.45,1.75-.45c.69,0,1.37.14,2.03.42l-.35.79c-.64-.27-1.23-.4-1.75-.4-.46,0-.81.07-1.04.22s-.35.34-.35.6c0,.17.04.32.13.44s.23.24.42.35.57.27,1.12.47c.76.28,1.28.56,1.54.84s.4.63.4,1.06Z"/><path d="m44,209.96c0-.22.05-.39.16-.49s.25-.16.41-.16.29.05.4.16.17.27.17.49-.06.38-.17.49-.25.16-.4.16c-.16,0-.3-.05-.41-.16s-.16-.27-.16-.49Zm1.05,8.16h-.97v-6.42h.97v6.42Z"/><path d="m52.66,214.9c0,1.05-.26,1.86-.79,2.45s-1.26.88-2.19.88c-.57,0-1.08-.13-1.53-.4s-.79-.66-1.03-1.16-.36-1.09-.36-1.77c0-1.05.26-1.86.79-2.45s1.25-.88,2.18-.88,1.61.3,2.14.9.79,1.41.79,2.43Zm-4.89,0c0,.82.16,1.45.49,1.88s.81.64,1.45.64,1.12-.21,1.45-.64.5-1.05.5-1.88-.17-1.44-.5-1.86-.82-.64-1.46-.64-1.12.21-1.44.63-.49,1.04-.49,1.87Z"/><path d="m58.76,218.12v-4.15c0-.52-.12-.91-.36-1.17s-.61-.39-1.12-.39c-.67,0-1.16.18-1.48.54s-.47.96-.47,1.8v3.37h-.97v-6.42h.79l.16.88h.05c.2-.32.48-.56.84-.74s.76-.26,1.2-.26c.77,0,1.36.19,1.75.56s.59.97.59,1.79v4.19h-.97Z"/><path d="m65.68,218.12l-.19-.91h-.05c-.32.4-.64.67-.96.82s-.72.21-1.19.21c-.64,0-1.14-.16-1.5-.49s-.54-.79-.54-1.4c0-1.3,1.04-1.98,3.11-2.04l1.09-.04v-.4c0-.5-.11-.88-.33-1.12s-.56-.36-1.04-.36c-.54,0-1.14.16-1.82.49l-.3-.74c.32-.17.66-.31,1.04-.4s.75-.15,1.13-.15c.77,0,1.33.17,1.7.51s.55.88.55,1.63v4.38h-.72Zm-2.2-.69c.61,0,1.08-.17,1.43-.5s.52-.8.52-1.39v-.58l-.97.04c-.77.03-1.33.15-1.67.36s-.51.54-.51.99c0,.35.11.62.32.8s.51.28.89.28Z"/><path d="m68.32,209.96c0-.22.05-.39.16-.49s.25-.16.41-.16.29.05.4.16.17.27.17.49-.06.38-.17.49-.25.16-.4.16c-.16,0-.3-.05-.41-.16s-.16-.27-.16-.49Zm1.05,8.16h-.97v-6.42h.97v6.42Z"/><path d="m75.58,216.37c0,.6-.22,1.06-.67,1.38s-1.07.49-1.88.49c-.85,0-1.52-.13-1.99-.4v-.9c.31.16.64.28.99.37s.69.13,1.02.13c.51,0,.9-.08,1.17-.24s.41-.41.41-.74c0-.25-.11-.46-.33-.64s-.64-.39-1.27-.63c-.6-.22-1.02-.42-1.27-.58s-.44-.35-.56-.57-.18-.46-.18-.76c0-.52.21-.94.64-1.24s1.01-.45,1.75-.45c.69,0,1.37.14,2.03.42l-.35.79c-.64-.27-1.23-.4-1.75-.4-.46,0-.81.07-1.04.22s-.35.34-.35.6c0,.17.04.32.13.44s.23.24.42.35.57.27,1.12.47c.76.28,1.28.56,1.54.84s.4.63.4,1.06Z"/><path d="m84.65,217.26h-.05c-.45.65-1.12.98-2.02.98-.84,0-1.49-.29-1.96-.86s-.7-1.39-.7-2.45.23-1.88.7-2.47,1.12-.88,1.96-.88,1.54.32,2,.95h.08l-.04-.46-.02-.45v-2.61h.97v9.12h-.79l-.13-.86Zm-1.95.16c.66,0,1.15-.18,1.44-.54s.45-.94.45-1.75v-.21c0-.91-.15-1.56-.45-1.95s-.79-.58-1.45-.58c-.57,0-1.01.22-1.31.67s-.45,1.07-.45,1.88.15,1.44.45,1.86.74.63,1.32.63Z"/><path d="m90.35,218.24c-.95,0-1.7-.29-2.25-.87s-.82-1.38-.82-2.41.25-1.86.76-2.47,1.19-.91,2.05-.91c.8,0,1.44.26,1.91.79s.7,1.23.7,2.09v.62h-4.42c.02.75.21,1.33.57,1.72s.87.59,1.53.59c.69,0,1.38-.14,2.05-.43v.87c-.34.15-.67.25-.98.32s-.68.1-1.11.1Zm-.26-5.84c-.52,0-.93.17-1.23.5s-.49.8-.54,1.39h3.36c0-.61-.14-1.08-.41-1.41s-.66-.49-1.17-.49Z"/><path d="m101.63,216.37c0,.6-.22,1.06-.67,1.38s-1.07.49-1.88.49c-.85,0-1.52-.13-1.99-.4v-.9c.31.16.64.28.99.37s.69.13,1.02.13c.51,0,.9-.08,1.17-.24s.41-.41.41-.74c0-.25-.11-.46-.33-.64s-.64-.39-1.27-.63c-.6-.22-1.02-.42-1.27-.58s-.44-.35-.56-.57-.18-.46-.18-.76c0-.52.21-.94.64-1.24s1.01-.45,1.75-.45c.69,0,1.37.14,2.03.42l-.35.79c-.64-.27-1.23-.4-1.75-.4-.46,0-.81.07-1.04.22s-.35.34-.35.6c0,.17.04.32.13.44s.23.24.42.35.57.27,1.12.47c.76.28,1.28.56,1.54.84s.4.63.4,1.06Z"/><path d="m107.16,218.12l-.19-.91h-.05c-.32.4-.64.67-.96.82s-.72.21-1.19.21c-.64,0-1.14-.16-1.5-.49s-.54-.79-.54-1.4c0-1.3,1.04-1.98,3.11-2.04l1.09-.04v-.4c0-.5-.11-.88-.33-1.12s-.56-.36-1.04-.36c-.54,0-1.14.16-1.82.49l-.3-.74c.32-.17.66-.31,1.04-.4s.75-.15,1.13-.15c.77,0,1.33.17,1.7.51s.55.88.55,1.63v4.38h-.72Zm-2.2-.69c.61,0,1.08-.17,1.43-.5s.52-.8.52-1.39v-.58l-.97.04c-.77.03-1.33.15-1.67.36s-.51.54-.51.99c0,.35.11.62.32.8s.51.28.89.28Z"/><path d="m110.8,211.7v4.17c0,.52.12.91.36,1.17s.61.39,1.12.39c.67,0,1.16-.18,1.47-.55s.47-.97.47-1.8v-3.38h.97v6.42h-.8l-.14-.86h-.05c-.2.32-.48.56-.83.73s-.76.25-1.21.25c-.78,0-1.37-.19-1.75-.56s-.58-.96-.58-1.78v-4.2h.98Zm1.02-1c.19-.24.39-.54.61-.88s.39-.64.51-.9h1.18v.12c-.17.25-.43.57-.77.94s-.63.66-.88.86h-.65v-.15Z"/><path d="m121.62,217.26h-.05c-.45.65-1.12.98-2.02.98-.84,0-1.49-.29-1.96-.86s-.7-1.39-.7-2.45.23-1.88.7-2.47,1.12-.88,1.96-.88,1.54.32,2,.95h.08l-.04-.46-.02-.45v-2.61h.97v9.12h-.79l-.13-.86Zm-1.95.16c.66,0,1.15-.18,1.44-.54s.45-.94.45-1.75v-.21c0-.91-.15-1.56-.45-1.95s-.79-.58-1.45-.58c-.57,0-1.01.22-1.31.67s-.45,1.07-.45,1.88.15,1.44.45,1.86.74.63,1.32.63Z"/><path d="m127.31,218.24c-.95,0-1.7-.29-2.25-.87s-.82-1.38-.82-2.41.25-1.86.76-2.47,1.19-.91,2.05-.91c.8,0,1.44.26,1.91.79s.7,1.23.7,2.09v.62h-4.42c.02.75.21,1.33.57,1.72s.87.59,1.53.59c.69,0,1.38-.14,2.05-.43v.87c-.34.15-.67.25-.98.32s-.68.1-1.11.1Zm-.26-5.84c-.52,0-.93.17-1.23.5s-.49.8-.54,1.39h3.36c0-.61-.14-1.08-.41-1.41s-.66-.49-1.17-.49Z"/><path d="m132,215.76v-.32c0-.46.07-.83.21-1.13s.4-.61.79-.93c.53-.45.87-.79,1-1.01s.21-.5.21-.82c0-.4-.13-.71-.38-.92s-.62-.33-1.1-.33c-.31,0-.61.04-.9.11s-.63.2-1.01.4l-.35-.79c.74-.39,1.51-.58,2.31-.58.75,0,1.33.18,1.74.55s.62.88.62,1.55c0,.29-.04.54-.11.75s-.19.42-.34.62-.47.5-.96.93c-.39.34-.66.62-.78.84s-.19.52-.19.89v.19h-.76Zm-.29,1.74c0-.53.23-.8.7-.8.23,0,.4.07.52.21s.18.33.18.59-.06.44-.19.58-.3.21-.52.21c-.2,0-.37-.06-.5-.18s-.2-.33-.2-.61Z"/></g></svg>