
<svg xmlns="http://www.w3.org/2000/svg" version="1.1" xmlns:xlink="http://www.w3.org/1999/xlink" preserveAspectRatio="none" x="0px" y="0px" width="390px" height="390px" viewBox="0 0 390 390">
<defs>
<image id="FlashAICB_Modo_de_isolamento__Mesh_" x="0" y="0" width="21" height="21" xlink:href="./imagens/FlashAICB_Modo_de_isolamento__Mesh_.png"/>

<g id="Mask_FlashAICB_Modo_de_isolamento__Clip_Group__0_2_MASK_0_FILL">
<path fill="#FFFFFF" stroke="none" d="
M 20.6 10.55
Q 20.6 6.35 17.65 3.4 14.7 0.4 10.5 0.4 6.35 0.4 3.35 3.4 0.4 6.35 0.4 10.55 0.4 14.7 3.35 17.7 6.35 20.65 10.5 20.65 14.7 20.65 17.65 17.7 20.6 14.7 20.6 10.55 Z"/>
</g>

<g id="Layer1_0_MEMBER_0_MEMBER_0_MEMBER_0_MEMBER_1_FILL">
<path fill="#FFFFFF" stroke="none" d="
M 149.7 170
Q 149.7 166.35 147.15 163.8 144.6 161.25 140.95 161.25 137.35 161.25 134.8 163.8 132.25 166.35 132.25 170 132.25 173.6 134.8 176.15 137.35 178.7 140.95 178.7 144.6 178.7 147.15 176.15 149.7 173.6 149.7 170 Z"/>
</g>

<g id="Layer1_0_MEMBER_0_MEMBER_0_MEMBER_0_MEMBER_2_FILL">
<path fill="#4AB5F0" stroke="none" d="
M 148.9 170
Q 148.9 166.7 146.6 164.4 144.25 162.05 140.95 162.05 137.7 162.05 135.35 164.4 133.05 166.7 133.05 170 133.05 173.25 135.35 175.6 137.7 177.9 140.95 177.9 144.25 177.9 146.6 175.6 148.9 173.25 148.9 170 Z"/>
</g>

<g id="Layer1_0_MEMBER_1_MEMBER_0_MEMBER_0_FILL">
<path fill="#4E4F50" stroke="none" d="
M 143.55 395.35
Q 142.3 394.1 140.6 394.1 138.85 394.1 137.6 395.35
L 137.5 395.45 137.4 395.35
Q 136.15 394.1 134.4 394.1 132.65 394.1 131.4 395.35 130.15 396.6 130.15 398.35 130.15 400.1 131.4 401.35
L 137.5 407.45 143.55 401.35
Q 144.8 400.1 144.8 398.35 144.8 396.6 143.55 395.35
M 142.85 396.05
Q 143.8 396.95 143.8 398.35 143.8 399.75 142.85 400.65
L 137.5 406 132.1 400.65
Q 131.15 399.7 131.15 398.35 131.15 397 132.1 396.05 133.15 395.1 134.4 395.1 135.65 395.1 136.7 396.05
L 137.5 396.85 138.3 396.05
Q 139.25 395.1 140.6 395.1 141.9 395.1 142.85 396.05 Z"/>
</g>

<g id="Layer1_0_MEMBER_1_MEMBER_1_MEMBER_0_FILL">
<path fill="#4E4F50" stroke="none" d="
M 161.5 393.95
Q 159 393.95 157.2 395.7 155.4 397.5 155.4 400 155.4 402.5 157.2 404.3 159 406.05 161.5 406.05 162.7 406.05 163.7 405.65
L 167.2 407.6 166.3 403.65
Q 167.55 402 167.55 400 167.55 397.5 165.75 395.7 164 393.95 161.5 393.95
M 165.05 396.45
Q 166.55 397.9 166.55 400 166.55 401.8 165.4 403.2
L 165.25 403.4 165.75 405.65 163.75 404.55 163.5 404.65
Q 162.65 405.05 161.5 405.05 159.4 405.05 157.9 403.6 156.4 402.1 156.4 400 156.4 397.9 157.9 396.45 159.4 394.95 161.5 394.95 163.55 394.95 165.05 396.45 Z"/>
</g>

<g id="Layer1_0_MEMBER_1_MEMBER_2_FILL">
<path fill="#4E4F50" stroke="none" d="
M 177.35 401.5
L 184.1 402.75 187.9 408.5 190.6 393.05 177.35 401.5
M 189 396.3
L 187.35 405.85 185 402.3 189 396.3
M 184.15 401.75
L 180 400.95 188.15 395.75 184.15 401.75 Z"/>
</g>

<g id="Layer1_1_FILL">
<path fill="#47B5C3" fill-opacity="0.4980392156862745" stroke="none" d="
M 202.55 56.75
L 202.55 55.4 21.9 55.4 21.9 344.05 202.55 344.05 202.55 342.55 202.55 56.75 Z"/>

<path fill="#FFAC5A" stroke="none" d="
M 368.05 147.95
L 368.05 55.75 268.3 55.75 268.3 147.95 368.05 147.95 Z"/>
</g>

<g id="Layer1_2_FILL">
<path fill="#D69686" stroke="none" d="
M 188.3 76.05
Q 188.2 75.85 188.1 75.75
L 185.2 73.6
Q 141.7 81.45 98.3 89.15
L 70 94.35
Q 56.45 97.05 43 100.3 40.95 100.85 39.45 102.1 37.55 103.9 36.35 106.05 36.15 106.45 36.05 106.8 35.8 107.3 35.45 107.8
L 35.6 108.6 35.35 109.45
Q 35.4 109.65 35.5 109.75 35.65 109.95 36 110.05 36.05 110 36.2 109.95
L 73.7 319.8
Q 73.65 320.05 73.65 320.35 73.7 324.35 75.7 327.6 76 328.05 76.35 328.5 76.65 328.85 77.05 329.2 77.4 329.5 77.65 329.85
L 76.6 330.15 81.55 332.15 131.4 323.2
Q 155.9 318.65 180.55 314.35 201.8 310.7 222.75 305.65 224.7 305 226.15 303.7 228.1 301.95 229.4 299.85 229.55 299.5 229.7 299.15 229.95 298.65 230.25 298.15
L 230.15 297.35 230.4 296.45
Q 230.35 296.3 230.25 296.2 230 296 229.75 296 229.6 296 229.5 296.05
L 192 86.15
Q 192.1 85.9 192.1 85.65 192.15 82.3 190.55 79.4 190.3 78.85 190.05 78.35 189.8 77.9 189.45 77.55 189.1 77.1 188.75 76.8 188.35 76.4 187.95 76.1 188.05 76.1 188.15 76.05 188.25 76 188.3 76.05 Z"/>
</g>

<g id="Layer1_3_FILL">
<path fill="#053336" stroke="none" d="
M 246.35 22.35
Q 246.05 21.7 245.7 21.1 245.4 20.55 245 20.1 244.55 19.55 244.15 19.15 243.65 18.7 243.15 18.3 243.25 18.3 243.4 18.25 243.5 18.2 243.55 18.25 243.45 18 243.3 17.85
L 239.75 15.2
Q 185.95 24.9 132.3 34.45
L 97.3 40.85
Q 80.55 44.2 63.95 48.2 61.4 48.9 59.55 50.45 57.2 52.65 55.7 55.35 55.45 55.8 55.3 56.25 55 56.9 54.6 57.5
L 54.75 58.45 54.45 59.55
Q 54.5 59.8 54.65 59.9 54.85 60.15 55.25 60.3 55.35 60.2 55.5 60.15
L 101.9 319.6
Q 101.8 319.9 101.8 320.25 101.85 325.2 104.35 329.25 104.7 329.8 105.15 330.35 105.5 330.8 106 331.25 106.45 331.6 106.75 332
L 105.45 332.4 111.6 334.85 173.2 323.8
Q 203.5 318.15 234 312.85 260.25 308.35 286.15 302.1 288.55 301.3 290.35 299.7 292.8 297.55 294.35 294.95 294.55 294.5 294.75 294.05 295.05 293.45 295.45 292.85
L 295.3 291.85 295.6 290.75
Q 295.55 290.55 295.4 290.45 295.15 290.2 294.8 290.15 294.65 290.15 294.5 290.25
L 248.15 30.75
Q 248.25 30.4 248.25 30.1 248.3 25.95 246.35 22.35
M 243 22.95
Q 243.6 23.55 244.05 24.3 244.5 25.1 244.85 26.05 245.3 26.95 245.65 28 244.9 29.45 245.15 31.1 245.8 35.6 246.55 40 247.5 45.4 248.45 50.85 249.7 57.9 251 65.1 253.35 77.65 255.6 90.2 257.85 102.75 260.1 115.3 261.3 122 262.5 128.65 263.55 134.55 264.6 140.4 266.85 152.95 269.15 165.5 271.4 178.05 273.6 190.6 274.25 194.2 274.9 197.75 275.4 200.5 275.85 203.25 277.05 209.5 278.2 215.7 278.85 219.05 279.55 222.4 281.25 231.55 282.95 240.75 285.2 253.25 287.45 265.85 289.25 275.9 291.35 285.95 291.6 287.2 291.85 288.4 291.95 288.9 292.1 289.4 292.3 289.85 292.4 290.35 292.5 290.6 292.55 290.85 292.6 291.1 292.65 291.3 292.75 291.55 292.9 291.75
L 293.7 292.15 289.3 297.5
Q 287.6 298.5 285.6 299.15 274.65 302.9 262.85 304.4 253.05 306.05 243.2 307.8 230.7 309.9 218.25 312.1 210.65 313.45 203 314.8 195.45 316.15 187.85 317.55 180.25 318.85 172.55 320.2 158.15 322.8 143.75 325.35 129.35 327.95 114.9 330.55 111.55 330.6 108.75 328.9 107.8 328.3 107.05 327.5 106.45 326.8 106 326.1 105.75 325.7 105.55 325.3 105.3 324.85 105.15 324.4 104.75 323.35 104.4 322.35 105 320.85 104.8 319.2 104.25 314.75 103.5 310.3 101.35 297.8 99 285.2 96.7 272.65 94.45 260.1 92.3 248.25 90.2 236.4 90.05 235.7 89.95 235 87.65 222.45 85.4 209.9 83.15 197.35 80.9 184.8 78.65 172.25 76.45 159.75 74.2 147.15 71.8 134.65 69.4 122.15 67.15 109.6 64.9 97.05 62.6 84.5 60.75 74.4 58.6 64.4 58.35 63.3 58.15 61.9 58.05 61.4 57.9 60.95 57.7 60.45 57.55 60 57.5 59.75 57.45 59.5 57.45 59.25 57.35 59 57.25 58.8 57.15 58.55
L 56.35 58.15 60.7 52.85
Q 62.6 51.8 64.8 51.05 68.05 49.8 71.5 49.2 84.75 46.8 97.95 44.45 102.15 43.7 106.45 42.9 106.5 43.15 106.55 43.4
L 107 46.9 103.95 47.95 103.5 49 103.85 51.4 64.3 58.55 96.8 239.1 112.55 326.75 113.95 326.5 114.1 327.1 286.5 296.05 273.85 225.9 238.25 27.85 236.9 28.1 236.75 27.5 213.35 31.7 213.1 30.15
Q 212.8 28.5 212.2 27.95 211.1 26.75 208.2 27.6 207.95 27.7 207.7 27.8 207.7 27.7 207.65 27.6 207.65 27.35 207.6 27.1 207.55 26.9 207.5 26.65 207.45 26.4 207.4 26.15 207.35 25.9 207.3 25.65 207.25 25.4 207.25 25.15 207.2 25 207.15 24.8 221.1 22.25 235.2 20.15 237.6 19.8 240.05 20.8 240.8 20.95 241.45 21.45 242.35 22.05 243 22.95
M 213.85 34.5
L 213.8 34.1 236 30.15 271.5 227.35 283.5 294.15 117 324.1 117.1 324.75 115.65 325 115.55 324.35 115.1 324.45 99.95 240.3 67.6 60.45 104.25 53.85 104.85 57.45 105.65 58.3 106.1 60.8 108.65 65.4 137.15 61.35
Q 165 56.4 192.85 51.4 194.7 51.05 196.55 50.6 196.8 50.5 197.15 50.45
L 197.4 50.4
Q 200.95 49.9 202.7 49.55 205.55 48.9 207.75 47.85 210.25 46.65 212 44.65 213.9 42.45 214.25 40 214.5 38.15 213.85 34.5
M 207.9 30.15
Q 208.1 30.1 208.3 30.05 210.05 29.75 210.45 29.9 210.55 30.9 211.25 34 211.8 36.55 211.65 38.15 211.3 41.15 208.5 43.5 206.2 45.55 202.7 46.6 201.45 47 196.35 47.95 196 48 195.7 48.1 195.55 48.1 195.45 48.1 193.85 48.3 192.3 48.45 164.45 53.45 136.6 58.4 123.55 61.25 110.45 61.9 110.25 61.8 110.15 61.65
L 109.2 58.85 108.6 58.4 107.85 55.5 107.25 55.1 106.15 49.7 106.7 48.95 134.1 44.45
Q 140.15 43.4 146.15 42.35 176.3 36.95 206.5 31.5 206.9 31.35 207.3 31.2 207.45 31 207.6 30.8 207.7 30.55 207.85 30.25
L 207.9 30.25
Q 207.9 30.2 207.9 30.15
M 205.05 25.3
Q 205.1 25.55 205.15 25.8 205.15 26.05 205.2 26.3 205.25 26.55 205.3 26.8 205.35 27.05 205.4 27.25 205.45 27.5 205.5 27.75 205.55 28 205.55 28.25 175.55 33.65 145.55 39.05 145.6 39.15 145.6 39.25 139.55 40.35 133.55 41.45
L 109.55 45.9 108.9 42.45 132.95 38.15
Q 168.95 31.65 205 25.15 205.05 25.25 205.05 25.3
M 237.2 29.9
L 237.4 29.9 285 294.55 284.8 294.55 237.2 29.9 Z"/>

<path fill="#D6AF86" stroke="none" d="
M 237.4 29.9
L 237.2 29.9 284.8 294.55 285 294.55 237.4 29.9
M 103.5 49
L 103.95 47.95 107 46.9 106.55 43.4
Q 106.5 43.15 106.45 42.9 102.15 43.7 97.95 44.45 84.75 46.8 71.5 49.2 68.05 49.8 64.8 51.05 62.6 51.8 60.7 52.85
L 56.35 58.15 57.15 58.55
Q 57.25 58.8 57.35 59 57.45 59.25 57.45 59.5 57.5 59.75 57.55 60 57.7 60.45 57.9 60.95 58.05 61.4 58.15 61.9 58.35 63.3 58.6 64.4 60.75 74.4 62.6 84.5 64.9 97.05 67.15 109.6 69.4 122.15 71.8 134.65 74.2 147.15 76.45 159.75 78.65 172.25 80.9 184.8 83.15 197.35 85.4 209.9 87.65 222.45 89.95 235 90.05 235.7 90.2 236.4
L 96.8 239.1 64.3 58.55 103.85 51.4 103.5 49
M 244.05 24.3
Q 243.6 23.55 243 22.95 242.35 22.05 241.45 21.45 240.8 20.95 240.05 20.8 237.6 19.8 235.2 20.15 221.1 22.25 207.15 24.8 207.2 25 207.25 25.15 207.25 25.4 207.3 25.65 207.35 25.9 207.4 26.15 207.45 26.4 207.5 26.65 207.55 26.9 207.6 27.1 207.65 27.35 207.65 27.6 207.7 27.7 207.7 27.8 207.95 27.7 208.2 27.6 211.1 26.75 212.2 27.95 212.8 28.5 213.1 30.15
L 213.35 31.7 236.75 27.5 236.9 28.1 238.25 27.85 273.85 225.9 279.55 222.4
Q 278.85 219.05 278.2 215.7 277.05 209.5 275.85 203.25 275.4 200.5 274.9 197.75 274.25 194.2 273.6 190.6 271.4 178.05 269.15 165.5 266.85 152.95 264.6 140.4 263.55 134.55 262.5 128.65 261.3 122 260.1 115.3 257.85 102.75 255.6 90.2 253.35 77.65 251 65.1 249.7 57.9 248.45 50.85 247.5 45.4 246.55 40 245.8 35.6 245.15 31.1 244.9 29.45 245.65 28 245.3 26.95 244.85 26.05 244.5 25.1 244.05 24.3 Z"/>

<path fill="#B1B1B1" stroke="none" d="
M 205.15 25.8
Q 205.1 25.55 205.05 25.3 205.05 25.25 205 25.15 168.95 31.65 132.95 38.15
L 108.9 42.45 109.55 45.9 133.55 41.45
Q 139.55 40.35 145.6 39.25 145.6 39.15 145.55 39.05 175.55 33.65 205.55 28.25 205.55 28 205.5 27.75 205.45 27.5 205.4 27.25 205.35 27.05 205.3 26.8 205.25 26.55 205.2 26.3 205.15 26.05 205.15 25.8 Z"/>

<path fill="#D4D4D4" stroke="none" d="
M 208.3 30.05
Q 208.1 30.1 207.9 30.15 207.9 30.2 207.9 30.25
L 207.85 30.25
Q 207.7 30.55 207.6 30.8 207.45 31 207.3 31.2 206.9 31.35 206.5 31.5 176.3 36.95 146.15 42.35 140.15 43.4 134.1 44.45
L 106.7 48.95 106.15 49.7 107.25 55.1 107.85 55.5 108.6 58.4 109.2 58.85 110.15 61.65
Q 110.25 61.8 110.45 61.9 123.55 61.25 136.6 58.4 164.45 53.45 192.3 48.45 193.85 48.3 195.45 48.1 195.55 48.1 195.7 48.1 196 48 196.35 47.95 201.45 47 202.7 46.6 206.2 45.55 208.5 43.5 211.3 41.15 211.65 38.15 211.8 36.55 211.25 34 210.55 30.9 210.45 29.9 210.05 29.75 208.3 30.05 Z"/>

<path fill="#FFFDF6" stroke="none" d="
M 160.9 257.3
L 150 256.85 99.95 240.3 115.1 324.45 115.55 324.35 115.65 325 117.1 324.75 117 324.1 283.5 294.15 271.5 227.35
Q 270.8 227.7 270.1 228.15 252.45 238.8 234.1 247.35 220.35 254.05 205.45 256.2 183 258.55 160.9 257.3 Z"/>

<path fill="#FFFFFF" stroke="none" d="
M 213.8 34.1
L 213.85 34.5
Q 214.5 38.15 214.25 40 213.9 42.45 212 44.65 210.25 46.65 207.75 47.85 205.55 48.9 202.7 49.55 200.95 49.9 197.4 50.4
L 197.15 50.45
Q 196.8 50.5 196.55 50.6 194.7 51.05 192.85 51.4 165 56.4 137.15 61.35
L 108.65 65.4 106.1 60.8 105.65 58.3 104.85 57.45 104.25 53.85 67.6 60.45 99.95 240.3 150 256.85 160.9 257.3
Q 183 258.55 205.45 256.2 220.35 254.05 234.1 247.35 252.45 238.8 270.1 228.15 270.8 227.7 271.5 227.35
L 236 30.15 213.8 34.1 Z"/>

<path fill="#D69686" stroke="none" d="
M 96.8 239.1
L 90.2 236.4
Q 92.3 248.25 94.45 260.1 96.7 272.65 99 285.2 101.35 297.8 103.5 310.3 104.25 314.75 104.8 319.2 105 320.85 104.4 322.35 104.75 323.35 105.15 324.4 105.3 324.85 105.55 325.3 105.75 325.7 106 326.1 106.45 326.8 107.05 327.5 107.8 328.3 108.75 328.9 111.55 330.6 114.9 330.55 129.35 327.95 143.75 325.35 158.15 322.8 172.55 320.2 180.25 318.85 187.85 317.55 195.45 316.15 203 314.8 210.65 313.45 218.25 312.1 230.7 309.9 243.2 307.8 253.05 306.05 262.85 304.4 274.65 302.9 285.6 299.15 287.6 298.5 289.3 297.5
L 293.7 292.15 292.9 291.75
Q 292.75 291.55 292.65 291.3 292.6 291.1 292.55 290.85 292.5 290.6 292.4 290.35 292.3 289.85 292.1 289.4 291.95 288.9 291.85 288.4 291.6 287.2 291.35 285.95 289.25 275.9 287.45 265.85 285.2 253.25 282.95 240.75 281.25 231.55 279.55 222.4
L 273.85 225.9 286.5 296.05 114.1 327.1 113.95 326.5 112.55 326.75 96.8 239.1 Z"/>
</g>

<g id="Layer1_3_MEMBER_0_FILL">
<path fill="#D4D4D4" stroke="none" d="
M 217.55 96.65
L 217.55 86.05 69.2 86.05 69.2 96.65 217.55 96.65 Z"/>
</g>

<g id="Layer1_3_MEMBER_1_FILL">
<path fill="#D4D4D4" stroke="none" d="
M 217.55 96.65
L 217.55 86.05 69.2 86.05 69.2 96.65 217.55 96.65 Z"/>
</g>

<g id="Layer1_3_MEMBER_2_FILL">
<path fill="#D4D4D4" stroke="none" d="
M 217.55 96.65
L 217.55 86.05 69.2 86.05 69.2 96.65 217.55 96.65 Z"/>
</g>

<g id="Layer1_3_MEMBER_3_FILL">
<path fill="#D4D4D4" stroke="none" d="
M 217.55 96.65
L 217.55 86.05 69.2 86.05 69.2 96.65 217.55 96.65 Z"/>
</g>

<g id="Layer1_3_MEMBER_4_FILL">
<path fill="#D4D4D4" stroke="none" d="
M 217.55 96.65
L 217.55 86.05 69.2 86.05 69.2 96.65 217.55 96.65 Z"/>
</g>

<g id="Layer1_3_MEMBER_5_FILL">
<path fill="#576570" stroke="none" d="
M 217.55 96.65
L 217.55 86.05 69.2 86.05 69.2 96.65 217.55 96.65 Z"/>
</g>

<g id="Layer1_3_MEMBER_6_FILL">
<path fill="#D4D4D4" stroke="none" d="
M 217.55 96.65
L 217.55 86.05 69.2 86.05 69.2 96.65 217.55 96.65 Z"/>
</g>

<g id="Layer1_3_MEMBER_7_FILL">
<path fill="#D4D4D4" stroke="none" d="
M 217.55 96.65
L 217.55 86.05 69.2 86.05 69.2 96.65 217.55 96.65 Z"/>
</g>

<g id="Layer1_3_MEMBER_8_FILL">
<path fill="#D4D4D4" stroke="none" d="
M 217.55 96.65
L 217.55 86.05 69.2 86.05 69.2 96.65 217.55 96.65 Z"/>
</g>

<g id="Layer1_3_MEMBER_9_FILL">
<path fill="#D4D4D4" stroke="none" d="
M 217.55 96.65
L 217.55 86.05 69.2 86.05 69.2 96.65 217.55 96.65 Z"/>
</g>

<g id="Layer1_3_MEMBER_10_FILL">
<path fill="#D4D4D4" stroke="none" d="
M 217.55 96.65
L 217.55 86.05 69.2 86.05 69.2 96.65 217.55 96.65 Z"/>
</g>

<g id="Layer1_3_MEMBER_11_FILL">
<path fill="#D4D4D4" stroke="none" d="
M 217.55 96.65
L 217.55 86.05 69.2 86.05 69.2 96.65 217.55 96.65 Z"/>
</g>

<g id="Layer1_3_MEMBER_12_FILL">
<path fill="#576570" stroke="none" d="
M 217.55 96.65
L 217.55 86.05 69.2 86.05 69.2 96.65 217.55 96.65 Z"/>
</g>

<g id="Layer1_3_MEMBER_13_FILL">
<path fill="#D4D4D4" stroke="none" d="
M 217.55 96.65
L 217.55 86.05 69.2 86.05 69.2 96.65 217.55 96.65 Z"/>
</g>

<g id="Layer1_4_FILL">
<path fill="#0F5DA6" stroke="none" d="
M 262.25 282.25
Q 262.25 266.5 251.1 255.4 239.95 244.25 224.2 244.25 208.45 244.25 197.3 255.4 186.2 266.5 186.2 282.25 186.2 298.05 197.3 309.15 208.45 320.3 224.2 320.3 239.95 320.3 251.1 309.15 262.25 298.05 262.25 282.25 Z"/>
</g>

<g id="Layer1_4_MEMBER_0_MEMBER_0_FILL">
<path fill="#47B5C3" stroke="none" d="
M 525 367.5
Q 521.35 367.5 518.8 370.1
L 472.5 416.4 452.4 396.35
Q 449.85 393.75 446.25 393.75 442.6 393.75 440.05 396.35 437.45 398.9 437.45 402.55 437.45 406.15 440.05 408.7
L 466.3 434.95
Q 468.85 437.5 472.5 437.5 476.1 437.5 478.65 434.95
L 531.15 382.45
Q 533.75 379.9 533.75 376.3 533.75 372.65 531.15 370.1 528.6 367.5 525 367.5 Z"/>
</g>

<g id="Layer0_0_FILL">
<path fill="#053336" stroke="none" d="
M 66.25 35.05
Q 67.35 35.05 67.95 34.6 68.55 34.1 68.55 33.25 68.55 31.6 66.4 31.6
L 64.95 31.6 64.95 37.3 65.6 37.3 65.6 35.05 66.25 35.05
M 65.6 34.5
L 65.6 32.15 66.35 32.15
Q 67.15 32.15 67.5 32.45 67.85 32.7 67.85 33.3 67.85 33.9 67.45 34.2 67.1 34.5 66.2 34.5
L 65.6 34.5
M 77.1 33
L 76.45 33 76.45 37.3 77.1 37.3 77.1 33
M 77.05 32.2
Q 77.15 32.1 77.15 31.85 77.15 31.65 77.05 31.55 76.9 31.45 76.75 31.45 76.6 31.45 76.5 31.55 76.4 31.65 76.4 31.85 76.4 32.1 76.5 32.2 76.6 32.3 76.75 32.3 76.9 32.3 77.05 32.2
M 79.15 33.5
L 80.4 33.5 80.4 33 79.15 33 79.15 32.05 78.75 32.05 78.5 32.95 77.85 33.2 77.85 33.5 78.5 33.5 78.5 36.05
Q 78.5 37.4 79.75 37.4
L 80.1 37.35 80.4 37.25 80.4 36.75 79.8 36.85
Q 79.5 36.85 79.3 36.65 79.15 36.45 79.15 36.05
L 79.15 33.5
M 72.8 33.55
Q 72.25 32.95 71.4 32.95 70.45 32.95 69.9 33.55 69.4 34.1 69.4 35.15 69.4 35.85 69.65 36.35 69.9 36.85 70.35 37.1 70.75 37.4 71.35 37.4 72.3 37.4 72.8 36.8 73.35 36.2 73.35 35.15 73.35 34.15 72.8 33.55
M 72.65 35.15
Q 72.65 36 72.35 36.4 72 36.85 71.35 36.85 70.75 36.85 70.4 36.4 70.05 36 70.05 35.15 70.05 34.35 70.4 33.9 70.7 33.5 71.35 33.5 72 33.5 72.35 33.9 72.65 34.35 72.65 35.15
M 75.1 31.2
L 74.45 31.2 74.45 37.3 75.1 37.3 75.1 31.2
M 58.35 33.5
Q 58.7 32.8 59.35 32.45 60 32.1 60.85 32.1 61.55 32.1 62.1 32.4 62.6 32.7 62.9 33.2 63.2 33.75 63.2 34.45 63.2 35.1 62.95 35.55 62.75 35.95 62.4 35.95 61.85 35.95 61.85 35.25
L 61.95 33.35
Q 61.7 33.25 61.35 33.2
L 60.75 33.15
Q 60 33.15 59.55 33.65 59.1 34.15 59.1 34.95 59.1 35.65 59.4 36.05 59.75 36.45 60.35 36.45 60.75 36.45 61.05 36.25 61.3 36.05 61.45 35.7
L 61.5 35.7
Q 61.55 36.05 61.8 36.25 62 36.45 62.35 36.45 62.75 36.45 63.05 36.2 63.4 35.95 63.55 35.45 63.7 35 63.7 34.45 63.7 33.6 63.35 32.95 63 32.3 62.35 31.95 61.7 31.6 60.85 31.6 59.85 31.6 59.1 32.05 58.3 32.45 57.9 33.25 57.45 34.05 57.45 35.05 57.45 36.45 58.25 37.25 59.05 38.05 60.45 38.05 61.4 38.05 62.15 37.7
L 62.15 37.2
Q 61.3 37.5 60.45 37.5 59.25 37.5 58.65 36.85 58 36.25 58 35.05 58 34.15 58.35 33.5
M 60.45 35.95
Q 59.7 35.95 59.7 34.95 59.7 34.35 59.95 34 60.25 33.65 60.75 33.65 61.1 33.65 61.4 33.7
L 61.3 34.75
Q 61.25 35.95 60.45 35.95
M 80.6 19.8
L 79.15 19.8 79.15 27.4 80.6 27.4 80.6 19.8
M 75.3 21.85
Q 74.05 21.85 73.35 22.6 72.65 23.3 72.65 24.65 72.65 25.5 72.95 26.15 73.3 26.8 73.9 27.15 74.5 27.5 75.3 27.5 76.55 27.5 77.25 26.75 77.95 26 77.95 24.65 77.95 23.8 77.6 23.15 77.3 22.5 76.7 22.2 76.1 21.85 75.3 21.85
M 74.15 24.65
Q 74.15 23.85 74.45 23.45 74.7 23.05 75.3 23.05 75.9 23.05 76.15 23.45 76.4 23.85 76.4 24.65 76.4 25.5 76.15 25.9 75.9 26.3 75.3 26.3 74.7 26.3 74.45 25.9 74.15 25.45 74.15 24.65
M 69.15 20.25
L 66.85 20.25 66.85 27.4 68.35 27.4 68.35 24.85 69 24.85
Q 70.35 24.85 71.05 24.25 71.8 23.65 71.8 22.5 71.8 21.4 71.1 20.8 70.45 20.25 69.15 20.25
M 68.35 21.5
L 69.05 21.5
Q 69.65 21.5 69.95 21.75 70.25 22 70.25 22.55 70.25 23.05 69.9 23.35 69.55 23.6 68.85 23.6
L 68.35 23.6 68.35 21.5
M 61.8 21.1
Q 62.55 21.1 63.15 21.4 63.75 21.75 64.1 22.35 64.4 22.95 64.4 23.7 64.4 24.45 64.2 24.9 64.05 25.35 63.7 25.35 63.35 25.35 63.35 24.7
L 63.45 22.3
Q 63.15 22.2 62.65 22.1 62.1 22.05 61.7 22.05 60.65 22.05 60 22.65 59.35 23.3 59.35 24.3 59.35 25.2 59.85 25.75 60.35 26.25 61.2 26.25 62 26.25 62.55 25.65
L 62.6 25.65
Q 62.75 25.9 63 26.1 63.3 26.25 63.65 26.25 64.2 26.25 64.6 25.95 65 25.6 65.25 25 65.45 24.45 65.45 23.75 65.45 22.65 65 21.85 64.55 21.05 63.7 20.6 62.85 20.15 61.8 20.15 60.5 20.15 59.55 20.75 58.55 21.3 58.05 22.25 57.5 23.25 57.5 24.45 57.5 26.2 58.55 27.2 59.55 28.15 61.45 28.15 62.7 28.15 63.75 27.7
L 63.75 26.75
Q 63.15 27 62.55 27.1 61.9 27.2 61.4 27.2 60 27.2 59.3 26.5 58.6 25.8 58.6 24.45 58.6 23.45 58.95 22.65 59.35 21.9 60.1 21.5 60.8 21.1 61.8 21.1
M 60.8 23.3
Q 61.15 22.9 61.75 22.9 62.05 22.9 62.3 22.95
L 62.25 24.05
Q 62.2 24.75 62 25.05 61.75 25.35 61.3 25.35 60.45 25.35 60.45 24.35 60.45 23.7 60.8 23.3
M 108.6 33
L 107.95 33 107.95 37.3 108.6 37.3 108.6 33
M 107.9 31.85
Q 107.9 32.1 108 32.2 108.1 32.3 108.25 32.3 108.4 32.3 108.55 32.2 108.65 32.1 108.65 31.85 108.65 31.65 108.55 31.55 108.4 31.45 108.25 31.45 108.1 31.45 108 31.55 107.9 31.65 107.9 31.85
M 103.8 33
L 103.15 33 103.15 37.3 103.8 37.3 103.8 33
M 103.2 32.2
Q 103.3 32.3 103.45 32.3 103.6 32.3 103.75 32.2 103.85 32.1 103.85 31.85 103.85 31.65 103.75 31.55 103.6 31.45 103.45 31.45 103.3 31.45 103.2 31.55 103.1 31.65 103.1 31.85 103.1 32.1 103.2 32.2
M 105.85 32.05
L 105.45 32.05 105.2 32.95 104.55 33.2 104.55 33.5 105.2 33.5 105.2 36.05
Q 105.2 37.4 106.45 37.4
L 106.8 37.35 107.1 37.25 107.1 36.75 106.5 36.85
Q 106.2 36.85 106 36.65 105.85 36.45 105.85 36.05
L 105.85 33.5 107.1 33.5 107.1 33 105.85 33 105.85 32.05
M 112.3 33
Q 112 32.95 111.7 32.95 110.75 32.95 110.2 33.55 109.7 34.1 109.7 35.2 109.7 36.25 110.2 36.8 110.7 37.4 111.65 37.4 112.3 37.4 112.75 37.15
L 112.75 36.6
Q 112.15 36.8 111.65 36.8 111 36.8 110.7 36.4 110.35 35.95 110.35 35.2 110.35 33.5 111.7 33.5 111.85 33.5 112.15 33.55
L 112.6 33.7 112.8 33.15
Q 112.6 33.05 112.3 33
M 115.35 32.95
Q 114.95 32.95 114.6 33.05 114.2 33.15 113.9 33.3
L 114.1 33.8
Q 114.75 33.5 115.3 33.5 115.8 33.5 116 33.75 116.2 33.95 116.2 34.45
L 116.2 34.75 115.5 34.75
Q 113.4 34.8 113.4 36.1 113.4 36.7 113.8 37.05 114.15 37.4 114.8 37.4 115.25 37.4 115.55 37.25 115.9 37.1 116.2 36.7
L 116.25 36.7 116.35 37.3 116.85 37.3 116.85 34.4
Q 116.85 33.65 116.5 33.3 116.1 32.95 115.35 32.95
M 115.55 35.2
L 116.2 35.2 116.2 35.6
Q 116.2 36.2 115.85 36.5 115.5 36.85 114.9 36.85 114.5 36.85 114.3 36.65 114.1 36.5 114.1 36.1 114.1 35.7 114.45 35.45 114.8 35.25 115.55 35.2
M 101.15 31.2
L 101.15 37.3 101.8 37.3 101.8 31.2 101.15 31.2
M 89.8 33.3
Q 89.4 32.95 88.65 32.95 88.25 32.95 87.9 33.05 87.5 33.15 87.2 33.3
L 87.4 33.8
Q 88.05 33.5 88.6 33.5 89.1 33.5 89.3 33.75 89.5 33.95 89.5 34.45
L 89.5 34.75 88.8 34.75
Q 86.7 34.8 86.7 36.1 86.7 36.7 87.1 37.05 87.45 37.4 88.1 37.4 88.55 37.4 88.85 37.25 89.2 37.1 89.5 36.7
L 89.55 36.7 89.65 37.3 90.15 37.3 90.15 34.4
Q 90.15 33.65 89.8 33.3
M 88.2 36.85
Q 87.8 36.85 87.6 36.65 87.4 36.5 87.4 36.1 87.4 35.7 87.75 35.45 88.1 35.25 88.85 35.2
L 89.5 35.2 89.5 35.6
Q 89.5 36.2 89.15 36.5 88.8 36.85 88.2 36.85
M 81.9 33
L 81.25 33 81.25 37.3 81.9 37.3 81.9 33
M 81.55 31.45
Q 81.4 31.45 81.3 31.55 81.2 31.65 81.2 31.85 81.2 32.1 81.3 32.2 81.4 32.3 81.55 32.3 81.7 32.3 81.85 32.2 81.95 32.1 81.95 31.85 81.95 31.65 81.85 31.55 81.7 31.45 81.55 31.45
M 85 33.5
Q 85.15 33.5 85.45 33.55
L 85.9 33.7 86.1 33.15
Q 85.9 33.05 85.6 33 85.3 32.95 85 32.95 84.05 32.95 83.5 33.55 83 34.1 83 35.2 83 36.25 83.5 36.8 84 37.4 84.95 37.4 85.6 37.4 86.05 37.15
L 86.05 36.6
Q 85.45 36.8 84.95 36.8 84.3 36.8 84 36.4 83.65 35.95 83.65 35.2 83.65 33.5 85 33.5
M 98.1 32.95
Q 97.15 32.95 96.6 33.55 96.1 34.1 96.1 35.15 96.1 35.85 96.35 36.35 96.6 36.85 97.05 37.1 97.45 37.4 98.05 37.4 99 37.4 99.5 36.8 100.05 36.2 100.05 35.15 100.05 34.15 99.5 33.55 98.95 32.95 98.1 32.95
M 97.1 33.9
Q 97.4 33.5 98.05 33.5 98.7 33.5 99.05 33.9 99.35 34.35 99.35 35.15 99.35 36 99.05 36.4 98.7 36.85 98.05 36.85 97.45 36.85 97.1 36.4 96.75 36 96.75 35.15 96.75 34.35 97.1 33.9
M 91.95 33
L 91.45 33 91.45 39.2 92.1 39.2 92.05 36.75 92.1 36.75
Q 92.3 37.05 92.65 37.25 93 37.4 93.45 37.4 94.25 37.4 94.75 36.8 95.2 36.2 95.2 35.15 95.2 34.1 94.75 33.5 94.3 32.95 93.45 32.95 93 32.95 92.65 33.1 92.35 33.25 92.1 33.6
L 92.05 33.6 91.95 33
M 92.4 33.85
Q 92.7 33.5 93.35 33.5 93.9 33.5 94.2 33.9 94.55 34.35 94.55 35.15 94.55 35.95 94.2 36.4 93.9 36.85 93.35 36.85 92.7 36.85 92.4 36.45 92.1 36.05 92.1 35.15
L 92.1 35
Q 92.1 34.2 92.4 33.85
M 92.95 22.6
Q 92.25 23.3 92.25 24.7 92.25 27.5 94.8 27.5 95.35 27.5 95.75 27.4 96.1 27.3 96.45 27.1
L 96.45 25.8
Q 96.1 26.05 95.75 26.2 95.35 26.3 94.95 26.3 93.75 26.3 93.75 24.7 93.75 23.05 94.95 23.05 95.25 23.05 95.55 23.15
L 96.2 23.35 96.65 22.2
Q 95.9 21.85 94.95 21.85 93.65 21.85 92.95 22.6
M 91 21.95
L 89.55 21.95 89.55 27.4 91 27.4 91 21.95
M 90.3 21.25
Q 90.7 21.25 90.9 21.05 91.1 20.9 91.1 20.55 91.1 19.8 90.3 19.8 89.45 19.8 89.45 20.55 89.45 21.25 90.3 21.25
M 83.65 21.95
L 82.2 21.95 82.2 27.4 83.65 27.4 83.65 21.95
M 85.5 21.95
L 84.7 22.45 84.7 23.05 85.4 23.05 85.4 25.7
Q 85.4 26.6 85.8 27.05 86.2 27.5 87.1 27.5 87.9 27.5 88.45 27.25
L 88.45 26.15
Q 87.9 26.3 87.55 26.3 87.25 26.3 87.05 26.15 86.9 26 86.9 25.7
L 86.9 23.05 88.4 23.05 88.4 21.95 86.9 21.95 86.9 20.8 85.95 20.8 85.5 21.95
M 83.55 21.05
Q 83.75 20.9 83.75 20.55 83.75 19.8 82.95 19.8 82.1 19.8 82.1 20.55 82.1 21.25 82.95 21.25 83.35 21.25 83.55 21.05
M 117.6 19.8
L 116.15 19.8 116.15 27.4 117.6 27.4 117.6 19.8
M 120.65 21.95
L 119.2 21.95 119.2 27.4 120.65 27.4 120.65 21.95
M 120.75 20.55
Q 120.75 19.8 119.95 19.8 119.1 19.8 119.1 20.55 119.1 21.25 119.95 21.25 120.35 21.25 120.55 21.05 120.75 20.9 120.75 20.55
M 110.35 22.6
Q 109.65 23.3 109.65 24.65 109.65 25.5 109.95 26.15 110.3 26.8 110.9 27.15 111.5 27.5 112.3 27.5 113.55 27.5 114.25 26.75 114.95 26 114.95 24.65 114.95 23.8 114.6 23.15 114.3 22.5 113.7 22.2 113.1 21.85 112.3 21.85 111.05 21.85 110.35 22.6
M 111.45 23.45
Q 111.7 23.05 112.3 23.05 112.9 23.05 113.15 23.45 113.4 23.85 113.4 24.65 113.4 25.5 113.15 25.9 112.9 26.3 112.3 26.3 111.7 26.3 111.45 25.9 111.15 25.45 111.15 24.65 111.15 23.85 111.45 23.45
M 105.15 22.65
L 105.1 22.65 104.9 21.95 103.7 21.95 103.7 29.8 105.15 29.8 105.1 26.8 105.15 26.8
Q 105.7 27.5 106.7 27.5 107.3 27.5 107.8 27.15 108.25 26.8 108.55 26.2 108.8 25.55 108.8 24.65 108.8 23.35 108.25 22.6 107.7 21.85 106.7 21.85 105.7 21.85 105.15 22.65
M 105.45 23.35
Q 105.7 23.05 106.25 23.05 106.75 23.05 107 23.45 107.25 23.85 107.25 24.65 107.25 26.3 106.25 26.3 105.7 26.3 105.45 25.9 105.15 25.55 105.15 24.65
L 105.15 24.5
Q 105.2 23.7 105.45 23.35
M 102.2 23.75
Q 102.2 22.8 101.6 22.3 101 21.85 99.9 21.85 98.75 21.85 97.85 22.3
L 98.3 23.35
Q 99.2 22.95 99.85 22.95 100.7 22.95 100.7 23.75
L 100.7 24 99.75 24.05
Q 98.55 24.05 97.95 24.5 97.3 24.9 97.3 25.75 97.3 26.6 97.75 27.05 98.2 27.5 99 27.5 99.65 27.5 100.05 27.3 100.45 27.15 100.8 26.65
L 100.85 26.65 101.15 27.4 102.2 27.4 102.2 23.75
M 100.7 25.3
Q 100.7 25.8 100.4 26.1 100.1 26.4 99.55 26.4 98.85 26.4 98.85 25.8 98.85 25.35 99.15 25.1 99.5 24.9 100.15 24.9
L 100.7 24.85 100.7 25.3
M 134.85 22.3
L 135.3 23.35
Q 136.2 22.95 136.85 22.95 137.7 22.95 137.7 23.75
L 137.7 24 136.75 24.05
Q 135.55 24.05 134.95 24.5 134.3 24.9 134.3 25.75 134.3 26.6 134.75 27.05 135.2 27.5 136 27.5 136.65 27.5 137.05 27.3 137.45 27.15 137.8 26.65
L 137.85 26.65 138.15 27.4 139.2 27.4 139.2 23.75
Q 139.2 22.8 138.6 22.3 138 21.85 136.9 21.85 135.75 21.85 134.85 22.3
M 137.7 25.3
Q 137.7 25.8 137.4 26.1 137.1 26.4 136.55 26.4 135.85 26.4 135.85 25.8 135.85 25.35 136.15 25.1 136.5 24.9 137.15 24.9
L 137.7 24.85 137.7 25.3
M 128 21.95
L 126.55 21.95 126.55 27.4 128 27.4 128 21.95
M 129.95 22.6
Q 129.25 23.3 129.25 24.7 129.25 27.5 131.8 27.5 132.35 27.5 132.75 27.4 133.1 27.3 133.45 27.1
L 133.45 25.8
Q 133.1 26.05 132.75 26.2 132.35 26.3 131.95 26.3 130.75 26.3 130.75 24.7 130.75 23.05 131.95 23.05 132.25 23.05 132.55 23.15
L 133.2 23.35 133.65 22.2
Q 132.9 21.85 131.95 21.85 130.65 21.85 129.95 22.6
M 127.3 21.25
Q 127.7 21.25 127.9 21.05 128.1 20.9 128.1 20.55 128.1 19.8 127.3 19.8 126.45 19.8 126.45 20.55 126.45 21.25 127.3 21.25
M 123.9 20.8
L 122.95 20.8 122.5 21.95 121.7 22.45 121.7 23.05 122.4 23.05 122.4 25.7
Q 122.4 26.6 122.8 27.05 123.2 27.5 124.1 27.5 124.9 27.5 125.45 27.25
L 125.45 26.15
Q 124.9 26.3 124.55 26.3 124.25 26.3 124.05 26.15 123.9 26 123.9 25.7
L 123.9 23.05 125.4 23.05 125.4 21.95 123.9 21.95 123.9 20.8 Z"/>
</g>

<path id="Layer1_0_MEMBER_2_1_STROKES" stroke="#4E4F50" stroke-width="1.5" stroke-linejoin="round" stroke-linecap="round" fill="none" d="
M 126.25 352.4
L 143.75 352.4 143.75 374 135.05 366.6 126.25 374 126.25 352.4 Z"/>

<path id="Layer1_1_1_STROKES" stroke="#E7E7E7" stroke-width="1.5" stroke-linejoin="round" stroke-linecap="round" fill="none" d="
M 187.75 344
L 187.75 342.65
M 187.75 56.849999999999966
L 187.75 55.349999999999966"/>

<path id="Layer1_1_2_STROKES" stroke="#4E4F50" stroke-width="1.5" stroke-linejoin="round" stroke-linecap="round" fill="none" d="
M 22.25 343.65
L 22.25 251.45 122 251.45 122 343.65 22.25 343.65 Z
M 21.900000000000034 280.29999999999995
L 21.900000000000034 55.349999999999966 187.75 55.349999999999966 368.40000000000003 55.349999999999966 368.40000000000003 344 187.75 344 90.85000000000002 344
M 187.75 342.65
L 187.75 56.849999999999966"/>
</defs>

<g transform="matrix( 1.4499664306640625, 0, 0, 1.4499664306640625, 20.5,13.1) ">
<mask id="Mask_Mask_1">
<g transform="matrix( 1, 0, 0, 1, 0,0) ">
<use xlink:href="#Mask_FlashAICB_Modo_de_isolamento__Clip_Group__0_2_MASK_0_FILL"/>
</g>
</mask>

<g mask="url(#Mask_Mask_1)">
<g transform="matrix( 1, 0, 0, 1, 0,0) ">
<use xlink:href="#FlashAICB_Modo_de_isolamento__Mesh_"/>
</g>
</g>
</g>

<g transform="matrix( 1.4499664306640625, 0, 0, 1.4499664306640625, -167.15,-217.15) ">
<use xlink:href="#Layer1_0_MEMBER_0_MEMBER_0_MEMBER_0_MEMBER_1_FILL"/>
</g>

<g transform="matrix( 1.4499664306640625, 0, 0, 1.4499664306640625, -167.15,-217.15) ">
<use xlink:href="#Layer1_0_MEMBER_0_MEMBER_0_MEMBER_0_MEMBER_2_FILL"/>
</g>

<g transform="matrix( 1.4501190185546875, 0, 0, 1.4501190185546875, -167.15,-217.15) ">
<use xlink:href="#Layer1_0_MEMBER_1_MEMBER_0_MEMBER_0_FILL"/>
</g>

<g transform="matrix( 1.4501190185546875, 0, 0, 1.4501190185546875, -167.15,-217.15) ">
<use xlink:href="#Layer1_0_MEMBER_1_MEMBER_1_MEMBER_0_FILL"/>
</g>

<g transform="matrix( 1.4502716064453125, 0, 0, 1.4502716064453125, -167.15,-217.15) ">
<use xlink:href="#Layer1_0_MEMBER_1_MEMBER_2_FILL"/>
</g>

<g transform="matrix( 1, 0, 0, 1, 222.25,0) ">
<use xlink:href="#Layer1_0_MEMBER_2_1_STROKES"/>
</g>

<g transform="matrix( -1, 0, 0, -1, 390.3,399.4) ">
<use xlink:href="#Layer1_1_FILL"/>

<use xlink:href="#Layer1_1_1_STROKES" transform="matrix( -1, 0, 0, -1, 390.3,399.4) "/>

<use xlink:href="#Layer1_1_2_STROKES" transform="matrix( -1, 0, 0, -1, 390.3,399.4) "/>
</g>

<g transform="matrix( 1, 0, 0, 1, 0,0) ">
<use xlink:href="#Layer1_2_FILL"/>
</g>

<g transform="matrix( 0.8088226318359375, 0, 0, 0.8088226318359375, -8.7,61.3) ">
<use xlink:href="#Layer1_3_FILL"/>
</g>

<g transform="matrix( 0.7959747314453125, -0.143157958984375, 0.118804931640625, 0.660491943359375, 10.45,178.4) ">
<use xlink:href="#Layer1_3_MEMBER_0_FILL"/>
</g>

<g transform="matrix( 0.7959747314453125, -0.143157958984375, 0.118804931640625, 0.660491943359375, 12.55,189.85) ">
<use xlink:href="#Layer1_3_MEMBER_1_FILL"/>
</g>

<g transform="matrix( 0.7959747314453125, -0.143157958984375, 0.118804931640625, 0.660491943359375, 14.6,201.4) ">
<use xlink:href="#Layer1_3_MEMBER_2_FILL"/>
</g>

<g transform="matrix( 0.7959747314453125, -0.143157958984375, 0.118804931640625, 0.660491943359375, 16.65,212.95) ">
<use xlink:href="#Layer1_3_MEMBER_3_FILL"/>
</g>

<g transform="matrix( 0.7959747314453125, -0.143157958984375, 0.118804931640625, 0.660491943359375, 18.75,224.5) ">
<use xlink:href="#Layer1_3_MEMBER_4_FILL"/>
</g>

<g transform="matrix( 0.7959747314453125, -0.143157958984375, 0.118804931640625, 0.660491943359375, 24.95,258.85) ">
<use xlink:href="#Layer1_3_MEMBER_5_FILL"/>
</g>

<g transform="matrix( 0.7959747314453125, -0.143157958984375, 0.118804931640625, 0.660491943359375, 23,247.95) ">
<use xlink:href="#Layer1_3_MEMBER_6_FILL"/>
</g>

<g transform="matrix( -0.7959747314453125, 0.143157958984375, -0.118804931640625, -0.660491943359375, 256.4,239.7) ">
<use xlink:href="#Layer1_3_MEMBER_7_FILL"/>
</g>

<g transform="matrix( -0.7959747314453125, 0.143157958984375, -0.118804931640625, -0.660491943359375, 254.3,228.2) ">
<use xlink:href="#Layer1_3_MEMBER_8_FILL"/>
</g>

<g transform="matrix( -0.7959747314453125, 0.143157958984375, -0.118804931640625, -0.660491943359375, 252.2,216.65) ">
<use xlink:href="#Layer1_3_MEMBER_9_FILL"/>
</g>

<g transform="matrix( -0.7959747314453125, 0.143157958984375, -0.118804931640625, -0.660491943359375, 250.15,205.1) ">
<use xlink:href="#Layer1_3_MEMBER_10_FILL"/>
</g>

<g transform="matrix( -0.7959747314453125, 0.143157958984375, -0.118804931640625, -0.660491943359375, 248.1,193.6) ">
<use xlink:href="#Layer1_3_MEMBER_11_FILL"/>
</g>

<g transform="matrix( -0.7959747314453125, 0.143157958984375, -0.118804931640625, -0.660491943359375, 241.9,159.2) ">
<use xlink:href="#Layer1_3_MEMBER_12_FILL"/>
</g>

<g transform="matrix( -0.7959747314453125, 0.143157958984375, -0.118804931640625, -0.660491943359375, 243.85,170.15) ">
<use xlink:href="#Layer1_3_MEMBER_13_FILL"/>
</g>

<g transform="matrix( 0.7936859130859375, 0, 0, 0.7936859130859375, 49.15,70.65) ">
<use xlink:href="#Layer1_4_FILL"/>
</g>

<g transform="matrix( 0.412567138671875, 0, 0, 0.4117431640625, 28.35,130.45) ">
<use xlink:href="#Layer1_4_MEMBER_0_MEMBER_0_FILL"/>
</g>

<g transform="matrix( 1, 0, 0, 1, 0,0) ">
<use xlink:href="#Layer0_0_FILL"/>
</g>
</svg>
