
<svg xmlns="http://www.w3.org/2000/svg" version="1.1" xmlns:xlink="http://www.w3.org/1999/xlink" preserveAspectRatio="none" x="0px" y="0px" width="250px" height="390px" viewBox="0 0 250 390">
<defs>
<linearGradient id="Gradient_1" gradientUnits="userSpaceOnUse" x1="18.299999999999983" y1="129.6" x2="269.1" y2="129.6" spreadMethod="pad">
<stop  offset="0%" stop-color="#FAC496"/>

<stop  offset="24.313725490196077%" stop-color="#F4D7B7"/>

<stop  offset="63.92156862745098%" stop-color="#ECF4E8"/>

<stop  offset="83.52941176470588%" stop-color="#E9FFFB"/>
</linearGradient>

<g id="Layer0_0_MEMBER_3_FILL">
<path fill="url(#Gradient_1)" stroke="none" d="
M 269.1 129.6
Q 269.1 77.65 232.35 40.9 195.65 4.2 143.7 4.2 91.75 4.2 55 40.9 18.3 77.65 18.3 129.6 18.3 181.55 55 218.25 91.75 255 143.7 255 195.65 255 232.35 218.25 269.1 181.55 269.1 129.6 Z"/>
</g>

<g id="Layer0_0_MEMBER_5_FILL">
<path fill="url(#Gradient_1)" stroke="none" d="
M 269.1 129.6
Q 269.1 77.65 232.35 40.9 195.65 4.2 143.7 4.2 91.75 4.2 55 40.9 18.3 77.65 18.3 129.6 18.3 181.55 55 218.25 91.75 255 143.7 255 195.65 255 232.35 218.25 269.1 181.55 269.1 129.6 Z"/>
</g>

<g id="Layer0_1_FILL">
<path fill="#242323" stroke="none" d="
M 53.35 36.2
Q 54.4 36.45 55.25 36.65 55 37.1 54.95 37.65 54.95 38.05 55.05 38.2 55.25 38.45 55.65 38.55 57.1 39.05 58.55 39.1 60.75 39.2 61.6 38.05 62.05 37.35 61.95 35.6 61.95 35.15 61.8 34.95
L 61.25 34.55
Q 60.3 33.9 60.15 33.8 59.55 33.45 58.2 33.55 57.2 33.65 56.95 33.85 56.75 33.95 56.65 34.2 56.45 33.9 56.2 33.75 53.55 32.3 50.4 31.95 47.3 31.6 44.35 32.4 43.45 32.65 42.6 33.05 40.65 33.85 38.95 35.2 36.5 37.15 35 39.8 34.85 40.05 33.2 43.5 33.1 43.7 33 43.95 30.05 48.9 28.15 54.1 22.75 68.75 20.15 82.6
L 20 83.25
Q 18 83.45 17.65 85.35 17.65 85.4 17.7 85.5 17.85 85.45 18.05 85.45 16.5 90.5 15.6 98.75 14.7 106.45 22.3 110.65 22.7 111 22.9 111.2 21.75 113.65 20.7 116.95 19.1 120.2 18.25 123.45 17.55 126.6 17.45 129.75 17.4 132.8 17.85 136 18.55 141 21.65 144.9 25.1 149.25 30 151.9 35.55 154.8 41.75 154.45 47.95 153.8 53.9 152 53.9 152.05 53.95 152.15 54.15 152.5 55.3 152.95
L 57 153.8
Q 57.45 154 58.95 154.1 64.2 156.25 70 156.75 73.3 157.15 77.1 157.35 81.75 157.55 90.55 157.35 92.55 157.35 93.9 157.1 93.9 157.25 93.95 157.35 94.3 158.4 96 159.5
L 96.85 160.05
Q 97.2486328125 160.41875 97.65 160.75 102.639453125 164.76171875 108.1 161.8 110.1443359375 160.760546875 111.3 159.05 111.8123046875 158.325 112.15 157.45 114.9546875 150.2998046875 111.3 146.45 109.0259765625 144.093359375 104.25 143 103.1 142.85 102 143 99.4822265625 143.2591796875 97.65 144.5 97.0078125 144.9421875 96.45 145.5 95.4 146.55 94.45 148.2 93.85 149.2 93.8 149.8 93.75 150.3 93.9 151.3 93.9 152.15 93.95 152.3
L 93.95 152.7
Q 93.45 152.55 92.85 152.55 92.35 152.55 90.85 152.7 87.8 153.1 82.5 152.9 77.65 152.75 74.1 152.5 73.1 152.4 72.15 152.3 65.85 151.75 59.7 149.75 64.1 147.9 67.85 144.7 69.7 143.15 71.45 141.5 75.25 138.1 77.4 133.55 79.6 128.75 79.05 123.1 77.5 107.55 62.5 104.1 60.75 103.8 58.8 103.75 55.5 103.65 52.65 104.15
L 48.5 105.3 49.85 100.85 65.75 82.85
Q 67.7 80.95 69.55 79 74.5 73.8 78.65 68 87.6 55.45 77.4 44.75 76.9 44.4 76.35 44.1 74.55 43.1 73.05 43.2 73 43.1 73 43.05 72.9 42.65 72.3 42.05 71.7 41.45 71.15 41.2
L 70.05 41.05
Q 68.85 41.05 68.25 41.2 67.6 41.35 67.2 41.85 66.75 42.55 66.9 43.65 67.2 44.4 67.25 44.45 67.55 44.9 68.45 45.2
L 69.9 45.8
Q 70.7 46.15 71.25 46.1 72.65 46.45 73.85 47.2 79.1 51.2 77.1 57.65 73.65 68.9 65.1 77.1
L 46 98.7 44.2 99.8 43.6 100.6
Q 40.15 101.85 35.35 101.55 33.9 101.45 32.75 101.2 29.75 100.45 27.65 98.1 26.45 96.75 25.1 93.85
L 23.1 89.45
Q 23 89.1 22.8 88.95 23.05 88.1 23.3 87.25
L 24.2 87.1
Q 24.2 86.75 24.15 86.45 23.95 84.65 22.6 83.85 22.65 83.8 22.75 83.8
L 23.05 83.75
Q 23.15 83.65 23.15 83.35 23.55 82.1 23.5 81.5
L 23.3 81
Q 23.05 80.45 23.05 80.1 23.15 79.8 23.3 79.45 23.4 79.3 23.6 79.1
L 23.45 78.95
Q 23.55 78.7 23.6 78.45 24.55 75.2 25.7 71.9 29.55 60.8 33.8 49.85 34.6 47.8 35.3 45.65 37.85 38.1 45.25 35.55 47.5 35.05 49.8 35.35 50.9 35.5 53.35 36.2
M 56.9 34.75
Q 56.923046875 34.7376953125 56.95 34.7 57.6884765625 34.3607421875 58.9 34.7 59.7 34.85 60.2 35.2 60.8 35.65 60.9 36.35 60.9 37.4 59.8 37.75 59.1 38.05 57.9 37.85 56.95 37.75 56.5 37.55 56.25 37.45 56.2 37.3 56.15 37.1 56.3 36.9 56.65 36.9 56.9 36.95 57.1 36.9 57 36.6 56.9 36.35 56.65 36.25 56.6 36.2 56.55 36.2 56.45 35.85 56.2 35.85 56.05 35.8 55.9 35.9 51.35 33.85 47.15 34.1 45.65 34.2 44.35 34.55 39.1 36.2 36.45 41 33.3 46.75 31.2 52.85 29.95 56.5 28.45 60.1 24.05 70.55 21.1 81.35 20.95 81.3 20.8 81.25 22.45 76.45 24.35 69.4 26.75 60.35 34.4 43.95
L 35.1 42.5
Q 37.05 38.7 38.4 37.3 40 35.65 42.5 34.55 43.15 34.25 43.8 34 46.7 32.9 49.75 32.95 53.75 33 56.65 35.05 56.9 34.95 56.9 34.75
M 67.9 42.9
Q 68.3 42.5 68.75 42.35 69.05 42.25 69.7 42.25 70.3 42.15 70.75 42.3 71.55 42.55 71.85 43.5 71.75 43.55 71.65 43.6 71.75 43.6 71.9 43.65 71.95 43.75 71.95 43.85 72.1 44.45 72.15 44.5 72.2748046875 44.655859375 72.45 44.7 72.568359375 44.71875 72.7 44.7 73.05 44.65 73.2 44.4 73.2 44.15 73.2 43.95 74.5 44.35 75.8 45.2 75.85 45.25 75.95 45.3 84.6 53.05 79.4 62.8 73.9 73.05 65.75 81.25
L 49.05 99.75 46.95 98.8 65.45 78.65
Q 71.8 72.45 76.25 64.9 82.6 54.25 74.55 46.35 73.9 45.95 73.2 45.65 72.84140625 45.4962890625 72.5 45.4 72.192578125 45.3755859375 71.9 45.4 71.55 45.4 71.3 45.55 70.95 45.15 70.25 44.85
L 68.65 44.15
Q 67.75 43.55 67.9 42.9
M 19.05 84.6
Q 19.4 84.55 19.75 84.55 21.85 84.2 22.75 86.25 20.15 95.65 21.65 105.15 21.95 106.95 23.9 107.7 28.4 109.6 32.3 109.45
L 31.4 109.65
Q 30.65 110 30.25 110.1 29.5 110.15 29.1 110.2 28.55 110.25 27.45 110.55 27.05 110.7 27.2 110.85 28.45 111 29.9 110.75
L 31.5 110.35 34.9 109.1
Q 38.45 108.3 41.5 105.65
L 45.95 100.3 48.5 100.35 48.45 101.2
Q 48.6 101.3 48.85 101.3 48.95 101.4 49.05 101.5 49.1 101.55 49.1 101.75
L 45.3 106.35
Q 37.65 113.8 26.3 112.75
L 26 113.45 27.3 113.7
Q 25.5 116 24.3 118.5 23.6 119.9 23.05 121.35 22.5 123.5 21.95 125.75 20.6 131.1 22.1 136.5 23.55 141.75 27.5 145.3 29.9 147.5 33.05 148.6 38.15 150.35 43.7 149.95 46.45 150.1 49.15 149.1 53.8 147.2 58.2 144.7 60.25 143.5 62.2 142.2 65.1 140.45 67.15 138 68.5 136.3 69.75 134.45 73.1 129.6 73.65 123.9 73.95 119.5 71.55 116.15 67.5 110.35 61.15 108.9 59.85 108.6 58.65 108.5 45.6 106.75 41.6 118.7 39.2 126.25 40.55 132.55 41.55 136.8 44 140.5 46.8 144.55 50.7 147.35
L 48.15 147.9
Q 46.6 146.55 45.1 145.25 41 141.75 38.7 136.85 35.05 128.65 39.35 118.45 39.35 118.3 39.4 118.2 41.05 113 43 110.65 43.35 110.25 43.7 109.9 44.8 109.05 45.9 108.05 48.15 106.5 51.15 105.75 55.3 104.7 60.8 105.3 61 105.3 61.2 105.35 65.95 105.7 69.65 108.6 81.35 117.7 76.75 129.95 74.55 135.5 70.7 139.95 67.35 143.9 62.8 146.55 58.05 149.45 52.85 150.9 47.65 152.45 42.25 152.8 36.7 153.15 31.55 151.2 26.45 149.2 23.55 144.6 20.4 139.7 19.4 133.8 18.45 128.05 19.95 122.45 20.65 119.9 21.85 117.3 21.95 116.65 22.05 116.25 22.35 114.9 22.8 114.05 23 113.7 23.2 113.4 23.2 113.55 23.25 113.65
L 23.6 113.65
Q 23.75 113.1 23.75 111.9 23.75 110.95 23.35 110.6 22.8 110.35 22.6 110.15 22.35 109.5 22.1 109.3
L 21.65 109
Q 21.3 108.45 21.1 108.2 20.8 107.65 20.1 107.6 14.65 96.95 19.05 84.6
M 20.2 83.25
L 20.1 83.25 20.35 82.6
Q 20.398828125 82.5021484375 20.4 82.45
L 20.4 82.6
Q 20.35 82.85 20.2 83.25
M 21.9 83.5
L 21.95 83.45
Q 21.95 83.4984375 22 83.55 21.9484375 83.5 21.9 83.5
M 23.25 91.3
Q 23.45 91.7 23.5 92.6 23.6 92.8 24.05 93.5
L 25.15 96.05
Q 25.45 96.7 26.25 97.8 27.55 99.5 29.05 100.6 30.6 101.75 32.45 102.15 33.7 102.4 35.35 102.5 39.5 102.7 41.55 102.25 42 102.15 42.4 102.05
L 41.7 102.9
Q 40.85 102.8 39.05 102.95 38.3 103.05 36.7 103.05 35.15 103.1 34.35 103.15 34.2 103.15 34.05 103.25 33.95 103.35 34 103.45 37.85 103.8 41.45 103.2
L 40.5 104.4
Q 40.15 104.4 39.75 104.45 37.65 104.7 34.2 104.5
L 32.7 104.4
Q 30.05 104.05 26.75 100.95 25.1 99.4 23.9 98.05 23.2 97.25 23 96.75 22.75 95.9 22.5 95.6 22 95.1 21.95 95 21.9 94.9 21.9 94.75 21.9 94.65 21.9 94.5 22.05 92.25 22.6 89.9 22.6 90 22.6 90.1 22.7 90.55 23.25 91.3
M 22.15 96.35
Q 22.25 96.55 22.25 97 22.4 97.55 22.8 98.05 23.1 98.45 24.3 99.8
L 25.75 101.35
Q 27.4 103 29.2 104.15 30.3 104.85 30.9 105.05 32.3 105.55 34.75 105.55
L 36.55 105.55
Q 38.35 105.55 39.6 105.35 34.35 109.4 26.65 107.75 24.7 107.45 23.95 105.8 21.85 101.15 21.85 96 22 96.15 22.15 96.35
M 70.1 115.55
Q 72.9 118.6 72.5 123.4 72.4 124.3 72.2 125.2 70.6 133.05 64.9 138.7 62.3 141.25 59.35 143 55.6 145.1 51.55 146.25 47.9 143.85 45.4 140.25 42.45 136.05 41.45 131.05 40.45 125.4 42.3 118.9 45.7 108.65 58.35 108.95 58.8 108.95 59.3 109 65.2 110.25 70.1 115.55
M 24.35 121.15
Q 24.65 120.1 25.05 119.1 26.05 116.4 27.65 113.75
L 30.65 114
Q 36 114.15 40.6 111.8 39.55 113.45 38.75 115.5 38.2 116.9 37.7 118.65 37.1 121.5 36.5 124.4 34.75 132.75 38 139.15 38.75 140.4 39.6 141.6 42.35 145.45 46.35 148.2 43.5 148.4 40.65 148.6 35.75 148.7 31.2 146.5 29.55 145.8 28.25 144.5 27.4 143.7 26.8 142.7 23.85 138 23.25 132.5 22.65 126.65 24.35 121.15
M 78.8 155.9
Q 74.95 155.8 71.45 155.45 68.3 154.95 65.15 154.5 61.85 153.95 58.95 152.65 58.95 152.6 58.95 152.55 59.05 150.9 58.6 150.3 60.6 151.05 62.65 151.7 67.8 153.35 73.15 153.65 75.3 153.8 77.9 153.95 82.4 154.2 85.9 154.25 85.85 154.6 85.85 155.05
L 85.85 155.9
Q 81.55 156 78.8 155.9
M 96.55 147.15
Q 97.0859375 146.5375 97.65 146.05 98.927734375 144.981640625 100.35 144.6 100.95 144.45 102.15 144.35 102.25 144.35 102.4 144.35 107 143.9 110.45 147.35 110.946484375 147.846484375 111.3 148.35 112.6203125 150.38671875 111.95 152.95 111.6515625 154.0873046875 111.3 155.05 107.5236328125 165.6951171875 97.65 158.95 97.0609375 158.56328125 96.45 158.1
L 95.1 157.1 95.25 156.95 95.5 156.55 95.5 156.4 95.6 156.25 95.65 156.1 95.75 155.65 95.7 154.7 95.65 154.45 95.55 154.15 95.4 153.95
Q 95.25 153.7 94.95 153.45 94.65 153.25 94.6 153.1 94.6 153.05 94.65 153 94.6 152.95 94.55 152.95
L 94.55 152.75
Q 94.6 152.75 94.7 152.7 94.45 151.1 94.95 149.75 95.35 148.55 96.55 147.15
M 93.75 154.15
L 93.9 154.35
Q 94.25 154.85 94.25 155.55
L 94.25 155.7
Q 92.5 155.75 90.9 155.8
L 90.95 155.45 90.95 154.7
Q 90.95 154.4 90.85 154.15
L 90.9 154.15
Q 92.65 154 93.7 153.6 93.65 153.7 93.7 153.8
L 93.75 154.15
M 86.55 154.35
Q 86.55 154.3 86.55 154.25 88.3 154.25 89.75 154.2 89.75 154.25 89.75 154.35
L 89.75 155.6
Q 89.75 155.75 89.8 155.85 88.1 155.85 86.6 155.9 86.55 155.75 86.55 155.6 86.55 154.8 86.55 154.35
M 97.75 151.15
L 97.6 151.35 97.6 152.25 97.65 152.25 97.85 152.4 98.15 152.25 98.15 151.65
Q 98.15 151.35 98.35 151.15
L 98.15 150.9
Q 98.1 151 97.9 151
L 97.75 151.15
M 100.4 146.9
Q 100.5927734375 146.966796875 100.8 147 101.9298828125 147.35 103.25 147.35 104.95 147.35 106.5 148.15 108.7 149.4 109.15 151.7 109.55 153.7 109.75 155.55
L 109.65 155.6 108.55 156.85
Q 108.65 155.3 108.35 153.55 107.85 150.9 105.55 149.45 104.85 148.95 104.05 148.75 101.510546875 148.1150390625 98.75 148.45 98.715234375 148.490625 98.65 148.5
L 98.5 149.45
Q 98.691015625 149.426171875 98.85 149.4 99.091015625 149.376171875 99.3 149.35 101.45 148.8 103.25 149.65 103.95 149.9 104.65 150.25 107.25 151.9 107.8 155.05 107.65 155.45 107.4 155.75 106.6 156.95 105.7 157.8 104 159.4 101.7 159.05 101 158.8 100.5 158.4 98.5994140625 156.9970703125 97.65 154.95 97.6658203125 154.911328125 97.65 154.85 97.57109375 154.6857421875 97.5 154.5
L 96.95 154.3
Q 97.15 155.95 97.6 157.4 97.62421875 157.476171875 97.65 157.55 98.3224609375 159.4796875 100.2 160.25 102.95 161.2 105.7 160.2 106.6 159.85 107.15 159.4 108.53046875 158.17734375 109.7 156.8 110.004296875 156.46953125 110.3 156.1 110.25 154 109.9 152 109.6 150 108.25 148.75 106.8 147.4 104.8 147.05 102.7 146.55 100.4 146.9
M 61.65 145.85
L 61.5 145.6
Q 60.6 146.3 58.3 147.15
L 52.25 149.1
Q 51 149.4 47.5 149.75 45.25 149.95 40.75 150.55
L 37.05 151.1
Q 36.6 151.25 36.75 151.45
L 40.55 151.2
Q 40.65 151.2 42.25 150.9 43.65 150.65 48.05 150.25 51.7 149.95 53.8 149.25
L 58.9 147.35
Q 60.9 146.5 61.65 145.85
M 75.2 121.05
Q 75.05 120.95 74.95 121.15
L 75 124.6
Q 75 126 74.8 126.65 74.65 127.25 74.2 128.35 74.05 128.8 73.8 129.8 73.6 130.45 72.95 131.55 72.75 132 72.45 132.95 72.15 133.85 71.9 134.3 71.5 135.1 70.55 136.15 69 137.95 68.7 138.35
L 67.6 139.95
Q 67.1 140.75 66.2 141.7 66.9 141.5 67.55 140.75 67.7 140.55 68.55 139.35 69.45 138.05 70.7 136.7 71.65 135.75 72 135.15 72.4 134.55 72.8 133.45 73.3 132 73.5 131.65 74.1 130.55 74.25 130.2
L 74.65 128.6
Q 75.05 127.6 75.15 127.1 75.35 126.45 75.35 125.1
L 75.2 121.05 Z"/>

<path fill="#E5E5E5" stroke="none" d="
M 86.55 154.25
Q 86.55 154.3 86.55 154.35 86.55 154.8 86.55 155.6 86.55 155.75 86.6 155.9 88.1 155.85 89.8 155.85 89.75 155.75 89.75 155.6
L 89.75 154.35
Q 89.75 154.25 89.75 154.2 88.3 154.25 86.55 154.25
M 106.25 154.6
Q 106.2 154.55 105.9 154.55
L 104.8 154.9
Q 103.95 155.15 103.2 155.2
L 101.85 155.35
Q 100.55 155.45 99.95 155.35 99.55 155.25 99.45 155.4
L 99.4 155.65
Q 99.4 155.9 99.55 156.05
L 100.05 156.55
Q 100.45 156.95 100.7 157.05 100.95 157.2 101.85 157.3 102.7 157.3 103.15 157.2 103.55 157.15 103.9 156.9
L 105.05 156.35 105.65 155.9 106.3 155.2 106.4 154.9
Q 106.4 154.7 106.25 154.6 Z"/>

<path fill="#576570" stroke="none" d="
M 93.9 154.35
L 93.75 154.15 93.7 153.8
Q 93.65 153.7 93.7 153.6 92.65 154 90.9 154.15
L 90.85 154.15
Q 90.95 154.4 90.95 154.7
L 90.95 155.45 90.9 155.8
Q 92.5 155.75 94.25 155.7
L 94.25 155.55
Q 94.25 154.85 93.9 154.35
M 71.45 155.45
Q 74.95 155.8 78.8 155.9 81.55 156 85.85 155.9
L 85.85 155.05
Q 85.85 154.6 85.9 154.25 82.4 154.2 77.9 153.95 75.3 153.8 73.15 153.65 67.8 153.35 62.65 151.7 60.6 151.05 58.6 150.3 59.05 150.9 58.95 152.55 58.95 152.6 58.95 152.65 61.85 153.95 65.15 154.5 68.3 154.95 71.45 155.45
M 19.75 84.55
Q 19.4 84.55 19.05 84.6 14.65 96.95 20.1 107.6 20.8 107.65 21.1 108.2 21.3 108.45 21.65 109
L 22.1 109.3
Q 22.35 109.5 22.6 110.15 22.8 110.35 23.35 110.6 23.75 110.95 23.75 111.9 23.75 113.1 23.6 113.65
L 23.25 113.65
Q 23.2 113.55 23.2 113.4 23 113.7 22.8 114.05 22.35 114.9 22.05 116.25 21.95 116.65 21.85 117.3 20.65 119.9 19.95 122.45 18.45 128.05 19.4 133.8 20.4 139.7 23.55 144.6 26.45 149.2 31.55 151.2 36.7 153.15 42.25 152.8 47.65 152.45 52.85 150.9 58.05 149.45 62.8 146.55 67.35 143.9 70.7 139.95 74.55 135.5 76.75 129.95 81.35 117.7 69.65 108.6 65.95 105.7 61.2 105.35 61 105.3 60.8 105.3 55.3 104.7 51.15 105.75 48.15 106.5 45.9 108.05 44.8 109.05 43.7 109.9 43.35 110.25 43 110.65 41.05 113 39.4 118.2 39.35 118.3 39.35 118.45 35.05 128.65 38.7 136.85 41 141.75 45.1 145.25 46.6 146.55 48.15 147.9
L 50.7 147.35
Q 46.8 144.55 44 140.5 41.55 136.8 40.55 132.55 39.2 126.25 41.6 118.7 45.6 106.75 58.65 108.5 59.85 108.6 61.15 108.9 67.5 110.35 71.55 116.15 73.95 119.5 73.65 123.9 73.1 129.6 69.75 134.45 68.5 136.3 67.15 138 65.1 140.45 62.2 142.2 60.25 143.5 58.2 144.7 53.8 147.2 49.15 149.1 46.45 150.1 43.7 149.95 38.15 150.35 33.05 148.6 29.9 147.5 27.5 145.3 23.55 141.75 22.1 136.5 20.6 131.1 21.95 125.75 22.5 123.5 23.05 121.35 23.6 119.9 24.3 118.5 25.5 116 27.3 113.7
L 26 113.45 26.3 112.75
Q 37.65 113.8 45.3 106.35
L 49.1 101.75
Q 49.1 101.55 49.05 101.5 48.95 101.4 48.85 101.3 48.6 101.3 48.45 101.2
L 48.5 100.35 45.95 100.3 41.5 105.65
Q 38.45 108.3 34.9 109.1
L 31.5 110.35 29.9 110.75
Q 28.45 111 27.2 110.85 27.05 110.7 27.45 110.55 28.55 110.25 29.1 110.2 29.5 110.15 30.25 110.1 30.65 110 31.4 109.65
L 32.3 109.45
Q 28.4 109.6 23.9 107.7 21.95 106.95 21.65 105.15 20.15 95.65 22.75 86.25 21.85 84.2 19.75 84.55
M 74.95 121.15
Q 75.05 120.95 75.2 121.05
L 75.35 125.1
Q 75.35 126.45 75.15 127.1 75.05 127.6 74.65 128.6
L 74.25 130.2
Q 74.1 130.55 73.5 131.65 73.3 132 72.8 133.45 72.4 134.55 72 135.15 71.65 135.75 70.7 136.7 69.45 138.05 68.55 139.35 67.7 140.55 67.55 140.75 66.9 141.5 66.2 141.7 67.1 140.75 67.6 139.95
L 68.7 138.35
Q 69 137.95 70.55 136.15 71.5 135.1 71.9 134.3 72.15 133.85 72.45 132.95 72.75 132 72.95 131.55 73.6 130.45 73.8 129.8 74.05 128.8 74.2 128.35 74.65 127.25 74.8 126.65 75 126 75 124.6
L 74.95 121.15
M 61.5 145.6
L 61.65 145.85
Q 60.9 146.5 58.9 147.35
L 53.8 149.25
Q 51.7 149.95 48.05 150.25 43.65 150.65 42.25 150.9 40.65 151.2 40.55 151.2
L 36.75 151.45
Q 36.6 151.25 37.05 151.1
L 40.75 150.55
Q 45.25 149.95 47.5 149.75 51 149.4 52.25 149.1
L 58.3 147.15
Q 60.6 146.3 61.5 145.6 Z"/>

<path fill="#D4D4D4" stroke="none" d="
M 97.65 146.05
Q 97.0859375 146.5375 96.55 147.15 95.35 148.55 94.95 149.75 94.45 151.1 94.7 152.7 94.6 152.75 94.55 152.75
L 94.55 152.95
Q 94.6 152.95 94.65 153 94.6 153.05 94.6 153.1 94.65 153.25 94.95 153.45 95.25 153.7 95.4 153.95
L 95.55 154.15 95.65 154.45 95.7 154.7 95.75 155.65 95.65 156.1 95.6 156.25 95.5 156.4 95.5 156.55 95.25 156.95 95.1 157.1 96.45 158.1
Q 97.0609375 158.56328125 97.65 158.95 107.5236328125 165.6951171875 111.3 155.05 111.6515625 154.0873046875 111.95 152.95 112.6203125 150.38671875 111.3 148.35 110.946484375 147.846484375 110.45 147.35 107 143.9 102.4 144.35 102.25 144.35 102.15 144.35 100.95 144.45 100.35 144.6 98.927734375 144.981640625 97.65 146.05
M 98.75 148.35
Q 99.375 147.9763671875 100.25 147.75 101.75 147.4 103.25 147.5 106.95 147.5 108.7 151.3 109.6833984375 153.5423828125 109.65 155.6
L 109.75 155.55
Q 109.55 153.7 109.15 151.7 108.7 149.4 106.5 148.15 104.95 147.35 103.25 147.35 101.9298828125 147.35 100.8 147 100.5927734375 146.966796875 100.4 146.9 102.7 146.55 104.8 147.05 106.8 147.4 108.25 148.75 109.6 150 109.9 152 110.25 154 110.3 156.1 110.004296875 156.46953125 109.7 156.8 108.53046875 158.17734375 107.15 159.4 106.6 159.85 105.7 160.2 102.95 161.2 100.2 160.25 98.3224609375 159.4796875 97.65 157.55 97.62421875 157.476171875 97.6 157.4 97.15 155.95 96.95 154.3
L 97.5 154.5
Q 97.57109375 154.6857421875 97.65 154.85 97.6658203125 154.911328125 97.65 154.95 98.5994140625 156.9970703125 100.5 158.4 101 158.8 101.7 159.05 104 159.4 105.7 157.8 106.6 156.95 107.4 155.75 107.65 155.45 107.8 155.05 107.25 151.9 104.65 150.25 103.95 149.9 103.25 149.65 101.45 148.8 99.3 149.35 99.091015625 149.376171875 98.85 149.4 98.691015625 149.426171875 98.5 149.45
L 98.65 148.5
Q 98.715234375 148.490625 98.75 148.45 98.77734375 148.429296875 98.75 148.35
M 105.9 154.55
Q 106.2 154.55 106.25 154.6 106.4 154.7 106.4 154.9
L 106.3 155.2 105.65 155.9 105.05 156.35 103.9 156.9
Q 103.55 157.15 103.15 157.2 102.7 157.3 101.85 157.3 100.95 157.2 100.7 157.05 100.45 156.95 100.05 156.55
L 99.55 156.05
Q 99.4 155.9 99.4 155.65
L 99.45 155.4
Q 99.55 155.25 99.95 155.35 100.55 155.45 101.85 155.35
L 103.2 155.2
Q 103.95 155.15 104.8 154.9
L 105.9 154.55
M 97.6 151.35
L 97.75 151.15 97.9 151
Q 98.1 151 98.15 150.9
L 98.35 151.15
Q 98.15 151.35 98.15 151.65
L 98.15 152.25 97.85 152.4 97.65 152.25 97.6 152.25 97.6 151.35
M 72.7 44.7
Q 72.568359375 44.71875 72.45 44.7 72.472265625 45.12421875 72.5 45.4 72.84140625 45.4962890625 73.2 45.65 73.9 45.95 74.55 46.35 82.6 54.25 76.25 64.9 71.8 72.45 65.45 78.65
L 46.95 98.8 49.05 99.75 65.75 81.25
Q 73.9 73.05 79.4 62.8 84.6 53.05 75.95 45.3 75.85 45.25 75.8 45.2 74.5 44.35 73.2 43.95 73.2 44.15 73.2 44.4 73.05 44.65 72.7 44.7
M 56.95 34.7
Q 56.923046875 34.7376953125 56.9 34.75 56.9 34.95 56.65 35.05 53.75 33 49.75 32.95 46.7 32.9 43.8 34 43.15 34.25 42.5 34.55 40 35.65 38.4 37.3 37.05 38.7 35.1 42.5
L 34.4 43.95
Q 26.75 60.35 24.35 69.4 22.45 76.45 20.8 81.25 20.95 81.3 21.1 81.35 24.05 70.55 28.45 60.1 29.95 56.5 31.2 52.85 33.3 46.75 36.45 41 39.1 36.2 44.35 34.55 45.65 34.2 47.15 34.1 51.35 33.85 55.9 35.9 56.05 35.8 56.2 35.85 56.899609375 35.25703125 56.95 34.7 Z"/>

<path fill="#5A9DFF" stroke="none" d="
M 100.25 147.75
Q 99.375 147.9763671875 98.75 148.35 98.77734375 148.429296875 98.75 148.45 101.510546875 148.1150390625 104.05 148.75 104.85 148.95 105.55 149.45 107.85 150.9 108.35 153.55 108.65 155.3 108.55 156.85
L 109.65 155.6
Q 109.6833984375 153.5423828125 108.7 151.3 106.95 147.5 103.25 147.5 101.75 147.4 100.25 147.75 Z"/>

<path fill="#647E7B" stroke="none" d="
M 23.5 92.6
Q 23.45 91.7 23.25 91.3 22.7 90.55 22.6 90.1 22.6 90 22.6 89.9 22.05 92.25 21.9 94.5 21.9 94.65 21.9 94.75 21.9 94.9 21.95 95 22 95.1 22.5 95.6 22.75 95.9 23 96.75 23.2 97.25 23.9 98.05 25.1 99.4 26.75 100.95 30.05 104.05 32.7 104.4
L 34.2 104.5
Q 37.65 104.7 39.75 104.45 40.15 104.4 40.5 104.4
L 41.45 103.2
Q 37.85 103.8 34 103.45 33.95 103.35 34.05 103.25 34.2 103.15 34.35 103.15 35.15 103.1 36.7 103.05 38.3 103.05 39.05 102.95 40.85 102.8 41.7 102.9
L 42.4 102.05
Q 42 102.15 41.55 102.25 39.5 102.7 35.35 102.5 33.7 102.4 32.45 102.15 30.6 101.75 29.05 100.6 27.55 99.5 26.25 97.8 25.45 96.7 25.15 96.05
L 24.05 93.5
Q 23.6 92.8 23.5 92.6 Z"/>

<path fill="#FFFFFF" stroke="none" d="
M 21.95 83.45
L 21.9 83.5
Q 21.9484375 83.5 22 83.55 21.95 83.4984375 21.95 83.45
M 20.1 83.25
L 20.2 83.25
Q 20.35 82.85 20.4 82.6
L 20.4 82.45
Q 20.398828125 82.5021484375 20.35 82.6
L 20.1 83.25
M 68.75 42.35
Q 68.3 42.5 67.9 42.9 67.75 43.55 68.65 44.15
L 70.25 44.85
Q 70.95 45.15 71.3 45.55 71.55 45.4 71.9 45.4 72.192578125 45.3755859375 72.5 45.4 72.472265625 45.12421875 72.45 44.7 72.2748046875 44.655859375 72.15 44.5 72.1 44.45 71.95 43.85 71.95 43.75 71.9 43.65 71.75 43.6 71.65 43.6 71.75 43.55 71.85 43.5 71.55 42.55 70.75 42.3 70.3 42.15 69.7 42.25 69.05 42.25 68.75 42.35
M 56.55 36.2
Q 56.6 36.2 56.65 36.25 56.9 36.35 57 36.6 57.1 36.9 56.9 36.95 56.65 36.9 56.3 36.9 56.15 37.1 56.2 37.3 56.25 37.45 56.5 37.55 56.95 37.75 57.9 37.85 59.1 38.05 59.8 37.75 60.9 37.4 60.9 36.35 60.8 35.65 60.2 35.2 59.7 34.85 58.9 34.7 57.6884765625 34.3607421875 56.95 34.7 56.899609375 35.25703125 56.2 35.85 56.45 35.85 56.55 36.2 Z"/>
</g>

<g id="Layer0_1_MEMBER_0_FILL">
<path fill="#B1B1B1" stroke="none" d="
M 69.95 109.5
Q 69.2 108.9 68.15 108.4 67.7 108.1 66.3 107.55 63.8 106.5 60.95 106.6 60.35 106.6 60.4 106.95 60.4 107.15 60.75 107.25 61.25 107.4 62.65 107.7 63.85 107.95 64.5 108.15 65.7 108.5 67.3 109.4 68.45 109.95 69.15 110.5 69.8 111 70.5 112 71.75 113.55 72.2 114.85
L 72.8 116.35
Q 73.15 116.8 73.4 116.65 73.65 116.1 73.45 115.1 73.15 113.1 71.1 110.7 70.5 109.95 69.95 109.5 Z"/>
</g>

<g id="Layer0_1_MEMBER_1_FILL">
<path fill="#B1B1B1" stroke="none" d="
M 74.85 118.4
L 74.8 118.3
Q 74.7 118.1 74.3 117.9
L 74.3 117.95 73.7 118.2 73.55 118.3 73.5 118.5 73.55 118.85
Q 73.65 119 73.9 119.1
L 74.1 119.15 74.25 119.15 74.4 119.05 74.6 119 74.75 118.9
Q 74.9 118.65 74.85 118.4 Z"/>
</g>

<g id="Layer0_1_MEMBER_2_FILL">
<path fill="#B1B1B1" stroke="none" d="
M 22.6 117.05
L 22.4 117.15
Q 22.35 117.5 21.95 118.1
L 21.85 118.7
Q 21.8 118.95 21.45 119.8 21.45 119.85 21 121.7 20.95 122.2 20.65 123.2
L 20 125.4
Q 19.7 126.8 19.9 128.1
L 20 128.35
Q 20.2 128.45 20.3 128.25
L 20.4 127.95
Q 20.45 127.35 21.05 125
L 21.6 123
Q 21.9 121.6 21.9 121.4
L 22 120.85
Q 22.05 120.7 22.3 119.85 22.55 119.1 22.55 118.95
L 22.55 117.95
Q 22.55 117.65 22.75 117.15
L 22.6 117.05 Z"/>
</g>

<g id="Layer0_1_MEMBER_3_FILL">
<path fill="#B1B1B1" stroke="none" d="
M 19.7 130.7
Q 19.8 130.85 19.95 130.85
L 20.25 130.8 20.4 130.75 20.5 130.65
Q 20.6 130.4 20.5 130.25 20.4 130 20.15 130
L 19.7 130.1
Q 19.55 130.25 19.55 130.3
L 19.55 130.45
Q 19.65 130.7 19.7 130.7 Z"/>
</g>

<g id="Layer0_2_FILL">
<path fill="#242323" stroke="none" d="
M 191.2 271.65
Q 190.7 271.7 190.35 271.95 189.95 272.3 189.85 273.2 189.7548828125 273.9392578125 189.65 274.65 189.2439453125 279.0259765625 189.5 283.55 189.6 285.25 190.15 285.95 190.4 286.35 190.8 286.55 191.4 286.9 192.2 286.6 192.9 286.35 193.35 285.7 194 284.85 194.1 282.85 194.15 282.1 194.15 279.25 194.1421875 278.8958984375 194.15 278.55 194.1392578125 276.7875 194.35 275.65 194.65 274.45 194.65 273.8 194.55 272.6 193.85 272.15 193.45 271.85 192.15 271.75 191.5 271.65 191.2 271.65
M 193.2 273
Q 193.55 273.4 193.35 274.55 193.0740234375 276.171484375 193 277.55 192.9845703125 278.2109375 193 278.8 193 279.8 193.05 281.75 193.05 283.45 192.6 284.6 192.4 285.25 191.95 285.35 191.4 285.55 191.05 285 190.8 284.7 190.7 284.05 190.55 283.2 190.55 281.4
L 190.5 277.45
Q 190.5 276.211328125 190.6 275.45 190.619921875 275.3005859375 190.65 275.15 190.85 274.25 190.85 273.8 190.85 273.1 190.9 272.95 191.1 272.3 192 272.4 192.35 272.5 193.2 273
M 198.25 258.4
Q 197.3 257.45 194.9 257.95 193.4634765625 258.22421875 192.15 258.55 188.47265625 259.5876953125 185.85 261.25 184.65 262.05 184.3 262.85 184 263.55 184.1 264.8 184.1 265.6 184.4 265.85 184.7 266.2 185.45 266.2 189.85 266.35 195.45 263.75 197.55 262.8 198.35 261.65 198.85 260.9 198.85 259.95 198.85 259 198.25 258.4
M 193.8 259.85
Q 195.8 259.35 196.8 259.25 197.45 260.2 197.2 260.75 197.1 261 196.4 261.45 193.8369140625 262.8958984375 191.4 263.7 188.315625 264.728125 185.45 264.7
L 185.45 263.45
Q 187 262.1 189.4 261.15 190.1033203125 260.883203125 191.15 260.55 192.2810546875 260.2361328125 193.8 259.85
M 196.45 259.75
L 196.35 259.4
Q 193.3994140625 260.563671875 190.65 261.55 190.0986328125 261.755859375 189.55 261.95 189.15 262.05 189 262.35 189.75 262.35 190.3 262.15
L 190.4 262.1 196.45 259.75
M 190.3 241.1
Q 189.35 240.7 187.95 240.65 186.35 240.7 185.55 240.65 183.5 240.65 182.85 241.35 182.6 241.65 182.25 242.65 181.85 244.05 182.05 244.75 182.15 245.1 182.7 245.9 185.2 249 188.7 251.1 190.65 252.2 192 252.55 193.15 252.8 196.15 252.8 197.35 252.7 197.65 252.45 198.25 252 198.45 250.95 198.532421875 250.3064453125 198.45 249.7 198.3865234375 248.521484375 197.75 247.55 197.2 246.6 195.55 245.15
L 192.95 242.95
Q 191.3 241.5 190.3 241.1
M 184.95 242.1
Q 185.1421875 242.063671875 185.3 242 186.9767578125 241.7552734375 188.5 241.8 188.8 241.85 189.45 241.95 189.75 242.1 190.25 242.6 191.95 244.3 194.1 246.05 195.5 247.15 196.05 247.85 196.9056640625 248.8857421875 196.95 249.9 196.9548828125 250.0357421875 196.95 250.15 196.95 250.65 196.6 250.95 196.45 251.05 196.1 251.05 193.3 251.25 191.95 250.85 191 250.55 189.9 249.85 186.55 247.85 184.05 245.1 183.55 244.6 183.5 244.2 183.45 243.9 183.7 243.25 183.95 242.6 183.85 242.3 184.15 242.25 184.45 242.2 184.3 242.8 185 243.7 185.85 244.85 188.05 246.85 190.15 248.65 191.1 249 192.1 249.4 193.8 249.6
L 193.8 249.55 193.85 249.2
Q 191.25 248.1 190.05 247.3 189.8537109375 247.161328125 189.65 247 188.957421875 246.48046875 188.15 245.75 185.7 243.6 184.95 242.1
M 196.15 225.95
Q 196.15 224.3 195.25 222.8 193.15 219.3 189.3 220.8 187.15 221.55 186.6 223.8 185.6 227.75 185.9 231.95 186.05 234 187.6 235.4 190.95 238.6 194.25 235.4 195 234.45 195.3 233.25 196.1 229.6 196.15 225.95
M 189.25 222.2
Q 190.54296875 221.173046875 192.8 222.45 193.45 222.85 193.65 223.5 195.25 228.45 193.2 233.25 193.0859375 233.4970703125 192.9 233.7 192.6908203125 234.0900390625 192.35 234.4 191.75 234.8 191.05 234.75 190.35 235 189.75 234.65 187.35 233.15 187.65 230.05 187.6 228.8 187.65 227.55 187.7 226.1 188 224.7 188.4060546875 222.91328125 189.25 222.2
M 190.1 222.05
Q 190.05 222.2 190.2 222.45
L 190.7 223.25
Q 191.05 223.55 191.75 224 192.2943359375 224.4607421875 192.45 225.45 192.4837890625 225.6388671875 192.5 225.85 192.5 226.3787109375 192.45 227.3 192.4623046875 227.6072265625 192.45 227.95
L 192.45 229.15
Q 192.4361328125 229.2755859375 192.4 229.45 192.30234375 229.8650390625 192.05 230.55 192.228125 230.4951171875 192.35 230.4 192.7685546875 230.130859375 192.95 229.55 193.1 229.15 193.1 228.2
L 193.15 226.05
Q 193.25 224.35 192.6 223.6 191.6 223 191.25 222.55
L 190.75 221.9
Q 190.6 221.8 190.35 221.8 190.15 221.85 190.1 222.05
M 159.7 292.05
Q 159.4 292.8 159.2 293.6 158.2 297.2 158.3 301.45 158.35 302.7 158.7 303.8 156.05 309.3 154.5 315.1 154.45 315.35 154.35 315.55 152.85 321.85 152.7 328.5 152.6 332.55 153.55 336.6 154.5 340.5 156.9 343.95 159.4 347.5 162.25 350.7 162.75 351.3 163.15 352.05 163.45 352.55 163.75 352.95 164 355.25 165.3 357.2 166.45 358.9 167.3 360.6 168.8 363.65 172.15 363.6 175.15 363.55 178.45 363.45 180.45 363.35 181.7 363.15 183.3 362.85 183.95 362.35 184.6 361.9 185.35 360.7
L 186.5 358.5
Q 186.7 358.15 186.75 357.85 187.4 357.9 188.05 357.95
L 188.25 357.95
Q 188.45 357.95 188.65 358
L 196.85 357.95
Q 197.5 357.9 198.15 357.85 198.2 358.15 198.4 358.5
L 199.55 360.7
Q 200.3 361.9 200.95 362.35 201.6 362.85 203.2 363.15 204.45 363.35 206.45 363.45 209.75 363.55 212.75 363.6 214.388671875 363.6244140625 215.55 362.9 216.8337890625 362.1580078125 217.6 360.6 218.45 358.9 219.6 357.2 220.9 355.25 221.15 352.95 221.45 352.55 221.75 352.05 222.15 351.3 222.65 350.7 225.5 347.5 228 343.95 230.4 340.5 231.35 336.6 232.3 332.55 232.2 328.5 232.05 321.85 230.55 315.55 230.45 315.35 230.4 315.1 228.85 309.3 226.2 303.8 226.55 302.7 226.6 301.45 226.7 297.2 225.7 293.6 225.5 292.8 225.2 292.05 224.2 290.25 223 288.65 222.4494140625 287.9482421875 221.8 287.4 219.532421875 285.5619140625 216.2 286.15 215.05 286.35 214.1 286.75 213.05 287.3 212.1 287.7 210.05 288.45 208.35 289.65 200.6 286.4 192.5 287.95
L 192.4 287.95
Q 184.3 286.4 176.55 289.65 174.85 288.45 172.8 287.7 171.85 287.3 170.8 286.75 169.85 286.35 168.7 286.15 164.45 285.4 161.9 288.65 160.7 290.25 159.7 292.05
M 160.3 296.65
Q 160.85 294.8 161.45 292.7 161.7712890625 291.62109375 162.35 290.7 163.0681640625 289.6154296875 164.15 288.75 165.75 287.45 167.85 287.9 174.3 289.05 179 293.3
L 179.55 293.35 180.05 292.95
Q 178.95 291.5 177.55 290.4 178 290.3 178.45 290.15 179.85 289.65 180.6 289.4 182.7 288.75 185.7 288.6 189.2 288.55 190.95 288.5 192.05 288.5 192.45 288.05 192.85 288.5 193.95 288.5 195.7 288.55 199.2 288.6 202.2 288.75 204.3 289.4 205.05 289.65 206.45 290.15 206.9 290.3 207.35 290.4 205.95 291.5 204.85 292.95
L 205.35 293.35 205.9 293.3
Q 210.6 289.05 217.05 287.9 219.15 287.45 220.75 288.75 220.956640625 288.9154296875 221.15 289.1 222.822265625 290.5927734375 223.45 292.7 224.05 294.8 224.6 296.65 225.55 299.85 225.3 303 225.25 303 225.2 303.05 225.2 303.3 225.25 303.6 225.1 305 224.7 306.4 225.15 305.85 225.55 305.25 225.75 306.3 226.2 307.6 226.7 309.1 227.7 312.05 228.15 313.35 228.65 315.55 230.95 323.9 230.25 332.7 230.15 333.85 229.8 335 227.9 341.75 223.15 346.95 219.8 350.65 215.85 353.9 215.15 354.55 215.15 355.5 215.45 355.45 215.75 355.35 218.25 354.25 220.4 352.3 217.85 356.05 215.75 360.1 215.05 361.4 213.6 361.8 213.2798828125 361.832421875 212.95 361.85 209.806640625 362.112890625 206.45 361.75 205.4 361.7 204.7 361.65 202.85 361.45 201.9 360.75 201.3 360.3 200.7 359.35 200.05 358.3 199.7 357.75 200.95 357.6 202.15 357.45 203.533984375 357.2724609375 203.95 356.7 204.135546875 356.4546875 204.15 356.15 203.5 355.5 201.55 355.7 197 356.25 192.45 356.5 187.9 356.25 183.35 355.7 181.4 355.5 180.75 356.15 180.775390625 356.683203125 181.3 357 181.7900390625 357.326953125 182.75 357.45 183.95 357.6 185.2 357.75 184.85 358.3 184.2 359.35 183.6 360.3 183 360.75 182.05 361.45 180.2 361.65 179.5 361.7 178.45 361.75 174.75 362.15 171.3 361.8 169.85 361.4 169.15 360.1 167.05 356.05 164.5 352.3 166.65 354.25 169.15 355.35 169.45 355.45 169.75 355.5 169.75 354.55 169.05 353.9 167.5900390625 352.6986328125 166.2 351.4 163.86171875 349.282421875 161.75 346.95 157 341.75 155.1 335 154.75 333.85 154.65 332.7 153.95 323.9 156.25 315.55 156.75 313.35 157.2 312.05 158.2 309.1 158.7 307.6 159.15 306.3 159.35 305.25 159.75 305.85 160.2 306.4 159.8 305 159.65 303.6 159.7 303.3 159.7 303.05 159.65 303 159.6 303 159.35 299.85 160.3 296.65
M 207.05 294.2
Q 206.7541015625 294.5568359375 206.9 294.8 209.45 293.15 210.8 292.5 213.35 291.3 215.85 291.1 215.898046875 290.9078125 215.8 290.75 215.7578125 290.651953125 215.55 290.6 210.8 291 207.1 294.2
L 207.05 294.2
M 191.65 289.85
L 191.45 289.7 190.75 289.05
Q 190.55 289.2 190.55 289.55
L 190.5 290.05
Q 190.5 290.2 190.45 290.5 190.4779296875 290.583984375 190.6 290.65 190.69609375 290.762109375 190.85 290.85 190.95 291.05 191.05 291.1
L 191.25 291.15 192.9 291.25 193.2 291.2
Q 193.35 291.15 193.75 290.5
L 193.85 290.25 194 289.95 194 289.55
Q 193.9 289 193.65 288.95 193.35 288.9 193.1 289.15
L 192.65 289.6
Q 192.45 289.85 192.35 289.85
L 191.65 289.85
M 169.35 290.6
Q 169.1806640625 290.6423828125 169.1 290.75 168.9923828125 290.8693359375 169.05 291.1 170.6810546875 291.23046875 172.3 291.75 173.213671875 292.0828125 174.1 292.5 174.769921875 292.8224609375 175.7 293.4 176.7154296875 293.96875 178 294.8 178.0927734375 294.6455078125 178 294.45 177.9337890625 294.3337890625 177.8 294.2 174.1 291 169.35 290.6
M 190.25 328.75
Q 190.2 328.75 190.1 328.75 188.9 328.75 188.1 329.6 187.25 330.45 187.25 331.65 187.25 332.8 188.1 333.65 188.9 334.5 190.1 334.5 190.2 334.5 190.25 334.5
L 190.25 328.75
M 196.2 328.75
Q 196.1 328.75 196.05 328.75
L 196.05 334.5
Q 196.1 334.5 196.2 334.5 197.4 334.5 198.2 333.65 199.05 332.8 199.05 331.65 199.05 330.45 198.2 329.6 197.4 328.75 196.2 328.75
M 166.85 319.1
L 162.9 317.1
Q 162.75 317.15 162.65 317.2 162.6 317.25 162.5 317.3
L 166.15 319.2
Q 167.15 319.7 167.45 319.8 167.45 319.45 166.85 319.1
M 167.55 315
Q 167.85 315.1 168.05 314.95 167.95 314.65 167.45 314.55
L 163.15 313.6
Q 163.2 313.7 163.2 313.85 163.2 313.95 163.25 314.1 165.4 314.65 167.55 315
M 183.05 306.3
Q 183.55 305.75 183.55 305.05 183.55 304.35 183.05 303.85 182.55 303.3 181.85 303.3 181.15 303.3 180.65 303.85 180.15 304.35 180.15 305.05 180.15 305.75 180.65 306.3 181.15 306.8 181.85 306.8 182.55 306.8 183.05 306.3
M 202.25 303.85
Q 201.75 303.3 201.05 303.3 200.35 303.3 199.85 303.85 199.35 304.35 199.35 305.05 199.35 305.75 199.85 306.3 200.35 306.8 201.05 306.8 201.75 306.8 202.25 306.3 202.75 305.75 202.75 305.05 202.75 304.35 202.25 303.85
M 207.35 332.45
Q 207.25 332.75 207.2 333.05 206.90078125 334.3419921875 206.4 335.5 206.2517578125 335.8220703125 206.1 336.1 204.7564453125 338.85078125 202.2 340.85 197.45 343.05 192.2 342.85 183.9 341.9 179.4 334.65
L 178.9 334.8
Q 179.106640625 335.28203125 179.3 335.8 179.441015625 336.01640625 179.55 336.25 183.1 343.75 191.5 344.4 195.45 344.55 199.45 343.6 203.1017578125 342.8697265625 205.35 340.15 205.719140625 339.6998046875 206.05 339.2 208.1 336.05 207.35 332.45
M 207.2 327.25
Q 207.25 325.5 206.7 323.65 206.05 321.55 204.3 320.35 201.25 318.2 197.65 316.6 194.6 315.35 191.3 315.95 186.353125 316.68125 182.45 319.65 181.8505859375 320.1552734375 181.25 320.7 181.2 320.75 181.3 320.95 181.7 320.8 182.1 320.6 186.75 318.05 191.85 317.3 193.3 317.3 194.7 317.6 197.6345703125 318.0833984375 200.2 319.4 200.648828125 319.648828125 201.05 319.9 201.77578125 320.318359375 202.45 320.8 202.95 321.15 203.4 321.6 204.2287109375 322.3171875 204.85 323.15 205.9224609375 324.604296875 206.45 326.4 206.5935546875 326.9451171875 206.7 327.5
L 207.2 327.25
M 202.7 326.85
Q 202.9025390625 327.197265625 203.05 327.55 203.4578125 328.41171875 203.6 329.3
L 204.7 329.35 204.65 328.85 204.65 328.75 204.5 327.45
Q 202.7 323.85 199.15 321.85 198.5 321.5 197.85 321.4 189.65 319.45 183.05 324.15 183.2880859375 324.182421875 183.5 324.15 184.3990234375 324.1701171875 185.3 323.7 185.953515625 323.3732421875 186.6 323.1 189.92890625 321.733203125 193.55 321.65 199.5 321.5 202.7 326.85
M 223.45 301.3
Q 223.2 299.95 223.15 298.6 223.1 295.25 220.55 293.65
L 221.95 297.6 222.65 304.7
Q 217.85 301.55 213.05 298.4 211.95 297.7 210.8 298 216.1 301.75 221.35 305.6 222.5 306.5 223.45 305.85 223.95 303.7 223.45 301.3
M 160.95 319.15
Q 160.8 319.3 160.75 319.4
L 162.7 321.4
Q 163.05 321.85 163.45 322.1 164 322.4 164.45 322.25 164.45 322.05 164.15 321.85
L 163.65 321.75
Q 163.3 321.6 162.8 321.1
L 160.95 319.15
M 161.75 298.6
Q 161.7 299.95 161.45 301.3 160.95 303.7 161.45 305.85 162.4 306.5 163.55 305.6 168.8 301.75 174.1 298 172.95 297.7 171.85 298.4 167.05 301.55 162.25 304.7
L 162.95 297.6 164.35 293.65
Q 161.8 295.25 161.75 298.6 Z"/>

<path fill="#FFCE41" stroke="none" d="
M 193.05 281.75
Q 193 279.8 193 278.8 192.9845703125 278.2109375 193 277.55
L 190.6 275.45
Q 190.5 276.211328125 190.5 277.45
L 190.55 281.4
Q 190.55 283.2 190.7 284.05 190.8 284.7 191.05 285 191.4 285.55 191.95 285.35 192.4 285.25 192.6 284.6 193.05 283.45 193.05 281.75
M 190.2 262.65
Q 190.2 262.5455078125 190.4 262.1
L 190.3 262.15
Q 189.75 262.35 189 262.35 189.15 262.05 189.55 261.95 190.0986328125 261.755859375 190.65 261.55 190.858203125 261.1408203125 191.15 260.55 190.1033203125 260.883203125 189.4 261.15 187 262.1 185.45 263.45
L 185.45 264.7
Q 188.315625 264.728125 191.4 263.7 191.3322265625 263.6755859375 191.25 263.65 190.2 263.3 190.2 262.65
M 183.5 244.2
Q 183.55 244.6 184.05 245.1 186.55 247.85 189.9 249.85 191 250.55 191.95 250.85 193.3 251.25 196.1 251.05 196.45 251.05 196.6 250.95 196.95 250.65 196.95 250.15 196.9548828125 250.0357421875 196.95 249.9 196.7087890625 249.9189453125 196.45 249.9 195.0322265625 249.9 193.8 249.55
L 193.8 249.6
Q 192.1 249.4 191.1 249 190.15 248.65 188.05 246.85 185.85 244.85 185 243.7 184.3 242.8 184.45 242.2 184.15 242.25 183.85 242.3 183.95 242.6 183.7 243.25 183.45 243.9 183.5 244.2
M 185.3 242
Q 185.1421875 242.063671875 184.95 242.1 185.7 243.6 188.15 245.75 188.957421875 246.48046875 189.65 247 187.598828125 245.1359375 185.3 242
M 192.45 227.95
Q 192.4623046875 227.6072265625 192.45 227.3 192.5 226.3787109375 192.5 225.85 192.4837890625 225.6388671875 192.45 225.45 191.96484375 224.649609375 189.25 222.2 188.4060546875 222.91328125 188 224.7 187.7 226.1 187.65 227.55 187.6 228.8 187.65 230.05 187.35 233.15 189.75 234.65 190.35 235 191.05 234.75 191.75 234.8 192.35 234.4 192.6908203125 234.0900390625 192.9 233.7 192.414453125 232.288671875 192.35 231 192.365234375 230.6859375 192.35 230.4 192.228125 230.4951171875 192.05 230.55 192.30234375 229.8650390625 192.4 229.45 192.4361328125 229.2755859375 192.45 229.15
L 192.45 227.95 Z"/>

<path fill="#FFE577" stroke="none" d="
M 193.35 274.55
Q 193.55 273.4 193.2 273 192.35 272.5 192 272.4 191.1 272.3 190.9 272.95 190.85 273.1 190.85 273.8 190.85 274.25 190.65 275.15 190.619921875 275.3005859375 190.6 275.45
L 193 277.55
Q 193.0740234375 276.171484375 193.35 274.55
M 196.8 259.25
Q 195.8 259.35 193.8 259.85 192.2810546875 260.2361328125 191.15 260.55 190.858203125 261.1408203125 190.65 261.55 193.3994140625 260.563671875 196.35 259.4
L 196.45 259.75 190.4 262.1
Q 190.2 262.5455078125 190.2 262.65 190.2 263.3 191.25 263.65 191.3322265625 263.6755859375 191.4 263.7 193.8369140625 262.8958984375 196.4 261.45 197.1 261 197.2 260.75 197.45 260.2 196.8 259.25
M 189.65 247
Q 189.8537109375 247.161328125 190.05 247.3 191.25 248.1 193.85 249.2
L 193.8 249.55
Q 195.0322265625 249.9 196.45 249.9 196.7087890625 249.9189453125 196.95 249.9 196.9056640625 248.8857421875 196.05 247.85 195.5 247.15 194.1 246.05 191.95 244.3 190.25 242.6 189.75 242.1 189.45 241.95 188.8 241.85 188.5 241.8 186.9767578125 241.7552734375 185.3 242 187.598828125 245.1359375 189.65 247
M 192.8 222.45
Q 190.54296875 221.173046875 189.25 222.2 191.96484375 224.649609375 192.45 225.45 192.2943359375 224.4607421875 191.75 224 191.05 223.55 190.7 223.25
L 190.2 222.45
Q 190.05 222.2 190.1 222.05 190.15 221.85 190.35 221.8 190.6 221.8 190.75 221.9
L 191.25 222.55
Q 191.6 223 192.6 223.6 193.25 224.35 193.15 226.05
L 193.1 228.2
Q 193.1 229.15 192.95 229.55 192.7685546875 230.130859375 192.35 230.4 192.365234375 230.6859375 192.35 231 192.414453125 232.288671875 192.9 233.7 193.0859375 233.4970703125 193.2 233.25 195.25 228.45 193.65 223.5 193.45 222.85 192.8 222.45 Z"/>

<path fill="#FEACA0" stroke="none" d="
M 185.2 357.75
Q 183.95 357.6 182.75 357.45 181.7900390625 357.326953125 181.3 357 177.9791015625 356.701953125 176.5 356.15
L 176.5 356.35
Q 176.5 356.55 177.1 357.8
L 177.1 360.9
Q 176.5 360.6 174.35 359.1 171.9 357.4 171.55 356.95 172.9 356.35 173.2 355.5 172.4 355.5 170 353.95 169.371484375 353.5572265625 166.2 351.4 167.5900390625 352.6986328125 169.05 353.9 169.75 354.55 169.75 355.5 169.45 355.45 169.15 355.35 166.65 354.25 164.5 352.3 167.05 356.05 169.15 360.1 169.85 361.4 171.3 361.8 174.75 362.15 178.45 361.75 179.5 361.7 180.2 361.65 182.05 361.45 183 360.75 183.6 360.3 184.2 359.35 184.85 358.3 185.2 357.75
M 202.15 357.45
Q 200.95 357.6 199.7 357.75 200.05 358.3 200.7 359.35 201.3 360.3 201.9 360.75 202.85 361.45 204.7 361.65 205.4 361.7 206.45 361.75 209.806640625 362.112890625 212.95 361.85 208.176171875 359.8779296875 207.5 359.25 210.8 357.35 211.85 355.95 211.1841796875 356.140234375 203.95 356.7 203.533984375 357.2724609375 202.15 357.45
M 204.4 342.8
Q 204.948046875 341.6392578125 205.35 340.15 203.1017578125 342.8697265625 199.45 343.6 195.45 344.55 191.5 344.4 183.1 343.75 179.55 336.25 179.441015625 336.01640625 179.3 335.8 180.612890625 343.253515625 187.3 346.55 191.2 348.5 194.9 348.5 201.75 348.5 204.4 342.8 Z"/>

<path fill="#F8EAE9" stroke="none" d="
M 169.1 290.75
Q 169.1806640625 290.6423828125 169.35 290.6 174.1 291 177.8 294.2 177.9337890625 294.3337890625 178 294.45 179.123828125 294.98125 180.45 295.6 180.45 293.7 180.65 292.25 182.45 291.9 188.1 291.05 189.4404296875 290.8474609375 190.6 290.65 190.4779296875 290.583984375 190.45 290.5 190.5 290.2 190.5 290.05
L 190.55 289.55
Q 190.55 289.2 190.75 289.05
L 191.45 289.7 191.65 289.85 192.35 289.85
Q 192.45 289.85 192.65 289.6
L 193.1 289.15
Q 193.35 288.9 193.65 288.95 193.9 289 194 289.55
L 194 289.95 193.85 290.25
Q 196.1056640625 290 197.15 290 198.5 290 202.95 290.8
L 203 290.95
Q 203.05 291.05 203.15 291.05 202.5 292.4 201.1 294.15 202.4 294.3 203.65 294.75
L 204.8 295.15
Q 205.12890625 295.15 207.05 294.2
L 207.1 294.2
Q 210.8 291 215.55 290.6 215.7578125 290.651953125 215.8 290.75 220.021875 290.6890625 220.3 290.55 220.5876953125 290.366796875 221.15 289.1 220.956640625 288.9154296875 220.75 288.75 219.15 287.45 217.05 287.9 210.6 289.05 205.9 293.3
L 205.35 293.35 204.85 292.95
Q 205.95 291.5 207.35 290.4 206.9 290.3 206.45 290.15 205.05 289.65 204.3 289.4 202.2 288.75 199.2 288.6 195.7 288.55 193.95 288.5 192.85 288.5 192.45 288.05 192.05 288.5 190.95 288.5 189.2 288.55 185.7 288.6 182.7 288.75 180.6 289.4 179.85 289.65 178.45 290.15 178 290.3 177.55 290.4 178.95 291.5 180.05 292.95
L 179.55 293.35 179 293.3
Q 174.3 289.05 167.85 287.9 165.75 287.45 164.15 288.75 163.0681640625 289.6154296875 162.35 290.7 162.2310546875 291.145703125 162.15 291.6 162.4162109375 291.4931640625 163.25 291.25 164.45 290.9 164.95 290.8
L 167.4 290.6
Q 168.2541015625 290.6 169.1 290.75
M 204.6 326.6
Q 204.6 326.67109375 204.6 326.75 205.1626953125 327.1626953125 206.25 328.25
L 206.5 328.45
Q 206.6087890625 327.384375 206.45 326.4 205.9224609375 324.604296875 204.85 323.15 203.555859375 321.6220703125 201.05 319.9 200.648828125 319.648828125 200.2 319.4 197.6345703125 318.0833984375 194.7 317.6 193.3 317.3 191.85 317.3 186.75 318.05 182.1 320.6 181.7 320.8 181.3 320.95 181.2 320.75 181.25 320.7 181.8505859375 320.1552734375 182.45 319.65 180.3287109375 320.6212890625 179.65 321.3 179 322.05 178.55 323.05
L 178.15 323.25
Q 178.35 323.25 179.05 323.15 179.9 323 180.85 322.45
L 181.65 322.45
Q 181.6 322.5 180.85 323.3 180.05 324.3 179.6 325.75
L 179.6 327
Q 182.1658203125 325.118359375 183.5 324.15 183.2880859375 324.182421875 183.05 324.15 189.65 319.45 197.85 321.4 198.5 321.5 199.15 321.85 202.7 323.85 204.5 327.45
L 204.65 328.75
Q 204.6017578125 328.236328125 204.6 326.75 204.4900390625 326.6572265625 204.4 326.6
L 204.6 326.6
M 161.65 314.15
Q 161.45 312.85 160.35 312.7 159.55 312.5 158.6 313.25 158.1 313.6 157.8 314.15 157.6 314.55 157.5 315.8 157.4 316.75 157.5 317.2 157.7 318.1 158.25 318.4 158.9 318.75 159.75 318.4 160.85 317.9 161.4 316.2 161.85 315.05 161.65 314.15 Z"/>

<path fill="#FCD0C7" stroke="none" d="
M 161.45 292.7
Q 160.85 294.8 160.3 296.65 159.35 299.85 159.6 303 159.65 303 159.7 303.05 159.7 303.3 159.65 303.6 159.8 305 160.2 306.4 159.75 305.85 159.35 305.25 159.15 306.3 158.7 307.6 158.2 309.1 157.2 312.05 156.75 313.35 156.25 315.55 153.95 323.9 154.65 332.7 154.75 333.85 155.1 335 157 341.75 161.75 346.95 163.86171875 349.282421875 166.2 351.4 169.371484375 353.5572265625 170 353.95 172.4 355.5 173.2 355.5 172.9 356.35 171.55 356.95 171.9 357.4 174.35 359.1 176.5 360.6 177.1 360.9
L 177.1 357.8
Q 176.5 356.55 176.5 356.35
L 176.5 356.15
Q 177.9791015625 356.701953125 181.3 357 180.775390625 356.683203125 180.75 356.15 181.4 355.5 183.35 355.7 187.9 356.25 192.45 356.5 197 356.25 201.55 355.7 203.5 355.5 204.15 356.15 204.135546875 356.4546875 203.95 356.7 211.1841796875 356.140234375 211.85 355.95 210.8 357.35 207.5 359.25 208.176171875 359.8779296875 212.95 361.85 213.2798828125 361.832421875 213.6 361.8 215.05 361.4 215.75 360.1 217.85 356.05 220.4 352.3 218.25 354.25 215.75 355.35 215.45 355.45 215.15 355.5 215.15 354.55 215.85 353.9 219.8 350.65 223.15 346.95 227.9 341.75 229.8 335 230.15 333.85 230.25 332.7 230.95 323.9 228.65 315.55 228.15 313.35 227.7 312.05 226.7 309.1 226.2 307.6 225.75 306.3 225.55 305.25 225.15 305.85 224.7 306.4 225.1 305 225.25 303.6 225.2 303.3 225.2 303.05 225.25 303 225.3 303 225.55 299.85 224.6 296.65 224.05 294.8 223.45 292.7 222.822265625 290.5927734375 221.15 289.1 220.5876953125 290.366796875 220.3 290.55 220.021875 290.6890625 215.8 290.75 215.898046875 290.9078125 215.85 291.1 213.35 291.3 210.8 292.5 209.45 293.15 206.9 294.8 206.7541015625 294.5568359375 207.05 294.2 205.12890625 295.15 204.8 295.15
L 203.65 294.75
Q 202.4 294.3 201.1 294.15 202.5 292.4 203.15 291.05 203.05 291.05 203 290.95
L 202.95 290.8
Q 198.5 290 197.15 290 196.1056640625 290 193.85 290.25
L 193.75 290.5
Q 193.35 291.15 193.2 291.2
L 192.9 291.25 191.25 291.15 191.05 291.1
Q 190.95 291.05 190.85 290.85 190.69609375 290.762109375 190.6 290.65 189.4404296875 290.8474609375 188.1 291.05 182.45 291.9 180.65 292.25 180.45 293.7 180.45 295.6 179.123828125 294.98125 178 294.45 178.0927734375 294.6455078125 178 294.8 176.7154296875 293.96875 175.7 293.4 174.769921875 292.8224609375 174.1 292.5 173.213671875 292.0828125 172.3 291.75 170.6810546875 291.23046875 169.05 291.1 168.9923828125 290.8693359375 169.1 290.75 168.2541015625 290.6 167.4 290.6
L 164.95 290.8
Q 164.45 290.9 163.25 291.25 162.4162109375 291.4931640625 162.15 291.6 162.2310546875 291.145703125 162.35 290.7 161.7712890625 291.62109375 161.45 292.7
M 161.45 301.3
Q 161.7 299.95 161.75 298.6 161.8 295.25 164.35 293.65
L 162.95 297.6 162.25 304.7
Q 167.05 301.55 171.85 298.4 172.95 297.7 174.1 298 168.8 301.75 163.55 305.6 162.4 306.5 161.45 305.85 160.95 303.7 161.45 301.3
M 160.35 312.7
Q 161.45 312.85 161.65 314.15 161.85 315.05 161.4 316.2 160.85 317.9 159.75 318.4 158.9 318.75 158.25 318.4 157.7 318.1 157.5 317.2 157.4 316.75 157.5 315.8 157.6 314.55 157.8 314.15 158.1 313.6 158.6 313.25 159.55 312.5 160.35 312.7
M 160.75 319.4
Q 160.8 319.3 160.95 319.15
L 162.8 321.1
Q 163.3 321.6 163.65 321.75
L 164.15 321.85
Q 164.45 322.05 164.45 322.25 164 322.4 163.45 322.1 163.05 321.85 162.7 321.4
L 160.75 319.4
M 223.15 298.6
Q 223.2 299.95 223.45 301.3 223.95 303.7 223.45 305.85 222.5 306.5 221.35 305.6 216.1 301.75 210.8 298 211.95 297.7 213.05 298.4 217.85 301.55 222.65 304.7
L 221.95 297.6 220.55 293.65
Q 223.1 295.25 223.15 298.6
M 203.05 327.55
Q 202.9025390625 327.197265625 202.7 326.85 199.5 321.5 193.55 321.65 189.92890625 321.733203125 186.6 323.1 185.953515625 323.3732421875 185.3 323.7 184.3990234375 324.1701171875 183.5 324.15 182.1658203125 325.118359375 179.6 327
L 179.6 325.75
Q 180.05 324.3 180.85 323.3 181.6 322.5 181.65 322.45
L 180.85 322.45
Q 179.9 323 179.05 323.15 178.35 323.25 178.15 323.25
L 178.55 323.05
Q 179 322.05 179.65 321.3 180.3287109375 320.6212890625 182.45 319.65 186.353125 316.68125 191.3 315.95 194.6 315.35 197.65 316.6 201.25 318.2 204.3 320.35 206.05 321.55 206.7 323.65 207.25 325.5 207.2 327.25
L 206.7 327.5
Q 206.5935546875 326.9451171875 206.45 326.4 206.6087890625 327.384375 206.5 328.45
L 206.25 328.25
Q 205.1626953125 327.1626953125 204.6 326.75 204.6017578125 328.236328125 204.65 328.75
L 204.65 328.85 204.7 329.35 203.6 329.3
Q 203.4578125 328.41171875 203.05 327.55
M 207.2 333.05
Q 207.25 332.75 207.35 332.45 208.1 336.05 206.05 339.2 205.719140625 339.6998046875 205.35 340.15 204.948046875 341.6392578125 204.4 342.8 201.75 348.5 194.9 348.5 191.2 348.5 187.3 346.55 180.612890625 343.253515625 179.3 335.8 179.106640625 335.28203125 178.9 334.8
L 179.4 334.65
Q 183.9 341.9 192.2 342.85 197.45 343.05 202.2 340.85 204.7564453125 338.85078125 206.1 336.1 206.2517578125 335.8220703125 206.4 335.5 206.90078125 334.3419921875 207.2 333.05
M 201.05 303.3
Q 201.75 303.3 202.25 303.85 202.75 304.35 202.75 305.05 202.75 305.75 202.25 306.3 201.75 306.8 201.05 306.8 200.35 306.8 199.85 306.3 199.35 305.75 199.35 305.05 199.35 304.35 199.85 303.85 200.35 303.3 201.05 303.3
M 183.55 305.05
Q 183.55 305.75 183.05 306.3 182.55 306.8 181.85 306.8 181.15 306.8 180.65 306.3 180.15 305.75 180.15 305.05 180.15 304.35 180.65 303.85 181.15 303.3 181.85 303.3 182.55 303.3 183.05 303.85 183.55 304.35 183.55 305.05
M 168.05 314.95
Q 167.85 315.1 167.55 315 165.4 314.65 163.25 314.1 163.2 313.95 163.2 313.85 163.2 313.7 163.15 313.6
L 167.45 314.55
Q 167.95 314.65 168.05 314.95
M 162.9 317.1
L 166.85 319.1
Q 167.45 319.45 167.45 319.8 167.15 319.7 166.15 319.2
L 162.5 317.3
Q 162.6 317.25 162.65 317.2 162.75 317.15 162.9 317.1
M 196.05 328.75
Q 196.1 328.75 196.2 328.75 197.4 328.75 198.2 329.6 199.05 330.45 199.05 331.65 199.05 332.8 198.2 333.65 197.4 334.5 196.2 334.5 196.1 334.5 196.05 334.5
L 196.05 328.75
M 190.1 328.75
Q 190.2 328.75 190.25 328.75
L 190.25 334.5
Q 190.2 334.5 190.1 334.5 188.9 334.5 188.1 333.65 187.25 332.8 187.25 331.65 187.25 330.45 188.1 329.6 188.9 328.75 190.1 328.75
M 204.85 323.15
Q 204.2287109375 322.3171875 203.4 321.6 202.95 321.15 202.45 320.8 201.77578125 320.318359375 201.05 319.9 203.555859375 321.6220703125 204.85 323.15
M 204.6 326.75
Q 204.6 326.67109375 204.6 326.6
L 204.4 326.6
Q 204.4900390625 326.6572265625 204.6 326.75 Z"/>
</g>

<path id="Layer0_0_MEMBER_0_1_STROKES" stroke="#47B5C3" stroke-width="2" stroke-linejoin="round" stroke-linecap="round" fill="none" d="
M 25.842968750000004 34.59752731323242
L 224.17890625 34.59752731323242 224.17890625 357.83092193603517 25.842968750000004 357.83092193603517 25.842968750000004 34.59752731323242 Z"/>

<path id="Layer0_0_MEMBER_1_1_STROKES" stroke="#47B5C3" stroke-width="2" stroke-linejoin="round" stroke-linecap="round" fill="none" d="
M 229.18274688720703 25.685513305664063
L 177.8816146850586 65.0702407836914"/>

<path id="Layer0_0_MEMBER_2_1_STROKES" stroke="#47B5C3" stroke-width="2" stroke-linejoin="round" stroke-linecap="round" fill="none" d="
M 239.28274688720703 26.735513305664064
L 187.9816146850586 66.1202407836914"/>

<path id="Layer0_0_MEMBER_4_1_STROKES" stroke="#47B5C3" stroke-width="2" stroke-linejoin="round" stroke-linecap="round" fill="none" d="
M 141.19639129638674 95.22520217895507
Q 141.19639129638674 123.32858581542968 121.31574935913086 143.18217926025392 101.46215591430663 163.06282119750975 73.35877227783203 163.06282119750975 45.25538864135742 163.06282119750975 25.374746704101565 143.18217926025392 5.521153259277344 123.32858581542968 5.521153259277344 95.22520217895507 5.521153259277344 67.12181854248047 25.374746704101565 47.24117660522461 45.25538864135742 27.387583160400393 73.35877227783203 27.387583160400393 101.46215591430663 27.387583160400393 121.31574935913086 47.24117660522461 141.19639129638674 67.12181854248047 141.19639129638674 95.22520217895507 Z"/>

<path id="Layer0_0_MEMBER_6_1_STROKES" stroke="#47B5C3" stroke-width="2" stroke-linejoin="round" stroke-linecap="round" fill="none" d="
M 190.68208236694335 380.3615119934082
Q 170.84332733154298 380.2624252319336 156.89836349487302 366.15827255249025 142.9342102050781 352.07311859130857 143.0332969665527 332.2343635559082 143.13238372802732 312.3956085205078 157.23663177490232 298.4315505981445 171.32169036865236 284.48649139404296 191.16044540405272 284.58557815551757 210.99920043945312 284.6846649169922 224.96335372924804 298.7698188781738 238.90831756591797 312.87397155761715 238.80923080444336 332.7127265930176 238.71014404296875 352.55148162841795 224.62508544921874 366.49654083251954 210.52083740234374 380.4605987548828 190.68208236694335 380.3615119934082 Z"/>
</defs>

<g transform="matrix( 0.828125, 0, 0, 0.9578704833984375, -8.4,-0.7) ">
<use xlink:href="#Layer0_0_MEMBER_0_1_STROKES" transform="matrix( 1.2075347900390625, 0, 0, 1.043975830078125, 10.1,0.7) "/>
</g>

<g transform="matrix( 0.807891845703125, 0, 0, 0.807891845703125, 151.1,22.05) ">
<use xlink:href="#Layer0_0_MEMBER_1_1_STROKES" transform="matrix( 1.2377777099609375, 0, 0, 1.2377777099609375, -187,-27.25) "/>
</g>

<g transform="matrix( 0.807891845703125, 0, 0, 0.807891845703125, 161.2,23.1) ">
<use xlink:href="#Layer0_0_MEMBER_2_1_STROKES" transform="matrix( 1.2377777099609375, 0, 0, 1.2377777099609375, -199.5,-28.55) "/>
</g>

<g transform="matrix( 0.5409698486328125, 0, 0, 0.5409698486328125, -1.35,21.1) ">
<use xlink:href="#Layer0_0_MEMBER_3_FILL"/>
</g>

<g transform="matrix( 0.5409698486328125, 0, 0, 0.5409698486328125, -0.7,22.6) ">
<use xlink:href="#Layer0_0_MEMBER_4_1_STROKES" transform="matrix( 1.8485260009765625, 0, 0, 1.8485260009765625, 1.25,-41.75) "/>
</g>

<g transform="matrix( -0.0019073486328125, 0.3818817138671875, -0.3818817138671875, -0.0019073486328125, 244.45,280) ">
<use xlink:href="#Layer0_0_MEMBER_5_FILL"/>
</g>

<g transform="matrix( -0.0019073486328125, 0.3818817138671875, -0.3818817138671875, -0.0019073486328125, 242.45,280.45) ">
<use xlink:href="#Layer0_0_MEMBER_6_1_STROKES" transform="matrix( -0.0130767822265625, -2.6185455322265625, 2.6185455322265625, -0.0130767822265625, -731.2,638.5) "/>
</g>

<g transform="matrix( 1.2947998046875, -0.70135498046875, 0.70135498046875, 1.2947998046875, -43.15,40.9) ">
<use xlink:href="#Layer0_1_FILL"/>
</g>

<g transform="matrix( 1.2947998046875, -0.70135498046875, 0.70135498046875, 1.2947998046875, -43.15,40.9) ">
<use xlink:href="#Layer0_1_MEMBER_0_FILL"/>
</g>

<g transform="matrix( 1.2947998046875, -0.70135498046875, 0.70135498046875, 1.2947998046875, -43.15,40.9) ">
<use xlink:href="#Layer0_1_MEMBER_1_FILL"/>
</g>

<g transform="matrix( 1.2947998046875, -0.70135498046875, 0.70135498046875, 1.2947998046875, -43.15,40.9) ">
<use xlink:href="#Layer0_1_MEMBER_2_FILL"/>
</g>

<g transform="matrix( 1.2947998046875, -0.70135498046875, 0.70135498046875, 1.2947998046875, -43.15,40.9) ">
<use xlink:href="#Layer0_1_MEMBER_3_FILL"/>
</g>

<g transform="matrix( 1.3773651123046875, 0, 0, 1.3773651123046875, -94.95,-146.35) ">
<use xlink:href="#Layer0_2_FILL"/>
</g>
</svg>
