
<svg xmlns="http://www.w3.org/2000/svg" version="1.1" xmlns:xlink="http://www.w3.org/1999/xlink" preserveAspectRatio="none" x="0px" y="0px" width="434px" height="390px" viewBox="0 0 434 390">
<defs>
<linearGradient id="Gradient_1" gradientUnits="userSpaceOnUse" x1="18.299999999999983" y1="129.6" x2="269.1" y2="129.6" spreadMethod="pad">
<stop  offset="0%" stop-color="#FAC496"/>

<stop  offset="24.313725490196077%" stop-color="#F4D7B7"/>

<stop  offset="63.92156862745098%" stop-color="#ECF4E8"/>

<stop  offset="83.52941176470588%" stop-color="#E9FFFB"/>
</linearGradient>

<g id="Layer1_0_MEMBER_1_FILL">
<path fill="url(#Gradient_1)" stroke="none" d="
M 269.1 129.6
Q 269.1 77.65 232.35 40.9 195.65 4.2 143.7 4.2 91.75 4.2 55 40.9 18.3 77.65 18.3 129.6 18.3 181.55 55 218.25 91.75 255 143.7 255 195.65 255 232.35 218.25 269.1 181.55 269.1 129.6 Z"/>
</g>

<g id="Layer1_0_MEMBER_3_FILL">
<path fill="url(#Gradient_1)" stroke="none" d="
M 269.1 129.6
Q 269.1 77.65 232.35 40.9 195.65 4.2 143.7 4.2 91.75 4.2 55 40.9 18.3 77.65 18.3 129.6 18.3 181.55 55 218.25 91.75 255 143.7 255 195.65 255 232.35 218.25 269.1 181.55 269.1 129.6 Z"/>
</g>

<g id="Layer1_1_MEMBER_0_FILL">
<path fill="#FFAC5A" stroke="none" d="
M 86.4 120.2
L 84.35 121.45 84.35 123 86.1 123 86.1 129.65
Q 86.1 131.9 87.15 133.05 88.2 134.2 90.45 134.2 92.45 134.2 93.85 133.55
L 93.85 130.8
Q 92.5 131.2 91.5 131.2 90.75 131.2 90.35 130.85 89.85 130.45 89.85 129.65
L 89.85 123 93.7 123 93.7 120.2 89.85 120.2 89.85 117.3 87.45 117.3 86.4 120.2
M 106.45 121.15
Q 104.95 119.9 102.2 119.9 99.3 119.9 96.95 121.15
L 98.2 123.7
Q 100.4 122.7 102.05 122.7 104.2 122.7 104.2 124.8
L 104.2 125.4 101.8 125.45
Q 98.7 125.6 97.2 126.6 95.65 127.65 95.65 129.85 95.65 131.95 96.8 133.05 97.95 134.2 99.9 134.2 101.5 134.2 102.55 133.75 103.5 133.25 104.45 132.1
L 104.55 132.1 105.3 133.95 107.9 133.95 107.9 124.8
Q 107.9 122.35 106.45 121.15
M 99.5 129.85
Q 99.5 128.75 100.3 128.2 101.1 127.7 102.75 127.65
L 104.2 127.6 104.2 128.7
Q 104.2 129.95 103.4 130.7 102.65 131.45 101.3 131.45 99.5 131.45 99.5 129.85
M 121.1 121.05
Q 118.75 119.95 116.3 119.95 113.65 119.95 112.25 120.95 110.85 121.95 110.85 123.8 110.85 124.85 111.2 125.6 111.5 126.3 112.25 126.9 113 127.45 114.6 128.1
L 116.35 128.95
Q 117 129.3 117.3 129.55 117.55 129.85 117.55 130.25 117.55 131.45 115.5 131.45 114.5 131.45 113.2 131.1 111.9 130.8 110.85 130.3
L 110.85 133.4
Q 111.8 133.8 112.85 134 113.9 134.2 115.4 134.2 118.3 134.2 119.8 133.1 121.25 132 121.25 129.85 121.25 128.85 120.9 128.1 120.55 127.35 119.8 126.8 119.05 126.25 117.45 125.6 115.65 124.85 115.1 124.5 114.55 124.15 114.55 123.6 114.55 122.75 116.2 122.75 117.15 122.75 118.05 123
L 120 123.75 121.1 121.05
M 140.4 121.15
Q 138.9 119.9 136.15 119.9 133.25 119.9 130.9 121.15
L 132.15 123.7
Q 134.35 122.7 136 122.7 138.15 122.7 138.15 124.8
L 138.15 125.4 135.75 125.45
Q 132.65 125.6 131.15 126.6 129.6 127.65 129.6 129.85 129.6 131.95 130.75 133.05 131.9 134.2 133.85 134.2 135.45 134.2 136.5 133.75 137.45 133.25 138.4 132.1
L 138.5 132.1 139.25 133.95 141.85 133.95 141.85 124.8
Q 141.85 122.35 140.4 121.15
M 138.15 127.6
L 138.15 128.7
Q 138.15 129.95 137.35 130.7 136.6 131.45 135.25 131.45 133.45 131.45 133.45 129.85 133.45 128.75 134.25 128.2 135.05 127.7 136.7 127.65
L 138.15 127.6
M 161.5 121.05
Q 159.15 119.95 156.7 119.95 154.05 119.95 152.65 120.95 151.25 121.95 151.25 123.8 151.25 124.85 151.6 125.6 151.9 126.3 152.65 126.9 153.4 127.45 155 128.1
L 156.75 128.95
Q 157.4 129.3 157.7 129.55 157.95 129.85 157.95 130.25 157.95 131.45 155.9 131.45 154.9 131.45 153.6 131.1 152.3 130.8 151.25 130.3
L 151.25 133.4
Q 152.2 133.8 153.25 134 154.3 134.2 155.8 134.2 158.7 134.2 160.2 133.1 161.65 132 161.65 129.85 161.65 128.85 161.3 128.1 160.95 127.35 160.2 126.8 159.45 126.25 157.85 125.6 156.05 124.85 155.5 124.5 154.95 124.15 154.95 123.6 154.95 122.75 156.6 122.75 157.55 122.75 158.45 123
L 160.4 123.75 161.5 121.05
M 63.25 119.85
L 63.35 119.85
Q 63.2 123.25 63.2 124.05
L 63.15 133.95 66.75 133.95 66.75 116 61.55 116 57.05 129.7 56.95 129.7 52.7 116 47.5 116 47.5 133.95 50.9 133.95 50.7 119.85 50.8 119.85 55.1 133.95 58.6 133.95 63.25 119.85
M 76.55 119.95
Q 73.5 119.95 71.75 121.85 70.05 123.7 70.05 127.2 70.05 130.55 71.9 132.35 73.75 134.2 77.1 134.2 78.7 134.2 79.8 133.95 80.95 133.7 81.9 133.2
L 81.9 130.3
Q 80.7 130.9 79.6 131.15 78.5 131.4 77.25 131.4 75.65 131.4 74.8 130.5 73.9 129.6 73.85 128
L 82.7 128 82.7 126.2
Q 82.7 123.25 81.05 121.6 79.45 119.95 76.55 119.95
M 76.55 122.6
Q 77.75 122.6 78.45 123.4 79.15 124.15 79.2 125.5
L 73.9 125.5
Q 74 124.15 74.7 123.4 75.35 122.6 76.55 122.6
M 265.8 120.2
L 262.05 120.2 262.05 133.95 265.8 133.95 265.8 120.2
M 249.9 123
L 251.65 123 251.65 129.65
Q 251.65 131.9 252.7 133.05 253.75 134.2 256 134.2 258 134.2 259.4 133.55
L 259.4 130.8
Q 258.05 131.2 257.05 131.2 256.3 131.2 255.9 130.85 255.4 130.45 255.4 129.65
L 255.4 123 259.25 123 259.25 120.2 255.4 120.2 255.4 117.3 253 117.3 251.95 120.2 249.9 121.45 249.9 123
M 266 116.65
Q 266 114.8 263.95 114.8 261.9 114.8 261.9 116.65 261.9 118.5 263.95 118.5 264.95 118.5 265.5 118 266 117.55 266 116.65
M 273.15 121.95
L 272.65 120.2 269.75 120.2 269.75 133.95 273.5 133.95 273.5 127.5
Q 273.5 125.05 274.2 124 274.9 122.95 276.5 122.95 277.65 122.95 278.2 123.7 278.7 124.45 278.7 125.9
L 278.7 133.95 282.45 133.95 282.45 125
Q 282.45 122.55 281.2 121.25 279.95 119.95 277.55 119.95 276.15 119.95 275.1 120.45 273.95 120.95 273.35 121.95
L 273.15 121.95
M 304.1 133.95
L 304.1 120.2 300.35 120.2 300.35 133.95 304.1 133.95
M 293.45 120.2
L 291.05 119.95
Q 288.35 119.95 286.85 121.2 285.4 122.4 285.4 124.65 285.4 126.05 286.05 127.1 286.65 128.1 287.75 128.6 286.9 129.1 286.45 129.6 286 130.15 286 130.95 286 131.55 286.4 132.1 286.85 132.65 287.4 132.9 285.9 133.25 285.15 134.1 284.35 134.95 284.35 136.2 284.35 138 285.9 139 287.4 140 290.3 140 294.05 140 296.05 138.65 298.05 137.35 298.05 134.95 298.05 133.05 296.9 132.1 295.7 131.1 293.45 131.1
L 291.1 131.1
Q 289.05 131.1 289.05 130.3 289.05 129.75 289.6 129.3
L 290.15 129.4 290.85 129.4
Q 293.6 129.4 295.15 128.2 296.65 126.95 296.65 124.75 296.65 123.6 296.1 122.65
L 298.25 122.1 298.25 120.2 293.45 120.2
M 294.05 134.4
Q 294.75 134.7 294.75 135.5 294.75 136.45 293.6 137 292.45 137.55 290.45 137.55 289.1 137.55 288.35 137.1 287.6 136.65 287.6 135.9 287.6 135.1 288.3 134.6 289 134.1 290.05 134.1
L 292 134.1
Q 293.4 134.1 294.05 134.4
M 289.5 126.5
Q 289 125.8 289 124.7 289 122.2 291.05 122.2 293.1 122.2 293.1 124.7 293.1 125.8 292.6 126.5 292.1 127.15 291.05 127.15 290 127.15 289.5 126.5
M 312.45 119.95
Q 310 119.95 308.6 121.85 307.2 123.7 307.2 127.1 307.2 130.45 308.55 132.3 309.95 134.2 312.35 134.2 315 134.2 316.25 132.15
L 316.45 132.15 317.15 133.95 320.05 133.95 320.05 114.8 316.25 114.8 316.25 119.2
Q 316.25 120.45 316.55 121.95
L 316.45 121.95
Q 315.05 119.95 312.45 119.95
M 316.5 127.15
L 316.5 127.55
Q 316.45 129.55 315.8 130.35 315.1 131.2 313.7 131.2 312.4 131.2 311.7 130.2 311 129.2 311 127.15 311 125.1 311.7 124.05 312.35 123 313.6 123 315.15 123 315.85 123.95 316.5 124.9 316.5 127.15
M 303.8 118
Q 304.3 117.55 304.3 116.65 304.3 114.8 302.25 114.8 300.2 114.8 300.2 116.65 300.2 118.5 302.25 118.5 303.25 118.5 303.8 118
M 170.2 119.95
Q 167.15 119.95 165.4 121.85 163.7 123.7 163.7 127.2 163.7 130.55 165.55 132.35 167.4 134.2 170.75 134.2 172.35 134.2 173.45 133.95 174.6 133.7 175.55 133.2
L 175.55 130.3
Q 174.35 130.9 173.25 131.15 172.15 131.4 170.9 131.4 169.3 131.4 168.45 130.5 167.55 129.6 167.5 128
L 176.35 128 176.35 126.2
Q 176.35 123.25 174.7 121.6 173.1 119.95 170.2 119.95
M 168.35 123.4
Q 169 122.6 170.2 122.6 171.4 122.6 172.1 123.4 172.8 124.15 172.85 125.5
L 167.55 125.5
Q 167.65 124.15 168.35 123.4
M 200.4 121.6
Q 198.8 119.95 195.9 119.95 192.85 119.95 191.1 121.85 189.4 123.7 189.4 127.2 189.4 130.55 191.25 132.35 193.1 134.2 196.45 134.2 198.05 134.2 199.15 133.95 200.3 133.7 201.25 133.2
L 201.25 130.3
Q 200.05 130.9 198.95 131.15 197.85 131.4 196.6 131.4 195 131.4 194.15 130.5 193.25 129.6 193.2 128
L 202.05 128 202.05 126.2
Q 202.05 123.25 200.4 121.6
M 195.9 122.6
Q 197.1 122.6 197.8 123.4 198.5 124.15 198.55 125.5
L 193.25 125.5
Q 193.35 124.15 194.05 123.4 194.7 122.6 195.9 122.6
M 182.95 122.5
L 182.75 122.5 182.2 120.2 179.35 120.2 179.35 133.95 183.1 133.95 183.1 126.95
Q 183.1 125.3 184.1 124.35 185.1 123.45 186.9 123.45
L 188 123.55 188.3 120.05 187.05 119.95
Q 185.75 119.95 184.7 120.65 183.6 121.35 182.95 122.5
M 208.45 121.95
L 207.95 120.2 205.05 120.2 205.05 133.95 208.8 133.95 208.8 127.5
Q 208.8 125.05 209.45 124 210.1 122.95 211.55 122.95 212.65 122.95 213.15 123.7 213.6 124.45 213.6 125.9
L 213.6 133.95 217.35 133.95 217.35 127.05
Q 217.35 124.9 218.05 123.95 218.75 122.95 220.1 122.95 221.2 122.95 221.7 123.7 222.2 124.45 222.2 125.9
L 222.2 133.95 225.95 133.95 225.95 125
Q 225.95 122.35 224.75 121.15 223.55 119.95 221.2 119.95 219.85 119.95 218.8 120.5 217.7 121 217.15 121.95
L 216.8 121.95
Q 215.75 119.95 212.65 119.95 211.3 119.95 210.25 120.5 209.2 121 208.65 121.95
L 208.45 121.95
M 237.8 123.7
Q 240 122.7 241.65 122.7 243.8 122.7 243.8 124.8
L 243.8 125.4 241.4 125.45
Q 238.3 125.6 236.8 126.6 235.25 127.65 235.25 129.85 235.25 131.95 236.4 133.05 237.55 134.2 239.5 134.2 241.1 134.2 242.15 133.75 243.1 133.25 244.05 132.1
L 244.15 132.1 244.9 133.95 247.5 133.95 247.5 124.8
Q 247.5 122.35 246.05 121.15 244.55 119.9 241.8 119.9 238.9 119.9 236.55 121.15
L 237.8 123.7
M 240.9 131.45
Q 239.1 131.45 239.1 129.85 239.1 128.75 239.9 128.2 240.7 127.7 242.35 127.65
L 243.8 127.6 243.8 128.7
Q 243.8 129.95 243 130.7 242.25 131.45 240.9 131.45
M 333.75 121.15
Q 332.25 119.9 329.5 119.9 326.6 119.9 324.25 121.15
L 325.5 123.7
Q 327.7 122.7 329.35 122.7 331.5 122.7 331.5 124.8
L 331.5 125.4 329.1 125.45
Q 326 125.6 324.5 126.6 322.95 127.65 322.95 129.85 322.95 131.95 324.1 133.05 325.25 134.2 327.2 134.2 328.8 134.2 329.85 133.75 330.8 133.25 331.75 132.1
L 331.85 132.1 332.6 133.95 335.2 133.95 335.2 124.8
Q 335.2 122.35 333.75 121.15
M 331.5 127.6
L 331.5 128.7
Q 331.5 129.95 330.7 130.7 329.95 131.45 328.6 131.45 326.8 131.45 326.8 129.85 326.8 128.75 327.6 128.2 328.4 127.7 330.05 127.65
L 331.5 127.6
M 341.9 123.6
Q 341.9 122.75 343.55 122.75 344.5 122.75 345.4 123
L 347.35 123.75 348.45 121.05
Q 346.1 119.95 343.65 119.95 341 119.95 339.6 120.95 338.2 121.95 338.2 123.8 338.2 124.85 338.55 125.6 338.85 126.3 339.6 126.9 340.35 127.45 341.95 128.1
L 343.7 128.95
Q 344.35 129.3 344.65 129.55 344.9 129.85 344.9 130.25 344.9 131.45 342.85 131.45 341.85 131.45 340.55 131.1 339.25 130.8 338.2 130.3
L 338.2 133.4
Q 339.15 133.8 340.2 134 341.25 134.2 342.75 134.2 345.65 134.2 347.15 133.1 348.6 132 348.6 129.85 348.6 128.85 348.25 128.1 347.9 127.35 347.15 126.8 346.4 126.25 344.8 125.6 343 124.85 342.45 124.5 341.9 124.15 341.9 123.6 Z"/>
</g>

<g id="Layer1_1_MEMBER_1_FILL">
<path fill="#FAC496" stroke="none" d="
M 140.25 160.9
L 128.25 160.9 128.25 207.9
Q 128.25 211.2 126.85 212.9 125.45 214.6 122.4 214.6 119.55 214.6 116.8 213.85
L 116.8 223.3
Q 120.1 224.25 124.7 224.25 132.15 224.25 136.2 220.5 140.25 216.65 140.25 209.65
L 140.25 160.9
M 127.75 149.5
Q 127.75 155.4 134.25 155.4 137.55 155.4 139.2 153.9 140.8 152.3 140.8 149.5 140.8 143.65 134.25 143.65 127.75 143.65 127.75 149.5
M 114.15 166.15
Q 109.75 160.05 101.95 160.05 93.65 160.05 89.45 166.6
L 89 166.6 89.45 157.9 89.45 143.65 77.45 143.65 77.45 204.9 86.6 204.9 88.65 200.05 89.45 200.05
Q 93.85 205.7 101.6 205.7 109.45 205.7 114 199.7 118.55 193.7 118.55 182.8 118.55 172.25 114.15 166.15
M 91.6 172.4
Q 93.65 169.65 98.1 169.65 101.9 169.65 104.1 172.95 106.3 176.15 106.3 182.65 106.3 189.15 104.15 192.6 101.95 195.95 98.25 195.95 93.65 195.95 91.6 192.9 89.45 189.8 89.45 182.75
L 89.45 181.45
Q 89.55 175.15 91.6 172.4
M 18.85 154.05
Q 11.75 161.6 11.75 175.95 11.75 190.35 18.8 198 25.9 205.7 39.15 205.7 52.35 205.7 59.45 198 66.55 190.35 66.55 176.05 66.55 161.7 59.55 154.1 52.5 146.45 39.2 146.45 25.95 146.45 18.85 154.05
M 24.55 176.05
Q 24.55 166.4 28.25 161.5 31.95 156.6 39.2 156.6 53.75 156.6 53.75 176.05 53.75 195.45 39.15 195.45 31.85 195.45 28.2 190.55 24.55 185.7 24.55 176.05
M 247.1 160.9
L 235.1 160.9 235.1 204.9 247.1 204.9 247.1 160.9
M 265.9 160.9
L 253.35 160.9 270.1 204.9 282.45 204.9 299.2 160.9 286.65 160.9 278.2 185.95
Q 276.6 191.2 276.4 195
L 276.2 195
Q 275.85 190.75 274.4 185.95
L 265.9 160.9
M 234.6 149.5
Q 234.6 155.4 241.1 155.4 244.4 155.4 246.05 153.9 247.65 152.3 247.65 149.5 247.65 143.65 241.1 143.65 234.6 143.65 234.6 149.5
M 180.85 195.9
Q 177.3 196.75 173.3 196.75 168.2 196.75 165.35 193.9 162.55 191 162.35 185.9
L 190.7 185.9 190.7 180.05
Q 190.7 170.7 185.5 165.4 180.35 160.05 171 160.05 161.25 160.05 155.7 166.1 150.15 172.15 150.15 183.2 150.15 193.95 156.15 199.8 162.15 205.7 172.75 205.7 177.95 205.7 181.5 204.95 185.1 204.15 188.25 202.6
L 188.25 193.3
Q 184.4 195.1 180.85 195.9
M 165.1 171.05
Q 167.25 168.6 171.1 168.6 174.9 168.6 177.15 171.05 179.4 173.45 179.45 177.9
L 162.6 177.9
Q 162.95 173.45 165.1 171.05
M 195.95 169.9
L 201.7 169.9 201.7 191.1
Q 201.7 198.4 205 202.05 208.25 205.7 215.5 205.7 222 205.7 226.5 203.7
L 226.5 194.75
Q 222.1 196.1 218.95 196.1 216.6 196.1 215.15 194.9 213.7 193.7 213.7 191.1
L 213.7 169.9 226.05 169.9 226.05 160.9 213.7 160.9 213.7 151.5 206.05 151.5 202.55 160.8 195.95 164.8 195.95 169.9
M 342.65 170.75
Q 340.05 165.55 335.2 162.8 330.35 160.05 324.05 160.05 313.85 160.05 308.2 166.05 302.55 172.05 302.55 182.8 302.55 189.75 305.15 194.95 307.75 200.15 312.6 202.95 317.45 205.7 323.8 205.7 333.9 205.7 339.6 199.6 345.25 193.55 345.25 182.8 345.25 175.9 342.65 170.75
M 332.95 182.8
Q 332.95 189.4 330.9 192.75 328.75 196.05 323.95 196.05 319.1 196.05 317 192.7 314.8 189.35 314.8 182.8 314.8 176.25 316.95 173 319.05 169.75 323.85 169.75 328.7 169.75 330.85 173 332.95 176.3 332.95 182.8
M 356.7 163.3
Q 352.1 166.5 352.1 172.35 352.1 175.75 353.2 178.15 354.3 180.45 356.7 182.25 359.05 184.05 364.15 186.2
L 369.8 188.85
Q 371.9 189.95 372.8 190.85 373.65 191.7 373.65 193.15 373.65 196.9 367.1 196.9 363.95 196.9 359.75 195.85 355.55 194.8 352.2 193.2
L 352.2 203.15
Q 355.15 204.4 358.55 205.05 361.9 205.7 366.75 205.7 376.1 205.7 380.8 202.15 385.5 198.6 385.5 191.85 385.5 188.55 384.35 186.2 383.2 183.85 380.8 182.05 378.4 180.2 373.25 178.15 367.45 175.8 365.8 174.65 364.05 173.45 364.05 171.85 364.05 168.95 369.35 168.95 372.35 168.95 375.25 169.85
L 381.4 172.2 385.05 163.55
Q 377.5 160.05 369.55 160.05 361.2 160.05 356.7 163.3 Z"/>
</g>

<g id="Layer1_1_MEMBER_2_FILL">
<path fill="#328B92" stroke="none" d="
M 170.35 217.65
Q 169.15 218.95 169.15 221.25 169.15 223.55 170.45 224.8 171.7 226 173.95 226 175 226 175.8 225.85 176.55 225.7 177.2 225.35
L 177.2 223.4
Q 176.4 223.8 175.65 223.95 174.9 224.15 174.05 224.15 172.95 224.15 172.35 223.5 171.75 222.9 171.75 221.85
L 177.75 221.85 177.75 220.6
Q 177.75 218.65 176.65 217.5 175.55 216.4 173.55 216.4 171.5 216.4 170.35 217.65
M 173.6 218.2
Q 174.4 218.2 174.85 218.7 175.35 219.2 175.35 220.15
L 171.8 220.15
Q 171.85 219.2 172.3 218.7 172.75 218.2 173.6 218.2
M 188.45 216.55
L 188.45 222.6
Q 188.45 224.25 189.25 225.15 190.1 226 191.75 226 192.7 226 193.45 225.65 194.2 225.3 194.6 224.65
L 194.7 224.65 195.05 225.85 197 225.85 197 216.55 194.45 216.55 194.45 220.95
Q 194.45 222.55 194 223.3 193.55 224 192.45 224 191.7 224 191.3 223.5 190.95 223 190.95 222
L 190.95 216.55 188.45 216.55
M 186.65 217
Q 185.4 216.4 183.8 216.4 181.6 216.4 180.4 217.65 179.2 218.9 179.2 221.25 179.2 226 183.55 226 184.5 226 185.15 225.85 185.75 225.7 186.4 225.35
L 186.4 223.15
Q 185.75 223.55 185.15 223.75 184.5 223.95 183.8 223.95 181.8 223.95 181.8 221.25 181.8 218.45 183.8 218.45 184.3 218.45 184.8 218.6
L 185.9 219 186.65 217
M 206.7 219
Q 206.7 219.7 206.95 220.2 207.15 220.7 207.7 221.05 208.2 221.45 209.25 221.9
L 210.45 222.45
Q 210.9 222.7 211.1 222.9 211.25 223.05 211.25 223.35 211.25 224.15 209.9 224.15 209.2 224.15 208.35 223.95 207.45 223.7 206.75 223.4
L 206.75 225.5
Q 207.35 225.75 208.05 225.9 208.8 226 209.8 226 211.8 226 212.75 225.25 213.75 224.5 213.75 223.1 213.75 222.4 213.5 221.9 213.3 221.4 212.75 221 212.25 220.65 211.2 220.2 209.95 219.7 209.6 219.45 209.25 219.2 209.25 218.85 209.25 218.25 210.35 218.25 211 218.25 211.6 218.45
L 212.9 218.95 213.65 217.1
Q 212.1 216.4 210.4 216.4 208.65 216.4 207.7 217.05 206.7 217.75 206.7 219
M 205.65 216.45
L 204.8 216.4
Q 203.95 216.4 203.2 216.85 202.5 217.35 202.05 218.1
L 201.9 218.1 201.55 216.55 199.65 216.55 199.65 225.85 202.15 225.85 202.15 221.1
Q 202.15 220 202.85 219.35 203.5 218.75 204.75 218.75
L 205.5 218.85 205.65 216.45
M 224.2 221.2
Q 224.2 219.7 223.65 218.65 223.1 217.55 222.05 216.95 221.05 216.4 219.7 216.4 217.55 216.4 216.35 217.65 215.15 218.9 215.15 221.2 215.15 222.65 215.7 223.75 216.25 224.85 217.3 225.45 218.3 226 219.65 226 221.8 226 223 224.75 224.2 223.45 224.2 221.2
M 218.2 219.1
Q 218.65 218.45 219.65 218.45 220.7 218.45 221.15 219.1 221.6 219.8 221.6 221.2 221.6 222.55 221.15 223.3 220.7 224 219.7 224 218.65 224 218.2 223.25 217.75 222.55 217.75 221.2 217.75 219.8 218.2 219.1
M 226.6 217.05
Q 225.6 217.75 225.6 219 225.6 219.7 225.85 220.2 226.05 220.7 226.6 221.05 227.1 221.45 228.15 221.9
L 229.35 222.45
Q 229.8 222.7 230 222.9 230.15 223.05 230.15 223.35 230.15 224.15 228.8 224.15 228.1 224.15 227.25 223.95 226.35 223.7 225.65 223.4
L 225.65 225.5
Q 226.25 225.75 226.95 225.9 227.7 226 228.7 226 230.7 226 231.65 225.25 232.65 224.5 232.65 223.1 232.65 222.4 232.4 221.9 232.2 221.4 231.65 221 231.15 220.65 230.1 220.2 228.85 219.7 228.5 219.45 228.15 219.2 228.15 218.85 228.15 218.25 229.25 218.25 229.9 218.25 230.5 218.45
L 231.8 218.95 232.55 217.1
Q 231 216.4 229.3 216.4 227.55 216.4 226.6 217.05
M 255.8 219.45
Q 255.45 219.2 255.45 218.85 255.45 218.25 256.55 218.25 257.2 218.25 257.8 218.45
L 259.1 218.95 259.85 217.1
Q 258.3 216.4 256.6 216.4 254.85 216.4 253.9 217.05 252.9 217.75 252.9 219 252.9 219.7 253.15 220.2 253.35 220.7 253.9 221.05 254.4 221.45 255.45 221.9
L 256.65 222.45
Q 257.1 222.7 257.3 222.9 257.45 223.05 257.45 223.35 257.45 224.15 256.1 224.15 255.4 224.15 254.55 223.95 253.65 223.7 252.95 223.4
L 252.95 225.5
Q 253.55 225.75 254.25 225.9 255 226 256 226 258 226 258.95 225.25 259.95 224.5 259.95 223.1 259.95 222.4 259.7 221.9 259.5 221.4 258.95 221 258.45 220.65 257.4 220.2 256.15 219.7 255.8 219.45
M 244.1 219.65
L 244.1 220.05 242.45 220.1
Q 240.4 220.2 239.35 220.9 238.3 221.6 238.3 223.05 238.3 224.5 239.1 225.25 239.85 226 241.2 226 242.3 226 242.95 225.7 243.65 225.4 244.25 224.6
L 244.35 224.6 244.85 225.85 246.6 225.85 246.6 219.65
Q 246.6 218 245.6 217.2 244.6 216.35 242.75 216.35 240.8 216.35 239.2 217.2
L 240 218.9
Q 241.5 218.25 242.65 218.25 244.1 218.25 244.1 219.65
M 244.1 221.55
L 244.1 222.3
Q 244.1 223.15 243.55 223.65 243.05 224.15 242.15 224.15 240.9 224.15 240.9 223.1 240.9 222.35 241.45 222 242 221.6 243.1 221.6
L 244.1 221.55
M 278 216.45
L 277.15 216.4
Q 276.3 216.4 275.55 216.85 274.85 217.35 274.4 218.1
L 274.25 218.1 273.9 216.55 272 216.55 272 225.85 274.5 225.85 274.5 221.1
Q 274.5 220 275.2 219.35 275.85 218.75 277.1 218.75
L 277.85 218.85 278 216.45
M 269.95 221.85
L 269.95 220.6
Q 269.95 218.65 268.85 217.5 267.75 216.4 265.75 216.4 263.7 216.4 262.55 217.65 261.35 218.95 261.35 221.25 261.35 223.55 262.65 224.8 263.9 226 266.15 226 267.2 226 268 225.85 268.75 225.7 269.4 225.35
L 269.4 223.4
Q 268.6 223.8 267.85 223.95 267.1 224.15 266.25 224.15 265.15 224.15 264.55 223.5 263.95 222.9 263.95 221.85
L 269.95 221.85
M 265.8 218.2
Q 266.6 218.2 267.05 218.7 267.55 219.2 267.55 220.15
L 264 220.15
Q 264.05 219.2 264.5 218.7 264.95 218.2 265.8 218.2
M 287.3 220.6
Q 287.3 218.65 286.2 217.5 285.1 216.4 283.1 216.4 281.05 216.4 279.9 217.65 278.7 218.95 278.7 221.25 278.7 223.55 280 224.8 281.25 226 283.5 226 284.55 226 285.35 225.85 286.1 225.7 286.75 225.35
L 286.75 223.4
Q 285.95 223.8 285.2 223.95 284.45 224.15 283.6 224.15 282.5 224.15 281.9 223.5 281.3 222.9 281.3 221.85
L 287.3 221.85 287.3 220.6
M 284.4 218.7
Q 284.9 219.2 284.9 220.15
L 281.35 220.15
Q 281.4 219.2 281.85 218.7 282.3 218.2 283.15 218.2 283.95 218.2 284.4 218.7
M 292.85 216.75
Q 292.1 217.1 291.75 217.75
L 291.6 217.75 291.25 216.55 289.35 216.55 289.35 225.85 291.85 225.85 291.85 221.5
Q 291.85 219.85 292.3 219.15 292.75 218.4 293.7 218.4 294.45 218.4 294.8 218.9 295.1 219.4 295.1 220.4
L 295.1 225.85 297.65 225.85 297.65 221.2
Q 297.65 219.75 298.1 219.1 298.55 218.4 299.5 218.4 300.25 218.4 300.55 218.9 300.9 219.4 300.9 220.4
L 300.9 225.85 303.45 225.85 303.45 219.8
Q 303.45 218 302.65 217.2 301.8 216.4 300.25 216.4 299.35 216.4 298.6 216.75 297.85 217.1 297.5 217.75
L 297.3 217.75
Q 296.55 216.4 294.45 216.4 293.55 216.4 292.85 216.75
M 311 217.65
Q 309.8 218.95 309.8 221.25 309.8 223.55 311.1 224.8 312.35 226 314.6 226 315.65 226 316.45 225.85 317.2 225.7 317.85 225.35
L 317.85 223.4
Q 317.05 223.8 316.3 223.95 315.55 224.15 314.7 224.15 313.6 224.15 313 223.5 312.4 222.9 312.4 221.85
L 318.4 221.85 318.4 220.6
Q 318.4 218.65 317.3 217.5 316.2 216.4 314.2 216.4 312.15 216.4 311 217.65
M 312.45 220.15
Q 312.5 219.2 312.95 218.7 313.4 218.2 314.25 218.2 315.05 218.2 315.5 218.7 316 219.2 316 220.15
L 312.45 220.15
M 161.3 225.85
L 161.3 221.2 162.7 221.2 165.6 225.85 168.45 225.85 164.85 220.55
Q 165.95 220.1 166.55 219.25 167.1 218.4 167.1 217.35 167.1 215.5 165.95 214.6 164.75 213.7 162.25 213.7
L 158.75 213.7 158.75 225.85 161.3 225.85
M 161.3 219.1
L 161.3 215.8 162.1 215.8
Q 163.35 215.8 163.95 216.15 164.5 216.55 164.5 217.4 164.5 218.3 163.95 218.7 163.35 219.1 162.15 219.1
L 161.3 219.1
M 328.6 217.75
L 328.4 217.75
Q 327.65 216.4 325.55 216.4 324.65 216.4 323.95 216.75 323.2 217.1 322.85 217.75
L 322.7 217.75 322.35 216.55 320.45 216.55 320.45 225.85 322.95 225.85 322.95 221.5
Q 322.95 219.85 323.4 219.15 323.85 218.4 324.8 218.4 325.55 218.4 325.9 218.9 326.2 219.4 326.2 220.4
L 326.2 225.85 328.75 225.85 328.75 221.2
Q 328.75 219.75 329.2 219.1 329.65 218.4 330.6 218.4 331.35 218.4 331.65 218.9 332 219.4 332 220.4
L 332 225.85 334.55 225.85 334.55 219.8
Q 334.55 218 333.75 217.2 332.9 216.4 331.35 216.4 330.45 216.4 329.7 216.75 328.95 217.1 328.6 217.75
M 345.75 221.2
Q 345.75 218.95 344.85 217.65 343.9 216.4 342.25 216.4 340.5 216.4 339.6 217.75
L 339.5 217.75 339.15 216.55 337.1 216.55 337.1 229.95 339.6 229.95 339.5 224.85 339.6 224.85
Q 340.55 226 342.2 226 343.25 226 344.1 225.45 344.9 224.85 345.35 223.75 345.75 222.65 345.75 221.2
M 341.45 218.4
Q 342.35 218.4 342.75 219.1 343.15 219.8 343.15 221.15 343.15 223.95 341.45 223.95 340.5 223.95 340.05 223.3 339.6 222.65 339.6 221.15
L 339.6 220.9
Q 339.65 219.55 340.05 219 340.5 218.4 341.45 218.4
M 348.45 217.65
Q 347.25 218.95 347.25 221.25 347.25 223.55 348.55 224.8 349.8 226 352.05 226 353.1 226 353.9 225.85 354.65 225.7 355.3 225.35
L 355.3 223.4
Q 354.5 223.8 353.75 223.95 353 224.15 352.15 224.15 351.05 224.15 350.45 223.5 349.85 222.9 349.85 221.85
L 355.85 221.85 355.85 220.6
Q 355.85 218.65 354.75 217.5 353.65 216.4 351.65 216.4 349.6 216.4 348.45 217.65
M 351.7 218.2
Q 352.5 218.2 352.95 218.7 353.45 219.2 353.45 220.15
L 349.9 220.15
Q 349.95 219.2 350.4 218.7 350.85 218.2 351.7 218.2
M 372.05 219.15
Q 372.5 218.4 373.6 218.4 375.05 218.4 375.05 220.4
L 375.05 225.85 377.6 225.85 377.6 219.8
Q 377.6 218.15 376.75 217.25 375.9 216.4 374.25 216.4 372.45 216.4 371.6 217.75
L 371.45 217.75 371.55 212.9 369.05 212.9 369.05 225.85 371.55 225.85 371.55 221.5
Q 371.55 219.85 372.05 219.15
M 366.45 219.8
Q 366.45 218.15 365.6 217.25 364.8 216.4 363.15 216.4 362.2 216.4 361.45 216.75 360.7 217.05 360.3 217.75
L 360.15 217.75 359.8 216.55 357.9 216.55 357.9 225.85 360.4 225.85 360.4 221.5
Q 360.4 219.85 360.9 219.15 361.35 218.4 362.45 218.4 363.2 218.4 363.55 218.9 363.9 219.4 363.9 220.4
L 363.9 225.85 366.45 225.85 366.45 219.8
M 385.35 219.65
L 385.35 220.05 383.7 220.1
Q 381.65 220.2 380.6 220.9 379.55 221.6 379.55 223.05 379.55 224.5 380.35 225.25 381.1 226 382.45 226 383.55 226 384.2 225.7 384.9 225.4 385.5 224.6
L 385.6 224.6 386.1 225.85 387.85 225.85 387.85 219.65
Q 387.85 218 386.85 217.2 385.85 216.35 384 216.35 382.05 216.35 380.45 217.2
L 381.25 218.9
Q 382.75 218.25 383.9 218.25 385.35 218.25 385.35 219.65
M 385.35 221.55
L 385.35 222.3
Q 385.35 223.15 384.8 223.65 384.3 224.15 383.4 224.15 382.15 224.15 382.15 223.1 382.15 222.35 382.7 222 383.25 221.6 384.35 221.6
L 385.35 221.55
M 393.4 216.4
Q 391.7 216.4 390.75 217.65 389.8 218.95 389.8 221.2 389.8 223.45 390.75 224.75 391.7 226 393.3 226 395.1 226 395.95 224.65
L 396.05 224.65 396.55 225.85 398.5 225.85 398.5 212.9 395.95 212.9 395.95 215.9
Q 395.95 216.7 396.15 217.75
L 396.05 217.75
Q 395.15 216.4 393.4 216.4
M 392.4 221.25
Q 392.4 219.9 392.85 219.15 393.3 218.45 394.15 218.45 395.2 218.45 395.65 219.1 396.15 219.75 396.15 221.25
L 396.15 221.5
Q 396.1 222.85 395.65 223.45 395.2 224 394.2 224 393.35 224 392.85 223.3 392.4 222.6 392.4 221.25
M 411.25 220.2
Q 411.45 220.7 412 221.05 412.5 221.45 413.55 221.9
L 414.75 222.45
Q 415.2 222.7 415.4 222.9 415.55 223.05 415.55 223.35 415.55 224.15 414.2 224.15 413.5 224.15 412.65 223.95 411.75 223.7 411.05 223.4
L 411.05 225.5
Q 411.65 225.75 412.35 225.9 413.1 226 414.1 226 416.1 226 417.05 225.25 418.05 224.5 418.05 223.1 418.05 222.4 417.8 221.9 417.6 221.4 417.05 221 416.55 220.65 415.5 220.2 414.25 219.7 413.9 219.45 413.55 219.2 413.55 218.85 413.55 218.25 414.65 218.25 415.3 218.25 415.9 218.45
L 417.2 218.95 417.95 217.1
Q 416.4 216.4 414.7 216.4 412.95 216.4 412 217.05 411 217.75 411 219 411 219.7 411.25 220.2
M 409.05 218.65
Q 408.5 217.55 407.45 216.95 406.45 216.4 405.1 216.4 402.95 216.4 401.75 217.65 400.55 218.9 400.55 221.2 400.55 222.65 401.1 223.75 401.65 224.85 402.7 225.45 403.7 226 405.05 226 407.2 226 408.4 224.75 409.6 223.45 409.6 221.2 409.6 219.7 409.05 218.65
M 405.05 218.45
Q 406.1 218.45 406.55 219.1 407 219.8 407 221.2 407 222.55 406.55 223.3 406.1 224 405.1 224 404.05 224 403.6 223.25 403.15 222.55 403.15 221.2 403.15 219.8 403.6 219.1 404.05 218.45 405.05 218.45 Z"/>
</g>

<g id="Layer1_1_MEMBER_3_FILL">
<path fill="#47B5C3" stroke="none" d="
M 190.35 244.75
Q 188.1 242.4 184 242.4 179.75 242.4 177.35 245.05 174.95 247.7 174.95 252.55 174.95 257.2 177.55 259.8 180.15 262.35 184.8 262.35 187.05 262.35 188.6 262 190.2 261.65 191.55 261
L 191.55 256.95
Q 189.85 257.7 188.3 258.1 186.75 258.45 185.05 258.45 182.8 258.45 181.55 257.2 180.35 255.95 180.25 253.7
L 192.65 253.7 192.65 251.15
Q 192.65 247.05 190.35 244.75
M 184.05 246.15
Q 185.75 246.15 186.7 247.2 187.7 248.25 187.7 250.2
L 180.35 250.2
Q 180.5 248.25 181.45 247.2 182.4 246.15 184.05 246.15
M 181.05 240.2
L 181.05 240.65 184.5 240.65 190.95 235.4 190.95 235.05 185.05 235.05
Q 184 236.75 181.05 240.2
M 221.8 242.8
L 216.55 242.8 216.55 262 221.8 262 221.8 242.8
M 219.2 240.4
Q 220.6 240.4 221.35 239.75 222.05 239.05 222.05 237.8 222.05 235.25 219.2 235.25 216.35 235.25 216.35 237.8 216.35 240.4 219.2 240.4
M 206.85 242.8
L 203.55 242.4
Q 199.75 242.4 197.7 244.15 195.65 245.85 195.65 249 195.65 250.95 196.55 252.4 197.4 253.85 198.95 254.5 197.75 255.2 197.1 255.95 196.45 256.65 196.45 257.75 196.45 258.65 197.05 259.45 197.65 260.2 198.45 260.55 196.35 261.05 195.3 262.2 194.2 263.4 194.2 265.15 194.2 267.65 196.35 269.05 198.45 270.45 202.45 270.45 207.75 270.45 210.55 268.6 213.35 266.75 213.35 263.4 213.35 260.75 211.7 259.4 210.05 258.05 206.85 258.05
L 203.6 258.05
Q 200.7 258.05 200.7 256.9 200.7 256.15 201.55 255.5
L 203.25 255.65
Q 207.1 255.65 209.25 253.95 211.4 252.2 211.4 249.1 211.4 247.5 210.55 246.2
L 213.55 245.45 213.55 242.8 206.85 242.8
M 201.35 251.55
Q 200.65 250.65 200.65 249.1 200.65 245.6 203.55 245.6 206.4 245.6 206.4 249.1 206.4 250.65 205.7 251.55 205 252.45 203.55 252.45 202.1 252.45 201.35 251.55
M 198.75 264.7
Q 198.75 263.6 199.7 262.95 200.7 262.25 202.15 262.25
L 204.85 262.25
Q 206.8 262.25 207.75 262.65 208.7 263.05 208.7 264.15 208.7 265.5 207.1 266.25 205.5 267.05 202.7 267.05 200.8 267.05 199.8 266.4 198.75 265.8 198.75 264.7
M 243.15 262
L 243.15 249.2
Q 243.15 245.75 241.1 244.05 239.05 242.4 235.15 242.4 231.15 242.4 227.8 244.15
L 229.55 247.65
Q 232.65 246.25 234.95 246.25 237.95 246.25 237.95 249.2
L 237.95 250.05 234.6 250.15
Q 230.3 250.3 228.2 251.75 226.05 253.2 226.05 256.25 226.05 259.2 227.65 260.75 229.2 262.35 232 262.35 234.25 262.35 235.65 261.7 237.05 261.05 238.35 259.4
L 238.5 259.4 239.5 262 243.15 262
M 237.95 253.1
L 237.95 254.7
Q 237.95 256.4 236.85 257.45 235.75 258.5 233.95 258.5 231.4 258.5 231.4 256.3 231.4 254.75 232.55 254 233.65 253.25 235.95 253.15
L 237.95 253.1
M 254.75 246.3
Q 256.05 246.3 257.3 246.7
L 260 247.7 261.6 243.95
Q 258.3 242.4 254.85 242.4 251.2 242.4 249.25 243.85 247.25 245.25 247.25 247.8 247.25 249.3 247.7 250.3 248.2 251.35 249.25 252.1 250.25 252.9 252.45 253.85
L 254.95 255
Q 255.9 255.45 256.25 255.85 256.65 256.25 256.65 256.85 256.65 258.5 253.8 258.5 252.4 258.5 250.55 258.05 248.75 257.6 247.25 256.9
L 247.25 261.25
Q 248.55 261.8 250.05 262.05 251.5 262.35 253.6 262.35 257.7 262.35 259.75 260.8 261.8 259.25 261.8 256.3 261.8 254.85 261.3 253.85 260.8 252.8 259.75 252 258.7 251.2 256.45 250.3 253.95 249.3 253.2 248.8 252.45 248.25 252.45 247.55 252.45 246.3 254.75 246.3
M 311.25 244.75
Q 309 242.4 304.9 242.4 300.65 242.4 298.25 245.05 295.85 247.7 295.85 252.55 295.85 257.2 298.45 259.8 301.05 262.35 305.7 262.35 307.95 262.35 309.5 262 311.1 261.65 312.45 261
L 312.45 256.95
Q 310.75 257.7 309.2 258.1 307.65 258.45 305.95 258.45 303.7 258.45 302.45 257.2 301.25 255.95 301.15 253.7
L 313.55 253.7 313.55 251.15
Q 313.55 247.05 311.25 244.75
M 302.35 247.2
Q 303.3 246.15 304.95 246.15 306.65 246.15 307.6 247.2 308.6 248.25 308.6 250.2
L 301.25 250.2
Q 301.4 248.25 302.35 247.2
M 291.6 235.25
L 286.35 235.25 286.35 241.4
Q 286.35 243.1 286.75 245.25
L 286.55 245.25
Q 284.65 242.4 281 242.4 277.55 242.4 275.6 245.05 273.65 247.7 273.65 252.45 273.65 257.1 275.55 259.7 277.5 262.35 280.9 262.35 284.55 262.35 286.35 259.5
L 286.55 259.5 287.55 262 291.6 262 291.6 235.25
M 282.7 258.15
Q 280.9 258.15 279.9 256.75 278.95 255.35 278.95 252.5 278.95 249.65 279.9 248.2 280.9 246.7 282.65 246.7 284.8 246.7 285.75 248.05 286.7 249.35 286.7 252.45
L 286.7 253.05
Q 286.6 255.85 285.7 257 284.75 258.15 282.7 258.15
M 107.6 246.7
L 110.1 246.7 110.1 256
Q 110.1 259.15 111.55 260.75 113 262.35 116.15 262.35 119 262.35 120.95 261.45
L 120.95 257.55
Q 119 258.15 117.65 258.15 116.6 258.15 116 257.65 115.35 257.1 115.35 256
L 115.35 246.7 120.75 246.7 120.75 242.8 115.35 242.8 115.35 238.7 112 238.7 110.5 242.75 107.6 244.5 107.6 246.7
M 98.5 246.3
Q 99.8 246.3 101.05 246.7
L 103.75 247.7 105.35 243.95
Q 102.05 242.4 98.6 242.4 94.95 242.4 93 243.85 91 245.25 91 247.8 91 249.3 91.45 250.3 91.95 251.35 93 252.1 94 252.9 96.2 253.85
L 98.7 255
Q 99.65 255.45 100 255.85 100.4 256.25 100.4 256.85 100.4 258.5 97.55 258.5 96.15 258.5 94.3 258.05 92.5 257.6 91 256.9
L 91 261.25
Q 92.3 261.8 93.8 262.05 95.25 262.35 97.35 262.35 101.45 262.35 103.5 260.8 105.55 259.25 105.55 256.3 105.55 254.85 105.05 253.85 104.55 252.8 103.5 252 102.45 251.2 100.2 250.3 97.7 249.3 96.95 248.8 96.2 248.25 96.2 247.55 96.2 246.3 98.5 246.3
M 87.3 241.25
L 87.3 236.85 72.8 236.85 72.8 262 87.3 262 87.3 257.6 78.15 257.6 78.15 251.1 86.65 251.1 86.65 246.75 78.15 246.75 78.15 241.25 87.3 241.25
M 161.9 242.75
L 159 244.5 159 246.7 161.5 246.7 161.5 256
Q 161.5 259.15 162.95 260.75 164.4 262.35 167.55 262.35 170.4 262.35 172.35 261.45
L 172.35 257.55
Q 170.4 258.15 169.05 258.15 168 258.15 167.4 257.65 166.75 257.1 166.75 256
L 166.75 246.7 172.15 246.7 172.15 242.8 166.75 242.8 166.75 238.7 163.4 238.7 161.9 242.75
M 153.6 244.05
Q 151.55 242.4 147.65 242.4 143.65 242.4 140.3 244.15
L 142.05 247.65
Q 145.15 246.25 147.45 246.25 150.45 246.25 150.45 249.2
L 150.45 250.05 147.1 250.15
Q 142.8 250.3 140.7 251.75 138.55 253.2 138.55 256.25 138.55 259.2 140.15 260.75 141.7 262.35 144.5 262.35 146.75 262.35 148.15 261.7 149.55 261.05 150.85 259.4
L 151 259.4 152 262 155.65 262 155.65 249.2
Q 155.65 245.75 153.6 244.05
M 148.45 253.15
L 150.45 253.1 150.45 254.7
Q 150.45 256.4 149.35 257.45 148.25 258.5 146.45 258.5 143.9 258.5 143.9 256.3 143.9 254.75 145.05 254 146.15 253.25 148.45 253.15
M 132.15 243.4
Q 130.6 244.4 129.7 246
L 129.45 246 128.65 242.8 124.7 242.8 124.7 262 129.95 262 129.95 252.2
Q 129.95 249.9 131.35 248.6 132.75 247.3 135.25 247.3
L 136.8 247.5 137.2 242.6 135.45 242.4
Q 133.65 242.4 132.15 243.4
M 356.1 246.65
Q 357.2 246.65 358.25 247
L 360.55 247.8 362.1 243.75
Q 359.45 242.4 356.1 242.4 351.55 242.4 349.1 245 346.7 247.6 346.7 252.5 346.7 260.912890625 353.2 262.15
L 351.95 264.65
Q 354.8 265.1 354.8 266.5 354.8 267.55 353.55 267.55
L 351.1 267.2 351.1 270.1
Q 352.3 270.45 353.65 270.45 356.35 270.45 357.65 269.5 358.95 268.5 358.95 266.3 358.95 265.2 358.2 264.35 357.4 263.45 356.15 263.05
L 356.45 262.3
Q 357.921875 262.2873046875 358.95 262.05 360.25 261.75 361.5 260.9
L 361.5 256.45
Q 360.2 257.3 358.9 257.7 357.65 258.1 356.1 258.1 352.05 258.1 352.05 252.45 352.05 246.65 356.1 246.65
M 340.55 244.05
Q 338.5 242.4 334.6 242.4 330.6 242.4 327.25 244.15
L 329 247.65
Q 332.1 246.25 334.4 246.25 337.4 246.25 337.4 249.2
L 337.4 250.05 334.05 250.15
Q 329.75 250.3 327.65 251.75 325.5 253.2 325.5 256.25 325.5 259.2 327.1 260.75 328.65 262.35 331.45 262.35 333.7 262.35 335.1 261.7 336.5 261.05 337.8 259.4
L 337.95 259.4 338.95 262 342.6 262 342.6 249.2
Q 342.6 245.75 340.55 244.05
M 337.4 253.1
L 337.4 254.7
Q 337.4 256.4 336.3 257.45 335.2 258.5 333.4 258.5 330.85 258.5 330.85 256.3 330.85 254.75 332 254 333.1 253.25 335.4 253.15
L 337.4 253.1
M 403.3 247.1
Q 402.15 244.85 400.05 243.65 397.9 242.4 395.15 242.4 390.7 242.4 388.25 245.05 385.8 247.65 385.8 252.35 385.8 255.4 386.9 257.65 388.05 259.9 390.15 261.15 392.3 262.35 395.05 262.35 399.45 262.35 401.95 259.7 404.4 257.05 404.4 252.35 404.4 249.35 403.3 247.1
M 398.15 256.7
Q 397.2 258.15 395.1 258.15 393 258.15 392.05 256.65 391.15 255.2 391.15 252.35 391.15 249.5 392.05 248.1 393 246.65 395.1 246.65 397.2 246.65 398.1 248.1 399.05 249.5 399.05 252.35 399.05 255.25 398.15 256.7
M 373.65 242.4
Q 369.65 242.4 366.3 244.15
L 368.05 247.65
Q 371.15 246.25 373.45 246.25 376.45 246.25 376.45 249.2
L 376.45 250.05 373.1 250.15
Q 368.8 250.3 366.7 251.75 364.55 253.2 364.55 256.25 364.55 259.2 366.15 260.75 367.7 262.35 370.5 262.35 372.75 262.35 374.15 261.7 375.55 261.05 376.85 259.4
L 377 259.4 378 262 381.65 262 381.65 249.2
Q 381.65 245.75 379.6 244.05 377.55 242.4 373.65 242.4
M 376.45 253.1
L 376.45 254.7
Q 376.45 256.4 375.35 257.45 374.25 258.5 372.45 258.5 369.9 258.5 369.9 256.3 369.9 254.75 371.05 254 372.15 253.25 374.45 253.15
L 376.45 253.1
M 371.1 238.85
Q 371.7 238.85 372.35 239.15
L 375 240.4
Q 375.65 240.65 376.35 240.65 378.35 240.65 379.6 239.25 380.85 237.85 381.05 235.35
L 378.45 235.35
Q 378.25 236.3 377.75 236.75 377.25 237.2 376.75 237.2 376.1 237.2 375.5 236.9
L 372.85 235.7
Q 372.15 235.4 371.45 235.4 369.45 235.4 368.2 236.8 366.95 238.2 366.8 240.7
L 369.35 240.7
Q 369.55 239.8 370.05 239.35 370.55 238.85 371.1 238.85 Z"/>
</g>

<g id="Layer1_1_MEMBER_4_FILL">
<path fill="#EF6928" stroke="none" d="
M 237.45 279.85
Q 235.8 279.85 234.95 281.15
L 234.85 281.15 234.5 280 232.5 280 232.5 292.8 234.95 292.8 234.95 289.2 234.8 287.9 234.95 287.9
Q 235.85 289.05 237.4 289.05 238.45 289.05 239.25 288.5 240 287.95 240.4 286.9 240.85 285.85 240.85 284.45 240.85 282.25 239.95 281.05 239.05 279.85 237.45 279.85
M 234.95 284.4
L 234.95 284.15
Q 234.95 282.9 235.4 282.35 235.8 281.8 236.7 281.8 237.55 281.8 237.95 282.45 238.35 283.1 238.35 284.4 238.35 287.1 236.75 287.1 235.8 287.1 235.4 286.45 234.95 285.85 234.95 284.4
M 218.7 281.15
L 218.4 280 216.5 280 216.5 288.9 218.95 288.9 218.95 284.7
Q 218.95 283.15 219.35 282.45 219.8 281.8 220.75 281.8 221.4 281.8 221.75 282.25 222.05 282.75 222.05 283.7
L 222.05 288.9 224.5 288.9 224.5 284.45
Q 224.5 283.05 224.95 282.4 225.35 281.8 226.25 281.8 226.95 281.8 227.3 282.25 227.6 282.75 227.6 283.7
L 227.6 288.9 230.05 288.9 230.05 283.1
Q 230.05 281.4 229.25 280.6 228.5 279.85 226.95 279.85 226.1 279.85 225.4 280.2 224.7 280.5 224.35 281.15
L 224.15 281.15
Q 223.4 279.85 221.45 279.85 220.55 279.85 219.85 280.2 219.2 280.55 218.85 281.15
L 218.7 281.15
M 214.6 283.9
Q 214.6 282 213.55 280.9 212.5 279.85 210.6 279.85 208.6 279.85 207.5 281.05 206.4 282.3 206.4 284.5 206.4 286.7 207.6 287.85 208.8 289.05 210.95 289.05 212 289.05 212.7 288.9 213.45 288.75 214.1 288.45
L 214.1 286.55
Q 213.3 286.9 212.6 287.1 211.85 287.25 211.05 287.25 210.05 287.25 209.45 286.65 208.9 286.1 208.85 285.05
L 214.6 285.05 214.6 283.9
M 211.85 282.05
Q 212.3 282.55 212.3 283.45
L 208.9 283.45
Q 208.95 282.55 209.4 282.05 209.85 281.55 210.6 281.55 211.4 281.55 211.85 282.05
M 193.8 283.9
Q 193.8 282 192.75 280.9 191.7 279.85 189.8 279.85 187.8 279.85 186.7 281.05 185.6 282.3 185.6 284.5 185.6 286.7 186.8 287.85 188 289.05 190.15 289.05 191.2 289.05 191.9 288.9 192.65 288.75 193.3 288.45
L 193.3 286.55
Q 192.5 286.9 191.8 287.1 191.05 287.25 190.25 287.25 189.25 287.25 188.65 286.65 188.1 286.1 188.05 285.05
L 193.8 285.05 193.8 283.9
M 191.05 282.05
Q 191.5 282.55 191.5 283.45
L 188.1 283.45
Q 188.15 282.55 188.6 282.05 189.05 281.55 189.8 281.55 190.6 281.55 191.05 282.05
M 199 281.8
L 200.2 281.8 200.2 286.1
Q 200.2 287.6 200.85 288.35 201.5 289.05 202.95 289.05 204.3 289.05 205.2 288.65
L 205.2 286.85
Q 204.3 287.1 203.65 287.1 203.2 287.1 202.9 286.9 202.6 286.65 202.6 286.1
L 202.6 281.8 205.1 281.8 205.1 280 202.6 280 202.6 278.1 201.05 278.1 200.35 280 199 280.8 199 281.8
M 176.7 283.1
Q 176.7 281.5 175.9 280.7 175.1 279.85 173.55 279.85 172.6 279.85 171.9 280.15 171.2 280.5 170.8 281.15
L 170.65 281.15 170.35 280 168.45 280 168.45 288.9 170.9 288.9 170.9 284.7
Q 170.9 283.15 171.35 282.45 171.8 281.8 172.85 281.8 173.6 281.8 173.9 282.25 174.25 282.75 174.25 283.7
L 174.25 288.9 176.7 288.9 176.7 283.1
M 181.8 278.1
L 180.25 278.1 179.55 280 178.2 280.8 178.2 281.8 179.4 281.8 179.4 286.1
Q 179.4 287.6 180.05 288.35 180.7 289.05 182.15 289.05 183.5 289.05 184.4 288.65
L 184.4 286.85
Q 183.5 287.1 182.85 287.1 182.4 287.1 182.1 286.9 181.8 286.65 181.8 286.1
L 181.8 281.8 184.3 281.8 184.3 280 181.8 280 181.8 278.1
M 305.5 277.7
Q 305.5 276.5 304.2 276.5 302.85 276.5 302.85 277.7 302.85 278.9 304.2 278.9 304.85 278.9 305.2 278.6 305.5 278.25 305.5 277.7
M 316.15 283.1
Q 316.15 281.5 315.35 280.7 314.55 279.85 313 279.85 312.05 279.85 311.35 280.15 310.65 280.5 310.25 281.15
L 310.1 281.15 309.8 280 307.9 280 307.9 288.9 310.35 288.9 310.35 284.7
Q 310.35 283.15 310.8 282.45 311.25 281.8 312.3 281.8 313.05 281.8 313.35 282.25 313.7 282.75 313.7 283.7
L 313.7 288.9 316.15 288.9 316.15 283.1
M 321.3 278.1
L 319.75 278.1 319.05 280 317.7 280.8 317.7 281.8 318.9 281.8 318.9 286.1
Q 318.9 287.6 319.55 288.35 320.2 289.05 321.65 289.05 323 289.05 323.9 288.65
L 323.9 286.85
Q 323 287.1 322.35 287.1 321.9 287.1 321.6 286.9 321.3 286.65 321.3 286.1
L 321.3 281.8 323.8 281.8 323.8 280 321.3 280 321.3 278.1
M 302.95 280
L 302.95 288.9 305.4 288.9 305.4 280 302.95 280
M 296.35 282.95
Q 296.35 281.4 295.4 280.6 294.45 279.8 292.65 279.8 290.8 279.8 289.25 280.6
L 290.05 282.25
Q 291.5 281.6 292.55 281.6 293.95 281.6 293.95 282.95
L 293.95 283.35 292.4 283.4
Q 290.4 283.5 289.45 284.15 288.45 284.8 288.45 286.25 288.45 287.6 289.15 288.35 289.9 289.05 291.2 289.05 292.25 289.05 292.9 288.75 293.55 288.45 294.15 287.7
L 294.2 287.7 294.65 288.9 296.35 288.9 296.35 282.95
M 291.45 285.2
Q 291.95 284.85 293 284.8
L 293.95 284.8 293.95 285.5
Q 293.95 286.3 293.45 286.8 292.95 287.3 292.1 287.3 290.95 287.3 290.95 286.25 290.95 285.55 291.45 285.2
M 272.05 276.5
L 269.6 276.5 269.6 288.9 272.05 288.9 272.05 276.5
M 279.1 281.05
Q 278.2 282.3 278.2 284.45 278.2 286.6 279.1 287.85 279.95 289.05 281.55 289.05 283.25 289.05 284.05 287.75
L 284.15 287.75 284.65 288.9 286.5 288.9 286.5 276.5 284.05 276.5 284.05 279.35
Q 284.05 280.15 284.25 281.15
L 284.15 281.15
Q 283.3 279.85 281.6 279.85 280 279.85 279.1 281.05
M 281.1 282.5
Q 281.55 281.8 282.35 281.8 283.35 281.8 283.8 282.45 284.25 283.05 284.25 284.5
L 284.25 284.75
Q 284.2 286.05 283.75 286.6 283.3 287.1 282.4 287.1 281.55 287.1 281.1 286.45 280.65 285.8 280.65 284.5 280.65 283.2 281.1 282.5
M 250.35 282
Q 249.8 280.95 248.85 280.4 247.85 279.85 246.55 279.85 244.5 279.85 243.35 281.05 242.25 282.25 242.25 284.45 242.25 285.85 242.75 286.9 243.3 287.95 244.25 288.5 245.25 289.05 246.5 289.05 248.55 289.05 249.7 287.85 250.85 286.6 250.85 284.45 250.85 283.05 250.35 282
M 245.15 282.45
Q 245.55 281.8 246.55 281.8 247.5 281.8 247.95 282.45 248.4 283.1 248.4 284.45 248.4 285.75 247.95 286.45 247.55 287.1 246.55 287.1 245.6 287.1 245.15 286.45 244.7 285.75 244.7 284.45 244.7 283.1 245.15 282.45
M 260.05 280.6
L 260.85 282.25
Q 262.3 281.6 263.35 281.6 264.75 281.6 264.75 282.95
L 264.75 283.35 263.2 283.4
Q 261.2 283.5 260.25 284.15 259.25 284.8 259.25 286.25 259.25 287.6 259.95 288.35 260.7 289.05 262 289.05 263.05 289.05 263.7 288.75 264.35 288.45 264.95 287.7
L 265 287.7 265.45 288.9 267.15 288.9 267.15 282.95
Q 267.15 281.4 266.2 280.6 265.25 279.8 263.45 279.8 261.6 279.8 260.05 280.6
M 261.75 286.25
Q 261.75 285.55 262.25 285.2 262.75 284.85 263.8 284.8
L 264.75 284.8 264.75 285.5
Q 264.75 286.3 264.25 286.8 263.75 287.3 262.9 287.3 261.75 287.3 261.75 286.25
M 256.25 280.3
Q 255.55 280.75 255.15 281.5
L 255 281.5 254.65 280 252.8 280 252.8 288.9 255.25 288.9 255.25 284.35
Q 255.25 283.3 255.9 282.7 256.55 282.1 257.7 282.1
L 258.45 282.2 258.6 279.9 257.8 279.85
Q 256.95 279.85 256.25 280.3
M 147.95 280
L 145.5 280 145.5 288.9 147.95 288.9 147.95 280
M 146.75 276.5
Q 145.4 276.5 145.4 277.7 145.4 278.9 146.75 278.9 147.4 278.9 147.75 278.6 148.05 278.25 148.05 277.7 148.05 276.5 146.75 276.5
M 156.55 281.6
L 156.55 280 149.95 280 149.95 281.85 153.8 281.85 149.7 287.45 149.7 288.9 156.7 288.9 156.7 287.05 152.55 287.05 156.55 281.6
M 159 281.05
Q 157.9 282.25 157.9 284.45 157.9 285.85 158.4 286.9 158.95 287.95 159.9 288.5 160.9 289.05 162.15 289.05 164.2 289.05 165.35 287.85 166.5 286.6 166.5 284.45 166.5 283.05 166 282 165.45 280.95 164.5 280.4 163.5 279.85 162.2 279.85 160.15 279.85 159 281.05
M 160.35 284.45
Q 160.35 283.1 160.8 282.45 161.2 281.8 162.2 281.8 163.15 281.8 163.6 282.45 164.05 283.1 164.05 284.45 164.05 285.75 163.6 286.45 163.2 287.1 162.2 287.1 161.25 287.1 160.8 286.45 160.35 285.75 160.35 284.45
M 141.65 280.3
Q 140.95 280.75 140.55 281.5
L 140.4 281.5 140.05 280 138.2 280 138.2 288.9 140.65 288.9 140.65 284.35
Q 140.65 283.3 141.3 282.7 141.95 282.1 143.1 282.1
L 143.85 282.2 144 279.9 143.2 279.85
Q 142.35 279.85 141.65 280.3
M 135.75 282
Q 135.2 280.95 134.25 280.4 133.25 279.85 131.95 279.85 129.9 279.85 128.75 281.05 127.65 282.25 127.65 284.45 127.65 285.85 128.15 286.9 128.7 287.95 129.65 288.5 130.65 289.05 131.9 289.05 133.95 289.05 135.1 287.85 136.25 286.6 136.25 284.45 136.25 283.05 135.75 282
M 131.95 281.8
Q 132.9 281.8 133.35 282.45 133.8 283.1 133.8 284.45 133.8 285.75 133.35 286.45 132.95 287.1 131.95 287.1 131 287.1 130.55 286.45 130.1 285.75 130.1 284.45 130.1 283.1 130.55 282.45 130.95 281.8 131.95 281.8
M 118.4 288.9
L 118.4 283.9 123 283.9 123 288.9 125.45 288.9 125.45 277.25 123 277.25 123 281.8 118.4 281.8 118.4 277.25 115.9 277.25 115.9 288.9 118.4 288.9
M 397.75 282
Q 397.2 280.95 396.25 280.4 395.25 279.85 393.95 279.85 391.9 279.85 390.75 281.05 389.65 282.25 389.65 284.45 389.65 285.85 390.15 286.9 390.7 287.95 391.65 288.5 392.65 289.05 393.9 289.05 395.95 289.05 397.1 287.85 398.25 286.6 398.25 284.45 398.25 283.05 397.75 282
M 395.35 282.45
Q 395.8 283.1 395.8 284.45 395.8 285.75 395.35 286.45 394.95 287.1 393.95 287.1 393 287.1 392.55 286.45 392.1 285.75 392.1 284.45 392.1 283.1 392.55 282.45 392.95 281.8 393.95 281.8 394.9 281.8 395.35 282.45
M 380.6 280.6
L 381.4 282.25
Q 382.85 281.6 383.9 281.6 385.3 281.6 385.3 282.95
L 385.3 283.35 383.75 283.4
Q 381.75 283.5 380.8 284.15 379.8 284.8 379.8 286.25 379.8 287.6 380.5 288.35 381.25 289.05 382.55 289.05 383.6 289.05 384.25 288.75 384.9 288.45 385.5 287.7
L 385.55 287.7 386 288.9 387.7 288.9 387.7 282.95
Q 387.7 281.4 386.75 280.6 385.8 279.8 384 279.8 382.15 279.8 380.6 280.6
M 382.8 285.2
Q 383.3 284.85 384.35 284.8
L 385.3 284.8 385.3 285.5
Q 385.3 286.3 384.8 286.8 384.3 287.3 383.45 287.3 382.3 287.3 382.3 286.25 382.3 285.55 382.8 285.2
M 378.65 280.45
Q 377.45 279.85 375.9 279.85 373.8 279.85 372.65 281.05 371.55 282.25 371.55 284.5 371.55 288.3845703125 374.55 288.95
L 374 290.15
Q 375.3 290.3 375.3 291 375.3 291.5 374.7 291.5
L 373.6 291.3 373.6 292.65
Q 374.15 292.8 374.75 292.8 376 292.8 376.6 292.35 377.2 291.9 377.2 290.9 377.2 290.4 376.85 290 376.5 289.6 375.9 289.4
L 376.05 289.05
Q 376.7310546875 289.0171875 377.2 288.9 377.8 288.75 378.4 288.4
L 378.4 286.3
Q 377.8 286.7 377.2 286.9 376.6 287.1 375.9 287.1 374 287.1 374 284.5 374 281.8 375.9 281.8 376.4 281.8 376.9 281.95
L 377.95 282.3 378.65 280.45
M 382.8 278.2
Q 383.1 278.2 383.4 278.3
L 384.6 278.9
Q 384.95 279 385.25 279 386.2 279 386.75 278.35 387.35 277.7 387.45 276.55
L 386.25 276.55
Q 386.15 277 385.9 277.2 385.7 277.4 385.45 277.4 385.15 277.4 384.85 277.3
L 383.65 276.7
Q 383.3 276.6 383 276.6 382.05 276.6 381.5 277.25 380.9 277.9 380.85 279.05
L 382 279.05
Q 382.1 278.6 382.35 278.4 382.55 278.2 382.8 278.2
M 358.4 280.9
Q 357.35 279.85 355.45 279.85 353.45 279.85 352.35 281.05 351.25 282.3 351.25 284.5 351.25 286.7 352.45 287.85 353.65 289.05 355.8 289.05 356.85 289.05 357.55 288.9 358.3 288.75 358.95 288.45
L 358.95 286.55
Q 358.15 286.9 357.45 287.1 356.7 287.25 355.9 287.25 354.9 287.25 354.3 286.65 353.75 286.1 353.7 285.05
L 359.45 285.05 359.45 283.9
Q 359.45 282 358.4 280.9
M 356.7 282.05
Q 357.15 282.55 357.15 283.45
L 353.75 283.45
Q 353.8 282.55 354.25 282.05 354.7 281.55 355.45 281.55 356.25 281.55 356.7 282.05
M 363.25 280
L 361.35 280 361.35 288.9 363.8 288.9 363.8 284.7
Q 363.8 283.15 364.25 282.45 364.7 281.8 365.75 281.8 366.5 281.8 366.8 282.25 367.15 282.75 367.15 283.7
L 367.15 288.9 369.6 288.9 369.6 283.1
Q 369.6 281.5 368.8 280.7 368 279.85 366.45 279.85 365.5 279.85 364.8 280.15 364.1 280.5 363.7 281.15
L 363.55 281.15 363.25 280
M 326.2 281.05
Q 325.1 282.3 325.1 284.5 325.1 286.7 326.3 287.85 327.5 289.05 329.65 289.05 330.7 289.05 331.4 288.9 332.15 288.75 332.8 288.45
L 332.8 286.55
Q 332 286.9 331.3 287.1 330.55 287.25 329.75 287.25 328.75 287.25 328.15 286.65 327.6 286.1 327.55 285.05
L 333.3 285.05 333.3 283.9
Q 333.3 282 332.25 280.9 331.2 279.85 329.3 279.85 327.3 279.85 326.2 281.05
M 327.6 283.45
Q 327.65 282.55 328.1 282.05 328.55 281.55 329.3 281.55 330.1 281.55 330.55 282.05 331 282.55 331 283.45
L 327.6 283.45
M 343.85 280
L 341.3 280 344.7 288.9 347.2 288.9 350.55 280 348.05 280 346.3 285.05
Q 346 286.15 345.95 286.9
L 345.9 286.9
Q 345.85 286.05 345.55 285.05
L 343.85 280
M 338.65 280.3
Q 337.95 280.75 337.55 281.5
L 337.4 281.5 337.05 280 335.2 280 335.2 288.9 337.65 288.9 337.65 284.35
Q 337.65 283.3 338.3 282.7 338.95 282.1 340.1 282.1
L 340.85 282.2 341 279.9 340.2 279.85
Q 339.35 279.85 338.65 280.3 Z"/>
</g>

<path id="Layer1_0_MEMBER_0_1_STROKES" stroke="#47B5C3" stroke-width="2" stroke-linejoin="round" stroke-linecap="round" fill="none" d="
M 410.728929901123 365.8405250549316
L 18.197580718994118 365.8405250549316 18.197580718994118 23.267192077636707 410.728929901123 23.267192077636707 410.728929901123 365.8405250549316 Z"/>

<path id="Layer1_0_MEMBER_2_1_STROKES" stroke="#47B5C3" stroke-width="2" stroke-linejoin="round" stroke-linecap="round" fill="none" d="
M 380.4308685302735 355.95128326416017
Q 380.4308685302735 346.91615600585936 386.82241668701175 340.53330383300784 393.2052688598633 334.14175567626955 402.2403961181641 334.14175567626955 411.27552337646483 334.14175567626955 417.6670715332031 340.53330383300784 424.0499237060547 346.91615600585936 424.0499237060547 355.95128326416017 424.0499237060547 364.986410522461 417.6670715332031 371.37795867919925 411.27552337646483 377.7608108520508 402.2403961181641 377.7608108520508 393.2052688598633 377.7608108520508 386.82241668701175 371.37795867919925 380.4308685302735 364.986410522461 380.4308685302735 355.95128326416017 Z"/>

<path id="Layer1_0_MEMBER_4_1_STROKES" stroke="#47B5C3" stroke-width="2" stroke-linejoin="round" stroke-linecap="round" fill="none" d="
M 51.279107666015626 35.17823181152344
Q 51.279107666015626 44.20543212890625 44.893167114257814 50.58268432617188 38.51591491699219 56.968624877929685 29.488714599609374 56.968624877929685 20.461514282226563 56.968624877929685 14.07557373046875 50.58268432617188 7.698321533203125 44.20543212890625 7.698321533203125 35.17823181152344 7.698321533203125 26.151031494140625 14.07557373046875 19.765090942382812 20.461514282226563 13.387838745117188 29.488714599609374 13.387838745117188 38.51591491699219 13.387838745117188 44.893167114257814 19.765090942382812 51.279107666015626 26.151031494140625 51.279107666015626 35.17823181152344 Z"/>

<path id="Layer1_0_MEMBER_5_1_STROKES" stroke="#47B5C3" stroke-width="2" stroke-linejoin="round" stroke-linecap="round" fill="none" d="
M 395.2691314697266 38.898614501953126
L 426.3331268310547 15.050271606445314"/>

<path id="Layer1_0_MEMBER_6_1_STROKES" stroke="#47B5C3" stroke-width="2" stroke-linejoin="round" stroke-linecap="round" fill="none" d="
M 389.16913146972655 38.24861450195313
L 420.2331268310547 14.400271606445315"/>
</defs>

<g transform="matrix( -1.6389617919921875, 0, 0, -1.0151824951171875, 478.5,403.25) ">
<use xlink:href="#Layer1_0_MEMBER_0_1_STROKES" transform="matrix( -0.610137939453125, 0, 0, -0.9850311279296875, 291.95,397.2) "/>
</g>

<g transform="matrix( -0.173919677734375, 0, 0, -0.173919677734375, 426.35,379.8) ">
<use xlink:href="#Layer1_0_MEMBER_1_FILL"/>
</g>

<g transform="matrix( -0.173919677734375, 0, 0, -0.173919677734375, 426.05,379.3) ">
<use xlink:href="#Layer1_0_MEMBER_2_1_STROKES" transform="matrix( -5.7497711181640625, 0, 0, -5.7497711181640625, 2449.65,2180.85) "/>
</g>

<g transform="matrix( 0.17376708984375, 0, 0, 0.17376708984375, 7.05,10.25) ">
<use xlink:href="#Layer1_0_MEMBER_3_FILL"/>
</g>

<g transform="matrix( 0.17376708984375, 0, 0, 0.17376708984375, 5.7,11.85) ">
<use xlink:href="#Layer1_0_MEMBER_4_1_STROKES" transform="matrix( 5.75482177734375, 0, 0, 5.75482177734375, -32.8,-68.15) "/>
</g>

<g transform="matrix( -0.48919677734375, 0, 0, -0.48919677734375, 442.55,41.1) ">
<use xlink:href="#Layer1_0_MEMBER_5_1_STROKES" transform="matrix( -2.044158935546875, 0, 0, -2.044158935546875, 904.6,84) "/>
</g>

<g transform="matrix( -0.48919677734375, 0, 0, -0.48919677734375, 436.45,40.45) ">
<use xlink:href="#Layer1_0_MEMBER_6_1_STROKES" transform="matrix( -2.044158935546875, 0, 0, -2.044158935546875, 892.15,82.65) "/>
</g>

<g transform="matrix( 0.935302734375, 0, 0, 0.935302734375, 18.85,4.4) ">
<use xlink:href="#Layer1_1_MEMBER_0_FILL"/>
</g>

<g transform="matrix( 0.935302734375, 0, 0, 0.935302734375, 18.85,4.4) ">
<use xlink:href="#Layer1_1_MEMBER_1_FILL"/>
</g>

<g transform="matrix( 0.935302734375, 0, 0, 0.935302734375, 13.2,4.4) ">
<use xlink:href="#Layer1_1_MEMBER_2_FILL"/>
</g>

<g transform="matrix( 0.935302734375, 0, 0, 0.935302734375, 13.2,4.4) ">
<use xlink:href="#Layer1_1_MEMBER_3_FILL"/>
</g>

<g transform="matrix( 0.935302734375, 0, 0, 0.935302734375, 13.2,4.4) ">
<use xlink:href="#Layer1_1_MEMBER_4_FILL"/>
</g>
</svg>
