<?xml version="1.0" encoding="UTF-8"?><svg id="Camada_1" xmlns="http://www.w3.org/2000/svg" xmlns:xlink="http://www.w3.org/1999/xlink" viewBox="0 0 628.73 188.89"><defs><style>.cls-1{fill:#016dae;}.cls-2{clip-path:url(#clippath-1);}.cls-3{fill:#d3e7ee;}.cls-4{fill:#abd1dc;}.cls-5{clip-path:url(#clippath);}.cls-6{fill:#ef6828;}.cls-7{fill:#7097a8;}</style><clipPath id="clippath"><path class="cls-6" d="m438.31,23.45l-4.43,10.52s-33.19-12.24-54.34,6.08l-13.01,22.46s19.82-28.22,58.62-9.52l-6.15,12.76c18.27-1.79,36.7-1.26,54.83,1.59l-35.53-43.89Z"/></clipPath><clipPath id="clippath-1"><path class="cls-6" d="m219.02,23.45l-4.43,10.52s-33.19-12.24-54.34,6.08l-13.01,22.46s19.82-28.22,58.62-9.52l-6.15,12.76c18.27-1.79,36.7-1.26,54.83,1.59l-35.53-43.89Z"/></clipPath></defs><circle class="cls-7" cx="534.29" cy="94.44" r="94.44"/><g id="Grupo_15072"><g><path class="cls-6" d="m438.31,23.45l-4.43,10.52s-33.19-12.24-54.34,6.08l-13.01,22.46s19.82-28.22,58.62-9.52l-6.15,12.76c18.27-1.79,36.7-1.26,54.83,1.59l-35.53-43.89Z"/><g class="cls-5"><g id="Grupo_15071"><path id="Caminho_24206" class="cls-6" d="m378.61-23.33l113.41,39.47-36.03,103.54-113.41-39.47,36.03-103.54Z"/></g></g></g></g><circle class="cls-4" cx="317.66" cy="94.44" r="94.44"/><g id="Grupo_15072-2"><g><path class="cls-6" d="m219.02,23.45l-4.43,10.52s-33.19-12.24-54.34,6.08l-13.01,22.46s19.82-28.22,58.62-9.52l-6.15,12.76c18.27-1.79,36.7-1.26,54.83,1.59l-35.53-43.89Z"/><g class="cls-2"><g id="Grupo_15071-2"><path id="Caminho_24206-2" class="cls-6" d="m159.32-23.33l113.41,39.47-36.03,103.54-113.41-39.47,36.03-103.54Z"/></g></g></g></g><circle class="cls-3" cx="94.44" cy="94.44" r="94.44"/><g><path d="m471.25,120.81l-.72-2.38h-3.64l-.72,2.38h-2.28l3.53-10.04h2.59l3.54,10.04h-2.28Zm-1.23-4.16c-.67-2.16-1.05-3.38-1.13-3.66-.08-.28-.14-.51-.18-.67-.15.58-.58,2.03-1.29,4.33h2.6Z"/><path d="m481.28,113.17v1.06l-1.2.31c.22.34.33.72.33,1.15,0,.82-.29,1.46-.86,1.92-.57.46-1.37.69-2.38.69l-.38-.02-.31-.03c-.21.16-.32.35-.32.55,0,.3.38.45,1.15.45h1.3c.84,0,1.48.18,1.92.54.44.36.66.89.66,1.59,0,.89-.37,1.59-1.12,2.08-.75.49-1.82.74-3.21.74-1.07,0-1.88-.19-2.44-.56-.56-.37-.84-.89-.84-1.56,0-.46.14-.85.43-1.16.29-.31.71-.53,1.26-.66-.21-.09-.4-.24-.56-.45-.16-.21-.24-.43-.24-.66,0-.29.08-.53.25-.73.17-.19.41-.38.73-.57-.4-.17-.72-.45-.95-.83-.23-.38-.35-.83-.35-1.35,0-.83.27-1.48.81-1.93.54-.46,1.32-.68,2.32-.68.21,0,.47.02.76.06.29.04.48.07.56.09h2.67Zm-5.9,8.72c0,.29.14.51.41.68.28.16.66.25,1.16.25.75,0,1.33-.1,1.76-.31s.64-.49.64-.84c0-.29-.12-.49-.38-.59s-.64-.16-1.16-.16h-1.08c-.38,0-.7.09-.96.27-.26.18-.39.42-.39.71Zm.76-6.22c0,.41.09.74.28.98.19.24.48.36.86.36s.68-.12.86-.36c.18-.24.27-.57.27-.98,0-.92-.38-1.38-1.13-1.38s-1.15.46-1.15,1.38Z"/><path d="m486,120.95c-1.23,0-2.19-.34-2.88-1.02-.69-.68-1.04-1.64-1.04-2.88s.32-2.27.96-2.97c.64-.7,1.53-1.05,2.66-1.05s1.92.31,2.52.92.9,1.46.9,2.55v1.01h-4.93c.02.59.2,1.05.53,1.39.33.33.79.5,1.38.5.46,0,.9-.05,1.31-.14s.84-.25,1.29-.46v1.61c-.36.18-.75.32-1.17.41s-.92.13-1.52.13Zm-.29-6.44c-.44,0-.79.14-1.04.42s-.39.68-.43,1.19h2.93c0-.52-.14-.91-.4-1.19s-.61-.42-1.05-.42Z"/><path d="m497.87,120.81h-2.08v-4.46c0-.55-.1-.96-.29-1.24-.2-.28-.51-.41-.94-.41-.58,0-1,.19-1.26.58s-.39,1.04-.39,1.94v3.6h-2.08v-7.64h1.59l.28.98h.12c.23-.37.55-.65.96-.84.41-.19.87-.28,1.39-.28.89,0,1.56.24,2.02.72.46.48.69,1.17.69,2.08v4.98Z"/><path d="m502.43,120.95c-.9,0-1.6-.35-2.12-1.05-.51-.7-.77-1.66-.77-2.9s.26-2.23.78-2.93c.52-.7,1.24-1.05,2.16-1.05.96,0,1.7.37,2.2,1.12h.07c-.1-.57-.16-1.08-.16-1.52v-2.45h2.09v10.64h-1.6l-.4-.99h-.09c-.47.75-1.2,1.13-2.17,1.13Zm.73-1.66c.53,0,.92-.16,1.17-.46.25-.31.38-.84.41-1.58v-.23c0-.82-.13-1.41-.38-1.76-.25-.36-.67-.53-1.23-.53-.46,0-.83.2-1.08.59-.26.39-.39.97-.39,1.72s.13,1.32.39,1.69.63.56,1.11.56Z"/><path d="m513.73,120.81l-.4-1.04h-.05c-.35.44-.71.75-1.08.92-.37.17-.86.26-1.45.26-.73,0-1.31-.21-1.73-.63-.42-.42-.63-1.02-.63-1.79s.28-1.41.85-1.79c.57-.38,1.42-.6,2.57-.64l1.33-.04v-.33c0-.78-.4-1.16-1.19-1.16-.61,0-1.33.18-2.15.55l-.69-1.41c.88-.46,1.85-.69,2.93-.69s1.81.22,2.36.67c.55.45.82,1.12.82,2.04v5.09h-1.46Zm-.62-3.54l-.81.03c-.61.02-1.06.13-1.35.33-.3.2-.44.51-.44.92,0,.59.34.88,1.01.88.48,0,.87-.14,1.16-.42.29-.28.43-.65.43-1.11v-.63Z"/><path d="m523.39,120.95c-.9,0-1.6-.35-2.12-1.05-.51-.7-.77-1.66-.77-2.9s.26-2.23.78-2.93c.52-.7,1.24-1.05,2.16-1.05.96,0,1.7.37,2.2,1.12h.07c-.1-.57-.16-1.08-.16-1.52v-2.45h2.09v10.64h-1.6l-.4-.99h-.09c-.47.75-1.2,1.13-2.17,1.13Zm.73-1.66c.53,0,.92-.16,1.17-.46.25-.31.38-.84.41-1.58v-.23c0-.82-.13-1.41-.38-1.76-.25-.36-.67-.53-1.23-.53-.46,0-.83.2-1.08.59-.26.39-.39.97-.39,1.72s.13,1.32.39,1.69.63.56,1.11.56Z"/><path d="m533.28,120.95c-1.23,0-2.19-.34-2.88-1.02-.69-.68-1.04-1.64-1.04-2.88s.32-2.27.96-2.97c.64-.7,1.53-1.05,2.66-1.05s1.92.31,2.52.92.9,1.46.9,2.55v1.01h-4.93c.02.59.2,1.05.53,1.39.33.33.79.5,1.38.5.46,0,.9-.05,1.31-.14s.84-.25,1.29-.46v1.61c-.36.18-.75.32-1.17.41s-.92.13-1.52.13Zm-.29-6.44c-.44,0-.79.14-1.04.42s-.39.68-.43,1.19h2.93c0-.52-.14-.91-.4-1.19s-.61-.42-1.05-.42Z"/><path d="m541.2,120.95c-2.38,0-3.57-1.31-3.57-3.92,0-1.3.32-2.29.97-2.98.65-.69,1.57-1.03,2.78-1.03.88,0,1.68.17,2.38.52l-.62,1.61c-.33-.13-.63-.24-.92-.33-.28-.08-.57-.13-.85-.13-1.08,0-1.63.77-1.63,2.31s.54,2.24,1.63,2.24c.4,0,.77-.05,1.11-.16.34-.11.68-.27,1.03-.5v1.78c-.34.21-.68.36-1.02.44-.34.08-.78.12-1.3.12Z"/><path d="m545.21,111.19c0-.68.38-1.02,1.13-1.02s1.13.34,1.13,1.02c0,.32-.09.58-.28.75-.19.18-.47.27-.85.27-.76,0-1.13-.34-1.13-1.03Zm2.17,9.62h-2.08v-7.64h2.08v7.64Z"/><path d="m554.9,118.54c0,.78-.27,1.38-.82,1.79-.54.41-1.36.62-2.44.62-.56,0-1.03-.04-1.42-.11s-.76-.19-1.1-.33v-1.72c.39.18.82.33,1.31.46.49.12.91.18,1.28.18.76,0,1.13-.22,1.13-.66,0-.16-.05-.3-.15-.4s-.27-.22-.52-.35-.57-.28-.98-.45c-.59-.25-1.02-.47-1.3-.68-.28-.21-.48-.45-.6-.72-.12-.27-.19-.6-.19-1,0-.68.26-1.2.79-1.58.53-.37,1.27-.56,2.24-.56s1.82.2,2.69.6l-.63,1.5c-.38-.16-.74-.3-1.07-.4-.33-.11-.67-.16-1.02-.16-.62,0-.92.17-.92.5,0,.19.1.35.3.49.2.14.63.34,1.3.61.6.24,1.03.47,1.31.68.28.21.48.45.62.72s.2.6.2.98Z"/><path d="m563.47,116.98c0,1.24-.33,2.22-.98,2.92-.66.7-1.57,1.05-2.74,1.05-.73,0-1.38-.16-1.94-.48s-.99-.78-1.29-1.38-.45-1.3-.45-2.11c0-1.25.33-2.22.98-2.91.65-.69,1.57-1.04,2.75-1.04.73,0,1.38.16,1.94.48.56.32.99.78,1.29,1.37.3.6.45,1.3.45,2.1Zm-5.28,0c0,.76.12,1.33.37,1.72.25.39.65.58,1.21.58s.96-.19,1.2-.58c.24-.38.37-.96.37-1.72s-.12-1.32-.37-1.7c-.25-.38-.65-.57-1.21-.57s-.96.19-1.2.56-.37.94-.37,1.71Zm.44-4.65v-.18c.78-.91,1.32-1.6,1.61-2.06h2.34v.14c-.24.24-.64.59-1.21,1.06-.57.47-1.02.81-1.34,1.04h-1.39Z"/><path d="m569.46,113.02c.28,0,.52.02.7.06l-.16,1.96c-.17-.05-.37-.07-.62-.07-.67,0-1.18.17-1.55.51-.37.34-.56.82-.56,1.44v3.89h-2.08v-7.64h1.58l.31,1.29h.1c.24-.43.56-.77.96-1.04.4-.26.84-.39,1.32-.39Z"/><path d="m571.46,111.19c0-.68.38-1.02,1.13-1.02s1.13.34,1.13,1.02c0,.32-.09.58-.28.75-.19.18-.47.27-.85.27-.76,0-1.13-.34-1.13-1.03Zm2.17,9.62h-2.08v-7.64h2.08v7.64Z"/><path d="m580.68,120.81l-.4-1.04h-.05c-.35.44-.71.75-1.08.92-.37.17-.86.26-1.45.26-.73,0-1.31-.21-1.73-.63-.42-.42-.63-1.02-.63-1.79s.28-1.41.85-1.79c.57-.38,1.42-.6,2.57-.64l1.33-.04v-.33c0-.78-.4-1.16-1.19-1.16-.61,0-1.33.18-2.15.55l-.69-1.41c.88-.46,1.85-.69,2.93-.69s1.81.22,2.36.67c.55.45.82,1.12.82,2.04v5.09h-1.46Zm-.62-3.54l-.81.03c-.61.02-1.06.13-1.35.33-.3.2-.44.51-.44.92,0,.59.34.88,1.01.88.48,0,.87-.14,1.16-.42.29-.28.43-.65.43-1.11v-.63Z"/><path d="m594.86,116.98c0,1.24-.33,2.22-.98,2.92-.66.7-1.57,1.05-2.74,1.05-.73,0-1.38-.16-1.94-.48s-.99-.78-1.29-1.38-.45-1.3-.45-2.11c0-1.25.33-2.22.98-2.91.65-.69,1.57-1.04,2.75-1.04.73,0,1.38.16,1.94.48.56.32.99.78,1.29,1.37.3.6.45,1.3.45,2.1Zm-5.28,0c0,.76.12,1.33.37,1.72.25.39.65.58,1.21.58s.96-.19,1.2-.58c.24-.38.37-.96.37-1.72s-.12-1.32-.37-1.7c-.25-.38-.65-.57-1.21-.57s-.96.19-1.2.56-.37.94-.37,1.71Z"/><path d="m602,120.81l-.28-.98h-.11c-.22.36-.54.63-.95.82-.41.19-.88.29-1.4.29-.9,0-1.57-.24-2.03-.72-.46-.48-.68-1.17-.68-2.07v-4.98h2.08v4.46c0,.55.1.96.29,1.24.2.28.51.41.94.41.58,0,1-.2,1.26-.58s.39-1.04.39-1.94v-3.6h2.08v7.64h-1.6Z"/><path d="m513.54,137.75c-.9,0-1.6-.33-2.11-.98h-.11c.07.64.11,1.01.11,1.11v3.1h-2.08v-11.01h1.7l.29.99h.1c.49-.76,1.21-1.13,2.17-1.13.9,0,1.61.35,2.12,1.05s.77,1.67.77,2.91c0,.82-.12,1.52-.36,2.13-.24.6-.58,1.06-1.02,1.37s-.96.47-1.56.47Zm-.62-6.25c-.51,0-.89.16-1.13.47-.24.32-.36.84-.37,1.57v.23c0,.82.12,1.41.37,1.76.24.36.63.53,1.16.53.93,0,1.4-.77,1.4-2.31,0-.75-.12-1.32-.34-1.69-.23-.38-.59-.56-1.08-.56Z"/><path d="m525.15,133.78c0,1.24-.33,2.22-.98,2.92-.66.7-1.57,1.05-2.74,1.05-.73,0-1.38-.16-1.94-.48s-.99-.78-1.29-1.38-.45-1.3-.45-2.11c0-1.25.33-2.22.98-2.91.65-.69,1.57-1.04,2.75-1.04.73,0,1.38.16,1.94.48.56.32.99.78,1.29,1.37.3.6.45,1.3.45,2.1Zm-5.28,0c0,.76.12,1.33.37,1.72.25.39.65.58,1.21.58s.96-.19,1.2-.58c.24-.38.37-.96.37-1.72s-.12-1.32-.37-1.7c-.25-.38-.65-.57-1.21-.57s-.96.19-1.2.56-.37.94-.37,1.71Z"/><path d="m528.95,137.61h-2.08v-10.64h2.08v10.64Z"/><path d="m531.04,129.13v-.18c.78-.91,1.32-1.6,1.61-2.06h2.34v.14c-.24.24-.64.59-1.21,1.06-.57.47-1.02.81-1.34,1.04h-1.39Zm2.19,8.48h-2.08v-7.64h2.08v7.64Z"/><path d="m538.63,136.09c.36,0,.8-.08,1.31-.24v1.55c-.52.23-1.16.35-1.91.35-.83,0-1.44-.21-1.82-.63-.38-.42-.57-1.05-.57-1.9v-3.68h-1v-.88l1.15-.7.6-1.61h1.33v1.63h2.14v1.57h-2.14v3.68c0,.3.08.51.25.66.17.14.39.21.66.21Z"/><path d="m541.4,127.99c0-.68.38-1.02,1.13-1.02s1.13.34,1.13,1.02c0,.32-.09.58-.28.75-.19.18-.47.27-.85.27-.76,0-1.13-.34-1.13-1.03Zm2.17,9.62h-2.08v-7.64h2.08v7.64Z"/><path d="m548.87,137.75c-2.38,0-3.57-1.31-3.57-3.92,0-1.3.32-2.29.97-2.98.65-.69,1.57-1.03,2.78-1.03.88,0,1.68.17,2.38.52l-.62,1.61c-.33-.13-.63-.24-.92-.33-.28-.08-.57-.13-.85-.13-1.08,0-1.63.77-1.63,2.31s.54,2.24,1.63,2.24c.4,0,.77-.05,1.11-.16.34-.11.68-.27,1.03-.5v1.78c-.34.21-.68.36-1.02.44-.34.08-.78.12-1.3.12Z"/><path d="m557.81,137.61l-.4-1.04h-.05c-.35.44-.71.75-1.08.92-.37.17-.86.26-1.45.26-.73,0-1.31-.21-1.73-.63-.42-.42-.63-1.02-.63-1.79s.28-1.41.85-1.79c.57-.38,1.42-.6,2.57-.64l1.33-.04v-.33c0-.78-.4-1.16-1.19-1.16-.61,0-1.33.18-2.15.55l-.69-1.41c.88-.46,1.85-.69,2.93-.69s1.81.22,2.36.67c.55.45.82,1.12.82,2.04v5.09h-1.46Zm-.62-3.54l-.81.03c-.61.02-1.06.13-1.35.33-.3.2-.44.51-.44.92,0,.59.34.88,1.01.88.48,0,.87-.14,1.16-.42.29-.28.43-.65.43-1.11v-.63Z"/></g><g><path d="m242.22,120.81l-.72-2.38h-3.64l-.72,2.38h-2.28l3.53-10.04h2.59l3.54,10.04h-2.28Zm-1.23-4.16c-.67-2.16-1.05-3.38-1.13-3.66-.08-.28-.14-.51-.18-.67-.15.58-.58,2.03-1.29,4.33h2.6Z"/><path d="m252.25,113.17v1.06l-1.2.31c.22.34.33.72.33,1.15,0,.82-.29,1.46-.86,1.92-.57.46-1.37.69-2.38.69l-.38-.02-.31-.03c-.21.16-.32.35-.32.55,0,.3.38.45,1.15.45h1.3c.84,0,1.48.18,1.92.54.44.36.66.89.66,1.59,0,.89-.37,1.59-1.12,2.08-.75.49-1.82.74-3.21.74-1.07,0-1.88-.19-2.44-.56-.56-.37-.84-.89-.84-1.56,0-.46.14-.85.43-1.16.29-.31.71-.53,1.26-.66-.21-.09-.4-.24-.56-.45-.16-.21-.24-.43-.24-.66,0-.29.08-.53.25-.73.17-.19.41-.38.73-.57-.4-.17-.72-.45-.95-.83-.23-.38-.35-.83-.35-1.35,0-.83.27-1.48.81-1.93.54-.46,1.32-.68,2.32-.68.21,0,.47.02.76.06.29.04.48.07.56.09h2.67Zm-5.9,8.72c0,.29.14.51.41.68.28.16.66.25,1.16.25.75,0,1.33-.1,1.76-.31s.64-.49.64-.84c0-.29-.12-.49-.38-.59s-.64-.16-1.16-.16h-1.08c-.38,0-.7.09-.96.27-.26.18-.39.42-.39.71Zm.76-6.22c0,.41.09.74.28.98.19.24.48.36.86.36s.68-.12.86-.36c.18-.24.27-.57.27-.98,0-.92-.38-1.38-1.13-1.38s-1.15.46-1.15,1.38Z"/><path d="m256.96,120.95c-1.23,0-2.19-.34-2.88-1.02-.69-.68-1.04-1.64-1.04-2.88s.32-2.27.96-2.97c.64-.7,1.53-1.05,2.66-1.05s1.92.31,2.52.92.9,1.46.9,2.55v1.01h-4.93c.02.59.2,1.05.53,1.39.33.33.79.5,1.38.5.46,0,.9-.05,1.31-.14s.84-.25,1.29-.46v1.61c-.36.18-.75.32-1.17.41s-.92.13-1.52.13Zm-.29-6.44c-.44,0-.79.14-1.04.42s-.39.68-.43,1.19h2.93c0-.52-.14-.91-.4-1.19s-.61-.42-1.05-.42Z"/><path d="m268.83,120.81h-2.08v-4.46c0-.55-.1-.96-.29-1.24-.2-.28-.51-.41-.94-.41-.58,0-1,.19-1.26.58s-.39,1.04-.39,1.94v3.6h-2.08v-7.64h1.59l.28.98h.12c.23-.37.55-.65.96-.84.41-.19.87-.28,1.39-.28.89,0,1.56.24,2.02.72.46.48.69,1.17.69,2.08v4.98Z"/><path d="m273.4,120.95c-.9,0-1.6-.35-2.12-1.05-.51-.7-.77-1.66-.77-2.9s.26-2.23.78-2.93c.52-.7,1.24-1.05,2.16-1.05.96,0,1.7.37,2.2,1.12h.07c-.1-.57-.16-1.08-.16-1.52v-2.45h2.09v10.64h-1.6l-.4-.99h-.09c-.47.75-1.2,1.13-2.17,1.13Zm.73-1.66c.53,0,.92-.16,1.17-.46.25-.31.38-.84.41-1.58v-.23c0-.82-.13-1.41-.38-1.76-.25-.36-.67-.53-1.23-.53-.46,0-.83.2-1.08.59-.26.39-.39.97-.39,1.72s.13,1.32.39,1.69.63.56,1.11.56Z"/><path d="m284.69,120.81l-.4-1.04h-.05c-.35.44-.71.75-1.08.92-.37.17-.86.26-1.45.26-.73,0-1.31-.21-1.73-.63-.42-.42-.63-1.02-.63-1.79s.28-1.41.85-1.79c.57-.38,1.42-.6,2.57-.64l1.33-.04v-.33c0-.78-.4-1.16-1.19-1.16-.61,0-1.33.18-2.15.55l-.69-1.41c.88-.46,1.85-.69,2.93-.69s1.81.22,2.36.67c.55.45.82,1.12.82,2.04v5.09h-1.46Zm-.62-3.54l-.81.03c-.61.02-1.06.13-1.35.33-.3.2-.44.51-.44.92,0,.59.34.88,1.01.88.48,0,.87-.14,1.16-.42.29-.28.43-.65.43-1.11v-.63Z"/><path d="m291.84,111.19c0-.68.38-1.02,1.13-1.02s1.13.34,1.13,1.02c0,.32-.09.58-.28.75-.19.18-.47.27-.85.27-.76,0-1.13-.34-1.13-1.03Zm2.17,9.62h-2.08v-7.64h2.08v7.64Z"/><path d="m303.26,120.81h-2.08v-4.46c0-.55-.1-.96-.29-1.24-.2-.28-.51-.41-.94-.41-.58,0-1,.19-1.26.58s-.39,1.04-.39,1.94v3.6h-2.08v-7.64h1.59l.28.98h.12c.23-.37.55-.65.96-.84.41-.19.87-.28,1.39-.28.89,0,1.56.24,2.02.72.46.48.69,1.17.69,2.08v4.98Z"/><path d="m310.73,118.54c0,.78-.27,1.38-.82,1.79-.54.41-1.36.62-2.44.62-.56,0-1.03-.04-1.42-.11s-.76-.19-1.1-.33v-1.72c.39.18.82.33,1.31.46.49.12.91.18,1.28.18.76,0,1.13-.22,1.13-.66,0-.16-.05-.3-.15-.4s-.27-.22-.52-.35-.57-.28-.98-.45c-.59-.25-1.02-.47-1.3-.68-.28-.21-.48-.45-.6-.72-.12-.27-.19-.6-.19-1,0-.68.26-1.2.79-1.58.53-.37,1.27-.56,2.24-.56s1.82.2,2.69.6l-.63,1.5c-.38-.16-.74-.3-1.07-.4-.33-.11-.67-.16-1.02-.16-.62,0-.92.17-.92.5,0,.19.1.35.3.49.2.14.63.34,1.3.61.6.24,1.03.47,1.31.68.28.21.48.45.62.72s.2.6.2.98Z"/><path d="m315.58,119.29c.36,0,.8-.08,1.31-.24v1.55c-.52.23-1.16.35-1.91.35-.83,0-1.44-.21-1.82-.63-.38-.42-.57-1.05-.57-1.9v-3.68h-1v-.88l1.15-.7.6-1.61h1.33v1.63h2.14v1.57h-2.14v3.68c0,.3.08.51.25.66.17.14.39.21.66.21Z"/><path d="m318.35,111.19c0-.68.38-1.02,1.13-1.02s1.13.34,1.13,1.02c0,.32-.09.58-.28.75-.19.18-.47.27-.85.27-.76,0-1.13-.34-1.13-1.03Zm2.17,9.62h-2.08v-7.64h2.08v7.64Z"/><path d="m325.93,119.29c.36,0,.8-.08,1.31-.24v1.55c-.52.23-1.16.35-1.91.35-.83,0-1.44-.21-1.82-.63-.38-.42-.57-1.05-.57-1.9v-3.68h-1v-.88l1.15-.7.6-1.61h1.33v1.63h2.14v1.57h-2.14v3.68c0,.3.08.51.25.66.17.14.39.21.66.21Z"/><path d="m334.2,120.81l-.28-.98h-.11c-.22.36-.54.63-.95.82-.41.19-.88.29-1.4.29-.9,0-1.57-.24-2.03-.72-.46-.48-.68-1.17-.68-2.07v-4.98h2.08v4.46c0,.55.1.96.29,1.24.2.28.51.41.94.41.58,0,1-.2,1.26-.58s.39-1.04.39-1.94v-3.6h2.08v7.64h-1.6Z"/><path d="m341.09,120.95c-2.38,0-3.57-1.31-3.57-3.92,0-1.3.32-2.29.97-2.98.65-.69,1.57-1.03,2.78-1.03.88,0,1.68.17,2.38.52l-.62,1.61c-.33-.13-.63-.24-.92-.33-.28-.08-.57-.13-.85-.13-1.08,0-1.63.77-1.63,2.31s.54,2.24,1.63,2.24c.4,0,.77-.05,1.11-.16.34-.11.68-.27,1.03-.5v1.78c-.34.21-.68.36-1.02.44-.34.08-.78.12-1.3.12Z"/><path d="m345.1,111.19c0-.68.38-1.02,1.13-1.02s1.13.34,1.13,1.02c0,.32-.09.58-.28.75-.19.18-.47.27-.85.27-.76,0-1.13-.34-1.13-1.03Zm2.17,9.62h-2.08v-7.64h2.08v7.64Z"/><path d="m356.4,116.98c0,1.24-.33,2.22-.98,2.92-.66.7-1.57,1.05-2.74,1.05-.73,0-1.38-.16-1.94-.48s-.99-.78-1.29-1.38-.45-1.3-.45-2.11c0-1.25.33-2.22.98-2.91.65-.69,1.57-1.04,2.75-1.04.73,0,1.38.16,1.94.48.56.32.99.78,1.29,1.37.3.6.45,1.3.45,2.1Zm-5.28,0c0,.76.12,1.33.37,1.72.25.39.65.58,1.21.58s.96-.19,1.2-.58c.24-.38.37-.96.37-1.72s-.12-1.32-.37-1.7c-.25-.38-.65-.57-1.21-.57s-.96.19-1.2.56-.37.94-.37,1.71Z"/><path d="m365.18,120.81h-2.08v-4.46c0-.55-.1-.96-.29-1.24-.2-.28-.51-.41-.94-.41-.58,0-1,.19-1.26.58s-.39,1.04-.39,1.94v3.6h-2.08v-7.64h1.59l.28.98h.12c.23-.37.55-.65.96-.84.41-.19.87-.28,1.39-.28.89,0,1.56.24,2.02.72.46.48.69,1.17.69,2.08v4.98Z"/><path d="m372.18,120.81l-.4-1.04h-.05c-.35.44-.71.75-1.08.92-.37.17-.86.26-1.45.26-.73,0-1.31-.21-1.73-.63-.42-.42-.63-1.02-.63-1.79s.28-1.41.85-1.79c.57-.38,1.42-.6,2.57-.64l1.33-.04v-.33c0-.78-.4-1.16-1.19-1.16-.61,0-1.33.18-2.15.55l-.69-1.41c.88-.46,1.85-.69,2.93-.69s1.81.22,2.36.67c.55.45.82,1.12.82,2.04v5.09h-1.46Zm-.62-3.54l-.81.03c-.61.02-1.06.13-1.35.33-.3.2-.44.51-.44.92,0,.59.34.88,1.01.88.48,0,.87-.14,1.16-.42.29-.28.43-.65.43-1.11v-.63Z"/><path d="m377.87,120.81h-2.08v-10.64h2.08v10.64Z"/><path d="m390.64,116.98c0,1.24-.33,2.22-.98,2.92-.66.7-1.57,1.05-2.74,1.05-.73,0-1.38-.16-1.94-.48s-.99-.78-1.29-1.38-.45-1.3-.45-2.11c0-1.25.33-2.22.98-2.91.65-.69,1.57-1.04,2.75-1.04.73,0,1.38.16,1.94.48.56.32.99.78,1.29,1.37.3.6.45,1.3.45,2.1Zm-5.28,0c0,.76.12,1.33.37,1.72.25.39.65.58,1.21.58s.96-.19,1.2-.58c.24-.38.37-.96.37-1.72s-.12-1.32-.37-1.7c-.25-.38-.65-.57-1.21-.57s-.96.19-1.2.56-.37.94-.37,1.71Z"/><path d="m397.78,120.81l-.28-.98h-.11c-.22.36-.54.63-.95.82-.41.19-.88.29-1.4.29-.9,0-1.57-.24-2.03-.72-.46-.48-.68-1.17-.68-2.07v-4.98h2.08v4.46c0,.55.1.96.29,1.24.2.28.51.41.94.41.58,0,1-.2,1.26-.58s.39-1.04.39-1.94v-3.6h2.08v7.64h-1.6Z"/><path d="m273.79,129.97v1.06l-1.2.31c.22.34.33.72.33,1.15,0,.82-.29,1.46-.86,1.92-.57.46-1.37.69-2.38.69l-.38-.02-.31-.03c-.21.16-.32.35-.32.55,0,.3.38.45,1.15.45h1.3c.84,0,1.48.18,1.92.54.44.36.66.89.66,1.59,0,.89-.37,1.59-1.12,2.08-.75.49-1.82.74-3.21.74-1.07,0-1.88-.19-2.44-.56-.56-.37-.84-.89-.84-1.56,0-.46.14-.85.43-1.16.29-.31.71-.53,1.26-.66-.21-.09-.4-.24-.56-.45-.16-.21-.24-.43-.24-.66,0-.29.08-.53.25-.73.17-.19.41-.38.73-.57-.4-.17-.72-.45-.95-.83-.23-.38-.35-.83-.35-1.35,0-.83.27-1.48.81-1.93.54-.46,1.32-.68,2.32-.68.21,0,.47.02.76.06.29.04.48.07.56.09h2.67Zm-5.9,8.72c0,.29.14.51.41.68.28.16.66.25,1.16.25.75,0,1.33-.1,1.76-.31s.64-.49.64-.84c0-.29-.12-.49-.38-.59s-.64-.16-1.16-.16h-1.08c-.38,0-.7.09-.96.27-.26.18-.39.42-.39.71Zm.76-6.22c0,.41.09.74.28.98.19.24.48.36.86.36s.68-.12.86-.36c.18-.24.27-.57.27-.98,0-.92-.38-1.38-1.13-1.38s-1.15.46-1.15,1.38Z"/><path d="m282,133.78c0,1.24-.33,2.22-.98,2.92-.66.7-1.57,1.05-2.74,1.05-.73,0-1.38-.16-1.94-.48s-.99-.78-1.29-1.38-.45-1.3-.45-2.11c0-1.25.33-2.22.98-2.91.65-.69,1.57-1.04,2.75-1.04.73,0,1.38.16,1.94.48.56.32.99.78,1.29,1.37.3.6.45,1.3.45,2.1Zm-5.28,0c0,.76.12,1.33.37,1.72.25.39.65.58,1.21.58s.96-.19,1.2-.58c.24-.38.37-.96.37-1.72s-.12-1.32-.37-1.7c-.25-.38-.65-.57-1.21-.57s-.96.19-1.2.56-.37.94-.37,1.71Z"/><path d="m285.54,137.61l-2.91-7.64h2.18l1.48,4.35c.16.55.27,1.07.31,1.57h.04c.02-.44.12-.96.31-1.57l1.47-4.35h2.18l-2.91,7.64h-2.14Z"/><path d="m295.14,137.75c-1.23,0-2.19-.34-2.88-1.02-.69-.68-1.04-1.64-1.04-2.88s.32-2.27.96-2.97c.64-.7,1.53-1.05,2.66-1.05s1.92.31,2.52.92.9,1.46.9,2.55v1.01h-4.93c.02.59.2,1.05.53,1.39.33.33.79.5,1.38.5.46,0,.9-.05,1.31-.14s.84-.25,1.29-.46v1.61c-.36.18-.75.32-1.17.41s-.92.13-1.52.13Zm-.29-6.44c-.44,0-.79.14-1.04.42s-.39.68-.43,1.19h2.93c0-.52-.14-.91-.4-1.19s-.61-.42-1.05-.42Z"/><path d="m304.22,129.82c.28,0,.52.02.7.06l-.16,1.96c-.17-.05-.37-.07-.62-.07-.67,0-1.18.17-1.55.51-.37.34-.56.82-.56,1.44v3.89h-2.08v-7.64h1.58l.31,1.29h.1c.24-.43.56-.77.96-1.04.4-.26.84-.39,1.32-.39Z"/><path d="m313.37,137.61h-2.08v-4.46c0-.55-.1-.96-.29-1.24-.2-.28-.51-.41-.94-.41-.58,0-1,.19-1.26.58s-.39,1.04-.39,1.94v3.6h-2.08v-7.64h1.59l.28.98h.12c.23-.37.55-.65.96-.84.41-.19.87-.28,1.39-.28.89,0,1.56.24,2.02.72.46.48.69,1.17.69,2.08v4.98Z"/><path d="m320.37,137.61l-.4-1.04h-.05c-.35.44-.71.75-1.08.92-.37.17-.86.26-1.45.26-.73,0-1.31-.21-1.73-.63-.42-.42-.63-1.02-.63-1.79s.28-1.41.85-1.79c.57-.38,1.42-.6,2.57-.64l1.33-.04v-.33c0-.78-.4-1.16-1.19-1.16-.61,0-1.33.18-2.15.55l-.69-1.41c.88-.46,1.85-.69,2.93-.69s1.81.22,2.36.67c.55.45.82,1.12.82,2.04v5.09h-1.46Zm-.62-3.54l-.81.03c-.61.02-1.06.13-1.35.33-.3.2-.44.51-.44.92,0,.59.34.88,1.01.88.48,0,.87-.14,1.16-.42.29-.28.43-.65.43-1.11v-.63Z"/><path d="m330.81,137.61h-2.08v-4.46c0-.55-.09-.96-.28-1.24-.18-.28-.47-.41-.87-.41-.53,0-.92.2-1.16.59-.24.39-.36,1.04-.36,1.93v3.6h-2.08v-7.64h1.59l.28.98h.12c.21-.35.5-.63.89-.82s.83-.3,1.33-.3c1.14,0,1.92.37,2.32,1.12h.18c.21-.36.51-.63.91-.83.4-.2.85-.29,1.35-.29.87,0,1.52.22,1.97.67.44.44.67,1.16.67,2.14v4.98h-2.09v-4.46c0-.55-.09-.96-.28-1.24-.18-.28-.47-.41-.87-.41-.51,0-.89.18-1.14.55-.25.36-.38.94-.38,1.74v3.83Z"/><path d="m341.17,137.75c-1.23,0-2.19-.34-2.88-1.02-.69-.68-1.04-1.64-1.04-2.88s.32-2.27.96-2.97c.64-.7,1.53-1.05,2.66-1.05s1.92.31,2.52.92.9,1.46.9,2.55v1.01h-4.93c.02.59.2,1.05.53,1.39.33.33.79.5,1.38.5.46,0,.9-.05,1.31-.14s.84-.25,1.29-.46v1.61c-.36.18-.75.32-1.17.41s-.92.13-1.52.13Zm-.29-6.44c-.44,0-.79.14-1.04.42s-.39.68-.43,1.19h2.93c0-.52-.14-.91-.4-1.19s-.61-.42-1.05-.42Z"/><path d="m353.04,137.61h-2.08v-4.46c0-.55-.1-.96-.29-1.24-.2-.28-.51-.41-.94-.41-.58,0-1,.19-1.26.58s-.39,1.04-.39,1.94v3.6h-2.08v-7.64h1.59l.28.98h.12c.23-.37.55-.65.96-.84.41-.19.87-.28,1.39-.28.89,0,1.56.24,2.02.72.46.48.69,1.17.69,2.08v4.98Z"/><path d="m358.41,136.09c.36,0,.8-.08,1.31-.24v1.55c-.52.23-1.16.35-1.91.35-.83,0-1.44-.21-1.82-.63-.38-.42-.57-1.05-.57-1.9v-3.68h-1v-.88l1.15-.7.6-1.61h1.33v1.63h2.14v1.57h-2.14v3.68c0,.3.08.51.25.66.17.14.39.21.66.21Z"/><path d="m366.12,137.61l-.4-1.04h-.05c-.35.44-.71.75-1.08.92-.37.17-.86.26-1.45.26-.73,0-1.31-.21-1.73-.63-.42-.42-.63-1.02-.63-1.79s.28-1.41.85-1.79c.57-.38,1.42-.6,2.57-.64l1.33-.04v-.33c0-.78-.4-1.16-1.19-1.16-.61,0-1.33.18-2.15.55l-.69-1.41c.88-.46,1.85-.69,2.93-.69s1.81.22,2.36.67c.55.45.82,1.12.82,2.04v5.09h-1.46Zm-.62-3.54l-.81.03c-.61.02-1.06.13-1.35.33-.3.2-.44.51-.44.92,0,.59.34.88,1.01.88.48,0,.87-.14,1.16-.42.29-.28.43-.65.43-1.11v-.63Z"/><path d="m371.81,137.61h-2.08v-10.64h2.08v10.64Z"/></g><g><path d="m29.96,120.81l-.72-2.38h-3.64l-.72,2.38h-2.28l3.53-10.04h2.59l3.54,10.04h-2.28Zm-1.23-4.16c-.67-2.16-1.05-3.38-1.13-3.66-.08-.28-.14-.51-.18-.67-.15.58-.58,2.03-1.29,4.33h2.6Z"/><path d="m39.99,113.17v1.06l-1.2.31c.22.34.33.72.33,1.15,0,.82-.29,1.46-.86,1.92-.57.46-1.37.69-2.38.69l-.38-.02-.31-.03c-.21.16-.32.35-.32.55,0,.3.38.45,1.15.45h1.3c.84,0,1.48.18,1.92.54.44.36.66.89.66,1.59,0,.89-.37,1.59-1.12,2.08-.75.49-1.82.74-3.21.74-1.07,0-1.88-.19-2.44-.56-.56-.37-.84-.89-.84-1.56,0-.46.14-.85.43-1.16.29-.31.71-.53,1.26-.66-.21-.09-.4-.24-.56-.45-.16-.21-.24-.43-.24-.66,0-.29.08-.53.25-.73.17-.19.41-.38.73-.57-.4-.17-.72-.45-.95-.83-.23-.38-.35-.83-.35-1.35,0-.83.27-1.48.81-1.93.54-.46,1.32-.68,2.32-.68.21,0,.47.02.76.06.29.04.48.07.56.09h2.67Zm-5.9,8.72c0,.29.14.51.41.68.28.16.66.25,1.16.25.75,0,1.33-.1,1.76-.31s.64-.49.64-.84c0-.29-.12-.49-.38-.59s-.64-.16-1.16-.16h-1.08c-.38,0-.7.09-.96.27-.26.18-.39.42-.39.71Zm.76-6.22c0,.41.09.74.28.98.19.24.48.36.86.36s.68-.12.86-.36c.18-.24.27-.57.27-.98,0-.92-.38-1.38-1.13-1.38s-1.15.46-1.15,1.38Z"/><path d="m44.71,120.95c-1.23,0-2.19-.34-2.88-1.02-.69-.68-1.04-1.64-1.04-2.88s.32-2.27.96-2.97c.64-.7,1.53-1.05,2.66-1.05s1.92.31,2.52.92.9,1.46.9,2.55v1.01h-4.93c.02.59.2,1.05.53,1.39.33.33.79.5,1.38.5.46,0,.9-.05,1.31-.14s.84-.25,1.29-.46v1.61c-.36.18-.75.32-1.17.41s-.92.13-1.52.13Zm-.29-6.44c-.44,0-.79.14-1.04.42s-.39.68-.43,1.19h2.93c0-.52-.14-.91-.4-1.19s-.61-.42-1.05-.42Z"/><path d="m56.58,120.81h-2.08v-4.46c0-.55-.1-.96-.29-1.24-.2-.28-.51-.41-.94-.41-.58,0-1,.19-1.26.58s-.39,1.04-.39,1.94v3.6h-2.08v-7.64h1.59l.28.98h.12c.23-.37.55-.65.96-.84.41-.19.87-.28,1.39-.28.89,0,1.56.24,2.02.72.46.48.69,1.17.69,2.08v4.98Z"/><path d="m61.14,120.95c-.9,0-1.6-.35-2.12-1.05-.51-.7-.77-1.66-.77-2.9s.26-2.23.78-2.93c.52-.7,1.24-1.05,2.16-1.05.96,0,1.7.37,2.2,1.12h.07c-.1-.57-.16-1.08-.16-1.52v-2.45h2.09v10.64h-1.6l-.4-.99h-.09c-.47.75-1.2,1.13-2.17,1.13Zm.73-1.66c.53,0,.92-.16,1.17-.46.25-.31.38-.84.41-1.58v-.23c0-.82-.13-1.41-.38-1.76-.25-.36-.67-.53-1.23-.53-.46,0-.83.2-1.08.59-.26.39-.39.97-.39,1.72s.13,1.32.39,1.69.63.56,1.11.56Z"/><path d="m72.44,120.81l-.4-1.04h-.05c-.35.44-.71.75-1.08.92-.37.17-.86.26-1.45.26-.73,0-1.31-.21-1.73-.63-.42-.42-.63-1.02-.63-1.79s.28-1.41.85-1.79c.57-.38,1.42-.6,2.57-.64l1.33-.04v-.33c0-.78-.4-1.16-1.19-1.16-.61,0-1.33.18-2.15.55l-.69-1.41c.88-.46,1.85-.69,2.93-.69s1.81.22,2.36.67c.55.45.82,1.12.82,2.04v5.09h-1.46Zm-.62-3.54l-.81.03c-.61.02-1.06.13-1.35.33-.3.2-.44.51-.44.92,0,.59.34.88,1.01.88.48,0,.87-.14,1.16-.42.29-.28.43-.65.43-1.11v-.63Z"/><path d="m85.01,118.54c0,.78-.27,1.38-.82,1.79-.54.41-1.36.62-2.44.62-.56,0-1.03-.04-1.42-.11s-.76-.19-1.1-.33v-1.72c.39.18.82.33,1.31.46.49.12.91.18,1.28.18.76,0,1.13-.22,1.13-.66,0-.16-.05-.3-.15-.4s-.27-.22-.52-.35-.57-.28-.98-.45c-.59-.25-1.02-.47-1.3-.68-.28-.21-.48-.45-.6-.72-.12-.27-.19-.6-.19-1,0-.68.26-1.2.79-1.58.53-.37,1.27-.56,2.24-.56s1.82.2,2.69.6l-.63,1.5c-.38-.16-.74-.3-1.07-.4-.33-.11-.67-.16-1.02-.16-.62,0-.92.17-.92.5,0,.19.1.35.3.49.2.14.63.34,1.3.61.6.24,1.03.47,1.31.68.28.21.48.45.62.72s.2.6.2.98Z"/><path d="m86.54,111.19c0-.68.38-1.02,1.13-1.02s1.13.34,1.13,1.02c0,.32-.09.58-.28.75-.19.18-.47.27-.85.27-.76,0-1.13-.34-1.13-1.03Zm2.17,9.62h-2.08v-7.64h2.08v7.64Z"/><path d="m96.24,118.54c0,.78-.27,1.38-.82,1.79-.54.41-1.36.62-2.44.62-.56,0-1.03-.04-1.42-.11s-.76-.19-1.1-.33v-1.72c.39.18.82.33,1.31.46.49.12.91.18,1.28.18.76,0,1.13-.22,1.13-.66,0-.16-.05-.3-.15-.4s-.27-.22-.52-.35-.57-.28-.98-.45c-.59-.25-1.02-.47-1.3-.68-.28-.21-.48-.45-.6-.72-.12-.27-.19-.6-.19-1,0-.68.26-1.2.79-1.58.53-.37,1.27-.56,2.24-.56s1.82.2,2.69.6l-.63,1.5c-.38-.16-.74-.3-1.07-.4-.33-.11-.67-.16-1.02-.16-.62,0-.92.17-.92.5,0,.19.1.35.3.49.2.14.63.34,1.3.61.6.24,1.03.47,1.31.68.28.21.48.45.62.72s.2.6.2.98Z"/><path d="m101.09,119.29c.36,0,.8-.08,1.31-.24v1.55c-.52.23-1.16.35-1.91.35-.83,0-1.44-.21-1.82-.63-.38-.42-.57-1.05-.57-1.9v-3.68h-1v-.88l1.15-.7.6-1.61h1.33v1.63h2.14v1.57h-2.14v3.68c0,.3.08.51.25.66.17.14.39.21.66.21Z"/><path d="m107.4,120.95c-1.23,0-2.19-.34-2.88-1.02-.69-.68-1.04-1.64-1.04-2.88s.32-2.27.96-2.97c.64-.7,1.53-1.05,2.66-1.05s1.92.31,2.52.92.9,1.46.9,2.55v1.01h-4.93c.02.59.2,1.05.53,1.39.33.33.79.5,1.38.5.46,0,.9-.05,1.31-.14s.84-.25,1.29-.46v1.61c-.36.18-.75.32-1.17.41s-.92.13-1.52.13Zm1.33-8.62c-.72-.42-1.25-.83-1.6-1.2-.36.37-.88.77-1.57,1.2h-1.39v-.18c.86-.86,1.44-1.55,1.75-2.06h2.44c.14.24.39.56.74.97.35.41.69.77,1.01,1.09v.18h-1.39Zm-1.62,2.18c-.44,0-.79.14-1.04.42s-.39.68-.43,1.19h2.93c0-.52-.14-.91-.4-1.19s-.61-.42-1.05-.42Z"/><path d="m119.06,120.81h-2.08v-4.46c0-.55-.09-.96-.28-1.24-.18-.28-.47-.41-.87-.41-.53,0-.92.2-1.16.59-.24.39-.36,1.04-.36,1.93v3.6h-2.08v-7.64h1.59l.28.98h.12c.21-.35.5-.63.89-.82s.83-.3,1.33-.3c1.14,0,1.92.37,2.32,1.12h.18c.21-.36.51-.63.91-.83.4-.2.85-.29,1.35-.29.87,0,1.52.22,1.97.67.44.44.67,1.16.67,2.14v4.98h-2.09v-4.46c0-.55-.09-.96-.28-1.24-.18-.28-.47-.41-.87-.41-.51,0-.89.18-1.14.55-.25.36-.38.94-.38,1.74v3.83Z"/><path d="m125.87,111.19c0-.68.38-1.02,1.13-1.02s1.13.34,1.13,1.02c0,.32-.09.58-.28.75-.19.18-.47.27-.85.27-.76,0-1.13-.34-1.13-1.03Zm2.17,9.62h-2.08v-7.64h2.08v7.64Z"/><path d="m133.34,120.95c-2.38,0-3.57-1.31-3.57-3.92,0-1.3.32-2.29.97-2.98.65-.69,1.57-1.03,2.78-1.03.88,0,1.68.17,2.38.52l-.62,1.61c-.33-.13-.63-.24-.92-.33-.28-.08-.57-.13-.85-.13-1.08,0-1.63.77-1.63,2.31s.54,2.24,1.63,2.24c.4,0,.77-.05,1.11-.16.34-.11.68-.27,1.03-.5v1.78c-.34.21-.68.36-1.02.44-.34.08-.78.12-1.3.12Z"/><path d="m142.29,120.81l-.4-1.04h-.05c-.35.44-.71.75-1.08.92-.37.17-.86.26-1.45.26-.73,0-1.31-.21-1.73-.63-.42-.42-.63-1.02-.63-1.79s.28-1.41.85-1.79c.57-.38,1.42-.6,2.57-.64l1.33-.04v-.33c0-.78-.4-1.16-1.19-1.16-.61,0-1.33.18-2.15.55l-.69-1.41c.88-.46,1.85-.69,2.93-.69s1.81.22,2.36.67c.55.45.82,1.12.82,2.04v5.09h-1.46Zm-.62-3.54l-.81.03c-.61.02-1.06.13-1.35.33-.3.2-.44.51-.44.92,0,.59.34.88,1.01.88.48,0,.87-.14,1.16-.42.29-.28.43-.65.43-1.11v-.63Z"/><path d="m156.47,116.98c0,1.24-.33,2.22-.98,2.92-.66.7-1.57,1.05-2.74,1.05-.73,0-1.38-.16-1.94-.48s-.99-.78-1.29-1.38-.45-1.3-.45-2.11c0-1.25.33-2.22.98-2.91.65-.69,1.57-1.04,2.75-1.04.73,0,1.38.16,1.94.48.56.32.99.78,1.29,1.37.3.6.45,1.3.45,2.1Zm-5.28,0c0,.76.12,1.33.37,1.72.25.39.65.58,1.21.58s.96-.19,1.2-.58c.24-.38.37-.96.37-1.72s-.12-1.32-.37-1.7c-.25-.38-.65-.57-1.21-.57s-.96.19-1.2.56-.37.94-.37,1.71Z"/><path d="m163.61,120.81l-.28-.98h-.11c-.22.36-.54.63-.95.82-.41.19-.88.29-1.4.29-.9,0-1.57-.24-2.03-.72-.46-.48-.68-1.17-.68-2.07v-4.98h2.08v4.46c0,.55.1.96.29,1.24.2.28.51.41.94.41.58,0,1-.2,1.26-.58s.39-1.04.39-1.94v-3.6h2.08v7.64h-1.6Z"/><path d="m34.18,137.61h-2.08v-4.46c0-.55-.1-.96-.29-1.24-.2-.28-.51-.41-.94-.41-.58,0-1,.19-1.26.58s-.39,1.04-.39,1.94v3.6h-2.08v-7.64h1.59l.28.98h.12c.23-.37.55-.65.96-.84.41-.19.87-.28,1.39-.28.89,0,1.56.24,2.02.72.46.48.69,1.17.69,2.08v4.98Z"/><path d="m41.18,137.61l-.4-1.04h-.05c-.35.44-.71.75-1.08.92-.37.17-.86.26-1.45.26-.73,0-1.31-.21-1.73-.63-.42-.42-.63-1.02-.63-1.79s.28-1.41.85-1.79c.57-.38,1.42-.6,2.57-.64l1.33-.04v-.33c0-.78-.4-1.16-1.19-1.16-.61,0-1.33.18-2.15.55l-.69-1.41c.88-.46,1.85-.69,2.93-.69s1.81.22,2.36.67c.55.45.82,1.12.82,2.04v5.09h-1.46Zm-2.75-9.2c-.14,0-.28.06-.41.18-.13.12-.22.3-.28.55h-1.02c.05-.66.24-1.18.56-1.55.33-.37.76-.56,1.3-.56.19,0,.37.04.55.11.18.08.36.16.53.25.18.09.35.17.52.24.17.07.33.11.5.11.14,0,.28-.06.41-.18.13-.12.22-.3.28-.55h1.02c-.05.66-.24,1.18-.57,1.55-.33.37-.76.56-1.29.56-.19,0-.37-.04-.55-.11-.18-.08-.36-.16-.53-.25-.17-.09-.35-.17-.52-.25s-.33-.11-.5-.11Zm2.14,5.66l-.81.03c-.61.02-1.06.13-1.35.33-.3.2-.44.51-.44.92,0,.59.34.88,1.01.88.48,0,.87-.14,1.16-.42.29-.28.43-.65.43-1.11v-.63Z"/><path d="m51.73,133.78c0,1.24-.33,2.22-.98,2.92-.66.7-1.57,1.05-2.74,1.05-.73,0-1.38-.16-1.94-.48s-.99-.78-1.29-1.38-.45-1.3-.45-2.11c0-1.25.33-2.22.98-2.91.65-.69,1.57-1.04,2.75-1.04.73,0,1.38.16,1.94.48.56.32.99.78,1.29,1.37.3.6.45,1.3.45,2.1Zm-5.28,0c0,.76.12,1.33.37,1.72.25.39.65.58,1.21.58s.96-.19,1.2-.58c.24-.38.37-.96.37-1.72s-.12-1.32-.37-1.7c-.25-.38-.65-.57-1.21-.57s-.96.19-1.2.56-.37.94-.37,1.71Z"/><path d="m63.74,129.97v1.06l-1.2.31c.22.34.33.72.33,1.15,0,.82-.29,1.46-.86,1.92-.57.46-1.37.69-2.38.69l-.38-.02-.31-.03c-.21.16-.32.35-.32.55,0,.3.38.45,1.15.45h1.3c.84,0,1.48.18,1.92.54.44.36.66.89.66,1.59,0,.89-.37,1.59-1.12,2.08-.75.49-1.82.74-3.21.74-1.07,0-1.88-.19-2.44-.56-.56-.37-.84-.89-.84-1.56,0-.46.14-.85.43-1.16.29-.31.71-.53,1.26-.66-.21-.09-.4-.24-.56-.45-.16-.21-.24-.43-.24-.66,0-.29.08-.53.25-.73.17-.19.41-.38.73-.57-.4-.17-.72-.45-.95-.83-.23-.38-.35-.83-.35-1.35,0-.83.27-1.48.81-1.93.54-.46,1.32-.68,2.32-.68.21,0,.47.02.76.06.29.04.48.07.56.09h2.67Zm-5.9,8.72c0,.29.14.51.41.68.28.16.66.25,1.16.25.75,0,1.33-.1,1.76-.31s.64-.49.64-.84c0-.29-.12-.49-.38-.59s-.64-.16-1.16-.16h-1.08c-.38,0-.7.09-.96.27-.26.18-.39.42-.39.71Zm.76-6.22c0,.41.09.74.28.98.19.24.48.36.86.36s.68-.12.86-.36c.18-.24.27-.57.27-.98,0-.92-.38-1.38-1.13-1.38s-1.15.46-1.15,1.38Z"/><path d="m71.95,133.78c0,1.24-.33,2.22-.98,2.92-.66.7-1.57,1.05-2.74,1.05-.73,0-1.38-.16-1.94-.48s-.99-.78-1.29-1.38-.45-1.3-.45-2.11c0-1.25.33-2.22.98-2.91.65-.69,1.57-1.04,2.75-1.04.73,0,1.38.16,1.94.48.56.32.99.78,1.29,1.37.3.6.45,1.3.45,2.1Zm-5.28,0c0,.76.12,1.33.37,1.72.25.39.65.58,1.21.58s.96-.19,1.2-.58c.24-.38.37-.96.37-1.72s-.12-1.32-.37-1.7c-.25-.38-.65-.57-1.21-.57s-.96.19-1.2.56-.37.94-.37,1.71Z"/><path d="m75.49,137.61l-2.91-7.64h2.18l1.48,4.35c.16.55.27,1.07.31,1.57h.04c.02-.44.12-.96.31-1.57l1.47-4.35h2.18l-2.91,7.64h-2.14Z"/><path d="m85.09,137.75c-1.23,0-2.19-.34-2.88-1.02-.69-.68-1.04-1.64-1.04-2.88s.32-2.27.96-2.97c.64-.7,1.53-1.05,2.66-1.05s1.92.31,2.52.92.9,1.46.9,2.55v1.01h-4.93c.02.59.2,1.05.53,1.39.33.33.79.5,1.38.5.46,0,.9-.05,1.31-.14s.84-.25,1.29-.46v1.61c-.36.18-.75.32-1.17.41s-.92.13-1.52.13Zm-.29-6.44c-.44,0-.79.14-1.04.42s-.39.68-.43,1.19h2.93c0-.52-.14-.91-.4-1.19s-.61-.42-1.05-.42Z"/><path d="m94.17,129.82c.28,0,.52.02.7.06l-.16,1.96c-.17-.05-.37-.07-.62-.07-.67,0-1.18.17-1.55.51-.37.34-.56.82-.56,1.44v3.89h-2.08v-7.64h1.58l.31,1.29h.1c.24-.43.56-.77.96-1.04.4-.26.84-.39,1.32-.39Z"/><path d="m103.32,137.61h-2.08v-4.46c0-.55-.1-.96-.29-1.24-.2-.28-.51-.41-.94-.41-.58,0-1,.19-1.26.58s-.39,1.04-.39,1.94v3.6h-2.08v-7.64h1.59l.28.98h.12c.23-.37.55-.65.96-.84.41-.19.87-.28,1.39-.28.89,0,1.56.24,2.02.72.46.48.69,1.17.69,2.08v4.98Z"/><path d="m110.32,137.61l-.4-1.04h-.05c-.35.44-.71.75-1.08.92-.37.17-.86.26-1.45.26-.73,0-1.31-.21-1.73-.63-.42-.42-.63-1.02-.63-1.79s.28-1.41.85-1.79c.57-.38,1.42-.6,2.57-.64l1.33-.04v-.33c0-.78-.4-1.16-1.19-1.16-.61,0-1.33.18-2.15.55l-.69-1.41c.88-.46,1.85-.69,2.93-.69s1.81.22,2.36.67c.55.45.82,1.12.82,2.04v5.09h-1.46Zm-.62-3.54l-.81.03c-.61.02-1.06.13-1.35.33-.3.2-.44.51-.44.92,0,.59.34.88,1.01.88.48,0,.87-.14,1.16-.42.29-.28.43-.65.43-1.11v-.63Z"/><path d="m120.76,137.61h-2.08v-4.46c0-.55-.09-.96-.28-1.24-.18-.28-.47-.41-.87-.41-.53,0-.92.2-1.16.59-.24.39-.36,1.04-.36,1.93v3.6h-2.08v-7.64h1.59l.28.98h.12c.21-.35.5-.63.89-.82s.83-.3,1.33-.3c1.14,0,1.92.37,2.32,1.12h.18c.21-.36.51-.63.91-.83.4-.2.85-.29,1.35-.29.87,0,1.52.22,1.97.67.44.44.67,1.16.67,2.14v4.98h-2.09v-4.46c0-.55-.09-.96-.28-1.24-.18-.28-.47-.41-.87-.41-.51,0-.89.18-1.14.55-.25.36-.38.94-.38,1.74v3.83Z"/><path d="m131.13,137.75c-1.23,0-2.19-.34-2.88-1.02-.69-.68-1.04-1.64-1.04-2.88s.32-2.27.96-2.97c.64-.7,1.53-1.05,2.66-1.05s1.92.31,2.52.92.9,1.46.9,2.55v1.01h-4.93c.02.59.2,1.05.53,1.39.33.33.79.5,1.38.5.46,0,.9-.05,1.31-.14s.84-.25,1.29-.46v1.61c-.36.18-.75.32-1.17.41s-.92.13-1.52.13Zm-.29-6.44c-.44,0-.79.14-1.04.42s-.39.68-.43,1.19h2.93c0-.52-.14-.91-.4-1.19s-.61-.42-1.05-.42Z"/><path d="m142.99,137.61h-2.08v-4.46c0-.55-.1-.96-.29-1.24-.2-.28-.51-.41-.94-.41-.58,0-1,.19-1.26.58s-.39,1.04-.39,1.94v3.6h-2.08v-7.64h1.59l.28.98h.12c.23-.37.55-.65.96-.84.41-.19.87-.28,1.39-.28.89,0,1.56.24,2.02.72.46.48.69,1.17.69,2.08v4.98Z"/><path d="m148.36,136.09c.36,0,.8-.08,1.31-.24v1.55c-.52.23-1.16.35-1.91.35-.83,0-1.44-.21-1.82-.63-.38-.42-.57-1.05-.57-1.9v-3.68h-1v-.88l1.15-.7.6-1.61h1.33v1.63h2.14v1.57h-2.14v3.68c0,.3.08.51.25.66.17.14.39.21.66.21Z"/><path d="m156.07,137.61l-.4-1.04h-.05c-.35.44-.71.75-1.08.92-.37.17-.86.26-1.45.26-.73,0-1.31-.21-1.73-.63-.42-.42-.63-1.02-.63-1.79s.28-1.41.85-1.79c.57-.38,1.42-.6,2.57-.64l1.33-.04v-.33c0-.78-.4-1.16-1.19-1.16-.61,0-1.33.18-2.15.55l-.69-1.41c.88-.46,1.85-.69,2.93-.69s1.81.22,2.36.67c.55.45.82,1.12.82,2.04v5.09h-1.46Zm-.62-3.54l-.81.03c-.61.02-1.06.13-1.35.33-.3.2-.44.51-.44.92,0,.59.34.88,1.01.88.48,0,.87-.14,1.16-.42.29-.28.43-.65.43-1.11v-.63Z"/><path d="m161.76,137.61h-2.08v-10.64h2.08v10.64Z"/></g><path class="cls-1" d="m104.46,98.24h-11.75v-22.68c0-2.75.06-5.27.18-7.56-.72.88-1.62,1.8-2.7,2.75l-4.86,4.01-6.01-7.38,14.71-11.98h10.43v42.83Z"/><path class="cls-1" d="m332.95,88.24h-31.08v-7.62l10.46-10.58c2.99-3.12,4.94-5.26,5.86-6.4s1.56-2.12,1.92-2.94.54-1.68.54-2.58c0-1.11-.36-1.99-1.08-2.64s-1.74-.97-3.05-.97-2.71.39-4.09,1.16-2.93,1.91-4.67,3.41l-6.36-7.44c2.21-1.97,4.06-3.38,5.57-4.23,1.5-.85,3.14-1.5,4.91-1.95,1.77-.45,3.75-.67,5.96-.67,2.77,0,5.25.49,7.43,1.46s3.87,2.37,5.07,4.17,1.8,3.83,1.8,6.08c0,1.68-.21,3.23-.63,4.66s-1.07,2.83-1.95,4.2-2.05,2.83-3.5,4.35-4.56,4.41-9.3,8.67v.29h16.2v9.55Z"/><path class="cls-1" d="m548.14,57.69c0,2.66-.81,4.94-2.43,6.84-1.62,1.9-3.97,3.29-7.03,4.15v.18c7.15.9,10.72,4.28,10.72,10.14,0,3.98-1.58,7.12-4.73,9.4-3.15,2.29-7.53,3.43-13.14,3.43-2.3,0-4.44-.17-6.4-.5s-4.09-.94-6.37-1.82v-9.61c1.88.96,3.78,1.67,5.73,2.12,1.94.46,3.74.69,5.38.69,2.54,0,4.39-.36,5.55-1.07,1.16-.71,1.74-1.83,1.74-3.35,0-1.17-.3-2.08-.91-2.71-.61-.63-1.58-1.11-2.93-1.44s-3.11-.48-5.27-.48h-2.64v-8.7h2.7c5.88,0,8.82-1.5,8.82-4.51,0-1.13-.44-1.97-1.3-2.52-.87-.55-2.04-.82-3.5-.82-2.74,0-5.57.92-8.5,2.75l-4.8-7.73c2.27-1.56,4.58-2.68,6.96-3.34s5.09-1,8.16-1c4.43,0,7.91.88,10.43,2.64s3.78,4.18,3.78,7.27Z"/></svg>