<?xml version="1.0" encoding="utf-8"?>
<!-- Generator: Adobe Illustrator 24.3.0, SVG Export Plug-In . SVG Version: 6.00 Build 0)  -->
<svg version="1.1" id="Camada_1" xmlns="http://www.w3.org/2000/svg" xmlns:xlink="http://www.w3.org/1999/xlink" x="0px" y="0px"
	 viewBox="0 0 290 390" style="enable-background:new 0 0 290 390;" xml:space="preserve">
<style type="text/css">
	.st0{fill:url(#SVGID_1_);}
	.st1{fill:#0F5DA6;}
	.st2{fill:#FFAC5A;}
	.st3{fill:none;stroke:#FFFFFF;stroke-linecap:round;stroke-linejoin:round;}
	.st4{fill:#FFFFFF;}
</style>
<g transform="matrix( 0, 1, -1, 0, 345.5,53.5) ">
	<g>
		<g id="Layer0_0_FILL">
			
				<linearGradient id="SVGID_1_" gradientUnits="userSpaceOnUse" x1="1296" y1="795.5" x2="1539" y2="795.5" gradientTransform="matrix(0 -1 -1 0 815.5 1496.5)">
				<stop  offset="0" style="stop-color:#47B5C3"/>
				<stop  offset="1" style="stop-color:#7CB8AF"/>
			</linearGradient>
			<path class="st0" d="M141.5,79c-33.6,0-62.2,11.8-85.9,35.6C31.9,138.3,20,166.9,20,200.5s11.9,62.2,35.5,85.9
				c23.7,23.7,52.4,35.6,85.9,35.6s62.2-11.9,85.9-35.6c23.7-23.7,35.6-52.3,35.6-85.9s-11.9-62.2-35.6-85.9
				C203.7,90.8,175.1,79,141.5,79 M77,136.1c17.8-17.8,39.3-26.7,64.4-26.7s46.6,8.9,64.4,26.7c17.8,17.8,26.7,39.3,26.7,64.4
				s-8.9,46.6-26.7,64.4c-17.8,17.8-39.2,26.7-64.4,26.7s-46.7-8.9-64.4-26.7c-17.8-17.8-26.7-39.2-26.7-64.4
				C50.3,175.3,59.2,153.8,77,136.1z"/>
		</g>
	</g>
</g>
<g transform="matrix( 1.028564453125, 0, 0, 1.028564453125, 303.2,33.1) ">
	<g>
		<g id="Layer0_1_FILL">
			<path class="st1" d="M-54.7,78.6c-9.7,0-17.9,3.4-24.8,10.2s-10.2,15.1-10.2,24.8s3.4,17.9,10.2,24.8s15.1,10.2,24.8,10.2
				c9.7,0,17.9-3.4,24.8-10.2s10.3-15.1,10.3-24.8s-3.4-17.9-10.3-24.8S-45,78.6-54.7,78.6z"/>
		</g>
	</g>
</g>
<g transform="matrix( 1.028564453125, 0, 0, 1.028564453125, 200.45,-27.35) ">
	<g>
		<g id="Layer0_2_FILL">
			<path class="st2" d="M-54.7,78.6c-9.7,0-17.9,3.4-24.8,10.3c-6.8,6.8-10.2,15.1-10.2,24.8s3.4,17.9,10.2,24.8
				s15.1,10.2,24.8,10.2c9.7,0,17.9-3.4,24.8-10.2s10.3-15.1,10.3-24.8s-3.4-17.9-10.3-24.8C-36.7,82-45,78.6-54.7,78.6z"/>
		</g>
	</g>
</g>
<g transform="matrix( 1.028564453125, 0, 0, 1.028564453125, 97.75,33.1) ">
	<g>
		<g id="Layer0_3_FILL">
			<path class="st2" d="M-54.7,78.6c-9.7,0-17.9,3.4-24.8,10.2s-10.2,15.1-10.2,24.8s3.4,17.9,10.2,24.8s15.1,10.2,24.8,10.2
				c9.7,0,17.9-3.4,24.8-10.2s10.3-15.1,10.3-24.8s-3.4-17.9-10.3-24.8S-45,78.6-54.7,78.6z"/>
		</g>
	</g>
</g>
<g transform="matrix( 1.028564453125, 0, 0, 1.028564453125, 136.5,169.55) ">
	<g>
		<g id="Layer0_4_FILL">
			<path class="st2" d="M-54.7,78.6c-9.7,0-17.9,3.4-24.8,10.2s-10.2,15.1-10.2,24.8s3.4,17.9,10.2,24.8s15.1,10.2,24.8,10.2
				c9.7,0,17.9-3.4,24.8-10.2s10.3-15.1,10.3-24.8s-3.4-17.9-10.3-24.8S-45,78.6-54.7,78.6z"/>
		</g>
	</g>
</g>
<g transform="matrix( 1.028564453125, 0, 0, 1.028564453125, 263.4,169.55) ">
	<g>
		<g id="Layer0_5_FILL">
			<path class="st2" d="M-54.7,78.6c-9.7,0-17.9,3.4-24.8,10.2s-10.2,15.1-10.2,24.8s3.4,17.9,10.2,24.8s15.1,10.2,24.8,10.2
				c9.7,0,17.9-3.4,24.8-10.2s10.3-15.1,10.3-24.8s-3.4-17.9-10.3-24.8S-45,78.6-54.7,78.6z"/>
		</g>
	</g>
</g>
<g transform="matrix( 0.3731689453125, -1.7481842041015625, 1.7481842041015625, 0.3731689453125, -191.8,349.85) ">
	<g>
		<g id="Layer0_6_FILL">
			<path class="st2" d="M182.8,181.7l5.6-9.7h-11.2L182.8,181.7z"/>
		</g>
	</g>
</g>
<g transform="matrix( 1.7789306640625, -0.1749114990234375, 0.1749114990234375, 1.7789306640625, -104.55,-90.05) ">
	<g>
		<g id="Layer0_7_FILL">
			<path class="st1" d="M182.8,181.7l5.6-9.7h-11.2L182.8,181.7z"/>
		</g>
	</g>
</g>
<g transform="matrix( 0.589508056640625, 1.687469482421875, -1.687469482421875, 0.589508056640625, 356.95,-113.5) ">
	<g>
		<g id="Layer0_8_FILL">
			<path class="st2" d="M182.8,181.7l5.6-9.7h-11.3L182.8,181.7z"/>
		</g>
	</g>
</g>
<g transform="matrix( -1.35284423828125, 1.1682281494140625, -1.1682281494140625, -1.35284423828125, 509.3,279.25) ">
	<g>
		<g id="Layer0_9_FILL">
			<path class="st2" d="M182.8,181.7l5.6-9.7h-11.2L182.8,181.7z"/>
		</g>
	</g>
</g>
<g transform="matrix( -1.3507080078125, -1.1708984375, 1.1708984375, -1.3507080078125, 110.25,571.1) ">
	<g>
		<g id="Layer0_10_FILL">
			<path class="st2" d="M182.8,181.7l5.6-9.7h-11.2L182.8,181.7z"/>
		</g>
	</g>
</g>
<g transform="matrix( 0.9168548583984375, 0, 0, 0.9168548583984375, 297.05,45.8) ">
	<g transform="matrix( 1.0906829833984375, 0, 0, 1.0906829833984375, -323.95,-49.95) ">
		<path id="Layer0_11_1_STROKES" class="st3" d="M-19.6,113.6c0,9.7-3.4,17.9-10.3,24.7c-6.8,6.8-15.1,10.3-24.8,10.3
			s-17.9-3.4-24.7-10.3c-6.8-6.8-10.2-15.1-10.2-24.7s3.4-17.9,10.2-24.8c6.8-6.8,15.1-10.2,24.7-10.2c9.7,0,17.9,3.4,24.8,10.2
			C-23,95.7-19.6,103.9-19.6,113.6z"/>
	</g>
</g>
<g transform="matrix( 0.9168548583984375, 0, 0, 0.9168548583984375, 91.6,45.8) ">
	<g transform="matrix( 1.0906829833984375, 0, 0, 1.0906829833984375, -99.9,-49.95) ">
		<path id="Layer0_12_1_STROKES" class="st3" d="M-19.6,113.6c0,9.7-3.4,17.9-10.2,24.7c-6.8,6.8-15.1,10.3-24.8,10.3
			s-17.9-3.4-24.7-10.3c-6.8-6.8-10.2-15.1-10.2-24.7s3.4-17.9,10.2-24.8c6.8-6.8,15.1-10.2,24.7-10.2c9.7,0,17.9,3.4,24.8,10.2
			C-23.1,95.7-19.6,103.9-19.6,113.6z"/>
	</g>
</g>
<g transform="matrix( 0.9168548583984375, 0, 0, 0.9168548583984375, 194.35,-14.65) ">
	<g transform="matrix( 1.0906829833984375, 0, 0, 1.0906829833984375, -211.95,15.95) ">
		<path id="Layer0_13_1_STROKES" class="st3" d="M-19.6,113.6c0,9.7-3.4,17.9-10.3,24.7c-6.8,6.8-15.1,10.2-24.7,10.2
			c-9.7,0-17.9-3.4-24.7-10.2c-6.8-6.8-10.2-15.1-10.2-24.7s3.4-17.9,10.2-24.8c6.8-6.8,15.1-10.2,24.7-10.2
			c9.7,0,17.9,3.4,24.7,10.2C-23,95.7-19.6,103.9-19.6,113.6z"/>
	</g>
</g>
<g transform="matrix( 0.9168548583984375, 0, 0, 0.9168548583984375, 130.4,182.75) ">
	<g transform="matrix( 1.0906829833984375, 0, 0, 1.0906829833984375, -142.2,-199.3) ">
		<path id="Layer0_14_1_STROKES" class="st3" d="M-19.6,113.6c0,9.7-3.4,17.9-10.3,24.7s-15.1,10.2-24.7,10.2
			c-9.7,0-17.9-3.4-24.8-10.2c-6.8-6.8-10.2-15.1-10.2-24.7c0-9.7,3.4-17.9,10.2-24.8c6.8-6.8,15.1-10.3,24.8-10.2
			c9.7,0,17.9,3.4,24.7,10.2C-23,95.7-19.6,104-19.6,113.6z"/>
	</g>
</g>
<g transform="matrix( 0.9168548583984375, 0, 0, 0.9168548583984375, 257.3,182.25) ">
	<g transform="matrix( 1.0906829833984375, 0, 0, 1.0906829833984375, -280.6,-198.75) ">
		<path id="Layer0_15_1_STROKES" class="st3" d="M-19.6,113.6c0,9.7-3.4,17.9-10.2,24.7c-6.8,6.8-15.1,10.2-24.8,10.2
			s-17.9-3.4-24.7-10.2c-6.8-6.8-10.2-15.1-10.2-24.7c0-9.7,3.4-17.9,10.2-24.8c6.8-6.8,15.1-10.3,24.7-10.2
			c9.7,0,17.9,3.4,24.8,10.2C-23,95.7-19.6,104-19.6,113.6z"/>
	</g>
</g>
<g>
	<path class="st4" d="M159.2,69.2h-29.4c-1,0-1.8,0.8-1.8,1.8V108c0,1,0.8,1.8,1.8,1.8h29.4c1,0,1.8-0.8,1.8-1.8V70.9
		C161,69.9,160.2,69.2,159.2,69.2L159.2,69.2z M159.7,108c0,0.3-0.2,0.5-0.5,0.5h-29.4c-0.3,0-0.5-0.2-0.5-0.5V70.9
		c0-0.3,0.2-0.5,0.5-0.5h29.4c0.3,0,0.5,0.2,0.5,0.5V108z M155.7,75.8c0,0.4-0.3,0.6-0.6,0.6h-11c-0.4,0-0.6-0.3-0.6-0.6
		c0-0.4,0.3-0.6,0.6-0.6h11C155.4,75.2,155.7,75.5,155.7,75.8L155.7,75.8z M155.7,79.8c0,0.4-0.3,0.6-0.6,0.6h-11
		c-0.4,0-0.6-0.3-0.6-0.6c0-0.4,0.3-0.6,0.6-0.6h11C155.4,79.2,155.7,79.5,155.7,79.8L155.7,79.8z M155.7,87.5
		c0,0.4-0.3,0.6-0.6,0.6h-11c-0.4,0-0.6-0.3-0.6-0.6c0-0.4,0.3-0.6,0.6-0.6h11C155.4,86.8,155.7,87.1,155.7,87.5L155.7,87.5z
		 M155.7,91.5c0,0.4-0.3,0.6-0.6,0.6l-11,0c-0.4,0-0.6-0.3-0.6-0.6s0.3-0.6,0.6-0.6h11C155.4,90.8,155.7,91.1,155.7,91.5L155.7,91.5
		z M155.7,99.1c0,0.4-0.3,0.6-0.6,0.6l-11,0c-0.4,0-0.6-0.3-0.6-0.6s0.3-0.6,0.6-0.6h11C155.4,98.5,155.7,98.8,155.7,99.1
		L155.7,99.1z M155.7,103.1c0,0.4-0.3,0.6-0.6,0.6l-11,0c-0.4,0-0.6-0.3-0.6-0.6c0-0.4,0.3-0.6,0.6-0.6h11
		C155.4,102.5,155.7,102.8,155.7,103.1L155.7,103.1z M140.7,73.9l-0.7,0.8c-0.9-1-2.1-1.6-3.5-1.6c-2.6,0-4.7,2.1-4.7,4.7
		c0,2.6,2.1,4.7,4.7,4.7c2.6,0,4.7-2.1,4.7-4.7c0-0.7-0.2-1.5-0.5-2.1l0.9-1c0.2-0.3,0.2-0.7,0-0.9
		C141.3,73.6,140.9,73.6,140.7,73.9L140.7,73.9z M139.9,77.8c0,1.9-1.5,3.4-3.4,3.4c-1.9,0-3.4-1.5-3.4-3.4c0-1.9,1.5-3.4,3.4-3.4
		c1.1,0,2,0.5,2.6,1.2l-2.3,2.5l-1.5-1.5c-0.2-0.2-0.7-0.2-0.9,0c-0.2,0.2-0.2,0.7,0,0.9l1.9,1.9c0.1,0.1,0.3,0.2,0.4,0.2h0
		c0.2,0,0.3-0.1,0.5-0.2l2.5-2.7C139.8,77.1,139.9,77.4,139.9,77.8L139.9,77.8z M140.7,85.5l-0.7,0.8c-0.9-1-2.1-1.6-3.5-1.6
		c-2.6,0-4.7,2.1-4.7,4.7s2.1,4.7,4.7,4.7c2.6,0,4.7-2.1,4.7-4.7c0-0.7-0.2-1.5-0.5-2.1l0.9-1c0.2-0.3,0.2-0.7,0-0.9
		C141.3,85.3,140.9,85.3,140.7,85.5L140.7,85.5z M139.9,89.5c0,1.9-1.5,3.4-3.4,3.4c-1.9,0-3.4-1.5-3.4-3.4c0-1.9,1.5-3.4,3.4-3.4
		c1.1,0,2,0.5,2.6,1.2l-2.3,2.5l-1.5-1.5c-0.2-0.2-0.7-0.2-0.9,0c-0.2,0.2-0.2,0.7,0,0.9l1.9,1.9c0.1,0.1,0.3,0.2,0.4,0.2h0
		c0.2,0,0.3-0.1,0.5-0.2l2.5-2.7C139.8,88.8,139.9,89.1,139.9,89.5L139.9,89.5z M140.7,97.2l-0.7,0.8c-0.9-1-2.1-1.6-3.5-1.6
		c-2.6,0-4.7,2.1-4.7,4.7s2.1,4.7,4.7,4.7c2.6,0,4.7-2.1,4.7-4.7c0-0.7-0.2-1.5-0.5-2.1l0.9-1c0.2-0.3,0.2-0.7,0-0.9
		C141.3,96.9,140.9,96.9,140.7,97.2L140.7,97.2z M139.9,101.1c0,1.9-1.5,3.4-3.4,3.4c-1.9,0-3.4-1.5-3.4-3.4c0-1.9,1.5-3.4,3.4-3.4
		c1.1,0,2,0.5,2.6,1.2l-2.3,2.5l-1.5-1.5c-0.2-0.2-0.7-0.2-0.9,0c-0.2,0.2-0.2,0.7,0,0.9l1.9,1.9c0.1,0.1,0.3,0.2,0.4,0.2h0
		c0.2,0,0.3-0.1,0.5-0.2l2.5-2.7C139.8,100.4,139.9,100.8,139.9,101.1L139.9,101.1z"/>
</g>
<g>
	<path class="st4" d="M269.7,152.6c-2.3-0.6-4.4-1.5-6.5-2.6v-6.9c0-0.7-0.2-1.5-0.5-2.1c0,0,0,0,0-0.1h0c-0.2-0.5-0.5-0.9-0.9-1.3
		l-8.5-8.7c-0.5-0.5-1-0.9-1.6-1.1c-0.6-0.3-1.3-0.4-1.9-0.4h-15.4c-1.3,0-2.6,0.5-3.5,1.5c-0.9,0.9-1.5,2.2-1.5,3.5v32
		c0,1.3,0.5,2.6,1.5,3.5c0.9,0.9,2.2,1.5,3.5,1.5h24c0.5,0,1-0.1,1.4-0.2c0.6,0.2,1.2,0.1,1.7-0.2l3.2-2.1c2.1-1.4,3.7-3.2,4.9-5.4
		c1.2-2.2,1.8-4.6,1.8-7.1v-1.7c0-0.4-0.2-0.9-0.4-1.2C270.5,152.9,270.1,152.7,269.7,152.6L269.7,152.6z M259.7,140.3h-4.5
		c-0.8,0-1.6-0.3-2.1-0.9c-0.6-0.6-0.9-1.3-0.9-2.1v-4.7L259.7,140.3z M231.2,166.3v-32c0-0.8,0.3-1.6,0.9-2.1
		c0.6-0.6,1.3-0.9,2.1-0.9h15.4c0.2,0,0.4,0,0.5,0.1v5.9c0,1.3,0.5,2.6,1.5,3.5c0.9,0.9,2.2,1.5,3.5,1.5h5.9
		c0.1,0.2,0.1,0.5,0.1,0.7v5.7c-0.3-0.2-0.7-0.3-1-0.3c-0.4,0-0.7,0.1-1,0.3c-2.6,1.7-5.4,3-8.4,3.8c-0.4,0.1-0.8,0.4-1.1,0.7
		c-0.3,0.4-0.4,0.8-0.4,1.2v1.7c0,2.5,0.6,4.9,1.8,7.1c1.2,2.2,2.8,4,4.9,5.4l0.9,0.6h-22.6c-0.8,0-1.6-0.3-2.1-0.9
		C231.6,167.9,231.2,167.1,231.2,166.3L231.2,166.3z M269.2,156.2c0,4.3-2.2,8.4-5.8,10.8l-3.2,2.1L257,167l0,0
		c-3.6-2.4-5.8-6.5-5.8-10.8l0-1.7h0c3.2-0.9,6.2-2.2,9-4c2.8,1.8,5.8,3.2,9,4L269.2,156.2z"/>
	<path class="st4" d="M257.9,158.6c-0.4-0.4-1-0.4-1.4,0c-0.4,0.4-0.4,1,0,1.4l2,2c0.4,0.4,1,0.4,1.4,0l4-4h0c0.4-0.4,0.4-1,0-1.4
		c-0.4-0.4-1-0.4-1.4,0l-3.3,3.3L257.9,158.6z"/>
	<path class="st4" d="M236.2,139.3h8c0.6,0,1-0.4,1-1c0-0.6-0.4-1-1-1h-8c-0.6,0-1,0.4-1,1C235.2,138.9,235.7,139.3,236.2,139.3
		L236.2,139.3z"/>
	<path class="st4" d="M236.2,145.3h14c0.6,0,1-0.4,1-1s-0.4-1-1-1h-14c-0.6,0-1,0.4-1,1S235.7,145.3,236.2,145.3z"/>
	<path class="st4" d="M236.2,151.3h16c0.6,0,1-0.4,1-1s-0.4-1-1-1h-16c-0.6,0-1,0.4-1,1S235.7,151.3,236.2,151.3L236.2,151.3z"/>
	<path class="st4" d="M246.2,155.3h-10c-0.6,0-1,0.4-1,1s0.4,1,1,1h10c0.6,0,1-0.4,1-1S246.8,155.3,246.2,155.3z"/>
	<path class="st4" d="M246.2,161.3h-10c-0.6,0-1,0.4-1,1s0.4,1,1,1h10c0.6,0,1-0.4,1-1S246.8,161.3,246.2,161.3z"/>
</g>
<g>
	<path class="st4" d="M203.5,275.8h-7.6l1-2.5c0.1-0.4,0.2-0.8,0.2-1.2c0-1-0.5-1.9-1.2-2.5c-0.8-0.6-1.8-0.8-2.8-0.5
		c-1,0.3-1.7,1-2.1,1.9l-1.9,4.8h-3.9c-1,0-1.9,0.4-2.6,1.1c-0.7,0.7-1.1,1.6-1.1,2.6v9.4c0,1,0.4,1.9,1.1,2.6s1.6,1.1,2.6,1.1h15.5
		c0.8,0,1.6-0.3,2.2-0.7c0.6-0.5,1.1-1.1,1.3-1.9l2.9-9.4c0.3-1.1,0.1-2.4-0.6-3.3C205.8,276.3,204.6,275.7,203.5,275.8L203.5,275.8
		z M182.8,288.9v-9.4c0-0.6,0.2-1.2,0.7-1.6c0.4-0.4,1-0.7,1.6-0.7h3.7v14.1h-3.7c-0.6,0-1.2-0.2-1.6-0.7
		C183.1,290.1,182.8,289.5,182.8,288.9z M205.7,280.2l-2.9,9.4c-0.1,0.5-0.4,0.9-0.8,1.2c-0.4,0.3-0.9,0.5-1.4,0.5h-10.4v-14.6
		l2.1-5.1h0c0.2-0.5,0.6-0.9,1.2-1c0.5-0.1,1.1,0,1.5,0.3c0.4,0.3,0.7,0.8,0.7,1.4c0,0.2,0,0.5-0.1,0.7l-1.4,3.4
		c-0.1,0.2-0.1,0.5,0.1,0.7c0.1,0.2,0.3,0.3,0.6,0.3h8.6c0.7,0,1.4,0.4,1.9,0.9C205.8,278.7,205.9,279.5,205.7,280.2L205.7,280.2z"
		/>
	<path class="st4" d="M210.9,302.1h7.6l-1,2.5c-0.1,0.4-0.2,0.8-0.2,1.2c0,1,0.5,1.9,1.2,2.5c0.8,0.6,1.8,0.8,2.8,0.5
		c1-0.3,1.7-1,2.1-1.9l1.9-4.8h3.9c1,0,1.9-0.4,2.6-1.1c0.7-0.7,1.1-1.6,1.1-2.6v-9.4c0-1-0.4-1.9-1.1-2.6s-1.6-1.1-2.6-1.1h-15.5
		c-0.8,0-1.6,0.3-2.2,0.7c-0.6,0.5-1.1,1.1-1.3,1.9l-2.9,9.4c-0.3,1.1-0.1,2.4,0.6,3.3C208.6,301.5,209.7,302.1,210.9,302.1
		L210.9,302.1z M231.6,288.9v9.4c0,0.6-0.2,1.2-0.7,1.6c-0.4,0.4-1,0.7-1.6,0.7h-3.7v-14.1h3.7c0.6,0,1.2,0.2,1.6,0.7
		C231.3,287.7,231.6,288.3,231.6,288.9z M208.7,297.7l2.9-9.4c0.1-0.5,0.4-0.9,0.8-1.2c0.4-0.3,0.9-0.5,1.4-0.5h10.4v14.6l-2.1,5.1
		h0c-0.2,0.5-0.6,0.9-1.2,1s-1.1,0-1.5-0.3s-0.7-0.8-0.7-1.4c0-0.2,0-0.5,0.1-0.7l1.4-3.4c0.1-0.2,0.1-0.5-0.1-0.7
		c-0.1-0.2-0.3-0.3-0.6-0.3h-8.6c-0.7,0-1.4-0.4-1.9-0.9C208.6,299.2,208.5,298.4,208.7,297.7L208.7,297.7z"/>
</g>
<g>
	<path class="st4" d="M69.4,279.3c0.8,0.2,1.7,0.5,2.5,1.1l1.6-1.6c0.2-0.2,0.5-0.2,0.8,0l2.1,2.1c0.2,0.2,0.2,0.6,0,0.8l-1.6,1.6
		c0.5,0.8,0.8,1.7,1,2.6h2.3c0.3,0,0.5,0.2,0.5,0.5v3c0,0.3-0.2,0.5-0.5,0.5h-2.3c-0.2,0.9-0.5,1.7-1,2.5l1.6,1.6
		c0.2,0.2,0.2,0.5,0,0.7l-2.1,2.2c-0.2,0.2-0.6,0.2-0.8-0.1l-1.6-1.6c-0.8,0.5-1.7,0.8-2.5,1.1v2.2c0,0.3-0.2,0.5-0.5,0.5h-3
		c-0.3,0-0.5-0.2-0.5-0.5v-2.2c-0.9-0.2-1.7-0.6-2.5-1.1l-1.6,1.6c-0.2,0.2-0.5,0.2-0.7,0l-2.2-2.2c-0.2-0.2-0.2-0.5,0.1-0.7
		l1.6-1.6c-0.5-0.8-0.8-1.6-1.1-2.5h-2.2c-0.3,0-0.5-0.2-0.5-0.5v-3c0-0.3,0.2-0.5,0.5-0.5h2.2c0.2-0.9,0.6-1.8,1.1-2.6l-1.6-1.6
		c-0.2-0.2-0.2-0.5,0-0.8l2.2-2.1c0.2-0.2,0.5-0.2,0.7,0l1.6,1.6c0.8-0.5,1.6-0.8,2.5-1.1v-2.3c0-0.3,0.2-0.5,0.5-0.5h3
		c0.3,0,0.5,0.2,0.5,0.5L69.4,279.3L69.4,279.3z M68.8,280.3c-0.2-0.1-0.5-0.2-0.5-0.5v-2.2h-2v2.2c0,0.2-0.2,0.5-0.4,0.5
		c-1,0.2-2,0.6-2.9,1.1c-0.2,0.2-0.5,0.2-0.7,0l-1.5-1.6l-1.4,1.4l1.5,1.5c0.2,0.2,0.2,0.4,0.1,0.7c-0.6,0.9-1,1.9-1.2,2.9
		c0,0.2-0.2,0.5-0.5,0.5H57v2h2.2c0.3,0,0.5,0.2,0.5,0.4c0.2,1,0.6,2,1.2,2.9c0.1,0.2,0.1,0.5-0.1,0.7l-1.5,1.5l1.4,1.4l1.5-1.5
		c0.2-0.2,0.5-0.2,0.7-0.1c0.9,0.6,1.9,1,2.9,1.2c0.3,0,0.5,0.2,0.5,0.5v2.2h2V296c0-0.2,0.2-0.5,0.4-0.5c1.1-0.2,2-0.6,3-1.2
		c0.2-0.1,0.5-0.1,0.7,0.1l1.6,1.5l1.4-1.4l-1.6-1.5c-0.2-0.2-0.2-0.5-0.1-0.7c0.6-0.9,1-1.9,1.2-2.9c0.1-0.3,0.3-0.5,0.5-0.5h2.2
		v-2h-2.2c-0.2,0-0.5-0.2-0.5-0.4c-0.2-1.1-0.7-2-1.3-3c-0.1-0.2-0.1-0.5,0.1-0.7l1.6-1.5l-1.4-1.4l-1.6,1.6
		c-0.2,0.2-0.4,0.2-0.7,0.1C70.8,280.9,69.8,280.5,68.8,280.3L68.8,280.3z"/>
	<path class="st4" d="M67.3,283.3c2.5,0,4.5,2,4.5,4.5c0,2.5-2,4.5-4.5,4.5c-2.5,0-4.5-2-4.5-4.5C62.8,285.4,64.8,283.3,67.3,283.3
		L67.3,283.3z M67.3,284.4c-1.9,0-3.5,1.6-3.5,3.4c0,1.9,1.6,3.5,3.5,3.5s3.4-1.6,3.4-3.5C70.8,286,69.3,284.4,67.3,284.4
		L67.3,284.4z"/>
	<path class="st4" d="M89.7,266.8c0.9,0.2,1.8,0.6,2.6,1.1l1.6-1.6c0.2-0.2,0.5-0.2,0.8,0l2.1,2.2c0.2,0.2,0.2,0.5,0,0.8l-1.6,1.6
		c0.5,0.8,0.8,1.6,1.1,2.5h2.3c0.3,0,0.5,0.2,0.5,0.5v3c0,0.3-0.2,0.5-0.5,0.5h-2.2c-0.2,0.8-0.6,1.7-1.1,2.5l1.6,1.6
		c0.2,0.2,0.2,0.5,0,0.8l-2.1,2.1c-0.2,0.2-0.6,0.2-0.8,0l-1.6-1.6c-0.8,0.5-1.7,0.8-2.6,1v2.3c0,0.3-0.2,0.5-0.5,0.5h-3.1
		c-0.3,0-0.5-0.2-0.5-0.5v-2.3c-0.9-0.2-1.7-0.5-2.5-1l-1.6,1.6c-0.2,0.2-0.5,0.2-0.7,0l-2.2-2.1c-0.2-0.2-0.2-0.6,0.1-0.8l1.6-1.6
		c-0.5-0.8-0.8-1.7-1.1-2.5h-2.2c-0.3,0-0.5-0.2-0.5-0.5v-3c0-0.3,0.2-0.5,0.5-0.5h2.2c0.2-0.9,0.6-1.7,1.1-2.5l-1.6-1.6
		c-0.2-0.2-0.2-0.5,0-0.7l2.2-2.2c0.2-0.2,0.5-0.2,0.7,0l1.6,1.6c0.8-0.5,1.6-0.8,2.5-1.1v-2.2c0-0.3,0.2-0.5,0.5-0.5h3
		c0.3,0,0.5,0.2,0.5,0.5L89.7,266.8z M89.2,267.8c-0.2,0-0.5-0.2-0.5-0.5v-2.2h-2v2.2c0,0.3-0.2,0.5-0.4,0.5c-1,0.2-2,0.6-2.9,1.2
		c-0.2,0.2-0.5,0.1-0.7-0.1l-1.5-1.5l-1.4,1.4l1.6,1.5c0.2,0.2,0.2,0.5,0.1,0.7c-0.6,0.9-1,1.9-1.2,2.9c0,0.3-0.2,0.5-0.5,0.5h-2.2
		v2h2.2c0.2,0,0.5,0.2,0.5,0.4c0.2,1.1,0.6,2,1.2,3c0.1,0.2,0.1,0.5-0.1,0.7l-1.6,1.6l1.4,1.4l1.5-1.5c0.2-0.2,0.5-0.2,0.7-0.1
		c0.9,0.6,1.9,1,2.9,1.2c0.3,0.1,0.5,0.3,0.5,0.5v2.2h2v-2.2c0-0.2,0.2-0.5,0.4-0.5c1.1-0.2,2-0.7,3-1.2c0.2-0.2,0.5-0.2,0.7,0
		l1.5,1.6l1.4-1.4l-1.6-1.6c-0.2-0.2-0.2-0.4-0.1-0.7c0.6-0.8,1-1.9,1.2-2.9c0.1-0.2,0.2-0.5,0.5-0.5h2.2v-2h-2.2
		c-0.2,0-0.5-0.2-0.5-0.4c-0.2-1.1-0.6-2-1.2-3c-0.1-0.2-0.1-0.5,0.1-0.7l1.6-1.5l-1.4-1.4l-1.5,1.5c-0.2,0.2-0.5,0.2-0.7,0.1
		C91.2,268.4,90.2,268,89.2,267.8L89.2,267.8z"/>
	<path class="st4" d="M87.7,270.8c2.5,0,4.5,2,4.5,4.5c0,2.5-2,4.5-4.5,4.5c-2.5,0-4.5-2-4.5-4.5C83.2,272.8,85.2,270.8,87.7,270.8
		L87.7,270.8z M87.7,271.9c-1.9,0-3.5,1.6-3.5,3.5c0,1.9,1.6,3.4,3.5,3.4c1.9,0,3.4-1.5,3.4-3.4C91.1,273.4,89.6,271.9,87.7,271.9
		L87.7,271.9z"/>
	<path class="st4" d="M89.7,290.6c0.9,0.2,1.7,0.6,2.5,1.1l1.6-1.6c0.2-0.2,0.5-0.2,0.7,0l2.2,2.1c0.2,0.2,0.2,0.6-0.1,0.8l-1.6,1.6
		c0.5,0.8,0.8,1.7,1.1,2.6h2.2c0.3,0,0.5,0.2,0.5,0.5v3c0,0.3-0.2,0.5-0.5,0.5h-2.2c-0.2,0.9-0.6,1.7-1.1,2.5l1.6,1.6
		c0.2,0.2,0.2,0.5,0,0.7l-2.2,2.2c-0.2,0.2-0.5,0.2-0.7-0.1l-1.6-1.6c-0.8,0.5-1.6,0.8-2.5,1.1v2.2c0,0.3-0.2,0.5-0.5,0.5h-3
		c-0.3,0-0.5-0.2-0.5-0.5v-2.2c-0.8-0.2-1.7-0.6-2.5-1.1l-1.6,1.6c-0.2,0.2-0.5,0.2-0.8,0l-2.1-2.2c-0.2-0.2-0.2-0.5,0-0.7l1.6-1.6
		c-0.5-0.8-0.8-1.6-1.1-2.5h-2.3c-0.3,0-0.5-0.2-0.5-0.5v-3c0-0.3,0.2-0.5,0.5-0.5h2.3c0.2-0.9,0.5-1.8,1.1-2.6l-1.6-1.6
		c-0.2-0.2-0.2-0.5,0-0.8l2.1-2.1c0.2-0.2,0.5-0.2,0.8,0l1.6,1.6c0.8-0.5,1.7-0.8,2.6-1.1v-2.3c0-0.3,0.2-0.5,0.5-0.5h3
		c0.3,0,0.5,0.2,0.5,0.5L89.7,290.6L89.7,290.6z M89.2,291.6c-0.3-0.1-0.5-0.2-0.5-0.5v-2.2h-2v2.2c0,0.2-0.2,0.5-0.4,0.5
		c-1.1,0.2-2,0.6-2.9,1.1c-0.2,0.2-0.5,0.2-0.7,0l-1.6-1.6l-1.4,1.4l1.5,1.5c0.2,0.2,0.2,0.4,0.1,0.7c-0.6,0.9-1,1.9-1.2,2.9
		c-0.1,0.2-0.2,0.5-0.5,0.5h-2.2v2h2.2c0.2,0,0.5,0.2,0.5,0.4c0.2,1,0.6,2,1.2,2.9c0.1,0.2,0.1,0.5-0.1,0.7l-1.6,1.5l1.4,1.4
		l1.6-1.5c0.2-0.2,0.4-0.2,0.7-0.1c0.8,0.6,1.9,1,2.9,1.2c0.2,0,0.5,0.2,0.5,0.5v2.2h2v-2.2c0-0.2,0.2-0.5,0.4-0.5
		c1-0.2,2-0.6,2.9-1.2c0.2-0.1,0.5-0.1,0.7,0.1l1.5,1.5l1.4-1.4l-1.5-1.5c-0.2-0.2-0.2-0.5-0.1-0.7c0.6-0.9,1-1.9,1.2-2.9
		c0-0.3,0.2-0.5,0.5-0.5h2.2v-2h-2.2c-0.2,0-0.5-0.2-0.5-0.4c-0.2-1.1-0.6-2-1.2-3c-0.1-0.2-0.1-0.5,0.1-0.7l1.5-1.5l-1.4-1.4
		l-1.5,1.6c-0.2,0.2-0.5,0.2-0.7,0.1C91.1,292.2,90.2,291.8,89.2,291.6L89.2,291.6z"/>
	<path class="st4" d="M87.6,294.6c2.5,0,4.5,2,4.5,4.5c0,2.5-2,4.5-4.5,4.5c-2.5,0-4.5-2-4.5-4.5C83.1,296.6,85.2,294.6,87.6,294.6z
		 M87.6,295.7c-1.9,0-3.4,1.6-3.4,3.4c0,1.9,1.5,3.5,3.4,3.5c1.9,0,3.5-1.6,3.5-3.5C91.1,297.2,89.6,295.7,87.6,295.7L87.6,295.7z"
		/>
</g>
<path class="st4" d="M60.5,163.7l-11.3-11.3c-0.4-0.4-1.1-0.4-1.5,0l-0.9,0.9l-1.7-1.7c2.1-2.4,3.2-5.5,3.2-8.7c0-3.6-1.4-7-3.9-9.5
	c-5.2-5.2-13.8-5.2-19,0c-5.2,5.2-5.2,13.8,0,19c2.5,2.5,5.9,3.9,9.5,3.9c3.2,0,6.3-1.1,8.7-3.2l1.7,1.7l-0.9,0.9
	c-0.2,0.2-0.3,0.5-0.3,0.7c0,0.3,0.1,0.5,0.3,0.7l11.3,11.3c0.7,0.7,1.5,1,2.4,1s1.7-0.3,2.4-1C61.8,167.2,61.8,165,60.5,163.7
	L60.5,163.7z M26.9,150.9c-4.4-4.4-4.4-11.6,0-16c2.2-2.2,5.1-3.3,8-3.3c2.9,0,5.8,1.1,8,3.3c2.1,2.1,3.3,5,3.3,8c0,3-1.2,5.9-3.3,8
	c-2.1,2.1-5,3.3-8,3.3C31.9,154.3,29.1,153.1,26.9,150.9z M59,167c-0.5,0.5-1.3,0.5-1.8,0l-10.5-10.5l0.2-0.2l0.9,0.9
	c0.2,0.2,0.5,0.3,0.7,0.3c0.3,0,0.5-0.1,0.7-0.3c0.4-0.4,0.4-1.1,0-1.5l-0.9-0.9l0.2-0.2L59,165.1C59.5,165.7,59.5,166.5,59,167
	L59,167z M31.9,142.7c-0.5-0.5-1.3-0.5-1.8,0c-0.5,0.5-0.5,1.3,0,1.8l2.6,2.6c0.5,0.5,1.3,0.5,1.9,0l5.2-5.2h0
	c0.5-0.5,0.5-1.3,0-1.8c-0.5-0.5-1.3-0.5-1.8,0l-4.3,4.3L31.9,142.7z"/>
</svg>
