
<svg xmlns="http://www.w3.org/2000/svg" version="1.1" xmlns:xlink="http://www.w3.org/1999/xlink" preserveAspectRatio="none" x="0px" y="0px" width="250px" height="390px" viewBox="0 0 250 390">
<defs>
<linearGradient id="Gradient_1" gradientUnits="userSpaceOnUse" x1="18.299999999999983" y1="129.6" x2="269.1" y2="129.6" spreadMethod="pad">
<stop  offset="0%" stop-color="#FAC496"/>

<stop  offset="24.313725490196077%" stop-color="#F4D7B7"/>

<stop  offset="63.92156862745098%" stop-color="#ECF4E8"/>

<stop  offset="83.52941176470588%" stop-color="#E9FFFB"/>
</linearGradient>

<g id="Layer1_0_MEMBER_0_MEMBER_0_FILL">
<path fill="url(#Gradient_1)" stroke="none" d="
M 269.1 129.6
Q 269.1 77.65 232.35 40.9 195.65 4.2 143.7 4.2 91.75 4.2 55 40.9 18.3 77.65 18.3 129.6 18.3 181.55 55 218.25 91.75 255 143.7 255 195.65 255 232.35 218.25 269.1 181.55 269.1 129.6 Z"/>
</g>

<g id="Layer1_0_MEMBER_0_MEMBER_5_FILL">
<path fill="url(#Gradient_1)" stroke="none" d="
M 269.1 129.6
Q 269.1 77.65 232.35 40.9 195.65 4.2 143.7 4.2 91.75 4.2 55 40.9 18.3 77.65 18.3 129.6 18.3 181.55 55 218.25 91.75 255 143.7 255 195.65 255 232.35 218.25 269.1 181.55 269.1 129.6 Z"/>
</g>

<g id="Layer1_0_MEMBER_0_MEMBER_7_FILL">
<path fill="url(#Gradient_1)" stroke="none" d="
M 269.1 129.6
Q 269.1 77.65 232.35 40.9 195.65 4.2 143.7 4.2 91.75 4.2 55 40.9 18.3 77.65 18.3 129.6 18.3 181.55 55 218.25 91.75 255 143.7 255 195.65 255 232.35 218.25 269.1 181.55 269.1 129.6 Z"/>
</g>

<g id="Layer0_0_MEMBER_0_FILL">
<path fill="#026DAE" stroke="none" d="
M 229.85 121.5
Q 229.4 120.85 227.8 120.5 220.45 118.8 210.05 117.65 198.1 116.45 192.1 115.8 183.05 114.8 164.55 112.1 146.35 109.45 136.95 108.45 136.3 108.35 135.8 108.65 135.55 108.8 135.45 108.95 92.55 112.3 48.8 113 41.98671875 112.8458984375 35.25 113.45 31.0599609375 113.8599609375 26.9 114.55 25.65 114.8 25.2 115.8 23.4 116.2 22.95 118.15 21.9 122.3 22.1 126.6 22.2 128.5 22.85 130.05 25.4 136.25 27.15 142.75 27.8 145.15 30.1 146.25
L 30.95 145.95 34.5 146.85
Q 33.95 146.8 33.15 147.05
L 29.7 147.75
Q 28 147.9 27.15 148 25.65 148.2 24.6 148.5 21.8 149.2 20.5 151.25 19.9 152.1 19.45 153.85
L 18.9 156.5
Q 18.8 157.4 18.8 159.35
L 18.8 163.1
Q 18.8 164.25 18.95 164.85 19.15 165.65 19.85 166.45 19.15 166.25 18.25 166.45 16.65 166.85 15.75 168.15 15 169.25 14.75 170.95 14.6 171.9 14.6 173.95 14.65 179.7 14.85 182.55 15.15 187.3 16.15 190.95 17.55 196.05 20.15 199.15 20.05 199.2 19.95 199.25 19.45 199.6 19.2 200.35 18.55 202.05 18.5 205.7
L 18.45 211.8
Q 18.35 214.5 18.5 216.65
L 19.3 224.25
Q 19.6 226.1 20.7 229.5 21.05 230.2 21.3 230.35 21.65 230.5 21.95 230.25 24.6 232.6 28.4 235.9 23.5 236.6 19.7 237.3 17.5 237.7 16.35 238.15 14.55 238.8 13.55 239.9 11.95 241.65 11.4 245.55 10.3 252.2 11.2 256.95 12.45 263.3 16.65 266.75 18.15 267.95 20.4 269 21.4 269.45 24.45 270.65 26.25 271.4 28.2 272.3
L 77.4 297.3
Q 81.2 298.95 86.45 301.4 96.75 306.2 103 307.75 103.5 307.85 103.9 307.75 104.35 307.55 104.3 307.15 104.8373046875 307.3142578125 105.4 307.4 106.7716796875 307.640234375 108.35 307.5 109.95 307.3 113.1 306.5 127.6 302.85 164.8 297.6 179.4755859375 295.509765625 191.2 293.2 205.8494140625 290.320703125 215.9 287.1 217.2 286.7 217.95 286 218.85 285.15 218.6 284.2 218.4 283.5 217.65 283.2 216.8 282.3 214.65 281.9
L 212.95 281.55 211.1 276.65 209.9 271.8
Q 209.6 270.3 209.1 268.7 208.7 267.7 208.6 267.05 208.45 266.45 208.45 265.2 208.45 263.8 208.65 263.1
L 210.05 260
Q 210.35 259.3 210.65 259
L 210.5 258.85
Q 212.6 258.45 213.55 258.1 215.2 257.6 216.25 256.8 216.7 256.5 216.9 256 217.1 255.4 216.7 255.15
L 216.65 255.1
Q 216.65 255.05 216.7 254.95 216.8 254.7 216.6 254.35 216.1 253.25 215.85 252.9 215.4 252.45 214.1 251.85 212.65 251.25 209.85 250.4 206.95 249.45 205.65 248.95 202.75 247.65 201.25 247.15
L 198.5 246.25
Q 196.1 245.4 194.85 245.15 192.7 244.7 191.25 245.2 191.15 244.7 191.1 244.15 190.8 241.7 190.75 240.3 190.65 238.15 190.8 233.75
L 191.05 228.55
Q 191.15 226.5 191.5 225.5 191.80625 224.72265625 192.3 224.2 192.8802734375 223.6615234375 193.7 223.45 194.3 223.4 194.45 223.15 194.45 223.1 194.5 223.05 195.3826171875 222.967578125 196.25 222.9 206.4482421875 221.9568359375 214.65 221.45 215.75 221.4 216.5 221.25 217.7 221.7 218.95 220.65 220.35 219.45 219.85 218 218.9 215.3 213.8 215.9
L 212 216.15
Q 211.85 215.95 211.75 215.85 211.3 215.1 211 214.75 210.85 214.55 210.45 214.25 210 213.95 209.8 213.75 209.5203125 213.3771484375 209.15 212.2 209.1271484375 212.137890625 209.1 212.05 208.4 209.7 207.05 207.7
L 205.9 206.1
Q 205.15 204.9 205 204.1 204.85 203.4 204.85 202.55 204.9 201.2 204.9 200.5 204.9 199.3 204.8 198.5 204.55 197.3 204.5 196.7 204.4 195.65 204.65 194.25 205 192.65 205.15 191.85 205.4 190.65 205.5 189 205.5330078125 188.6033203125 205.55 188.3 205.6330078125 187.70078125 205.7 187.5 205.85 186.7 206.35 186.3 206.6 186 207.25 185.55 207.45 185.35 207.45 185.15 210.0748046875 184.8646484375 212.9 184.55 216.944921875 184.114453125 221.4 183.6 227.444140625 182.95625 234.25 182.2 235.2 182.1 235.45 181.6 235.7 181.05 235 180.65 235.05 180.55 235.15 180.5 235.7 179.8 235.6 179 235.45 178.25 234.8 177.7 234.25 177.15 233.45 177 232.65 176.75 231.4 176.85 231.4 176.7 231.4 176.6 231.55 175.35 231.3 174.65
L 231.1 174.3
Q 231.2 167.95 231.85 160.4 231.85 160.3 231.85 160.25 233.6 160.15 235.3 160.1 236.05 160.05 236.6 159.7 236.85 159.5 237 159.4
L 237.7 158.95
Q 237.95 158.75 238 158.65 238.1 158.45 238.05 158.4 238.1 158.25 238.15 158.15 238.3267578125 157.61953125 238.05 157.05 238.040625 156.975390625 238 156.9 237.6 155.75 236.8 155.45 236.55 155.3 235.75 155.25 232.8 155.05 230.1 155.6 230.05 155.45 230.05 155.3 230.05 154.8 229.9 154.6 229.6 154.2 229.3 154.25 229.2 154.25 229.15 154.3 229.1 154.1 228.9 153.95 228.8 153.8 228.15 153.7 226.1 153.55 223.9 153.5 223.95 153.1 223.8 152.6 223.35 151.15 223.15 150.4 223.05 149.9 223.05 148.35
L 223.05 142.8
Q 223.15 141.4 222.9 140.55 222.7 139.65 222.6 139.2 222.25 138.05 222.25 136.55 222.25 135.75 222.4 135.4
L 222.9 134.35
Q 222.95 134.2 223.1 132.65 223.45 131.15 223.45 130.4 223.25 129 223.4 128.35 223.45 127.65 224.5 126.4
L 225.75 125
Q 226 124.75 226 124.6 227.25 124.45 228.55 124.35 229.5 124.25 229.55 123.75 229.75 123.55 229.9 123.3 230.4 122.3 229.85 121.5 Z"/>
</g>

<g id="Layer0_0_MEMBER_1_FILL">
<path fill="#053336" stroke="none" d="
M 229.85 121.5
Q 229.4 120.85 227.8 120.5 220.45 118.8 210.05 117.65 198.1 116.45 192.1 115.8 183.05 114.8 164.55 112.1 146.35 109.45 136.95 108.45 136.3 108.35 135.8 108.65 135.55 108.8 135.45 108.95 92.55 112.3 48.8 113 41.98671875 112.8458984375 35.25 113.45 31.0599609375 113.8599609375 26.9 114.55 25.65 114.8 25.2 115.8 23.4 116.2 22.95 118.15 21.9 122.3 22.1 126.6 22.2 128.5 22.85 130.05 25.4 136.25 27.15 142.75 27.8 145.15 30.1 146.25
L 30.95 145.95 34.5 146.85
Q 33.95 146.8 33.15 147.05
L 29.7 147.75
Q 28 147.9 27.15 148 25.65 148.2 24.6 148.5 21.8 149.2 20.5 151.25 19.9 152.1 19.45 153.85
L 18.9 156.5
Q 18.8 157.4 18.8 159.35
L 18.8 163.1
Q 18.8 164.25 18.95 164.85 19.15 165.65 19.85 166.45 19.15 166.25 18.25 166.45 16.65 166.85 15.75 168.15 15 169.25 14.75 170.95 14.6 171.9 14.6 173.95 14.65 179.7 14.85 182.55 15.15 187.3 16.15 190.95 17.55 196.05 20.15 199.15 20.05 199.2 19.95 199.25 19.45 199.6 19.2 200.35 18.55 202.05 18.5 205.7
L 18.45 211.8
Q 18.35 214.5 18.5 216.65
L 19.3 224.25
Q 19.6 226.1 20.7 229.5 21.05 230.2 21.3 230.35 21.65 230.5 21.95 230.25 24.6 232.6 28.4 235.9 23.5 236.6 19.7 237.3 17.5 237.7 16.35 238.15 14.55 238.8 13.55 239.9 11.95 241.65 11.4 245.55 10.3 252.2 11.2 256.95 12.45 263.3 16.65 266.75 18.15 267.95 20.4 269 21.4 269.45 24.45 270.65 26.25 271.4 28.2 272.3
L 77.4 297.3
Q 81.2 298.95 86.45 301.4 96.75 306.2 103 307.75 103.5 307.85 103.9 307.75 104.35 307.55 104.3 307.15 104.8373046875 307.3142578125 105.4 307.4 106.7716796875 307.640234375 108.35 307.5 109.95 307.3 113.1 306.5 127.6 302.85 164.8 297.6 179.4755859375 295.509765625 191.2 293.2 205.8494140625 290.320703125 215.9 287.1 217.2 286.7 217.95 286 218.85 285.15 218.6 284.2 218.4 283.5 217.65 283.2 216.8 282.3 214.65 281.9
L 212.95 281.55 211.1 276.65 209.9 271.8
Q 209.6 270.3 209.1 268.7 208.7 267.7 208.6 267.05 208.45 266.45 208.45 265.2 208.45 263.8 208.65 263.1
L 210.05 260
Q 210.35 259.3 210.65 259
L 210.5 258.85
Q 212.6 258.45 213.55 258.1 215.2 257.6 216.25 256.8 216.7 256.5 216.9 256 217.1 255.4 216.7 255.15
L 216.65 255.1
Q 216.65 255.05 216.7 254.95 216.8 254.7 216.6 254.35 216.1 253.25 215.85 252.9 215.4 252.45 214.1 251.85 212.65 251.25 209.85 250.4 206.95 249.45 205.65 248.95 202.75 247.65 201.25 247.15
L 198.5 246.25
Q 196.1 245.4 194.85 245.15 192.7 244.7 191.25 245.2 191.15 244.7 191.1 244.15 190.8 241.7 190.75 240.3 190.65 238.15 190.8 233.75
L 191.05 228.55
Q 191.15 226.5 191.5 225.5 191.80625 224.72265625 192.3 224.2 192.8802734375 223.6615234375 193.7 223.45 194.3 223.4 194.45 223.15 194.45 223.1 194.5 223.05 195.3826171875 222.967578125 196.25 222.9 206.4482421875 221.9568359375 214.65 221.45 215.75 221.4 216.5 221.25 217.7 221.7 218.95 220.65 220.35 219.45 219.85 218 218.9 215.3 213.8 215.9
L 212 216.15
Q 211.85 215.95 211.75 215.85 211.3 215.1 211 214.75 210.85 214.55 210.45 214.25 210 213.95 209.8 213.75 209.5203125 213.3771484375 209.15 212.2 209.1271484375 212.137890625 209.1 212.05 208.4 209.7 207.05 207.7
L 205.9 206.1
Q 205.15 204.9 205 204.1 204.85 203.4 204.85 202.55 204.9 201.2 204.9 200.5 204.9 199.3 204.8 198.5 204.55 197.3 204.5 196.7 204.4 195.65 204.65 194.25 205 192.65 205.15 191.85 205.4 190.65 205.5 189 205.5330078125 188.6033203125 205.55 188.3 205.6330078125 187.70078125 205.7 187.5 205.85 186.7 206.35 186.3 206.6 186 207.25 185.55 207.45 185.35 207.45 185.15 210.0748046875 184.8646484375 212.9 184.55 216.944921875 184.114453125 221.4 183.6 227.444140625 182.95625 234.25 182.2 235.2 182.1 235.45 181.6 235.7 181.05 235 180.65 235.05 180.55 235.15 180.5 235.7 179.8 235.6 179 235.45 178.25 234.8 177.7 234.25 177.15 233.45 177 232.65 176.75 231.4 176.85 231.4 176.7 231.4 176.6 231.55 175.35 231.3 174.65
L 231.1 174.3
Q 231.2 167.95 231.85 160.4 231.85 160.3 231.85 160.25 233.6 160.15 235.3 160.1 236.05 160.05 236.6 159.7 236.85 159.5 237 159.4
L 237.7 158.95
Q 237.95 158.75 238 158.65 238.1 158.45 238.05 158.4 238.1 158.25 238.15 158.15 238.3267578125 157.61953125 238.05 157.05 238.040625 156.975390625 238 156.9 237.6 155.75 236.8 155.45 236.55 155.3 235.75 155.25 232.8 155.05 230.1 155.6 230.05 155.45 230.05 155.3 230.05 154.8 229.9 154.6 229.6 154.2 229.3 154.25 229.2 154.25 229.15 154.3 229.1 154.1 228.9 153.95 228.8 153.8 228.15 153.7 226.1 153.55 223.9 153.5 223.95 153.1 223.8 152.6 223.35 151.15 223.15 150.4 223.05 149.9 223.05 148.35
L 223.05 142.8
Q 223.15 141.4 222.9 140.55 222.7 139.65 222.6 139.2 222.25 138.05 222.25 136.55 222.25 135.75 222.4 135.4
L 222.9 134.35
Q 222.95 134.2 223.1 132.65 223.45 131.15 223.45 130.4 223.25 129 223.4 128.35 223.45 127.65 224.5 126.4
L 225.75 125
Q 226 124.75 226 124.6 227.25 124.45 228.55 124.35 229.5 124.25 229.55 123.75 229.75 123.55 229.9 123.3 230.4 122.3 229.85 121.5
M 228.35 122.9
Q 228.4 122.95 228.45 123 221.8 122.7 213.05 123.4 212.1056640625 123.4708984375 208.6 123.8 204.7466796875 124.1875 197.7 124.9 182.45 126.5 158.35 127.9 125.3 129.8 118.95 130.25 112.3 130.75 108.25 131.55 107.95 131.5 107.6 131.5 107.05 131.55 106.15 131.95 104.35 132.75 103.75 133.35 103.35 133.75 102.7 134.9 102.1 136 101.95 136.55 101.75 137.15 101.75 138.35
L 101.75 151.95
Q 101.75 153.1486328125 101.8 154 101.8376953125 154.584765625 101.9 155 102.25 157 103.5 158.6 104.5 159.85 106.6 161.1 106.8 161.25 107 161.35 106.85 161.4 106.7 161.45 108 162.1 110.65 161.9 113.653515625 161.7267578125 116.55 161.55 165.903125 158.691015625 191.3 156.85 191.8119140625 156.8146484375 192.3 156.75 204.5421875 155.940234375 209.25 155.7 217.9 155.3 224.9 155.4
L 214.05 156.2
Q 212.15 156.45 211.25 156.55 210.65 156.2 209.95 156.25 204.4015625 156.63984375 198.85 157.05 173.792578125 158.97109375 148.7 161.55 138.9224609375 162.5708984375 133.7 163 132.283984375 163.1640625 131.2 163.25 127.4537109375 163.53515625 124 163.7 118.421484375 163.94296875 113.65 163.85 109.8 163.75 105.7 163.45 105.4 163.05 104.65 162.85
L 48.8 148.5
Q 40.4 146.4 32.05 144.35 31.2 144.25 30.35 144.2 29.9 143.7 29.65 143.05 28.15 138.65 26.35 134.3 25.55 132.45 24.95 130.55 23.1 124.7 24.35 118.6 24.7 117 26.35 116.4
L 26.7 115.85 35.5 115.5
Q 38.15 116.4 43.05 117 72.15 120.75 100.15 126.55 102.0193359375 126.92890625 103.35 127.15 104.6583984375 127.4009765625 105.45 127.5 108.4 127.9 110.8 127.75 108.745703125 127.203515625 105.9 126.55 101.1662109375 125.4896484375 94.25 124.15 72.65 120 56.45 117.75 46.5 116.35 37.3 115.4
L 48.8 114.9
Q 61.95 114.45 80.8 113.85 115.5 112.95 136.3 110.65 137.3 110.6 137.6 110.2
L 175.9 115.65
Q 186.55 117.15 191.85 117.75 197.7 118.45 209.5 119.55 219.85 120.7 227 122.3 228.1 122.65 228.35 122.9
M 221.55 132.4
Q 221.55 133.45 221.5 133.6 221.45 133.7 221.1 134.5 220.75 135.1 220.75 136.55 220.75 138.35 221 139.25 221.1 139.75 221.4 140.8 220.9 140.6 220.2 140.45 217.55 140.05 213.05 140.05 189.75 140.05 174.9 141.3 174.2 141.3 173.95 141.65 194.05 141.05 214.1 141.05 218.75 141.05 221.05 141.6 221.35 141.65 221.55 141.7 221.6 142.25 221.55 143
L 221.55 148.7
Q 221.45 149.9 221.65 150.8
L 222.15 152.4
Q 222.4 153 222.65 153.5 213.5 153.25 201.85 154.1 187.527734375 155.3310546875 179.05 155.95 177.218359375 156.0923828125 175.65 156.2 172.35 156.45 142.6 158 125.101171875 158.833203125 113 160.25 111.291015625 160.4849609375 109.7 160.7 108.95 160.75 108.3 160.95 107.65 159.9 106.7 159
L 105.8 158.25
Q 104.7896484375 157.28359375 104.2 155.85 104.1228515625 155.656640625 104.05 155.45 103.6 154.1 103.6 151.2
L 103.6 139
Q 103.6 137.65 103.75 137.05 104.15 135.9 104.3 135.3 104.7 134.35 105.05 134 105.35 133.7 105.9 133.45 106.95 132.85 107.45 132.75 107.7 132.65 108.3 132.45 108.5 132.35 108.7 132.25 109.55 132.35 110.65 132.3 137.1 131.35 169.6 129.05 178.9533203125 128.38359375 191.35 127.4 205.944921875 126.2669921875 224.75 124.7
L 224.55 124.85
Q 224.3 125.2 223.65 125.65 223 126.15 222.7 126.45 222.15 127.2 222.05 128.55 221.9 130.8 221.85 130.9 221.55 132.3 221.55 132.4
M 235.5 156.6
Q 235.8 156.6 236.1 156.7 236.3392578125 156.81953125 236.5 157.05 236.8853515625 157.494140625 237.05 158.35 236.9 158.4 236.7 158.45 236.35 158.25 235.7 158.25 231.7025390625 158.2203125 225.35 158.55 220.9548828125 158.821875 215.45 159.25 187.35 161.35 173.45 162.8 151.35 165.2 133.75 168.8 133.7 168.55 133.55 168.4 133.2 168.25 132.7 168.45 130.35 169.25 128.75 170.95 128.2 171.65 128.1 171.9
L 127.75 174.2
Q 127.5 175.1 127.5 176.45 127.5 177.9 127.75 179.8
L 128.9 186.15
Q 129.2 187.05 129.75 188.75 130 189.9 130.15 190.15 130.35 190.5 130.75 190.6 131.1 190.7 131.4 190.5 131.75 190.15 131.65 189.45 131.6 189.1 131.45 188.45 132.5 189 134 189.05 135.35 189.1 137.6 188.65 146.6 187.05 163.35 185.5
L 233.7 179
Q 233.95 179.7 233.95 180.4 233.7 180.35 233.5 180.4
L 134.9 190.8
Q 131.65 191.2 129.9 191.45 127.166015625 190.327734375 124.35 189.35 122.3296875 188.63671875 120.25 188 118.85 187.55 117.5 187.15 116.8419921875 186.9576171875 116.15 186.75 113.4908203125 186.0279296875 110.5 185.35 104.35 183.9 98.1 183
L 81.3 179.85
Q 77.2 179 73.75 178.35 73.15 178.15 73.1 178.15 68.95 177 60.5 175.4
L 24.7 168.85
Q 24.7 168.8 24.7 168.75 24.75 168.4 24.4 168.15
L 22.4 166.2
Q 21.05 164.9 20.8 164.05 20.65 163.6 20.65 162.7 20.55 157.85 20.9 155.45 21 154.7 21.2 153.95 21.95 151.15 24.3 150.2 24.95 149.95 26.25 149.8 29.95 149.25 34.15 147.95 35.05 147.7 35.35 147.2 35.2 147.1 35 147
L 48.8 150.5
Q 48.95 150.5 49.1 150.55 51.35 151.1 75.65 157.35
L 103.65 164.7
Q 104.75 164.9 105.05 164.85 105.4 164.75 105.6 164.6 106.8 164.95 108.15 165.2 109 165.35 110.15 165.5 110.05 165.55 110 165.7 109.9 166.05 110.2 166.7 110.55 167.35 111.2 168.2
L 112.05 169.25
Q 112.25 169.6 112.45 169.7 112.8 169.9 113.2 169.9 113.9 170 114.4 169.85 114.95 169.7 116.4 168.9 117.25 168.35 119.15 167.6
L 120.55 167.1
Q 120.8 167 122.4 166.55 124.0845703125 166.140234375 125.55 165.85 125.7068359375 165.8267578125 125.85 165.8 126.15 165.85 126.5 165.95 128.85 166.55 129.55 166.65 130.15 166.8 130.75 166.8 130.6 166.45 129.85 166.2 128.6 165.75 127.45 165.5 127.85 165.4 128.1 165.3 135.9 164.85 146.2 163.85
L 210.2 158
Q 212.65 158 216.6 157.8 216.8353515625 157.787109375 217.05 157.75 220.362890625 157.590234375 222 157.45 224.2 157.35 228.3 157.1 229.15 157.1 229.5 156.75 229.55 156.7 229.65 156.7 230.15 156.7 231 156.55 232.15 156.4 234.35 156.5
L 235.5 156.6
M 229.75 172.4
Q 229.7 172.6 229.8 172.9 229.9 174.6 230.2 176.15 230.25 176.15 230.35 176.2 230.35 176.45 230.35 176.75 230.35 176.85 230.35 176.95
L 230.3 176.95
Q 219.6 178.4 214.25 179 212.2609375 179.19609375 207.5 179.6 203.75234375 179.9103515625 198.3 180.35 164.3 182.9 131.3 187.85 131.15 187.35 130.95 186.75 130.45 185.2 130.15 183.65
L 129.3 178.5 129.25 174.75 129.45 173.35
Q 129.5 172.7 129.7 172.4 129.8 172.2 130.3 171.6 131.5 170.3 132.05 170.1 132.25 170.05 132.45 170 132.9 170.15 133.45 170.05 170.3392578125 164.478125 207.8 161.7 219.0693359375 160.8787109375 230.4 160.3 229.85 165.25 229.75 168.1 229.65 170.35 229.8 172.4
L 229.75 172.4
M 203.95 188.4
L 203.8 189.2 203.2 192.65
Q 202.9 194.7 202.9 195.35 202.85 196.45 203.1 198.65 203.35 200.85 203.3 201.9
L 203.15 203.6
Q 203.15 204.55 203.45 205.2 203.7 205.7 204.35 206.6
L 204.8 207.95
Q 205 208.4 205.7 209.15 206.2 209.8 206.6 210.8 206.771484375 211.314453125 207.1 212.2 207.14296875 212.3859375 207.2 212.55 208.15 214.9 210.1 216.35
L 96.75 228.8
Q 94.95 222.4 90.85 214.75 86.7 207.05 88.4 200.8 90.05 194.5 90.1 194.5 90.25 194.5 90.45 194.5
L 97.5 194.35
Q 100.5 194.35 102.5 194.1 103.95 193.9 106.8 193.35 108.2 193.2 109.55 193.2 116.8 192.8 123.3 192.05 124.15 191.9 124.45 191.55 124.65 191.65 124.85 191.75 125.2107421875 191.9109375 125.55 192.05 128.283203125 193.1388671875 129.75 192.65 130.7 192.8 132.1 192.7 154.65 190.7 183.2 187.75 191.2 186.9 205.35 185.35 204.8 185.9 204.4 186.65 204.3 187.05 203.95 188.4
M 23.55 169.15
Q 23.45 169.3 23.7 169.35 32.35 172.5 48 175.2 50.5 175.65 52.75 176.05 52.5 176.15 52.5 176.4 53.75 177.05 58.25 178.5 63.1 180.15 73.25 184.75
L 58 178.95
Q 57.35 178.7 57.1 178.85 57.15 178.95 57.4 179.15
L 77.25 186.65
Q 77.5 186.8 77.7 186.75 83.1787109375 189.160546875 87.1 190.5 88.56015625 191.0361328125 89.8 191.4 89.22421875 190.9521484375 88.15 190.4 87.588671875 190.12421875 86.85 189.8
L 77.15 185.4
Q 69.1 181.85 65.5 180.35 59.8 177.95 54.95 176.45 67.4 178.7 72.65 180.2 74.4 180.7 77.95 181.8 81.05 182.7 83.25 183.2 86.15 183.8 90.65 184.3 97.3 185.1 98.15 185.2 98.5 185.25 98.85 185.3 100.75 185.55 103.1 186.05 106.276953125 186.6568359375 110.4 187.6 112.04765625 188.006640625 113.85 188.45 114.85 188.65 115.85 188.9 115.9 189 116 189.1 116.5 189.5 116.55 189.95
L 116.55 190.8 108.65 191.4
Q 106.15 191.7 106.05 191.7
L 103.2 192.1
Q 101.5 192.4 97.5 192.7 95.6 192.8 94.2 193
L 92.65 193.2
Q 92.2 193.25 91.9 193.3 91.8 193.35 91.7 193.35 90 193.25 89.1 193.55 88.65 193.7 87.35 196.85 86 200 86.95 205.45 87.85 210.85 95.8 229.85
L 105.55 229.7
Q 111.45 229.35 118.2 228.7 122.65 228.2 140.4 226.05 173.9001953125 221.7966796875 208.3 218.7 208.66953125 218.6951171875 209 218.65 213.4984375 218.2771484375 218 217.9 218.15 218.25 218.15 218.65
L 148.25 226.25
Q 133.4 228.35 125.95 229.35 113.5 230.95 104.5 231.55 104 231.55 103.55 231.6 99.05 231.9 96.75 231.2 96.7 231.2 91.9 229.2 90.85 228.8 89.95 228.55 89.3 227.85 89 227.3 87.15 226.9 86.1 226.65 85.9068359375 226.602734375 85.7 226.55 83.6181640625 225.992578125 81.15 224.85 81.1 224.8 81.05 224.8 79.7 224.15 76.5 222.5 55.1 211.2 32.05 203.6 29.15 202.65 27.65 202.05 25.3 201.05 23.7 199.8 18.3 195.65 17.1 186.65 16.75 183.9 16.7 179.1 16.6 173.65 16.45 171.55 16.25 169.7 16.8 169 17.25 168.3 18.75 168 20.1 167.65 20.65 167.35 21.2 167.8 22.15 168.4 23.05 168.95 23.55 169.15
M 91.45 231.55
Q 91.5025390625 231.444921875 91.5 231.3
L 91.5 231.3
Q 91.5205078125 231.2025390625 91.5 231.1 91.4 230.85 91.2 230.8 91.05 230.7 90.75 230.7
L 88.15 230.75
Q 86.05 230.75 85 230.85 83.55 230.9 80.9 231.4
L 72.85 232.75
Q 70.5 232.25 68.1 233.5 65.75 234.6 64.2 236.85 61.75 240.45 61.5 246.7 61.2025390625 253.804296875 63.65 258.65 64.484765625 260.304296875 65.65 261.7 66.2599609375 262.477734375 66.9 263.05 68.38203125 264.3720703125 70.05 264.65 71 264.85 72.3 264.65 72.35 264.65 74.55 264.25 77.6 263.7 83.8 263.6 86.26953125 263.5615234375 88.75 263.5 124.2005859375 262.7283203125 159.55 258.7 160.3091796875 258.616015625 161.05 258.5 176.881640625 256.68828125 192.7 254.2 193.4 254.05 193.65 253.85 193.85 254.35 194.1 254.5 194.4 254.6 194.7 254.45 195 254.25 195.1 254 195.35 253.5 195.15 252.7 195 251.95 194.75 251.2
L 201.2 254.65
Q 198.8 255.95 195.4 256.55 193.5 256.85 189.2 257.2 176.72109375 258.0822265625 164.2 259.1 160.009765625 259.4421875 155.8 259.8 114.3791015625 263.3126953125 72.7 268.3 73.45 268.9 74.5 269.15
L 73 269.1
Q 69.8 268.95 68.65 268.55 66.15 267.75 63.25 264.9 58.65 260.3 58.45 260.15 57.75 259.6 56.05 258.4 54.55 257.35 53.75 256.65 53 255.95 51.7 254.3 51.15 253.7 50.75 253.25 51.25 253.35 51.55 253.25 50.95 253 50.35 252.7 49.9 252.3 49.6 252 48.9 251.3 47.65 250.3 46.05 249.05 45.65 248.7 45.2 248.35 42.2 245.3 40.4 243.55 36.6 240.4
L 22.55 228.8
Q 22.45 228.7 22.4 228.65 22.3 228.15 22.1 227.6 21.75 226.5 21.55 225.95 21.2 224.95 21.05 222.85
L 20.75 220.4
Q 20.5 218.05 20.45 216.9 20.25 214.85 20.25 210.75
L 20.2 204.95
Q 20.2 201.5 20.75 200.1 20.9 200.1 21 200.1 21.25 200.35 21.55 200.6 23.55 202.35 26.65 203.7 28.35 204.35 32.45 205.7 33.35 205.95 34.3 206.3
L 34.2 206.35
Q 34.15 206.55 34.2 206.7 34.35 207 34.65 207.1 36.45 208.6 38.4 209.9 39.85 210.9 42.85 212.7 51.9 218.4 60.8 225.2 60.95 225.1 60.9 224.9 60.8 224.7 60.7 224.6 56.05 220.3 48.15 215.05 37.25 207.9 35.35 206.6 51.6 212.1 73.75 223.45 76.71796875 224.9720703125 79.05 226.05 81.325 227.0841796875 83 227.7 83.35 227.8 83.7 227.95 86.15 228.8 88.45 229.15
L 91.95 230.95
Q 92.3787109375 231.1783203125 92.75 231.35 95.264453125 232.6552734375 96.6 233 98.95 233.65 103.15 233.5 104.15 233.4 105.3 233.3 118.35 232.1 159.95 226.9 177.5 224.75 191.5 223.4 191.25 223.6 190.95 223.95 190.5630859375 224.466015625 190.3 224.9 189.942578125 225.4724609375 189.8 225.9 189.6 226.5 189.5 227.75
L 189.35 230.55
Q 188.9 236.45 189.05 240.1 189.15 241.75 189.5 245.3 189.75 246.7 189.85 247 190.1 247.85 191 248.85 192.2 250.35 192.4 250.6 193.15 251.65 193.45 252.7
L 193.4 252.7
Q 192.85 252.5 192.2 252.55 189.75 252.65 184.6 253.4 169.463671875 255.6080078125 154.25 257.25 125.374609375 260.3626953125 96.25 261.4 92.7982421875 261.5529296875 89.35 261.65 83.5 261.8 81.55 261.9 77.15 262.1 73.75 262.5 70.9 262.9 69.6 262.4 68.05 261.8 66.7 259.85 62.25 253.65 63.4 244.15 64.05 239.9 65.5 237.65 66.5 236.15 67.95 235.15 69.55 234.15 71.15 234.1 71.9 234.05 72.45 233.8 72.6 233.75 72.75 233.75 73.5 233.7 81.25 232.85 86.45 232.25 89.8 232.25 90.45 232.25 90.75 232.2 91.3 232.05 91.45 231.55
M 112.45 269
Q 110.25 269.25 109.5 270.15
L 174.2 261.85
Q 176.08828125 261.61015625 177.65 261.4 181.39921875 260.9001953125 183.5 260.55 188 259.75 191.65 258.8 195.8 258.2 199.4 257.55 200.95 257.3 201.95 256.6 203.2 255.75 202.95 254.6 202.8 253.5 201.35 252.65 198.05 250.6 194.15 250.1 193.8 249.45 193.3 248.85 192.1 247.6 191.7 246.85 191.55 246.55 191.45 246.15
L 193.7 246.45
Q 195.1 246.75 196.2 247.2 197.65 247.65 201.5 249.2
L 204.75 250.45
Q 207.6 251.55 210.95 252.6 212.7 253.2 213.25 253.4 214.55 253.95 215.3 254.7 215.6 254.95 215.85 255.1 215.6 255.2 215.3 255.35 213.45 256.35 209.15 257.1 205.7736328125 257.7193359375 202.4 258.3 191.8435546875 260.2181640625 181.3 261.95 145.1068359375 268.02265625 109 272.5
L 107.1 272.4
Q 105.4 272.35 104.65 272.65 103 273.35 102.35 276.1 101.85 278.5 101.85 282.7
L 101.8 295.55
Q 101.8 299.2 102.6 300.9 103.1 301.95 103.85 302.85 104.85 304 105.65 303.95 105.95 303.95 106.2 303.75 106.4 303.65 106.4 303.4 108.75 303.4 111.7 303.2 116.95 302.9 127.4 301.2 142.35 298.7 161.15 294.85 166.5693359375 293.7287109375 175.8 291.75 183.8470703125 290.026953125 194.8 287.65
L 210.9 284.1
Q 212.15 283.95 212.25 283.25 212.25 283.15 212.3 283.05 212.5 283.15 212.7 283.05 213 282.95 213.1 282.7
L 215.95 283.75
Q 216.3 284.1 216.8 284.3 216.85 284.35 216.95 284.4 204.35 289.1 186.7 292.2 186.4716796875 292.240234375 184.1 292.6 177.7275390625 293.544921875 155.6 296.8 129.6435546875 300.6490234375 104.75 306.65 104.4291015625 306.7203125 104.1 306.8 103.9 306.7 103.65 306.6
L 83.85 298.05
Q 80.35 296.5 77.55 295.35
L 28.95 270.6
Q 28.85 270.6 28.8 270.55 22.55 267.95 21.65 267.55 17.7 265.55 15.7 262.9 13.2 259.6 12.8 254.55 12.5 251.05 13.25 245.35 13.7 242.15 14.8 240.95 16.05 239.45 19.7 238.8
L 27.85 237.2
Q 28.6 237.05 29.05 236.7 29.15 236.65 29.2 236.6 33 239.85 37.85 244.05 40.7 246.6 44.1 249.75 41.5 248.4 40.05 247.65 30.6 242.9 20.05 239.8 19.65 239.7 19.3 239.75 18.8 239.9 18.95 240.3
L 22.9 241.6
Q 27.9 243.25 30.75 244.4 33.5 245.5 40.25 248.75 43.45 250.35 45.95 251.45 48.45 253.8 51.25 256.4
L 61.9 266.3
Q 64.35 268.7 66 269.55 68.3 270.8 71.05 270.7 73.45 270.6 75.45 269.6 75.5 269.65 75.55 269.7 76.8 271.75 78.55 273.7 81.1 276.2 83.1 275.7 83.75 275.55 85.05 274.65
L 87.1 273.15
Q 89.4 271.4 90.8 270.6 91.75 270.1 93.8 269.25 94.65 268.95 95.45 268.65
L 102.65 271 103.15 271.15
Q 103.7 271.25 103.9 271.15 103.526953125 270.9978515625 103.15 270.85 99.7220703125 269.47734375 96.25 268.35 98 267.75 99.8 267.3 107.5 266.45 117.15 265.45 133.583984375 263.6240234375 145.1 262.55 150.93046875 262.0359375 155.5 261.7 161.52265625 261.290234375 172.45 260.55 174.8953125 260.3806640625 177.55 260.2 180.15 260.05 182.55 259.8
L 112.45 269
M 94.6 267.8
Q 94.64921875 267.8 94.75 267.8 94.6984375 267.8015625 94.65 267.85
L 94.6 267.8
M 106.8 273.75
L 109.2 273.7
Q 109.6 273.7 109.8 273.65 110.55 273.65 111.4 273.6 116.95 273.25 127.95 271.75 153.85 268.2 169.3 265.8 181.427734375 263.96171875 192.35 262.1 201.36015625 260.5841796875 209.55 259.05 209.35 259.2 209.2 259.4 208.95 259.7 208.45 260.5
L 207.7 261.55
Q 207.1 262.4 207.05 263.85 207 264.7 207.05 266.35 207.05 267.6 207.1 267.9 207.2 268.3 207.55 268.95 207.85 269.7 208.1 271.25
L 208.6 272.65 208.95 274.35
Q 207.6 274.15 205.55 274.4 203.3 274.7 195.7 276.45 193.4 276.95 184.05 278.75 183.4 278.9 183.65 279.2 192.5 278.15 201.5 276 205.05 275.15 206.4 275.1 206.9 275.05 207.75 275 208.5 274.9 209.05 274.8
L 209.1 275.45 210.65 279.95
Q 211.15 281.4 211.7 282.3 211.6 282.25 211.55 282.25 210.8 281.95 209.9 282.15 184.91875 287.8328125 169.7 291.05 164.98359375 292.0791015625 161.2 292.85 133.95 298.4 112 301.45 108.25 301.95 106.05 302.85 105.85 302.75 105.65 302.65
L 104.4 300.45
Q 104.05 299.85 103.85 299.3 103.6 298.7 103.55 296.9
L 103.55 287.5
Q 103.5 284.45 103.55 281.35 103.7 277.9 104.05 276.25 104.3 274.65 105.15 274.15 105.55 273.85 106.8 273.75
M 136.95 286
Q 137.5 286.65 139 286.45 143.7353515625 285.9146484375 148.45 285.35 163.540234375 283.605078125 178.4 281.7 195.95 279.4 205.15 277.15 203.5 276.65 200.2 277.3 190.15 279.25 169.6 281.9
L 156.55 283.55 136.95 286
M 130.15 282.35
Q 130.85 282.6 132.3 282.3 141.95 280.45 161.45 277.9
L 173.85 276.3
Q 174.6 276.2 174.9 275.85 165.86640625 276.662109375 156.8 277.85 143.51484375 279.676953125 130.15 282.35
M 112.8 294.3
Q 114.2 294.75 117.2 294.15 128.85 291.95 152.6 289.05 152.8181640625 289.05 152.95 289 153.25 288.8990234375 153.25 288.6 152.43671875 288.693359375 151.4 288.8 148.53359375 289.0966796875 143.95 289.5 137.75 290.05 134.7 290.45 132.25 290.8 124.95 292.05
L 114.05 293.9
Q 113.1 294.1 112.8 294.3
M 112.1 281.95
Q 113.95 282.6 117.95 282.25 123.6 281.65 134.9 279.9
L 150.6 277.4 175.35 273.55
Q 167.1119140625 274.157421875 153.85 276.1 149.6564453125 276.7416015625 144.95 277.5 123.9 280.9 114.55 281.8
L 112.1 281.95
M 128.8 293.75
Q 128.9 294.2 129.9 294.15 135 293.25 145.25 291.3 145.95 291.2 146.2 290.85 137.9 292.1 128.8 293.75
M 17.5 243.15
Q 17.1 243.2 17.1 243.5
L 38.1 251.55
Q 45.15 254.25 48.75 255.45 49.4 255.75 49.65 255.4 29.35 247.3 18.15 243.2 17.8 243.1 17.5 243.15
M 99.7 274.9
Q 100.05 275.35 100.05 276.55 99.9 286.5 99.9 296.45 99.9 297.6 100.05 298.15
L 100.45 299.3
Q 100.65 299.8 100.95 300.9 101.15 301.25 101.7 301.8 102.35 302.4 102.55 302.75 102.85 303.1 103.35 304.45 103.8 304.2 103.8 303.5 103.75 302.9 103.4 302.35 102.25 301.2 101.95 300.45
L 101.6 299.15
Q 101.3 298.35 101.15 298 101 297.45 101 296.25 101 286.15 100.85 276 100.85 275.35 100.65 275 100.45 274.75 100.15 274.75 99.9 274.7 99.7 274.9
M 56.55 219.75
Q 56.15 219.45 55.9 219.55
L 63.45 225.55
Q 64.242578125 226.1560546875 64.85 226.55 65.59296875 227.059765625 66.1 227.3
L 65.15 226.55 56.55 219.75
M 123.5 249.85
L 150.45 248.6
Q 162.25 248 165.65 247.85 174.25 247.3 180.85 246.75 181 246.75 181.1 246.6 181.2 246.5 181.05 246.5 152.4755859375 247.44453125 123.15 249.75 121.469921875 249.9087890625 119.75 250.05
L 123.5 249.85
M 103.9 255.8
Q 104.8 256.2 106.75 256.1 122.7810546875 255.3474609375 138.7 253.95 154.58046875 252.56796875 170.35 250.55 169.9 250.15 168.6 250.25 152.5294921875 252.068359375 136.6 253.45 120.1734375 254.8591796875 103.9 255.8
M 113.35 242.45
Q 107.9283203125 242.6712890625 103.5 242.85 95.9392578125 243.2529296875 91.3 243.6 85.95 244 78.75 244.9 89.0994140625 244.181640625 105 243.45 119.0318359375 242.858203125 137.35 242.25
L 169.5 241.2
Q 150.7 241.15 113.35 242.45
M 97.85 253.7
L 97.75 253.95 122 253
Q 122.75 252.85 122.8 252.85
L 122.7 252.5
Q 109.6 252.7 97.85 253.7
M 94.95 242.3
Q 95.6 242.2 95.75 241.85 95.35 241.5 94.3 241.7 88.05 242.45 71.65 243.25 70.45 243.35 70.05 243.75 70.4 244.35 71.65 244.25 84.8 243.7 94.95 242.3
M 91.4 189.9
L 93.1 189.85 110.05 189.75 95.9 189.55 92 189.5
Q 91.35 189.5 91.4 189.9
M 86.6 195.15
Q 87.65 193.75 86.5 192.85 86.4 193.25 86.2 193.55 84.45 196.6 83.15 199.75 82.1 202.4 82.55 205.25 83.45 210.9 85.95 216.4 86.6 217.8 86.85 219.4 87.65 225.15 92.3 228.2 92.35 228.25 92.55 228.15 92.5 226.7 91.05 225.8 90.3 225.4 90.05 224.7 87.95 218.45 85.75 212.35 85.05 210.25 84.3 208.2 83.15 205.15 83.75 201.9 84.45 198.05 86.6 195.15
M 143.7 212.6
Q 135.998828125 213.1685546875 129.95 213.7 124.2775390625 214.2427734375 120.05 214.75 125.5251953125 214.4470703125 131 214.1 164.35390625 212.1349609375 197.6 209.3 196.95 209 195.95 208.95 195.5 208.9 194.15 208.95
L 143.7 212.6
M 125.65 208.85
Q 125.9 208.85 126.05 208.65 126.25 208.45 126.05 208.4 121.8900390625 208.7166015625 117.75 209.15 112.7353515625 209.7103515625 107.75 210.45 108.15 210.7 109.1 210.6
L 118.8 209.55 125.65 208.85
M 159 214.05
Q 156.7447265625 214.2076171875 153.95 214.4 146.7220703125 215.001171875 135.95 216 133.861328125 216.191796875 131.65 216.4 121.4 217.3 116.5 218.4
L 134.65 216.75
Q 135.9919921875 216.6298828125 137.3 216.5 146.6048828125 215.688671875 153.85 215.1 162.9474609375 214.389453125 168.85 214.05 178.75 213.5 188.5 213.2 185.590625 213.053125 182.1 213.05 176.92578125 213.0287109375 170.45 213.3 165.1556640625 213.58671875 159 214.05
M 100.9 201.1
Q 100.15 201.2 99.95 201.55 99.8 201.75 100 202.05 100.15 202.3 100.4 202.15 113.05 200.45 136.15 198.85 161.05 197 171.9 195.75 157.8 196.25 140.15 197.6 129.55 198.45 108.4 200.4
L 100.9 201.1
M 153.25 199.45
Q 132.2 200.65 121.85 201.95 120.8 202.05 120.1 202.3 145.8 200.25 174.5 198.75 175.75 198.65 176 198.15 161.3 198.9 153.25 199.45
M 200.4 167.9
Q 190.3462890625 168.6734375 179.7 169.5 161.536328125 171.0126953125 141.7 172.75 142.9 173.5 145.3 173.2 164.7017578125 171.7048828125 186.95 169.85 195.9744140625 169.1419921875 205.45 168.35 209.55 168 210.9 167.85 213.9 167.5 216.3 166.95 211.1 167.15 200.4 167.9
M 189.25 176.5
Q 192.250390625 176.4046875 197.55 175.7 197.829296875 175.685546875 198.1 175.65 204.3 174.85 206.95 174.65 208.55 174.5 219.05 174.3 219.5 174.3 219.4 174 213.79453125 173.620703125 206.95 174.1 205.7115234375 174.1822265625 204.4 174.3 199.45 174.75 189.5 176.2 189.35 176.2 189.25 176.3 189.15 176.4 189.25 176.5
M 208.05 170.95
Q 198.85 171.3 183.2 172.7
L 139.6 176.5
Q 140.4 176.9 142.35 176.8 175.1 174.3 208.05 170.95
M 64.15 159.1
Q 72.5 160.2 77.4 161.25 77.9 161.4 77.8 161.05 68.5 159.15 51.15 156.95 51.1 156.9 50.95 157 50.85 157.05 50.9 157.15 54.35 157.75 64.15 159.1
M 32.45 149.2
Q 32.8 149.85 34.45 150.3
L 89.05 161.95
Q 84.4 160.65 79.55 159.4 72.85 157.85 66.5 156.5
L 32.45 149.2
M 127 170.25
Q 127 170.55 126.75 170.9 126.65 171.05 126.3 171.45 125.7 172.3 125.7 174.25
L 125.65 179.55
Q 125.65 181.65 125.95 182.6 126.1 183.35 126.65 184.75 126.7 185.1 126.8 186.15 126.9 187.05 127.05 187.55 127.25 188.3 127.75 188.8 128.3 189.35 128.95 189.35 128.2 188.7 127.95 187.3 127.75 185.65 127.6 184.8 127.05 183 126.8 182.05 126.55 180.8 126.6 178.65 126.7 176 126.65 175.2 126.45 173 126.7 172.35 127.35 171.4 127.5 170.9 128 169.9 127.35 169.35 127.25 169.25 127.1 169.35 126.95 169.5 126.9 169.6
L 127 170.25
M 115.4 153.65
L 146.5 150.95 195.4 146.8
Q 167.73203125 148.2103515625 144.45 150.4 128.9541015625 151.85078125 115.4 153.65
M 111.25 144.45
Q 112.15 145 113.9 144.8 124.01796875 143.8591796875 134.15 142.85 156.9412109375 140.701171875 179.9 138.35 160.68515625 139.467578125 127.55 142.7 122.172265625 143.2609375 116.4 143.85 112.15 144.35 111.25 144.45
M 173.95 150.55
Q 174.7 150.5 174.9 150.15
L 151 152.05 128.45 153.9
Q 128.8 154.3 129.75 154.2 138.6810546875 153.7458984375 153 152.5 162.33203125 151.694140625 173.95 150.55
M 175.85 139.65
Q 176.5 139.55 176.4 139.15 161.79375 141.252734375 146.45 143 141.405078125 143.5646484375 136.25 144.1 135.65 144.1 135.4 144.35 142.5087890625 143.955078125 151 143 153.2859375 142.744140625 155.65 142.45 162.4 141.65 175.85 139.65
M 45.65 118.5
Q 44.5 118.3 43.95 118.5 44.3 118.75 45 118.85 64.5 122.3 84.5 125.4 85.05 125.5 85.1 125.25 65.8 121.4 45.65 118.5
M 210.75 122.5
Q 216.5 122.05 220 121.45 209.85 121.35 196.15 122.35 180.35 123.7 172.35 124.3 159.4 125.35 143.15 126.15 133.45 126.65 113.9 127.4 120.05 128.25 131.75 127.8 159.4 126.6 210.75 122.5 Z"/>

<path fill="#FFFAE8" stroke="none" d="
M 141 287
L 140.5 287.5
Q 141.155859375 287.5 151.4 288.8 152.43671875 288.693359375 153.25 288.6 153.25 288.8990234375 152.95 289 156.228515625 289.4171875 160.35 289.95 165.2447265625 290.5576171875 169.7 291.05 184.91875 287.8328125 209.9 282.15 210.8 281.95 211.55 282.25 211.6 282.25 211.7 282.3 211.15 281.4 210.65 279.95
L 209.1 275.45 209.05 274.8
Q 208.5 274.9 207.75 275 206.9 275.05 206.4 275.1 205.05 275.15 201.5 276 192.5 278.15 183.65 279.2 183.4 278.9 184.05 278.75 193.4 276.95 195.7 276.45 203.3 274.7 205.55 274.4 207.6 274.15 208.95 274.35
L 208.6 272.65 208.1 271.25
Q 207.85 269.7 207.55 268.95 207.2 268.3 207.1 267.9 207.05 267.6 207.05 266.35 207 264.7 207.05 263.85 207.1 262.4 207.7 261.55
L 208.45 260.5
Q 208.95 259.7 209.2 259.4 209.35 259.2 209.55 259.05 201.36015625 260.5841796875 192.35 262.1 166.8947265625 271.672265625 153.85 276.1 167.1119140625 274.157421875 175.35 273.55
L 150.6 277.4
Q 151.5951171875 277.819140625 156.8 277.85 165.86640625 276.662109375 174.9 275.85 174.6 276.2 173.85 276.3
L 161.45 277.9
Q 169.24375 277.8875 171.3 277.8 179.85 277.35 186.8 275.4
L 191.85 275.4
Q 185.05 277.05 164.25 281.8 160.0271484375 282.75546875 156.55 283.55
L 169.6 281.9
Q 190.15 279.25 200.2 277.3 203.5 276.65 205.15 277.15 195.95 279.4 178.4 281.7 163.540234375 283.605078125 148.45 285.35 142.383203125 286.718359375 141 287
M 153.45 236.3
Q 135.1 241.15 123.35 241.15 114.75 241.15 113.65 241.1 110.1 240.9 102.25 239.6
L 95.65 239.6
Q 99.5482421875 241.3107421875 103.5 242.85 107.9283203125 242.6712890625 113.35 242.45 150.7 241.15 169.5 241.2
L 137.35 242.25
Q 119.0318359375 242.858203125 105 243.45 113.9595703125 246.968359375 123.15 249.75 152.4755859375 247.44453125 181.05 246.5 181.2 246.5 181.1 246.6 181 246.75 180.85 246.75 174.25 247.3 165.65 247.85 162.25 248 150.45 248.6
L 123.5 249.85
Q 129.0380859375 251.5330078125 134.65 252.95 135.619140625 253.1943359375 136.6 253.45 152.5294921875 252.068359375 168.6 250.25 169.9 250.15 170.35 250.55 154.58046875 252.56796875 138.7 253.95 145.631640625 255.567578125 154.25 257.25 169.463671875 255.6080078125 184.6 253.4 189.75 252.65 192.2 252.55 192.85 252.5 193.4 252.7
L 193.45 252.7
Q 193.15 251.65 192.4 250.6 192.2 250.35 191 248.85 190.1 247.85 189.85 247 189.75 246.7 189.5 245.3 189.15 241.75 189.05 240.1 188.9 236.45 189.35 230.55
L 189.5 227.75
Q 189.6 226.5 189.8 225.9 189.942578125 225.4724609375 190.3 224.9 166.8484375 232.7587890625 153.45 236.3
M 152.6 222.5
Q 153.2396484375 219.64296875 153.85 215.1 146.6048828125 215.688671875 137.3 216.5 137.4712890625 216.5818359375 137.65 216.65 152.05 222.15 152.6 222.5
M 202.9 195.35
Q 202.9 194.7 203.2 192.65
L 203.8 189.2
Q 192.818359375 194.9853515625 184.15 200.1 177.75 203.9 173.75 206.4 170.7 207.75 143.6 207.95 116.35 207.9 114.8 207.9
L 114.3 207.9
Q 115.9388671875 208.49765625 117.75 209.15 121.8900390625 208.7166015625 126.05 208.4 126.25 208.45 126.05 208.65 125.9 208.85 125.65 208.85
L 118.8 209.55
Q 123.7744140625 211.39765625 129.95 213.7 135.998828125 213.1685546875 143.7 212.6
L 194.15 208.95
Q 195.5 208.9 195.95 208.95 196.95 209 197.6 209.3 164.35390625 212.1349609375 131 214.1 133.38203125 215.0234375 135.95 216 146.7220703125 215.001171875 153.95 214.4 156.7447265625 214.2076171875 159 214.05 165.1556640625 213.58671875 170.45 213.3 176.92578125 213.0287109375 182.1 213.05 189.95625 212.810546875 198.3 212.45 202.4060546875 212.2685546875 207.1 212.2 206.771484375 211.314453125 206.6 210.8 206.2 209.8 205.7 209.15 205 208.4 204.8 207.95
L 204.35 206.6
Q 203.7 205.7 203.45 205.2 203.15 204.55 203.15 203.6
L 203.3 201.9
Q 203.35 200.85 203.1 198.65 202.85 196.45 202.9 195.35
M 171.75 168.1
Q 171.75 168.35 171.5 168.6 171.25 168.85 171.25 169.1 175.188671875 169.313671875 179.7 169.5 190.3462890625 168.6734375 200.4 167.9 211.1 167.15 216.3 166.95 213.9 167.5 210.9 167.85 209.55 168 205.45 168.35 195.9744140625 169.1419921875 186.95 169.85 194.5611328125 170.229296875 203.55 170.6 218.5 171.25 224.6 171.65 221.2876953125 171.7091796875 209.85 173.6 208.3171875 173.8640625 206.95 174.1 213.79453125 173.620703125 219.4 174 219.5 174.3 219.05 174.3 208.55 174.5 206.95 174.65 204.3 174.85 198.1 175.65 197.829296875 175.685546875 197.55 175.7 202.73671875 177.91484375 207.5 179.6 212.2609375 179.19609375 214.25 179 219.6 178.4 230.3 176.95
L 230.35 176.95
Q 230.35 176.85 230.35 176.75 230.35 176.45 230.35 176.2 230.25 176.15 230.2 176.15 229.9 174.6 229.8 172.9 229.7 172.6 229.75 172.4
L 229.8 172.4
Q 229.65 170.35 229.75 168.1 229.85 165.25 230.4 160.3 219.0693359375 160.8787109375 207.8 161.7 202.535546875 162.6412109375 196.5 163.7 173.1 167.85 171.75 168.1
M 221.5 133.6
Q 221.55 133.45 221.55 132.4 221.55 132.3 221.85 130.9 221.9 130.8 222.05 128.55 222.15 127.2 222.7 126.45 223 126.15 223.65 125.65 224.3 125.2 224.55 124.85
L 224.75 124.7
Q 205.944921875 126.2669921875 191.35 127.4 159.19609375 134.1791015625 139.85 138.6 127.15 141.5 123.35 142 123.35 142.5 122.85 142.5 124.58984375 142.6328125 127.55 142.7 160.68515625 139.467578125 179.9 138.35 156.9412109375 140.701171875 134.15 142.85 139.350390625 142.9693359375 146.45 143 161.79375 141.252734375 176.4 139.15 176.5 139.55 175.85 139.65 162.4 141.65 155.65 142.45 153.2859375 142.744140625 151 143 152.284765625 143 153.6 143
L 154.6 143
Q 152.65 143.75 144.05 145.35 135.65 146.9 135.5 147 139.2685546875 148.86796875 144.45 150.4 167.73203125 148.2103515625 195.4 146.8
L 146.5 150.95
Q 148.659375 151.5548828125 151 152.05
L 174.9 150.15
Q 174.7 150.5 173.95 150.55 162.33203125 151.694140625 153 152.5 161.3576171875 154.2240234375 172.25 155.35 175.48515625 155.675390625 179.05 155.95 187.527734375 155.3310546875 201.85 154.1 213.5 153.25 222.65 153.5 222.4 153 222.15 152.4
L 221.65 150.8
Q 221.45 149.9 221.55 148.7
L 221.55 143
Q 221.6 142.25 221.55 141.7 221.35 141.65 221.05 141.6 218.75 141.05 214.1 141.05 194.05 141.05 173.95 141.65 174.2 141.3 174.9 141.3 189.75 140.05 213.05 140.05 217.55 140.05 220.2 140.45 220.9 140.6 221.4 140.8 221.1 139.75 221 139.25 220.75 138.35 220.75 136.55 220.75 135.1 221.1 134.5 221.45 133.7 221.5 133.6 Z"/>

<path fill="#FFF3CB" stroke="none" d="
M 117.95 282.25
Q 113.95 282.6 112.1 281.95
L 114.55 281.8
Q 123.9 280.9 144.95 277.5 149.6564453125 276.7416015625 153.85 276.1 166.8947265625 271.672265625 192.35 262.1 181.427734375 263.96171875 169.3 265.8 153.85 268.2 127.95 271.75 116.95 273.25 111.4 273.6 110.55 273.65 109.8 273.65 109.6 273.7 109.2 273.7
L 106.8 273.75
Q 105.55 273.85 105.15 274.15 104.3 274.65 104.05 276.25 103.7 277.9 103.55 281.35 103.5 284.45 103.55 287.5
L 103.55 296.9
Q 103.6 298.7 103.85 299.3 104.05 299.85 104.4 300.45
L 105.65 302.65
Q 105.85 302.75 106.05 302.85 108.25 301.95 112 301.45 133.95 298.4 161.2 292.85 164.98359375 292.0791015625 169.7 291.05 165.2447265625 290.5576171875 160.35 289.95 156.228515625 289.4171875 152.95 289 152.8181640625 289.05 152.6 289.05 128.85 291.95 117.2 294.15 114.2 294.75 112.8 294.3 113.1 294.1 114.05 293.9
L 124.95 292.05
Q 132.25 290.8 134.7 290.45 137.75 290.05 143.95 289.5 148.53359375 289.0966796875 151.4 288.8 141.155859375 287.5 140.5 287.5
L 141 287
Q 142.383203125 286.718359375 148.45 285.35 143.7353515625 285.9146484375 139 286.45 137.5 286.65 136.95 286
L 156.55 283.55
Q 160.0271484375 282.75546875 164.25 281.8 185.05 277.05 191.85 275.4
L 186.8 275.4
Q 179.85 277.35 171.3 277.8 169.24375 277.8875 161.45 277.9 141.95 280.45 132.3 282.3 130.85 282.6 130.15 282.35 143.51484375 279.676953125 156.8 277.85 151.5951171875 277.819140625 150.6 277.4
L 134.9 279.9
Q 123.6 281.65 117.95 282.25
M 129.9 294.15
Q 128.9 294.2 128.8 293.75 137.9 292.1 146.2 290.85 145.95 291.2 145.25 291.3 135 293.25 129.9 294.15
M 123.35 241.15
Q 135.1 241.15 153.45 236.3 166.8484375 232.7587890625 190.3 224.9 190.5630859375 224.466015625 190.95 223.95 191.25 223.6 191.5 223.4 177.5 224.75 159.95 226.9 118.35 232.1 105.3 233.3 104.15 233.4 103.15 233.5 98.95 233.65 96.6 233 95.264453125 232.6552734375 92.75 231.35 92.21171875 231.3119140625 91.5 231.3
L 91.5 231.3
Q 91.5025390625 231.444921875 91.45 231.55 91.3 232.05 90.75 232.2 90.45 232.25 89.8 232.25 86.45 232.25 81.25 232.85 73.5 233.7 72.75 233.75 72.6 233.75 72.45 233.8 71.9 234.05 71.15 234.1 69.55 234.15 67.95 235.15 66.5 236.15 65.5 237.65 64.05 239.9 63.4 244.15 62.25 253.65 66.7 259.85 68.05 261.8 69.6 262.4 70.9 262.9 73.75 262.5 77.15 262.1 81.55 261.9 83.5 261.8 89.35 261.65 92.7982421875 261.5529296875 96.25 261.4 125.374609375 260.3626953125 154.25 257.25 145.631640625 255.567578125 138.7 253.95 122.7810546875 255.3474609375 106.75 256.1 104.8 256.2 103.9 255.8 120.1734375 254.8591796875 136.6 253.45 135.619140625 253.1943359375 134.65 252.95 129.0380859375 251.5330078125 123.5 249.85
L 119.75 250.05
Q 121.469921875 249.9087890625 123.15 249.75 113.9595703125 246.968359375 105 243.45 89.0994140625 244.181640625 78.75 244.9 85.95 244 91.3 243.6 95.9392578125 243.2529296875 103.5 242.85 99.5482421875 241.3107421875 95.65 239.6
L 102.25 239.6
Q 110.1 240.9 113.65 241.1 114.75 241.15 123.35 241.15
M 95.75 241.85
Q 95.6 242.2 94.95 242.3 84.8 243.7 71.65 244.25 70.4 244.35 70.05 243.75 70.45 243.35 71.65 243.25 88.05 242.45 94.3 241.7 95.35 241.5 95.75 241.85
M 97.75 253.95
L 97.85 253.7
Q 109.6 252.7 122.7 252.5
L 122.8 252.85
Q 122.75 252.85 122 253
L 97.75 253.95
M 203.8 189.2
L 203.95 188.4
Q 204.3 187.05 204.4 186.65 204.8 185.9 205.35 185.35 191.2 186.9 183.2 187.75 154.65 190.7 132.1 192.7 130.7 192.8 129.75 192.65 128.283203125 193.1388671875 125.55 192.05 125.2107421875 191.9109375 124.85 191.75 124.65 191.65 124.45 191.55 124.15 191.9 123.3 192.05 116.8 192.8 109.55 193.2 108.2 193.2 106.8 193.35 103.95 193.9 102.5 194.1 100.5 194.35 97.5 194.35
L 90.45 194.5
Q 90.25 194.5 90.1 194.5 90.05 194.5 88.4 200.8 86.7 207.05 90.85 214.75 94.95 222.4 96.75 228.8
L 210.1 216.35
Q 208.15 214.9 207.2 212.55 207.14296875 212.3859375 207.1 212.2 202.4060546875 212.2685546875 198.3 212.45 189.95625 212.810546875 182.1 213.05 185.590625 213.053125 188.5 213.2 178.75 213.5 168.85 214.05 162.9474609375 214.389453125 153.85 215.1 153.2396484375 219.64296875 152.6 222.5 152.05 222.15 137.65 216.65 137.4712890625 216.5818359375 137.3 216.5 135.9919921875 216.6298828125 134.65 216.75
L 116.5 218.4
Q 121.4 217.3 131.65 216.4 133.861328125 216.191796875 135.95 216 133.38203125 215.0234375 131 214.1 125.5251953125 214.4470703125 120.05 214.75 124.2775390625 214.2427734375 129.95 213.7 123.7744140625 211.39765625 118.8 209.55
L 109.1 210.6
Q 108.15 210.7 107.75 210.45 112.7353515625 209.7103515625 117.75 209.15 115.9388671875 208.49765625 114.3 207.9
L 114.8 207.9
Q 116.35 207.9 143.6 207.95 170.7 207.75 173.75 206.4 177.75 203.9 184.15 200.1 192.818359375 194.9853515625 203.8 189.2
M 121.85 201.95
Q 132.2 200.65 153.25 199.45 161.3 198.9 176 198.15 175.75 198.65 174.5 198.75 145.8 200.25 120.1 202.3 120.8 202.05 121.85 201.95
M 99.95 201.55
Q 100.15 201.2 100.9 201.1
L 108.4 200.4
Q 129.55 198.45 140.15 197.6 157.8 196.25 171.9 195.75 161.05 197 136.15 198.85 113.05 200.45 100.4 202.15 100.15 202.3 100 202.05 99.8 201.75 99.95 201.55
M 171.5 168.6
Q 171.75 168.35 171.75 168.1 173.1 167.85 196.5 163.7 202.535546875 162.6412109375 207.8 161.7 170.3392578125 164.478125 133.45 170.05 132.9 170.15 132.45 170 132.25 170.05 132.05 170.1 131.5 170.3 130.3 171.6 129.8 172.2 129.7 172.4 129.5 172.7 129.45 173.35
L 129.25 174.75 129.3 178.5 130.15 183.65
Q 130.45 185.2 130.95 186.75 131.15 187.35 131.3 187.85 164.3 182.9 198.3 180.35 203.75234375 179.9103515625 207.5 179.6 202.73671875 177.91484375 197.55 175.7 192.250390625 176.4046875 189.25 176.5 189.15 176.4 189.25 176.3 189.35 176.2 189.5 176.2 199.45 174.75 204.4 174.3 205.7115234375 174.1822265625 206.95 174.1 208.3171875 173.8640625 209.85 173.6 221.2876953125 171.7091796875 224.6 171.65 218.5 171.25 203.55 170.6 194.5611328125 170.229296875 186.95 169.85 164.7017578125 171.7048828125 145.3 173.2 142.9 173.5 141.7 172.75 161.536328125 171.0126953125 179.7 169.5 175.188671875 169.313671875 171.25 169.1 171.25 168.85 171.5 168.6
M 183.2 172.7
Q 198.85 171.3 208.05 170.95 175.1 174.3 142.35 176.8 140.4 176.9 139.6 176.5
L 183.2 172.7
M 191.35 127.4
Q 178.9533203125 128.38359375 169.6 129.05 137.1 131.35 110.65 132.3 109.55 132.35 108.7 132.25 108.5 132.35 108.3 132.45 107.7 132.65 107.45 132.75 106.95 132.85 105.9 133.45 105.35 133.7 105.05 134 104.7 134.35 104.3 135.3 104.15 135.9 103.75 137.05 103.6 137.65 103.6 139
L 103.6 151.2
Q 103.6 154.1 104.05 155.45 104.1228515625 155.656640625 104.2 155.85 104.7896484375 157.28359375 105.8 158.25
L 106.7 159
Q 107.65 159.9 108.3 160.95 108.95 160.75 109.7 160.7 111.291015625 160.4849609375 113 160.25 125.101171875 158.833203125 142.6 158 172.35 156.45 175.65 156.2 177.218359375 156.0923828125 179.05 155.95 175.48515625 155.675390625 172.25 155.35 161.3576171875 154.2240234375 153 152.5 138.6810546875 153.7458984375 129.75 154.2 128.8 154.3 128.45 153.9
L 151 152.05
Q 148.659375 151.5548828125 146.5 150.95
L 115.4 153.65
Q 128.9541015625 151.85078125 144.45 150.4 139.2685546875 148.86796875 135.5 147 135.65 146.9 144.05 145.35 152.65 143.75 154.6 143
L 153.6 143
Q 152.284765625 143 151 143 142.5087890625 143.955078125 135.4 144.35 135.65 144.1 136.25 144.1 141.405078125 143.5646484375 146.45 143 139.350390625 142.9693359375 134.15 142.85 124.01796875 143.8591796875 113.9 144.8 112.15 145 111.25 144.45 112.15 144.35 116.4 143.85 122.172265625 143.2609375 127.55 142.7 124.58984375 142.6328125 122.85 142.5 123.35 142.5 123.35 142 127.15 141.5 139.85 138.6 159.19609375 134.1791015625 191.35 127.4 Z"/>

<path fill="#FFFFFF" stroke="none" d="
M 94.75 267.8
Q 94.64921875 267.8 94.6 267.8
L 94.65 267.85
Q 94.6984375 267.8015625 94.75 267.8 Z"/>

<path fill="#FF9341" stroke="none" d="
M 95.45 268.65
Q 94.65 268.95 93.8 269.25 91.75 270.1 90.8 270.6 89.4 271.4 87.1 273.15
L 85.05 274.65
Q 83.75 275.55 83.1 275.7 81.1 276.2 78.55 273.7 76.8 271.75 75.55 269.7 75.5 269.65 75.45 269.6 73.45 270.6 71.05 270.7 68.3 270.8 66 269.55 64.35 268.7 61.9 266.3
L 51.25 256.4
Q 48.45 253.8 45.95 251.45 43.45 250.35 40.25 248.75 33.5 245.5 30.75 244.4 27.9 243.25 22.9 241.6
L 18.95 240.3
Q 18.8 239.9 19.3 239.75 19.65 239.7 20.05 239.8 30.6 242.9 40.05 247.65 41.5 248.4 44.1 249.75 40.7 246.6 37.85 244.05 33 239.85 29.2 236.6 29.15 236.65 29.05 236.7 28.6 237.05 27.85 237.2
L 19.7 238.8
Q 16.05 239.45 14.8 240.95 13.7 242.15 13.25 245.35 12.5 251.05 12.8 254.55 13.2 259.6 15.7 262.9 17.7 265.55 21.65 267.55 22.55 267.95 28.8 270.55 28.85 270.6 28.95 270.6
L 77.55 295.35
Q 80.35 296.5 83.85 298.05
L 103.65 306.6
Q 103.9 306.7 104.1 306.8 104.4291015625 306.7203125 104.75 306.65 101.8626953125 303.3279296875 100.25 301.2 89.15 286.6 89.15 277.15 89.15 275.45 93.5 273.95 95.9005859375 273.120703125 102.65 271
L 95.45 268.65
M 17.1 243.5
Q 17.1 243.2 17.5 243.15 17.8 243.1 18.15 243.2 29.35 247.3 49.65 255.4 49.4 255.75 48.75 255.45 45.15 254.25 38.1 251.55
L 17.1 243.5
M 103.15 270.85
Q 103.9244140625 270.607421875 104.75 270.35 112.05 267.75 127.05 265.85 135.6576171875 264.7673828125 145.1 262.55 133.583984375 263.6240234375 117.15 265.45 107.5 266.45 99.8 267.3 98 267.75 96.25 268.35 99.7220703125 269.47734375 103.15 270.85 Z"/>

<path fill="#FFAC5A" stroke="none" d="
M 109.5 270.15
Q 110.25 269.25 112.45 269
L 182.55 259.8
Q 180.15 260.05 177.55 260.2 174.8953125 260.3806640625 172.45 260.55 161.52265625 261.290234375 155.5 261.7 150.93046875 262.0359375 145.1 262.55 135.6576171875 264.7673828125 127.05 265.85 112.05 267.75 104.75 270.35 103.9244140625 270.607421875 103.15 270.85 103.526953125 270.9978515625 103.9 271.15 103.7 271.25 103.15 271.15
L 102.65 271
Q 95.9005859375 273.120703125 93.5 273.95 89.15 275.45 89.15 277.15 89.15 286.6 100.25 301.2 101.8626953125 303.3279296875 104.75 306.65 129.6435546875 300.6490234375 155.6 296.8 177.7275390625 293.544921875 184.1 292.6 186.4716796875 292.240234375 186.7 292.2 204.35 289.1 216.95 284.4 216.85 284.35 216.8 284.3 216.3 284.1 215.95 283.75
L 213.1 282.7
Q 213 282.95 212.7 283.05 212.5 283.15 212.3 283.05 212.25 283.15 212.25 283.25 212.15 283.95 210.9 284.1
L 194.8 287.65
Q 183.8470703125 290.026953125 175.8 291.75 166.5693359375 293.7287109375 161.15 294.85 142.35 298.7 127.4 301.2 116.95 302.9 111.7 303.2 108.75 303.4 106.4 303.4 106.4 303.65 106.2 303.75 105.95 303.95 105.65 303.95 104.85 304 103.85 302.85 103.1 301.95 102.6 300.9 101.8 299.2 101.8 295.55
L 101.85 282.7
Q 101.85 278.5 102.35 276.1 103 273.35 104.65 272.65 105.4 272.35 107.1 272.4
L 109 272.5
Q 145.1068359375 268.02265625 181.3 261.95 191.8435546875 260.2181640625 202.4 258.3 205.7736328125 257.7193359375 209.15 257.1 213.45 256.35 215.3 255.35 215.6 255.2 215.85 255.1 215.6 254.95 215.3 254.7 214.55 253.95 213.25 253.4 212.7 253.2 210.95 252.6 207.6 251.55 204.75 250.45
L 201.5 249.2
Q 197.65 247.65 196.2 247.2 195.1 246.75 193.7 246.45
L 191.45 246.15
Q 191.55 246.55 191.7 246.85 192.1 247.6 193.3 248.85 193.8 249.45 194.15 250.1 198.05 250.6 201.35 252.65 202.8 253.5 202.95 254.6 203.2 255.75 201.95 256.6 200.95 257.3 199.4 257.55 195.8 258.2 191.65 258.8 188 259.75 183.5 260.55 181.39921875 260.9001953125 177.65 261.4 176.08828125 261.61015625 174.2 261.85
L 109.5 270.15
M 100.05 276.55
Q 100.05 275.35 99.7 274.9 99.9 274.7 100.15 274.75 100.45 274.75 100.65 275 100.85 275.35 100.85 276 101 286.15 101 296.25 101 297.45 101.15 298 101.3 298.35 101.6 299.15
L 101.95 300.45
Q 102.25 301.2 103.4 302.35 103.75 302.9 103.8 303.5 103.8 304.2 103.35 304.45 102.85 303.1 102.55 302.75 102.35 302.4 101.7 301.8 101.15 301.25 100.95 300.9 100.65 299.8 100.45 299.3
L 100.05 298.15
Q 99.9 297.6 99.9 296.45 99.9 286.5 100.05 276.55 Z"/>

<path fill="#3BA082" stroke="none" d="
M 88.75 263.5
Q 87.2296875 263.9384765625 85.65 264.4 73.9 267.8 73.75 267.8 70.880078125 267.8 66.9 263.05 66.2599609375 262.477734375 65.65 261.7 64.484765625 260.304296875 63.65 258.65 62.32265625 256.6595703125 60.9 254.25 52.85 240.55 52.85 231.8 52.85 228.55 52.95 228.2 53.3 227.1 55.4 226.8 59.69375 226.7353515625 64.85 226.55 64.242578125 226.1560546875 63.45 225.55
L 55.9 219.55
Q 56.15 219.45 56.55 219.75
L 65.15 226.55
Q 71.4650390625 226.374609375 79.05 226.05 76.71796875 224.9720703125 73.75 223.45 51.6 212.1 35.35 206.6 37.25 207.9 48.15 215.05 56.05 220.3 60.7 224.6 60.8 224.7 60.9 224.9 60.95 225.1 60.8 225.2 51.9 218.4 42.85 212.7 39.85 210.9 38.4 209.9 36.45 208.6 34.65 207.1 34.35 207 34.2 206.7 34.15 206.55 34.2 206.35
L 34.3 206.3
Q 33.35 205.95 32.45 205.7 28.35 204.35 26.65 203.7 23.55 202.35 21.55 200.6 21.25 200.35 21 200.1 20.9 200.1 20.75 200.1 20.2 201.5 20.2 204.95
L 20.25 210.75
Q 20.25 214.85 20.45 216.9 20.5 218.05 20.75 220.4
L 21.05 222.85
Q 21.2 224.95 21.55 225.95 21.75 226.5 22.1 227.6 22.3 228.15 22.4 228.65 22.45 228.7 22.55 228.8
L 36.6 240.4
Q 40.4 243.55 42.2 245.3 45.2 248.35 45.65 248.7 46.05 249.05 47.65 250.3 48.9 251.3 49.6 252 49.9 252.3 50.35 252.7 50.95 253 51.55 253.25 51.25 253.35 50.75 253.25 51.15 253.7 51.7 254.3 53 255.95 53.75 256.65 54.55 257.35 56.05 258.4 57.75 259.6 58.45 260.15 58.65 260.3 63.25 264.9 66.15 267.75 68.65 268.55 69.8 268.95 73 269.1
L 74.5 269.15
Q 73.45 268.9 72.7 268.3 114.3791015625 263.3126953125 155.8 259.8 160.009765625 259.4421875 164.2 259.1 176.72109375 258.0822265625 189.2 257.2 193.5 256.85 195.4 256.55 198.8 255.95 201.2 254.65
L 194.75 251.2
Q 195 251.95 195.15 252.7 195.35 253.5 195.1 254 195 254.25 194.7 254.45 194.4 254.6 194.1 254.5 193.85 254.35 193.65 253.85 193.4 254.05 192.7 254.2 176.881640625 256.68828125 161.05 258.5 160.3091796875 258.616015625 159.55 258.7 124.2005859375 262.7283203125 88.75 263.5 Z"/>

<path fill="#85B762" stroke="none" d="
M 85.65 264.4
Q 87.2296875 263.9384765625 88.75 263.5 86.26953125 263.5615234375 83.8 263.6 77.6 263.7 74.55 264.25 72.35 264.65 72.3 264.65 71 264.85 70.05 264.65 68.38203125 264.3720703125 66.9 263.05 70.880078125 267.8 73.75 267.8 73.9 267.8 85.65 264.4
M 91.5 231.3
Q 92.21171875 231.3119140625 92.75 231.35 92.3787109375 231.1783203125 91.95 230.95
L 88.45 229.15
Q 86.15 228.8 83.7 227.95 83.35 227.8 83 227.7 81.325 227.0841796875 79.05 226.05 71.4650390625 226.374609375 65.15 226.55
L 66.1 227.3
Q 65.59296875 227.059765625 64.85 226.55 59.69375 226.7353515625 55.4 226.8 53.3 227.1 52.95 228.2 52.85 228.55 52.85 231.8 52.85 240.55 60.9 254.25 62.32265625 256.6595703125 63.65 258.65 61.2025390625 253.804296875 61.5 246.7 61.75 240.45 64.2 236.85 65.75 234.6 68.1 233.5 70.5 232.25 72.85 232.75
L 80.9 231.4
Q 83.55 230.9 85 230.85 86.05 230.75 88.15 230.75
L 90.75 230.7
Q 91.05 230.7 91.2 230.8 91.4 230.85 91.5 231.1 91.5205078125 231.2025390625 91.5 231.3 Z"/>

<path fill="#5795C0" stroke="none" d="
M 87.35 196.85
Q 88.65 193.7 89.1 193.55 90 193.25 91.7 193.35 91.8 193.35 91.9 193.3 92.2 193.25 92.65 193.2
L 94.2 193
Q 95.6 192.8 97.5 192.7 101.5 192.4 103.2 192.1
L 106.05 191.7
Q 106.15 191.7 108.65 191.4
L 116.55 190.8 116.55 189.95
Q 116.5 189.5 116 189.1 115.9 189 115.85 188.9 114.85 188.65 113.85 188.45 112.04765625 188.006640625 110.4 187.6 102.4197265625 188.7666015625 95.9 189.55
L 110.05 189.75 93.1 189.85
Q 90.51015625 190.18828125 88.15 190.4 89.22421875 190.9521484375 89.8 191.4 88.56015625 191.0361328125 87.1 190.5 79.197265625 191.3 74.5 191.3 74.5 193.05 70.05 198.6 65.75 204 64 204.85 65.45 208.1 76.1 218 80.8486328125 222.4388671875 85.7 226.55 85.9068359375 226.602734375 86.1 226.65 87.15 226.9 89 227.3 89.3 227.85 89.95 228.55 90.85 228.8 91.9 229.2 96.7 231.2 96.75 231.2 99.05 231.9 103.55 231.6 104 231.55 104.5 231.55 113.5 230.95 125.95 229.35 133.4 228.35 148.25 226.25
L 218.15 218.65
Q 218.15 218.25 218 217.9 213.4984375 218.2771484375 209 218.65 208.66953125 218.6951171875 208.3 218.7 173.9001953125 221.7966796875 140.4 226.05 122.65 228.2 118.2 228.7 111.45 229.35 105.55 229.7
L 95.8 229.85
Q 87.85 210.85 86.95 205.45 86 200 87.35 196.85
M 86.5 192.85
Q 87.65 193.75 86.6 195.15 84.45 198.05 83.75 201.9 83.15 205.15 84.3 208.2 85.05 210.25 85.75 212.35 87.95 218.45 90.05 224.7 90.3 225.4 91.05 225.8 92.5 226.7 92.55 228.15 92.35 228.25 92.3 228.2 87.65 225.15 86.85 219.4 86.6 217.8 85.95 216.4 83.45 210.9 82.55 205.25 82.1 202.4 83.15 199.75 84.45 196.6 86.2 193.55 86.4 193.25 86.5 192.85 Z"/>

<path fill="#105DA6" stroke="none" d="
M 77.95 181.8
Q 74.4 180.7 72.65 180.2 67.4 178.7 54.95 176.45 59.8 177.95 65.5 180.35 69.1 181.85 77.15 185.4
L 86.85 189.8
Q 87.588671875 190.12421875 88.15 190.4 90.51015625 190.18828125 93.1 189.85
L 91.4 189.9
Q 91.35 189.5 92 189.5
L 95.9 189.55
Q 102.4197265625 188.7666015625 110.4 187.6 106.276953125 186.6568359375 103.1 186.05 100.75 185.55 98.85 185.3 98.5 185.25 98.15 185.2 97.3 185.1 90.65 184.3 86.15 183.8 83.25 183.2 81.05 182.7 77.95 181.8 Z"/>

<path fill="#026DAE" stroke="none" d="
M 23.7 169.35
Q 23.45 169.3 23.55 169.15 23.05 168.95 22.15 168.4 21.2 167.8 20.65 167.35 20.1 167.65 18.75 168 17.25 168.3 16.8 169 16.25 169.7 16.45 171.55 16.6 173.65 16.7 179.1 16.75 183.9 17.1 186.65 18.3 195.65 23.7 199.8 25.3 201.05 27.65 202.05 29.15 202.65 32.05 203.6 55.1 211.2 76.5 222.5 79.7 224.15 81.05 224.8 81.1 224.8 81.15 224.85 83.6181640625 225.992578125 85.7 226.55 80.8486328125 222.4388671875 76.1 218 65.45 208.1 64 204.85 65.75 204 70.05 198.6 74.5 193.05 74.5 191.3 79.197265625 191.3 87.1 190.5 83.1787109375 189.160546875 77.7 186.75 77.5 186.8 77.25 186.65
L 57.4 179.15
Q 57.15 178.95 57.1 178.85 57.35 178.7 58 178.95
L 73.25 184.75
Q 63.1 180.15 58.25 178.5 53.75 177.05 52.5 176.4 52.5 176.15 52.75 176.05 50.5 175.65 48 175.2 32.35 172.5 23.7 169.35 Z"/>

<path fill="#FFCE41" stroke="none" d="
M 35.35 147.2
Q 35.05 147.7 34.15 147.95 29.95 149.25 26.25 149.8 24.95 149.95 24.3 150.2 21.95 151.15 21.2 153.95 21 154.7 20.9 155.45 20.55 157.85 20.65 162.7 20.65 163.6 20.8 164.05 21.05 164.9 22.4 166.2
L 24.4 168.15
Q 24.75 168.4 24.7 168.75 24.7 168.8 24.7 168.85
L 60.5 175.4
Q 68.95 177 73.1 178.15 73.15 178.15 73.75 178.35 77.2 179 81.3 179.85
L 98.1 183
Q 104.35 183.9 110.5 185.35 113.4908203125 186.0279296875 116.15 186.75 116.8419921875 186.9576171875 117.5 187.15 118.85 187.55 120.25 188 122.3296875 188.63671875 124.35 189.35 123.52890625 187.3826171875 122.8 185.75 120.94453125 181.3724609375 120.15 179.45 117.85 173.95 117.85 171.6 117.85 169.8 118.3 169.15 118.85 168.35 121 167.5 122.170703125 167.04375 125.55 165.85 124.0845703125 166.140234375 122.4 166.55 120.8 167 120.55 167.1
L 119.15 167.6
Q 117.25 168.35 116.4 168.9 114.95 169.7 114.4 169.85 113.9 170 113.2 169.9 112.8 169.9 112.45 169.7 112.25 169.6 112.05 169.25
L 111.2 168.2
Q 110.55 167.35 110.2 166.7 109.9 166.05 110 165.7 110.05 165.55 110.15 165.5 109 165.35 108.15 165.2 106.8 164.95 105.6 164.6 105.4 164.75 105.05 164.85 104.75 164.9 103.65 164.7
L 75.65 157.35
Q 51.35 151.1 49.1 150.55 48.95 150.5 48.8 150.5
L 35 147
Q 35.2 147.1 35.35 147.2
M 34.45 150.3
Q 32.8 149.85 32.45 149.2
L 66.5 156.5
Q 72.85 157.85 79.55 159.4 84.4 160.65 89.05 161.95
L 34.45 150.3
M 77.4 161.25
Q 72.5 160.2 64.15 159.1 54.35 157.75 50.9 157.15 50.85 157.05 50.95 157 51.1 156.9 51.15 156.95 68.5 159.15 77.8 161.05 77.9 161.4 77.4 161.25 Z"/>

<path fill="#FFE577" stroke="none" d="
M 236.1 156.7
Q 235.8 156.6 235.5 156.6
L 234.35 156.5
Q 232.15 156.4 231 156.55 230.15 156.7 229.65 156.7 229.55 156.7 229.5 156.75 229.15 157.1 228.3 157.1 224.2 157.35 222 157.45 220.362890625 157.590234375 217.05 157.75 216.8353515625 157.787109375 216.6 157.8 212.65 158 210.2 158
L 146.2 163.85
Q 135.9 164.85 128.1 165.3 127.85 165.4 127.45 165.5 128.6 165.75 129.85 166.2 130.6 166.45 130.75 166.8 130.15 166.8 129.55 166.65 128.85 166.55 126.5 165.95 126.15 165.85 125.85 165.8 125.7068359375 165.8267578125 125.55 165.85 122.170703125 167.04375 121 167.5 118.85 168.35 118.3 169.15 117.85 169.8 117.85 171.6 117.85 173.95 120.15 179.45 120.94453125 181.3724609375 122.8 185.75 123.52890625 187.3826171875 124.35 189.35 127.166015625 190.327734375 129.9 191.45 131.65 191.2 134.9 190.8
L 233.5 180.4
Q 233.7 180.35 233.95 180.4 233.95 179.7 233.7 179
L 163.35 185.5
Q 146.6 187.05 137.6 188.65 135.35 189.1 134 189.05 132.5 189 131.45 188.45 131.6 189.1 131.65 189.45 131.75 190.15 131.4 190.5 131.1 190.7 130.75 190.6 130.35 190.5 130.15 190.15 130 189.9 129.75 188.75 129.2 187.05 128.9 186.15
L 127.75 179.8
Q 127.5 177.9 127.5 176.45 127.5 175.1 127.75 174.2
L 128.1 171.9
Q 128.2 171.65 128.75 170.95 130.35 169.25 132.7 168.45 133.2 168.25 133.55 168.4 133.7 168.55 133.75 168.8 151.35 165.2 173.45 162.8 187.35 161.35 215.45 159.25 220.9548828125 158.821875 225.35 158.55 231.7025390625 158.2203125 235.7 158.25 236.35 158.25 236.7 158.45 236.9 158.4 237.05 158.35 236.8853515625 157.494140625 236.5 157.05 236.3392578125 156.81953125 236.1 156.7
M 126.75 170.9
Q 127 170.55 127 170.25
L 126.9 169.6
Q 126.95 169.5 127.1 169.35 127.25 169.25 127.35 169.35 128 169.9 127.5 170.9 127.35 171.4 126.7 172.35 126.45 173 126.65 175.2 126.7 176 126.6 178.65 126.55 180.8 126.8 182.05 127.05 183 127.6 184.8 127.75 185.65 127.95 187.3 128.2 188.7 128.95 189.35 128.3 189.35 127.75 188.8 127.25 188.3 127.05 187.55 126.9 187.05 126.8 186.15 126.7 185.1 126.65 184.75 126.1 183.35 125.95 182.6 125.65 181.65 125.65 179.55
L 125.7 174.25
Q 125.7 172.3 126.3 171.45 126.65 171.05 126.75 170.9 Z"/>

<path fill="#C64B5F" stroke="none" d="
M 192.3 156.75
Q 191.8119140625 156.8146484375 191.3 156.85 165.903125 158.691015625 116.55 161.55 113.653515625 161.7267578125 110.65 161.9 108 162.1 106.7 161.45 106.85 161.4 107 161.35 106.8 161.25 106.6 161.1 104.5 159.85 103.5 158.6 102.25 157 101.9 155 101.8376953125 154.584765625 101.8 154 100.9779296875 153.258984375 100.3 152.5 95.65 147.25 95.65 135.6 95.65 131.95 96.5 130.35 97.3 128.85 99.4 128.15 99.741015625 128.0220703125 103.35 127.15 102.0193359375 126.92890625 100.15 126.55 72.15 120.75 43.05 117 38.15 116.4 35.5 115.5
L 26.7 115.85 26.35 116.4
Q 24.7 117 24.35 118.6 23.1 124.7 24.95 130.55 25.55 132.45 26.35 134.3 28.15 138.65 29.65 143.05 29.9 143.7 30.35 144.2 31.2 144.25 32.05 144.35 40.4 146.4 48.8 148.5
L 104.65 162.85
Q 105.4 163.05 105.7 163.45 109.8 163.75 113.65 163.85 118.421484375 163.94296875 124 163.7 127.4537109375 163.53515625 131.2 163.25 132.283984375 163.1640625 133.7 163 138.9224609375 162.5708984375 148.7 161.55 173.792578125 158.97109375 198.85 157.05 204.4015625 156.63984375 209.95 156.25 210.65 156.2 211.25 156.55 212.15 156.45 214.05 156.2
L 224.9 155.4
Q 217.9 155.3 209.25 155.7 204.5421875 155.940234375 192.3 156.75
M 43.95 118.5
Q 44.5 118.3 45.65 118.5 65.8 121.4 85.1 125.25 85.05 125.5 84.5 125.4 64.5 122.3 45 118.85 44.3 118.75 43.95 118.5 Z"/>

<path fill="#D25F72" stroke="none" d="
M 228.45 123
Q 228.4 122.95 228.35 122.9 228.1 122.65 227 122.3 219.85 120.7 209.5 119.55 197.7 118.45 191.85 117.75 186.55 117.15 175.9 115.65
L 137.6 110.2
Q 137.3 110.6 136.3 110.65 115.5 112.95 80.8 113.85 61.95 114.45 48.8 114.9
L 37.3 115.4
Q 46.5 116.35 56.45 117.75 72.65 120 94.25 124.15 101.1662109375 125.4896484375 105.9 126.55 108.745703125 127.203515625 110.8 127.75 108.4 127.9 105.45 127.5 104.6583984375 127.4009765625 103.35 127.15 99.741015625 128.0220703125 99.4 128.15 97.3 128.85 96.5 130.35 95.65 131.95 95.65 135.6 95.65 147.25 100.3 152.5 100.9779296875 153.258984375 101.8 154 101.75 153.1486328125 101.75 151.95
L 101.75 138.35
Q 101.75 137.15 101.95 136.55 102.1 136 102.7 134.9 103.35 133.75 103.75 133.35 104.35 132.75 106.15 131.95 107.05 131.55 107.6 131.5 107.95 131.5 108.25 131.55 112.3 130.75 118.95 130.25 125.3 129.8 158.35 127.9 182.45 126.5 197.7 124.9 204.7466796875 124.1875 208.6 123.8 212.1056640625 123.4708984375 213.05 123.4 221.8 122.7 228.45 123
M 220 121.45
Q 216.5 122.05 210.75 122.5 159.4 126.6 131.75 127.8 120.05 128.25 113.9 127.4 133.45 126.65 143.15 126.15 159.4 125.35 172.35 124.3 180.35 123.7 196.15 122.35 209.85 121.35 220 121.45 Z"/>
</g>

<path id="Layer1_0_MEMBER_0_MEMBER_1_1_STROKES" stroke="#47B5C3" stroke-width="2" stroke-linejoin="round" stroke-linecap="round" fill="none" d="
M 18.27373657226562 215.70169982910156
Q 18.27373657226562 259.0810913085937 48.96079406738281 289.7263977050781 79.6061004638672 320.4134552001953 122.98549194335938 320.4134552001953 166.36488342285156 320.4134552001953 197.05194091796875 289.7263977050781 227.69724731445314 259.0810913085937 227.69724731445314 215.70169982910156 227.69724731445314 172.3223083496094 197.05194091796875 141.63525085449217 166.36488342285156 110.98994445800781 122.98549194335938 110.98994445800781 79.6061004638672 110.98994445800781 48.96079406738281 141.63525085449217 18.27373657226562 172.3223083496094 18.27373657226562 215.70169982910156 Z"/>

<path id="Layer1_0_MEMBER_0_MEMBER_2_1_STROKES" stroke="#47B5C3" stroke-width="2" stroke-linejoin="round" stroke-linecap="round" fill="none" d="
M 233.774658203125 28.15640258789063
L 15.558349609374972 28.15640258789063 15.558349609374972 367.9543823242188 233.774658203125 367.9543823242188 233.774658203125 28.15640258789063 Z"/>

<path id="Layer1_0_MEMBER_0_MEMBER_3_1_STROKES" stroke="#47B5C3" stroke-width="2" stroke-linejoin="round" stroke-linecap="round" fill="none" d="
M 16.517253112792957 18.485513305664064
L 67.8183853149414 57.87024078369141"/>

<path id="Layer1_0_MEMBER_0_MEMBER_4_1_STROKES" stroke="#47B5C3" stroke-width="2" stroke-linejoin="round" stroke-linecap="round" fill="none" d="
M 6.417253112792963 19.53551330566406
L 57.71838531494141 58.920240783691405"/>

<path id="Layer1_0_MEMBER_0_MEMBER_6_1_STROKES" stroke="#47B5C3" stroke-width="2" stroke-linejoin="round" stroke-linecap="round" fill="none" d="
M 30.02729644775391 379.9546005249024
Q 39.88682556152343 379.90545349121095 46.817308044433595 372.8959945678711 53.75732727050781 365.89597778320314 53.708180236816396 356.0364486694336 53.65903320312499 346.1769195556641 46.64952697753906 339.23694763183596 39.64955749511718 332.3064178466797 29.790028381347657 332.3555648803711 19.930499267578124 332.4047119140625 12.990480041503904 339.4047286987305 6.05999755859375 346.4141876220703 6.109144592285156 356.27371673583986 6.158291625976562 366.13324584960935 13.158261108398435 373.06377563476565 20.167767333984372 380.0037475585938 30.02729644775391 379.9546005249024 Z"/>

<path id="Layer1_0_MEMBER_0_MEMBER_8_1_STROKES" stroke="#47B5C3" stroke-width="2" stroke-linejoin="round" stroke-linecap="round" fill="none" d="
M 169.12496337890624 48.407476806640624
Q 169.12496337890624 63.4052490234375 179.73455200195312 74.00040283203126 190.32970581054687 84.60999145507813 205.32747802734374 84.60999145507813 220.32525024414062 84.60999145507813 230.9348388671875 74.00040283203126 241.52999267578124 63.4052490234375 241.52999267578124 48.407476806640624 241.52999267578124 33.40970458984375 230.9348388671875 22.800115966796874 220.32525024414062 12.204962158203125 205.32747802734374 12.204962158203125 190.32970581054687 12.204962158203125 179.73455200195312 22.800115966796874 169.12496337890624 33.40970458984375 169.12496337890624 48.407476806640624 Z"/>
</defs>

<g transform="matrix( -0.83502197265625, 0, 0, 0.83502197265625, 238.4,101.2) ">
<use xlink:href="#Layer1_0_MEMBER_0_MEMBER_0_FILL"/>
</g>

<g transform="matrix( -0.83502197265625, 0, 0, 0.83502197265625, 237.3,103.6) ">
<use xlink:href="#Layer1_0_MEMBER_0_MEMBER_1_1_STROKES" transform="matrix( -1.19757080078125, 0, 0, 1.19757080078125, 284.15,-124.05) "/>
</g>

<g transform="matrix( -0.9111328125, 0, 0, 1.0069580078125, 271.45,-8.95) ">
<use xlink:href="#Layer1_0_MEMBER_0_MEMBER_2_1_STROKES" transform="matrix( -1.0975341796875, 0, 0, 0.9930877685546875, 297.9,8.85) "/>
</g>

<g transform="matrix( -0.807891845703125, 0, 0, 0.807891845703125, 94.6,14.85) ">
<use xlink:href="#Layer1_0_MEMBER_0_MEMBER_3_1_STROKES" transform="matrix( -1.2377777099609375, 0, 0, 1.2377777099609375, 117.05,-18.35) "/>
</g>

<g transform="matrix( -0.807891845703125, 0, 0, 0.807891845703125, 84.5,15.9) ">
<use xlink:href="#Layer1_0_MEMBER_0_MEMBER_4_1_STROKES" transform="matrix( -1.2377777099609375, 0, 0, 1.2377777099609375, 104.55,-19.65) "/>
</g>

<g transform="matrix( 0.000946044921875, 0.189788818359375, 0.189788818359375, -0.000946044921875, 8.25,327.85) ">
<use xlink:href="#Layer1_0_MEMBER_0_MEMBER_5_FILL"/>
</g>

<g transform="matrix( 0.000946044921875, 0.189788818359375, 0.189788818359375, -0.000946044921875, 4.3,330.3) ">
<use xlink:href="#Layer1_0_MEMBER_0_MEMBER_6_1_STROKES" transform="matrix( 0.0262603759765625, 5.2688751220703125, 5.2688751220703125, -0.0262603759765625, -1740.4,-13.95) "/>
</g>

<g transform="matrix( -0.2886962890625, 0, 0, 0.2886962890625, 249.2,8.85) ">
<use xlink:href="#Layer1_0_MEMBER_0_MEMBER_7_FILL"/>
</g>

<g transform="matrix( -0.2886962890625, 0, 0, 0.2886962890625, 244.85,9.65) ">
<use xlink:href="#Layer1_0_MEMBER_0_MEMBER_8_1_STROKES" transform="matrix( -3.463836669921875, 0, 0, 3.463836669921875, 848.1,-33.4) "/>
</g>

<g transform="matrix( 1, 0, 0, 1, 0,0) ">
<use xlink:href="#Layer0_0_MEMBER_0_FILL"/>
</g>

<g transform="matrix( 1, 0, 0, 1, 0,0) ">
<use xlink:href="#Layer0_0_MEMBER_1_FILL"/>
</g>
</svg>
