<?xml version="1.0" encoding="UTF-8"?><svg id="Camada_1" xmlns="http://www.w3.org/2000/svg" viewBox="0 0 391.25 388"><defs><style>.cls-1{fill:#016dae;}.cls-2{fill:#d3e7ee;}.cls-3{fill:none;stroke:#0f546b;stroke-miterlimit:10;}</style></defs><g><circle class="cls-3" cx="196.16" cy="214.76" r="141.25"/><path id="Caminho_16186" class="cls-1" d="m75.91,142.12c-5.65-4.64-11.63-8.87-17.88-12.66l34.07-10.21-3.34,34.75c-4.04-4.21-8.33-8.17-12.85-11.88Z"/><path id="Caminho_16186-2" class="cls-1" d="m307.25,131.13c-5.65,4.64-11.63,8.87-17.88,12.66l34.07,10.21-3.34-34.75c-4.04,4.21-8.33,8.17-12.85,11.88Z"/><path id="Caminho_16186-3" class="cls-1" d="m323.67,278.24c5.65,4.64,11.63,8.87,17.88,12.66l-34.07,10.21,3.34-34.75c4.04,4.21,8.33,8.17,12.85,11.88Z"/><path id="Caminho_16186-4" class="cls-1" d="m79.54,289.24c5.65-4.64,11.63-8.87,17.88-12.66l-34.07-10.21,3.34,34.75c4.04-4.21,8.33-8.17,12.85-11.88Z"/><rect class="cls-2" x="139.12" y="33" width="114.07" height="65.03" rx="5" ry="5"/><rect class="cls-2" x="277.18" y="182.25" width="114.07" height="65.03" rx="5" ry="5"/><g><rect class="cls-2" x="202.55" y="322.97" width="114.07" height="65.03" rx="5" ry="5"/><rect class="cls-2" x="75.69" y="322.97" width="114.07" height="65.03" rx="5" ry="5"/></g><rect class="cls-2" x="0" y="182.25" width="114.07" height="65.03" rx="5" ry="5"/><g><path d="m166.13,59.78l-2.2-7.16h-.06c.08,1.46.12,2.43.12,2.92v4.25h-1.73v-9.13h2.64l2.16,6.98h.04l2.29-6.98h2.64v9.13h-1.81v-4.32c0-.2,0-.44,0-.71s.03-.97.08-2.12h-.06l-2.35,7.15h-1.77Z"/><path d="m180.52,56.27c0,1.14-.3,2.03-.9,2.67s-1.43.96-2.5.96c-.67,0-1.26-.15-1.77-.44s-.91-.72-1.18-1.27c-.27-.55-.41-1.19-.41-1.92,0-1.14.3-2.03.89-2.66.6-.63,1.43-.95,2.51-.95.67,0,1.26.15,1.77.44s.91.71,1.18,1.26.41,1.18.41,1.92Zm-4.83,0c0,.69.11,1.21.34,1.57.23.35.6.53,1.11.53s.87-.18,1.1-.53c.22-.35.33-.88.33-1.57s-.11-1.21-.34-1.56c-.22-.35-.59-.52-1.11-.52s-.87.17-1.1.52c-.22.34-.34.86-.34,1.56Z"/><path d="m188.54,59.78h-1.91v-4.08c0-.5-.09-.88-.27-1.13-.18-.25-.46-.38-.86-.38-.53,0-.92.18-1.15.53s-.36.95-.36,1.77v3.29h-1.91v-6.98h1.46l.26.89h.11c.21-.34.5-.59.88-.77.37-.17.8-.26,1.27-.26.81,0,1.43.22,1.85.66.42.44.63,1.07.63,1.9v4.55Z"/><path d="m193.45,58.39c.33,0,.73-.07,1.2-.22v1.42c-.47.21-1.06.32-1.75.32-.76,0-1.32-.19-1.66-.58-.35-.39-.52-.96-.52-1.73v-3.37h-.91v-.81l1.05-.64.55-1.47h1.22v1.49h1.96v1.43h-1.96v3.37c0,.27.08.47.23.6.15.13.35.19.6.19Z"/><path d="m200.49,59.78l-.37-.95h-.05c-.32.4-.65.68-.99.84-.34.16-.78.23-1.33.23-.67,0-1.2-.19-1.58-.57-.39-.38-.58-.93-.58-1.64s.26-1.29.78-1.64c.52-.35,1.3-.55,2.35-.58l1.21-.04v-.31c0-.71-.36-1.06-1.09-1.06-.56,0-1.21.17-1.97.51l-.63-1.29c.8-.42,1.7-.63,2.67-.63s1.66.2,2.16.61c.5.41.75,1.03.75,1.86v4.65h-1.33Zm-.56-3.24l-.74.03c-.55.02-.97.12-1.24.3-.27.18-.41.46-.41.84,0,.54.31.81.92.81.44,0,.79-.13,1.06-.38s.4-.59.4-1.01v-.57Z"/><path d="m209.86,52.8v.97l-1.09.28c.2.31.3.66.3,1.05,0,.75-.26,1.33-.78,1.75s-1.25.63-2.18.63l-.34-.02-.28-.03c-.2.15-.29.32-.29.5,0,.27.35.41,1.05.41h1.19c.77,0,1.35.16,1.75.49.4.33.6.81.6,1.45,0,.82-.34,1.45-1.02,1.9-.68.45-1.66.67-2.93.67-.97,0-1.72-.17-2.23-.51-.51-.34-.77-.81-.77-1.43,0-.42.13-.77.39-1.06.26-.28.65-.48,1.16-.61-.2-.08-.37-.22-.51-.41-.15-.19-.22-.39-.22-.6,0-.27.08-.49.23-.67.15-.18.38-.35.67-.52-.37-.16-.66-.41-.87-.76-.21-.35-.32-.76-.32-1.24,0-.76.25-1.35.74-1.77.5-.42,1.2-.62,2.12-.62.2,0,.43.02.7.05.27.04.44.06.52.08h2.44Zm-5.39,7.97c0,.26.13.47.38.62s.6.22,1.06.22c.68,0,1.22-.09,1.61-.28.39-.19.58-.44.58-.77,0-.26-.11-.44-.34-.54-.23-.1-.58-.15-1.06-.15h-.99c-.35,0-.64.08-.88.25s-.35.38-.35.65Zm.69-5.68c0,.38.09.68.26.9s.44.33.79.33.62-.11.79-.33c.17-.22.25-.52.25-.9,0-.84-.35-1.26-1.04-1.26s-1.05.42-1.05,1.26Z"/><path d="m214.17,59.9c-1.12,0-2-.31-2.64-.93-.63-.62-.95-1.5-.95-2.64s.29-2.07.88-2.71,1.39-.96,2.43-.96,1.76.28,2.3.84c.55.56.83,1.34.83,2.33v.92h-4.5c.02.54.18.96.48,1.27.3.3.72.46,1.26.46.42,0,.82-.04,1.19-.13s.77-.23,1.17-.42v1.47c-.33.17-.69.29-1.07.37-.38.08-.84.12-1.39.12Zm-.27-5.88c-.4,0-.72.13-.95.38-.23.26-.36.62-.39,1.09h2.67c0-.47-.13-.83-.37-1.09-.24-.26-.56-.38-.96-.38Z"/><path d="m224.82,59.78h-1.91v-4.08c0-.5-.08-.88-.25-1.13-.17-.25-.43-.38-.8-.38-.49,0-.84.18-1.06.54-.22.36-.33.95-.33,1.77v3.29h-1.91v-6.98h1.46l.26.89h.11c.19-.32.46-.57.81-.75.35-.18.76-.27,1.22-.27,1.04,0,1.75.34,2.12,1.02h.17c.19-.32.46-.58.83-.76.36-.18.78-.27,1.23-.27.79,0,1.39.2,1.8.61.41.41.61,1.06.61,1.95v4.55h-1.91v-4.08c0-.5-.08-.88-.25-1.13-.17-.25-.43-.38-.8-.38-.47,0-.82.17-1.05.5-.23.33-.35.86-.35,1.59v3.5Z"/><path d="m165.34,75.25c-.82,0-1.46-.32-1.93-.96-.47-.64-.7-1.52-.7-2.65s.24-2.04.72-2.68c.48-.64,1.13-.96,1.97-.96.88,0,1.55.34,2.01,1.02h.06c-.1-.52-.14-.98-.14-1.39v-2.24h1.91v9.72h-1.46l-.37-.91h-.08c-.43.69-1.09,1.03-1.98,1.03Zm.67-1.52c.49,0,.84-.14,1.07-.42s.35-.76.37-1.44v-.21c0-.75-.12-1.29-.35-1.61-.23-.32-.61-.49-1.13-.49-.42,0-.75.18-.99.54-.24.36-.35.88-.35,1.57s.12,1.2.36,1.55c.24.34.58.52,1.02.52Z"/><path d="m175.66,75.13l-.37-.95h-.05c-.32.4-.65.68-.99.84s-.78.23-1.33.23c-.67,0-1.2-.19-1.58-.57-.39-.38-.58-.93-.58-1.64s.26-1.29.78-1.64c.52-.35,1.3-.55,2.35-.58l1.21-.04v-.31c0-.71-.36-1.06-1.09-1.06-.56,0-1.21.17-1.97.51l-.63-1.29c.8-.42,1.69-.63,2.67-.63s1.66.2,2.15.61c.5.41.75,1.03.75,1.86v4.65h-1.33Zm-.56-3.24l-.74.03c-.55.02-.97.12-1.24.3-.27.18-.41.46-.41.84,0,.54.31.81.92.81.44,0,.79-.13,1.06-.38s.4-.59.4-1.01v-.57Z"/><path d="m188.01,75.13l-.66-2.17h-3.33l-.66,2.17h-2.09l3.22-9.17h2.37l3.24,9.17h-2.09Zm-1.12-3.8c-.61-1.97-.96-3.08-1.03-3.34s-.13-.46-.17-.61c-.14.53-.53,1.85-1.18,3.95h2.38Z"/><path d="m197.18,68.15v.97l-1.09.28c.2.31.3.66.3,1.05,0,.75-.26,1.33-.78,1.75s-1.25.63-2.18.63l-.34-.02-.28-.03c-.2.15-.29.32-.29.5,0,.27.35.41,1.05.41h1.19c.77,0,1.35.16,1.75.49.4.33.6.81.6,1.45,0,.82-.34,1.45-1.02,1.9-.68.45-1.66.67-2.93.67-.97,0-1.72-.17-2.23-.51-.51-.34-.77-.81-.77-1.43,0-.42.13-.77.39-1.06.26-.28.65-.48,1.16-.61-.2-.08-.37-.22-.51-.41-.15-.19-.22-.39-.22-.6,0-.27.08-.49.23-.67.15-.18.38-.35.67-.52-.37-.16-.66-.41-.87-.76-.21-.35-.32-.76-.32-1.24,0-.76.25-1.35.74-1.77.5-.42,1.2-.62,2.12-.62.2,0,.43.02.7.05.27.04.44.06.52.08h2.44Zm-5.39,7.97c0,.26.13.47.38.62s.6.22,1.06.22c.68,0,1.22-.09,1.61-.28.39-.19.58-.44.58-.77,0-.26-.11-.44-.34-.54-.23-.1-.58-.15-1.06-.15h-.99c-.35,0-.64.08-.88.25s-.35.38-.35.65Zm.69-5.68c0,.38.09.68.26.9s.44.33.79.33.62-.11.79-.33c.17-.22.25-.52.25-.9,0-.84-.35-1.26-1.04-1.26s-1.05.42-1.05,1.26Z"/><path d="m201.49,75.25c-1.12,0-2-.31-2.64-.93-.63-.62-.95-1.5-.95-2.64s.29-2.07.88-2.71,1.39-.96,2.43-.96,1.76.28,2.3.84c.55.56.83,1.34.83,2.33v.92h-4.5c.02.54.18.96.48,1.27.3.3.72.46,1.26.46.42,0,.82-.04,1.19-.13s.77-.23,1.17-.42v1.47c-.33.17-.69.29-1.07.37-.38.08-.84.12-1.39.12Zm-.27-5.88c-.4,0-.72.13-.95.38-.23.26-.36.62-.39,1.09h2.67c0-.47-.13-.83-.37-1.09-.24-.26-.56-.38-.96-.38Z"/><path d="m212.33,75.13h-1.91v-4.08c0-.5-.09-.88-.27-1.13-.18-.25-.46-.38-.86-.38-.53,0-.92.18-1.16.53s-.36.95-.36,1.77v3.29h-1.91v-6.98h1.46l.26.89h.11c.21-.34.5-.59.88-.77.37-.17.8-.26,1.27-.26.81,0,1.43.22,1.85.66.42.44.63,1.07.63,1.9v4.55Z"/><path d="m216.51,75.25c-.82,0-1.46-.32-1.93-.96-.47-.64-.7-1.52-.7-2.65s.24-2.04.72-2.68,1.13-.96,1.97-.96c.88,0,1.55.34,2.01,1.02h.06c-.1-.52-.14-.98-.14-1.39v-2.24h1.91v9.72h-1.46l-.37-.91h-.08c-.43.69-1.09,1.03-1.98,1.03Zm.67-1.52c.49,0,.84-.14,1.07-.42.23-.28.35-.76.37-1.44v-.21c0-.75-.12-1.29-.35-1.61-.23-.32-.61-.49-1.13-.49-.42,0-.75.18-.99.54-.24.36-.35.88-.35,1.57s.12,1.2.36,1.55c.24.34.58.52,1.02.52Z"/><path d="m226.83,75.13l-.37-.95h-.05c-.32.4-.65.68-.99.84-.34.16-.78.23-1.33.23-.67,0-1.2-.19-1.58-.57-.39-.38-.58-.93-.58-1.64s.26-1.29.78-1.64c.52-.35,1.3-.55,2.35-.58l1.21-.04v-.31c0-.71-.36-1.06-1.09-1.06-.56,0-1.21.17-1.97.51l-.63-1.29c.8-.42,1.7-.63,2.67-.63s1.66.2,2.16.61c.5.41.75,1.03.75,1.86v4.65h-1.33Zm-.56-3.24l-.74.03c-.55.02-.97.12-1.24.3-.27.18-.41.46-.41.84,0,.54.31.81.92.81.44,0,.79-.13,1.06-.38s.4-.59.4-1.01v-.57Z"/></g><g><path d="m302.68,213.29h-1.91v-9.13h5.23v1.59h-3.33v2.36h3.1v1.58h-3.1v3.61Z"/><path d="m313.99,209.79c0,1.14-.3,2.03-.9,2.67s-1.43.96-2.5.96c-.67,0-1.26-.15-1.77-.44-.51-.29-.91-.71-1.18-1.26-.28-.55-.41-1.19-.41-1.92,0-1.14.3-2.03.89-2.66s1.43-.95,2.51-.95c.67,0,1.26.15,1.77.44.51.29.91.71,1.18,1.26s.41,1.18.41,1.92Zm-4.83,0c0,.69.11,1.21.34,1.57.23.35.6.53,1.11.53s.87-.18,1.1-.53c.22-.35.33-.88.33-1.57s-.11-1.21-.34-1.56-.59-.52-1.11-.52-.88.17-1.1.52-.34.86-.34,1.56Z"/><path d="m319.46,206.18c.26,0,.47.02.64.06l-.14,1.79c-.15-.04-.34-.06-.56-.06-.61,0-1.08.16-1.42.47-.34.31-.51.75-.51,1.31v3.55h-1.91v-6.98h1.44l.28,1.17h.09c.22-.39.51-.71.88-.95.37-.24.77-.36,1.2-.36Z"/><path d="m327.63,213.29h-1.91v-4.08c0-.5-.08-.88-.25-1.13-.17-.25-.43-.38-.8-.38-.49,0-.84.18-1.06.54-.22.36-.33.95-.33,1.77v3.29h-1.91v-6.98h1.46l.26.89h.11c.19-.32.46-.57.81-.75.35-.18.76-.27,1.22-.27,1.04,0,1.75.34,2.12,1.02h.17c.19-.33.46-.58.83-.76.36-.18.78-.27,1.23-.27.79,0,1.39.2,1.8.61s.61,1.06.61,1.95v4.55h-1.91v-4.08c0-.5-.08-.88-.25-1.13s-.43-.38-.8-.38c-.47,0-.82.17-1.05.5-.23.33-.35.86-.35,1.59v3.5Z"/><path d="m338.88,213.29l-.26-.89h-.1c-.2.33-.49.58-.87.75-.38.18-.8.27-1.28.27-.82,0-1.44-.22-1.85-.66-.42-.44-.62-1.07-.62-1.9v-4.55h1.91v4.08c0,.5.09.88.27,1.13s.46.38.86.38c.53,0,.92-.18,1.16-.53.24-.36.36-.95.36-1.77v-3.29h1.91v6.98h-1.46Z"/><path d="m344.25,213.29h-1.91v-9.72h1.91v9.72Z"/><path d="m350.68,213.29l-.37-.95h-.05c-.32.4-.65.68-.99.84-.34.16-.78.23-1.33.23-.67,0-1.2-.19-1.58-.58-.39-.38-.58-.93-.58-1.64s.26-1.29.78-1.64c.52-.35,1.3-.55,2.35-.58l1.21-.04v-.31c0-.71-.36-1.06-1.09-1.06-.56,0-1.21.17-1.97.51l-.63-1.29c.8-.42,1.7-.63,2.67-.63s1.66.2,2.16.61c.5.41.75,1.03.75,1.86v4.65h-1.33Zm-.56-3.24l-.74.02c-.55.02-.97.12-1.24.3-.27.18-.41.46-.41.84,0,.54.31.81.92.81.44,0,.79-.13,1.06-.38.26-.25.4-.59.4-1.01v-.57Z"/><path d="m356.81,213.42c-2.17,0-3.26-1.19-3.26-3.58,0-1.19.3-2.09.89-2.72.59-.63,1.44-.94,2.54-.94.81,0,1.53.16,2.17.47l-.56,1.47c-.3-.12-.58-.22-.84-.3-.26-.08-.52-.12-.77-.12-.99,0-1.49.7-1.49,2.11s.5,2.05,1.49,2.05c.37,0,.71-.05,1.02-.15s.62-.25.94-.46v1.63c-.31.2-.62.33-.93.41s-.71.11-1.19.11Zm1.19,1.44c0,.53-.16.92-.47,1.16s-.8.36-1.46.36c-.33,0-.63-.04-.91-.13v-1.05c.11.03.26.06.45.09.19.03.34.04.44.04.3,0,.45-.13.45-.39,0-.35-.35-.57-1.04-.67l.49-.96h1.21l-.17.38c.31.1.55.25.74.47.18.21.27.45.27.71Z"/><path d="m364.99,213.29l-.37-.95h-.05c-.32.4-.65.68-.99.84-.34.16-.78.23-1.33.23-.67,0-1.2-.19-1.58-.58-.39-.38-.58-.93-.58-1.64s.26-1.29.78-1.64c.52-.35,1.3-.55,2.35-.58l1.21-.04v-.31c0-.71-.36-1.06-1.09-1.06-.56,0-1.21.17-1.97.51l-.63-1.29c.8-.42,1.7-.63,2.67-.63s1.66.2,2.16.61c.5.41.75,1.03.75,1.86v4.65h-1.33Zm-2.52-8.41c-.13,0-.25.06-.37.17-.12.11-.21.28-.26.5h-.93c.05-.6.22-1.08.52-1.42.3-.34.69-.51,1.18-.51.17,0,.34.03.5.1.16.07.33.14.49.22.16.08.32.16.47.22.15.07.31.1.46.1.13,0,.25-.05.37-.16.12-.11.21-.27.26-.5h.93c-.05.6-.22,1.08-.52,1.42-.3.34-.7.51-1.18.51-.17,0-.34-.03-.5-.1-.17-.07-.33-.14-.49-.23s-.32-.16-.47-.22-.31-.1-.46-.1Zm1.96,5.17l-.74.02c-.55.02-.97.12-1.24.3-.27.18-.41.46-.41.84,0,.54.31.81.92.81.44,0,.79-.13,1.06-.38.26-.25.4-.59.4-1.01v-.57Z"/><path d="m374.62,209.79c0,1.14-.3,2.03-.9,2.67s-1.43.96-2.5.96c-.67,0-1.26-.15-1.77-.44-.51-.29-.91-.71-1.18-1.26-.28-.55-.41-1.19-.41-1.92,0-1.14.3-2.03.89-2.66s1.43-.95,2.51-.95c.67,0,1.26.15,1.77.44.51.29.91.71,1.18,1.26s.41,1.18.41,1.92Zm-4.83,0c0,.69.11,1.21.34,1.57.23.35.6.53,1.11.53s.87-.18,1.1-.53c.22-.35.33-.88.33-1.57s-.11-1.21-.34-1.56-.59-.52-1.11-.52-.88.17-1.1.52-.34.86-.34,1.56Z"/><path d="m307.25,228.77c-.82,0-1.46-.32-1.93-.96-.47-.64-.7-1.52-.7-2.65s.24-2.04.72-2.68c.48-.64,1.13-.96,1.97-.96.88,0,1.55.34,2.01,1.02h.06c-.1-.52-.14-.99-.14-1.39v-2.24h1.91v9.72h-1.46l-.37-.91h-.08c-.43.69-1.09,1.03-1.98,1.03Zm.67-1.52c.49,0,.84-.14,1.07-.42.23-.28.35-.76.37-1.44v-.21c0-.75-.12-1.29-.35-1.61-.23-.33-.61-.49-1.13-.49-.42,0-.75.18-.99.54s-.35.88-.35,1.57.12,1.2.36,1.55c.24.34.58.52,1.02.52Z"/><path d="m317.57,228.64l-.37-.95h-.05c-.32.4-.65.68-.99.84-.34.16-.78.23-1.33.23-.67,0-1.2-.19-1.58-.58-.39-.38-.58-.93-.58-1.64s.26-1.29.78-1.64c.52-.35,1.3-.55,2.35-.58l1.21-.04v-.31c0-.71-.36-1.06-1.09-1.06-.56,0-1.21.17-1.97.51l-.63-1.29c.8-.42,1.7-.63,2.67-.63s1.66.2,2.16.61c.5.41.75,1.03.75,1.86v4.65h-1.33Zm-.56-3.24l-.74.02c-.55.02-.97.12-1.24.3-.27.18-.41.46-.41.84,0,.54.31.81.92.81.44,0,.79-.13,1.06-.38.26-.25.4-.59.4-1.01v-.57Z"/><path d="m328.02,228.77c-.82,0-1.46-.3-1.93-.89h-.1c.07.58.1.92.1,1.01v2.83h-1.91v-10.06h1.55l.27.91h.09c.45-.69,1.11-1.04,1.98-1.04.82,0,1.47.32,1.94.96.47.64.7,1.52.7,2.66,0,.75-.11,1.39-.33,1.94-.22.55-.53.97-.93,1.26-.4.29-.88.43-1.42.43Zm-.56-5.72c-.47,0-.81.14-1.03.43-.22.29-.33.77-.34,1.43v.21c0,.75.11,1.29.33,1.61.22.33.58.49,1.06.49.85,0,1.28-.7,1.28-2.11,0-.69-.11-1.2-.32-1.55s-.54-.52-.99-.52Z"/><path d="m338.63,225.14c0,1.14-.3,2.03-.9,2.67s-1.43.96-2.5.96c-.67,0-1.26-.15-1.77-.44-.51-.29-.91-.71-1.18-1.26-.28-.55-.41-1.19-.41-1.92,0-1.14.3-2.03.89-2.66s1.43-.95,2.51-.95c.67,0,1.26.15,1.77.44.51.29.91.71,1.18,1.26s.41,1.18.41,1.92Zm-4.83,0c0,.69.11,1.21.34,1.57.23.35.6.53,1.11.53s.87-.18,1.1-.53c.22-.35.33-.88.33-1.57s-.11-1.21-.34-1.56-.59-.52-1.11-.52-.88.17-1.1.52-.34.86-.34,1.56Z"/><path d="m342.11,228.64h-1.91v-9.72h1.91v9.72Z"/><path d="m344.02,220.89v-.17c.72-.83,1.21-1.46,1.47-1.88h2.14v.13c-.22.22-.59.54-1.11.97s-.93.74-1.23.95h-1.27Zm2,7.75h-1.91v-6.98h1.91v6.98Z"/><path d="m350.96,227.25c.33,0,.73-.07,1.2-.22v1.42c-.47.21-1.06.32-1.75.32-.76,0-1.32-.19-1.66-.58-.35-.38-.52-.96-.52-1.73v-3.37h-.91v-.81l1.05-.64.55-1.47h1.22v1.49h1.96v1.43h-1.96v3.37c0,.27.08.47.23.6.15.13.35.19.6.19Z"/><path d="m353.49,219.85c0-.62.35-.93,1.04-.93s1.04.31,1.04.93c0,.3-.09.53-.26.69-.17.17-.43.25-.78.25-.69,0-1.04-.31-1.04-.94Zm1.99,8.79h-1.91v-6.98h1.91v6.98Z"/><path d="m360.31,228.77c-2.17,0-3.26-1.19-3.26-3.58,0-1.19.3-2.09.89-2.72.59-.63,1.44-.94,2.54-.94.81,0,1.53.16,2.17.47l-.56,1.47c-.3-.12-.58-.22-.84-.3-.26-.08-.52-.12-.77-.12-.99,0-1.49.7-1.49,2.11s.5,2.05,1.49,2.05c.37,0,.71-.05,1.02-.15s.62-.25.94-.46v1.63c-.31.2-.62.33-.93.41s-.71.11-1.19.11Z"/><path d="m368.48,228.64l-.37-.95h-.05c-.32.4-.65.68-.99.84-.34.16-.78.23-1.33.23-.67,0-1.2-.19-1.58-.58-.39-.38-.58-.93-.58-1.64s.26-1.29.78-1.64c.52-.35,1.3-.55,2.35-.58l1.21-.04v-.31c0-.71-.36-1.06-1.09-1.06-.56,0-1.21.17-1.97.51l-.63-1.29c.8-.42,1.7-.63,2.67-.63s1.66.2,2.16.61c.5.41.75,1.03.75,1.86v4.65h-1.33Zm-.56-3.24l-.74.02c-.55.02-.97.12-1.24.3-.27.18-.41.46-.41.84,0,.54.31.81.92.81.44,0,.79-.13,1.06-.38.26-.25.4-.59.4-1.01v-.57Z"/></g><g><path d="m238.54,351.88h-1.94v-7.52h-2.48v-1.61h6.9v1.61h-2.48v7.52Z"/><path d="m248.62,348.38c0,1.14-.3,2.03-.9,2.67s-1.43.96-2.5.96c-.67,0-1.26-.15-1.77-.44-.51-.29-.91-.71-1.18-1.26-.28-.55-.41-1.19-.41-1.92,0-1.14.3-2.03.89-2.66s1.43-.95,2.51-.95c.67,0,1.26.15,1.77.44.51.29.91.71,1.18,1.26s.41,1.18.41,1.92Zm-4.83,0c0,.69.11,1.21.34,1.57.23.35.6.53,1.11.53s.87-.18,1.1-.53c.22-.35.33-.88.33-1.57s-.11-1.21-.34-1.56-.59-.52-1.11-.52-.88.17-1.1.52-.34.86-.34,1.56Z"/><path d="m256.45,351.88h-1.91v-4.08c0-.5-.08-.88-.25-1.13-.17-.25-.43-.38-.8-.38-.49,0-.84.18-1.06.54-.22.36-.33.95-.33,1.77v3.29h-1.91v-6.98h1.46l.26.89h.11c.19-.32.46-.57.81-.75.35-.18.76-.27,1.22-.27,1.04,0,1.75.34,2.12,1.02h.17c.19-.33.46-.58.83-.76.36-.18.78-.27,1.23-.27.79,0,1.39.2,1.8.61s.61,1.06.61,1.95v4.55h-1.91v-4.08c0-.5-.08-.88-.25-1.13s-.43-.38-.8-.38c-.47,0-.82.17-1.05.5-.23.33-.35.86-.35,1.59v3.5Z"/><path d="m267.19,351.88l-.37-.95h-.05c-.32.4-.65.68-.99.84-.34.16-.78.23-1.33.23-.67,0-1.2-.19-1.58-.58-.39-.38-.58-.93-.58-1.64s.26-1.29.78-1.64c.52-.35,1.3-.55,2.35-.58l1.21-.04v-.31c0-.71-.36-1.06-1.09-1.06-.56,0-1.21.17-1.97.51l-.63-1.29c.8-.42,1.7-.63,2.67-.63s1.66.2,2.16.61c.5.41.75,1.03.75,1.86v4.65h-1.33Zm-.56-3.24l-.74.02c-.55.02-.97.12-1.24.3-.27.18-.41.46-.41.84,0,.54.31.81.92.81.44,0,.79-.13,1.06-.38.26-.25.4-.59.4-1.01v-.57Z"/><path d="m272.69,352.01c-.82,0-1.46-.32-1.93-.96-.47-.64-.7-1.52-.7-2.65s.24-2.04.72-2.68c.48-.64,1.13-.96,1.97-.96.88,0,1.55.34,2.01,1.02h.06c-.1-.52-.14-.99-.14-1.39v-2.24h1.91v9.72h-1.46l-.37-.91h-.08c-.43.69-1.09,1.03-1.98,1.03Zm.67-1.52c.49,0,.84-.14,1.07-.42.23-.28.35-.76.37-1.44v-.21c0-.75-.12-1.29-.35-1.61-.23-.33-.61-.49-1.13-.49-.42,0-.75.18-.99.54s-.35.88-.35,1.57.12,1.2.36,1.55c.24.34.58.52,1.02.52Z"/><path d="m283.01,351.88l-.37-.95h-.05c-.32.4-.65.68-.99.84-.34.16-.78.23-1.33.23-.67,0-1.2-.19-1.58-.58-.39-.38-.58-.93-.58-1.64s.26-1.29.78-1.64c.52-.35,1.3-.55,2.35-.58l1.21-.04v-.31c0-.71-.36-1.06-1.09-1.06-.56,0-1.21.17-1.97.51l-.63-1.29c.8-.42,1.7-.63,2.67-.63s1.66.2,2.16.61c.5.41.75,1.03.75,1.86v4.65h-1.33Zm-.56-3.24l-.74.02c-.55.02-.97.12-1.24.3-.27.18-.41.46-.41.84,0,.54.31.81.92.81.44,0,.79-.13,1.06-.38.26-.25.4-.59.4-1.01v-.57Z"/><path d="m229.24,367.36c-.82,0-1.46-.32-1.93-.96-.47-.64-.7-1.52-.7-2.65s.24-2.04.72-2.68c.48-.64,1.13-.96,1.97-.96.88,0,1.55.34,2.01,1.02h.06c-.1-.52-.14-.99-.14-1.39v-2.24h1.91v9.72h-1.46l-.37-.91h-.08c-.43.69-1.09,1.03-1.98,1.03Zm.67-1.52c.49,0,.84-.14,1.07-.42.23-.28.35-.76.37-1.44v-.21c0-.75-.12-1.29-.35-1.61-.23-.33-.61-.49-1.13-.49-.42,0-.75.18-.99.54s-.35.88-.35,1.57.12,1.2.36,1.55c.24.34.58.52,1.02.52Z"/><path d="m238.28,367.36c-1.12,0-2-.31-2.64-.93-.63-.62-.95-1.5-.95-2.64s.29-2.08.88-2.71c.58-.64,1.39-.96,2.43-.96s1.76.28,2.3.84c.55.56.83,1.34.83,2.33v.92h-4.5c.02.54.18.96.48,1.27.3.3.72.46,1.26.46.42,0,.82-.04,1.19-.13.38-.09.77-.23,1.17-.42v1.47c-.33.17-.69.29-1.07.37s-.84.12-1.39.12Zm-.27-5.88c-.4,0-.72.13-.95.38-.23.26-.36.62-.39,1.09h2.67c0-.47-.13-.83-.37-1.09s-.56-.38-.96-.38Z"/><path d="m248.22,367.36c-.82,0-1.46-.32-1.93-.96-.47-.64-.7-1.52-.7-2.65s.24-2.04.72-2.68c.48-.64,1.13-.96,1.97-.96.88,0,1.55.34,2.01,1.02h.06c-.1-.52-.14-.99-.14-1.39v-2.24h1.91v9.72h-1.46l-.37-.91h-.08c-.43.69-1.09,1.03-1.98,1.03Zm.67-1.52c.49,0,.84-.14,1.07-.42.23-.28.35-.76.37-1.44v-.21c0-.75-.12-1.29-.35-1.61-.23-.33-.61-.49-1.13-.49-.42,0-.75.18-.99.54s-.35.88-.35,1.57.12,1.2.36,1.55c.24.34.58.52,1.02.52Z"/><path d="m257.26,367.36c-1.12,0-2-.31-2.64-.93-.63-.62-.95-1.5-.95-2.64s.29-2.08.88-2.71c.58-.64,1.39-.96,2.43-.96s1.76.28,2.3.84c.55.56.83,1.34.83,2.33v.92h-4.5c.02.54.18.96.48,1.27.3.3.72.46,1.26.46.42,0,.82-.04,1.19-.13.38-.09.77-.23,1.17-.42v1.47c-.33.17-.69.29-1.07.37s-.84.12-1.39.12Zm-.27-5.88c-.4,0-.72.13-.95.38-.23.26-.36.62-.39,1.09h2.67c0-.47-.13-.83-.37-1.09s-.56-.38-.96-.38Z"/><path d="m264.49,367.36c-2.17,0-3.26-1.19-3.26-3.58,0-1.19.3-2.09.89-2.72.59-.63,1.44-.94,2.54-.94.81,0,1.53.16,2.17.47l-.56,1.47c-.3-.12-.58-.22-.84-.3-.26-.08-.52-.12-.77-.12-.99,0-1.49.7-1.49,2.11s.5,2.05,1.49,2.05c.37,0,.71-.05,1.02-.15s.62-.25.94-.46v1.63c-.31.2-.62.33-.93.41s-.71.11-1.19.11Z"/><path d="m268.15,358.44c0-.62.35-.93,1.04-.93s1.04.31,1.04.93c0,.3-.09.53-.26.69-.17.17-.43.25-.78.25-.69,0-1.04-.31-1.04-.94Zm1.99,8.79h-1.91v-6.98h1.91v6.98Z"/><path d="m277.01,365.16c0,.72-.25,1.26-.75,1.64-.5.38-1.24.56-2.23.56-.51,0-.94-.03-1.3-.1-.36-.07-.69-.17-1.01-.3v-1.57c.35.17.75.31,1.2.42s.83.17,1.17.17c.69,0,1.04-.2,1.04-.6,0-.15-.05-.27-.14-.37-.09-.09-.25-.2-.48-.32-.22-.12-.52-.26-.9-.42-.54-.23-.93-.43-1.18-.62s-.43-.41-.55-.66c-.11-.25-.17-.55-.17-.92,0-.62.24-1.1.72-1.44.48-.34,1.16-.51,2.05-.51s1.66.18,2.46.55l-.58,1.38c-.35-.15-.68-.27-.98-.37s-.61-.14-.93-.14c-.56,0-.84.15-.84.46,0,.17.09.32.27.44.18.12.58.31,1.19.56.55.22.95.43,1.2.62s.44.41.56.66.18.55.18.89Z"/><path d="m282.93,367.23l-.37-.95h-.05c-.32.4-.65.68-.99.84-.34.16-.78.23-1.33.23-.67,0-1.2-.19-1.58-.58-.39-.38-.58-.93-.58-1.64s.26-1.29.78-1.64c.52-.35,1.3-.55,2.35-.58l1.21-.04v-.31c0-.71-.36-1.06-1.09-1.06-.56,0-1.21.17-1.97.51l-.63-1.29c.8-.42,1.7-.63,2.67-.63s1.66.2,2.16.61c.5.41.75,1.03.75,1.86v4.65h-1.33Zm-2.52-8.41c-.13,0-.25.06-.37.17-.12.11-.21.28-.26.5h-.93c.05-.6.22-1.08.52-1.42s.69-.51,1.18-.51c.17,0,.34.04.5.1.16.07.33.14.49.22.16.08.32.16.47.22.15.07.31.1.46.1.13,0,.25-.05.37-.16.12-.11.21-.27.26-.5h.93c-.05.6-.22,1.08-.52,1.42-.3.34-.7.51-1.18.51-.17,0-.34-.03-.5-.1-.17-.07-.33-.14-.49-.23s-.32-.16-.47-.22-.31-.1-.46-.1Zm1.96,5.17l-.74.02c-.55.02-.97.12-1.24.3-.27.18-.41.46-.41.84,0,.54.31.81.92.81.44,0,.79-.13,1.06-.38.26-.25.4-.59.4-1.01v-.57Z"/><path d="m292.57,363.73c0,1.14-.3,2.03-.9,2.67s-1.43.96-2.5.96c-.67,0-1.26-.15-1.77-.44-.51-.29-.91-.71-1.18-1.26-.28-.55-.41-1.19-.41-1.92,0-1.14.3-2.03.89-2.66s1.43-.95,2.51-.95c.67,0,1.26.15,1.77.44.51.29.91.71,1.18,1.26s.41,1.18.41,1.92Zm-4.83,0c0,.69.11,1.21.34,1.57.23.35.6.53,1.11.53s.87-.18,1.1-.53c.22-.35.33-.88.33-1.57s-.11-1.21-.34-1.56-.59-.52-1.11-.52-.88.17-1.1.52-.34.86-.34,1.56Z"/></g><g><path d="m82.08,358.28v-9.13h1.94v9.13h-1.94Z"/><path d="m92.42,358.28h-1.9v-4.08c0-.5-.08-.88-.25-1.13-.17-.25-.43-.38-.8-.38-.49,0-.84.18-1.06.54-.22.36-.33.95-.33,1.77v3.29h-1.91v-6.98h1.46l.26.89h.11c.19-.32.46-.57.81-.75.35-.18.76-.27,1.22-.27,1.05,0,1.75.34,2.12,1.02h.17c.19-.33.46-.58.83-.76.36-.18.78-.27,1.23-.27.79,0,1.39.2,1.8.61.41.41.61,1.06.61,1.95v4.55h-1.91v-4.08c0-.5-.08-.88-.25-1.13-.17-.25-.43-.38-.8-.38-.47,0-.81.17-1.05.5-.23.33-.35.86-.35,1.59v3.5Z"/><path d="m102.56,358.4c-.82,0-1.46-.3-1.93-.89h-.1c.07.58.1.92.1,1.01v2.83h-1.91v-10.06h1.55l.27.91h.09c.45-.69,1.11-1.04,1.98-1.04.82,0,1.47.32,1.94.96.47.64.7,1.52.7,2.66,0,.75-.11,1.39-.33,1.94s-.53.97-.93,1.26c-.4.29-.88.43-1.42.43Zm-.56-5.72c-.47,0-.81.14-1.03.43-.22.29-.33.77-.34,1.43v.21c0,.75.11,1.29.33,1.61s.58.49,1.06.49c.85,0,1.28-.7,1.28-2.11,0-.69-.11-1.2-.32-1.55-.21-.34-.54-.52-.99-.52Z"/><path d="m108.73,358.28h-1.91v-9.72h1.91v9.72Z"/><path d="m113.89,358.4c-1.12,0-2-.31-2.64-.93-.63-.62-.95-1.5-.95-2.64s.29-2.08.88-2.71c.58-.64,1.39-.96,2.43-.96s1.76.28,2.31.84.82,1.34.82,2.33v.92h-4.5c.02.54.18.96.48,1.27s.72.46,1.26.46c.42,0,.82-.04,1.19-.13.37-.09.77-.23,1.17-.42v1.47c-.33.17-.69.29-1.07.37s-.84.12-1.39.12Zm-.27-5.88c-.4,0-.72.13-.95.38s-.36.62-.39,1.09h2.67c0-.47-.13-.83-.37-1.09s-.56-.38-.96-.38Z"/><path d="m124.54,358.28h-1.9v-4.08c0-.5-.08-.88-.25-1.13-.17-.25-.43-.38-.8-.38-.49,0-.84.18-1.06.54-.22.36-.33.95-.33,1.77v3.29h-1.91v-6.98h1.46l.26.89h.11c.19-.32.46-.57.81-.75.35-.18.76-.27,1.22-.27,1.05,0,1.75.34,2.12,1.02h.17c.19-.33.46-.58.83-.76.36-.18.78-.27,1.23-.27.79,0,1.39.2,1.8.61.41.41.61,1.06.61,1.95v4.55h-1.91v-4.08c0-.5-.08-.88-.25-1.13-.17-.25-.43-.38-.8-.38-.47,0-.81.17-1.05.5-.23.33-.35.86-.35,1.59v3.5Z"/><path d="m134.01,358.4c-1.12,0-2-.31-2.64-.93-.63-.62-.95-1.5-.95-2.64s.29-2.08.88-2.71c.58-.64,1.39-.96,2.43-.96s1.76.28,2.31.84.82,1.34.82,2.33v.92h-4.5c.02.54.18.96.48,1.27s.72.46,1.26.46c.42,0,.82-.04,1.19-.13.37-.09.77-.23,1.17-.42v1.47c-.33.17-.69.29-1.07.37s-.84.12-1.39.12Zm-.27-5.88c-.4,0-.72.13-.95.38s-.36.62-.39,1.09h2.67c0-.47-.13-.83-.37-1.09s-.56-.38-.96-.38Z"/><path d="m144.85,358.28h-1.91v-4.08c0-.5-.09-.88-.27-1.13s-.46-.38-.86-.38c-.53,0-.92.18-1.16.53-.24.36-.36.95-.36,1.77v3.29h-1.91v-6.98h1.46l.26.89h.11c.21-.34.5-.59.88-.77s.8-.26,1.27-.26c.81,0,1.43.22,1.85.66.42.44.63,1.07.63,1.9v4.55Z"/><path d="m149.75,356.88c.33,0,.73-.07,1.2-.22v1.42c-.47.21-1.06.32-1.75.32-.76,0-1.32-.19-1.66-.58-.35-.38-.52-.96-.52-1.73v-3.37h-.91v-.81l1.05-.64.55-1.47h1.22v1.49h1.96v1.43h-1.96v3.37c0,.27.08.47.23.6.15.13.35.19.6.19Z"/><path d="m156.8,358.28l-.37-.95h-.05c-.32.4-.65.68-.99.84s-.78.23-1.33.23c-.67,0-1.2-.19-1.58-.58-.39-.38-.58-.93-.58-1.64s.26-1.29.78-1.64c.52-.35,1.3-.55,2.35-.58l1.21-.04v-.31c0-.71-.36-1.06-1.09-1.06-.56,0-1.21.17-1.97.51l-.63-1.29c.8-.42,1.69-.63,2.67-.63s1.66.2,2.15.61c.5.41.75,1.03.75,1.86v4.65h-1.33Zm-.56-3.24l-.74.02c-.55.02-.97.12-1.24.3-.27.18-.41.46-.41.84,0,.54.31.81.92.81.44,0,.79-.13,1.06-.38.26-.25.4-.59.4-1.01v-.57Z"/><path d="m162.93,358.4c-2.17,0-3.26-1.19-3.26-3.58,0-1.19.3-2.09.89-2.72.59-.63,1.44-.94,2.54-.94.81,0,1.53.16,2.17.47l-.56,1.47c-.3-.12-.58-.22-.84-.3-.26-.08-.52-.12-.77-.12-.99,0-1.49.7-1.49,2.11s.5,2.05,1.49,2.05c.37,0,.71-.05,1.02-.15.31-.1.62-.25.94-.46v1.63c-.31.2-.62.33-.93.41s-.71.11-1.19.11Zm1.19,1.44c0,.53-.16.92-.47,1.16s-.8.36-1.46.36c-.32,0-.63-.04-.91-.13v-1.05c.11.03.26.06.45.09.19.03.34.04.44.04.3,0,.45-.13.45-.39,0-.35-.35-.57-1.04-.67l.49-.96h1.21l-.17.38c.31.1.55.25.74.47.18.21.27.45.27.71Z"/><path d="m171.11,358.28l-.37-.95h-.05c-.32.4-.65.68-.99.84s-.78.23-1.33.23c-.67,0-1.2-.19-1.58-.58-.39-.38-.58-.93-.58-1.64s.26-1.29.78-1.64c.52-.35,1.3-.55,2.35-.58l1.21-.04v-.31c0-.71-.36-1.06-1.09-1.06-.56,0-1.21.17-1.97.51l-.63-1.29c.8-.42,1.69-.63,2.67-.63s1.66.2,2.15.61c.5.41.75,1.03.75,1.86v4.65h-1.33Zm-2.52-8.41c-.13,0-.25.06-.37.17s-.21.28-.26.5h-.93c.05-.6.22-1.08.52-1.42.3-.34.69-.51,1.18-.51.17,0,.34.04.5.1s.33.14.49.22c.16.08.32.16.47.22.15.07.31.1.46.1.13,0,.25-.05.37-.16s.21-.27.26-.5h.93c-.05.6-.22,1.08-.52,1.42-.3.34-.69.51-1.18.51-.17,0-.34-.03-.5-.1-.16-.07-.33-.14-.49-.23s-.32-.16-.47-.22-.31-.1-.46-.1Zm1.96,5.17l-.74.02c-.55.02-.97.12-1.24.3-.27.18-.41.46-.41.84,0,.54.31.81.92.81.44,0,.79-.13,1.06-.38.26-.25.4-.59.4-1.01v-.57Z"/><path d="m180.74,354.77c0,1.14-.3,2.03-.9,2.67s-1.43.96-2.5.96c-.67,0-1.26-.15-1.77-.44s-.91-.71-1.18-1.26-.41-1.19-.41-1.92c0-1.14.3-2.03.89-2.66.6-.63,1.43-.95,2.51-.95.67,0,1.26.15,1.77.44.51.29.91.71,1.18,1.26s.41,1.18.41,1.92Zm-4.83,0c0,.69.11,1.21.34,1.57.23.35.6.53,1.11.53s.87-.18,1.1-.53c.22-.35.33-.88.33-1.57s-.11-1.21-.34-1.56c-.22-.35-.59-.52-1.11-.52s-.87.17-1.1.52c-.22.34-.34.86-.34,1.56Z"/></g><g><path d="m34.04,221.82l-.66-2.17h-3.33l-.66,2.17h-2.09l3.22-9.17h2.37l3.24,9.17h-2.09Zm-1.12-3.8c-.61-1.97-.96-3.08-1.03-3.34-.08-.26-.13-.46-.17-.61-.14.53-.53,1.85-1.18,3.95h2.38Z"/><path d="m38.79,221.82l-2.66-6.98h1.99l1.35,3.98c.15.5.24.98.28,1.43h.04c.02-.4.11-.88.28-1.43l1.34-3.98h1.99l-2.66,6.98h-1.96Z"/><path d="m48.84,221.82l-.37-.95h-.05c-.32.4-.65.68-.99.84s-.78.23-1.33.23c-.67,0-1.2-.19-1.58-.58-.39-.38-.58-.93-.58-1.64s.26-1.29.78-1.64c.52-.35,1.3-.55,2.35-.58l1.21-.04v-.31c0-.71-.36-1.06-1.09-1.06-.56,0-1.21.17-1.97.51l-.63-1.29c.8-.42,1.69-.63,2.67-.63s1.66.2,2.15.61c.5.41.75,1.03.75,1.86v4.65h-1.33Zm-.56-3.24l-.74.02c-.55.02-.97.12-1.24.3-.27.18-.41.46-.41.84,0,.54.31.81.92.81.44,0,.79-.13,1.06-.38.26-.25.4-.59.4-1.01v-.57Z"/><path d="m54.04,221.82h-1.91v-9.72h1.91v9.72Z"/><path d="m55.96,213.03c0-.62.35-.93,1.04-.93s1.04.31,1.04.93c0,.3-.09.53-.26.69-.17.17-.43.25-.78.25-.69,0-1.04-.31-1.04-.94Zm1.99,8.79h-1.91v-6.98h1.91v6.98Z"/><path d="m64.38,221.82l-.37-.95h-.05c-.32.4-.65.68-.99.84s-.78.23-1.33.23c-.67,0-1.2-.19-1.58-.58-.39-.38-.58-.93-.58-1.64s.26-1.29.78-1.64c.52-.35,1.3-.55,2.35-.58l1.21-.04v-.31c0-.71-.36-1.06-1.09-1.06-.56,0-1.21.17-1.97.51l-.63-1.29c.8-.42,1.69-.63,2.67-.63s1.66.2,2.15.61c.5.41.75,1.03.75,1.86v4.65h-1.33Zm-.56-3.24l-.74.02c-.55.02-.97.12-1.24.3-.27.18-.41.46-.41.84,0,.54.31.81.92.81.44,0,.79-.13,1.06-.38.26-.25.4-.59.4-1.01v-.57Z"/><path d="m70.51,221.95c-2.17,0-3.26-1.19-3.26-3.58,0-1.19.3-2.09.89-2.72.59-.63,1.44-.94,2.54-.94.81,0,1.53.16,2.17.47l-.56,1.47c-.3-.12-.58-.22-.84-.3-.26-.08-.52-.12-.77-.12-.99,0-1.49.7-1.49,2.11s.5,2.05,1.49,2.05c.37,0,.71-.05,1.02-.15.31-.1.62-.25.94-.46v1.63c-.31.2-.62.33-.93.41s-.71.11-1.19.11Zm1.19,1.44c0,.53-.16.92-.47,1.16s-.8.36-1.46.36c-.32,0-.63-.04-.91-.13v-1.05c.11.03.26.06.45.09.19.03.34.04.44.04.3,0,.45-.13.45-.39,0-.35-.35-.57-1.04-.67l.49-.96h1.21l-.17.38c.31.1.55.25.74.47.18.21.27.45.27.71Z"/><path d="m78.68,221.82l-.37-.95h-.05c-.32.4-.65.68-.99.84s-.78.23-1.33.23c-.67,0-1.2-.19-1.58-.58-.39-.38-.58-.93-.58-1.64s.26-1.29.78-1.64c.52-.35,1.3-.55,2.35-.58l1.21-.04v-.31c0-.71-.36-1.06-1.09-1.06-.56,0-1.21.17-1.97.51l-.63-1.29c.8-.42,1.69-.63,2.67-.63s1.66.2,2.15.61c.5.41.75,1.03.75,1.86v4.65h-1.33Zm-2.52-8.41c-.13,0-.25.06-.37.17s-.21.28-.26.5h-.93c.05-.6.22-1.08.52-1.42.3-.34.69-.51,1.18-.51.17,0,.34.04.5.1s.33.14.49.22c.16.08.32.16.47.22.15.07.31.1.46.1.13,0,.25-.05.37-.16s.21-.27.26-.5h.93c-.05.6-.22,1.08-.52,1.42-.3.34-.69.51-1.18.51-.17,0-.34-.03-.5-.1-.16-.07-.33-.14-.49-.23s-.32-.16-.47-.22-.31-.1-.46-.1Zm1.96,5.17l-.74.02c-.55.02-.97.12-1.24.3-.27.18-.41.46-.41.84,0,.54.31.81.92.81.44,0,.79-.13,1.06-.38.26-.25.4-.59.4-1.01v-.57Z"/><path d="m88.32,218.32c0,1.14-.3,2.03-.9,2.67s-1.43.96-2.5.96c-.67,0-1.26-.15-1.77-.44s-.91-.71-1.18-1.26-.41-1.19-.41-1.92c0-1.14.3-2.03.89-2.66.6-.63,1.43-.95,2.51-.95.67,0,1.26.15,1.77.44.51.29.91.71,1.18,1.26s.41,1.18.41,1.92Zm-4.83,0c0,.69.11,1.21.34,1.57.23.35.6.53,1.11.53s.87-.18,1.1-.53c.22-.35.33-.88.33-1.57s-.11-1.21-.34-1.56c-.22-.35-.59-.52-1.11-.52s-.87.17-1.1.52c-.22.34-.34.86-.34,1.56Z"/></g></g><g><path d="m68.67,6.71c0,1.42-.35,2.51-1.05,3.27s-1.71,1.14-3.02,1.14-2.32-.38-3.02-1.14-1.05-1.86-1.05-3.28.35-2.51,1.06-3.27,1.72-1.13,3.03-1.13,2.32.38,3.02,1.14,1.05,1.85,1.05,3.27Zm-6.25,0c0,.96.18,1.68.54,2.16s.91.73,1.63.73c1.45,0,2.17-.96,2.17-2.89s-.72-2.89-2.16-2.89c-.72,0-1.27.24-1.63.73s-.55,1.21-.55,2.17Z"/><path d="m76.08,11.12c-2.04,0-3.06-1.12-3.06-3.36,0-1.11.28-1.96.83-2.55s1.35-.88,2.38-.88c.76,0,1.44.15,2.04.45l-.53,1.38c-.28-.11-.54-.21-.79-.28s-.48-.11-.73-.11c-.93,0-1.39.66-1.39,1.98s.46,1.92,1.39,1.92c.34,0,.66-.05.96-.14s.59-.24.88-.43v1.53c-.29.18-.58.31-.88.38s-.67.11-1.12.11Z"/><path d="m79.52,2.76c0-.58.32-.87.97-.87s.97.29.97.87c0,.28-.08.49-.24.65s-.41.23-.73.23c-.65,0-.97-.29-.97-.88Zm1.86,8.24h-1.79v-6.55h1.79v6.55Z"/><path d="m85.92,11.12c-2.04,0-3.06-1.12-3.06-3.36,0-1.11.28-1.96.83-2.55s1.35-.88,2.38-.88c.76,0,1.44.15,2.04.45l-.53,1.38c-.28-.11-.54-.21-.79-.28s-.48-.11-.73-.11c-.93,0-1.39.66-1.39,1.98s.46,1.92,1.39,1.92c.34,0,.66-.05.96-.14s.59-.24.88-.43v1.53c-.29.18-.58.31-.88.38s-.67.11-1.12.11Z"/><path d="m91.21,11h-1.79V1.88h1.79v9.12Z"/><path d="m99.04,7.71c0,1.07-.28,1.9-.84,2.5s-1.35.9-2.35.9c-.63,0-1.18-.14-1.66-.41s-.85-.67-1.11-1.19-.39-1.12-.39-1.8c0-1.07.28-1.9.84-2.5s1.34-.89,2.36-.89c.63,0,1.18.14,1.66.41s.85.67,1.11,1.18.39,1.11.39,1.8Zm-4.53,0c0,.65.11,1.14.32,1.47s.56.5,1.04.5.82-.17,1.03-.5.31-.82.31-1.47-.11-1.13-.32-1.46-.56-.49-1.04-.49-.82.16-1.03.48-.32.81-.32,1.46Z"/><path d="m105.71,11.12c-.77,0-1.37-.3-1.81-.9s-.66-1.43-.66-2.48.22-1.91.67-2.51,1.06-.9,1.85-.9c.82,0,1.45.32,1.89.96h.06c-.09-.49-.13-.92-.13-1.31V1.88h1.79v9.12h-1.37l-.35-.85h-.08c-.41.64-1.03.97-1.86.97Zm.63-1.42c.46,0,.79-.13,1-.4s.33-.72.35-1.35v-.19c0-.7-.11-1.21-.33-1.51s-.57-.46-1.06-.46c-.4,0-.71.17-.93.51s-.33.83-.33,1.47.11,1.13.33,1.45.54.48.96.48Z"/><path d="m115.39,11l-.35-.89h-.05c-.3.38-.61.64-.93.79s-.73.22-1.25.22c-.63,0-1.12-.18-1.49-.54s-.54-.87-.54-1.54.24-1.21.73-1.54,1.22-.51,2.2-.55l1.14-.04v-.29c0-.66-.34-1-1.02-1-.52,0-1.14.16-1.85.47l-.59-1.21c.75-.39,1.59-.59,2.51-.59s1.55.19,2.02.57.7.96.7,1.75v4.37h-1.25Zm-.53-3.04l-.69.02c-.52.02-.91.11-1.16.28s-.38.43-.38.79c0,.5.29.76.87.76.41,0,.75-.12.99-.36s.37-.55.37-.95v-.54Z"/><path d="m125.19,11.12c-.77,0-1.37-.28-1.81-.84h-.09c.06.55.09.86.09.95v2.65h-1.79V4.45h1.45l.25.85h.08c.42-.65,1.04-.97,1.86-.97.77,0,1.38.3,1.82.9s.66,1.43.66,2.49c0,.7-.1,1.31-.31,1.82s-.5.91-.88,1.18-.82.4-1.34.4Zm-.53-5.36c-.44,0-.76.14-.97.41s-.31.72-.32,1.34v.19c0,.7.1,1.21.31,1.51s.54.46.99.46c.8,0,1.2-.66,1.2-1.98,0-.64-.1-1.13-.3-1.45s-.51-.48-.93-.48Z"/><path d="m135.14,7.71c0,1.07-.28,1.9-.84,2.5s-1.35.9-2.35.9c-.63,0-1.18-.14-1.66-.41s-.85-.67-1.11-1.19-.39-1.12-.39-1.8c0-1.07.28-1.9.84-2.5s1.34-.89,2.36-.89c.63,0,1.18.14,1.66.41s.85.67,1.11,1.18.39,1.11.39,1.8Zm-4.53,0c0,.65.11,1.14.32,1.47s.56.5,1.04.5.82-.17,1.03-.5.31-.82.31-1.47-.11-1.13-.32-1.46-.56-.49-1.04-.49-.82.16-1.03.48-.32.81-.32,1.46Z"/><path d="m138.4,11h-1.79V1.88h1.79v9.12Z"/><path d="m140.19,3.73v-.16c.67-.78,1.13-1.37,1.38-1.76h2v.12c-.2.2-.55.5-1.04.91s-.87.7-1.15.89h-1.19Zm1.88,7.27h-1.79v-6.55h1.79v6.55Z"/><path d="m146.7,9.69c.31,0,.69-.07,1.12-.21v1.33c-.45.2-.99.3-1.64.3-.71,0-1.24-.18-1.56-.54s-.49-.9-.49-1.63v-3.16h-.86v-.76l.98-.6.52-1.38h1.14v1.39h1.83v1.34h-1.83v3.16c0,.25.07.44.21.56s.33.18.57.18Z"/><path d="m149.07,2.76c0-.58.32-.87.97-.87s.97.29.97.87c0,.28-.08.49-.24.65s-.41.23-.73.23c-.65,0-.97-.29-.97-.88Zm1.86,8.24h-1.79v-6.55h1.79v6.55Z"/><path d="m155.47,11.12c-2.04,0-3.06-1.12-3.06-3.36,0-1.11.28-1.96.83-2.55s1.35-.88,2.38-.88c.76,0,1.44.15,2.04.45l-.53,1.38c-.28-.11-.54-.21-.79-.28s-.48-.11-.73-.11c-.93,0-1.39.66-1.39,1.98s.46,1.92,1.39,1.92c.34,0,.66-.05.96-.14s.59-.24.88-.43v1.53c-.29.18-.58.31-.88.38s-.67.11-1.12.11Z"/><path d="m163.14,11l-.35-.89h-.05c-.3.38-.61.64-.93.79s-.73.22-1.25.22c-.63,0-1.12-.18-1.49-.54s-.54-.87-.54-1.54.24-1.21.73-1.54,1.22-.51,2.2-.55l1.14-.04v-.29c0-.66-.34-1-1.02-1-.52,0-1.14.16-1.85.47l-.59-1.21c.75-.39,1.59-.59,2.51-.59s1.55.19,2.02.57.7.96.7,1.75v4.37h-1.25Zm-.53-3.04l-.69.02c-.52.02-.91.11-1.16.28s-.38.43-.38.79c0,.5.29.76.87.76.41,0,.75-.12.99-.36s.37-.55.37-.95v-.54Z"/><path d="m173.92,9.05c0,.67-.23,1.18-.7,1.54s-1.17.53-2.09.53c-.48,0-.88-.03-1.22-.1s-.65-.16-.94-.28v-1.48c.33.16.71.29,1.12.39s.78.16,1.1.16c.65,0,.97-.19.97-.56,0-.14-.04-.25-.13-.34s-.23-.19-.45-.3-.49-.24-.84-.39c-.5-.21-.87-.41-1.11-.59s-.41-.39-.52-.62-.16-.52-.16-.86c0-.58.23-1.03.68-1.35s1.09-.48,1.92-.48,1.56.17,2.3.52l-.54,1.29c-.33-.14-.63-.26-.92-.35s-.58-.13-.87-.13c-.53,0-.79.14-.79.43,0,.16.08.3.25.42s.54.29,1.12.52c.51.21.89.4,1.12.58s.41.39.53.62.17.51.17.84Z"/><path d="m178.28,11.12c-1.05,0-1.88-.29-2.47-.87s-.89-1.41-.89-2.47.27-1.95.82-2.55,1.31-.9,2.28-.9,1.65.26,2.16.79.77,1.26.77,2.19v.87h-4.22c.02.51.17.9.45,1.19s.68.43,1.18.43c.39,0,.77-.04,1.12-.12s.72-.21,1.1-.39v1.38c-.31.16-.65.27-1,.35s-.79.11-1.3.11Zm-.25-5.52c-.38,0-.68.12-.89.36s-.34.58-.37,1.02h2.51c0-.44-.12-.78-.35-1.02s-.52-.36-.9-.36Z"/><path d="m188.1,4.45v.91l-1.03.26c.19.29.28.62.28.98,0,.7-.25,1.25-.74,1.64s-1.17.59-2.04.59l-.32-.02-.26-.03c-.18.14-.28.3-.28.47,0,.26.33.39.98.39h1.11c.72,0,1.27.15,1.64.46s.57.76.57,1.36c0,.77-.32,1.36-.96,1.78s-1.56.63-2.75.63c-.91,0-1.61-.16-2.09-.48s-.72-.76-.72-1.34c0-.39.12-.72.37-.99s.61-.46,1.08-.57c-.18-.08-.34-.21-.48-.38s-.21-.37-.21-.57c0-.25.07-.46.22-.62s.35-.33.63-.49c-.34-.15-.62-.39-.82-.71s-.3-.71-.3-1.16c0-.71.23-1.27.7-1.66s1.13-.59,1.99-.59c.18,0,.4.02.65.05s.41.06.48.07h2.29Zm-5.06,7.48c0,.25.12.44.35.58s.57.21.99.21c.64,0,1.14-.09,1.51-.26s.54-.42.54-.72c0-.25-.11-.42-.32-.51s-.55-.14-1-.14h-.93c-.33,0-.6.08-.82.23s-.33.36-.33.61Zm.65-5.33c0,.36.08.64.24.84s.41.31.74.31.58-.1.74-.31.23-.49.23-.84c0-.79-.32-1.18-.97-1.18s-.98.39-.98,1.18Z"/><path d="m193.82,11l-.24-.84h-.09c-.19.3-.46.54-.81.71s-.75.25-1.2.25c-.77,0-1.35-.21-1.74-.62s-.59-1-.59-1.78v-4.27h1.79v3.83c0,.47.08.83.25,1.06s.44.35.8.35c.5,0,.86-.17,1.08-.5s.33-.89.33-1.66v-3.08h1.79v6.55h-1.37Z"/><path d="m203.11,11h-1.79v-3.83c0-.47-.08-.83-.25-1.06s-.44-.35-.8-.35c-.5,0-.86.17-1.08.5s-.33.89-.33,1.66v3.08h-1.79v-6.55h1.37l.24.84h.1c.2-.32.47-.56.82-.72s.75-.24,1.19-.24c.76,0,1.34.21,1.73.62s.59,1.01.59,1.78v4.27Z"/><path d="m207.03,11.12c-.77,0-1.37-.3-1.81-.9s-.66-1.43-.66-2.48.22-1.91.67-2.51,1.06-.9,1.85-.9c.82,0,1.45.32,1.89.96h.06c-.09-.49-.13-.92-.13-1.31V1.88h1.79v9.12h-1.37l-.35-.85h-.08c-.41.64-1.03.97-1.86.97Zm.63-1.42c.46,0,.79-.13,1-.4s.33-.72.35-1.35v-.19c0-.7-.11-1.21-.33-1.51s-.57-.46-1.06-.46c-.4,0-.71.17-.93.51s-.33.83-.33,1.47.11,1.13.33,1.45.54.48.96.48Z"/><path d="m218.5,7.71c0,1.07-.28,1.9-.84,2.5s-1.35.9-2.35.9c-.63,0-1.18-.14-1.66-.41s-.85-.67-1.11-1.19-.39-1.12-.39-1.8c0-1.07.28-1.9.84-2.5s1.34-.89,2.36-.89c.63,0,1.18.14,1.66.41s.85.67,1.11,1.18.39,1.11.39,1.8Zm-4.53,0c0,.65.11,1.14.32,1.47s.56.5,1.04.5.82-.17,1.03-.5.31-.82.31-1.47-.11-1.13-.32-1.46-.56-.49-1.04-.49-.82.16-1.03.48-.32.81-.32,1.46Z"/><path d="m230.25,11h-1.81v-3.7h-3.39v3.7h-1.82V2.43h1.82v3.36h3.39v-3.36h1.81v8.57Z"/><path d="m238.23,7.71c0,1.07-.28,1.9-.84,2.5s-1.35.9-2.35.9c-.63,0-1.18-.14-1.66-.41s-.85-.67-1.11-1.19-.39-1.12-.39-1.8c0-1.07.28-1.9.84-2.5s1.34-.89,2.36-.89c.63,0,1.18.14,1.66.41s.85.67,1.11,1.18.39,1.11.39,1.8Zm-4.53,0c0,.65.11,1.14.32,1.47s.56.5,1.04.5.82-.17,1.03-.5.31-.82.31-1.47-.11-1.13-.32-1.46-.56-.49-1.04-.49-.82.16-1.03.48-.32.81-.32,1.46Z"/><path d="m245.09,11l-.5-2.29-.68-2.89h-.04l-1.2,5.19h-1.92l-1.86-6.55h1.78l.76,2.9c.12.52.24,1.24.37,2.15h.04c.02-.3.08-.77.21-1.41l.09-.5.81-3.14h1.97l.77,3.14c.02.09.04.21.07.38s.07.35.1.54.06.38.08.56.04.33.04.44h.04c.04-.28.1-.67.19-1.16s.15-.82.19-.99l.79-2.9h1.75l-1.89,6.55h-1.95Z"/><path d="m251.76,11h-1.79V1.88h1.79v9.12Z"/><path d="m256.6,11.12c-1.05,0-1.88-.29-2.47-.87s-.89-1.41-.89-2.47.27-1.95.82-2.55,1.31-.9,2.28-.9,1.65.26,2.16.79.77,1.26.77,2.19v.87h-4.22c.02.51.17.9.45,1.19s.68.43,1.18.43c.39,0,.77-.04,1.12-.12s.72-.21,1.1-.39v1.38c-.31.16-.65.27-1,.35s-.79.11-1.3.11Zm-.25-5.52c-.38,0-.68.12-.89.36s-.34.58-.37,1.02h2.51c0-.44-.12-.78-.35-1.02s-.52-.36-.9-.36Z"/><path d="m263.49,9.69c.31,0,.69-.07,1.12-.21v1.33c-.45.2-.99.3-1.64.3-.71,0-1.24-.18-1.56-.54s-.49-.9-.49-1.63v-3.16h-.86v-.76l.98-.6.52-1.38h1.14v1.39h1.83v1.34h-1.83v3.16c0,.25.07.44.21.56s.33.18.57.18Z"/><path d="m268.7,9.69c.31,0,.69-.07,1.12-.21v1.33c-.45.2-.99.3-1.64.3-.71,0-1.24-.18-1.56-.54s-.49-.9-.49-1.63v-3.16h-.86v-.76l.98-.6.52-1.38h1.14v1.39h1.83v1.34h-1.83v3.16c0,.25.07.44.21.56s.33.18.57.18Z"/><path d="m277.23,11.12c-1.05,0-1.88-.29-2.47-.87s-.89-1.41-.89-2.47.27-1.95.82-2.55,1.31-.9,2.28-.9,1.65.26,2.16.79.77,1.26.77,2.19v.87h-4.22c.02.51.17.9.45,1.19s.68.43,1.18.43c.39,0,.77-.04,1.12-.12s.72-.21,1.1-.39v1.38c-.31.16-.65.27-1,.35s-.79.11-1.3.11Zm-.25-5.52c-.38,0-.68.12-.89.36s-.34.58-.37,1.02h2.51c0-.44-.12-.78-.35-1.02s-.52-.36-.9-.36Z"/><path d="m286.43,7.71v3.29h-1.82V2.43h2.5c1.16,0,2.03.21,2.58.64s.84,1.07.84,1.93c0,.5-.14.95-.42,1.34s-.67.7-1.18.92c1.29,1.93,2.13,3.17,2.52,3.73h-2.02l-2.04-3.29h-.97Zm0-1.48h.59c.57,0,1-.1,1.27-.29s.41-.49.41-.9-.14-.7-.42-.87-.71-.26-1.3-.26h-.55v2.31Z"/><path d="m296.55,11l-.35-.89h-.05c-.3.38-.61.64-.93.79s-.73.22-1.25.22c-.63,0-1.12-.18-1.49-.54s-.54-.87-.54-1.54.24-1.21.73-1.54,1.22-.51,2.2-.55l1.14-.04v-.29c0-.66-.34-1-1.02-1-.52,0-1.14.16-1.85.47l-.59-1.21c.75-.39,1.59-.59,2.51-.59s1.55.19,2.02.57.7.96.7,1.75v4.37h-1.25Zm-.53-3.04l-.69.02c-.52.02-.91.11-1.16.28s-.38.43-.38.79c0,.5.29.76.87.76.41,0,.75-.12.99-.36s.37-.55.37-.95v-.54Z"/><path d="m305.51,11h-1.79v-3.83c0-.47-.08-.83-.24-1.06s-.41-.35-.75-.35c-.46,0-.79.17-1,.5s-.31.89-.31,1.66v3.08h-1.79v-6.55h1.37l.24.84h.1c.18-.3.43-.54.76-.71s.71-.25,1.14-.25c.98,0,1.64.32,1.99.96h.16c.18-.3.43-.54.78-.71s.73-.25,1.16-.25c.74,0,1.3.19,1.69.57.38.38.57.99.57,1.83v4.27h-1.79v-3.83c0-.47-.08-.83-.24-1.06s-.41-.35-.75-.35c-.44,0-.76.16-.98.47s-.33.81-.33,1.49v3.29Z"/><path d="m314.39,11.12c-1.05,0-1.88-.29-2.47-.87s-.89-1.41-.89-2.47.27-1.95.82-2.55,1.31-.9,2.28-.9,1.65.26,2.16.79.77,1.26.77,2.19v.87h-4.22c.02.51.17.9.45,1.19s.68.43,1.18.43c.39,0,.77-.04,1.12-.12s.72-.21,1.1-.39v1.38c-.31.16-.65.27-1,.35s-.79.11-1.3.11Zm-.25-5.52c-.38,0-.68.12-.89.36s-.34.58-.37,1.02h2.51c0-.44-.12-.78-.35-1.02s-.52-.36-.9-.36Z"/><path d="m323.09,9.05c0,.67-.23,1.18-.7,1.54s-1.17.53-2.09.53c-.48,0-.88-.03-1.22-.1s-.65-.16-.94-.28v-1.48c.33.16.71.29,1.12.39s.78.16,1.1.16c.65,0,.97-.19.97-.56,0-.14-.04-.25-.13-.34s-.23-.19-.45-.3-.49-.24-.84-.39c-.5-.21-.87-.41-1.11-.59s-.41-.39-.52-.62-.16-.52-.16-.86c0-.58.23-1.03.68-1.35s1.09-.48,1.92-.48,1.56.17,2.3.52l-.54,1.29c-.33-.14-.63-.26-.92-.35s-.58-.13-.87-.13c-.53,0-.79.14-.79.43,0,.16.08.3.25.42s.54.29,1.12.52c.51.21.89.4,1.12.58s.41.39.53.62.17.51.17.84Z"/><path d="m330.53,11h-1.79v-3.83c0-.95-.35-1.42-1.05-1.42-.5,0-.86.17-1.08.51s-.33.89-.33,1.65v3.08h-1.79V1.88h1.79v1.86c0,.14-.01.48-.04,1.02l-.04.53h.09c.4-.64,1.03-.96,1.9-.96.77,0,1.35.21,1.75.62s.6,1.01.6,1.78v4.27Z"/></g></svg>