<?xml version="1.0" encoding="UTF-8"?><svg id="Camada_1" xmlns="http://www.w3.org/2000/svg" viewBox="0 0 641 232"><defs><style>.cls-1{fill:#b2d1ff;}.cls-2{fill:#fff;}.cls-3{fill:#016dae;}.cls-4{fill:#328b92;}.cls-5{fill:#abd1dc;}.cls-6{fill:#47b5c3;}.cls-7{fill:#7097a8;}</style></defs><path class="cls-7" d="m303.24,136.56v-11.73c0-8.91,1.82-16.44,5.46-22.58,3.64-6.14,10.09-12.12,19.37-17.94,7.37-4.64,12.66-8.82,15.89-12.55,3.23-3.73,4.84-8,4.84-12.82,0-3.82-1.73-6.84-5.18-9.07-3.46-2.23-7.96-3.34-13.5-3.34-13.73,0-29.78,4.87-48.15,14.6l-18.96-37.1c22.64-12.91,46.29-19.37,70.93-19.37,20.28,0,36.19,4.46,47.74,13.37,11.55,8.91,17.32,21.05,17.32,36.42,0,11-2.57,20.53-7.71,28.58-5.14,8.05-13.35,15.67-24.62,22.85-9.55,6.19-15.53,10.71-17.94,13.57-2.41,2.86-3.61,6.25-3.61,10.16v6.96h-41.88Zm-5.87,47.74c0-8.37,2.43-14.82,7.3-19.37,4.86-4.55,12.03-6.82,21.48-6.82s16.07,2.3,20.94,6.89c4.86,4.59,7.3,11.03,7.3,19.3s-2.52,14.69-7.57,19.23-11.94,6.82-20.67,6.82-16.05-2.25-21.14-6.75c-5.09-4.5-7.64-10.93-7.64-19.3Z"/><circle class="cls-4" cx="300" cy="30" r="15"/><circle class="cls-6" cx="359" cy="27" r="15"/><circle class="cls-5" cx="363" cy="80" r="15"/><circle class="cls-1" cx="326" cy="115" r="15"/><path id="Caminho_16186" class="cls-3" d="m433.17,43.46c-2.79-6.76-6.05-13.32-9.76-19.62l34.84,7.13-19.38,29.03c-1.57-5.62-3.47-11.14-5.69-16.54Z"/><path id="Caminho_16186-2" class="cls-3" d="m433.17,188.38c-2.79,6.76-6.05,13.32-9.76,19.62l34.84-7.13-19.38-29.03c-1.57,5.62-3.47,11.14-5.69,16.54Z"/><path id="Caminho_16186-3" class="cls-3" d="m213.48,43.46c2.79-6.76,6.05-13.32,9.76-19.62l-34.84,7.13,19.38,29.03c1.57-5.62,3.47-11.14,5.69-16.54Z"/><path id="Caminho_16186-4" class="cls-3" d="m213.48,188.38c2.79,6.76,6.05,13.32,9.76,19.62l-34.84-7.13,19.38-29.03c1.57,5.62,3.47,11.14,5.69,16.54Z"/><rect class="cls-4" width="158" height="70"/><g><path d="m16.65,11.55v5.54c0,.98-.29,1.74-.88,2.3s-1.4.84-2.43.84-1.83-.28-2.39-.84-.85-1.34-.85-2.32v-5.52h1v5.59c0,.71.2,1.26.59,1.65s.96.57,1.72.57,1.28-.19,1.67-.58.59-.94.59-1.66v-5.58h1Z"/><path d="m26.95,20.12v-4.18c0-.51-.11-.9-.33-1.15s-.56-.38-1.02-.38c-.61,0-1.05.17-1.34.52s-.43.88-.43,1.61v3.59h-.97v-4.18c0-.51-.11-.9-.33-1.15s-.56-.38-1.03-.38c-.61,0-1.06.18-1.34.55s-.42.96-.42,1.8v3.37h-.97v-6.42h.79l.16.88h.05c.18-.31.44-.56.78-.73s.71-.26,1.12-.26c1,0,1.66.36,1.97,1.09h.05c.19-.34.47-.6.83-.8s.78-.29,1.24-.29c.73,0,1.27.19,1.63.56s.54.97.54,1.79v4.19h-.97Z"/><path d="m36.04,20.24c-.42,0-.8-.08-1.15-.23s-.64-.39-.87-.71h-.07c.05.38.07.73.07,1.07v2.64h-.97v-9.3h.79l.13.88h.05c.25-.35.54-.61.87-.76s.71-.23,1.14-.23c.85,0,1.51.29,1.97.87s.69,1.4.69,2.45-.24,1.87-.71,2.46-1.12.88-1.96.88Zm-.14-5.83c-.66,0-1.13.18-1.42.54s-.44.94-.45,1.73v.22c0,.9.15,1.55.45,1.94s.78.58,1.45.58c.55,0,.99-.22,1.3-.67s.47-1.07.47-1.86-.16-1.42-.47-1.84-.76-.64-1.33-.64Z"/><path d="m43.33,13.58c.29,0,.54.02.77.07l-.13.9c-.27-.06-.5-.09-.7-.09-.52,0-.96.21-1.33.63s-.55.95-.55,1.58v3.45h-.97v-6.42h.8l.11,1.19h.05c.24-.42.53-.74.86-.97s.71-.34,1.11-.34Z"/><path d="m50.84,16.9c0,1.05-.26,1.86-.79,2.45s-1.26.88-2.19.88c-.57,0-1.08-.13-1.53-.4s-.79-.66-1.03-1.16-.36-1.09-.36-1.77c0-1.05.26-1.86.79-2.45s1.25-.88,2.18-.88,1.61.3,2.14.9.79,1.41.79,2.43Zm-4.89,0c0,.82.16,1.45.49,1.88s.81.64,1.45.64,1.12-.21,1.45-.64.5-1.05.5-1.88-.17-1.44-.5-1.86-.82-.64-1.46-.64-1.12.21-1.44.63-.49,1.04-.49,1.87Z"/><path d="m55.54,13.59c.84,0,1.5.29,1.97.86s.7,1.39.7,2.45-.24,1.87-.71,2.46-1.12.88-1.96.88c-.42,0-.8-.08-1.15-.23s-.64-.39-.87-.71h-.07l-.21.83h-.7v-9.12h.97v2.21c0,.5-.02.94-.05,1.34h.05c.45-.64,1.12-.96,2.02-.96Zm-.14.81c-.66,0-1.14.19-1.44.57s-.44,1.02-.44,1.92.15,1.55.45,1.94.78.58,1.45.58c.6,0,1.04-.22,1.34-.65s.44-1.06.44-1.88-.15-1.46-.44-1.87-.75-.62-1.36-.62Z"/><path d="m60.87,20.12h-.97v-9.12h.97v9.12Z"/><path d="m65.65,20.24c-.95,0-1.7-.29-2.25-.87s-.82-1.38-.82-2.41.25-1.86.76-2.47,1.19-.91,2.05-.91c.8,0,1.44.26,1.91.79s.7,1.23.7,2.09v.62h-4.42c.02.75.21,1.33.57,1.72s.87.59,1.53.59c.69,0,1.38-.14,2.05-.43v.87c-.34.15-.67.25-.98.32s-.68.1-1.11.1Zm-.26-5.84c-.52,0-.93.17-1.23.5s-.49.8-.54,1.39h3.36c0-.61-.14-1.08-.41-1.41s-.66-.49-1.17-.49Z"/><path d="m77.85,20.12v-4.18c0-.51-.11-.9-.33-1.15s-.56-.38-1.02-.38c-.61,0-1.05.17-1.34.52s-.43.88-.43,1.61v3.59h-.97v-4.18c0-.51-.11-.9-.33-1.15s-.56-.38-1.03-.38c-.61,0-1.06.18-1.34.55s-.42.96-.42,1.8v3.37h-.97v-6.42h.79l.16.88h.05c.18-.31.44-.56.78-.73s.71-.26,1.12-.26c1,0,1.66.36,1.97,1.09h.05c.19-.34.47-.6.83-.8s.78-.29,1.24-.29c.73,0,1.27.19,1.63.56s.54.97.54,1.79v4.19h-.97Z"/><path d="m84.78,20.12l-.19-.91h-.05c-.32.4-.64.67-.96.82s-.72.21-1.19.21c-.64,0-1.14-.16-1.5-.49s-.54-.79-.54-1.4c0-1.3,1.04-1.98,3.11-2.04l1.09-.04v-.4c0-.5-.11-.88-.33-1.12s-.56-.36-1.04-.36c-.54,0-1.14.16-1.82.49l-.3-.74c.32-.17.66-.31,1.04-.4s.75-.15,1.13-.15c.77,0,1.33.17,1.7.51s.55.88.55,1.63v4.38h-.72Zm-2.2-.69c.61,0,1.08-.17,1.43-.5s.52-.8.52-1.39v-.58l-.97.04c-.77.03-1.33.15-1.67.36s-.51.54-.51.99c0,.35.11.62.32.8s.51.28.89.28Z"/><path d="m93.33,20.24c-.95,0-1.7-.29-2.25-.87s-.82-1.38-.82-2.41.25-1.86.76-2.47,1.19-.91,2.05-.91c.8,0,1.44.26,1.91.79s.7,1.23.7,2.09v.62h-4.42c.02.75.21,1.33.57,1.72s.87.59,1.53.59c.69,0,1.38-.14,2.05-.43v.87c-.34.15-.67.25-.98.32s-.68.1-1.11.1Zm-.26-5.84c-.52,0-.93.17-1.23.5s-.49.8-.54,1.39h3.36c0-.61-.14-1.08-.41-1.41s-.66-.49-1.17-.49Zm-.72-1.69c.19-.24.39-.54.61-.88s.39-.64.51-.9h1.18v.12c-.17.25-.43.57-.77.94s-.63.66-.88.86h-.65v-.15Z"/><path d="m103.46,20.24c-.42,0-.8-.08-1.15-.23s-.64-.39-.87-.71h-.07c.05.38.07.73.07,1.07v2.64h-.97v-9.3h.79l.13.88h.05c.25-.35.54-.61.87-.76s.71-.23,1.14-.23c.85,0,1.51.29,1.97.87s.69,1.4.69,2.45-.24,1.87-.71,2.46-1.12.88-1.96.88Zm-.14-5.83c-.66,0-1.13.18-1.42.54s-.44.94-.45,1.73v.22c0,.9.15,1.55.45,1.94s.78.58,1.45.58c.55,0,.99-.22,1.3-.67s.47-1.07.47-1.86-.16-1.42-.47-1.84-.76-.64-1.33-.64Z"/><path d="m110.75,13.58c.29,0,.54.02.77.07l-.13.9c-.27-.06-.5-.09-.7-.09-.52,0-.96.21-1.33.63s-.55.95-.55,1.58v3.45h-.97v-6.42h.8l.11,1.19h.05c.24-.42.53-.74.86-.97s.71-.34,1.11-.34Z"/><path d="m118.27,16.9c0,1.05-.26,1.86-.79,2.45s-1.26.88-2.19.88c-.57,0-1.08-.13-1.53-.4s-.79-.66-1.03-1.16-.36-1.09-.36-1.77c0-1.05.26-1.86.79-2.45s1.25-.88,2.18-.88,1.61.3,2.14.9.79,1.41.79,2.43Zm-4.89,0c0,.82.16,1.45.49,1.88s.81.64,1.45.64,1.12-.21,1.45-.64.5-1.05.5-1.88-.17-1.44-.5-1.86-.82-.64-1.46-.64-1.12.21-1.44.63-.49,1.04-.49,1.87Z"/><path d="m122.96,13.59c.84,0,1.5.29,1.97.86s.7,1.39.7,2.45-.24,1.87-.71,2.46-1.12.88-1.96.88c-.42,0-.8-.08-1.15-.23s-.64-.39-.87-.71h-.07l-.21.83h-.7v-9.12h.97v2.21c0,.5-.02.94-.05,1.34h.05c.45-.64,1.12-.96,2.02-.96Zm-.14.81c-.66,0-1.14.19-1.44.57s-.44,1.02-.44,1.92.15,1.55.45,1.94.78.58,1.45.58c.6,0,1.04-.22,1.34-.65s.44-1.06.44-1.88-.15-1.46-.44-1.87-.75-.62-1.36-.62Z"/><path d="m128.3,20.12h-.97v-9.12h.97v9.12Z"/><path d="m133.07,20.24c-.95,0-1.7-.29-2.25-.87s-.82-1.38-.82-2.41.25-1.86.76-2.47,1.19-.91,2.05-.91c.8,0,1.44.26,1.91.79s.7,1.23.7,2.09v.62h-4.42c.02.75.21,1.33.57,1.72s.87.59,1.53.59c.69,0,1.38-.14,2.05-.43v.87c-.34.15-.67.25-.98.32s-.68.1-1.11.1Zm-.26-5.84c-.52,0-.93.17-1.23.5s-.49.8-.54,1.39h3.36c0-.61-.14-1.08-.41-1.41s-.66-.49-1.17-.49Z"/><path d="m145.28,20.12v-4.18c0-.51-.11-.9-.33-1.15s-.56-.38-1.02-.38c-.61,0-1.05.17-1.34.52s-.43.88-.43,1.61v3.59h-.97v-4.18c0-.51-.11-.9-.33-1.15s-.56-.38-1.03-.38c-.61,0-1.06.18-1.34.55s-.42.96-.42,1.8v3.37h-.97v-6.42h.79l.16.88h.05c.18-.31.44-.56.78-.73s.71-.26,1.12-.26c1,0,1.66.36,1.97,1.09h.05c.19-.34.47-.6.83-.8s.78-.29,1.24-.29c.73,0,1.27.19,1.63.56s.54.97.54,1.79v4.19h-.97Z"/><path d="m152.2,20.12l-.19-.91h-.05c-.32.4-.64.67-.96.82s-.72.21-1.19.21c-.64,0-1.14-.16-1.5-.49s-.54-.79-.54-1.4c0-1.3,1.04-1.98,3.11-2.04l1.09-.04v-.4c0-.5-.11-.88-.33-1.12s-.56-.36-1.04-.36c-.54,0-1.14.16-1.82.49l-.3-.74c.32-.17.66-.31,1.04-.4s.75-.15,1.13-.15c.77,0,1.33.17,1.7.51s.55.88.55,1.63v4.38h-.72Zm-2.2-.69c.61,0,1.08-.17,1.43-.5s.52-.8.52-1.39v-.58l-.97.04c-.77.03-1.33.15-1.67.36s-.51.54-.51.99c0,.35.11.62.32.8s.51.28.89.28Z"/><path d="m13.02,34.64c-.42,0-.8-.08-1.15-.23s-.64-.39-.87-.71h-.07c.05.38.07.73.07,1.07v2.64h-.97v-9.3h.79l.13.88h.05c.25-.35.54-.61.87-.76s.71-.23,1.14-.23c.85,0,1.51.29,1.97.87s.69,1.4.69,2.45-.24,1.87-.71,2.46-1.12.88-1.96.88Zm-.14-5.83c-.66,0-1.13.18-1.42.54s-.44.94-.45,1.73v.22c0,.9.15,1.55.45,1.94s.78.58,1.45.58c.55,0,.99-.22,1.3-.67s.47-1.07.47-1.86-.16-1.42-.47-1.84-.76-.64-1.33-.64Z"/><path d="m22.93,31.3c0,1.05-.26,1.86-.79,2.45s-1.26.88-2.19.88c-.57,0-1.08-.13-1.53-.4s-.79-.66-1.03-1.16-.36-1.09-.36-1.77c0-1.05.26-1.86.79-2.45s1.25-.88,2.18-.88,1.61.3,2.14.9.79,1.41.79,2.43Zm-4.89,0c0,.82.16,1.45.49,1.88s.81.64,1.45.64,1.12-.21,1.45-.64.5-1.05.5-1.88-.17-1.44-.5-1.86-.82-.64-1.46-.64-1.12.21-1.44.63-.49,1.04-.49,1.87Z"/><path d="m27.56,27.98c.29,0,.54.02.77.07l-.13.9c-.27-.06-.5-.09-.7-.09-.52,0-.96.21-1.33.63s-.55.95-.55,1.58v3.45h-.97v-6.42h.8l.11,1.19h.05c.24-.42.53-.74.86-.97s.71-.34,1.11-.34Z"/><path d="m36.79,32.77c0,.6-.22,1.06-.67,1.38s-1.07.49-1.88.49c-.85,0-1.52-.13-1.99-.4v-.9c.31.16.64.28.99.37s.69.13,1.02.13c.51,0,.9-.08,1.17-.24s.41-.41.41-.74c0-.25-.11-.46-.33-.64s-.64-.39-1.27-.63c-.6-.22-1.02-.42-1.27-.58s-.44-.35-.56-.57-.18-.46-.18-.76c0-.52.21-.94.64-1.24s1.01-.45,1.75-.45c.69,0,1.37.14,2.03.42l-.35.79c-.64-.27-1.23-.4-1.75-.4-.46,0-.81.07-1.04.22s-.35.34-.35.6c0,.17.04.32.13.44s.23.24.42.35.57.27,1.12.47c.76.28,1.28.56,1.54.84s.4.63.4,1.06Z"/><path d="m38.29,26.36c0-.22.05-.39.16-.49s.25-.16.41-.16.29.05.4.16.17.27.17.49-.06.38-.17.49-.25.16-.4.16c-.16,0-.3-.05-.41-.16s-.16-.27-.16-.49Zm1.05,8.16h-.97v-6.42h.97v6.42Z"/><path d="m42.43,33.13l.09.13c-.1.39-.25.84-.44,1.36s-.39,1-.6,1.44h-.73c.11-.41.22-.91.35-1.51s.22-1.08.27-1.44h1.07Z"/><path d="m50.46,34.64c-.42,0-.8-.08-1.15-.23s-.64-.39-.87-.71h-.07c.05.38.07.73.07,1.07v2.64h-.97v-9.3h.79l.13.88h.05c.25-.35.54-.61.87-.76s.71-.23,1.14-.23c.85,0,1.51.29,1.97.87s.69,1.4.69,2.45-.24,1.87-.71,2.46-1.12.88-1.96.88Zm-.14-5.83c-.66,0-1.13.18-1.42.54s-.44.94-.45,1.73v.22c0,.9.15,1.55.45,1.94s.78.58,1.45.58c.55,0,.99-.22,1.3-.67s.47-1.07.47-1.86-.16-1.42-.47-1.84-.76-.64-1.33-.64Z"/><path d="m58.77,34.52l-.19-.91h-.05c-.32.4-.64.67-.96.82s-.72.21-1.19.21c-.64,0-1.14-.16-1.5-.49s-.54-.79-.54-1.4c0-1.3,1.04-1.98,3.11-2.04l1.09-.04v-.4c0-.5-.11-.88-.33-1.12s-.56-.36-1.04-.36c-.54,0-1.14.16-1.82.49l-.3-.74c.32-.17.66-.31,1.04-.4s.75-.15,1.13-.15c.77,0,1.33.17,1.7.51s.55.88.55,1.63v4.38h-.72Zm-2.2-.69c.61,0,1.08-.17,1.43-.5s.52-.8.52-1.39v-.58l-.97.04c-.77.03-1.33.15-1.67.36s-.51.54-.51.99c0,.35.11.62.32.8s.51.28.89.28Z"/><path d="m64.42,27.98c.29,0,.54.02.77.07l-.13.9c-.27-.06-.5-.09-.7-.09-.52,0-.96.21-1.33.63s-.55.95-.55,1.58v3.45h-.97v-6.42h.8l.11,1.19h.05c.24-.42.53-.74.86-.97s.71-.34,1.11-.34Z"/><path d="m70.34,34.52l-.19-.91h-.05c-.32.4-.64.67-.96.82s-.72.21-1.19.21c-.64,0-1.14-.16-1.5-.49s-.54-.79-.54-1.4c0-1.3,1.04-1.98,3.11-2.04l1.09-.04v-.4c0-.5-.11-.88-.33-1.12s-.56-.36-1.04-.36c-.54,0-1.14.16-1.82.49l-.3-.74c.32-.17.66-.31,1.04-.4s.75-.15,1.13-.15c.77,0,1.33.17,1.7.51s.55.88.55,1.63v4.38h-.72Zm-2.2-.69c.61,0,1.08-.17,1.43-.5s.52-.8.52-1.39v-.58l-.97.04c-.77.03-1.33.15-1.67.36s-.51.54-.51.99c0,.35.11.62.32.8s.51.28.89.28Z"/><path d="m78.46,34.64c-.83,0-1.47-.29-1.94-.87s-.7-1.39-.7-2.44.23-1.87.7-2.46,1.12-.88,1.96-.88c.88,0,1.55.33,2.03,1h.05l.14-.88h.77v9.3h-.97v-2.75c0-.39.02-.72.06-1h-.08c-.45.65-1.12.98-2.03.98Zm.15-.81c.65,0,1.12-.17,1.42-.52s.46-.93.47-1.76v-.22c0-.9-.15-1.54-.46-1.94s-.79-.59-1.45-.59c-.57,0-1.01.22-1.31.67s-.45,1.07-.45,1.88.15,1.42.45,1.85.74.64,1.33.64Z"/><path d="m84.45,28.1v4.17c0,.52.12.91.36,1.17s.61.39,1.12.39c.67,0,1.16-.18,1.47-.55s.47-.97.47-1.8v-3.38h.97v6.42h-.8l-.14-.86h-.05c-.2.32-.48.56-.83.73s-.76.25-1.21.25c-.78,0-1.37-.19-1.75-.56s-.58-.96-.58-1.78v-4.2h.98Z"/><path d="m94.85,34.52l-.19-.91h-.05c-.32.4-.64.67-.96.82s-.72.21-1.19.21c-.64,0-1.14-.16-1.5-.49s-.54-.79-.54-1.4c0-1.3,1.04-1.98,3.11-2.04l1.09-.04v-.4c0-.5-.11-.88-.33-1.12s-.56-.36-1.04-.36c-.54,0-1.14.16-1.82.49l-.3-.74c.32-.17.66-.31,1.04-.4s.75-.15,1.13-.15c.77,0,1.33.17,1.7.51s.55.88.55,1.63v4.38h-.72Zm-2.2-.69c.61,0,1.08-.17,1.43-.5s.52-.8.52-1.39v-.58l-.97.04c-.77.03-1.33.15-1.67.36s-.51.54-.51.99c0,.35.11.62.32.8s.51.28.89.28Z"/><path d="m98.55,34.52h-.97v-9.12h.97v9.12Z"/><path d="m102.89,34.64c-.83,0-1.47-.29-1.94-.87s-.7-1.39-.7-2.44.23-1.87.7-2.46,1.12-.88,1.96-.88c.88,0,1.55.33,2.03,1h.05l.14-.88h.77v9.3h-.97v-2.75c0-.39.02-.72.06-1h-.08c-.45.65-1.12.98-2.03.98Zm.15-.81c.65,0,1.12-.17,1.42-.52s.46-.93.47-1.76v-.22c0-.9-.15-1.54-.46-1.94s-.79-.59-1.45-.59c-.57,0-1.01.22-1.31.67s-.45,1.07-.45,1.88.15,1.42.45,1.85.74.64,1.33.64Z"/><path d="m108.88,28.1v4.17c0,.52.12.91.36,1.17s.61.39,1.12.39c.67,0,1.16-.18,1.47-.55s.47-.97.47-1.8v-3.38h.97v6.42h-.8l-.14-.86h-.05c-.2.32-.48.56-.83.73s-.76.25-1.21.25c-.78,0-1.37-.19-1.75-.56s-.58-.96-.58-1.78v-4.2h.98Z"/><path d="m118.04,34.64c-.95,0-1.7-.29-2.25-.87s-.82-1.38-.82-2.41.25-1.86.76-2.47,1.19-.91,2.05-.91c.8,0,1.44.26,1.91.79s.7,1.23.7,2.09v.62h-4.42c.02.75.21,1.33.57,1.72s.87.59,1.53.59c.69,0,1.38-.14,2.05-.43v.87c-.34.15-.67.25-.98.32s-.68.1-1.11.1Zm-.26-5.84c-.52,0-.93.17-1.23.5s-.49.8-.54,1.39h3.36c0-.61-.14-1.08-.41-1.41s-.66-.49-1.17-.49Z"/><path d="m124.99,27.98c.29,0,.54.02.77.07l-.13.9c-.27-.06-.5-.09-.7-.09-.52,0-.96.21-1.33.63s-.55.95-.55,1.58v3.45h-.97v-6.42h.8l.11,1.19h.05c.24-.42.53-.74.86-.97s.71-.34,1.11-.34Z"/><path d="m13.02,49.04c-.42,0-.8-.08-1.15-.23s-.64-.39-.87-.71h-.07c.05.38.07.73.07,1.07v2.64h-.97v-9.3h.79l.13.88h.05c.25-.35.54-.61.87-.76s.71-.23,1.14-.23c.85,0,1.51.29,1.97.87s.69,1.4.69,2.45-.24,1.87-.71,2.46-1.12.88-1.96.88Zm-.14-5.83c-.66,0-1.13.18-1.42.54s-.44.94-.45,1.73v.22c0,.9.15,1.55.45,1.94s.78.58,1.45.58c.55,0,.99-.22,1.3-.67s.47-1.07.47-1.86-.16-1.42-.47-1.84-.76-.64-1.33-.64Z"/><path d="m20.1,49.04c-.95,0-1.7-.29-2.25-.87s-.82-1.38-.82-2.41.25-1.86.76-2.47,1.19-.91,2.05-.91c.8,0,1.44.26,1.91.79s.7,1.23.7,2.09v.62h-4.42c.02.75.21,1.33.57,1.72s.87.59,1.53.59c.69,0,1.38-.14,2.05-.43v.87c-.34.15-.67.25-.98.32s-.68.1-1.11.1Zm-.26-5.84c-.52,0-.93.17-1.23.5s-.49.8-.54,1.39h3.36c0-.61-.14-1.08-.41-1.41s-.66-.49-1.17-.49Z"/><path d="m28.26,47.17c0,.6-.22,1.06-.67,1.38s-1.07.49-1.88.49c-.85,0-1.52-.13-1.99-.4v-.9c.31.16.64.28.99.37s.69.13,1.02.13c.51,0,.9-.08,1.17-.24s.41-.41.41-.74c0-.25-.11-.46-.33-.64s-.64-.39-1.27-.63c-.6-.22-1.02-.42-1.27-.58s-.44-.35-.56-.57-.18-.46-.18-.76c0-.52.21-.94.64-1.24s1.01-.45,1.75-.45c.69,0,1.37.14,2.03.42l-.35.79c-.64-.27-1.23-.4-1.75-.4-.46,0-.81.07-1.04.22s-.35.34-.35.6c0,.17.04.32.13.44s.23.24.42.35.57.27,1.12.47c.76.28,1.28.56,1.54.84s.4.63.4,1.06Z"/><path d="m33.98,47.17c0,.6-.22,1.06-.67,1.38s-1.07.49-1.88.49c-.85,0-1.52-.13-1.99-.4v-.9c.31.16.64.28.99.37s.69.13,1.02.13c.51,0,.9-.08,1.17-.24s.41-.41.41-.74c0-.25-.11-.46-.33-.64s-.64-.39-1.27-.63c-.6-.22-1.02-.42-1.27-.58s-.44-.35-.56-.57-.18-.46-.18-.76c0-.52.21-.94.64-1.24s1.01-.45,1.75-.45c.69,0,1.37.14,2.03.42l-.35.79c-.64-.27-1.23-.4-1.75-.4-.46,0-.81.07-1.04.22s-.35.34-.35.6c0,.17.04.32.13.44s.23.24.42.35.57.27,1.12.47c.76.28,1.28.56,1.54.84s.4.63.4,1.06Z"/><path d="m41.11,45.7c0,1.05-.26,1.86-.79,2.45s-1.26.88-2.19.88c-.57,0-1.08-.13-1.53-.4s-.79-.66-1.03-1.16-.36-1.09-.36-1.77c0-1.05.26-1.86.79-2.45s1.25-.88,2.18-.88,1.61.3,2.14.9.79,1.41.79,2.43Zm-4.89,0c0,.82.16,1.45.49,1.88s.81.64,1.45.64,1.12-.21,1.45-.64.5-1.05.5-1.88-.17-1.44-.5-1.86-.82-.64-1.46-.64-1.12.21-1.44.63-.49,1.04-.49,1.87Z"/><path d="m46.76,48.92l-.19-.91h-.05c-.32.4-.64.67-.96.82s-.72.21-1.19.21c-.64,0-1.14-.16-1.5-.49s-.54-.79-.54-1.4c0-1.3,1.04-1.98,3.11-2.04l1.09-.04v-.4c0-.5-.11-.88-.33-1.12s-.56-.36-1.04-.36c-.54,0-1.14.16-1.82.49l-.3-.74c.32-.17.66-.31,1.04-.4s.75-.15,1.13-.15c.77,0,1.33.17,1.7.51s.55.88.55,1.63v4.38h-.72Zm-2.2-.69c.61,0,1.08-.17,1.43-.5s.52-.8.52-1.39v-.58l-.97.04c-.77.03-1.33.15-1.67.36s-.51.54-.51.99c0,.35.11.62.32.8s.51.28.89.28Z"/><path d="m58.15,45.7c0,1.05-.26,1.86-.79,2.45s-1.26.88-2.19.88c-.57,0-1.08-.13-1.53-.4s-.79-.66-1.03-1.16-.36-1.09-.36-1.77c0-1.05.26-1.86.79-2.45s1.25-.88,2.18-.88,1.61.3,2.14.9.79,1.41.79,2.43Zm-4.89,0c0,.82.16,1.45.49,1.88s.81.64,1.45.64,1.12-.21,1.45-.64.5-1.05.5-1.88-.17-1.44-.5-1.86-.82-.64-1.46-.64-1.12.21-1.44.63-.49,1.04-.49,1.87Z"/><path d="m60.77,42.5v4.17c0,.52.12.91.36,1.17s.61.39,1.12.39c.67,0,1.16-.18,1.47-.55s.47-.97.47-1.8v-3.38h.97v6.42h-.8l-.14-.86h-.05c-.2.32-.48.56-.83.73s-.76.25-1.21.25c-.78,0-1.37-.19-1.75-.56s-.58-.96-.58-1.78v-4.2h.98Z"/><path d="m72.9,49.04c-.93,0-1.65-.29-2.16-.86s-.76-1.38-.76-2.43.26-1.9.78-2.49,1.25-.88,2.21-.88c.31,0,.62.03.93.1s.55.14.73.23l-.3.83c-.21-.09-.45-.16-.7-.21s-.48-.08-.67-.08c-1.3,0-1.96.83-1.96,2.5,0,.79.16,1.39.48,1.82s.79.63,1.42.63c.54,0,1.08-.12,1.65-.35v.86c-.43.22-.97.33-1.62.33Z"/><path d="m81.59,45.7c0,1.05-.26,1.86-.79,2.45s-1.26.88-2.19.88c-.57,0-1.08-.13-1.53-.4s-.79-.66-1.03-1.16-.36-1.09-.36-1.77c0-1.05.26-1.86.79-2.45s1.25-.88,2.18-.88,1.61.3,2.14.9.79,1.41.79,2.43Zm-4.89,0c0,.82.16,1.45.49,1.88s.81.64,1.45.64,1.12-.21,1.45-.64.5-1.05.5-1.88-.17-1.44-.5-1.86-.82-.64-1.46-.64-1.12.21-1.44.63-.49,1.04-.49,1.87Z"/><path d="m84.27,48.92h-.97v-9.12h.97v9.12Z"/><path d="m89.04,49.04c-.95,0-1.7-.29-2.25-.87s-.82-1.38-.82-2.41.25-1.86.76-2.47,1.19-.91,2.05-.91c.8,0,1.44.26,1.91.79s.7,1.23.7,2.09v.62h-4.42c.02.75.21,1.33.57,1.72s.87.59,1.53.59c.69,0,1.38-.14,2.05-.43v.87c-.34.15-.67.25-.98.32s-.68.1-1.11.1Zm-.26-5.84c-.52,0-.93.17-1.23.5s-.49.8-.54,1.39h3.36c0-.61-.14-1.08-.41-1.41s-.66-.49-1.17-.49Z"/><path d="m95.14,48.23c.17,0,.34-.01.5-.04s.29-.05.38-.08v.74c-.11.05-.26.09-.47.13s-.39.05-.55.05c-1.24,0-1.86-.65-1.86-1.96v-3.82h-.92v-.47l.92-.4.41-1.37h.56v1.49h1.86v.76h-1.86v3.78c0,.39.09.68.28.89s.44.31.76.31Z"/><path d="m97.22,40.76c0-.22.05-.39.16-.49s.25-.16.41-.16.29.05.4.16.17.27.17.49-.06.38-.17.49-.25.16-.4.16c-.16,0-.3-.05-.41-.16s-.16-.27-.16-.49Zm1.05,8.16h-.97v-6.42h.97v6.42Z"/><path d="m101.74,48.92l-2.44-6.42h1.04l1.38,3.81c.31.89.5,1.47.55,1.73h.05c.04-.21.18-.64.41-1.29s.74-2.07,1.54-4.26h1.04l-2.44,6.42h-1.14Z"/><path d="m111.89,45.7c0,1.05-.26,1.86-.79,2.45s-1.26.88-2.19.88c-.57,0-1.08-.13-1.53-.4s-.79-.66-1.03-1.16-.36-1.09-.36-1.77c0-1.05.26-1.86.79-2.45s1.25-.88,2.18-.88,1.61.3,2.14.9.79,1.41.79,2.43Zm-4.89,0c0,.82.16,1.45.49,1.88s.81.64,1.45.64,1.12-.21,1.45-.64.5-1.05.5-1.88-.17-1.44-.5-1.86-.82-.64-1.46-.64-1.12.21-1.44.63-.49,1.04-.49,1.87Z"/><path d="m121.08,48.06h-.05c-.45.65-1.12.98-2.02.98-.84,0-1.49-.29-1.96-.86s-.7-1.39-.7-2.45.23-1.88.7-2.47,1.12-.88,1.96-.88,1.54.32,2,.95h.08l-.04-.46-.02-.45v-2.61h.97v9.12h-.79l-.13-.86Zm-1.95.16c.66,0,1.15-.18,1.44-.54s.45-.94.45-1.75v-.21c0-.91-.15-1.56-.45-1.95s-.79-.58-1.45-.58c-.57,0-1.01.22-1.31.67s-.45,1.07-.45,1.88.15,1.44.45,1.86.74.63,1.32.63Z"/><path d="m126.78,49.04c-.95,0-1.7-.29-2.25-.87s-.82-1.38-.82-2.41.25-1.86.76-2.47,1.19-.91,2.05-.91c.8,0,1.44.26,1.91.79s.7,1.23.7,2.09v.62h-4.42c.02.75.21,1.33.57,1.72s.87.59,1.53.59c.69,0,1.38-.14,2.05-.43v.87c-.34.15-.67.25-.98.32s-.68.1-1.11.1Zm-.26-5.84c-.52,0-.93.17-1.23.5s-.49.8-.54,1.39h3.36c0-.61-.14-1.08-.41-1.41s-.66-.49-1.17-.49Z"/><path d="m13.02,63.44c-.42,0-.8-.08-1.15-.23s-.64-.39-.87-.71h-.07c.05.38.07.73.07,1.07v2.64h-.97v-9.3h.79l.13.88h.05c.25-.35.54-.61.87-.76s.71-.23,1.14-.23c.85,0,1.51.29,1.97.87s.69,1.4.69,2.45-.24,1.87-.71,2.46-1.12.88-1.96.88Zm-.14-5.83c-.66,0-1.13.18-1.42.54s-.44.94-.45,1.73v.22c0,.9.15,1.55.45,1.94s.78.58,1.45.58c.55,0,.99-.22,1.3-.67s.47-1.07.47-1.86-.16-1.42-.47-1.84-.76-.64-1.33-.64Z"/><path d="m20.1,63.44c-.95,0-1.7-.29-2.25-.87s-.82-1.38-.82-2.41.25-1.86.76-2.47,1.19-.91,2.05-.91c.8,0,1.44.26,1.91.79s.7,1.23.7,2.09v.62h-4.42c.02.75.21,1.33.57,1.72s.87.59,1.53.59c.69,0,1.38-.14,2.05-.43v.87c-.34.15-.67.25-.98.32s-.68.1-1.11.1Zm-.26-5.84c-.52,0-.93.17-1.23.5s-.49.8-.54,1.39h3.36c0-.61-.14-1.08-.41-1.41s-.66-.49-1.17-.49Z"/><path d="m28.26,61.57c0,.6-.22,1.06-.67,1.38s-1.07.49-1.88.49c-.85,0-1.52-.13-1.99-.4v-.9c.31.16.64.28.99.37s.69.13,1.02.13c.51,0,.9-.08,1.17-.24s.41-.41.41-.74c0-.25-.11-.46-.33-.64s-.64-.39-1.27-.63c-.6-.22-1.02-.42-1.27-.58s-.44-.35-.56-.57-.18-.46-.18-.76c0-.52.21-.94.64-1.24s1.01-.45,1.75-.45c.69,0,1.37.14,2.03.42l-.35.79c-.64-.27-1.23-.4-1.75-.4-.46,0-.81.07-1.04.22s-.35.34-.35.6c0,.17.04.32.13.44s.23.24.42.35.57.27,1.12.47c.76.28,1.28.56,1.54.84s.4.63.4,1.06Z"/><path d="m33.98,61.57c0,.6-.22,1.06-.67,1.38s-1.07.49-1.88.49c-.85,0-1.52-.13-1.99-.4v-.9c.31.16.64.28.99.37s.69.13,1.02.13c.51,0,.9-.08,1.17-.24s.41-.41.41-.74c0-.25-.11-.46-.33-.64s-.64-.39-1.27-.63c-.6-.22-1.02-.42-1.27-.58s-.44-.35-.56-.57-.18-.46-.18-.76c0-.52.21-.94.64-1.24s1.01-.45,1.75-.45c.69,0,1.37.14,2.03.42l-.35.79c-.64-.27-1.23-.4-1.75-.4-.46,0-.81.07-1.04.22s-.35.34-.35.6c0,.17.04.32.13.44s.23.24.42.35.57.27,1.12.47c.76.28,1.28.56,1.54.84s.4.63.4,1.06Z"/><path d="m41.11,60.1c0,1.05-.26,1.86-.79,2.45s-1.26.88-2.19.88c-.57,0-1.08-.13-1.53-.4s-.79-.66-1.03-1.16-.36-1.09-.36-1.77c0-1.05.26-1.86.79-2.45s1.25-.88,2.18-.88,1.61.3,2.14.9.79,1.41.79,2.43Zm-4.89,0c0,.82.16,1.45.49,1.88s.81.64,1.45.64,1.12-.21,1.45-.64.5-1.05.5-1.88-.17-1.44-.5-1.86-.82-.64-1.46-.64-1.12.21-1.44.63-.49,1.04-.49,1.87Z"/><path d="m46.76,63.32l-.19-.91h-.05c-.32.4-.64.67-.96.82s-.72.21-1.19.21c-.64,0-1.14-.16-1.5-.49s-.54-.79-.54-1.4c0-1.3,1.04-1.98,3.11-2.04l1.09-.04v-.4c0-.5-.11-.88-.33-1.12s-.56-.36-1.04-.36c-.54,0-1.14.16-1.82.49l-.3-.74c.32-.17.66-.31,1.04-.4s.75-.15,1.13-.15c.77,0,1.33.17,1.7.51s.55.88.55,1.63v4.38h-.72Zm-2.2-.69c.61,0,1.08-.17,1.43-.5s.52-.8.52-1.39v-.58l-.97.04c-.77.03-1.33.15-1.67.36s-.51.54-.51.99c0,.35.11.62.32.8s.51.28.89.28Z"/><path d="m53.63,61.57c0,.6-.22,1.06-.67,1.38s-1.07.49-1.88.49c-.85,0-1.52-.13-1.99-.4v-.9c.31.16.64.28.99.37s.69.13,1.02.13c.51,0,.9-.08,1.17-.24s.41-.41.41-.74c0-.25-.11-.46-.33-.64s-.64-.39-1.27-.63c-.6-.22-1.02-.42-1.27-.58s-.44-.35-.56-.57-.18-.46-.18-.76c0-.52.21-.94.64-1.24s1.01-.45,1.75-.45c.69,0,1.37.14,2.03.42l-.35.79c-.64-.27-1.23-.4-1.75-.4-.46,0-.81.07-1.04.22s-.35.34-.35.6c0,.17.04.32.13.44s.23.24.42.35.57.27,1.12.47c.76.28,1.28.56,1.54.84s.4.63.4,1.06Z"/><path d="m55.88,60.96v-.32c0-.46.07-.83.21-1.13s.4-.61.79-.93c.53-.45.87-.79,1-1.01s.21-.5.21-.82c0-.4-.13-.71-.38-.92s-.62-.33-1.1-.33c-.31,0-.61.04-.9.11s-.63.2-1.01.4l-.35-.79c.74-.39,1.51-.58,2.31-.58.75,0,1.33.18,1.74.55s.62.88.62,1.55c0,.29-.04.54-.11.75s-.19.42-.34.62-.47.5-.96.93c-.39.34-.66.62-.78.84s-.19.52-.19.89v.19h-.76Zm-.29,1.74c0-.53.23-.8.7-.8.23,0,.4.07.52.21s.18.33.18.59-.06.44-.19.58-.3.21-.52.21c-.2,0-.37-.06-.5-.18s-.2-.33-.2-.61Z"/></g><rect class="cls-6" x="483" width="158" height="60"/><g><path d="m499.65,11.55v5.54c0,.98-.29,1.74-.88,2.3s-1.4.84-2.43.84-1.83-.28-2.39-.84-.85-1.34-.85-2.32v-5.52h1v5.59c0,.71.2,1.26.59,1.65s.96.57,1.72.57,1.28-.19,1.67-.58.59-.94.59-1.66v-5.58h1Z"/><path d="m509.95,20.12v-4.18c0-.51-.11-.9-.33-1.15s-.56-.38-1.02-.38c-.61,0-1.05.17-1.34.52s-.43.88-.43,1.61v3.59h-.97v-4.18c0-.51-.11-.9-.33-1.15s-.56-.38-1.03-.38c-.61,0-1.06.18-1.34.55s-.42.96-.42,1.8v3.37h-.97v-6.42h.79l.16.88h.05c.18-.31.44-.56.78-.73s.71-.26,1.12-.26c1,0,1.66.36,1.97,1.09h.05c.19-.34.47-.6.83-.8s.78-.29,1.24-.29c.73,0,1.27.19,1.63.56s.54.97.54,1.79v4.19h-.97Z"/><path d="m520.42,19.26h-.05c-.45.65-1.12.98-2.02.98-.84,0-1.49-.29-1.96-.86s-.7-1.39-.7-2.45.23-1.88.7-2.47,1.12-.88,1.96-.88,1.54.32,2,.95h.08l-.04-.46-.02-.45v-2.61h.97v9.12h-.79l-.13-.86Zm-1.95.16c.66,0,1.15-.18,1.44-.54s.45-.94.45-1.75v-.21c0-.91-.15-1.56-.45-1.95s-.79-.58-1.45-.58c-.57,0-1.01.22-1.31.67s-.45,1.07-.45,1.88.15,1.44.45,1.86.74.63,1.32.63Z"/><path d="m526.11,20.24c-.95,0-1.7-.29-2.25-.87s-.82-1.38-.82-2.41.25-1.86.76-2.47,1.19-.91,2.05-.91c.8,0,1.44.26,1.91.79s.7,1.23.7,2.09v.62h-4.42c.02.75.21,1.33.57,1.72s.87.59,1.53.59c.69,0,1.38-.14,2.05-.43v.87c-.34.15-.67.25-.98.32s-.68.1-1.11.1Zm-.26-5.84c-.52,0-.93.17-1.23.5s-.49.8-.54,1.39h3.36c0-.61-.14-1.08-.41-1.41s-.66-.49-1.17-.49Z"/><path d="m532.21,19.43c.17,0,.34-.01.5-.04s.29-.05.38-.08v.74c-.11.05-.26.09-.47.13s-.39.05-.55.05c-1.24,0-1.86-.65-1.86-1.96v-3.82h-.92v-.47l.92-.4.41-1.37h.56v1.49h1.86v.76h-1.86v3.78c0,.39.09.68.28.89s.44.31.76.31Z"/><path d="m537.08,20.24c-.95,0-1.7-.29-2.25-.87s-.82-1.38-.82-2.41.25-1.86.76-2.47,1.19-.91,2.05-.91c.8,0,1.44.26,1.91.79s.7,1.23.7,2.09v.62h-4.42c.02.75.21,1.33.57,1.72s.87.59,1.53.59c.69,0,1.38-.14,2.05-.43v.87c-.34.15-.67.25-.98.32s-.68.1-1.11.1Zm-.26-5.84c-.52,0-.93.17-1.23.5s-.49.8-.54,1.39h3.36c0-.61-.14-1.08-.41-1.41s-.66-.49-1.17-.49Z"/><path d="m544.03,13.58c.29,0,.54.02.77.07l-.13.9c-.27-.06-.5-.09-.7-.09-.52,0-.96.21-1.33.63s-.55.95-.55,1.58v3.45h-.97v-6.42h.8l.11,1.19h.05c.24-.42.53-.74.86-.97s.71-.34,1.11-.34Z"/><path d="m554.19,20.12v-4.18c0-.51-.11-.9-.33-1.15s-.56-.38-1.02-.38c-.61,0-1.05.17-1.34.52s-.43.88-.43,1.61v3.59h-.97v-4.18c0-.51-.11-.9-.33-1.15s-.56-.38-1.03-.38c-.61,0-1.06.18-1.34.55s-.42.96-.42,1.8v3.37h-.97v-6.42h.79l.16.88h.05c.18-.31.44-.56.78-.73s.71-.26,1.12-.26c1,0,1.66.36,1.97,1.09h.05c.19-.34.47-.6.83-.8s.78-.29,1.24-.29c.73,0,1.27.19,1.63.56s.54.97.54,1.79v4.19h-.97Z"/><path d="m557.08,11.96c0-.22.05-.39.16-.49s.25-.16.41-.16.29.05.4.16.17.27.17.49-.06.38-.17.49-.25.16-.4.16c-.16,0-.3-.05-.41-.16s-.16-.27-.16-.49Zm1.05,8.16h-.97v-6.42h.97v6.42Z"/><path d="m564.59,20.12v-4.15c0-.52-.12-.91-.36-1.17s-.61-.39-1.12-.39c-.67,0-1.16.18-1.48.54s-.47.96-.47,1.8v3.37h-.97v-6.42h.79l.16.88h.05c.2-.32.48-.56.84-.74s.76-.26,1.2-.26c.77,0,1.36.19,1.75.56s.59.97.59,1.79v4.19h-.97Z"/><path d="m571.51,20.12l-.19-.91h-.05c-.32.4-.64.67-.96.82s-.72.21-1.19.21c-.64,0-1.14-.16-1.5-.49s-.54-.79-.54-1.4c0-1.3,1.04-1.98,3.11-2.04l1.09-.04v-.4c0-.5-.11-.88-.33-1.12s-.56-.36-1.04-.36c-.54,0-1.14.16-1.82.49l-.3-.74c.32-.17.66-.31,1.04-.4s.75-.15,1.13-.15c.77,0,1.33.17,1.7.51s.55.88.55,1.63v4.38h-.72Zm-2.2-.69c.61,0,1.08-.17,1.43-.5s.52-.8.52-1.39v-.58l-.97.04c-.77.03-1.33.15-1.67.36s-.51.54-.51.99c0,.35.11.62.32.8s.51.28.89.28Z"/><path d="m578.61,19.26h-.05c-.45.65-1.12.98-2.02.98-.84,0-1.49-.29-1.96-.86s-.7-1.39-.7-2.45.23-1.88.7-2.47,1.12-.88,1.96-.88,1.54.32,2,.95h.08l-.04-.46-.02-.45v-2.61h.97v9.12h-.79l-.13-.86Zm-1.95.16c.66,0,1.15-.18,1.44-.54s.45-.94.45-1.75v-.21c0-.91-.15-1.56-.45-1.95s-.79-.58-1.45-.58c-.57,0-1.01.22-1.31.67s-.45,1.07-.45,1.88.15,1.44.45,1.86.74.63,1.32.63Z"/><path d="m587.13,16.9c0,1.05-.26,1.86-.79,2.45s-1.26.88-2.19.88c-.57,0-1.08-.13-1.53-.4s-.79-.66-1.03-1.16-.36-1.09-.36-1.77c0-1.05.26-1.86.79-2.45s1.25-.88,2.18-.88,1.61.3,2.14.9.79,1.41.79,2.43Zm-4.89,0c0,.82.16,1.45.49,1.88s.81.64,1.45.64,1.12-.21,1.45-.64.5-1.05.5-1.88-.17-1.44-.5-1.86-.82-.64-1.46-.64-1.12.21-1.44.63-.49,1.04-.49,1.87Z"/><path d="m594.94,20.24c-.42,0-.8-.08-1.15-.23s-.64-.39-.87-.71h-.07c.05.38.07.73.07,1.07v2.64h-.97v-9.3h.79l.13.88h.05c.25-.35.54-.61.87-.76s.71-.23,1.14-.23c.85,0,1.51.29,1.97.87s.69,1.4.69,2.45-.24,1.87-.71,2.46-1.12.88-1.96.88Zm-.14-5.83c-.66,0-1.13.18-1.42.54s-.44.94-.45,1.73v.22c0,.9.15,1.55.45,1.94s.78.58,1.45.58c.55,0,.99-.22,1.3-.67s.47-1.07.47-1.86-.16-1.42-.47-1.84-.76-.64-1.33-.64Z"/><path d="m602.24,13.58c.29,0,.54.02.77.07l-.13.9c-.27-.06-.5-.09-.7-.09-.52,0-.96.21-1.33.63s-.55.95-.55,1.58v3.45h-.97v-6.42h.8l.11,1.19h.05c.24-.42.53-.74.86-.97s.71-.34,1.11-.34Z"/><path d="m609.75,16.9c0,1.05-.26,1.86-.79,2.45s-1.26.88-2.19.88c-.57,0-1.08-.13-1.53-.4s-.79-.66-1.03-1.16-.36-1.09-.36-1.77c0-1.05.26-1.86.79-2.45s1.25-.88,2.18-.88,1.61.3,2.14.9.79,1.41.79,2.43Zm-4.89,0c0,.82.16,1.45.49,1.88s.81.64,1.45.64,1.12-.21,1.45-.64.5-1.05.5-1.88-.17-1.44-.5-1.86-.82-.64-1.46-.64-1.12.21-1.44.63-.49,1.04-.49,1.87Z"/><path d="m614.44,13.59c.84,0,1.5.29,1.97.86s.7,1.39.7,2.45-.24,1.87-.71,2.46-1.12.88-1.96.88c-.42,0-.8-.08-1.15-.23s-.64-.39-.87-.71h-.07l-.21.83h-.7v-9.12h.97v2.21c0,.5-.02.94-.05,1.34h.05c.45-.64,1.12-.96,2.02-.96Zm-.14.81c-.66,0-1.14.19-1.44.57s-.44,1.02-.44,1.92.15,1.55.45,1.94.78.58,1.45.58c.6,0,1.04-.22,1.34-.65s.44-1.06.44-1.88-.15-1.46-.44-1.87-.75-.62-1.36-.62Z"/><path d="m619.78,20.12h-.97v-9.12h.97v9.12Z"/><path d="m624.56,20.24c-.95,0-1.7-.29-2.25-.87s-.82-1.38-.82-2.41.25-1.86.76-2.47,1.19-.91,2.05-.91c.8,0,1.44.26,1.91.79s.7,1.23.7,2.09v.62h-4.42c.02.75.21,1.33.57,1.72s.87.59,1.53.59c.69,0,1.38-.14,2.05-.43v.87c-.34.15-.67.25-.98.32s-.68.1-1.11.1Zm-.26-5.84c-.52,0-.93.17-1.23.5s-.49.8-.54,1.39h3.36c0-.61-.14-1.08-.41-1.41s-.66-.49-1.17-.49Z"/><path d="m628.04,17.35v-.89h2.88v.89h-2.88Z"/><path d="m501.22,34.52v-4.18c0-.51-.11-.9-.33-1.15s-.56-.38-1.02-.38c-.61,0-1.05.17-1.34.52s-.43.88-.43,1.61v3.59h-.97v-4.18c0-.51-.11-.9-.33-1.15s-.56-.38-1.03-.38c-.61,0-1.06.18-1.34.55s-.42.96-.42,1.8v3.37h-.97v-6.42h.79l.16.88h.05c.18-.31.44-.56.78-.73s.71-.26,1.12-.26c1,0,1.66.36,1.97,1.09h.05c.19-.34.47-.6.83-.8s.78-.29,1.24-.29c.73,0,1.27.19,1.63.56s.54.97.54,1.79v4.19h-.97Z"/><path d="m508.14,34.52l-.19-.91h-.05c-.32.4-.64.67-.96.82s-.72.21-1.19.21c-.64,0-1.14-.16-1.5-.49s-.54-.79-.54-1.4c0-1.3,1.04-1.98,3.11-2.04l1.09-.04v-.4c0-.5-.11-.88-.33-1.12s-.56-.36-1.04-.36c-.54,0-1.14.16-1.82.49l-.3-.74c.32-.17.66-.31,1.04-.4s.75-.15,1.13-.15c.77,0,1.33.17,1.7.51s.55.88.55,1.63v4.38h-.72Zm-2.2-.69c.61,0,1.08-.17,1.43-.5s.52-.8.52-1.39v-.58l-.97.04c-.77.03-1.33.15-1.67.36s-.51.54-.51.99c0,.35.11.62.32.8s.51.28.89.28Z"/><path d="m516.7,34.64c-.95,0-1.7-.29-2.25-.87s-.82-1.38-.82-2.41.25-1.86.76-2.47,1.19-.91,2.05-.91c.8,0,1.44.26,1.91.79s.7,1.23.7,2.09v.62h-4.42c.02.75.21,1.33.57,1.72s.87.59,1.53.59c.69,0,1.38-.14,2.05-.43v.87c-.34.15-.67.25-.98.32s-.68.1-1.11.1Zm-.26-5.84c-.52,0-.93.17-1.23.5s-.49.8-.54,1.39h3.36c0-.61-.14-1.08-.41-1.41s-.66-.49-1.17-.49Zm-.72-1.69c.19-.24.39-.54.61-.88s.39-.64.51-.9h1.18v.12c-.17.25-.43.57-.77.94s-.63.66-.88.86h-.65v-.15Z"/><path d="m526.4,34.64c-.93,0-1.65-.29-2.16-.86s-.76-1.38-.76-2.43.26-1.9.78-2.49,1.25-.88,2.21-.88c.31,0,.62.03.93.1s.55.14.73.23l-.3.83c-.21-.09-.45-.16-.7-.21s-.48-.08-.67-.08c-1.3,0-1.96.83-1.96,2.5,0,.79.16,1.39.48,1.82s.79.63,1.42.63c.54,0,1.08-.12,1.65-.35v.86c-.43.22-.97.33-1.62.33Z"/><path d="m535.09,31.3c0,1.05-.26,1.86-.79,2.45s-1.26.88-2.19.88c-.57,0-1.08-.13-1.53-.4s-.79-.66-1.03-1.16-.36-1.09-.36-1.77c0-1.05.26-1.86.79-2.45s1.25-.88,2.18-.88,1.61.3,2.14.9.79,1.41.79,2.43Zm-4.89,0c0,.82.16,1.45.49,1.88s.81.64,1.45.64,1.12-.21,1.45-.64.5-1.05.5-1.88-.17-1.44-.5-1.86-.82-.64-1.46-.64-1.12.21-1.44.63-.49,1.04-.49,1.87Z"/><path d="m541.19,34.52v-4.15c0-.52-.12-.91-.36-1.17s-.61-.39-1.12-.39c-.67,0-1.16.18-1.48.54s-.47.96-.47,1.8v3.37h-.97v-6.42h.79l.16.88h.05c.2-.32.48-.56.84-.74s.76-.26,1.2-.26c.77,0,1.36.19,1.75.56s.59.97.59,1.79v4.19h-.97Z"/><path d="m548.3,32.77c0,.6-.22,1.06-.67,1.38s-1.07.49-1.88.49c-.85,0-1.52-.13-1.99-.4v-.9c.31.16.64.28.99.37s.69.13,1.02.13c.51,0,.9-.08,1.17-.24s.41-.41.41-.74c0-.25-.11-.46-.33-.64s-.64-.39-1.27-.63c-.6-.22-1.02-.42-1.27-.58s-.44-.35-.56-.57-.18-.46-.18-.76c0-.52.21-.94.64-1.24s1.01-.45,1.75-.45c.69,0,1.37.14,2.03.42l-.35.79c-.64-.27-1.23-.4-1.75-.4-.46,0-.81.07-1.04.22s-.35.34-.35.6c0,.17.04.32.13.44s.23.24.42.35.57.27,1.12.47c.76.28,1.28.56,1.54.84s.4.63.4,1.06Z"/><path d="m551.96,33.83c.17,0,.34-.01.5-.04s.29-.05.38-.08v.74c-.11.05-.26.09-.47.13s-.39.05-.55.05c-1.24,0-1.86-.65-1.86-1.96v-3.82h-.92v-.47l.92-.4.41-1.37h.56v1.49h1.86v.76h-1.86v3.78c0,.39.09.68.28.89s.44.31.76.31Z"/><path d="m557.05,27.98c.29,0,.54.02.77.07l-.13.9c-.27-.06-.5-.09-.7-.09-.52,0-.96.21-1.33.63s-.55.95-.55,1.58v3.45h-.97v-6.42h.8l.11,1.19h.05c.24-.42.53-.74.86-.97s.71-.34,1.11-.34Z"/><path d="m559.93,28.1v4.17c0,.52.12.91.36,1.17s.61.39,1.12.39c.67,0,1.16-.18,1.47-.55s.47-.97.47-1.8v-3.38h.97v6.42h-.8l-.14-.86h-.05c-.2.32-.48.56-.83.73s-.76.25-1.21.25c-.78,0-1.37-.19-1.75-.56s-.58-.96-.58-1.78v-4.2h.98Z"/><path d="m566.34,27.1c.19-.24.39-.54.61-.88s.39-.64.51-.9h1.18v.12c-.17.25-.43.57-.77.94s-.63.66-.88.86h-.65v-.15Zm1.01,7.42h-.97v-6.42h.97v6.42Z"/><path d="m573.79,33.66h-.05c-.45.65-1.12.98-2.02.98-.84,0-1.49-.29-1.96-.86s-.7-1.39-.7-2.45.23-1.88.7-2.47,1.12-.88,1.96-.88,1.54.32,2,.95h.08l-.04-.46-.02-.45v-2.61h.97v9.12h-.79l-.13-.86Zm-1.95.16c.66,0,1.15-.18,1.44-.54s.45-.94.45-1.75v-.21c0-.91-.15-1.56-.45-1.95s-.79-.58-1.45-.58c-.57,0-1.01.22-1.31.67s-.45,1.07-.45,1.88.15,1.44.45,1.86.74.63,1.32.63Z"/><path d="m582.32,31.3c0,1.05-.26,1.86-.79,2.45s-1.26.88-2.19.88c-.57,0-1.08-.13-1.53-.4s-.79-.66-1.03-1.16-.36-1.09-.36-1.77c0-1.05.26-1.86.79-2.45s1.25-.88,2.18-.88,1.61.3,2.14.9.79,1.41.79,2.43Zm-4.89,0c0,.82.16,1.45.49,1.88s.81.64,1.45.64,1.12-.21,1.45-.64.5-1.05.5-1.88-.17-1.44-.5-1.86-.82-.64-1.46-.64-1.12.21-1.44.63-.49,1.04-.49,1.87Z"/><path d="m592.68,31.3c0,1.05-.26,1.86-.79,2.45s-1.26.88-2.19.88c-.57,0-1.08-.13-1.53-.4s-.79-.66-1.03-1.16-.36-1.09-.36-1.77c0-1.05.26-1.86.79-2.45s1.25-.88,2.18-.88,1.61.3,2.14.9.79,1.41.79,2.43Zm-4.89,0c0,.82.16,1.45.49,1.88s.81.64,1.45.64,1.12-.21,1.45-.64.5-1.05.5-1.88-.17-1.44-.5-1.86-.82-.64-1.46-.64-1.12.21-1.44.63-.49,1.04-.49,1.87Z"/><path d="m595.3,28.1v4.17c0,.52.12.91.36,1.17s.61.39,1.12.39c.67,0,1.16-.18,1.47-.55s.47-.97.47-1.8v-3.38h.97v6.42h-.8l-.14-.86h-.05c-.2.32-.48.56-.83.73s-.76.25-1.21.25c-.78,0-1.37-.19-1.75-.56s-.58-.96-.58-1.78v-4.2h.98Z"/><path d="m607.58,34.64c-.95,0-1.7-.29-2.25-.87s-.82-1.38-.82-2.41.25-1.86.76-2.47,1.19-.91,2.05-.91c.8,0,1.44.26,1.91.79s.7,1.23.7,2.09v.62h-4.42c.02.75.21,1.33.57,1.72s.87.59,1.53.59c.69,0,1.38-.14,2.05-.43v.87c-.34.15-.67.25-.98.32s-.68.1-1.11.1Zm-.26-5.84c-.52,0-.93.17-1.23.5s-.49.8-.54,1.39h3.36c0-.61-.14-1.08-.41-1.41s-.66-.49-1.17-.49Z"/><path d="m615.74,32.77c0,.6-.22,1.06-.67,1.38s-1.07.49-1.88.49c-.85,0-1.52-.13-1.99-.4v-.9c.31.16.64.28.99.37s.69.13,1.02.13c.51,0,.9-.08,1.17-.24s.41-.41.41-.74c0-.25-.11-.46-.33-.64s-.64-.39-1.27-.63c-.6-.22-1.02-.42-1.27-.58s-.44-.35-.56-.57-.18-.46-.18-.76c0-.52.21-.94.64-1.24s1.01-.45,1.75-.45c.69,0,1.37.14,2.03.42l-.35.79c-.64-.27-1.23-.4-1.75-.4-.46,0-.81.07-1.04.22s-.35.34-.35.6c0,.17.04.32.13.44s.23.24.42.35.57.27,1.12.47c.76.28,1.28.56,1.54.84s.4.63.4,1.06Z"/><path d="m619.4,33.83c.17,0,.34-.01.5-.04s.29-.05.38-.08v.74c-.11.05-.26.09-.47.13s-.39.05-.55.05c-1.24,0-1.86-.65-1.86-1.96v-3.82h-.92v-.47l.92-.4.41-1.37h.56v1.49h1.86v.76h-1.86v3.78c0,.39.09.68.28.89s.44.31.76.31Z"/><path d="m625.51,34.52l-.19-.91h-.05c-.32.4-.64.67-.96.82s-.72.21-1.19.21c-.64,0-1.14-.16-1.5-.49s-.54-.79-.54-1.4c0-1.3,1.04-1.98,3.11-2.04l1.09-.04v-.4c0-.5-.11-.88-.33-1.12s-.56-.36-1.04-.36c-.54,0-1.14.16-1.82.49l-.3-.74c.32-.17.66-.31,1.04-.4s.75-.15,1.13-.15c.77,0,1.33.17,1.7.51s.55.88.55,1.63v4.38h-.72Zm-2.2-.69c.61,0,1.08-.17,1.43-.5s.52-.8.52-1.39v-.58l-.97.04c-.77.03-1.33.15-1.67.36s-.51.54-.51.99c0,.35.11.62.32.8s.51.28.89.28Zm-.23-6.73c.19-.24.39-.54.61-.88s.39-.64.51-.9h1.18v.12c-.17.25-.43.57-.77.94s-.63.66-.88.86h-.65v-.15Z"/><path d="m497.4,48.06h-.05c-.45.65-1.12.98-2.02.98-.84,0-1.49-.29-1.96-.86s-.7-1.39-.7-2.45.23-1.88.7-2.47,1.12-.88,1.96-.88,1.54.32,2,.95h.08l-.04-.46-.02-.45v-2.61h.97v9.12h-.79l-.13-.86Zm-1.95.16c.66,0,1.15-.18,1.44-.54s.45-.94.45-1.75v-.21c0-.91-.15-1.56-.45-1.95s-.79-.58-1.45-.58c-.57,0-1.01.22-1.31.67s-.45,1.07-.45,1.88.15,1.44.45,1.86.74.63,1.32.63Z"/><path d="m504.33,48.92l-.19-.91h-.05c-.32.4-.64.67-.96.82s-.72.21-1.19.21c-.64,0-1.14-.16-1.5-.49s-.54-.79-.54-1.4c0-1.3,1.04-1.98,3.11-2.04l1.09-.04v-.4c0-.5-.11-.88-.33-1.12s-.56-.36-1.04-.36c-.54,0-1.14.16-1.82.49l-.3-.74c.32-.17.66-.31,1.04-.4s.75-.15,1.13-.15c.77,0,1.33.17,1.7.51s.55.88.55,1.63v4.38h-.72Zm-2.2-.69c.61,0,1.08-.17,1.43-.5s.52-.8.52-1.39v-.58l-.97.04c-.77.03-1.33.15-1.67.36s-.51.54-.51.99c0,.35.11.62.32.8s.51.28.89.28Z"/><path d="m511.43,48.06h-.05c-.45.65-1.12.98-2.02.98-.84,0-1.49-.29-1.96-.86s-.7-1.39-.7-2.45.23-1.88.7-2.47,1.12-.88,1.96-.88,1.54.32,2,.95h.08l-.04-.46-.02-.45v-2.61h.97v9.12h-.79l-.13-.86Zm-1.95.16c.66,0,1.15-.18,1.44-.54s.45-.94.45-1.75v-.21c0-.91-.15-1.56-.45-1.95s-.79-.58-1.45-.58c-.57,0-1.01.22-1.31.67s-.45,1.07-.45,1.88.15,1.44.45,1.86.74.63,1.32.63Z"/><path d="m519.96,45.7c0,1.05-.26,1.86-.79,2.45s-1.26.88-2.19.88c-.57,0-1.08-.13-1.53-.4s-.79-.66-1.03-1.16-.36-1.09-.36-1.77c0-1.05.26-1.86.79-2.45s1.25-.88,2.18-.88,1.61.3,2.14.9.79,1.41.79,2.43Zm-4.89,0c0,.82.16,1.45.49,1.88s.81.64,1.45.64,1.12-.21,1.45-.64.5-1.05.5-1.88-.17-1.44-.5-1.86-.82-.64-1.46-.64-1.12.21-1.44.63-.49,1.04-.49,1.87Z"/><path d="m522.32,46.56v-.32c0-.46.07-.83.21-1.13s.4-.61.79-.93c.53-.45.87-.79,1-1.01s.21-.5.21-.82c0-.4-.13-.71-.38-.92s-.62-.33-1.1-.33c-.31,0-.61.04-.9.11s-.63.2-1.01.4l-.35-.79c.74-.39,1.51-.58,2.31-.58.75,0,1.33.18,1.74.55s.62.88.62,1.55c0,.29-.04.54-.11.75s-.19.42-.34.62-.47.5-.96.93c-.39.34-.66.62-.78.84s-.19.52-.19.89v.19h-.76Zm-.29,1.74c0-.53.23-.8.7-.8.23,0,.4.07.52.21s.18.33.18.59-.06.44-.19.58-.3.21-.52.21c-.2,0-.37-.06-.5-.18s-.2-.33-.2-.61Z"/></g><rect class="cls-5" x="483" y="172" width="158" height="60"/><g><path d="m500.61,194.83c0,1.37-.35,2.45-1.04,3.23s-1.66,1.18-2.89,1.18-2.24-.39-2.92-1.16-1.03-1.86-1.03-3.27.34-2.48,1.03-3.24,1.66-1.15,2.93-1.15,2.19.39,2.88,1.17,1.04,1.86,1.04,3.23Zm-6.83,0c0,1.16.25,2.04.74,2.64s1.21.9,2.15.9,1.67-.3,2.15-.9.73-1.48.73-2.64-.24-2.03-.72-2.62-1.2-.89-2.14-.89-1.67.3-2.17.9-.74,1.47-.74,2.62Z"/><path d="m507.77,199.24c-.83,0-1.47-.29-1.94-.87s-.7-1.39-.7-2.44.23-1.87.7-2.46,1.12-.88,1.96-.88c.88,0,1.55.33,2.03,1h.05l.14-.88h.77v9.3h-.97v-2.75c0-.39.02-.72.06-1h-.08c-.45.65-1.12.98-2.03.98Zm.15-.81c.65,0,1.12-.17,1.42-.52s.46-.93.47-1.76v-.22c0-.9-.15-1.54-.46-1.94s-.79-.59-1.45-.59c-.57,0-1.01.22-1.31.67s-.45,1.07-.45,1.88.15,1.42.45,1.85.74.64,1.33.64Z"/><path d="m513.76,192.7v4.17c0,.52.12.91.36,1.17s.61.39,1.12.39c.67,0,1.16-.18,1.47-.55s.47-.97.47-1.8v-3.38h.97v6.42h-.8l-.14-.86h-.05c-.2.32-.48.56-.83.73s-.76.25-1.21.25c-.78,0-1.37-.19-1.75-.56s-.58-.96-.58-1.78v-4.2h.98Z"/><path d="m522.93,199.24c-.95,0-1.7-.29-2.25-.87s-.82-1.38-.82-2.41.25-1.86.76-2.47,1.19-.91,2.05-.91c.8,0,1.44.26,1.91.79s.7,1.23.7,2.09v.62h-4.42c.02.75.21,1.33.57,1.72s.87.59,1.53.59c.69,0,1.38-.14,2.05-.43v.87c-.34.15-.67.25-.98.32s-.68.1-1.11.1Zm-.26-5.84c-.52,0-.93.17-1.23.5s-.49.8-.54,1.39h3.36c0-.61-.14-1.08-.41-1.41s-.66-.49-1.17-.49Z"/><path d="m532.63,199.24c-.93,0-1.65-.29-2.16-.86s-.76-1.38-.76-2.43.26-1.9.78-2.49,1.25-.88,2.21-.88c.31,0,.62.03.93.1s.55.14.73.23l-.3.83c-.21-.09-.45-.16-.7-.21s-.48-.08-.67-.08c-1.3,0-1.96.83-1.96,2.5,0,.79.16,1.39.48,1.82s.79.63,1.42.63c.54,0,1.08-.12,1.65-.35v.86c-.43.22-.97.33-1.62.33Z"/><path d="m539.72,199.12l-.19-.91h-.05c-.32.4-.64.67-.96.82s-.72.21-1.19.21c-.64,0-1.14-.16-1.5-.49s-.54-.79-.54-1.4c0-1.3,1.04-1.98,3.11-2.04l1.09-.04v-.4c0-.5-.11-.88-.33-1.12s-.56-.36-1.04-.36c-.54,0-1.14.16-1.82.49l-.3-.74c.32-.17.66-.31,1.04-.4s.75-.15,1.13-.15c.77,0,1.33.17,1.7.51s.55.88.55,1.63v4.38h-.72Zm-2.2-.69c.61,0,1.08-.17,1.43-.5s.52-.8.52-1.39v-.58l-.97.04c-.77.03-1.33.15-1.67.36s-.51.54-.51.99c0,.35.11.62.32.8s.51.28.89.28Z"/><path d="m545.38,192.58c.29,0,.54.02.77.07l-.13.9c-.27-.06-.5-.09-.7-.09-.52,0-.96.21-1.33.63s-.55.95-.55,1.58v3.45h-.97v-6.42h.8l.11,1.19h.05c.24-.42.53-.74.86-.97s.71-.34,1.11-.34Z"/><path d="m551.3,199.12l-.19-.91h-.05c-.32.4-.64.67-.96.82s-.72.21-1.19.21c-.64,0-1.14-.16-1.5-.49s-.54-.79-.54-1.4c0-1.3,1.04-1.98,3.11-2.04l1.09-.04v-.4c0-.5-.11-.88-.33-1.12s-.56-.36-1.04-.36c-.54,0-1.14.16-1.82.49l-.3-.74c.32-.17.66-.31,1.04-.4s.75-.15,1.13-.15c.77,0,1.33.17,1.7.51s.55.88.55,1.63v4.38h-.72Zm-2.2-.69c.61,0,1.08-.17,1.43-.5s.52-.8.52-1.39v-.58l-.97.04c-.77.03-1.33.15-1.67.36s-.51.54-.51.99c0,.35.11.62.32.8s.51.28.89.28Z"/><path d="m556.59,199.24c-.93,0-1.65-.29-2.16-.86s-.76-1.38-.76-2.43.26-1.9.78-2.49,1.25-.88,2.21-.88c.31,0,.62.03.93.1s.55.14.73.23l-.3.83c-.21-.09-.45-.16-.7-.21s-.48-.08-.67-.08c-1.3,0-1.96.83-1.96,2.5,0,.79.16,1.39.48,1.82s.79.63,1.42.63c.54,0,1.08-.12,1.65-.35v.86c-.43.22-.97.33-1.62.33Z"/><path d="m561.81,198.43c.17,0,.34-.01.5-.04s.29-.05.38-.08v.74c-.11.05-.26.09-.47.13s-.39.05-.55.05c-1.24,0-1.86-.65-1.86-1.96v-3.82h-.92v-.47l.92-.4.41-1.37h.56v1.49h1.86v.76h-1.86v3.78c0,.39.09.68.28.89s.44.31.76.31Z"/><path d="m566.68,199.24c-.95,0-1.7-.29-2.25-.87s-.82-1.38-.82-2.41.25-1.86.76-2.47,1.19-.91,2.05-.91c.8,0,1.44.26,1.91.79s.7,1.23.7,2.09v.62h-4.42c.02.75.21,1.33.57,1.72s.87.59,1.53.59c.69,0,1.38-.14,2.05-.43v.87c-.34.15-.67.25-.98.32s-.68.1-1.11.1Zm-.26-5.84c-.52,0-.93.17-1.23.5s-.49.8-.54,1.39h3.36c0-.61-.14-1.08-.41-1.41s-.66-.49-1.17-.49Z"/><path d="m573.63,192.58c.29,0,.54.02.77.07l-.13.9c-.27-.06-.5-.09-.7-.09-.52,0-.96.21-1.33.63s-.55.95-.55,1.58v3.45h-.97v-6.42h.8l.11,1.19h.05c.24-.42.53-.74.86-.97s.71-.34,1.11-.34Z"/><path d="m575.52,190.96c0-.22.05-.39.16-.49s.25-.16.41-.16.29.05.4.16.17.27.17.49-.06.38-.17.49-.25.16-.4.16c-.16,0-.3-.05-.41-.16s-.16-.27-.16-.49Zm1.05,8.16h-.97v-6.42h.97v6.42Z"/><path d="m582.74,199.12h-4.66v-.66l3.5-5h-3.29v-.76h4.35v.76l-3.46,4.91h3.54v.76Z"/><path d="m588.2,199.12l-.19-.91h-.05c-.32.4-.64.67-.96.82s-.72.21-1.19.21c-.64,0-1.14-.16-1.5-.49s-.54-.79-.54-1.4c0-1.3,1.04-1.98,3.11-2.04l1.09-.04v-.4c0-.5-.11-.88-.33-1.12s-.56-.36-1.04-.36c-.54,0-1.14.16-1.82.49l-.3-.74c.32-.17.66-.31,1.04-.4s.75-.15,1.13-.15c.77,0,1.33.17,1.7.51s.55.88.55,1.63v4.38h-.72Zm-2.2-.69c.61,0,1.08-.17,1.43-.5s.52-.8.52-1.39v-.58l-.97.04c-.77.03-1.33.15-1.67.36s-.51.54-.51.99c0,.35.11.62.32.8s.51.28.89.28Z"/><path d="m594.96,192.7v4.17c0,.52.12.91.36,1.17s.61.39,1.12.39c.67,0,1.16-.18,1.47-.55s.47-.97.47-1.8v-3.38h.97v6.42h-.8l-.14-.86h-.05c-.2.32-.48.56-.83.73s-.76.25-1.21.25c-.78,0-1.37-.19-1.75-.56s-.58-.96-.58-1.78v-4.2h.98Z"/><path d="m609.59,199.12v-4.18c0-.51-.11-.9-.33-1.15s-.56-.38-1.02-.38c-.61,0-1.05.17-1.34.52s-.43.88-.43,1.61v3.59h-.97v-4.18c0-.51-.11-.9-.33-1.15s-.56-.38-1.03-.38c-.61,0-1.06.18-1.34.55s-.42.96-.42,1.8v3.37h-.97v-6.42h.79l.16.88h.05c.18-.31.44-.56.78-.73s.71-.26,1.12-.26c1,0,1.66.36,1.97,1.09h.05c.19-.34.47-.6.83-.8s.78-.29,1.24-.29c.73,0,1.27.19,1.63.56s.54.97.54,1.79v4.19h-.97Z"/><path d="m496.02,213.64c-.42,0-.8-.08-1.15-.23s-.64-.39-.87-.71h-.07c.05.38.07.73.07,1.07v2.64h-.97v-9.3h.79l.13.88h.05c.25-.35.54-.61.87-.76s.71-.23,1.14-.23c.85,0,1.51.29,1.97.87s.69,1.4.69,2.45-.24,1.88-.71,2.46-1.12.88-1.96.88Zm-.14-5.83c-.66,0-1.13.18-1.42.54s-.44.94-.45,1.73v.22c0,.9.15,1.55.45,1.94s.78.58,1.45.58c.55,0,.99-.22,1.3-.67s.47-1.07.47-1.86-.16-1.41-.47-1.84-.76-.64-1.33-.64Z"/><path d="m503.31,206.98c.29,0,.54.02.77.07l-.13.9c-.27-.06-.5-.09-.7-.09-.52,0-.96.21-1.33.63s-.55.95-.55,1.58v3.45h-.97v-6.42h.8l.11,1.19h.05c.24-.42.53-.74.86-.97s.71-.34,1.11-.34Z"/><path d="m510.83,210.3c0,1.05-.26,1.87-.79,2.45s-1.26.88-2.19.88c-.57,0-1.08-.13-1.53-.4s-.79-.66-1.03-1.16-.36-1.09-.36-1.77c0-1.05.26-1.86.79-2.45s1.25-.88,2.18-.88,1.61.3,2.14.9.79,1.41.79,2.43Zm-4.89,0c0,.82.16,1.45.49,1.88s.81.64,1.45.64,1.12-.21,1.45-.64.5-1.05.5-1.88-.17-1.44-.5-1.86-.82-.64-1.46-.64-1.12.21-1.44.63-.49,1.04-.49,1.87Z"/><path d="m515.52,206.99c.84,0,1.5.29,1.97.87s.7,1.39.7,2.45-.24,1.88-.71,2.46-1.12.88-1.96.88c-.42,0-.8-.08-1.15-.23s-.64-.39-.87-.71h-.07l-.21.83h-.7v-9.12h.97v2.21c0,.5-.02.94-.05,1.34h.05c.45-.64,1.12-.96,2.02-.96Zm-.14.81c-.66,0-1.14.19-1.44.57s-.44,1.02-.44,1.92.15,1.55.45,1.94.78.58,1.45.58c.6,0,1.04-.22,1.34-.65s.44-1.06.44-1.88-.15-1.46-.44-1.87-.75-.62-1.36-.62Z"/><path d="m520.86,213.52h-.97v-9.12h.97v9.12Z"/><path d="m525.63,213.64c-.95,0-1.7-.29-2.25-.87s-.82-1.38-.82-2.41.25-1.86.76-2.47,1.19-.91,2.05-.91c.8,0,1.44.27,1.91.79s.7,1.23.7,2.09v.62h-4.42c.02.75.21,1.33.57,1.72s.87.59,1.53.59c.69,0,1.38-.14,2.05-.43v.87c-.34.15-.67.26-.98.32s-.68.1-1.11.1Zm-.26-5.84c-.52,0-.93.17-1.23.5s-.49.8-.54,1.39h3.36c0-.61-.14-1.08-.41-1.41s-.66-.49-1.17-.49Z"/><path d="m537.84,213.52v-4.18c0-.51-.11-.89-.33-1.15s-.56-.38-1.02-.38c-.61,0-1.05.17-1.34.52s-.43.88-.43,1.61v3.59h-.97v-4.18c0-.51-.11-.89-.33-1.15s-.56-.38-1.03-.38c-.61,0-1.06.18-1.34.55s-.42.96-.42,1.79v3.37h-.97v-6.42h.79l.16.88h.05c.18-.31.44-.56.78-.73s.71-.26,1.12-.26c1,0,1.66.36,1.97,1.09h.05c.19-.34.47-.6.83-.8s.78-.29,1.24-.29c.73,0,1.27.19,1.63.56s.54.97.54,1.79v4.19h-.97Z"/><path d="m544.76,213.52l-.19-.91h-.05c-.32.4-.64.68-.96.82s-.72.21-1.19.21c-.64,0-1.14-.16-1.5-.49s-.54-.79-.54-1.4c0-1.3,1.04-1.98,3.11-2.04l1.09-.04v-.4c0-.5-.11-.88-.33-1.12s-.56-.36-1.04-.36c-.54,0-1.14.16-1.82.49l-.3-.74c.32-.17.66-.31,1.04-.4s.75-.15,1.13-.15c.77,0,1.33.17,1.7.51s.55.88.55,1.63v4.38h-.72Zm-2.2-.69c.61,0,1.08-.17,1.43-.5s.52-.8.52-1.39v-.58l-.97.04c-.77.03-1.33.15-1.67.36s-.51.54-.51.99c0,.35.11.62.32.8s.51.28.89.28Z"/><path d="m548.15,211.16v-.32c0-.46.07-.83.21-1.13s.4-.61.79-.94c.53-.45.87-.79,1-1.01s.21-.5.21-.82c0-.4-.13-.71-.38-.92s-.62-.33-1.1-.33c-.31,0-.61.04-.9.11s-.63.2-1.01.39l-.35-.79c.74-.39,1.51-.58,2.31-.58.75,0,1.33.18,1.74.55s.62.88.62,1.55c0,.29-.04.54-.11.75s-.19.42-.34.62-.47.5-.96.93c-.39.34-.66.62-.78.84s-.19.52-.19.89v.19h-.76Zm-.29,1.74c0-.53.23-.8.7-.8.23,0,.4.07.52.21s.18.33.18.59-.06.45-.19.58-.3.21-.52.21c-.2,0-.37-.06-.5-.18s-.2-.33-.2-.61Z"/></g><rect class="cls-1" y="172" width="158" height="60"/><g><path d="m13.61,189.83c0,1.37-.35,2.45-1.04,3.23s-1.66,1.18-2.89,1.18-2.24-.39-2.92-1.16-1.03-1.86-1.03-3.27.34-2.48,1.03-3.24,1.66-1.15,2.93-1.15,2.19.39,2.88,1.17,1.04,1.86,1.04,3.23Zm-6.83,0c0,1.16.25,2.04.74,2.64s1.21.9,2.15.9,1.67-.3,2.15-.9.73-1.48.73-2.64-.24-2.03-.72-2.62-1.2-.89-2.14-.89-1.67.3-2.17.9-.74,1.47-.74,2.62Z"/><path d="m19.52,192.37c0,.6-.22,1.06-.67,1.38s-1.07.49-1.88.49c-.85,0-1.52-.13-1.99-.4v-.9c.31.16.64.28.99.37s.69.13,1.02.13c.51,0,.9-.08,1.17-.24s.41-.41.41-.74c0-.25-.11-.46-.33-.64s-.64-.39-1.27-.63c-.6-.22-1.02-.42-1.27-.58s-.44-.35-.56-.57-.18-.46-.18-.76c0-.52.21-.94.64-1.24s1.01-.45,1.75-.45c.69,0,1.37.14,2.03.42l-.35.79c-.64-.27-1.23-.4-1.75-.4-.46,0-.81.07-1.04.22s-.35.34-.35.6c0,.17.04.32.13.44s.23.24.42.35.57.27,1.12.47c.76.28,1.28.56,1.54.84s.4.63.4,1.06Z"/><path d="m27.21,194.24c-.42,0-.8-.08-1.15-.23s-.64-.39-.87-.71h-.07c.05.38.07.73.07,1.07v2.64h-.97v-9.3h.79l.13.88h.05c.25-.35.54-.61.87-.76s.71-.23,1.14-.23c.85,0,1.51.29,1.97.87s.69,1.4.69,2.45-.24,1.87-.71,2.46-1.12.88-1.96.88Zm-.14-5.83c-.66,0-1.13.18-1.42.54s-.44.94-.45,1.73v.22c0,.9.15,1.55.45,1.94s.78.58,1.45.58c.55,0,.99-.22,1.3-.67s.47-1.07.47-1.86-.16-1.42-.47-1.84-.76-.64-1.33-.64Z"/><path d="m34.5,187.58c.29,0,.54.02.77.07l-.13.9c-.27-.06-.5-.09-.7-.09-.52,0-.96.21-1.33.63s-.55.95-.55,1.58v3.45h-.97v-6.42h.8l.11,1.19h.05c.24-.42.53-.74.86-.97s.71-.34,1.11-.34Z"/><path d="m42.01,190.9c0,1.05-.26,1.86-.79,2.45s-1.26.88-2.19.88c-.57,0-1.08-.13-1.53-.4s-.79-.66-1.03-1.16-.36-1.09-.36-1.77c0-1.05.26-1.86.79-2.45s1.25-.88,2.18-.88,1.61.3,2.14.9.79,1.41.79,2.43Zm-4.89,0c0,.82.16,1.45.49,1.88s.81.64,1.45.64,1.12-.21,1.45-.64.5-1.05.5-1.88-.17-1.44-.5-1.86-.82-.64-1.46-.64-1.12.21-1.44.63-.49,1.04-.49,1.87Z"/><path d="m42.94,197c-.37,0-.67-.05-.9-.15v-.79c.27.08.54.12.8.12.3,0,.53-.08.67-.25s.21-.42.21-.76v-7.48h.97v7.41c0,1.27-.58,1.9-1.75,1.9Zm.7-11.04c0-.22.05-.39.16-.49s.25-.16.41-.16.29.05.4.16.17.27.17.49-.06.38-.17.49-.25.16-.4.16c-.16,0-.3-.05-.41-.16s-.16-.27-.16-.49Z"/><path d="m49.47,194.24c-.95,0-1.7-.29-2.25-.87s-.82-1.38-.82-2.41.25-1.86.76-2.47,1.19-.91,2.05-.91c.8,0,1.44.26,1.91.79s.7,1.23.7,2.09v.62h-4.42c.02.75.21,1.33.57,1.72s.87.59,1.53.59c.69,0,1.38-.14,2.05-.43v.87c-.34.15-.67.25-.98.32s-.68.1-1.11.1Zm-.26-5.84c-.52,0-.93.17-1.23.5s-.49.8-.54,1.39h3.36c0-.61-.14-1.08-.41-1.41s-.66-.49-1.17-.49Z"/><path d="m55.56,193.43c.17,0,.34-.01.5-.04s.29-.05.38-.08v.74c-.11.05-.26.09-.47.13s-.39.05-.55.05c-1.24,0-1.86-.65-1.86-1.96v-3.82h-.92v-.47l.92-.4.41-1.37h.56v1.49h1.86v.76h-1.86v3.78c0,.39.09.68.28.89s.44.31.76.31Z"/><path d="m63.27,190.9c0,1.05-.26,1.86-.79,2.45s-1.26.88-2.19.88c-.57,0-1.08-.13-1.53-.4s-.79-.66-1.03-1.16-.36-1.09-.36-1.77c0-1.05.26-1.86.79-2.45s1.25-.88,2.18-.88,1.61.3,2.14.9.79,1.41.79,2.43Zm-4.89,0c0,.82.16,1.45.49,1.88s.81.64,1.45.64,1.12-.21,1.45-.64.5-1.05.5-1.88-.17-1.44-.5-1.86-.82-.64-1.46-.64-1.12.21-1.44.63-.49,1.04-.49,1.87Z"/><path d="m69.11,192.37c0,.6-.22,1.06-.67,1.38s-1.07.49-1.88.49c-.85,0-1.52-.13-1.99-.4v-.9c.31.16.64.28.99.37s.69.13,1.02.13c.51,0,.9-.08,1.17-.24s.41-.41.41-.74c0-.25-.11-.46-.33-.64s-.64-.39-1.27-.63c-.6-.22-1.02-.42-1.27-.58s-.44-.35-.56-.57-.18-.46-.18-.76c0-.52.21-.94.64-1.24s1.01-.45,1.75-.45c.69,0,1.37.14,2.03.42l-.35.79c-.64-.27-1.23-.4-1.75-.4-.46,0-.81.07-1.04.22s-.35.34-.35.6c0,.17.04.32.13.44s.23.24.42.35.57.27,1.12.47c.76.28,1.28.56,1.54.84s.4.63.4,1.06Z"/><path d="m78.18,193.26h-.05c-.45.65-1.12.98-2.02.98-.84,0-1.49-.29-1.96-.86s-.7-1.39-.7-2.45.23-1.88.7-2.47,1.12-.88,1.96-.88,1.54.32,2,.95h.08l-.04-.46-.02-.45v-2.61h.97v9.12h-.79l-.13-.86Zm-1.95.16c.66,0,1.15-.18,1.44-.54s.45-.94.45-1.75v-.21c0-.91-.15-1.56-.45-1.95s-.79-.58-1.45-.58c-.57,0-1.01.22-1.31.67s-.45,1.07-.45,1.88.15,1.44.45,1.86.74.63,1.32.63Z"/><path d="m83.88,194.24c-.95,0-1.7-.29-2.25-.87s-.82-1.38-.82-2.41.25-1.86.76-2.47,1.19-.91,2.05-.91c.8,0,1.44.26,1.91.79s.7,1.23.7,2.09v.62h-4.42c.02.75.21,1.33.57,1.72s.87.59,1.53.59c.69,0,1.38-.14,2.05-.43v.87c-.34.15-.67.25-.98.32s-.68.1-1.11.1Zm-.26-5.84c-.52,0-.93.17-1.23.5s-.49.8-.54,1.39h3.36c0-.61-.14-1.08-.41-1.41s-.66-.49-1.17-.49Z"/><path d="m95.16,192.37c0,.6-.22,1.06-.67,1.38s-1.07.49-1.88.49c-.85,0-1.52-.13-1.99-.4v-.9c.31.16.64.28.99.37s.69.13,1.02.13c.51,0,.9-.08,1.17-.24s.41-.41.41-.74c0-.25-.11-.46-.33-.64s-.64-.39-1.27-.63c-.6-.22-1.02-.42-1.27-.58s-.44-.35-.56-.57-.18-.46-.18-.76c0-.52.21-.94.64-1.24s1.01-.45,1.75-.45c.69,0,1.37.14,2.03.42l-.35.79c-.64-.27-1.23-.4-1.75-.4-.46,0-.81.07-1.04.22s-.35.34-.35.6c0,.17.04.32.13.44s.23.24.42.35.57.27,1.12.47c.76.28,1.28.56,1.54.84s.4.63.4,1.06Z"/><path d="m102.28,190.9c0,1.05-.26,1.86-.79,2.45s-1.26.88-2.19.88c-.57,0-1.08-.13-1.53-.4s-.79-.66-1.03-1.16-.36-1.09-.36-1.77c0-1.05.26-1.86.79-2.45s1.25-.88,2.18-.88,1.61.3,2.14.9.79,1.41.79,2.43Zm-4.89,0c0,.82.16,1.45.49,1.88s.81.64,1.45.64,1.12-.21,1.45-.64.5-1.05.5-1.88-.17-1.44-.5-1.86-.82-.64-1.46-.64-1.12.21-1.44.63-.49,1.04-.49,1.87Z"/><path d="m106.55,194.24c-.93,0-1.65-.29-2.16-.86s-.76-1.38-.76-2.43.26-1.9.78-2.49,1.25-.88,2.21-.88c.31,0,.62.03.93.1s.55.14.73.23l-.3.83c-.21-.09-.45-.16-.7-.21s-.48-.08-.67-.08c-1.3,0-1.96.83-1.96,2.5,0,.79.16,1.39.48,1.82s.79.63,1.42.63c.54,0,1.08-.12,1.65-.35v.86c-.43.22-.97.33-1.62.33Z"/><path d="m109.62,185.96c0-.22.05-.39.16-.49s.25-.16.41-.16.29.05.4.16.17.27.17.49-.06.38-.17.49-.25.16-.4.16c-.16,0-.3-.05-.41-.16s-.16-.27-.16-.49Zm1.05,8.16h-.97v-6.42h.97v6.42Z"/><path d="m115.45,194.24c-.95,0-1.7-.29-2.25-.87s-.82-1.38-.82-2.41.25-1.86.76-2.47,1.19-.91,2.05-.91c.8,0,1.44.26,1.91.79s.7,1.23.7,2.09v.62h-4.42c.02.75.21,1.33.57,1.72s.87.59,1.53.59c.69,0,1.38-.14,2.05-.43v.87c-.34.15-.67.25-.98.32s-.68.1-1.11.1Zm-.26-5.84c-.52,0-.93.17-1.23.5s-.49.8-.54,1.39h3.36c0-.61-.14-1.08-.41-1.41s-.66-.49-1.17-.49Z"/><path d="m123.84,193.26h-.05c-.45.65-1.12.98-2.02.98-.84,0-1.49-.29-1.96-.86s-.7-1.39-.7-2.45.23-1.88.7-2.47,1.12-.88,1.96-.88,1.54.32,2,.95h.08l-.04-.46-.02-.45v-2.61h.97v9.12h-.79l-.13-.86Zm-1.95.16c.66,0,1.15-.18,1.44-.54s.45-.94.45-1.75v-.21c0-.91-.15-1.56-.45-1.95s-.79-.58-1.45-.58c-.57,0-1.01.22-1.31.67s-.45,1.07-.45,1.88.15,1.44.45,1.86.74.63,1.32.63Z"/><path d="m130.77,194.12l-.19-.91h-.05c-.32.4-.64.67-.96.82s-.72.21-1.19.21c-.64,0-1.14-.16-1.5-.49s-.54-.79-.54-1.4c0-1.3,1.04-1.98,3.11-2.04l1.09-.04v-.4c0-.5-.11-.88-.33-1.12s-.56-.36-1.04-.36c-.54,0-1.14.16-1.82.49l-.3-.74c.32-.17.66-.31,1.04-.4s.75-.15,1.13-.15c.77,0,1.33.17,1.7.51s.55.88.55,1.63v4.38h-.72Zm-2.2-.69c.61,0,1.08-.17,1.43-.5s.52-.8.52-1.39v-.58l-.97.04c-.77.03-1.33.15-1.67.36s-.51.54-.51.99c0,.35.11.62.32.8s.51.28.89.28Z"/><path d="m137.87,193.26h-.05c-.45.65-1.12.98-2.02.98-.84,0-1.49-.29-1.96-.86s-.7-1.39-.7-2.45.23-1.88.7-2.47,1.12-.88,1.96-.88,1.54.32,2,.95h.08l-.04-.46-.02-.45v-2.61h.97v9.12h-.79l-.13-.86Zm-1.95.16c.66,0,1.15-.18,1.44-.54s.45-.94.45-1.75v-.21c0-.91-.15-1.56-.45-1.95s-.79-.58-1.45-.58c-.57,0-1.01.22-1.31.67s-.45,1.07-.45,1.88.15,1.44.45,1.86.74.63,1.32.63Z"/><path d="m143.56,194.24c-.95,0-1.7-.29-2.25-.87s-.82-1.38-.82-2.41.25-1.86.76-2.47,1.19-.91,2.05-.91c.8,0,1.44.26,1.91.79s.7,1.23.7,2.09v.62h-4.42c.02.75.21,1.33.57,1.72s.87.59,1.53.59c.69,0,1.38-.14,2.05-.43v.87c-.34.15-.67.25-.98.32s-.68.1-1.11.1Zm-.26-5.84c-.52,0-.93.17-1.23.5s-.49.8-.54,1.39h3.36c0-.61-.14-1.08-.41-1.41s-.66-.49-1.17-.49Z"/><path d="m8.74,208.64c-.95,0-1.7-.29-2.25-.87s-.82-1.38-.82-2.41.25-1.86.76-2.47,1.19-.91,2.05-.91c.8,0,1.44.27,1.91.79s.7,1.23.7,2.09v.62h-4.42c.02.75.21,1.33.57,1.72s.87.59,1.53.59c.69,0,1.38-.14,2.05-.43v.87c-.34.15-.67.26-.98.32s-.68.1-1.11.1Zm-.26-5.84c-.52,0-.93.17-1.23.5s-.49.8-.54,1.39h3.36c0-.61-.14-1.08-.41-1.41s-.66-.49-1.17-.49Z"/><path d="m20.95,208.52v-4.18c0-.51-.11-.89-.33-1.15s-.56-.38-1.02-.38c-.61,0-1.05.17-1.34.52s-.43.88-.43,1.61v3.59h-.97v-4.18c0-.51-.11-.89-.33-1.15s-.56-.38-1.03-.38c-.61,0-1.06.18-1.34.55s-.42.96-.42,1.79v3.37h-.97v-6.42h.79l.16.88h.05c.18-.31.44-.56.78-.73s.71-.26,1.12-.26c1,0,1.66.36,1.97,1.09h.05c.19-.34.47-.6.83-.8s.78-.29,1.24-.29c.73,0,1.27.19,1.63.56s.54.97.54,1.79v4.19h-.97Z"/><path d="m31.41,207.66h-.05c-.45.65-1.12.98-2.02.98-.84,0-1.49-.29-1.96-.86s-.7-1.39-.7-2.45.23-1.88.7-2.47,1.12-.88,1.96-.88,1.54.32,2,.95h.08l-.04-.46-.02-.45v-2.61h.97v9.12h-.79l-.13-.86Zm-1.95.16c.66,0,1.15-.18,1.44-.54s.45-.95.45-1.75v-.21c0-.91-.15-1.56-.45-1.95s-.79-.58-1.45-.58c-.57,0-1.01.22-1.31.67s-.45,1.07-.45,1.88.15,1.44.45,1.86.74.63,1.32.63Z"/><path d="m34.31,200.36c0-.22.05-.38.16-.49s.25-.16.41-.16.29.05.4.16.17.27.17.49-.06.38-.17.49-.25.16-.4.16c-.16,0-.3-.05-.41-.16s-.16-.27-.16-.49Zm1.05,8.16h-.97v-6.42h.97v6.42Z"/><path d="m41.57,206.77c0,.6-.22,1.06-.67,1.38s-1.07.49-1.88.49c-.85,0-1.52-.13-1.99-.4v-.9c.31.16.64.28.99.37s.69.13,1.02.13c.51,0,.9-.08,1.17-.24s.41-.41.41-.74c0-.25-.11-.46-.33-.64s-.64-.39-1.27-.63c-.6-.22-1.02-.42-1.27-.58s-.44-.36-.56-.57-.18-.46-.18-.76c0-.52.21-.94.64-1.24s1.01-.46,1.75-.46c.69,0,1.37.14,2.03.42l-.35.79c-.64-.27-1.23-.4-1.75-.4-.46,0-.81.07-1.04.22s-.35.34-.35.6c0,.17.04.32.13.44s.23.24.42.35.57.27,1.12.47c.76.28,1.28.56,1.54.84s.4.63.4,1.06Z"/><path d="m46.14,208.64c-.42,0-.8-.08-1.15-.23s-.64-.39-.87-.71h-.07c.05.38.07.73.07,1.07v2.64h-.97v-9.3h.79l.13.88h.05c.25-.35.54-.61.87-.76s.71-.23,1.14-.23c.85,0,1.51.29,1.97.87s.69,1.4.69,2.45-.24,1.88-.71,2.46-1.12.88-1.96.88Zm-.14-5.83c-.66,0-1.13.18-1.42.54s-.44.94-.45,1.73v.22c0,.9.15,1.55.45,1.94s.78.58,1.45.58c.55,0,.99-.22,1.3-.67s.47-1.07.47-1.86-.16-1.41-.47-1.84-.76-.64-1.33-.64Z"/><path d="m51.42,202.1v4.17c0,.52.12.91.36,1.17s.61.39,1.12.39c.67,0,1.16-.18,1.47-.55s.47-.97.47-1.8v-3.38h.97v6.42h-.8l-.14-.86h-.05c-.2.32-.48.56-.83.73s-.76.25-1.21.25c-.78,0-1.37-.19-1.75-.56s-.58-.96-.58-1.78v-4.2h.98Z"/><path d="m59.95,207.83c.17,0,.34-.01.5-.04s.29-.05.38-.08v.74c-.11.05-.26.09-.47.13s-.39.05-.55.05c-1.24,0-1.86-.65-1.86-1.96v-3.82h-.92v-.47l.92-.4.41-1.37h.56v1.49h1.86v.76h-1.86v3.78c0,.39.09.68.28.89s.44.31.76.31Z"/><path d="m66.06,208.52l-.19-.91h-.05c-.32.4-.64.68-.96.82s-.72.21-1.19.21c-.64,0-1.14-.16-1.5-.49s-.54-.79-.54-1.4c0-1.3,1.04-1.98,3.11-2.04l1.09-.04v-.4c0-.5-.11-.88-.33-1.12s-.56-.36-1.04-.36c-.54,0-1.14.16-1.82.49l-.3-.74c.32-.17.66-.31,1.04-.4s.75-.15,1.13-.15c.77,0,1.33.17,1.7.51s.55.88.55,1.63v4.38h-.72Zm-2.2-.69c.61,0,1.08-.17,1.43-.5s.52-.8.52-1.39v-.58l-.97.04c-.77.03-1.33.15-1.67.36s-.51.54-.51.99c0,.35.11.62.32.8s.51.28.89.28Z"/><path d="m74.89,208.64c-.42,0-.8-.08-1.15-.23s-.64-.39-.87-.71h-.07c.05.38.07.73.07,1.07v2.64h-.97v-9.3h.79l.13.88h.05c.25-.35.54-.61.87-.76s.71-.23,1.14-.23c.85,0,1.51.29,1.97.87s.69,1.4.69,2.45-.24,1.88-.71,2.46-1.12.88-1.96.88Zm-.14-5.83c-.66,0-1.13.18-1.42.54s-.44.94-.45,1.73v.22c0,.9.15,1.55.45,1.94s.78.58,1.45.58c.55,0,.99-.22,1.3-.67s.47-1.07.47-1.86-.16-1.41-.47-1.84-.76-.64-1.33-.64Z"/><path d="m83.21,208.52l-.19-.91h-.05c-.32.4-.64.68-.96.82s-.72.21-1.19.21c-.64,0-1.14-.16-1.5-.49s-.54-.79-.54-1.4c0-1.3,1.04-1.98,3.11-2.04l1.09-.04v-.4c0-.5-.11-.88-.33-1.12s-.56-.36-1.04-.36c-.54,0-1.14.16-1.82.49l-.3-.74c.32-.17.66-.31,1.04-.4s.75-.15,1.13-.15c.77,0,1.33.17,1.7.51s.55.88.55,1.63v4.38h-.72Zm-2.2-.69c.61,0,1.08-.17,1.43-.5s.52-.8.52-1.39v-.58l-.97.04c-.77.03-1.33.15-1.67.36s-.51.54-.51.99c0,.35.11.62.32.8s.51.28.89.28Z"/><path d="m86.84,202.1v4.17c0,.52.12.91.36,1.17s.61.39,1.12.39c.67,0,1.16-.18,1.47-.55s.47-.97.47-1.8v-3.38h.97v6.42h-.8l-.14-.86h-.05c-.2.32-.48.56-.83.73s-.76.25-1.21.25c-.78,0-1.37-.19-1.75-.56s-.58-.96-.58-1.78v-4.2h.98Z"/><path d="m95.37,207.83c.17,0,.34-.01.5-.04s.29-.05.38-.08v.74c-.11.05-.26.09-.47.13s-.39.05-.55.05c-1.24,0-1.86-.65-1.86-1.96v-3.82h-.92v-.47l.92-.4.41-1.37h.56v1.49h1.86v.76h-1.86v3.78c0,.39.09.68.28.89s.44.31.76.31Z"/><path d="m101.48,208.52l-.19-.91h-.05c-.32.4-.64.68-.96.82s-.72.21-1.19.21c-.64,0-1.14-.16-1.5-.49s-.54-.79-.54-1.4c0-1.3,1.04-1.98,3.11-2.04l1.09-.04v-.4c0-.5-.11-.88-.33-1.12s-.56-.36-1.04-.36c-.54,0-1.14.16-1.82.49l-.3-.74c.32-.17.66-.31,1.04-.4s.75-.15,1.13-.15c.77,0,1.33.17,1.7.51s.55.88.55,1.63v4.38h-.72Zm-2.2-.69c.61,0,1.08-.17,1.43-.5s.52-.8.52-1.39v-.58l-.97.04c-.77.03-1.33.15-1.67.36s-.51.54-.51.99c0,.35.11.62.32.8s.51.28.89.28Z"/><path d="m112.39,208.52v-4.18c0-.51-.11-.89-.33-1.15s-.56-.38-1.02-.38c-.61,0-1.05.17-1.34.52s-.43.88-.43,1.61v3.59h-.97v-4.18c0-.51-.11-.89-.33-1.15s-.56-.38-1.03-.38c-.61,0-1.06.18-1.34.55s-.42.96-.42,1.79v3.37h-.97v-6.42h.79l.16.88h.05c.18-.31.44-.56.78-.73s.71-.26,1.12-.26c1,0,1.66.36,1.97,1.09h.05c.19-.34.47-.6.83-.8s.78-.29,1.24-.29c.73,0,1.27.19,1.63.56s.54.97.54,1.79v4.19h-.97Z"/><path d="m124.03,205.3c0,1.05-.26,1.87-.79,2.45s-1.26.88-2.19.88c-.57,0-1.08-.13-1.53-.4s-.79-.66-1.03-1.16-.36-1.09-.36-1.77c0-1.05.26-1.86.79-2.45s1.25-.88,2.18-.88,1.61.3,2.14.9.79,1.41.79,2.43Zm-4.89,0c0,.82.16,1.45.49,1.88s.81.64,1.45.64,1.12-.21,1.45-.64.5-1.05.5-1.88-.17-1.44-.5-1.86-.82-.64-1.46-.64-1.12.21-1.44.63-.49,1.04-.49,1.87Z"/><path d="m129.88,206.77c0,.6-.22,1.06-.67,1.38s-1.07.49-1.88.49c-.85,0-1.52-.13-1.99-.4v-.9c.31.16.64.28.99.37s.69.13,1.02.13c.51,0,.9-.08,1.17-.24s.41-.41.41-.74c0-.25-.11-.46-.33-.64s-.64-.39-1.27-.63c-.6-.22-1.02-.42-1.27-.58s-.44-.36-.56-.57-.18-.46-.18-.76c0-.52.21-.94.64-1.24s1.01-.46,1.75-.46c.69,0,1.37.14,2.03.42l-.35.79c-.64-.27-1.23-.4-1.75-.4-.46,0-.81.07-1.04.22s-.35.34-.35.6c0,.17.04.32.13.44s.23.24.42.35.57.27,1.12.47c.76.28,1.28.56,1.54.84s.4.63.4,1.06Z"/><path d="m9.02,223.04c-.42,0-.8-.08-1.15-.23s-.64-.39-.87-.71h-.07c.05.38.07.73.07,1.07v2.64h-.97v-9.3h.79l.13.88h.05c.25-.35.54-.61.87-.76s.71-.23,1.14-.23c.85,0,1.51.29,1.97.87s.69,1.4.69,2.45-.24,1.87-.71,2.46-1.12.88-1.96.88Zm-.14-5.83c-.66,0-1.13.18-1.42.54s-.44.94-.45,1.73v.22c0,.9.15,1.55.45,1.94s.78.58,1.45.58c.55,0,.99-.22,1.3-.67s.47-1.07.47-1.86-.16-1.42-.47-1.84-.76-.64-1.33-.64Z"/><path d="m16.31,216.38c.29,0,.54.02.77.07l-.13.9c-.27-.06-.5-.09-.7-.09-.52,0-.96.21-1.33.63s-.55.95-.55,1.58v3.45h-.97v-6.42h.8l.11,1.19h.05c.24-.42.53-.74.86-.97s.71-.34,1.11-.34Z"/><path d="m23.83,219.7c0,1.05-.26,1.86-.79,2.45s-1.26.88-2.19.88c-.57,0-1.08-.13-1.53-.4s-.79-.66-1.03-1.16-.36-1.09-.36-1.77c0-1.05.26-1.86.79-2.45s1.25-.88,2.18-.88,1.61.3,2.14.9.79,1.41.79,2.43Zm-4.89,0c0,.82.16,1.45.49,1.88s.81.64,1.45.64,1.12-.21,1.45-.64.5-1.05.5-1.88-.17-1.44-.5-1.86-.82-.64-1.46-.64-1.12.21-1.44.63-.49,1.04-.49,1.87Z"/><path d="m28.52,216.39c.84,0,1.5.29,1.97.86s.7,1.39.7,2.45-.24,1.87-.71,2.46-1.12.88-1.96.88c-.42,0-.8-.08-1.15-.23s-.64-.39-.87-.71h-.07l-.21.83h-.7v-9.12h.97v2.21c0,.5-.02.94-.05,1.34h.05c.45-.64,1.12-.96,2.02-.96Zm-.14.81c-.66,0-1.14.19-1.44.57s-.44,1.02-.44,1.92.15,1.55.45,1.94.78.58,1.45.58c.6,0,1.04-.22,1.34-.65s.44-1.06.44-1.88-.15-1.46-.44-1.87-.75-.62-1.36-.62Z"/><path d="m33.86,222.92h-.97v-9.12h.97v9.12Z"/><path d="m38.63,223.04c-.95,0-1.7-.29-2.25-.87s-.82-1.38-.82-2.41.25-1.86.76-2.47,1.19-.91,2.05-.91c.8,0,1.44.26,1.91.79s.7,1.23.7,2.09v.62h-4.42c.02.75.21,1.33.57,1.72s.87.59,1.53.59c.69,0,1.38-.14,2.05-.43v.87c-.34.15-.67.25-.98.32s-.68.1-1.11.1Zm-.26-5.84c-.52,0-.93.17-1.23.5s-.49.8-.54,1.39h3.36c0-.61-.14-1.08-.41-1.41s-.66-.49-1.17-.49Z"/><path d="m50.84,222.92v-4.18c0-.51-.11-.9-.33-1.15s-.56-.38-1.02-.38c-.61,0-1.05.17-1.34.52s-.43.88-.43,1.61v3.59h-.97v-4.18c0-.51-.11-.9-.33-1.15s-.56-.38-1.03-.38c-.61,0-1.06.18-1.34.55s-.42.96-.42,1.8v3.37h-.97v-6.42h.79l.16.88h.05c.18-.31.44-.56.78-.73s.71-.26,1.12-.26c1,0,1.66.36,1.97,1.09h.05c.19-.34.47-.6.83-.8s.78-.29,1.24-.29c.73,0,1.27.19,1.63.56s.54.97.54,1.79v4.19h-.97Z"/><path d="m57.76,222.92l-.19-.91h-.05c-.32.4-.64.67-.96.82s-.72.21-1.19.21c-.64,0-1.14-.16-1.5-.49s-.54-.79-.54-1.4c0-1.3,1.04-1.98,3.11-2.04l1.09-.04v-.4c0-.5-.11-.88-.33-1.12s-.56-.36-1.04-.36c-.54,0-1.14.16-1.82.49l-.3-.74c.32-.17.66-.31,1.04-.4s.75-.15,1.13-.15c.77,0,1.33.17,1.7.51s.55.88.55,1.63v4.38h-.72Zm-2.2-.69c.61,0,1.08-.17,1.43-.5s.52-.8.52-1.39v-.58l-.97.04c-.77.03-1.33.15-1.67.36s-.51.54-.51.99c0,.35.11.62.32.8s.51.28.89.28Z"/><path d="m64.63,221.17c0,.6-.22,1.06-.67,1.38s-1.07.49-1.88.49c-.85,0-1.52-.13-1.99-.4v-.9c.31.16.64.28.99.37s.69.13,1.02.13c.51,0,.9-.08,1.17-.24s.41-.41.41-.74c0-.25-.11-.46-.33-.64s-.64-.39-1.27-.63c-.6-.22-1.02-.42-1.27-.58s-.44-.35-.56-.57-.18-.46-.18-.76c0-.52.21-.94.64-1.24s1.01-.45,1.75-.45c.69,0,1.37.14,2.03.42l-.35.79c-.64-.27-1.23-.4-1.75-.4-.46,0-.81.07-1.04.22s-.35.34-.35.6c0,.17.04.32.13.44s.23.24.42.35.57.27,1.12.47c.76.28,1.28.56,1.54.84s.4.63.4,1.06Z"/><path d="m66.88,220.56v-.32c0-.46.07-.83.21-1.13s.4-.61.79-.93c.53-.45.87-.79,1-1.01s.21-.5.21-.82c0-.4-.13-.71-.38-.92s-.62-.33-1.1-.33c-.31,0-.61.04-.9.11s-.63.2-1.01.4l-.35-.79c.74-.39,1.51-.58,2.31-.58.75,0,1.33.18,1.74.55s.62.88.62,1.55c0,.29-.04.54-.11.75s-.19.42-.34.62-.47.5-.96.93c-.39.34-.66.62-.78.84s-.19.52-.19.89v.19h-.76Zm-.29,1.74c0-.53.23-.8.7-.8.23,0,.4.07.52.21s.18.33.18.59-.06.44-.19.58-.3.21-.52.21c-.2,0-.37-.06-.5-.18s-.2-.33-.2-.61Z"/></g><path class="cls-2" d="m301.96,34h-1.81v-4.96l.02-.81.03-.89c-.3.3-.51.5-.63.59l-.98.79-.87-1.09,2.76-2.2h1.49v8.57Z"/><path class="cls-2" d="m363.47,31h-5.99v-1.26l2.15-2.17c.64-.65,1.05-1.1,1.25-1.36s.34-.49.42-.7.13-.44.13-.67c0-.34-.09-.6-.28-.77s-.44-.25-.76-.25c-.33,0-.65.08-.97.23s-.64.37-.98.65l-.98-1.17c.42-.36.77-.61,1.05-.76s.58-.26.91-.34.7-.12,1.1-.12c.54,0,1.01.1,1.42.29s.73.47.96.82.34.75.34,1.21c0,.39-.07.76-.21,1.11s-.35.7-.64,1.06-.8.88-1.54,1.55l-1.1,1.04v.08h3.73v1.52Z"/><path class="cls-2" d="m366.13,77.35c0,.54-.16.99-.49,1.37s-.78.63-1.37.77v.04c.69.09,1.21.3,1.57.63s.53.78.53,1.35c0,.82-.3,1.47-.9,1.92s-1.45.69-2.56.69c-.93,0-1.75-.15-2.47-.46v-1.54c.33.17.7.3,1.1.41s.79.16,1.18.16c.6,0,1.04-.1,1.32-.3s.43-.53.43-.98c0-.4-.16-.69-.49-.86s-.85-.25-1.57-.25h-.65v-1.39h.66c.66,0,1.15-.09,1.46-.26s.46-.47.46-.89c0-.65-.41-.97-1.22-.97-.28,0-.57.05-.86.14s-.61.26-.97.49l-.84-1.25c.78-.56,1.71-.84,2.79-.84.89,0,1.59.18,2.1.54s.77.86.77,1.5Z"/><path class="cls-2" d="m329.66,118.22h-1.03v1.78h-1.77v-1.78h-3.66v-1.26l3.76-5.53h1.67v5.38h1.03v1.41Zm-2.8-1.41v-1.45c0-.24,0-.59.03-1.05s.04-.73.05-.8h-.05c-.14.32-.32.63-.52.94l-1.57,2.37h2.06Z"/></svg>