
<svg xmlns="http://www.w3.org/2000/svg" version="1.1" xmlns:xlink="http://www.w3.org/1999/xlink" preserveAspectRatio="none" x="0px" y="0px" width="290px" height="390px" viewBox="0 0 290 390">
<defs>
<g id="Layer0_1_FILL">
<path fill="#053336" stroke="none" d="
M 198.75 66.9
Q 198.55 66.35 198.25 65.9 198 65.45 197.7 65.1 197.35 64.65 197 64.3 196.6 63.95 196.2 63.65 196.3 63.65 196.4 63.6 196.45 63.55 196.5 63.6 196.45 63.4 196.3 63.25
L 193.45 61.15
Q 150.15 68.95 106.95 76.65
L 78.75 81.8
Q 65.25 84.5 51.9 87.7 49.85 88.25 48.35 89.5 46.45 91.3 45.25 93.45 45.05 93.8 44.95 94.2 44.7 94.7 44.35 95.2
L 44.5 95.95 44.25 96.85
Q 44.3 97.05 44.4 97.15 44.6 97.35 44.9 97.45 45 97.4 45.1 97.35
L 82.45 306.25
Q 82.4 306.5 82.4 306.75 82.4 310.75 84.45 314 84.7 314.45 85.1 314.9 85.35 315.25 85.75 315.6 86.1 315.9 86.35 316.25
L 85.3 316.55 90.25 318.55 139.9 309.6
Q 164.25 305.1 188.85 300.8 210 297.2 230.8 292.15 232.75 291.5 234.2 290.2 236.15 288.5 237.45 286.4 237.6 286.05 237.75 285.65 238 285.2 238.3 284.7
L 238.2 283.9 238.45 283
Q 238.4 282.85 238.25 282.8 238.05 282.55 237.8 282.55 237.65 282.55 237.55 282.6
L 200.25 73.65
Q 200.3 73.4 200.3 73.15 200.35 69.8 198.75 66.9
M 191.4 73
L 191.55 73 229.9 286.1 229.75 286.1 191.4 73
M 191.15 71.5
L 191.05 71.05 172.2 74.4 172 73.15
Q 171.75 71.85 171.3 71.4 170.4 70.45 168.05 71.1 167.85 71.2 167.65 71.3 167.65 71.2 167.6 71.1 167.6 70.9 167.6 70.7 167.55 70.55 167.5 70.35 167.45 70.15 167.4 69.95 167.35 69.75 167.35 69.55 167.3 69.35 167.3 69.15 167.25 69.05 167.2 68.85 178.45 66.8 189.8 65.1 191.7 64.85 193.7 65.65 194.3 65.75 194.8 66.15 195.55 66.65 196.05 67.4 196.55 67.85 196.95 68.45 197.3 69.1 197.55 69.85 197.95 70.6 198.2 71.45 197.6 72.6 197.8 73.95 198.35 77.55 198.95 81.1 199.7 85.45 200.45 89.85 201.45 95.5 202.5 101.3 204.4 111.45 206.2 121.55 208.05 131.6 209.85 141.75 210.8 147.15 211.75 152.5 212.65 157.25 213.45 161.95 215.3 172.05 217.15 182.15 218.95 192.25 220.7 202.35 221.25 205.3 221.75 208.1 222.15 210.35 222.5 212.55 223.5 217.6 224.4 222.6 224.95 225.3 225.5 228 226.85 235.35 228.25 242.75 230.05 252.8 231.85 262.95 233.3 271.05 235 279.15 235.2 280.15 235.4 281.15 235.5 281.55 235.6 281.9 235.75 282.3 235.85 282.7 235.95 282.9 236 283.1 236 283.3 236.05 283.45 236.15 283.65 236.25 283.85
L 236.9 284.15 233.35 288.45
Q 232 289.25 230.4 289.8 221.55 292.8 212.05 294 204.15 295.35 196.25 296.75 186.15 298.45 176.15 300.2 170 301.3 163.9 302.4 157.8 303.5 151.65 304.6 145.55 305.65 139.35 306.75 127.75 308.85 116.15 310.9 104.55 312.95 92.9 315.05 90.2 315.1 88 313.75 87.2 313.25 86.6 312.6 86.1 312.05 85.75 311.5 85.55 311.15 85.4 310.85 85.2 310.5 85.1 310.1 84.75 309.25 84.45 308.45 84.95 307.25 84.8 305.9 84.35 302.35 83.75 298.75 82 288.7 80.1 278.55 78.25 268.45 76.45 258.35 74.75 248.8 73.05 239.25 72.9 238.7 72.85 238.1 71 228.05 69.15 217.9 67.35 207.8 65.55 197.7 63.75 187.6 61.95 177.55 60.15 167.35 58.2 157.3 56.3 147.25 54.45 137.15 52.65 127.05 50.8 116.95 49.35 108.8 47.6 100.75 47.4 99.85 47.25 98.75 47.15 98.35 47.05 97.95 46.85 97.55 46.75 97.2 46.7 97 46.65 96.8 46.65 96.6 46.6 96.4 46.5 96.25 46.4 96.05
L 45.75 95.75 49.3 91.45
Q 50.8 90.6 52.6 90 55.2 89 58 88.5 68.65 86.6 79.3 84.7 82.65 84.1 86.1 83.45 86.15 83.65 86.2 83.85
L 86.55 86.65 84.1 87.5 83.75 88.35 84.05 90.3 52.2 96.05 78.35 241.45 91.05 312 92.15 311.8 92.3 312.3 231.1 287.3 220.9 230.8 192.25 71.35 191.15 71.5
M 165.9 71.25
Q 165.95 71.45 165.95 71.65 141.75 76 117.6 80.35 117.65 80.4 117.65 80.5 112.8 81.4 107.95 82.25
L 88.6 85.85 88.1 83.1 107.45 79.6
Q 136.45 74.4 165.5 69.15
L 165.55 69.25
Q 165.55 69.45 165.6 69.7 165.6 69.85 165.65 70.05 165.65 70.3 165.7 70.45 165.75 70.7 165.8 70.85 165.85 71.05 165.9 71.25
M 167.75 73.25
L 167.8 73.25
Q 167.8 73.2 167.8 73.15 167.95 73.15 168.15 73.1 169.55 72.85 169.85 73 169.95 73.75 170.5 76.3 170.95 78.35 170.85 79.6 170.55 82.05 168.3 83.9 166.45 85.55 163.65 86.4 162.6 86.75 158.5 87.5 158.25 87.55 158 87.65 157.9 87.65 157.8 87.65 156.5 87.8 155.25 87.9 132.85 91.95 110.4 95.9 99.9 98.2 89.35 98.75 89.2 98.65 89.1 98.55
L 88.35 96.3 87.85 95.9 87.25 93.6 86.75 93.25 85.85 88.9 86.35 88.3 108.4 84.7
Q 113.25 83.85 118.1 83 142.35 78.65 166.7 74.25 167 74.15 167.35 74.05 167.45 73.85 167.6 73.7 167.65 73.5 167.75 73.25
M 172.6 76.7
L 172.55 76.35 190.45 73.15 219.05 231.95 228.7 285.75 94.6 309.9 94.7 310.4 93.5 310.6 93.45 310.05 93.1 310.15 80.9 242.4 54.85 97.55 84.35 92.25 84.85 95.15 85.5 95.85 85.85 97.85 87.9 101.55 110.85 98.3
Q 133.25 94.3 155.7 90.3 157.2 90 158.65 89.65 158.9 89.55 159.15 89.5
L 159.35 89.5
Q 162.2 89.1 163.65 88.8 165.95 88.25 167.7 87.45 169.7 86.45 171.1 84.85 172.65 83.1 172.95 81.1 173.1 79.6 172.6 76.7 Z"/>

<path fill="#FFFDF6" stroke="none" d="
M 129.95 256.1
L 121.2 255.75 80.9 242.4 93.1 310.15 93.45 310.05 93.5 310.6 94.7 310.4 94.6 309.9 228.7 285.75 219.05 231.95
Q 218.45 232.25 217.9 232.6 203.7 241.2 188.9 248.05 177.85 253.45 165.85 255.2 147.75 257.1 129.95 256.1 Z"/>

<path fill="#FFFFFF" stroke="none" d="
M 172.55 76.35
L 172.6 76.7
Q 173.1 79.6 172.95 81.1 172.65 83.1 171.1 84.85 169.7 86.45 167.7 87.45 165.95 88.25 163.65 88.8 162.2 89.1 159.35 89.5
L 159.15 89.5
Q 158.9 89.55 158.65 89.65 157.2 90 155.7 90.3 133.25 94.3 110.85 98.3
L 87.9 101.55 85.85 97.85 85.5 95.85 84.85 95.15 84.35 92.25 54.85 97.55 80.9 242.4 121.2 255.75 129.95 256.1
Q 147.75 257.1 165.85 255.2 177.85 253.45 188.9 248.05 203.7 241.2 217.9 232.6 218.45 232.25 219.05 231.95
L 190.45 73.15 172.55 76.35 Z"/>

<path fill="#D4D4D4" stroke="none" d="
M 167.8 73.25
L 167.75 73.25
Q 167.65 73.5 167.6 73.7 167.45 73.85 167.35 74.05 167 74.15 166.7 74.25 142.35 78.65 118.1 83 113.25 83.85 108.4 84.7
L 86.35 88.3 85.85 88.9 86.75 93.25 87.25 93.6 87.85 95.9 88.35 96.3 89.1 98.55
Q 89.2 98.65 89.35 98.75 99.9 98.2 110.4 95.9 132.85 91.95 155.25 87.9 156.5 87.8 157.8 87.65 157.9 87.65 158 87.65 158.25 87.55 158.5 87.5 162.6 86.75 163.65 86.4 166.45 85.55 168.3 83.9 170.55 82.05 170.85 79.6 170.95 78.35 170.5 76.3 169.95 73.75 169.85 73 169.55 72.85 168.15 73.1 167.95 73.15 167.8 73.15 167.8 73.2 167.8 73.25 Z"/>

<path fill="#B1B1B1" stroke="none" d="
M 165.95 71.65
Q 165.95 71.45 165.9 71.25 165.85 71.05 165.8 70.85 165.75 70.7 165.7 70.45 165.65 70.3 165.65 70.05 165.6 69.85 165.6 69.7 165.55 69.45 165.55 69.25
L 165.5 69.15
Q 136.45 74.4 107.45 79.6
L 88.1 83.1 88.6 85.85 107.95 82.25
Q 112.8 81.4 117.65 80.5 117.65 80.4 117.6 80.35 141.75 76 165.95 71.65 Z"/>

<path fill="#D69686" stroke="none" d="
M 78.35 241.45
L 73.05 239.25
Q 74.75 248.8 76.45 258.35 78.25 268.45 80.1 278.55 82 288.7 83.75 298.75 84.35 302.35 84.8 305.9 84.95 307.25 84.45 308.45 84.75 309.25 85.1 310.1 85.2 310.5 85.4 310.85 85.55 311.15 85.75 311.5 86.1 312.05 86.6 312.6 87.2 313.25 88 313.75 90.2 315.1 92.9 315.05 104.55 312.95 116.15 310.9 127.75 308.85 139.35 306.75 145.55 305.65 151.65 304.6 157.8 303.5 163.9 302.4 170 301.3 176.15 300.2 186.15 298.45 196.25 296.75 204.15 295.35 212.05 294 221.55 292.8 230.4 289.8 232 289.25 233.35 288.45
L 236.9 284.15 236.25 283.85
Q 236.15 283.65 236.05 283.45 236 283.3 236 283.1 235.95 282.9 235.85 282.7 235.75 282.3 235.6 281.9 235.5 281.55 235.4 281.15 235.2 280.15 235 279.15 233.3 271.05 231.85 262.95 230.05 252.8 228.25 242.75 226.85 235.35 225.5 228
L 220.9 230.8 231.1 287.3 92.3 312.3 92.15 311.8 91.05 312 78.35 241.45 Z"/>

<path fill="#D6AF86" stroke="none" d="
M 86.2 83.85
Q 86.15 83.65 86.1 83.45 82.65 84.1 79.3 84.7 68.65 86.6 58 88.5 55.2 89 52.6 90 50.8 90.6 49.3 91.45
L 45.75 95.75 46.4 96.05
Q 46.5 96.25 46.6 96.4 46.65 96.6 46.65 96.8 46.7 97 46.75 97.2 46.85 97.55 47.05 97.95 47.15 98.35 47.25 98.75 47.4 99.85 47.6 100.75 49.35 108.8 50.8 116.95 52.65 127.05 54.45 137.15 56.3 147.25 58.2 157.3 60.15 167.35 61.95 177.55 63.75 187.6 65.55 197.7 67.35 207.8 69.15 217.9 71 228.05 72.85 238.1 72.9 238.7 73.05 239.25
L 78.35 241.45 52.2 96.05 84.05 90.3 83.75 88.35 84.1 87.5 86.55 86.65 86.2 83.85
M 191.05 71.05
L 191.15 71.5 192.25 71.35 220.9 230.8 225.5 228
Q 224.95 225.3 224.4 222.6 223.5 217.6 222.5 212.55 222.15 210.35 221.75 208.1 221.25 205.3 220.7 202.35 218.95 192.25 217.15 182.15 215.3 172.05 213.45 161.95 212.65 157.25 211.75 152.5 210.8 147.15 209.85 141.75 208.05 131.6 206.2 121.55 204.4 111.45 202.5 101.3 201.45 95.5 200.45 89.85 199.7 85.45 198.95 81.1 198.35 77.55 197.8 73.95 197.6 72.6 198.2 71.45 197.95 70.6 197.55 69.85 197.3 69.1 196.95 68.45 196.55 67.85 196.05 67.4 195.55 66.65 194.8 66.15 194.3 65.75 193.7 65.65 191.7 64.85 189.8 65.1 178.45 66.8 167.2 68.85 167.25 69.05 167.3 69.15 167.3 69.35 167.35 69.55 167.35 69.75 167.4 69.95 167.45 70.15 167.5 70.35 167.55 70.55 167.6 70.7 167.6 70.9 167.6 71.1 167.65 71.2 167.65 71.3 167.85 71.2 168.05 71.1 170.4 70.45 171.3 71.4 171.75 71.85 172 73.15
L 172.2 74.4 191.05 71.05
M 191.55 73
L 191.4 73 229.75 286.1 229.9 286.1 191.55 73 Z"/>
</g>

<g id="Layer0_1_MEMBER_0_FILL">
<path fill="#D4D4D4" stroke="none" d="
M 217.55 96.65
L 217.55 86.05 69.2 86.05 69.2 96.65 217.55 96.65 Z"/>
</g>

<g id="Layer0_1_MEMBER_1_FILL">
<path fill="#D4D4D4" stroke="none" d="
M 217.55 96.65
L 217.55 86.05 69.2 86.05 69.2 96.65 217.55 96.65 Z"/>
</g>

<g id="Layer0_1_MEMBER_2_FILL">
<path fill="#D4D4D4" stroke="none" d="
M 217.55 96.65
L 217.55 86.05 69.2 86.05 69.2 96.65 217.55 96.65 Z"/>
</g>

<g id="Layer0_1_MEMBER_3_FILL">
<path fill="#D4D4D4" stroke="none" d="
M 217.55 96.65
L 217.55 86.05 69.2 86.05 69.2 96.65 217.55 96.65 Z"/>
</g>

<g id="Layer0_1_MEMBER_4_FILL">
<path fill="#D4D4D4" stroke="none" d="
M 217.55 96.65
L 217.55 86.05 69.2 86.05 69.2 96.65 217.55 96.65 Z"/>
</g>

<g id="Layer0_1_MEMBER_5_FILL">
<path fill="#576570" stroke="none" d="
M 99 292.15
L 100.25 299.1 217.8 277.95 216.55 271 99 292.15 Z"/>
</g>

<g id="Layer0_1_MEMBER_6_FILL">
<path fill="#D4D4D4" stroke="none" d="
M 217.55 96.65
L 217.55 86.05 69.2 86.05 69.2 96.65 217.55 96.65 Z"/>
</g>

<g id="Layer0_1_MEMBER_7_FILL">
<path fill="#D4D4D4" stroke="none" d="
M 217.55 96.65
L 217.55 86.05 69.2 86.05 69.2 96.65 217.55 96.65 Z"/>
</g>

<g id="Layer0_1_MEMBER_8_FILL">
<path fill="#D4D4D4" stroke="none" d="
M 217.55 96.65
L 217.55 86.05 69.2 86.05 69.2 96.65 217.55 96.65 Z"/>
</g>

<g id="Layer0_1_MEMBER_9_FILL">
<path fill="#D4D4D4" stroke="none" d="
M 217.55 96.65
L 217.55 86.05 69.2 86.05 69.2 96.65 217.55 96.65 Z"/>
</g>

<g id="Layer0_1_MEMBER_10_FILL">
<path fill="#D4D4D4" stroke="none" d="
M 217.55 96.65
L 217.55 86.05 69.2 86.05 69.2 96.65 217.55 96.65 Z"/>
</g>

<g id="Layer0_1_MEMBER_11_FILL">
<path fill="#D4D4D4" stroke="none" d="
M 217.55 96.65
L 217.55 86.05 69.2 86.05 69.2 96.65 217.55 96.65 Z"/>
</g>

<g id="Layer0_1_MEMBER_12_FILL">
<path fill="#576570" stroke="none" d="
M 99 292.15
L 100.25 299.1 217.8 277.95 216.55 271 99 292.15 Z"/>
</g>

<g id="Layer0_1_MEMBER_13_FILL">
<path fill="#D4D4D4" stroke="none" d="
M 217.55 96.65
L 217.55 86.05 69.2 86.05 69.2 96.65 217.55 96.65 Z"/>
</g>

<g id="Layer0_2_MEMBER_0_FILL">
<path fill="#DA9E8B" stroke="none" d="
M 700.35 530
Q 697.55 529.55 694 529.9 691.7 530.15 687.65 530.9 649.35 538.05 612.65 548.05 606.85 549.6 604.3 551.55 604.05 551.75 601.75 554 600.15 555.5 598.9 556.05 597.15 556.9 596.85 557.7 594.65 558.6 592.85 560.2 592.45 560.5 592.25 560.9 589.85 562.25 588.15 564.95 586.3046875 567.701171875 585.75 570.8 585.4671875 572.371484375 585.5 574 585.65 579.9 589.35 586.2
L 579.6 590.6
Q 578.3 591.2 577.85 591.7 576.95 592.7 577.45 593.65 577.85 594.6 579.75 594.7 588.25 595.5 596.55 595.3 597.75 596.7 599.3 598.35 603.15 602.45 605.2 605.1 605.05 605.3 605 605.65 604.05 610.95 603.95 613.15 603.85 614.9 604.35 615.95 604.8 616.85 606.25 618.35 606.3 618.45 607.4 620.45 608.1 621.75 608.9 622.3 609.45 622.65 610.45 622.9 611.7 623.15 612.05 623.3 612.55 623.5 613.4 624.1 614.3 624.7 614.8 624.9 615.55 625.25 616.4 625.15 616.7 625.1 617 625.05 618.05 626.9 618.55 627.75 619.2 628.85 620.35 630.6 620.15 630.65 619.95 630.85 618.3 632.1 617.6 632.8 616.35 633.95 615.85 635.2 615.4 636.2 615.3 638.1 615.3 640.05 615.65 641.2 616.1 642.6 617.55 644.5 620.15 648 623.9 650.6 625.5 651.75 627 652.25 625.35 653 624.6 653.9 623.55 655.05 623.35 656.7 623.15 658.35 623.95 659.8 624.5 660.75 626.4 662.45 630.15 665.6 632.2 666.95 635.6 669.15 638.8 669.95 639.1015625 670.03046875 639.35 670.05 639.7912109375 670.15 640.15 670.15 641.85 674.6 643.15 678.4 644.25 681.75 646.75 689.9 647.7623046875 693.179296875 648.6 695.8 649.68828125 699.1546875 650.5 701.45 652.595703125 707.4111328125 656.6 716.9 656.894921875 717.630078125 657.2 718.35 659.15 723 660.35 725.4 662.2 729.25 664.3 732 665.45 733.6 667.25 735.45 667.1 735.75 667.15 736.05 667.2 736.45 667.85 737.35
L 669.7 739.7
Q 669.65 740.35 670.05 741
L 677.6 753.65
Q 682.05 761.15 684.95 764.5 686.2 765.85 688.75 768.3 691.4 770.85 692.55 772.15 694.4 774.3 696.55 777.5 697.05 778.25 697.8 779.4 712 797.7 718.65 819.95 726.85 847.65 733.55 875.95 735.1 875.9 736.6 875.95 748.4818359375 875.962109375 760.35 875.95 797.719921875 876.012109375 835.05 876.05 836.35 876.05 837.7 876.05 837.55 875.15 837.25 874.2 835.65 869.3 834.45 864.45 827.7 836.75 820.05 809.05 815.0453125 790.9517578125 809.5 773.15 805.543359375 760.375390625 801.3 747.75 800.05 744.8 799.55 743.25 798.75 740.85 798.65 737.1 798.7 732.95 798.55 730.8 798.5 729.95 798.4 728.95 795.75 717.9 794.55 706.85 791.15 674.65 793.5 642.65 796.6 622.05 796.7 615 796.9 605.1 793.05 600.1 791.05 597.55 787.4 595.6 785.15 594.4 780.6 592.7 779.65 592.4 778.8 592.6 778.4 592.7 778.25 592.85 778.1 592.3 777.95 591.75
L 776.5 585.75
Q 775.5 581.65 774.2 579.85 772.9 578.1 769.15 575.85 763.25 572.4 761.05 571.3 758 569.9 756.5 569.15 754.2 568.1 752.6 567.2 758.8 566.35 765.3 566.05 768.05 565.95 769.45 565.65 771.45 565.25 773.65 564 775.15 563.25 777.55 561.6 780.75 559.5 782.35 558.1 782.95 557.6 783.45 557.15 783.5 557.7 783.95 557.9
L 785.65 557.45
Q 789.2 558.15 792.75 556.45 794.25 555.7 797.05 553.85 799.6 552.45 802.3 552.15 804 551.95 804.5 551.55 805.5 550.85 805.6 549 805.7 546.6 804.3 542.15
L 802.35 536
Q 801.75 534.05 800.8 533.4 799.85 532.75 798 532.85 795.95 532.95 794.1 533.3 787.65 531.9 779.4 533.5 774.4 534.5 762.8 538.35 749.7 542.65 728.25 547.8 720.35 538.8 709.5 533.25 704.4 530.6 700.35 530 Z"/>
</g>

<g id="Layer0_2_MEMBER_1_FILL">
<path fill="#053336" stroke="none" d="
M 631.8 586.45
Q 627.85 588.1 621.9 592.9 619.2 595.1 617.75 596.55 617.2685546875 597.0314453125 616.8 597.5 615.342578125 599.1703125 614.45 600.8
L 614.75 601.45
Q 615.75 600.65 617.05 599.25 617.8158203125 598.3748046875 618.35 597.75 618.8328125 597.2125 619.15 596.85 620.55 595.45 623.05 593.5
L 631.8 586.45
M 645.5 593.7
Q 645.2 593.35 644.45 593.85 640.85 596.45 634.15 603.15 631.55 605.8 626.3 611.05 626.2794921875 611.0720703125 626.25 611.1 625.041796875 612.4130859375 624.55 613.2 623.8 614.5 623.95 615.65
L 627.45 612.2 645.2 594.8
Q 645.85 594.15 645.5 593.7
M 630.4 581.45
Q 630.15 581.05 629.6 581.2 629.1 581.35 628.65 581.8 622.15 588.35 615.55 596.15 615.212109375 596.582421875 615 596.95 614.5162109375 597.9392578125 615.1 598.45 615.6037109375 598.1240234375 616.4 597.4 616.927734375 596.892578125 617.6 596.2
L 629.95 582.75
Q 630.7 581.9 630.4 581.45
M 606 559.8
Q 605.65 559.9 605.55 560.2 606.45 561.35 608.1 562.55 609.05 563.25 611 564.6
L 613.8 566.65
Q 614.55 567.15 616.05 568.15 617.35 569.05 618 570 618.85 571.15 618.95 572.55 619.05 574 618.15 574.95 617.8 575.35 617.15 575.65 616.8 575.85 616 576.15 614.2 577.1 612.25 579.35 611.15 580.65 609 583.2 608.3 584 606.75 585.45
L 605 587
Q 603.15 588.65 601.9 588.5 601.721875 588.477734375 601.5 588.4 600.8216796875 588.1884765625 599.85 587.45 598.6 586.4 597.9 586.25 597.5 586.55 597.8 587.15 597.9 587.5 598.4 587.9 600.7 590 602.25 590.45 603.2 590.7 603.7 590.5 603.837890625 590.465625 604 590.35 604.41015625 590.1244140625 605 589.6
L 611.8 582.85
Q 612.95 581.7 613.2 581.35 614.5 579.45 614.8 579.2 615.45 578.6 617.25 577.85 618.95 577.15 619.6 576.45 620.7 575.3 620.7 573.1 620.65 571.35 619.9 569.8 619.1 568.15 617.7 567.15 617.25 566.8 616.1 566.15 615.05 565.55 614.55 565.15 612.95 563.7 612.1 563 610.9 562.1 609.15 561.25 607.1 560.3 606 559.8
M 774.25 628.75
Q 774.25 626.1 772.65 621.15 770.5 615 765.2 603.75
L 762.05 597.05
Q 761.9 596.65 761.45 596.5 761.381640625 596.4658203125 761.3 596.45 761.04140625 596.359765625 761 596.65 761.6767578125 598.147265625 762.35 599.65 768.8515625 614.2787109375 774.25 628.75
M 771.95 628.1
Q 771.45 628.4 771.8 629.3
L 777.6 646.4
Q 777.8 647.3 778.4 647.35 775.75 638 771.95 628.1
M 692.95 596.15
Q 692.15 596.6 691.4 598.15 687.5 606.7 689.25 615.85 689.5 615.95 689.7 615.7 689.9 615.45 689.95 615.15 690.15 613.6 690.15 609.9 690.1 606.6 690.45 604.7 691 602.25 692.7 598.45 693.3 596.9 692.95 596.15
M 684.95 582.95
Q 684.8 583.15 685.1 583.7 688.15 588.85 690.25 591.55 693.55 595.5 697.25 597.45 697.7 597.65 698.1 597.65 698.6 597.65 698.7 597.25 692.25 593.25 688.3 586.7 686.5 583.7 686.1 583.2 685.85 582.9 685.55 582.8 685.1 582.7 684.95 582.95
M 700.35 530
Q 697.55 529.55 694 529.9 691.7 530.15 687.65 530.9 649.35 538.05 612.65 548.05 606.85 549.6 604.3 551.55 604.05 551.75 601.75 554 600.15 555.5 598.9 556.05 597.15 556.9 596.85 557.7 594.65 558.6 592.85 560.2 592.45 560.5 592.25 560.9 589.85 562.25 588.15 564.95 586.3046875 567.701171875 585.75 570.8 585.4671875 572.371484375 585.5 574 585.65 579.9 589.35 586.2
L 579.6 590.6
Q 578.3 591.2 577.85 591.7 576.95 592.7 577.45 593.65 577.85 594.6 579.75 594.7 588.25 595.5 596.55 595.3 597.75 596.7 599.3 598.35 603.15 602.45 605.2 605.1 605.05 605.3 605 605.65 604.05 610.95 603.95 613.15 603.85 614.9 604.35 615.95 604.8 616.85 606.25 618.35 606.3 618.45 607.4 620.45 608.1 621.75 608.9 622.3 609.45 622.65 610.45 622.9 611.7 623.15 612.05 623.3 612.55 623.5 613.4 624.1 614.3 624.7 614.8 624.9 615.55 625.25 616.4 625.15 616.7 625.1 617 625.05 618.05 626.9 618.55 627.75 619.2 628.85 620.35 630.6 620.15 630.65 619.95 630.85 618.3 632.1 617.6 632.8 616.35 633.95 615.85 635.2 615.4 636.2 615.3 638.1 615.3 640.05 615.65 641.2 616.1 642.6 617.55 644.5 620.15 648 623.9 650.6 625.5 651.75 627 652.25 625.35 653 624.6 653.9 623.55 655.05 623.35 656.7 623.15 658.35 623.95 659.8 624.5 660.75 626.4 662.45 630.15 665.6 632.2 666.95 635.6 669.15 638.8 669.95 639.1015625 670.03046875 639.35 670.05 639.7912109375 670.15 640.15 670.15 641.85 674.6 643.15 678.4 644.25 681.75 646.75 689.9 647.7623046875 693.179296875 648.6 695.8 649.68828125 699.1546875 650.5 701.45 652.595703125 707.4111328125 656.6 716.9 656.894921875 717.630078125 657.2 718.35 659.15 723 660.35 725.4 662.2 729.25 664.3 732 665.45 733.6 667.25 735.45 667.1 735.75 667.15 736.05 667.2 736.45 667.85 737.35
L 669.7 739.7
Q 669.65 740.35 670.05 741
L 677.6 753.65
Q 682.05 761.15 684.95 764.5 686.2 765.85 688.75 768.3 691.4 770.85 692.55 772.15 694.4 774.3 696.55 777.5 697.05 778.25 697.8 779.4 712 797.7 718.65 819.95 726.85 847.65 733.55 875.95 735.1 875.9 736.6 875.95 735.8 866.4 733.65 857.05 725.1 820.15 707.35 786.95 705.55 784.25 703.5 781.3 700.2 776.6 698.85 774.75 696.2 771.2 693.75 768.55 693.35 768.15 689.45 764.2 686.9 761.6 685.4 759.7 683.5 757.35 678.65 749.15 676.8 745.95 675.05 743.65 674.25 742.4 673.45 741.3
L 694.5 759.95
Q 685.55 746.75 675.55 738.5 672.8 736.3 671.5 735.2 669.15 733.3 667.7 731.6 665.45 729.1 663.5 725.3 663.425390625 725.159765625 663.35 725 662.1396484375 722.6755859375 660.4 718.35 652.55 699.25 646.05 678.5 643.95 671.8 643.65 670.8 642.15 666.45 640.75 663.2 640.4357421875 662.4748046875 639.7 660.95 638.9638671875 659.355078125 637.75 656.85 635.85 652.9 634.9 650.45 633.4 645.9 632.6 643.7 631.15 639.65 629.55 637.2 628.3 635.25 625.4 632.15 622.35 628.85 621.15 627.15 619.7 625.05 618.2 621.7 616.55 617.95 615.65 616 611.85 607.55 605.7 600.6 604.25 598.95 600.3 594.9 599.95 594.55 599.6 594.2 599.65 593.9 599.45 593.55 599.25 593.15 598.8 592.9 598.55 592.75 598.2 592.7 596.3 590.65 595.05 589.15 589.4763671875 582.3955078125 588.6 576 588.5359375 575.6234375 588.5 575.25 588.05 571.2 589.6 567.5 591.25 563.6 594.5 561.7 595.2 561.25 595.6 560.65 597.15 559.95 598.85 559.55 602.5 558.55 606.15 559.1 610.6 559.7 615.45 562.55 616.858984375 563.3814453125 618.75 564.7 620.9251953125 566.2208984375 623.75 568.4
L 630.35 573.6
Q 634.7 577.05 636.7 578.9 640.1 582.05 645.85 589.2
L 655.6 601.35
Q 666.05 614.35 670.4 620.7 674.3 626.4 675.7 627.95 677 629.45 678.5 630.75 678.4490234375 630.87734375 678.45 631 678.4509765625 631.12734375 678.5 631.25 678.65 631.75 679.3 631.95 679.55 632.05 680.15 632 681.9 633.4 683.95 634.5 688.7 637.05 693.95 637.8 693.219921875 637.2322265625 690.9 635.65 688.949609375 634.3705078125 685.85 632.35 684.75 631.65 683.85 631.05 685.9 630.25 688.4 628.95
L 688.65 628.85
Q 688.8 629.05 689.05 629.15 689.8 629.5 690.9 628.25 692.85 625.55 693.85 624.2 694.3 623.6 697.05 620.05 699.4 617 701 614.65 703.95 610.5 705.75 608 706.25 608.6 706.6 608.85 706.8 607.9 706.6 606.85 708.35 604.35 708.5 604.1 710.13046875 601.9986328125 711.75 600.2 714.63046875 597.1224609375 717.5 595.05 719 594.1 719.7 593.55 720.95 592.7 721.7 591.85 722.65 590.95 722.35 590.2 721.654296875 590.3880859375 720.7 590.8 719.1650390625 591.4896484375 716.95 592.8 714.824609375 594.1080078125 713.55 595 712.915234375 595.5193359375 712.5 595.9 711.15 596.9 708.55 599.85 706.85 601.9 705.35 603.75 705.2 603.45 705.05 603.2 703.9 601.6 703.35 600.7 702.4 599.25 701.95 598.1 701.3 596.3 701.2 592.8 700.95 587.5 701.65 584.9 702.2 582.85 702.25 582.2 702.4 580.6 701.55 579.75 698.6 587.15 699.3 595.05 699.6 597.5 700 598.65 700.55 600.25 702.5 603.2
L 704 605.5
Q 702.25 607.9 700.9 610.05 698.35 614.05 698.25 614.2 697.85 614.7 696.6 616.1 695.45 617.35 694.9 618.1 694.1 619.2 692.35 622.25 692.3 622.35 692.25 622.5 691.4 621.15 691.45 618.7 691.4896484375 617.254296875 691.7 615.25 692.1044921875 612.2181640625 692.95 607.9
L 694.05 602.55
Q 694.75 598.75 696.15 597.25
L 695.5 596.65
Q 693.65 597.95 692.75 600.8 692.35 602.05 691.65 606.1 691.3 608.35 690.35 612.7 689.9685546875 614.900390625 689.9 616.75 689.8466796875 618.063671875 689.95 619.2 690.15 621.1 690.9 622.1 691.3 622.8 691.85 623.15 690.6 625.15 689.55 626.2 688.8 626.95 688.55 627.65 688.5 627.8 688.5 627.9 687.5 628 686.3 628.35 683.85 629.15 682.65 629.5 682.3 629.6 682.05 629.7 679.7 627.95 678.25 626.3 676.55 624.45 673.7 620.1 669.85 614.35 662.8 605.35 663 605.5 663.5 605.55 669.25 605.7 677.9 602.05 688.85 597.45 692.1 596.7 691.75 595.8 690.2 596.05 686.7 596.35 681.6 598.5 674.3 601.7 673.15 602.05 669.5 603.25 663.95 603.85 663.25 603.95 662.8 604.3 662.4 604.6 662.45 604.95 660.3 602.25 657.85 599.2
L 655 595.6
Q 656.6 595.05 658.85 593.8 665.4 590.2 680.5 583.3
L 714.5 576.15
Q 721.6 574.6 723.7 574.05 724.35 573.9 724.85 573.75 724.95 573.7 725.05 573.7 726.85 573.55 730.9 572.2 739.3263671875 569.37578125 748.35 567.85
L 748.4 567.85
Q 749.1033203125 567.71015625 749.8 567.6 749.85 568.05 750.2 568.4 750.5 568.75 751.15 569.05 751.5 569.2 752.2 569.55 753.05 570 754.6 571.2 755.2 571.6 758.4 572.95 761.45 574.15 767.3 577.95 769 579.1 769.65 579.6 770.9 580.65 771.6 581.7 771.750390625 581.9068359375 771.9 582.15 772.541015625 583.251171875 773.15 585.2 773.64765625 586.7474609375 774.1 588.3 776.8818359375 598.2064453125 777.4 608.7 777.5 610.85 778.7 610.8 779.1 610.8 779.4 610.45 779.7 610.15 779.75 609.7 779.8 609.5 779.65 608.05 779.5 607.15 779.55 605.8 779.7 604.3 779.7 603.55 779.85 600.9 779.25 597.6 779.05 596.4 778.55 594.25 778.7 594.4 778.9 594.5 780.85 595.55 784.9 597.5 788.35 599.3 790.1 601.4 792.15 603.8 792.9 607.55 793.45 610.35 793.35 614.55 793.2 621.1 790.15 642.5 787.95 654.9 788.5 667.4 789.95 699.25 795.15 730.55 795.5 733.8 795.95 737.7 796.95 744.6 799 749.5
L 801.7 753.45 802.05 751.85
Q 802.8015625 756.609375 803.75 761.3 804.3458984375 764.1154296875 805 766.9 812.2 797.6 821.75 827.7 829.5 851.9 835.05 876.05 836.35 876.05 837.7 876.05 837.55 875.15 837.25 874.2 835.65 869.3 834.45 864.45 827.7 836.75 820.05 809.05 815.0453125 790.9517578125 809.5 773.15 805.543359375 760.375390625 801.3 747.75 800.05 744.8 799.55 743.25 798.75 740.85 798.65 737.1 798.7 732.95 798.55 730.8 798.5 729.95 798.4 728.95 795.75 717.9 794.55 706.85 791.15 674.65 793.5 642.65 796.6 622.05 796.7 615 796.9 605.1 793.05 600.1 791.05 597.55 787.4 595.6 785.15 594.4 780.6 592.7 779.65 592.4 778.8 592.6 778.4 592.7 778.25 592.85 778.1 592.3 777.95 591.75
L 776.5 585.75
Q 775.5 581.65 774.2 579.85 772.9 578.1 769.15 575.85 763.25 572.4 761.05 571.3 758 569.9 756.5 569.15 754.2 568.1 752.6 567.2 758.8 566.35 765.3 566.05 768.05 565.95 769.45 565.65 771.45 565.25 773.65 564 775.15 563.25 777.55 561.6 780.75 559.5 782.35 558.1 782.95 557.6 783.45 557.15 783.5 557.7 783.95 557.9
L 785.65 557.45
Q 789.2 558.15 792.75 556.45 794.25 555.7 797.05 553.85 799.6 552.45 802.3 552.15 804 551.95 804.5 551.55 805.5 550.85 805.6 549 805.7 546.6 804.3 542.15
L 802.35 536
Q 801.75 534.05 800.8 533.4 799.85 532.75 798 532.85 795.95 532.95 794.1 533.3 787.65 531.9 779.4 533.5 774.4 534.5 762.8 538.35 749.7 542.65 728.25 547.8 720.35 538.8 709.5 533.25 704.4 530.6 700.35 530
M 700.55 533.65
Q 704.15 534.2 708.85 536.8 714.8 540.1 719.95 544.5 723.75 547.7 724.15 548 724.55 548.3 724.95 548.65 712.6 551.5 697.7 554.7 697.1388671875 554.816796875 696.55 554.9 689.7453125 556.362890625 683.55 557.75
L 687.9 551.6 687.5 551.1
Q 687 551.3 686.55 551.9 686.35 552.25 685.9 553.05 685.7 553.4 684.4 554.95 683.6 555.85 682.85 557 682.85 554.35 683.9 551.3 684.1787109375 550.4837890625 684.7 549.15 685.575390625 547.199609375 687.05 544.1 687.7 542.7 686.95 542.3 685.85 542.9 685 544.4 684.7 544.95 683.85 547.05 683.6677734375 547.547265625 683.4 548.2 682.8857421875 549.527734375 682.05 551.5 681.3 554.1 681.2 556.7 681.2 557.7 681.45 558.25 664.55 562.05 651.85 565.45 651.5 565.15 651.3 564.95 651.1 564.6 650.85 564.3 650.25 563.5 649.8 562.95 649.55 562.5 649.4 562.05 649.1 561 649.1 558.7
L 649.15 553 649.2 552
Q 649.2 549.95 648.7 549.1 648.25 548.95 648 549.45 647.75 549.85 647.75 550.4
L 647.75 559.3
Q 647.75 559.8 647.8 560.2 647.35 559.55 646.8 558.65 646.63359375 558.3724609375 646.45 558.2 646.361328125 558.0390625 646.25 557.95 645.75 557.65 645.5 558 645.2 558.35 645.65 559.1 645.671875 559.132421875 645.7 559.15 647.01875 561.1259765625 648.15 562.7 648.15 562.8 648.2 562.9 648.8 564.15 650.5 565.8 640.1 568.5 632.6 571 633.0255859375 571.4005859375 633.5 571.7 635.0384765625 572.5625 637.25 572.45 639.3 572.3 642.5 571.25 649.5 568.9 658.65 566.6 658.1 567.3 657.9 567.8 657.55 568.65 657.55 570.9 657.55 572.2 657.5 574.8 657.5 577.1 657.95 578.65 658.55 580.65 660.1 581.95 661.7 583.4 663.55 583.25 664.65 583.15 665.2 582.55 664.7 581.9 663.45 581.4 661.95 580.75 661.55 580.5 660.25 579.55 659.8 577.6 659.5 576.25 659.6 574.1
L 659.55 570.45
Q 659.55 569.3 659.65 568.8 659.95 567.45 661.75 565.8 673 563 687.35 560.25 696.0103515625 558.5484375 703.2 557.1 724.281640625 552.8134765625 732.6 550.65 732.8 550.6 760.4 542.6 767.1 540.65 773 539.2 772.75 540.1 772.8 541.45 772.85 542.2 772.9 543.8 772.9 544.75 772.7 546.5 772.45 548.3 772.45 549.2 772.4 552.05 773.35 554.55 772.15 554.9 770.85 555.2 769.6 555.45 767.05 555.75
L 755.25 557.1
Q 744.45 558.35 738.6 559.8 737.05 560.15 733.35 561.2
L 728.45 562.6
Q 727.9 562.75 727.45 562.95 726.7 562.9 725.85 563.1 723.6 563.65 721.7 564.4 719.25 565.3 718.4 566.55 717.6 567.75 717.9 569.4 718.15 570.65 718.9 571.55 704.35 574.5 682.95 579.35
L 675 581.2
Q 655.75 585.4 647.95 586.8
L 647.9 586.8
Q 642.75 580.5 639.7 577.5 637.8857421875 575.825390625 633 571.8 632.6328125 571.51328125 632.25 571.2
L 627.5 567.35
Q 626.6751953125 566.701953125 625.95 566.15 622.9857421875 563.833984375 621.7 562.95 618.45 560.55 615.6 559.15 608.85 555.75 602.9 556.2 608.5 552.85 615.85 550.4 621.9 548.35 633.45 545.75 653.1 541.25 662.25 539.35 678.4 535.95 691.35 534.05 697.3 533.15 700.55 533.65
M 720.35 568.2
Q 720.4 567.5 721.45 567 723.7 565.9 725.95 565.05 726 565.35 726.25 565.7 728.35 564.45 733.35 563.35 742.4 561.6 745.9 561.2 748.15 560.9 752.6 560.5 761.3 559.6 769.9 557.5 772.45 556.85 774.1 556 774.15 556.1 774.2 556.2 774.4 556 774.55 555.7 775.7 555 776.35 554.15
L 776.05 553.4
Q 775.55 553.65 775 553.95 775.05 553 774.9 551.9 774.5 548.45 774.4 541.4 774.4 539.7 774.7 538.8 780.8 537.3 785.9 536.4 785.7 537.05 785.65 538.1 785.5 541.3 785.65 543 785.9 545.7 786.9 547.65 787.85 549.5 790.95 552.35 791.7 553.05 792.35 553.5 792.15 553.6 792 553.65 790.85 554.1 789.9 554.4 788 554.6 785.5 555.25 785.35 555.3 785.15 555.35 785.8 554.6 786.3 553.85 784.6 553.5 781.8 555.6 779.15 557.5 774.4 560.35 771.65 562.15 769.75 562.55 768.65 562.8 767.1 562.75 765.3 562.7 764.4 562.65 761.45 562.6 756.45 563.45 749.68515625 564.4908203125 744.3 565.6 738.884765625 566.7890625 734.9 568.05
L 728.25 570.2
Q 726.9 570.55 725.75 570.7 725 570.2 723.4 570.6 723.35 570.6 723.3 570.65 721.8 570.35 720.9 569.4 720.75 569.25 720.7 569.15 721.25 569.3 722.45 568.95 731.95 565.85 742 563.65 742.7 563.5 743.2 563.15 743.75 562.7 743.55 562.2
L 729.25 565.8
Q 723.3 567.3 720.6 569.05 720.3 568.65 720.35 568.2
M 787.15 539.65
Q 787.15 537.35 788.15 536 788.3 536 788.45 535.95 789.95 535.7 791.1 535.55 791.15 535.6 791.3 535.65
L 792.55 535.65 792.85 536
Q 792.55 539.15 792.9 540.5 793.2 541.7 794.5 543.85 796.45 546.85 797.65 548.35 798.4 549.25 799.15 550 797.65 550.5 796.7 551 795.35 551.85 794.3 552.45 793.75 552.1 793.2 551.6 791.5 550.1 790.8 549.35 787.05 545.25 787.15 539.65
M 794.9 535.65
L 799.05 535.65 802.55 548.95
Q 801.2 549.3 800.1 549.7 797.6 546.45 795.45 543 794.25 541.1 794 539.8 793.9 539 794.05 537.7 794.15 536.85 794.25 536.35
L 794.45 536.3 794.7 536
Q 794.8 535.8 794.9 535.65
M 586.55 590.95
L 586.9 591.5
Q 587.5 591.35 587.55 591.3 587.9 591.05 587.9 590.3 587.9 589.7 587.7 589.25 589.2 588.45 590.25 587.6 591.45 589.4 592.95 591.25 593.4 591.8 594.1 592.6
L 586.7 592.55
Q 583.8 592.55 582.45 592.05 583.15 591.55 586.55 589.85
L 586.55 590.95
M 615.3 621.95
Q 614.3 621.2 613.1 620.8 612.05 620.45 611.55 620.25 610.55 619.95 610.05 619.55 609.45 619.05 608.4 617.35 607 614.75 606.8 613.9 606.4 612.5 606.75 610.15 607 608.65 607.15 607.7 609.5 611.2 612.35 616.45 614.05 619.65 615.3 621.95
M 622.75 634.15
Q 625.5 638.25 626.85 640.5 629.95 645.65 634.25 655.65 636.8 661.6 638.85 666.75 636.3 665.85 633.6 663.95 631.65 662.65 628.25 659.8 626.95 658.7 626.45 657.85 625.7 656.45 626.5 655.4 627 654.7 628.55 654.3 630.05 653.9 630.6 653.2 630.9 652.9 630.9 652.5 631.45 652.25 631.65 651.85 632.05 651 631.05 650.3 630.55 650 629.35 649.8 624.85 648.8 620.15 642.8 618.75 641 618.35 639.9 617.85 638.35 618.25 636.65 618.7 635 619.95 633.9 621.15 632.85 621.55 632.35 622.1 633.2 622.75 634.15 Z"/>

<path fill="#DA9E8B" stroke="none" d="
M 597.8 587.15
Q 597.5 586.55 597.9 586.25 598.6 586.4 599.85 587.45 600.8216796875 588.1884765625 601.5 588.4 600.486328125 587.592578125 599.4 586.7 592.10859375 580.72734375 588.6 576 589.4763671875 582.3955078125 595.05 589.15 596.3 590.65 598.2 592.7 598.55 592.75 598.8 592.9 599.25 593.15 599.45 593.55 599.65 593.9 599.6 594.2 599.95 594.55 600.3 594.9 604.25 598.95 605.7 600.6 611.85 607.55 615.65 616 616.55 617.95 618.2 621.7 619.7 625.05 621.15 627.15 622.35 628.85 625.4 632.15 628.3 635.25 629.55 637.2 631.15 639.65 632.6 643.7 633.4 645.9 634.9 650.45 635.85 652.9 637.75 656.85 638.9638671875 659.355078125 639.7 660.95 639.8431640625 658.0958984375 639.75 657.35 639.5 654.85 635.9 647.9 631.65 639.55 629.5 632.35 627.6 625.9 627.8 618.45 627.9271484375 613.4521484375 627.45 612.2
L 623.95 615.65
Q 623.8 614.5 624.55 613.2 625.041796875 612.4130859375 626.25 611.1 622.6890625 608.1474609375 620.75 605.9 616.75 601.25 618.75 597.75 618.5646484375 597.75 618.35 597.75 617.8158203125 598.3748046875 617.05 599.25 615.75 600.65 614.75 601.45
L 614.45 600.8
Q 615.342578125 599.1703125 616.8 597.5 616.622265625 597.4603515625 616.4 597.4 615.6037109375 598.1240234375 615.1 598.45 614.5162109375 597.9392578125 615 596.95 610.665625 595.315625 604 590.35 603.837890625 590.465625 603.7 590.5 603.2 590.7 602.25 590.45 600.7 590 598.4 587.9 597.9 587.5 597.8 587.15
M 663.5 725.3
Q 665.45 729.1 667.7 731.6 669.15 733.3 671.5 735.2 672.8 736.3 675.55 738.5 685.55 746.75 694.5 759.95
L 673.45 741.3
Q 674.25 742.4 675.05 743.65 676.8 745.95 678.65 749.15 683.5 757.35 685.4 759.7 686.9 761.6 689.45 764.2 693.35 768.15 693.75 768.55 696.2 771.2 698.85 774.75 700.2 776.6 703.5 781.3 705.55 784.25 707.35 786.95 725.1 820.15 733.65 857.05 735.8 866.4 736.6 875.95 748.4818359375 875.962109375 760.35 875.95 748.5740234375 861.87421875 739 846 733.9 837.45 728.4 826.65 723 815.8 720.8 811.65 708.85 789.7 705.3 782.7 699.85 771.95 699.85 767.1 699.85 764.25 700.25 763.75 700.6 763.3 705.55 759.45 686.85 746.95 673.95 735.35 667.938671875 729.9658203125 663.35 725 663.425390625 725.159765625 663.5 725.3
M 710.7 603.1
Q 711.27265625 601.5703125 711.75 600.2 710.13046875 601.9986328125 708.5 604.1 708.35 604.35 706.6 606.85 706.8 607.9 706.6 608.85 706.25 608.6 705.75 608 703.95 610.5 701 614.65 699.4 617 697.05 620.05 694.3 623.6 693.85 624.2 692.85 625.55 690.9 628.25 689.8 629.5 689.05 629.15 688.8 629.05 688.65 628.85
L 688.4 628.95
Q 685.9 630.25 683.85 631.05 684.75 631.65 685.85 632.35 688.949609375 634.3705078125 690.9 635.65 691.512890625 635.8701171875 692 636 693.3 636.35 695.3 636.35 698.8 636.35 704.15 626.2 707.75 619.25 708.95 615.45 708 610.2 710.7 603.1
M 680.5 583.3
Q 665.4 590.2 658.85 593.8 656.6 595.05 655 595.6
L 657.85 599.2
Q 660.3 602.25 662.45 604.95 662.4 604.6 662.8 604.3 663.25 603.95 663.95 603.85 669.5 603.25 673.15 602.05 674.3 601.7 681.6 598.5 686.7 596.35 690.2 596.05 691.75 595.8 692.1 596.7 688.85 597.45 677.9 602.05 669.25 605.7 663.5 605.55 663 605.5 662.8 605.35 669.85 614.35 673.7 620.1 676.55 624.45 678.25 626.3 679.7 627.95 682.05 629.7 682.3 629.6 682.65 629.5 683.85 629.15 686.3 628.35 687.5 628 688.5 627.9 688.5 627.8 688.55 627.65 688.8 626.95 689.55 626.2 690.6 625.15 691.85 623.15 691.3 622.8 690.9 622.1 690.15 621.1 689.95 619.2 689.8466796875 618.063671875 689.9 616.75 689.9685546875 614.900390625 690.35 612.7 691.3 608.35 691.65 606.1 692.35 602.05 692.75 600.8 693.65 597.95 695.5 596.65
L 696.15 597.25
Q 694.75 598.75 694.05 602.55
L 692.95 607.9
Q 692.1044921875 612.2181640625 691.7 615.25 691.4896484375 617.254296875 691.45 618.7 691.4 621.15 692.25 622.5 692.3 622.35 692.35 622.25 694.1 619.2 694.9 618.1 695.45 617.35 696.6 616.1 697.85 614.7 698.25 614.2 698.35 614.05 700.9 610.05 702.25 607.9 704 605.5
L 702.5 603.2
Q 700.55 600.25 700 598.65 699.6 597.5 699.3 595.05 698.6 587.15 701.55 579.75 702.4 580.6 702.25 582.2 702.2 582.85 701.65 584.9 700.95 587.5 701.2 592.8 701.3 596.3 701.95 598.1 702.4 599.25 703.35 600.7 703.9 601.6 705.05 603.2 705.2 603.45 705.35 603.75 706.85 601.9 708.55 599.85 711.15 596.9 712.5 595.9 712.915234375 595.5193359375 713.55 595 714.824609375 594.1080078125 716.95 592.8 719.1650390625 591.4896484375 720.7 590.8 723.6107421875 588.205859375 725.45 586.4 723.65 588 720.15 589.2 716.55 590.4 713.45 590.4 709.5 588.4 709.5 585.3 711.4 583.35 726.8 576.55 737.938671875 571.6064453125 748.35 567.85 739.3263671875 569.37578125 730.9 572.2 726.85 573.55 725.05 573.7 724.95 573.7 724.85 573.75 724.35 573.9 723.7 574.05 721.6 574.6 714.5 576.15
L 680.5 583.3
M 685.1 583.7
Q 684.8 583.15 684.95 582.95 685.1 582.7 685.55 582.8 685.85 582.9 686.1 583.2 686.5 583.7 688.3 586.7 692.25 593.25 698.7 597.25 698.6 597.65 698.1 597.65 697.7 597.65 697.25 597.45 693.55 595.5 690.25 591.55 688.15 588.85 685.1 583.7
M 691.4 598.15
Q 692.15 596.6 692.95 596.15 693.3 596.9 692.7 598.45 691 602.25 690.45 604.7 690.1 606.6 690.15 609.9 690.15 613.6 689.95 615.15 689.9 615.45 689.7 615.7 689.5 615.95 689.25 615.85 687.5 606.7 691.4 598.15
M 626.85 640.5
Q 625.5 638.25 622.75 634.15 622.1 633.2 621.55 632.35 621.15 632.85 619.95 633.9 618.7 635 618.25 636.65 617.85 638.35 618.35 639.9 618.75 641 620.15 642.8 624.85 648.8 629.35 649.8 630.55 650 631.05 650.3 632.05 651 631.65 651.85 631.45 652.25 630.9 652.5 630.9 652.9 630.6 653.2 630.05 653.9 628.55 654.3 627 654.7 626.5 655.4 625.7 656.45 626.45 657.85 626.95 658.7 628.25 659.8 631.65 662.65 633.6 663.95 636.3 665.85 638.85 666.75 636.8 661.6 634.25 655.65 629.95 645.65 626.85 640.5
M 613.1 620.8
Q 614.3 621.2 615.3 621.95 614.05 619.65 612.35 616.45 609.5 611.2 607.15 607.7 607 608.65 606.75 610.15 606.4 612.5 606.8 613.9 607 614.75 608.4 617.35 609.45 619.05 610.05 619.55 610.55 619.95 611.55 620.25 612.05 620.45 613.1 620.8
M 648.2 562.9
Q 648.15 562.8 648.15 562.7 647.01875 561.1259765625 645.7 559.15 644.941796875 560.0396484375 644 560.95 638.2 566.55 629.8 566.55 628.9 566.55 628.85 566.55 628.039453125 566.5244140625 625.95 566.15 626.6751953125 566.701953125 627.5 567.35
L 632.25 571.2
Q 632.6328125 571.51328125 633 571.8
L 633.5 571.7
Q 633.0255859375 571.4005859375 632.6 571 640.1 568.5 650.5 565.8 648.8 564.15 648.2 562.9
M 684.4 554.95
Q 685.7 553.4 685.9 553.05 686.35 552.25 686.55 551.9 687 551.3 687.5 551.1
L 687.9 551.6 683.55 557.75
Q 689.7453125 556.362890625 696.55 554.9 689.09296875 552.160546875 684.7 549.15 684.1787109375 550.4837890625 683.9 551.3 682.85 554.35 682.85 557 683.6 555.85 684.4 554.95
M 683.4 548.2
Q 682.4583984375 547.4583984375 681.7 546.7 677.8 550.2 674.35 552.35 667.9 556.35 660.1 556.35 657.55 556.35 653.7 554.65 650.5072265625 553.2216796875 649.15 553
L 649.1 558.7
Q 649.1 561 649.4 562.05 649.55 562.5 649.8 562.95 650.25 563.5 650.85 564.3 651.1 564.6 651.3 564.95 651.5 565.15 651.85 565.45 664.55 562.05 681.45 558.25 681.2 557.7 681.2 556.7 681.3 554.1 682.05 551.5 682.8857421875 549.527734375 683.4 548.2 Z"/>

<path fill="#ECDCCF" stroke="none" d="
M 766.3 590.7
Q 760.65 592.15 760.65 593.5 760.65 594.1796875 761.3 596.45 761.381640625 596.4658203125 761.45 596.5 761.9 596.65 762.05 597.05
L 765.2 603.75
Q 770.5 615 772.65 621.15 774.25 626.1 774.25 628.75 768.8515625 614.2787109375 762.35 599.65 762.5349609375 600.2203125 762.75 600.85 764.25 605.1 769.65 620.45 770.55 623 773.2 629.05 775.35 633.9 775.35 634.6 776.75 633.45 780.7 626.6 784.75 619.5 786.7 617.65 786.7 617.35 786.75 617.05 786.9 616.45 787.25 616.45 787.8 619.3 787.8 624.9 787.8 636.55 781.6 644.15 777.45 649.15 777.3 649.4 775.35 652.35 775.35 655.85 775.35 665.95 778.65 692.8 782.2 721.25 784.95 729.35 786.8 734.55 797.25 750.6 800.991796875 756.3693359375 803.75 761.3 802.8015625 756.609375 802.05 751.85
L 801.7 753.45 799 749.5
Q 796.95 744.6 795.95 737.7 795.5 733.8 795.15 730.55 789.95 699.25 788.5 667.4 787.95 654.9 790.15 642.5 793.2 621.1 793.35 614.55 793.45 610.35 792.9 607.55 792.15 603.8 790.1 601.4 788.35 599.3 784.9 597.5 780.85 595.55 778.9 594.5 778.7 594.4 778.55 594.25 779.05 596.4 779.25 597.6 779.85 600.9 779.7 603.55 779.7 604.3 779.55 605.8 779.5 607.15 779.65 608.05 779.8 609.5 779.75 609.7 779.7 610.15 779.4 610.45 779.1 610.8 778.7 610.8 777.5 610.85 777.4 608.7 776.8818359375 598.2064453125 774.1 588.3 771.0701171875 589.476171875 766.3 590.7
M 659.5 668.9
Q 662.45 673.65 667 676 693.85 689.85 707.45 661.5
L 706 661.45
Q 704.05 664.3 701.9 667.1 700.65 668.8 698.8 669.95 700.2 667.7 701.6 665.5 705.6 658.95 703.7 651.45
L 698.5 654.95
Q 680.1 664.5 659.5 668.9 Z"/>

<path fill="#E3C5AB" stroke="none" d="
M 709.5 585.3
Q 709.5 588.4 713.45 590.4 716.55 590.4 720.15 589.2 723.65 588 725.45 586.4 723.6107421875 588.205859375 720.7 590.8 721.654296875 590.3880859375 722.35 590.2 722.65 590.95 721.7 591.85 720.95 592.7 719.7 593.55 719 594.1 717.5 595.05 714.63046875 597.1224609375 711.75 600.2 711.27265625 601.5703125 710.7 603.1 708 610.2 708.95 615.45 707.75 619.25 704.15 626.2 698.8 636.35 695.3 636.35 693.3 636.35 692 636 691.512890625 635.8701171875 690.9 635.65 693.219921875 637.2322265625 693.95 637.8 688.7 637.05 683.95 634.5 681.9 633.4 680.15 632 679.55 632.05 679.3 631.95 678.65 631.75 678.5 631.25 678.4509765625 631.12734375 678.45 631 678.4490234375 630.87734375 678.5 630.75 677 629.45 675.7 627.95 674.3 626.4 670.4 620.7 666.05 614.35 655.6 601.35
L 645.85 589.2
Q 640.1 582.05 636.7 578.9 634.7 577.05 630.35 573.6
L 623.75 568.4
Q 620.9251953125 566.2208984375 618.75 564.7 616.858984375 563.3814453125 615.45 562.55 610.6 559.7 606.15 559.1 602.5 558.55 598.85 559.55 597.15 559.95 595.6 560.65 595.2 561.25 594.5 561.7 591.25 563.6 589.6 567.5 588.05 571.2 588.5 575.25 588.5359375 575.6234375 588.6 576 592.10859375 580.72734375 599.4 586.7 600.486328125 587.592578125 601.5 588.4 601.721875 588.477734375 601.9 588.5 603.15 588.65 605 587
L 606.75 585.45
Q 608.3 584 609 583.2 611.15 580.65 612.25 579.35 614.2 577.1 616 576.15 616.8 575.85 617.15 575.65 617.8 575.35 618.15 574.95 619.05 574 618.95 572.55 618.85 571.15 618 570 617.35 569.05 616.05 568.15 614.55 567.15 613.8 566.65
L 611 564.6
Q 609.05 563.25 608.1 562.55 606.45 561.35 605.55 560.2 605.65 559.9 606 559.8 607.1 560.3 609.15 561.25 610.9 562.1 612.1 563 612.95 563.7 614.55 565.15 615.05 565.55 616.1 566.15 617.25 566.8 617.7 567.15 619.1 568.15 619.9 569.8 620.65 571.35 620.7 573.1 620.7 575.3 619.6 576.45 618.95 577.15 617.25 577.85 615.45 578.6 614.8 579.2 614.5 579.45 613.2 581.35 612.95 581.7 611.8 582.85
L 605 589.6
Q 604.41015625 590.1244140625 604 590.35 610.665625 595.315625 615 596.95 615.212109375 596.582421875 615.55 596.15 622.15 588.35 628.65 581.8 629.1 581.35 629.6 581.2 630.15 581.05 630.4 581.45 630.7 581.9 629.95 582.75
L 617.6 596.2
Q 616.927734375 596.892578125 616.4 597.4 616.622265625 597.4603515625 616.8 597.5 617.2685546875 597.0314453125 617.75 596.55 619.2 595.1 621.9 592.9 627.85 588.1 631.8 586.45
L 623.05 593.5
Q 620.55 595.45 619.15 596.85 618.8328125 597.2125 618.35 597.75 618.5646484375 597.75 618.75 597.75 616.75 601.25 620.75 605.9 622.6890625 608.1474609375 626.25 611.1 626.2794921875 611.0720703125 626.3 611.05 631.55 605.8 634.15 603.15 640.85 596.45 644.45 593.85 645.2 593.35 645.5 593.7 645.85 594.15 645.2 594.8
L 627.45 612.2
Q 627.9271484375 613.4521484375 627.8 618.45 627.6 625.9 629.5 632.35 631.65 639.55 635.9 647.9 639.5 654.85 639.75 657.35 639.8431640625 658.0958984375 639.7 660.95 640.4357421875 662.4748046875 640.75 663.2 642.15 666.45 643.65 670.8 643.95 671.8 646.05 678.5 652.55 699.25 660.4 718.35 662.1396484375 722.6755859375 663.35 725 667.938671875 729.9658203125 673.95 735.35 686.85 746.95 705.55 759.45 700.6 763.3 700.25 763.75 699.85 764.25 699.85 767.1 699.85 771.95 705.3 782.7 708.85 789.7 720.8 811.65 723 815.8 728.4 826.65 733.9 837.45 739 846 748.5740234375 861.87421875 760.35 875.95 797.719921875 876.012109375 835.05 876.05 829.5 851.9 821.75 827.7 812.2 797.6 805 766.9 804.3458984375 764.1154296875 803.75 761.3 800.991796875 756.3693359375 797.25 750.6 786.8 734.55 784.95 729.35 782.2 721.25 778.65 692.8 775.35 665.95 775.35 655.85 775.35 652.35 777.3 649.4 777.45 649.15 781.6 644.15 787.8 636.55 787.8 624.9 787.8 619.3 787.25 616.45 786.9 616.45 786.75 617.05 786.7 617.35 786.7 617.65 784.75 619.5 780.7 626.6 776.75 633.45 775.35 634.6 775.35 633.9 773.2 629.05 770.55 623 769.65 620.45 764.25 605.1 762.75 600.85 762.5349609375 600.2203125 762.35 599.65 761.6767578125 598.147265625 761 596.65 761.04140625 596.359765625 761.3 596.45 760.65 594.1796875 760.65 593.5 760.65 592.15 766.3 590.7 771.0701171875 589.476171875 774.1 588.3 773.64765625 586.7474609375 773.15 585.2 772.541015625 583.251171875 771.9 582.15 771.750390625 581.9068359375 771.6 581.7 770.9 580.65 769.65 579.6 769 579.1 767.3 577.95 761.45 574.15 758.4 572.95 755.2 571.6 754.6 571.2 753.05 570 752.2 569.55 751.5 569.2 751.15 569.05 750.5 568.75 750.2 568.4 749.85 568.05 749.8 567.6 749.1033203125 567.71015625 748.4 567.85
L 748.35 567.85
Q 737.938671875 571.6064453125 726.8 576.55 711.4 583.35 709.5 585.3
M 771.8 629.3
Q 771.45 628.4 771.95 628.1 775.75 638 778.4 647.35 777.8 647.3 777.6 646.4
L 771.8 629.3
M 667 676
Q 662.45 673.65 659.5 668.9 680.1 664.5 698.5 654.95
L 703.7 651.45
Q 705.6 658.95 701.6 665.5 700.2 667.7 698.8 669.95 700.65 668.8 701.9 667.1 704.05 664.3 706 661.45
L 707.45 661.5
Q 693.85 689.85 667 676
M 708.85 536.8
Q 704.15 534.2 700.55 533.65 697.3 533.15 691.35 534.05 678.4 535.95 662.25 539.35 653.1 541.25 633.45 545.75 621.9 548.35 615.85 550.4 608.5 552.85 602.9 556.2 608.85 555.75 615.6 559.15 618.45 560.55 621.7 562.95 622.9857421875 563.833984375 625.95 566.15 628.039453125 566.5244140625 628.85 566.55 628.9 566.55 629.8 566.55 638.2 566.55 644 560.95 644.941796875 560.0396484375 645.7 559.15 645.671875 559.132421875 645.65 559.1 645.2 558.35 645.5 558 645.75 557.65 646.25 557.95 646.361328125 558.0390625 646.45 558.2 646.63359375 558.3724609375 646.8 558.65 647.35 559.55 647.8 560.2 647.75 559.8 647.75 559.3
L 647.75 550.4
Q 647.75 549.85 648 549.45 648.25 548.95 648.7 549.1 649.2 549.95 649.2 552
L 649.15 553
Q 650.5072265625 553.2216796875 653.7 554.65 657.55 556.35 660.1 556.35 667.9 556.35 674.35 552.35 677.8 550.2 681.7 546.7 682.4583984375 547.4583984375 683.4 548.2 683.6677734375 547.547265625 683.85 547.05 684.7 544.95 685 544.4 685.85 542.9 686.95 542.3 687.7 542.7 687.05 544.1 685.575390625 547.199609375 684.7 549.15 689.09296875 552.160546875 696.55 554.9 697.1388671875 554.816796875 697.7 554.7 712.6 551.5 724.95 548.65 724.55 548.3 724.15 548 723.75 547.7 719.95 544.5 714.8 540.1 708.85 536.8 Z"/>

<path fill="#D4D4D4" stroke="none" d="
M 586.9 591.5
L 586.55 590.95 586.55 589.85
Q 583.15 591.55 582.45 592.05 583.8 592.55 586.7 592.55
L 594.1 592.6
Q 593.4 591.8 592.95 591.25 591.45 589.4 590.25 587.6 589.2 588.45 587.7 589.25 587.9 589.7 587.9 590.3 587.9 591.05 587.55 591.3 587.5 591.35 586.9 591.5
M 799.05 535.65
L 794.9 535.65
Q 794.8 535.8 794.7 536
L 794.45 536.3 794.25 536.35
Q 794.15 536.85 794.05 537.7 793.9 539 794 539.8 794.25 541.1 795.45 543 797.6 546.45 800.1 549.7 801.2 549.3 802.55 548.95
L 799.05 535.65
M 721.45 567
Q 720.4 567.5 720.35 568.2 720.3 568.65 720.6 569.05 723.3 567.3 729.25 565.8
L 743.55 562.2
Q 743.75 562.7 743.2 563.15 742.7 563.5 742 563.65 731.95 565.85 722.45 568.95 721.25 569.3 720.7 569.15 720.75 569.25 720.9 569.4 721.8 570.35 723.3 570.65 723.35 570.6 723.4 570.6 725 570.2 725.75 570.7 726.9 570.55 728.25 570.2
L 734.9 568.05
Q 738.884765625 566.7890625 744.3 565.6 749.68515625 564.4908203125 756.45 563.45 761.45 562.6 764.4 562.65 765.3 562.7 767.1 562.75 768.65 562.8 769.75 562.55 771.65 562.15 774.4 560.35 779.15 557.5 781.8 555.6 784.6 553.5 786.3 553.85 785.8 554.6 785.15 555.35 785.35 555.3 785.5 555.25 788 554.6 789.9 554.4 790.85 554.1 792 553.65 792.15 553.6 792.35 553.5 791.7 553.05 790.95 552.35 787.85 549.5 786.9 547.65 785.9 545.7 785.65 543 785.5 541.3 785.65 538.1 785.7 537.05 785.9 536.4 780.8 537.3 774.7 538.8 774.4 539.7 774.4 541.4 774.5 548.45 774.9 551.9 775.05 553 775 553.95 775.55 553.65 776.05 553.4
L 776.35 554.15
Q 775.7 555 774.55 555.7 774.4 556 774.2 556.2 774.15 556.1 774.1 556 772.45 556.85 769.9 557.5 761.3 559.6 752.6 560.5 748.15 560.9 745.9 561.2 742.4 561.6 733.35 563.35 728.35 564.45 726.25 565.7 726 565.35 725.95 565.05 723.7 565.9 721.45 567 Z"/>

<path fill="#94919F" stroke="none" d="
M 788.15 536
Q 787.15 537.35 787.15 539.65 787.05 545.25 790.8 549.35 791.5 550.1 793.2 551.6 793.75 552.1 794.3 552.45 795.35 551.85 796.7 551 797.65 550.5 799.15 550 798.4 549.25 797.65 548.35 796.45 546.85 794.5 543.85 793.2 541.7 792.9 540.5 792.55 539.15 792.85 536
L 792.55 535.65 791.3 535.65
Q 791.15 535.6 791.1 535.55 789.95 535.7 788.45 535.95 788.3 536 788.15 536 Z"/>

<path fill="#70A897" stroke="none" d="
M 661.75 565.8
Q 659.95 567.45 659.65 568.8 659.55 569.3 659.55 570.45
L 659.6 574.1
Q 659.5 576.25 659.8 577.6 660.25 579.55 661.55 580.5 661.95 580.75 663.45 581.4 664.7 581.9 665.2 582.55 664.65 583.15 663.55 583.25 661.7 583.4 660.1 581.95 658.55 580.65 657.95 578.65 657.5 577.1 657.5 574.8 657.55 572.2 657.55 570.9 657.55 568.65 657.9 567.8 658.1 567.3 658.65 566.6 649.5 568.9 642.5 571.25 639.3 572.3 637.25 572.45 635.0384765625 572.5625 633.5 571.7
L 633 571.8
Q 637.8857421875 575.825390625 639.7 577.5 642.75 580.5 647.9 586.8
L 647.95 586.8
Q 655.75 585.4 675 581.2
L 682.95 579.35
Q 704.35 574.5 718.9 571.55 718.15 570.65 717.9 569.4 717.6 567.75 718.4 566.55 719.25 565.3 721.7 564.4 723.6 563.65 725.85 563.1 726.7 562.9 727.45 562.95 727.9 562.75 728.45 562.6
L 733.35 561.2
Q 737.05 560.15 738.6 559.8 744.45 558.35 755.25 557.1
L 767.05 555.75
Q 769.6 555.45 770.85 555.2 772.15 554.9 773.35 554.55 772.4 552.05 772.45 549.2 772.45 548.3 772.7 546.5 772.9 544.75 772.9 543.8 772.85 542.2 772.8 541.45 772.75 540.1 773 539.2 767.1 540.65 760.4 542.6 732.8 550.6 732.6 550.65 724.281640625 552.8134765625 703.2 557.1 696.0103515625 558.5484375 687.35 560.25 673 563 661.75 565.8 Z"/>
</g>

<g id="Layer0_3_MEMBER_0_FILL">
<path fill="#0F5DA6" stroke="none" d="
M -102.1 133.3
Q -117.85 133.3 -129 144.4 -140.1 155.55 -140.1 171.3 -140.1 187.05 -129 198.15 -117.85 209.3 -102.1 209.3 -86.35 209.3 -75.25 198.15 -64.1 187.05 -64.1 171.3 -64.1 155.55 -75.25 144.4 -86.35 133.3 -102.1 133.3 Z"/>
</g>

<g id="Layer0_3_MEMBER_1_MEMBER_0_FILL">
<path fill="#47B5C3" stroke="none" d="
M 490 26.25
Q 490 22.65 487.45 20.1 484.85 17.5 481.25 17.5
L 358.75 17.5
Q 355.1 17.5 352.55 20.1 350 22.65 350 26.25
L 350 52.5 236.25 52.5
Q 232.6 52.5 230.05 55.1 227.5 57.65 227.5 61.25
L 227.5 175
Q 227.5 178.65 230.05 181.2 232.6 183.75 236.25 183.75 239.85 183.75 242.45 181.2 245 178.65 245 175
L 245 70 472.5 70 472.5 113.75
Q 472.5 117.4 475.05 119.95 477.6 122.5 481.25 122.5 484.85 122.5 487.45 119.95 490 117.4 490 113.75
L 490 26.25
M 472.5 35
L 472.5 52.5 367.5 52.5 367.5 35 472.5 35 Z"/>
</g>

<g id="Layer0_3_MEMBER_1_MEMBER_1_FILL">
<path fill="#47B5C3" stroke="none" d="
M 312.45 300.1
Q 309.85 297.5 306.25 297.5
L 271.25 297.5
Q 267.6 297.5 265.05 300.1 262.5 302.65 262.5 306.25
L 262.5 341.25
Q 262.5 344.9 265.05 347.45 267.6 350 271.25 350
L 306.25 350
Q 309.85 350 312.45 347.45 315 344.9 315 341.25
L 315 306.25
Q 315 302.65 312.45 300.1
M 297.5 315
L 297.5 332.5 280 332.5 280 315 297.5 315 Z"/>
</g>

<g id="Layer0_3_MEMBER_1_MEMBER_2_FILL">
<path fill="#47B5C3" stroke="none" d="
M 312.45 230.1
Q 309.85 227.5 306.25 227.5
L 271.25 227.5
Q 267.6 227.5 265.05 230.1 262.5 232.65 262.5 236.25
L 262.5 271.25
Q 262.5 274.9 265.05 277.45 267.6 280 271.25 280
L 306.25 280
Q 309.85 280 312.45 277.45 315 274.9 315 271.25
L 315 236.25
Q 315 232.65 312.45 230.1
M 297.5 245
L 297.5 262.5 280 262.5 280 245 297.5 245 Z"/>
</g>

<g id="Layer0_3_MEMBER_1_MEMBER_3_FILL">
<path fill="#47B5C3" stroke="none" d="
M 382.45 230.1
Q 379.85 227.5 376.25 227.5
L 341.25 227.5
Q 337.6 227.5 335.05 230.1 332.5 232.65 332.5 236.25
L 332.5 271.25
Q 332.5 274.9 335.05 277.45 337.6 280 341.25 280
L 376.25 280
Q 379.85 280 382.45 277.45 385 274.9 385 271.25
L 385 236.25
Q 385 232.65 382.45 230.1
M 367.5 245
L 367.5 262.5 350 262.5 350 245 367.5 245 Z"/>
</g>

<g id="Layer0_3_MEMBER_1_MEMBER_4_FILL">
<path fill="#47B5C3" stroke="none" d="
M 265.05 160.1
Q 262.5 162.65 262.5 166.25
L 262.5 201.25
Q 262.5 204.9 265.05 207.45 267.6 210 271.25 210
L 306.25 210
Q 309.85 210 312.45 207.45 315 204.9 315 201.25
L 315 166.25
Q 315 162.65 312.45 160.1 309.85 157.5 306.25 157.5
L 271.25 157.5
Q 267.6 157.5 265.05 160.1
M 280 192.5
L 280 175 297.5 175 297.5 192.5 280 192.5 Z"/>
</g>

<g id="Layer0_3_MEMBER_1_MEMBER_5_FILL">
<path fill="#47B5C3" stroke="none" d="
M 335.05 160.1
Q 332.5 162.65 332.5 166.25
L 332.5 201.25
Q 332.5 204.9 335.05 207.45 337.6 210 341.25 210
L 376.25 210
Q 379.85 210 382.45 207.45 385 204.9 385 201.25
L 385 166.25
Q 385 162.65 382.45 160.1 379.85 157.5 376.25 157.5
L 341.25 157.5
Q 337.6 157.5 335.05 160.1
M 350 192.5
L 350 175 367.5 175 367.5 192.5 350 192.5 Z"/>
</g>

<g id="Layer0_3_MEMBER_1_MEMBER_6_FILL">
<path fill="#47B5C3" stroke="none" d="
M 411.25 157.5
Q 407.6 157.5 405.05 160.1 402.5 162.65 402.5 166.25
L 402.5 201.25
Q 402.5 204.9 405.05 207.45 407.6 210 411.25 210
L 446.25 210
Q 449.85 210 452.45 207.45 455 204.9 455 201.25
L 455 166.25
Q 455 162.65 452.45 160.1 449.85 157.5 446.25 157.5
L 411.25 157.5
M 437.5 175
L 437.5 192.5 420 192.5 420 175 437.5 175 Z"/>
</g>

<g id="Layer0_3_MEMBER_1_MEMBER_7_FILL">
<path fill="#47B5C3" stroke="none" d="
M 265.05 90.1
Q 262.5 92.65 262.5 96.25
L 262.5 131.25
Q 262.5 134.9 265.05 137.45 267.6 140 271.25 140
L 306.25 140
Q 309.85 140 312.45 137.45 315 134.9 315 131.25
L 315 96.25
Q 315 92.65 312.45 90.1 309.85 87.5 306.25 87.5
L 271.25 87.5
Q 267.6 87.5 265.05 90.1
M 297.5 105
L 297.5 122.5 280 122.5 280 105 297.5 105 Z"/>
</g>

<g id="Layer0_3_MEMBER_1_MEMBER_8_FILL">
<path fill="#47B5C3" stroke="none" d="
M 335.05 90.1
Q 332.5 92.65 332.5 96.25
L 332.5 131.25
Q 332.5 134.9 335.05 137.45 337.6 140 341.25 140
L 376.25 140
Q 379.85 140 382.45 137.45 385 134.9 385 131.25
L 385 96.25
Q 385 92.65 382.45 90.1 379.85 87.5 376.25 87.5
L 341.25 87.5
Q 337.6 87.5 335.05 90.1
M 367.5 105
L 367.5 122.5 350 122.5 350 105 367.5 105 Z"/>
</g>

<g id="Layer0_3_MEMBER_1_MEMBER_9_FILL">
<path fill="#47B5C3" stroke="none" d="
M 411.25 87.5
Q 407.6 87.5 405.05 90.1 402.5 92.65 402.5 96.25
L 402.5 131.25
Q 402.5 134.9 405.05 137.45 407.6 140 411.25 140
L 446.25 140
Q 449.85 140 452.45 137.45 455 134.9 455 131.25
L 455 96.25
Q 455 92.65 452.45 90.1 449.85 87.5 446.25 87.5
L 411.25 87.5
M 437.5 105
L 437.5 122.5 420 122.5 420 105 437.5 105 Z"/>
</g>

<g id="Layer0_3_MEMBER_1_MEMBER_10_FILL">
<path fill="#47B5C3" stroke="none" d="
M 125.05 282.6
Q 122.5 285.15 122.5 288.75
L 122.5 323.75
Q 122.5 327.4 125.05 329.95 127.6 332.5 131.25 332.5
L 166.25 332.5
Q 169.85 332.5 172.45 329.95 175 327.4 175 323.75
L 175 288.75
Q 175 285.15 172.45 282.6 169.85 280 166.25 280
L 131.25 280
Q 127.6 280 125.05 282.6
M 140 315
L 140 297.5 157.5 297.5 157.5 315 140 315 Z"/>
</g>

<g id="Layer0_3_MEMBER_1_MEMBER_11_FILL">
<path fill="#47B5C3" stroke="none" d="
M 122.5 358.75
L 122.5 393.75
Q 122.5 397.4 125.05 399.95 127.6 402.5 131.25 402.5
L 166.25 402.5
Q 169.85 402.5 172.45 399.95 175 397.4 175 393.75
L 175 358.75
Q 175 355.15 172.45 352.6 169.85 350 166.25 350
L 131.25 350
Q 127.6 350 125.05 352.6 122.5 355.15 122.5 358.75
M 140 385
L 140 367.5 157.5 367.5 157.5 385 140 385 Z"/>
</g>

<g id="Layer0_3_MEMBER_1_MEMBER_12_FILL">
<path fill="#47B5C3" stroke="none" d="
M 557.45 142.6
Q 554.85 140 551.25 140
L 481.25 140
Q 477.6 140 475.05 142.6 472.5 145.15 472.5 148.75
L 472.5 250.55 467.65 256.2
Q 462.7 261.95 455 269.05
L 455 236.25
Q 455 232.65 452.45 230.1 449.85 227.5 446.25 227.5
L 411.25 227.5
Q 407.6 227.5 405.05 230.1 402.5 232.65 402.5 236.25
L 402.5 271.25
Q 402.5 274.9 405.05 277.45 407.6 280 411.25 280
L 441.15 280
Q 423.1 292.75 402.2 299.45 381 306.25 358.75 306.25 355.1 306.25 352.55 308.85 350 311.4 350 315
L 350 367.5 306.25 367.5
Q 302.6 367.5 300.05 370.1 297.5 372.65 297.5 376.25
L 297.5 472.5 245 472.5 245 210
Q 245 206.4 242.45 203.85 239.85 201.25 236.25 201.25 232.6 201.25 230.05 203.85 227.5 206.4 227.5 210
L 227.5 245 96.25 245
Q 92.6 245 90.05 247.6 87.5 250.15 87.5 253.75
L 87.5 481.25
Q 87.5 484.9 90.05 487.45 92.6 490 96.25 490
L 131.25 490
Q 134.85 490 137.45 487.45 140 484.9 140 481.25 140 477.65 137.45 475.1 134.85 472.5 131.25 472.5
L 105 472.5 105 262.5 227.5 262.5 227.5 280 201.25 280
Q 197.6 280 195.05 282.6 192.5 285.15 192.5 288.75
L 192.5 323.75
Q 192.5 327.4 195.05 329.95 197.6 332.5 201.25 332.5
L 227.5 332.5 227.5 350 201.25 350
Q 197.6 350 195.05 352.6 192.5 355.15 192.5 358.75
L 192.5 393.75
Q 192.5 397.4 195.05 399.95 197.6 402.5 201.25 402.5
L 227.5 402.5 227.5 420 166.25 420
Q 162.6 420 160.05 422.6 157.5 425.15 157.5 428.75
L 157.5 481.25
Q 157.5 484.9 160.05 487.45 162.6 490 166.25 490
L 354.35 490
Q 358 490 360.55 487.45 363.1 484.9 363.1 481.25 363.1 477.65 360.55 475.1 358 472.5 354.35 472.5
L 315 472.5 315 385 350 385 350 392.7
Q 350 427.9 367.75 458.55 385.5 489.15 416.1 506.65
L 476.9 541.35
Q 478.85 542.5 481.25 542.5 483.7 542.5 485.55 541.35
L 546.35 506.65
Q 576.95 489.15 594.75 458.5 612.5 427.9 612.5 392.65
L 612.5 350
Q 612.5 346.4 609.95 343.85 607.35 341.25 603.75 341.25 600.1 341.25 597.55 343.85 595 346.4 595 350
L 595 392.7
Q 595 423.2 579.6 449.75 564.15 476.3 537.65 491.45
L 481.25 523.7 424.8 491.45
Q 398.3 476.3 382.9 449.75 367.5 423.25 367.5 392.7
L 367.5 323.55
Q 400.35 321.75 429.85 307.2 459.4 292.65 480.95 267.6
L 481.25 267.2 481.55 267.6
Q 504.5 294.35 536.5 309.05 568.45 323.75 603.75 323.75 607.35 323.75 609.95 321.2 612.5 318.65 612.5 315 612.5 311.4 609.95 308.85 607.35 306.25 603.75 306.25 581.45 306.25 560 299.35
L 560 148.75
Q 560 145.15 557.45 142.6
M 490 175
L 490 157.5 542.5 157.5 542.5 175 490 175
M 490 192.5
L 542.5 192.5 542.5 210 490 210 490 192.5
M 420 245
L 437.5 245 437.5 262.5 420 262.5 420 245
M 542.5 227.5
L 542.5 245 490 245 490 227.5 542.5 227.5
M 542.5 262.5
L 542.5 292.5
Q 519.35 281.55 500.9 262.5
L 542.5 262.5
M 227.5 315
L 210 315 210 297.5 227.5 297.5 227.5 315
M 227.5 385
L 210 385 210 367.5 227.5 367.5 227.5 385
M 175 472.5
L 175 437.5 227.5 437.5 227.5 472.5 175 472.5 Z"/>
</g>

<g id="Layer0_3_MEMBER_1_MEMBER_13_FILL">
<path fill="#47B5C3" stroke="none" d="
M 392.1 338.15
Q 388.55 338.85 386.5 341.8 384.5 344.8 385.15 348.35 385.85 351.9 388.85 353.95 391.85 356.05 395.35 355.35 418.95 350.85 440.75 340.8 462.5 330.75 481.2 315.8 498.5 329.6 518.45 339.25 538.4 348.9 559.95 353.85
L 559.95 392.7
Q 559.95 413.85 549.3 432.2 538.65 450.55 520.3 461.05
L 481.2 483.4 442.15 461.05
Q 423.8 450.55 413.1 432.2 402.45 413.8 402.45 392.7
L 402.45 376.25
Q 402.45 372.65 399.9 370.1 397.367578125 367.5177734375 393.75 367.5
L 393.7 367.5
Q 390.08671875 367.5134765625 387.55 370.1 385 372.65 385 376.25
L 385 392.7
Q 385 418.55 398 441 411.05 463.45 433.5 476.25
L 476.9 501.05
Q 478.9 502.2 481.2 502.2 483.5 502.2 485.55 501.05
L 528.95 476.25
Q 551.4 463.45 564.45 441 577.45 418.55 577.45 392.7
L 577.45 346.75
Q 577.45 343.6 575.45 341.15 573.45 338.7 570.35 338.15 547.25 333.75 526 323.5 504.75 313.2 486.95 297.8 484.5 295.65 481.25 295.65 478 295.65 475.5 297.8 457.7 313.2 436.45 323.5 415.25 333.75 392.1 338.15 Z"/>
</g>

<g id="Layer0_3_MEMBER_1_MEMBER_14_FILL">
<path fill="#47B5C3" stroke="none" d="
M 525 367.5
Q 521.35 367.5 518.8 370.1
L 472.5 416.4 452.4 396.35
Q 449.85 393.75 446.25 393.75 442.6 393.75 440.05 396.35 437.45 398.9 437.45 402.55 437.45 406.15 440.05 408.7
L 466.3 434.95
Q 468.85 437.5 472.5 437.5 476.1 437.5 478.65 434.95
L 531.15 382.45
Q 533.75 379.9 533.75 376.3 533.75 372.65 531.15 370.1 528.6 367.5 525 367.5 Z"/>
</g>

<g id="Layer0_4_MEMBER_0_FILL">
<path fill="#0F5DA6" stroke="none" d="
M -102.1 133.3
Q -117.85 133.3 -129 144.4 -140.1 155.55 -140.1 171.3 -140.1 187.05 -129 198.15 -117.85 209.3 -102.1 209.3 -86.35 209.3 -75.25 198.15 -64.1 187.05 -64.1 171.3 -64.1 155.55 -75.25 144.4 -86.35 133.3 -102.1 133.3 Z"/>
</g>

<g id="Layer0_4_MEMBER_1_MEMBER_0_FILL">
<path fill="#47B5C3" stroke="none" d="
M 396.6 380.7
Q 392.65 385.05 386.8 385.05
L 312.45 385.05
Q 308.8 385.05 306.25 387.6 303.7 390.15 303.7 393.8 303.7 397.4 306.25 400 308.8 402.55 312.45 402.55
L 478.7 402.55
Q 481.8 402.55 484.3 400.5
L 570 329.05
Q 574.35 325.45 579.9 325.35 585.5 325.25 589.2 328.65 593.8 332.9 593.9 338.9 594.05 344.8 589.75 349.1
L 547.4 391.45
Q 544.8 394 544.8 397.65 544.8 401.25 547.4 403.8 549.95 406.4 553.6 406.4 557.2 406.4 559.75 403.8
L 602.1 361.5
Q 606.65 357 609.1 351 611.5 345 611.4 338.55 611.3 332.05 608.6 326.15 605.95 320.25 601.05 315.75
L 600.3 315.2 605.5 308.6
Q 612.35 299.9 612.45 288.8 612.6 277.7 605.95 268.85 601.9 263.45 596 260.1 590.15 256.75 583.45 256 576.75 255.25 570.3 257.25 563.8 259.2 558.7 263.55
L 528.85 288.9
Q 527.9 287.3 527.2 286.35 523.15 280.95 517.25 277.6 511.4 274.25 504.7 273.5 498 272.75 491.55 274.75 485.05 276.7 479.95 281.05
L 423.05 329.4
Q 420.3 331.75 420 335.35 419.75 339 422.05 341.75 424.7 344.85 428.75 344.85 431.95 344.85 434.4 342.75
L 491.25 294.4
Q 496.3 290.15 502.75 290.9 509.2 291.6 513.2 296.85 514.35 298.35 515.15 300.6
L 415.8 385.05 414.5 385.05
Q 418.2 377.25 417.3 368.75 416.15 357.2 406.95 349.25 397.8 341.3 385.6 341.3
L 326.8 341.3
Q 304.95 341.3 286.55 345.5 268.1 349.7 251.35 358.55
L 233.1 368.3
Q 183.5 394.5 146.05 436.4 108.6 478.3 88.1 530.6 86.75 533.95 88.2 537.25 89.65 540.6 93.05 541.9 94.5 542.55 96.25 542.55 98.85 542.55 101.1 541.05 103.35 539.5 104.35 537 123.75 487.6 159.1 448.05 194.45 408.5 241.3 383.75
L 259.55 374.05
Q 274.35 366.25 290.8 362.55 307.2 358.8 326.8 358.8
L 385.6 358.8
Q 391.1 358.8 395.25 362.2 399.4 365.6 399.9 370.5 400.45 376.45 396.6 380.7
M 475.5 385.05
L 442.8 385.05 570.05 276.9
Q 572.45 274.85 575.45 273.95 578.4 273.05 581.55 273.4 584.65 273.75 587.35 275.3 590.1 276.85 591.95 279.35 595.05 283.5 595 288.6 594.95 293.75 591.75 297.8
L 583.65 308.15
Q 577.1 307.4 570.75 309.25 564.15 311.15 558.85 315.55
L 475.5 385.05 Z"/>
</g>

<g id="Layer0_4_MEMBER_1_MEMBER_1_FILL">
<path fill="#47B5C3" stroke="none" d="
M 320.65 476.7
Q 301.85 479.2 286.8 490.85 271.8 502.5 264.75 520.1
L 260.55 530.5
Q 259.2 533.85 260.65 537.2 262.05 540.55 265.4 541.9 267 542.55 268.65 542.55 271.3 542.55 273.5 541.1 275.75 539.6 276.8 537.05
L 281 526.6
Q 286.3 513.4 297.55 504.65 308.8 495.95 322.9 494.05
L 450.25 477.45
Q 470.2 474.85 488.5 465.85 506.75 456.85 521 442.6
L 535 428.6
Q 537.6 426 537.6 422.4 537.6 418.8 535 416.2 532.45 413.65 528.85 413.65 525.2 413.65 522.65 416.2
L 508.65 430.2
Q 496.45 442.4 480.75 450.15 465.1 457.85 448 460.1
L 320.65 476.7 Z"/>
</g>

<g id="Layer0_4_MEMBER_1_MEMBER_2_FILL">
<path fill="#47B5C3" stroke="none" d="
M 492.55 182.85
Q 498.75 167.95 498.75 151.6 498.75 135.25 492.6 120.35 486.4 105.45 474.85 93.9 463.25 82.35 448.4 76.2 433.5 70 417.15 70 400.8 70 385.9 76.2 371 82.35 359.45 93.9
L 350 103.4 340.5 93.9
Q 328.95 82.35 314.05 76.2 299.15 70 282.8 70 266.45 70 251.55 76.2 236.7 82.35 225.1 93.9 213.55 105.5 207.4 120.35 201.25 135.25 201.25 151.6 201.25 167.95 207.4 182.85 213.55 197.75 225.1 209.3
L 253.65 237.85
Q 256.25 240.4 259.85 240.4 263.45 240.4 266.05 237.85 268.6 235.25 268.6 231.65 268.6 228.05 266.05 225.45
L 237.5 196.95
Q 228.4 187.85 223.55 176.15 218.7 164.45 218.7 151.6 218.7 138.8 223.55 127.1 228.4 115.4 237.5 106.3 246.6 97.2 258.3 92.35 270 87.5 282.8 87.5 295.65 87.5 307.35 92.35 319.05 97.2 328.15 106.3
L 343.8 121.95
Q 346.35 124.5 350 124.5 353.6 124.5 356.15 121.95
L 371.8 106.3
Q 380.9 97.2 392.6 92.35 404.3 87.5 417.15 87.5 429.95 87.5 441.7 92.35 453.35 97.2 462.45 106.3 471.5 115.35 476.35 127.1 481.2 138.75 481.2 151.6 481.2 164.45 476.35 176.15 471.5 187.9 462.45 196.95
L 369.55 289.85
Q 361.7 297.7 350 297.7 338.25 297.7 330.4 289.85
L 290.75 250.2
Q 288.2 247.65 284.6 247.65 280.95 247.65 278.4 250.2 275.85 252.8 275.85 256.4 275.85 260 278.4 262.6
L 318.05 302.2
Q 324.4 308.6 332.65 312.05 340.9 315.45 349.95 315.45 359 315.45 367.25 312.05 375.5 308.6 381.9 302.2
L 474.8 209.3
Q 486.4 197.75 492.55 182.85 Z"/>
</g>

<g id="Layer0_4_MEMBER_1_MEMBER_3_FILL">
<path fill="#47B5C3" stroke="none" d="
M 373.7 142.6
Q 371.1 140 367.5 140
L 332.5 140
Q 328.85 140 326.3 142.6 323.75 145.15 323.75 148.75
L 323.75 166.25 306.25 166.25
Q 302.6 166.25 300.05 168.85 297.5 171.4 297.5 175
L 297.5 210
Q 297.5 213.65 300.05 216.2 302.6 218.75 306.25 218.75
L 323.75 218.75 323.75 236.25
Q 323.75 239.9 326.3 242.45 328.85 245 332.5 245
L 367.5 245
Q 371.1 245 373.7 242.45 376.25 239.9 376.25 236.25
L 376.25 218.75 393.75 218.75
Q 397.35 218.75 399.95 216.2 402.5 213.65 402.5 210
L 402.5 175
Q 402.5 171.4 399.95 168.85 397.35 166.25 393.75 166.25
L 376.25 166.25 376.25 148.75
Q 376.25 145.15 373.7 142.6
M 358.75 175
Q 358.75 178.65 361.3 181.2 363.85 183.75 367.5 183.75
L 385 183.75 385 201.25 367.5 201.25
Q 363.85 201.25 361.3 203.85 358.75 206.4 358.75 210
L 358.75 227.5 341.25 227.5 341.25 210
Q 341.25 206.4 338.7 203.85 336.1 201.25 332.5 201.25
L 315 201.25 315 183.75 332.5 183.75
Q 336.1 183.75 338.7 181.2 341.25 178.65 341.25 175
L 341.25 157.5 358.75 157.5 358.75 175 Z"/>
</g>

<g id="Layer0_5_MEMBER_0_FILL">
<path fill="#0F5DA6" stroke="none" d="
M -102.1 133.3
Q -117.85 133.3 -129 144.4 -140.1 155.55 -140.1 171.3 -140.1 187.05 -129 198.15 -117.85 209.3 -102.1 209.3 -86.35 209.3 -75.25 198.15 -64.1 187.05 -64.1 171.3 -64.1 155.55 -75.25 144.4 -86.35 133.3 -102.1 133.3 Z"/>
</g>

<g id="Layer0_5_MEMBER_1_MEMBER_0_FILL">
<path fill="#47B5C3" stroke="none" d="
M 498.1 115.05
Q 496.8 107.45 492.95 100.7 489.05 94 483.15 89 477.25 84 470 81.35 462.7 78.7 454.95 78.7 447.2 78.7 439.95 81.35 432.7 84 426.8 89 420.9 94 417 100.7 413.15 107.45 411.85 115.05 410.55 122.65 411.95 130.3 413.3 137.95 417.25 144.6 407.75 152 401.75 162.45 395.8 172.85 394.25 184.8 392.7 196.75 395.8 208.35 398.9 220 406.2 229.55 413.5 239.1 423.9 245.2 434.3 251.25 446.2 252.9
L 446.2 288.75 376.2 288.75 376.2 35
Q 376.2 31.4 373.65 28.85 371.05 26.25 367.45 26.25
L 192.45 26.25
Q 188.9 26.25 186.3 28.85 183.7 31.45 183.7 35
L 183.7 288.75 104.95 288.75
Q 101.35 288.75 98.8 291.35 96.2 293.9 96.2 297.5 96.2 301.15 98.8 303.7 101.35 306.25 104.95 306.25
L 114.15 306.25
Q 115.95 349.35 132.8 389.05 149.6 428.75 179.35 460 209.05 491.3 247.85 510.1 286.65 528.9 329.6 532.85 339.8 533.75 349.9 533.75 387.6 533.75 423.4 522.05 459.2 510.3 489.55 488 492.5 485.85 493.05 482.25 493.6 478.7 491.45 475.75 489.3 472.8 485.7 472.3 482.1 471.75 479.2 473.9 456.75 490.3 430.95 500.55 405.15 510.8 377.6 514.25 367.1 500.25 364.9 482.85 362.7 465.45 369.4 449.25 376.1 433 389.9 422.2 403.7 411.4 421.05 408.85 423.7 408.45 425.65 406.6 427.6 404.8 428.2 402.2 432.95 381.2 447.1 364.95 461.3 348.75 481.45 341.15 501.6 333.55 522.95 336.45 544.3 339.35 561.7 352 551.35 392.75 526.5 426.75 524.35 429.7 524.9 433.25 525.5 436.85 528.4 439 531.35 441.15 534.9 440.6 538.45 440.05 540.6 437.1 559.75 410.9 571.15 380.55 582.6 350.1 585.35 317.8 585.45 316.55 585.85 306.3
L 595 306.3
Q 598.6 306.3 601.2 303.75 603.75 301.15 603.75 297.55 603.75 293.9 601.2 291.35 598.6 288.8 595 288.8
L 595 288.75 463.75 288.75 463.75 252.9
Q 475.65 251.25 486.05 245.2 496.45 239.1 503.75 229.55 511.05 220 514.15 208.35 517.3 196.75 515.7 184.8 514.15 172.85 508.2 162.45 502.2 152 492.7 144.6 496.65 137.95 498.05 130.3 499.4 122.65 498.1 115.05
M 489.9 183.8
Q 489.85 180.2 487.3 177.7 484.8 175.15 481.2 175.1 477.6 175.1 475.05 177.6
L 463.75 188.9 463.75 175
Q 463.75 171.4 461.2 168.85 458.6 166.25 455 166.25 451.35 166.25 448.8 168.85 446.25 171.4 446.25 175
L 446.25 235.4
Q 438.85 233.85 432.35 229.95 425.9 226.05 421.1 220.2 416.35 214.3 413.8 207.2 411.25 200.05 411.25 192.5 411.25 180.65 417.4 170.35 423.5 160.15 434 154.4 437.75 152.4 438.45 148.05 439.1 143.75 436.1 140.7 432.5 136.95 430.6 132.15 428.7 127.3 428.75 122.15 428.8 117 430.8 112.2 432.8 107.45 436.5 103.8 440.2 100.15 445 98.15 449.8 96.2 455 96.2 460.2 96.2 464.95 98.15 469.75 100.15 473.45 103.8 477.1 107.45 479.15 112.2 481.2 116.95 481.25 122.15 481.3 127.35 479.35 132.15 477.45 136.95 473.85 140.7 472.45 142.15 471.8 144.1 471.2 146 471.5 148.05 471.85 150.1 473 151.75 474.15 153.45 475.95 154.4 483.85 158.65 489.4 165.75 494.95 172.85 497.3 181.55 499.6 190.25 498.25 199.15 496.9 208.1 492.15 215.7 487.4 223.35 480 228.5 472.55 233.65 463.75 235.4
L 463.75 213.65 487.4 189.95
Q 489.9 187.4 489.9 183.8
M 435.65 351.65
Q 419.35 369.45 412.6 392.65 393.2 397 377.75 409.65 362.3 422.25 354.15 440.45 346.05 458.7 346.95 478.6 347.85 498.5 357.6 515.9 344.35 516.45 331.15 515.45 300.85 512.8 272.9 502.1 280.95 492.85 285.15 481.4 289.4 469.85 289.15 457.65 288.95 445.4 284.3 434.05 279.7 422.75 271.25 413.85 262.85 404.95 251.8 399.65 240.8 394.4 228.55 393.45 211.25 392.05 195.65 399.45 179.95 406.85 170.15 421.1 152.5 395.75 142.6 366.45 132.75 337.15 131.4 306.25
L 568.5 306.25
Q 568.25 311.4 567.9 316.35
L 567.9 316.4
Q 567.25 323.6 565.7 333.45 545.1 320.8 521.05 318.65 497 316.45 474.5 325.15 451.95 333.85 435.65 351.65
M 358.75 43.75
L 358.75 288.75 323.75 288.75 323.75 210
Q 323.75 206.45 321.15 203.85 318.55 201.25 315 201.25
L 245 201.25
Q 241.4 201.25 238.8 203.85 236.25 206.4 236.25 210
L 236.25 288.75 201.25 288.75 201.25 43.75 358.75 43.75
M 253.75 218.75
L 306.25 218.75 306.25 288.75 253.75 288.75 253.75 218.75
M 259.85 427.2
Q 266.05 434.3 269.1 443.3 272.15 452.3 271.55 461.75 270.95 471.25 266.75 479.75 262.6 488.25 255.45 494.5 234 484.05 215.3 469.25 196.55 454.45 181.45 436.05 188 423.5 200.55 416.55 212.95 409.75 227.2 410.9 236.65 411.6 245.15 415.8 253.65 420.05 259.85 427.2 Z"/>
</g>

<g id="Layer0_5_MEMBER_1_MEMBER_1_FILL">
<path fill="#47B5C3" stroke="none" d="
M 238.8 133.85
Q 236.25 136.4 236.25 140
L 236.25 175
Q 236.25 178.65 238.8 181.2 241.35 183.75 245 183.75
L 315 183.75
Q 318.6 183.75 321.15 181.2 323.75 178.6 323.75 175
L 323.75 140
Q 323.75 136.45 321.15 133.85 318.55 131.25 315 131.25
L 245 131.25
Q 241.4 131.25 238.8 133.85
M 253.75 166.25
L 253.75 148.75 306.25 148.75 306.25 166.25 253.75 166.25 Z"/>
</g>

<g id="Layer0_5_MEMBER_1_MEMBER_2_FILL">
<path fill="#47B5C3" stroke="none" d="
M 321.15 63.85
Q 318.55 61.25 315 61.25
L 245 61.25
Q 241.4 61.25 238.8 63.85 236.25 66.4 236.25 70
L 236.25 105
Q 236.25 108.65 238.8 111.2 241.35 113.75 245 113.75
L 315 113.75
Q 318.6 113.75 321.15 111.2 323.75 108.6 323.75 105
L 323.75 70
Q 323.75 66.45 321.15 63.85
M 253.75 96.25
L 253.75 78.75 306.25 78.75 306.25 96.25 253.75 96.25 Z"/>
</g>

<g id="Layer0_5_MEMBER_1_MEMBER_3_FILL">
<path fill="#47B5C3" stroke="none" d="
M 510.85 467.15
Q 513.5 467.15 515.7 465.65 517.9 464.2 518.9 461.75 519.95 459.3 519.45 456.7 518.95 454.1 517.05 452.2 514.5 449.65 510.85 449.65 507.2 449.65 504.65 452.2 502.8 454.1 502.25 456.7 501.75 459.3 502.75 461.75 503.75 464.2 506 465.65 508.2 467.15 510.85 467.15 Z"/>
</g>

<g id="Layer0_6_MEMBER_0_FILL">
<path fill="#0F5DA6" stroke="none" d="
M -102.1 133.3
Q -117.85 133.3 -129 144.4 -140.1 155.55 -140.1 171.3 -140.1 187.05 -129 198.15 -117.85 209.3 -102.1 209.3 -86.35 209.3 -75.25 198.15 -64.1 187.05 -64.1 171.3 -64.1 155.55 -75.25 144.4 -86.35 133.3 -102.1 133.3 Z"/>
</g>

<g id="Layer0_6_MEMBER_1_MEMBER_0_FILL">
<path fill="#47B5C3" stroke="none" d="
M 350.3 23.05
Q 343.05 23.05 337.5 27.6
L 121.2 206.95
Q 117.8 209.85 115.9 213.85 114 217.9 114 222.35
L 114 246.95
Q 114 255.2 119.9 261.1 125.75 266.95 134 266.95
L 142 266.95 142 353.85
Q 142 356.5 143.85 358.3 145.7 360.15 148.3 360.15 150.9 360.15 152.7 358.3 154.55 356.45 154.55 353.85
L 154.55 266.95 545.95 266.95 545.95 374.05 521.6 374.05 521.6 371.05
Q 521.6 364.25 516.8 359.5 512 354.7 505.25 354.7
L 484.3 354.7 484.3 332.8 500.5 332.8
Q 508.9 332.8 514.85 326.9 520.75 320.95 520.75 312.55 520.75 304.15 514.85 298.2 508.9 292.25 500.5 292.25
L 455.6 292.25
Q 447.2 292.25 441.3 298.2 435.35 304.15 435.35 312.55 435.35 320.95 441.3 326.9 447.2 332.8 455.6 332.8
L 471.8 332.8 471.8 354.7 450.85 354.7
Q 444.1 354.7 439.3 359.5 434.5 364.3 434.5 371.05
L 434.5 374.05 393.4 374.05
Q 377.2 374.05 365.7 385.55 354.2 397 354.2 413.25
L 354.2 453.7 347.45 453.7
Q 344.85 453.7 343 455.55 341.15 457.4 341.15 460 341.15 462.6 343 464.4 344.85 466.25 347.45 466.25
L 362.8 466.25
Q 355 477.35 355 484.95 355 495.7 362.6 503.3 370.2 510.9 380.95 510.9 391.7 510.9 399.3 503.3 406.9 495.7 406.9 484.95 406.9 477.35 399.1 466.25
L 414.55 466.25
Q 417.15 466.25 419 464.4 420.8 462.6 420.8 460 420.8 457.4 418.95 455.55 417.15 453.7 414.55 453.7
L 407.1 453.7 407.1 428.35
Q 407.1 427.7 407.55 427.25 407.95 426.8 408.6 426.8
L 434.65 426.8 434.65 433.7
Q 434.65 440.5 439.5 445.25 444.3 450.05 451.05 450.05
L 505.4 450.05
Q 512.2 450.05 517 445.25 521.8 440.45 521.8 433.7
L 521.8 426.8 539.45 426.8
Q 537.15 438.55 537.15 449.15 537.15 473.9 548.6 488.15 558.3 500.2 573.65 502.5
L 573.65 534.6 553.45 534.6 553.5 533.55
Q 553.5 521.4 544.9 512.75 536.25 504.1 524.1 504.1 520.5 504.1 516.85 505.05 513.05 493.25 502.95 485.95 492.75 478.5 480.05 478.5 464 478.5 452.6 489.85 441.2 501.25 441.2 517.25 441.2 526.2 445.6 534.75
L 322.75 534.75 322.75 390.6
Q 322.75 363.55 303.55 344.4 284.4 325.25 257.4 325.25 230.4 325.25 211.25 344.45 192.05 363.6 192.05 390.6
L 192.05 534.65 126.45 534.65 126.45 502.6
Q 141.8 500.25 151.45 488.25 162.95 473.95 162.95 449.2 162.95 420.95 150.8 397.75 137.9 373.2 120.3 373.2 102.65 373.2 89.8 397.75 77.6 420.95 77.6 449.2 77.6 473.95 89.05 488.25 98.7 500.25 114.1 502.6
L 114.1 534.65 86.45 534.65
Q 83.85 534.65 82 536.5 80.15 538.35 80.15 540.95 80.15 543.55 82 545.35 83.85 547.2 86.45 547.2
L 614.1 547.2
Q 616.7 547.2 618.55 545.35 620.35 543.55 620.35 540.95 620.4 538.35 618.5 536.5 616.65 534.65 614.1 534.65
L 585.95 534.65 585.95 502.6
Q 601.3 500.25 610.95 488.25 622.4 473.95 622.4 449.2 622.4 420.95 610.25 397.75 597.4 373.2 579.75 373.2 568.45 373.2 558.55 384.15
L 558.55 266.95 566.6 266.95
Q 574.85 266.95 580.75 261.1 586.6 255.2 586.6 246.95
L 586.6 222.35
Q 586.6 217.9 584.75 213.85 582.85 209.85 579.4 206.95
L 363.05 27.6
Q 357.5 23.05 350.3 23.05
M 350.25 35.5
Q 352.85 35.5 355 37.2
L 560.15 207.3 140.3 207.3 345.5 37.2
Q 347.4 35.5 350.25 35.5
M 374.5 394.35
Q 382.35 386.5 393.4 386.5
L 434.45 386.5 434.45 414.35 408.4 414.35
Q 402.6 414.35 398.5 418.45 394.4 422.55 394.4 428.35
L 394.4 453.7 366.7 453.7 366.7 413.25
Q 366.7 402.2 374.5 394.35
M 450.05 317.95
Q 447.8 315.7 447.8 312.45 447.8 309.2 450.1 306.9 452.35 304.65 455.6 304.65
L 500.5 304.65
Q 503.75 304.65 506 306.9 508.3 309.2 508.3 312.45 508.3 315.7 506 318 503.75 320.25 500.5 320.25
L 455.6 320.25
Q 452.35 320.25 450.05 317.95
M 448.1 368.3
Q 449.25 367.15 450.85 367.15
L 505.25 367.15
Q 506.85 367.15 508 368.3 509.15 369.5 509.15 371.05
L 509.15 433.7
Q 509.15 435.3 508 436.45 506.85 437.6 505.25 437.6
L 450.85 437.6
Q 449.25 437.6 448.1 436.45 446.95 435.3 446.95 433.7
L 446.95 371.05
Q 446.95 369.45 448.1 368.3
M 574.15 222.4
L 574.15 247.05
Q 574.15 250.15 571.95 252.35 569.7 254.5 566.6 254.5
L 134.05 254.5
Q 130.9 254.5 128.7 252.35 126.517578125 250.167578125 126.5 247.05
L 126.5 222.4
Q 126.5 221.4 127.05 219.85
L 573.55 219.85
Q 574.15 221.3 574.15 222.4
M 521.6 386.5
L 545.95 386.5 545.95 404.5
Q 543.85 409.35 542.4 414.35
L 521.6 414.35 521.6 386.5
M 568.75 391.25
Q 574.3 385.65 579.65 385.65 590.65 385.65 600.25 405.85 609.85 426.05 609.85 449.2 609.85 468.7 601.85 479.65 593.85 490.6 579.65 490.6 565.45 490.6 557.45 479.65 549.45 468.7 549.45 449.2 549.45 426.05 559.05 405.85 563.45 396.55 568.75 391.25
M 109.3 391.25
Q 114.85 385.65 120.2 385.65 131.2 385.65 140.8 405.85 150.4 426.05 150.4 449.2 150.4 468.7 142.4 479.65 134.4 490.6 120.2 490.6 106 490.6 98 479.65 90 468.7 90 449.2 90 426.05 99.6 405.85 104 396.55 109.3 391.25
M 204.45 390.6
Q 204.45 368.75 219.95 353.25 235.5 337.7 257.3 337.7 279.2 337.7 294.7 353.25 310.15 368.75 310.15 390.6
L 310.15 402.05 204.45 402.05 204.45 390.6
M 204.45 534.65
L 204.45 414.5 310.25 414.5 310.25 534.65 204.45 534.65
M 540.85 533.55
L 540.85 534.55 460.2 534.55 460.2 534.65
Q 453.45 527.3 453.45 517.15 453.45 506.25 461.2 498.55 468.9 490.85 479.85 490.85 489.9 490.85 497.4 497.55 504.9 504.25 506 514.2 506.2 515.8 507.1 517.1 508 518.45 509.4 519.1 510.8 519.8 512.4 519.8 514 519.75 515.35 518.95 519.4 516.6 523.9 516.6 530.9 516.6 535.9 521.55 540.85 526.55 540.85 533.55
M 394.25 484.95
Q 394.35 490.45 390.4 494.45 386.45 498.45 380.85 498.45 375.25 498.45 371.3 494.5 367.35 490.55 367.35 484.95 367.35 482.7 369.85 478.25 372.8 473 378.4 466.25
L 383.2 466.25
Q 388.85 472.95 391.8 478.25 394.25 482.7 394.25 484.95 Z"/>
</g>

<g id="Layer0_6_MEMBER_1_MEMBER_1_FILL">
<path fill="#47B5C3" stroke="none" d="
M 392.55 134.6
Q 392.55 117.15 380.2 104.8 367.8 92.4 350.3 92.4 332.85 92.4 320.45 104.8 308.05 117.15 308.05 134.6 308 152.05 320.4 164.45 332.8 176.85 350.3 176.85 367.8 176.85 380.2 164.45 392.55 152.1 392.55 134.6
M 371.4 113.6
Q 380.1 122.3 380.1 134.6 380.1 146.95 371.4 155.65 362.65 164.35 350.3 164.35 337.95 164.35 329.25 155.65 320.55 146.95 320.55 134.6 320.5 122.3 329.2 113.6 337.95 104.9 350.3 104.9 362.65 104.9 371.4 113.6 Z"/>
</g>

<g id="Layer0_7_MEMBER_0_FILL">
<path fill="#0F5DA6" stroke="none" d="
M -102.1 133.3
Q -117.85 133.3 -129 144.4 -140.1 155.55 -140.1 171.3 -140.1 187.05 -129 198.15 -117.85 209.3 -102.1 209.3 -86.35 209.3 -75.25 198.15 -64.1 187.05 -64.1 171.3 -64.1 155.55 -75.25 144.4 -86.35 133.3 -102.1 133.3 Z"/>
</g>

<g id="Layer0_7_MEMBER_1_MEMBER_0_FILL">
<path fill="#47B5C3" stroke="none" d="
M 215.1 40.05
Q 217.4 39.85 218.95 38.1 220.55 36.35 220.55 34.05 220.55 31.75 218.95 30 217.4 28.3 215.1 28.05
L 161.3 28.05
Q 156.15 28.05 151.45 30 146.7 31.95 143.1 35.6 139.45 39.25 137.5 44 135.5 48.7 135.5 53.85
L 135.5 86.55
Q 135.5 89.05 137.25 90.8 139 92.55 141.55 92.55 144.05 92.55 145.8 90.8 147.55 89.05 147.55 86.55
L 147.55 53.85
Q 147.55 48.15 151.6 44.1 155.6 40.05 161.3 40.05
L 215.1 40.05 Z"/>
</g>

<g id="Layer0_7_MEMBER_1_MEMBER_1_FILL">
<path fill="#47B5C3" stroke="none" d="
M 505.75 42.2
Q 505.75 36.3 501.6 32.15 497.45 28 491.6 28
L 271.2 28
Q 268.85 28.25 267.3 30 265.7 31.75 265.7 34.05 265.7 36.35 267.3 38.1 268.85 39.85 271.2 40.05
L 491.6 40.05
Q 492.5 40.05 493.15 40.7 493.75 41.3 493.8 42.2
L 493.8 74
Q 493.7 76.45 495.5 78.25 497.3 80.05 499.75 80.05 502.25 80.05 504.05 78.25 505.85 76.45 505.75 74
L 505.75 42.2 Z"/>
</g>

<g id="Layer0_7_MEMBER_1_MEMBER_2_FILL">
<path fill="#47B5C3" stroke="none" d="
M 249.55 491.35
Q 249.55 488.85 247.8 487.1 246.05 485.35 243.55 485.35
L 191 485.35
Q 188.55 485.35 186.75 487.1 185 488.9 185 491.35
L 185 522.15
Q 184.9 525.15 187.25 526.85 189.5 528.7 192.35 528.05
L 217.25 522.45 242.25 528.05
Q 242.95 528.15 243.6 528.05 245.7677734375 528.036328125 247.3 526.85 249.55 525.05 249.55 522.15
L 249.55 491.35
M 217.25 509.95
Q 216.6119140625 509.98203125 216.15 510.15
L 216.15 510.1 197.2 514.45 197.2 497.25 237.6 497.25 237.6 514.25 218.6 509.95
Q 217.95 509.9 217.25 509.95 Z"/>
</g>

<g id="Layer0_7_MEMBER_1_MEMBER_3_FILL">
<path fill="#47B5C3" stroke="none" d="
M 414.5 80.05
Q 417.15 80.3 419.15 78.5 421.1 76.7 421.1 74.05 421.1 71.35 419.15 69.55 417.15 67.75 414.5 68
L 149.75 68
Q 144 67.95 139.9 72 135.8 76.05 135.7 81.8
L 135.7 483.4
Q 135.8 489.15 139.9 493.25 144 497.3 149.75 497.25
L 345.55 497.25
Q 347.85 497.05 349.45 495.3 351 493.6 351 491.25 351 488.9 349.45 487.15 347.9 485.45 345.55 485.2
L 149.55 485.2
Q 148.85 485.25 148.15 484.75 147.55 484.15 147.55 483.4
L 147.55 81.8
Q 147.6 81 148.2 80.5 148.75 80 149.55 80.05
L 414.5 80.05 Z"/>
</g>

<g id="Layer0_7_MEMBER_1_MEMBER_4_FILL">
<path fill="#47B5C3" stroke="none" d="
M 524.05 72
Q 519.95 67.95 514.15 68
L 446.95 68
Q 444.6 68.25 443.05 69.95 441.5 71.7 441.5 74.05 441.5 76.4 443.05 78.1 444.65 79.85 446.95 80.05
L 514.15 80.05
Q 514.95 80 515.55 80.5 516.15 81 516.2 81.8
L 516.2 383
Q 516.15 385.45 517.9 387.3 519.75 389.05 522.2 389.05 524.6 389.05 526.45 387.3 528.2 385.55 528.2 383
L 528.2 81.8
Q 528.15 76.05 524.05 72 Z"/>
</g>

<g id="Layer0_7_MEMBER_1_MEMBER_5_FILL">
<path fill="#47B5C3" stroke="none" d="
M 201.95 68
Q 199.5 68 197.7 69.75 195.95 71.55 195.95 74
L 195.95 491.2
Q 195.95 493.65 197.7 495.45 199.45 497.2 201.95 497.25 204.45 497.2 206.2 495.45 207.95 493.7 207.95 491.2
L 207.95 74
Q 207.95 71.55 206.2 69.75 204.45 68 201.95 68 Z"/>
</g>

<g id="Layer0_7_MEMBER_1_MEMBER_6_FILL">
<path fill="#47B5C3" stroke="none" d="
M 463.4 145.25
Q 459.2 141.1 453.3 141.2
L 274.9 141.2
Q 269.05 141.2 264.95 145.3 260.8 149.45 260.8 155.25
L 260.8 207.55
Q 260.8 213.35 264.95 217.5 269.15 221.65 274.9 221.55
L 453.3 221.55
Q 459.15 221.7 463.4 217.55 467.6 213.45 467.6 207.55
L 467.6 155.25
Q 467.6 149.45 463.4 145.25
M 453.3 153.25
Q 454.15 153.25 454.7 153.85 455.3 154.45 455.3 155.25
L 455.3 207.55
Q 455.3 208.4 454.7 209 454.15 209.6 453.3 209.6
L 274.9 209.6
Q 274.05 209.6 273.45 209 272.85 208.4 272.85 207.55
L 272.85 155.25
Q 272.85 154.4 273.45 153.85 274.05 153.25 274.9 153.25
L 453.3 153.25 Z"/>
</g>

<g id="Layer0_7_MEMBER_1_MEMBER_7_FILL">
<path fill="#47B5C3" stroke="none" d="
M 396.55 273.5
Q 398.9 273.25 400.45 271.5 402.05 269.75 402.05 267.45 402.05 265.15 400.45 263.4 398.9 261.7 396.55 261.45
L 262.85 261.45
Q 260.5 261.7 258.95 263.4 257.35 265.15 257.35 267.45 257.35 269.75 258.95 271.5 260.5 273.25 262.85 273.5
L 396.55 273.5 Z"/>
</g>

<g id="Layer0_7_MEMBER_1_MEMBER_8_FILL">
<path fill="#47B5C3" stroke="none" d="
M 344 312.75
Q 346.3 312.55 347.9 310.8 349.45 309.05 349.45 306.7 349.45 304.35 347.9 302.65 346.3 300.95 344 300.7
L 262.85 300.7
Q 260.55 300.95 258.95 302.65 257.4 304.35 257.4 306.7 257.4 309.05 258.95 310.8 260.55 312.55 262.85 312.75
L 344 312.75 Z"/>
</g>

<g id="Layer0_7_MEMBER_1_MEMBER_9_FILL">
<path fill="#47B5C3" stroke="none" d="
M 351.75 393.75
Q 351.75 393.1 352.2 392.65 352.7 392.2 353.35 392.2
L 550.85 392.2
Q 551.5 392.2 551.95 392.65 552.4 393.1 552.4 393.75
L 552.4 446.5
Q 552.65 448.85 554.35 450.4 556.1 452 558.45 452 560.75 452 562.5 450.4 564.25 448.85 564.45 446.5
L 564.45 393.75
Q 564.45 388.05 560.45 384.15 556.45 380.15 550.85 380.15
L 353.35 380.15
Q 347.7 380.2 343.75 384.15 339.8 388.15 339.8 393.75
L 339.8 503.25
Q 339.8 508.85 343.75 512.85 347.7 516.8 353.35 516.85
L 382.75 516.85 393.95 528.05
Q 397.9 532 403.5 532
L 403.5 532.05
Q 409.15 532.05 413.15 528.05
L 424.35 516.85 550.7 516.85
Q 556.35 516.85 560.3 512.85 564.3 508.9 564.3 503.25
L 564.3 480.85
Q 564.55 478.15 562.75 476.2 560.9 474.2 558.25 474.2 555.65 474.2 553.8 476.2 552 478.15 552.25 480.85
L 552.25 503.25
Q 552.25 503.9 551.8 504.35 551.35 504.8 550.7 504.8
L 421.9 504.8
Q 419.35 504.8 417.65 506.6
L 404.65 519.55
Q 404.2 520 403.5 520 402.85 520 402.4 519.55
L 389.45 506.6
Q 387.8 504.9 385.2 504.8
L 353.35 504.8
Q 352.7 504.8 352.2 504.35 351.75 503.9 351.75 503.25
L 351.75 393.75 Z"/>
</g>

<g id="Layer0_7_MEMBER_1_MEMBER_10_FILL">
<path fill="#47B5C3" stroke="none" d="
M 522.4 436.15
Q 524.7 435.95 526.3 434.2 527.85 432.5 527.85 430.15 527.85 427.8 526.3 426.05 524.75 424.35 522.4 424.1
L 381.8 424.1
Q 379.45 424.35 377.9 426.05 376.3 427.8 376.3 430.15 376.3 432.45 377.9 434.2 379.45 435.95 381.8 436.15
L 522.4 436.15 Z"/>
</g>

<g id="Layer0_7_MEMBER_1_MEMBER_11_FILL">
<path fill="#47B5C3" stroke="none" d="
M 413.7 471.6
Q 416.2 471.6 417.95 469.85 419.7 468.1 419.7 465.6 419.7 463.15 417.95 461.35 416.2 459.6 413.7 459.6
L 381.8 459.6
Q 379.35 459.6 377.55 461.35 375.8 463.15 375.8 465.6 375.8 468.1 377.55 469.85 379.35 471.6 381.8 471.6
L 413.7 471.6 Z"/>
</g>

<g id="Layer0_7_MEMBER_1_MEMBER_12_FILL">
<path fill="#47B5C3" stroke="none" d="
M 501.35 471.6
Q 503.7205078125 471.5294921875 505.4 469.85 507.15 468.1 507.15 465.6 507.15 463.1 505.4 461.35 503.65 459.6 501.15 459.6
L 439.55 459.6
Q 437.1 459.6 435.35 461.35 433.6 463.1 433.6 465.6 433.6 468.1 435.35 469.85 437.1 471.6 439.55 471.6
L 501.35 471.6 Z"/>
</g>

<g id="Layer0_7_MEMBER_1_MEMBER_13_FILL">
<path fill="#47B5C3" stroke="none" d="
M 248.65 40.05
Q 251 39.85 252.55 38.1 254.15 36.35 254.15 34.05 254.15 31.75 252.55 30 251 28.25 248.65 28
L 237.95 28
Q 235.3 27.75 233.3 29.55 231.35 31.35 231.35 34.05 231.35 36.8 233.3 38.5 235.4 40.35 237.95 40.05
L 248.65 40.05 Z"/>
</g>

<g id="Layer0_8_FILL">
<path fill="#0E0E0E" stroke="none" d="
M 298.3 454.7
Q 296.45 452.85 293.9 452.85 291.3 452.85 289.45 454.7 287.6 456.55 287.6 459.15
L 287.6 467.3
Q 287.6 469.9 289.45 471.7 291.3 473.55 293.9 473.55 296.5 473.55 298.3 471.7 300.15 469.9 300.15 467.3
L 300.15 459.15
Q 300.1 456.55 298.3 454.7 Z"/>
</g>

<path id="Layer0_0_1_STROKES" stroke="#47B5C3" stroke-width="2" stroke-linejoin="round" stroke-linecap="round" fill="none" d="
M 25.975689697265622 368.1398567199707
L 263.37188186645506 368.1398567199707 263.37188186645506 21.7149452209473 25.975689697265622 21.7149452209473 25.975689697265622 368.1398567199707 Z"/>
</defs>

<g transform="matrix( 0.7181854248046875, 0, 0, -1.0529632568359375, -20.85,417.05) ">
<use xlink:href="#Layer0_0_1_STROKES" transform="matrix( 1.39239501953125, 0, 0, -0.9496917724609375, 29,396.05) "/>
</g>

<g transform="matrix( 1, 0, 0, 1, 7,8) ">
<use xlink:href="#Layer0_1_FILL"/>
</g>

<g transform="matrix( 0.792449951171875, -0.14251708984375, 0.118255615234375, 0.6575469970703125, 26.6,173.2) ">
<use xlink:href="#Layer0_1_MEMBER_0_FILL"/>
</g>

<g transform="matrix( 0.792449951171875, -0.14251708984375, 0.118255615234375, 0.6575469970703125, 28.6,184.7) ">
<use xlink:href="#Layer0_1_MEMBER_1_FILL"/>
</g>

<g transform="matrix( 0.792449951171875, -0.14251708984375, 0.118255615234375, 0.6575469970703125, 30.7,196.2) ">
<use xlink:href="#Layer0_1_MEMBER_2_FILL"/>
</g>

<g transform="matrix( 0.792449951171875, -0.14251708984375, 0.118255615234375, 0.6575469970703125, 32.75,207.65) ">
<use xlink:href="#Layer0_1_MEMBER_3_FILL"/>
</g>

<g transform="matrix( 0.792449951171875, -0.14251708984375, 0.118255615234375, 0.6575469970703125, 34.85,219.2) ">
<use xlink:href="#Layer0_1_MEMBER_4_FILL"/>
</g>

<g transform="matrix( 1, 0, 0, 1, 7,8) ">
<use xlink:href="#Layer0_1_MEMBER_5_FILL"/>
</g>

<g transform="matrix( 0.792449951171875, -0.14251708984375, 0.118255615234375, 0.6575469970703125, 38.9,242.55) ">
<use xlink:href="#Layer0_1_MEMBER_6_FILL"/>
</g>

<g transform="matrix( -0.792449951171875, 0.14251708984375, -0.118255615234375, -0.6575469970703125, 271.4,234.3) ">
<use xlink:href="#Layer0_1_MEMBER_7_FILL"/>
</g>

<g transform="matrix( -0.792449951171875, 0.14251708984375, -0.118255615234375, -0.6575469970703125, 269.3,222.85) ">
<use xlink:href="#Layer0_1_MEMBER_8_FILL"/>
</g>

<g transform="matrix( -0.792449951171875, 0.14251708984375, -0.118255615234375, -0.6575469970703125, 267.25,211.3) ">
<use xlink:href="#Layer0_1_MEMBER_9_FILL"/>
</g>

<g transform="matrix( -0.792449951171875, 0.14251708984375, -0.118255615234375, -0.6575469970703125, 265.2,199.9) ">
<use xlink:href="#Layer0_1_MEMBER_10_FILL"/>
</g>

<g transform="matrix( -0.792449951171875, 0.14251708984375, -0.118255615234375, -0.6575469970703125, 263.15,188.3) ">
<use xlink:href="#Layer0_1_MEMBER_11_FILL"/>
</g>

<g transform="matrix( 1, 0, 0, 1, -24,-157.95) ">
<use xlink:href="#Layer0_1_MEMBER_12_FILL"/>
</g>

<g transform="matrix( 0.792449951171875, -0.14251708984375, 0.118255615234375, 0.65753173828125, 7.9,76.6) ">
<use xlink:href="#Layer0_1_MEMBER_13_FILL"/>
</g>

<g transform="matrix( 0.489288330078125, 0, 0, 0.489288330078125, -127.95,-39.3) ">
<use xlink:href="#Layer0_2_MEMBER_0_FILL"/>
</g>

<g transform="matrix( 0.489288330078125, 0, 0, 0.489288330078125, -127.95,-39.3) ">
<use xlink:href="#Layer0_2_MEMBER_1_FILL"/>
</g>

<g transform="matrix( 1.0608978271484375, 0, 0, 1.0608978271484375, 315.45,-77.7) ">
<use xlink:href="#Layer0_3_MEMBER_0_FILL"/>
</g>

<g transform="matrix( 0.085601806640625, 0, 0, 0.08544921875, 177.1,79.95) ">
<use xlink:href="#Layer0_3_MEMBER_1_MEMBER_0_FILL"/>
</g>

<g transform="matrix( 0.085601806640625, 0, 0, 0.08544921875, 177.1,79.95) ">
<use xlink:href="#Layer0_3_MEMBER_1_MEMBER_1_FILL"/>
</g>

<g transform="matrix( 0.085601806640625, 0, 0, 0.08544921875, 177.1,79.95) ">
<use xlink:href="#Layer0_3_MEMBER_1_MEMBER_2_FILL"/>
</g>

<g transform="matrix( 0.085601806640625, 0, 0, 0.08544921875, 177.1,79.95) ">
<use xlink:href="#Layer0_3_MEMBER_1_MEMBER_3_FILL"/>
</g>

<g transform="matrix( 0.085601806640625, 0, 0, 0.08544921875, 177.1,79.95) ">
<use xlink:href="#Layer0_3_MEMBER_1_MEMBER_4_FILL"/>
</g>

<g transform="matrix( 0.085601806640625, 0, 0, 0.08544921875, 177.1,79.95) ">
<use xlink:href="#Layer0_3_MEMBER_1_MEMBER_5_FILL"/>
</g>

<g transform="matrix( 0.085601806640625, 0, 0, 0.08544921875, 177.1,79.95) ">
<use xlink:href="#Layer0_3_MEMBER_1_MEMBER_6_FILL"/>
</g>

<g transform="matrix( 0.085601806640625, 0, 0, 0.08544921875, 177.1,79.95) ">
<use xlink:href="#Layer0_3_MEMBER_1_MEMBER_7_FILL"/>
</g>

<g transform="matrix( 0.085601806640625, 0, 0, 0.08544921875, 177.1,79.95) ">
<use xlink:href="#Layer0_3_MEMBER_1_MEMBER_8_FILL"/>
</g>

<g transform="matrix( 0.085601806640625, 0, 0, 0.08544921875, 177.1,79.95) ">
<use xlink:href="#Layer0_3_MEMBER_1_MEMBER_9_FILL"/>
</g>

<g transform="matrix( 0.085601806640625, 0, 0, 0.08544921875, 177.1,79.95) ">
<use xlink:href="#Layer0_3_MEMBER_1_MEMBER_10_FILL"/>
</g>

<g transform="matrix( 0.085601806640625, 0, 0, 0.08544921875, 177.1,79.95) ">
<use xlink:href="#Layer0_3_MEMBER_1_MEMBER_11_FILL"/>
</g>

<g transform="matrix( 0.085601806640625, 0, 0, 0.08544921875, 177.1,79.95) ">
<use xlink:href="#Layer0_3_MEMBER_1_MEMBER_12_FILL"/>
</g>

<g transform="matrix( 0.085601806640625, 0, 0, 0.08544921875, 177.1,79.95) ">
<use xlink:href="#Layer0_3_MEMBER_1_MEMBER_13_FILL"/>
</g>

<g transform="matrix( 0.085601806640625, 0, 0, 0.08544921875, 177.1,79.95) ">
<use xlink:href="#Layer0_3_MEMBER_1_MEMBER_14_FILL"/>
</g>

<g transform="matrix( 1.1718597412109375, 0, 0, 1.1718597412109375, 185.1,-144.95) ">
<use xlink:href="#Layer0_4_MEMBER_0_FILL"/>
</g>

<g transform="matrix( 0.1061553955078125, 0, 0, 0.106109619140625, 29.05,21.6) ">
<use xlink:href="#Layer0_4_MEMBER_1_MEMBER_0_FILL"/>
</g>

<g transform="matrix( 0.1061553955078125, 0, 0, 0.106109619140625, 29.05,21.6) ">
<use xlink:href="#Layer0_4_MEMBER_1_MEMBER_1_FILL"/>
</g>

<g transform="matrix( 0.1061553955078125, 0, 0, 0.106109619140625, 29.05,21.6) ">
<use xlink:href="#Layer0_4_MEMBER_1_MEMBER_2_FILL"/>
</g>

<g transform="matrix( 0.1061553955078125, 0, 0, 0.106109619140625, 29.05,21.6) ">
<use xlink:href="#Layer0_4_MEMBER_1_MEMBER_3_FILL"/>
</g>

<g transform="matrix( 1.145538330078125, 0, 0, 1.145538330078125, 169.65,55.05) ">
<use xlink:href="#Layer0_5_MEMBER_0_FILL"/>
</g>

<g transform="matrix( 0.1227264404296875, 0, 0, 0.1227264404296875, 9.75,220.25) ">
<use xlink:href="#Layer0_5_MEMBER_1_MEMBER_0_FILL"/>
</g>

<g transform="matrix( 0.1227264404296875, 0, 0, 0.1227264404296875, 9.75,220.25) ">
<use xlink:href="#Layer0_5_MEMBER_1_MEMBER_1_FILL"/>
</g>

<g transform="matrix( 0.1227264404296875, 0, 0, 0.1227264404296875, 9.75,220.25) ">
<use xlink:href="#Layer0_5_MEMBER_1_MEMBER_2_FILL"/>
</g>

<g transform="matrix( 0.1227264404296875, 0, 0, 0.1227264404296875, 9.75,220.25) ">
<use xlink:href="#Layer0_5_MEMBER_1_MEMBER_3_FILL"/>
</g>

<g transform="matrix( 1.1188812255859375, 0, 0, 1.1188812255859375, 352.8,-24.25) ">
<use xlink:href="#Layer0_6_MEMBER_0_FILL"/>
</g>

<g transform="matrix( 0.0992889404296875, 0, 0, 0.0992889404296875, 203.8,136.6) ">
<use xlink:href="#Layer0_6_MEMBER_1_MEMBER_0_FILL"/>
</g>

<g transform="matrix( 0.0992889404296875, 0, 0, 0.0992889404296875, 203.8,136.6) ">
<use xlink:href="#Layer0_6_MEMBER_1_MEMBER_1_FILL"/>
</g>

<g transform="matrix( 1.013702392578125, 0, 0, 1.013702392578125, 201.8,138.5) ">
<use xlink:href="#Layer0_7_MEMBER_0_FILL"/>
</g>

<g transform="matrix( 0.1064300537109375, 0, 0, 0.1064300537109375, 61.85,283.25) ">
<use xlink:href="#Layer0_7_MEMBER_1_MEMBER_0_FILL"/>
</g>

<g transform="matrix( 0.1064300537109375, 0, 0, 0.1064300537109375, 61.85,283.25) ">
<use xlink:href="#Layer0_7_MEMBER_1_MEMBER_1_FILL"/>
</g>

<g transform="matrix( 0.1064300537109375, 0, 0, 0.1064300537109375, 61.85,283.25) ">
<use xlink:href="#Layer0_7_MEMBER_1_MEMBER_2_FILL"/>
</g>

<g transform="matrix( 0.1064300537109375, 0, 0, 0.1064300537109375, 61.85,283.25) ">
<use xlink:href="#Layer0_7_MEMBER_1_MEMBER_3_FILL"/>
</g>

<g transform="matrix( 0.1064300537109375, 0, 0, 0.1064300537109375, 61.85,283.25) ">
<use xlink:href="#Layer0_7_MEMBER_1_MEMBER_4_FILL"/>
</g>

<g transform="matrix( 0.1064300537109375, 0, 0, 0.1064300537109375, 61.85,283.25) ">
<use xlink:href="#Layer0_7_MEMBER_1_MEMBER_5_FILL"/>
</g>

<g transform="matrix( 0.1064300537109375, 0, 0, 0.1064300537109375, 61.85,283.25) ">
<use xlink:href="#Layer0_7_MEMBER_1_MEMBER_6_FILL"/>
</g>

<g transform="matrix( 0.1064300537109375, 0, 0, 0.1064300537109375, 61.85,283.25) ">
<use xlink:href="#Layer0_7_MEMBER_1_MEMBER_7_FILL"/>
</g>

<g transform="matrix( 0.1064300537109375, 0, 0, 0.1064300537109375, 61.85,283.25) ">
<use xlink:href="#Layer0_7_MEMBER_1_MEMBER_8_FILL"/>
</g>

<g transform="matrix( 0.1064300537109375, 0, 0, 0.1064300537109375, 61.85,283.25) ">
<use xlink:href="#Layer0_7_MEMBER_1_MEMBER_9_FILL"/>
</g>

<g transform="matrix( 0.1064300537109375, 0, 0, 0.1064300537109375, 61.85,283.25) ">
<use xlink:href="#Layer0_7_MEMBER_1_MEMBER_10_FILL"/>
</g>

<g transform="matrix( 0.1064300537109375, 0, 0, 0.1064300537109375, 61.85,283.25) ">
<use xlink:href="#Layer0_7_MEMBER_1_MEMBER_11_FILL"/>
</g>

<g transform="matrix( 0.1064300537109375, 0, 0, 0.1064300537109375, 61.85,283.25) ">
<use xlink:href="#Layer0_7_MEMBER_1_MEMBER_12_FILL"/>
</g>

<g transform="matrix( 0.1064300537109375, 0, 0, 0.1064300537109375, 61.85,283.25) ">
<use xlink:href="#Layer0_7_MEMBER_1_MEMBER_13_FILL"/>
</g>

<g transform="matrix( 1, 0, 0, 1, 0,0) ">
<use xlink:href="#Layer0_8_FILL"/>
</g>
</svg>
